%TF.GenerationSoftware,KiCad,Pcbnew,7.0.7*%
%TF.CreationDate,2024-03-07T17:34:25-08:00*%
%TF.ProjectId,magn_angle_sensor_v2,6d61676e-5f61-46e6-976c-655f73656e73,rev?*%
%TF.SameCoordinates,Original*%
%TF.FileFunction,Paste,Top*%
%TF.FilePolarity,Positive*%
%FSLAX46Y46*%
G04 Gerber Fmt 4.6, Leading zero omitted, Abs format (unit mm)*
G04 Created by KiCad (PCBNEW 7.0.7) date 2024-03-07 17:34:25*
%MOMM*%
%LPD*%
G01*
G04 APERTURE LIST*
G04 Aperture macros list*
%AMRoundRect*
0 Rectangle with rounded corners*
0 $1 Rounding radius*
0 $2 $3 $4 $5 $6 $7 $8 $9 X,Y pos of 4 corners*
0 Add a 4 corners polygon primitive as box body*
4,1,4,$2,$3,$4,$5,$6,$7,$8,$9,$2,$3,0*
0 Add four circle primitives for the rounded corners*
1,1,$1+$1,$2,$3*
1,1,$1+$1,$4,$5*
1,1,$1+$1,$6,$7*
1,1,$1+$1,$8,$9*
0 Add four rect primitives between the rounded corners*
20,1,$1+$1,$2,$3,$4,$5,0*
20,1,$1+$1,$4,$5,$6,$7,0*
20,1,$1+$1,$6,$7,$8,$9,0*
20,1,$1+$1,$8,$9,$2,$3,0*%
G04 Aperture macros list end*
%ADD10RoundRect,0.135000X0.185000X-0.135000X0.185000X0.135000X-0.185000X0.135000X-0.185000X-0.135000X0*%
%ADD11R,0.900000X1.700000*%
%ADD12RoundRect,0.249999X-0.395001X-0.395001X0.395001X-0.395001X0.395001X0.395001X-0.395001X0.395001X0*%
%ADD13RoundRect,0.050000X-0.387500X-0.050000X0.387500X-0.050000X0.387500X0.050000X-0.387500X0.050000X0*%
%ADD14RoundRect,0.050000X-0.050000X-0.387500X0.050000X-0.387500X0.050000X0.387500X-0.050000X0.387500X0*%
%ADD15RoundRect,0.135000X-0.185000X0.135000X-0.185000X-0.135000X0.185000X-0.135000X0.185000X0.135000X0*%
%ADD16RoundRect,0.150000X-0.825000X-0.150000X0.825000X-0.150000X0.825000X0.150000X-0.825000X0.150000X0*%
%ADD17RoundRect,0.140000X-0.170000X0.140000X-0.170000X-0.140000X0.170000X-0.140000X0.170000X0.140000X0*%
%ADD18RoundRect,0.140000X-0.140000X-0.170000X0.140000X-0.170000X0.140000X0.170000X-0.140000X0.170000X0*%
%ADD19RoundRect,0.150000X-0.587500X-0.150000X0.587500X-0.150000X0.587500X0.150000X-0.587500X0.150000X0*%
%ADD20RoundRect,0.135000X-0.135000X-0.185000X0.135000X-0.185000X0.135000X0.185000X-0.135000X0.185000X0*%
%ADD21RoundRect,0.140000X0.140000X0.170000X-0.140000X0.170000X-0.140000X-0.170000X0.140000X-0.170000X0*%
%ADD22R,1.240000X0.600000*%
%ADD23R,1.240000X0.300000*%
%ADD24RoundRect,0.147500X0.172500X-0.147500X0.172500X0.147500X-0.172500X0.147500X-0.172500X-0.147500X0*%
%ADD25RoundRect,0.140000X0.170000X-0.140000X0.170000X0.140000X-0.170000X0.140000X-0.170000X-0.140000X0*%
%ADD26RoundRect,0.135000X0.135000X0.185000X-0.135000X0.185000X-0.135000X-0.185000X0.135000X-0.185000X0*%
G04 APERTURE END LIST*
D10*
%TO.C,R6*%
X26700000Y-40210000D03*
X26700000Y-39190000D03*
%TD*%
%TO.C,R3*%
X22300000Y-21960000D03*
X22300000Y-20940000D03*
%TD*%
D11*
%TO.C,SW2*%
X26900000Y-21700000D03*
X23500000Y-21700000D03*
%TD*%
D12*
%TO.C,U5*%
X31700000Y-31750000D03*
X31700000Y-33350000D03*
X33300000Y-31750000D03*
X33300000Y-33350000D03*
D13*
X29062500Y-29950000D03*
X29062500Y-30350000D03*
X29062500Y-30750000D03*
X29062500Y-31150000D03*
X29062500Y-31550000D03*
X29062500Y-31950000D03*
X29062500Y-32350000D03*
X29062500Y-32750000D03*
X29062500Y-33150000D03*
X29062500Y-33550000D03*
X29062500Y-33950000D03*
X29062500Y-34350000D03*
X29062500Y-34750000D03*
X29062500Y-35150000D03*
D14*
X29900000Y-35987500D03*
X30300000Y-35987500D03*
X30700000Y-35987500D03*
X31100000Y-35987500D03*
X31500000Y-35987500D03*
X31900000Y-35987500D03*
X32300000Y-35987500D03*
X32700000Y-35987500D03*
X33100000Y-35987500D03*
X33500000Y-35987500D03*
X33900000Y-35987500D03*
X34300000Y-35987500D03*
X34700000Y-35987500D03*
X35100000Y-35987500D03*
D13*
X35937500Y-35150000D03*
X35937500Y-34750000D03*
X35937500Y-34350000D03*
X35937500Y-33950000D03*
X35937500Y-33550000D03*
X35937500Y-33150000D03*
X35937500Y-32750000D03*
X35937500Y-32350000D03*
X35937500Y-31950000D03*
X35937500Y-31550000D03*
X35937500Y-31150000D03*
X35937500Y-30750000D03*
X35937500Y-30350000D03*
X35937500Y-29950000D03*
D14*
X35100000Y-29112500D03*
X34700000Y-29112500D03*
X34300000Y-29112500D03*
X33900000Y-29112500D03*
X33500000Y-29112500D03*
X33100000Y-29112500D03*
X32700000Y-29112500D03*
X32300000Y-29112500D03*
X31900000Y-29112500D03*
X31500000Y-29112500D03*
X31100000Y-29112500D03*
X30700000Y-29112500D03*
X30300000Y-29112500D03*
X29900000Y-29112500D03*
%TD*%
D15*
%TO.C,R8*%
X36250000Y-37690000D03*
X36250000Y-38710000D03*
%TD*%
D16*
%TO.C,U6*%
X29575000Y-38095000D03*
X29575000Y-39365000D03*
X29575000Y-40635000D03*
X29575000Y-41905000D03*
X34525000Y-41905000D03*
X34525000Y-40635000D03*
X34525000Y-39365000D03*
X34525000Y-38095000D03*
%TD*%
D17*
%TO.C,C15*%
X32400000Y-26920000D03*
X32400000Y-27880000D03*
%TD*%
D18*
%TO.C,C18*%
X31680000Y-43200000D03*
X30720000Y-43200000D03*
%TD*%
D19*
%TO.C,U1*%
X42062500Y-27750000D03*
X42062500Y-29650000D03*
X43937500Y-28700000D03*
%TD*%
%TO.C,U2*%
X38175000Y-27750000D03*
X38175000Y-29650000D03*
X40050000Y-28700000D03*
%TD*%
D18*
%TO.C,C7*%
X22290000Y-23850000D03*
X23250000Y-23850000D03*
%TD*%
D11*
%TO.C,SW1*%
X28350000Y-21700000D03*
X31750000Y-21700000D03*
%TD*%
D20*
%TO.C,R2*%
X32990000Y-20550000D03*
X34010000Y-20550000D03*
%TD*%
D21*
%TO.C,C19*%
X32620000Y-43200000D03*
X33580000Y-43200000D03*
%TD*%
%TO.C,C9*%
X27030000Y-23850000D03*
X26070000Y-23850000D03*
%TD*%
D22*
%TO.C,J2*%
X26250000Y-30130000D03*
X26250000Y-30930000D03*
D23*
X26250000Y-32080000D03*
X26250000Y-33080000D03*
X26250000Y-33580000D03*
X26250000Y-34580000D03*
D22*
X26250000Y-35730000D03*
X26250000Y-36530000D03*
X26250000Y-36530000D03*
X26250000Y-35730000D03*
D23*
X26250000Y-35080000D03*
X26250000Y-34080000D03*
X26250000Y-32580000D03*
X26250000Y-31580000D03*
D22*
X26250000Y-30930000D03*
X26250000Y-30130000D03*
%TD*%
D21*
%TO.C,C8*%
X25130000Y-23850000D03*
X24170000Y-23850000D03*
%TD*%
D24*
%TO.C,D1*%
X26700000Y-42135000D03*
X26700000Y-41165000D03*
%TD*%
D25*
%TO.C,C16*%
X34700000Y-27930000D03*
X34700000Y-26970000D03*
%TD*%
D18*
%TO.C,C22*%
X35480000Y-43200000D03*
X34520000Y-43200000D03*
%TD*%
D26*
%TO.C,R1*%
X34010000Y-21600000D03*
X32990000Y-21600000D03*
%TD*%
M02*
