%TF.GenerationSoftware,KiCad,Pcbnew,7.0.7*%
%TF.CreationDate,2024-03-07T17:34:25-08:00*%
%TF.ProjectId,magn_angle_sensor_v2,6d61676e-5f61-46e6-976c-655f73656e73,rev?*%
%TF.SameCoordinates,Original*%
%TF.FileFunction,Copper,L2,Bot*%
%TF.FilePolarity,Positive*%
%FSLAX46Y46*%
G04 Gerber Fmt 4.6, Leading zero omitted, Abs format (unit mm)*
G04 Created by KiCad (PCBNEW 7.0.7) date 2024-03-07 17:34:25*
%MOMM*%
%LPD*%
G01*
G04 APERTURE LIST*
G04 Aperture macros list*
%AMRoundRect*
0 Rectangle with rounded corners*
0 $1 Rounding radius*
0 $2 $3 $4 $5 $6 $7 $8 $9 X,Y pos of 4 corners*
0 Add a 4 corners polygon primitive as box body*
4,1,4,$2,$3,$4,$5,$6,$7,$8,$9,$2,$3,0*
0 Add four circle primitives for the rounded corners*
1,1,$1+$1,$2,$3*
1,1,$1+$1,$4,$5*
1,1,$1+$1,$6,$7*
1,1,$1+$1,$8,$9*
0 Add four rect primitives between the rounded corners*
20,1,$1+$1,$2,$3,$4,$5,0*
20,1,$1+$1,$4,$5,$6,$7,0*
20,1,$1+$1,$6,$7,$8,$9,0*
20,1,$1+$1,$8,$9,$2,$3,0*%
G04 Aperture macros list end*
%TA.AperFunction,ComponentPad*%
%ADD10RoundRect,0.250000X0.625000X-0.350000X0.625000X0.350000X-0.625000X0.350000X-0.625000X-0.350000X0*%
%TD*%
%TA.AperFunction,ComponentPad*%
%ADD11O,1.750000X1.200000*%
%TD*%
%TA.AperFunction,ComponentPad*%
%ADD12C,5.600000*%
%TD*%
%TA.AperFunction,ComponentPad*%
%ADD13O,2.100000X1.000000*%
%TD*%
%TA.AperFunction,ComponentPad*%
%ADD14O,1.800000X1.000000*%
%TD*%
%TA.AperFunction,ComponentPad*%
%ADD15R,1.700000X1.700000*%
%TD*%
%TA.AperFunction,ComponentPad*%
%ADD16O,1.700000X1.700000*%
%TD*%
%TA.AperFunction,SMDPad,CuDef*%
%ADD17RoundRect,0.140000X0.170000X-0.140000X0.170000X0.140000X-0.170000X0.140000X-0.170000X-0.140000X0*%
%TD*%
%TA.AperFunction,SMDPad,CuDef*%
%ADD18RoundRect,0.140000X-0.140000X-0.170000X0.140000X-0.170000X0.140000X0.170000X-0.140000X0.170000X0*%
%TD*%
%TA.AperFunction,SMDPad,CuDef*%
%ADD19RoundRect,0.135000X0.135000X0.185000X-0.135000X0.185000X-0.135000X-0.185000X0.135000X-0.185000X0*%
%TD*%
%TA.AperFunction,SMDPad,CuDef*%
%ADD20RoundRect,0.135000X-0.135000X-0.185000X0.135000X-0.185000X0.135000X0.185000X-0.135000X0.185000X0*%
%TD*%
%TA.AperFunction,SMDPad,CuDef*%
%ADD21RoundRect,0.250000X0.250000X0.475000X-0.250000X0.475000X-0.250000X-0.475000X0.250000X-0.475000X0*%
%TD*%
%TA.AperFunction,SMDPad,CuDef*%
%ADD22RoundRect,0.135000X0.185000X-0.135000X0.185000X0.135000X-0.185000X0.135000X-0.185000X-0.135000X0*%
%TD*%
%TA.AperFunction,SMDPad,CuDef*%
%ADD23RoundRect,0.140000X-0.170000X0.140000X-0.170000X-0.140000X0.170000X-0.140000X0.170000X0.140000X0*%
%TD*%
%TA.AperFunction,SMDPad,CuDef*%
%ADD24RoundRect,0.150000X-0.650000X-0.150000X0.650000X-0.150000X0.650000X0.150000X-0.650000X0.150000X0*%
%TD*%
%TA.AperFunction,SMDPad,CuDef*%
%ADD25RoundRect,0.150000X0.675000X0.150000X-0.675000X0.150000X-0.675000X-0.150000X0.675000X-0.150000X0*%
%TD*%
%TA.AperFunction,SMDPad,CuDef*%
%ADD26C,1.000000*%
%TD*%
%TA.AperFunction,SMDPad,CuDef*%
%ADD27RoundRect,0.140000X0.140000X0.170000X-0.140000X0.170000X-0.140000X-0.170000X0.140000X-0.170000X0*%
%TD*%
%TA.AperFunction,SMDPad,CuDef*%
%ADD28R,1.400000X1.200000*%
%TD*%
%TA.AperFunction,SMDPad,CuDef*%
%ADD29RoundRect,0.150000X-0.587500X-0.150000X0.587500X-0.150000X0.587500X0.150000X-0.587500X0.150000X0*%
%TD*%
%TA.AperFunction,ViaPad*%
%ADD30C,0.600000*%
%TD*%
%TA.AperFunction,ViaPad*%
%ADD31C,0.800000*%
%TD*%
%TA.AperFunction,ViaPad*%
%ADD32C,1.000000*%
%TD*%
%TA.AperFunction,Conductor*%
%ADD33C,0.150000*%
%TD*%
%TA.AperFunction,Conductor*%
%ADD34C,0.500000*%
%TD*%
%TA.AperFunction,Conductor*%
%ADD35C,0.200000*%
%TD*%
%TA.AperFunction,Conductor*%
%ADD36C,0.400000*%
%TD*%
%TA.AperFunction,Conductor*%
%ADD37C,0.250000*%
%TD*%
G04 APERTURE END LIST*
D10*
%TO.P,J3,1,Pin_1*%
%TO.N,+24V*%
X38600000Y-38850000D03*
D11*
%TO.P,J3,2,Pin_2*%
%TO.N,/CAN_H*%
X38600000Y-36850000D03*
%TO.P,J3,3,Pin_3*%
%TO.N,/CAN_L*%
X38600000Y-34850000D03*
%TO.P,J3,4,Pin_4*%
%TO.N,GND*%
X38600000Y-32850000D03*
%TD*%
D12*
%TO.P,H2,1*%
%TO.N,N/C*%
X42000000Y-23000000D03*
%TD*%
D13*
%TO.P,J2,S1,SHIELD*%
%TO.N,GND*%
X25650000Y-29010000D03*
D14*
X21450000Y-29010000D03*
D13*
X25650000Y-37650000D03*
D14*
X21450000Y-37650000D03*
%TD*%
D12*
%TO.P,H1,1*%
%TO.N,N/C*%
X23000000Y-42000000D03*
%TD*%
D15*
%TO.P,J1,1,Pin_1*%
%TO.N,Net-(J1-Pin_1)*%
X41100000Y-43100000D03*
D16*
%TO.P,J1,2,Pin_2*%
%TO.N,/CAN_H*%
X38560000Y-43100000D03*
%TD*%
D17*
%TO.P,C20,1*%
%TO.N,GND*%
X30050000Y-39230000D03*
%TO.P,C20,2*%
%TO.N,Net-(U5-XIN)*%
X30050000Y-38270000D03*
%TD*%
D18*
%TO.P,C21,1*%
%TO.N,GND*%
X32770000Y-40950000D03*
%TO.P,C21,2*%
%TO.N,Net-(C21-Pad2)*%
X33730000Y-40950000D03*
%TD*%
%TO.P,C2,1*%
%TO.N,GND*%
X31420000Y-28400000D03*
%TO.P,C2,2*%
%TO.N,+1V1*%
X32380000Y-28400000D03*
%TD*%
D19*
%TO.P,R10,1*%
%TO.N,Net-(J2-CC2)*%
X24510000Y-34900000D03*
%TO.P,R10,2*%
%TO.N,GND*%
X23490000Y-34900000D03*
%TD*%
D20*
%TO.P,R5,1*%
%TO.N,Net-(U5-USB_DM)*%
X23490000Y-32900000D03*
%TO.P,R5,2*%
%TO.N,/USB_D-*%
X24510000Y-32900000D03*
%TD*%
D18*
%TO.P,C24,1*%
%TO.N,/CAN_L*%
X40520000Y-33600000D03*
%TO.P,C24,2*%
%TO.N,GND*%
X41480000Y-33600000D03*
%TD*%
D21*
%TO.P,C10,1*%
%TO.N,GND*%
X42350000Y-38850000D03*
%TO.P,C10,2*%
%TO.N,+24V*%
X40450000Y-38850000D03*
%TD*%
D22*
%TO.P,R7,1*%
%TO.N,Net-(C21-Pad2)*%
X35250000Y-39260000D03*
%TO.P,R7,2*%
%TO.N,Net-(U5-XOUT)*%
X35250000Y-38240000D03*
%TD*%
D23*
%TO.P,C3,1*%
%TO.N,GND*%
X44050000Y-26720000D03*
%TO.P,C3,2*%
%TO.N,+3.3V*%
X44050000Y-27680000D03*
%TD*%
D22*
%TO.P,R9,1*%
%TO.N,Net-(J1-Pin_1)*%
X43400000Y-43860000D03*
%TO.P,R9,2*%
%TO.N,/CAN_L*%
X43400000Y-42840000D03*
%TD*%
D24*
%TO.P,U3,1,~{CS}*%
%TO.N,/QSPI_SS*%
X28550000Y-26955000D03*
%TO.P,U3,2,DO(IO1)*%
%TO.N,/QSPI_SD1*%
X28550000Y-25685000D03*
%TO.P,U3,3,IO2*%
%TO.N,/QSPI_SD2*%
X28550000Y-24415000D03*
%TO.P,U3,4,GND*%
%TO.N,GND*%
X28550000Y-23145000D03*
%TO.P,U3,5,DI(IO0)*%
%TO.N,/QSPI_SD0*%
X35750000Y-23145000D03*
%TO.P,U3,6,CLK*%
%TO.N,/QSPI_SCK*%
X35750000Y-24415000D03*
%TO.P,U3,7,IO3*%
%TO.N,/QSPI_SD3*%
X35750000Y-25685000D03*
%TO.P,U3,8,VCC*%
%TO.N,+3.3V*%
X35750000Y-26955000D03*
%TD*%
D25*
%TO.P,U4,1,VDD*%
%TO.N,+3.3V*%
X35125000Y-30595000D03*
%TO.P,U4,2,MODE*%
X35125000Y-31865000D03*
%TO.P,U4,3,ANALOG/PWM*%
%TO.N,unconnected-(U4-ANALOG{slash}PWM-Pad3)*%
X35125000Y-33135000D03*
%TO.P,U4,4,GND*%
%TO.N,GND*%
X35125000Y-34405000D03*
%TO.P,U4,5,PUSH*%
%TO.N,unconnected-(U4-PUSH-Pad5)*%
X29875000Y-34405000D03*
%TO.P,U4,6,A/U/SDA/DO*%
%TO.N,/SDA*%
X29875000Y-33135000D03*
%TO.P,U4,7,B/V/SCL/CLK*%
%TO.N,/SCL*%
X29875000Y-31865000D03*
%TO.P,U4,8,Z/W/CSN*%
%TO.N,unconnected-(U4-Z{slash}W{slash}CSN-Pad8)*%
X29875000Y-30595000D03*
%TD*%
D26*
%TO.P,TP4,1,1*%
%TO.N,/SDA*%
X29450000Y-42850000D03*
%TD*%
D18*
%TO.P,C23,1*%
%TO.N,/CAN_H*%
X37620000Y-41200000D03*
%TO.P,C23,2*%
%TO.N,GND*%
X38580000Y-41200000D03*
%TD*%
D23*
%TO.P,C4,1*%
%TO.N,GND*%
X41950000Y-26720000D03*
%TO.P,C4,2*%
%TO.N,+3.3V*%
X41950000Y-27680000D03*
%TD*%
D27*
%TO.P,C1,1*%
%TO.N,GND*%
X34130000Y-35950000D03*
%TO.P,C1,2*%
%TO.N,+1V1*%
X33170000Y-35950000D03*
%TD*%
D19*
%TO.P,R11,1*%
%TO.N,Net-(J2-CC1)*%
X24510000Y-31900000D03*
%TO.P,R11,2*%
%TO.N,GND*%
X23490000Y-31900000D03*
%TD*%
D26*
%TO.P,TP3,1,1*%
%TO.N,/SCL*%
X27450000Y-42850000D03*
%TD*%
D28*
%TO.P,Y1,1,1*%
%TO.N,Net-(C21-Pad2)*%
X33750000Y-39600000D03*
%TO.P,Y1,2,2*%
%TO.N,GND*%
X31550000Y-39600000D03*
%TO.P,Y1,3,3*%
%TO.N,Net-(U5-XIN)*%
X31550000Y-37900000D03*
%TO.P,Y1,4,4*%
%TO.N,GND*%
X33750000Y-37900000D03*
%TD*%
D17*
%TO.P,C14,1*%
%TO.N,+3.3V*%
X37300000Y-26930000D03*
%TO.P,C14,2*%
%TO.N,GND*%
X37300000Y-25970000D03*
%TD*%
D29*
%TO.P,CR1,1,1*%
%TO.N,/CAN_H*%
X41062500Y-36800000D03*
%TO.P,CR1,2,2*%
%TO.N,/CAN_L*%
X41062500Y-34900000D03*
%TO.P,CR1,3,3*%
%TO.N,GND*%
X42937500Y-35850000D03*
%TD*%
D23*
%TO.P,C5,1*%
%TO.N,GND*%
X43000000Y-26720000D03*
%TO.P,C5,2*%
%TO.N,+3.3V*%
X43000000Y-27680000D03*
%TD*%
D18*
%TO.P,C13,1*%
%TO.N,+3.3V*%
X39420000Y-29650000D03*
%TO.P,C13,2*%
%TO.N,GND*%
X40380000Y-29650000D03*
%TD*%
D23*
%TO.P,C12,1*%
%TO.N,+5V*%
X41850000Y-30770000D03*
%TO.P,C12,2*%
%TO.N,GND*%
X41850000Y-31730000D03*
%TD*%
%TO.P,C11,1*%
%TO.N,+5V*%
X43050000Y-30770000D03*
%TO.P,C11,2*%
%TO.N,GND*%
X43050000Y-31730000D03*
%TD*%
%TO.P,C6,2*%
%TO.N,+3.3V*%
X40900000Y-27680000D03*
%TO.P,C6,1*%
%TO.N,GND*%
X40900000Y-26720000D03*
%TD*%
D19*
%TO.P,R4,1*%
%TO.N,/USB_D+*%
X24510000Y-33900000D03*
%TO.P,R4,2*%
%TO.N,Net-(U5-USB_DP)*%
X23490000Y-33900000D03*
%TD*%
D23*
%TO.P,C17,1*%
%TO.N,+3.3V*%
X36750000Y-31870000D03*
%TO.P,C17,2*%
%TO.N,GND*%
X36750000Y-32830000D03*
%TD*%
D30*
%TO.N,GND*%
X20990000Y-25430000D03*
X32377170Y-27047330D03*
%TO.N,+1V1*%
X32410000Y-27860000D03*
%TO.N,GND*%
X31423576Y-35049500D03*
D31*
X23900000Y-30650000D03*
D30*
%TO.N,+3.3V*%
X36700000Y-26955000D03*
X32900000Y-29150000D03*
D31*
X39420000Y-29650000D03*
X34916849Y-30544816D03*
D30*
%TO.N,+1V1*%
X33150000Y-34649502D03*
D31*
%TO.N,+5V*%
X41850000Y-30770000D03*
X44450000Y-34400000D03*
D30*
%TO.N,VBUS*%
X26250000Y-30930000D03*
X26250000Y-35730000D03*
%TO.N,/USB_D+*%
X24510000Y-33900000D03*
%TO.N,/USB_D-*%
X24510000Y-32900000D03*
%TO.N,/LED*%
X30200000Y-36945500D03*
X26700000Y-39190000D03*
%TO.N,/RUN*%
X33986891Y-35010391D03*
X29326355Y-28489056D03*
X27213911Y-26416089D03*
X23500000Y-21700000D03*
%TO.N,/QSPI_SS*%
X34000000Y-21600000D03*
X28550000Y-26955000D03*
%TO.N,/SCL*%
X27579657Y-31933310D03*
%TO.N,/SDA*%
X28224500Y-39900000D03*
X27647372Y-31069947D03*
X28224500Y-37250000D03*
%TO.N,/QSPI_SD3*%
X35750000Y-25685000D03*
%TO.N,/QSPI_SCK*%
X35750000Y-24415000D03*
%TO.N,/QSPI_SD0*%
X35750000Y-23145000D03*
%TO.N,/QSPI_SD2*%
X28550000Y-24415000D03*
%TO.N,/QSPI_SD1*%
X28550000Y-25685000D03*
%TO.N,GND*%
X40900000Y-26750000D03*
X29900000Y-39300000D03*
X31550000Y-39650000D03*
X24240000Y-25930000D03*
X22300000Y-23850000D03*
X35000500Y-34386667D03*
X41500000Y-33600000D03*
X32500000Y-32550000D03*
D32*
X30650000Y-24150000D03*
X28350000Y-21650000D03*
X38200000Y-27800000D03*
D30*
X32500000Y-40550000D03*
X41850000Y-31750000D03*
X37400000Y-26000000D03*
X27050000Y-23850000D03*
X43000000Y-26750000D03*
X34100000Y-26450000D03*
X25700000Y-44400000D03*
X44200000Y-40300000D03*
D32*
X26900000Y-21700000D03*
D30*
X25250000Y-39000000D03*
X44050000Y-26750000D03*
X39200000Y-41200000D03*
X33600000Y-43200000D03*
X41950000Y-26750000D03*
X35500000Y-43200000D03*
X43050000Y-31750000D03*
X44400000Y-35950000D03*
X33050000Y-37900000D03*
D31*
%TO.N,Net-(J2-CC1)*%
X24510000Y-31900000D03*
%TO.N,Net-(J2-CC2)*%
X24510000Y-34900000D03*
%TO.N,Net-(U5-XIN)*%
X31550000Y-37200000D03*
D30*
%TO.N,Net-(U5-USB_DP)*%
X33198980Y-28152712D03*
%TO.N,Net-(U5-USB_DM)*%
X33889054Y-27748978D03*
D31*
%TO.N,Net-(U5-XOUT)*%
X35261286Y-37014896D03*
%TD*%
D33*
%TO.N,Net-(U5-USB_DP)*%
X22595000Y-33005000D02*
X23490000Y-33900000D01*
X24975026Y-27530000D02*
X22595000Y-29910026D01*
X29725025Y-27530000D02*
X24975026Y-27530000D01*
X32737282Y-26100000D02*
X31155024Y-26100000D01*
X33811759Y-27174478D02*
X32737282Y-26100000D01*
X34466785Y-28033215D02*
X34466785Y-27511305D01*
X34466785Y-27511305D02*
X34129958Y-27174478D01*
X22595000Y-29910026D02*
X22595000Y-33005000D01*
X34129958Y-27174478D02*
X33811759Y-27174478D01*
X34175522Y-28324478D02*
X34466785Y-28033215D01*
X33370746Y-28324478D02*
X34175522Y-28324478D01*
X33198980Y-28152712D02*
X33370746Y-28324478D01*
X31155024Y-26100000D02*
X29725025Y-27530000D01*
%TO.N,Net-(U5-USB_DM)*%
X22945000Y-32355000D02*
X23490000Y-32900000D01*
X22945000Y-30055000D02*
X22945000Y-32355000D01*
X29870000Y-27880000D02*
X25120000Y-27880000D01*
X25120000Y-27880000D02*
X22945000Y-30055000D01*
X33889054Y-27748978D02*
X33889054Y-27746041D01*
X33889054Y-27746041D02*
X32593013Y-26450000D01*
X32593013Y-26450000D02*
X31299999Y-26450000D01*
X31299999Y-26450000D02*
X29870000Y-27880000D01*
D34*
%TO.N,GND*%
X32162009Y-27047330D02*
X32377170Y-27047330D01*
X31420000Y-27789339D02*
X32162009Y-27047330D01*
X31420000Y-28400000D02*
X31420000Y-27789339D01*
D33*
%TO.N,+1V1*%
X32420000Y-27860000D02*
X32400000Y-27880000D01*
X32410000Y-27860000D02*
X32420000Y-27860000D01*
X32410000Y-27870000D02*
X32410000Y-27860000D01*
%TO.N,/RUN*%
X27213911Y-26416089D02*
X23500000Y-22702178D01*
X23500000Y-22702178D02*
X23500000Y-21700000D01*
D35*
%TO.N,/SDA*%
X28715000Y-33135000D02*
X29875000Y-33135000D01*
X28224500Y-37250000D02*
X28224500Y-33625500D01*
X28224500Y-33625500D02*
X28715000Y-33135000D01*
D33*
%TO.N,/RUN*%
X33986891Y-34673220D02*
X33986891Y-35010391D01*
X33388173Y-34074502D02*
X33986891Y-34673220D01*
X33074502Y-34074502D02*
X33388173Y-34074502D01*
X31325000Y-31393985D02*
X31325000Y-32325000D01*
X31325000Y-32325000D02*
X33074502Y-34074502D01*
X30975000Y-30177177D02*
X30975000Y-31043985D01*
X29326355Y-28528532D02*
X30975000Y-30177177D01*
X29326355Y-28489056D02*
X29326355Y-28528532D01*
X30975000Y-31043985D02*
X31325000Y-31393985D01*
D35*
%TO.N,+3.3V*%
X36700000Y-26955000D02*
X35750000Y-26955000D01*
X36700000Y-26955000D02*
X37275000Y-26955000D01*
X37275000Y-26955000D02*
X37300000Y-26930000D01*
D36*
%TO.N,GND*%
X33500000Y-37900000D02*
X33750000Y-37900000D01*
X31550000Y-39600000D02*
X31800000Y-39600000D01*
X31800000Y-39600000D02*
X33500000Y-37900000D01*
D33*
X31423576Y-35049500D02*
X32615000Y-36240924D01*
X32615000Y-36240924D02*
X32615000Y-37465000D01*
X32615000Y-37465000D02*
X33050000Y-37900000D01*
D35*
%TO.N,Net-(U5-XIN)*%
X31550000Y-37200000D02*
X31550000Y-37900000D01*
D34*
%TO.N,GND*%
X31420000Y-29879715D02*
X31420000Y-28400000D01*
X32500000Y-30959715D02*
X31420000Y-29879715D01*
X32500000Y-32550000D02*
X32500000Y-30959715D01*
D37*
X23490000Y-31900000D02*
X23490000Y-31060000D01*
X23490000Y-31060000D02*
X23900000Y-30650000D01*
D34*
%TO.N,+3.3V*%
X39420000Y-29650000D02*
X35811665Y-29650000D01*
D35*
X35130000Y-31870000D02*
X35125000Y-31865000D01*
D34*
X44050000Y-27680000D02*
X40900000Y-27680000D01*
D35*
X34294816Y-30544816D02*
X34916849Y-30544816D01*
D34*
X39420000Y-29160000D02*
X39420000Y-29650000D01*
X35125000Y-31865000D02*
X35125000Y-30752967D01*
D35*
X32900000Y-29150000D02*
X34294816Y-30544816D01*
D34*
X35125000Y-30752967D02*
X34916849Y-30544816D01*
D35*
X36750000Y-31870000D02*
X35130000Y-31870000D01*
D34*
X35811665Y-29650000D02*
X34916849Y-30544816D01*
X40900000Y-27680000D02*
X39420000Y-29160000D01*
D33*
%TO.N,+1V1*%
X34000000Y-33436041D02*
X34000000Y-31350000D01*
X33150000Y-35866899D02*
X33818895Y-36535794D01*
X33150000Y-35930000D02*
X33170000Y-35950000D01*
X36225000Y-34775000D02*
X36225000Y-34078959D01*
X35856041Y-33710000D02*
X34273959Y-33710000D01*
X34464206Y-36535794D02*
X36225000Y-34775000D01*
X33150000Y-34649502D02*
X33150000Y-35930000D01*
X34000000Y-31350000D02*
X32325000Y-29675000D01*
X33818895Y-36535794D02*
X34464206Y-36535794D01*
X33150000Y-34649502D02*
X33150000Y-35866899D01*
X36225000Y-34078959D02*
X35856041Y-33710000D01*
X32325000Y-29675000D02*
X32325000Y-27955000D01*
X34273959Y-33710000D02*
X34000000Y-33436041D01*
X32325000Y-27955000D02*
X32410000Y-27870000D01*
X33150000Y-34649502D02*
X33170000Y-34669502D01*
D34*
%TO.N,+24V*%
X40450000Y-38850000D02*
X38600000Y-38850000D01*
D35*
%TO.N,+5V*%
X43050000Y-30770000D02*
X41850000Y-30770000D01*
D37*
X44000000Y-33950000D02*
X44000000Y-31712391D01*
X44000000Y-31712391D02*
X43057609Y-30770000D01*
X43057609Y-30770000D02*
X43050000Y-30770000D01*
X44450000Y-34400000D02*
X44000000Y-33950000D01*
%TO.N,VBUS*%
X26250000Y-35730000D02*
X26250000Y-30930000D01*
D33*
%TO.N,/LED*%
X27955500Y-39190000D02*
X26700000Y-39190000D01*
X30200000Y-36945500D02*
X27955500Y-39190000D01*
%TO.N,/QSPI_SS*%
X29795000Y-26955000D02*
X28550000Y-26955000D01*
X34000000Y-22750000D02*
X29795000Y-26955000D01*
X34000000Y-21600000D02*
X34000000Y-22750000D01*
D35*
%TO.N,/SCL*%
X25850000Y-39131371D02*
X27579657Y-37401714D01*
D33*
X27647967Y-31865000D02*
X29875000Y-31865000D01*
X27579657Y-31933310D02*
X27647967Y-31865000D01*
D35*
X27450000Y-42850000D02*
X27450000Y-42065937D01*
X27450000Y-42065937D02*
X25850000Y-40465937D01*
X25850000Y-40465937D02*
X25850000Y-39131371D01*
X27579657Y-37401714D02*
X27579657Y-31933310D01*
D33*
%TO.N,/SDA*%
X29875000Y-33135000D02*
X30031041Y-33135000D01*
X30975000Y-31538959D02*
X30606041Y-31170000D01*
X30031041Y-33135000D02*
X30975000Y-32191041D01*
X30606041Y-31170000D02*
X27747425Y-31170000D01*
X30975000Y-32191041D02*
X30975000Y-31538959D01*
D35*
X29450000Y-42850000D02*
X29450000Y-41125500D01*
X29450000Y-41125500D02*
X28224500Y-39900000D01*
D33*
X27747425Y-31170000D02*
X27647372Y-31069947D01*
%TO.N,GND*%
X36890000Y-26380000D02*
X37300000Y-25970000D01*
D34*
X29645000Y-23145000D02*
X28550000Y-23145000D01*
X39200000Y-41200000D02*
X38580000Y-41200000D01*
D33*
X34100000Y-26450000D02*
X34170000Y-26380000D01*
X34170000Y-26380000D02*
X36890000Y-26380000D01*
X35125000Y-34955000D02*
X35125000Y-34405000D01*
D34*
X30650000Y-24150000D02*
X29645000Y-23145000D01*
D33*
X34130000Y-35950000D02*
X35125000Y-34955000D01*
D35*
%TO.N,Net-(U5-XIN)*%
X30050000Y-38270000D02*
X31180000Y-38270000D01*
X31180000Y-38270000D02*
X31550000Y-37900000D01*
%TO.N,Net-(C21-Pad2)*%
X35250000Y-39260000D02*
X34090000Y-39260000D01*
X33730000Y-40950000D02*
X33730000Y-39620000D01*
X33730000Y-39620000D02*
X33750000Y-39600000D01*
X34090000Y-39260000D02*
X33750000Y-39600000D01*
%TO.N,/CAN_H*%
X37425000Y-41965000D02*
X37425000Y-38025000D01*
X38560000Y-43100000D02*
X37425000Y-41965000D01*
D34*
X41012500Y-36850000D02*
X41062500Y-36800000D01*
X38600000Y-36850000D02*
X41012500Y-36850000D01*
D35*
X37425000Y-38025000D02*
X38600000Y-36850000D01*
D34*
%TO.N,/CAN_L*%
X41012500Y-34850000D02*
X41062500Y-34900000D01*
D37*
X40520000Y-33600000D02*
X40520000Y-34357500D01*
D35*
X40486396Y-34850000D02*
X38600000Y-34850000D01*
D37*
X40520000Y-34357500D02*
X41062500Y-34900000D01*
D35*
X43400000Y-37763604D02*
X40486396Y-34850000D01*
X43400000Y-42840000D02*
X43400000Y-37763604D01*
D34*
X38600000Y-34850000D02*
X41012500Y-34850000D01*
D35*
%TO.N,Net-(J1-Pin_1)*%
X43400000Y-43860000D02*
X43390000Y-43850000D01*
X43390000Y-43850000D02*
X41850000Y-43850000D01*
X41850000Y-43850000D02*
X41100000Y-43100000D01*
%TO.N,Net-(U5-XOUT)*%
X35261286Y-37014896D02*
X35261286Y-38228714D01*
X35261286Y-38228714D02*
X35250000Y-38240000D01*
%TD*%
%TA.AperFunction,Conductor*%
%TO.N,GND*%
G36*
X44953168Y-28116789D02*
G01*
X44993098Y-28174124D01*
X44999500Y-28213452D01*
X44999500Y-33467990D01*
X44979815Y-33535029D01*
X44927011Y-33580784D01*
X44857853Y-33590728D01*
X44825064Y-33581269D01*
X44729807Y-33538857D01*
X44729800Y-33538854D01*
X44723714Y-33537561D01*
X44662233Y-33504366D01*
X44628459Y-33443201D01*
X44625500Y-33416272D01*
X44625500Y-31795129D01*
X44627224Y-31779515D01*
X44626938Y-31779488D01*
X44627672Y-31771725D01*
X44625500Y-31702594D01*
X44625500Y-31673042D01*
X44625500Y-31673041D01*
X44624629Y-31666150D01*
X44624172Y-31660336D01*
X44622709Y-31613763D01*
X44617122Y-31594535D01*
X44613174Y-31575475D01*
X44612506Y-31570185D01*
X44610664Y-31555599D01*
X44593507Y-31512266D01*
X44591619Y-31506750D01*
X44578619Y-31462003D01*
X44568418Y-31444754D01*
X44559860Y-31427285D01*
X44552486Y-31408659D01*
X44552483Y-31408655D01*
X44552483Y-31408654D01*
X44525098Y-31370962D01*
X44521890Y-31366078D01*
X44498172Y-31325973D01*
X44498163Y-31325962D01*
X44484005Y-31311804D01*
X44471370Y-31297011D01*
X44459593Y-31280803D01*
X44423693Y-31251104D01*
X44419381Y-31247181D01*
X43896819Y-30724619D01*
X43863334Y-30663296D01*
X43860500Y-30636938D01*
X43860500Y-30565308D01*
X43857643Y-30529008D01*
X43857642Y-30529002D01*
X43812495Y-30373609D01*
X43812494Y-30373606D01*
X43812494Y-30373605D01*
X43730117Y-30234313D01*
X43730115Y-30234311D01*
X43730112Y-30234307D01*
X43615692Y-30119887D01*
X43615684Y-30119881D01*
X43506429Y-30055268D01*
X43476395Y-30037506D01*
X43476394Y-30037505D01*
X43476393Y-30037505D01*
X43476390Y-30037504D01*
X43320997Y-29992357D01*
X43320991Y-29992356D01*
X43284692Y-29989500D01*
X43284690Y-29989500D01*
X42815310Y-29989500D01*
X42815308Y-29989500D01*
X42779008Y-29992356D01*
X42779002Y-29992357D01*
X42623609Y-30037504D01*
X42623604Y-30037506D01*
X42556018Y-30077475D01*
X42488294Y-30094656D01*
X42422032Y-30072496D01*
X42420014Y-30071060D01*
X42302734Y-29985851D01*
X42302729Y-29985848D01*
X42129807Y-29908857D01*
X42129802Y-29908855D01*
X41972474Y-29875415D01*
X41944646Y-29869500D01*
X41755354Y-29869500D01*
X41727526Y-29875415D01*
X41570197Y-29908855D01*
X41570192Y-29908857D01*
X41397270Y-29985848D01*
X41397265Y-29985851D01*
X41244129Y-30097111D01*
X41117466Y-30237785D01*
X41022821Y-30401715D01*
X41022818Y-30401722D01*
X40968894Y-30567685D01*
X40964326Y-30581744D01*
X40944540Y-30770000D01*
X40964326Y-30958256D01*
X40964327Y-30958259D01*
X41022818Y-31138277D01*
X41022821Y-31138284D01*
X41117467Y-31302216D01*
X41223626Y-31420117D01*
X41244129Y-31442888D01*
X41397265Y-31554148D01*
X41397270Y-31554151D01*
X41570192Y-31631142D01*
X41570197Y-31631144D01*
X41755354Y-31670500D01*
X41755355Y-31670500D01*
X41944644Y-31670500D01*
X41944646Y-31670500D01*
X42129803Y-31631144D01*
X42302730Y-31554151D01*
X42373830Y-31502494D01*
X42420015Y-31468939D01*
X42485821Y-31445459D01*
X42553875Y-31461284D01*
X42556021Y-31462525D01*
X42623605Y-31502494D01*
X42638254Y-31506750D01*
X42779002Y-31547642D01*
X42779005Y-31547642D01*
X42779007Y-31547643D01*
X42791107Y-31548595D01*
X42815308Y-31550500D01*
X42815310Y-31550500D01*
X42902157Y-31550500D01*
X42969196Y-31570185D01*
X42989838Y-31586819D01*
X43338181Y-31935162D01*
X43371666Y-31996485D01*
X43374500Y-32022843D01*
X43374499Y-33867255D01*
X43372776Y-33882872D01*
X43373061Y-33882899D01*
X43372326Y-33890665D01*
X43374500Y-33959814D01*
X43374500Y-33989343D01*
X43374501Y-33989360D01*
X43375368Y-33996231D01*
X43375826Y-34002050D01*
X43377290Y-34048624D01*
X43377291Y-34048627D01*
X43382880Y-34067867D01*
X43386824Y-34086911D01*
X43389336Y-34106791D01*
X43406490Y-34150119D01*
X43408382Y-34155647D01*
X43418161Y-34189306D01*
X43421382Y-34200390D01*
X43428096Y-34211744D01*
X43431580Y-34217634D01*
X43440138Y-34235103D01*
X43447514Y-34253732D01*
X43474898Y-34291423D01*
X43478106Y-34296307D01*
X43501827Y-34336416D01*
X43501834Y-34336425D01*
X43511038Y-34345629D01*
X43544523Y-34406952D01*
X43546678Y-34420348D01*
X43552695Y-34477595D01*
X43564326Y-34588256D01*
X43564327Y-34588259D01*
X43622818Y-34768277D01*
X43622821Y-34768284D01*
X43717467Y-34932216D01*
X43787858Y-35010393D01*
X43844129Y-35072888D01*
X43997265Y-35184148D01*
X43997270Y-35184151D01*
X44170192Y-35261142D01*
X44170197Y-35261144D01*
X44355354Y-35300500D01*
X44355355Y-35300500D01*
X44544644Y-35300500D01*
X44544646Y-35300500D01*
X44729803Y-35261144D01*
X44761129Y-35247196D01*
X44825064Y-35218731D01*
X44894314Y-35209446D01*
X44957591Y-35239074D01*
X44994804Y-35298209D01*
X44999500Y-35332010D01*
X44999500Y-41998376D01*
X44999415Y-42001622D01*
X44992509Y-42133382D01*
X44982196Y-42317013D01*
X44981530Y-42323240D01*
X44957394Y-42475630D01*
X44929778Y-42638163D01*
X44928541Y-42643827D01*
X44887579Y-42796702D01*
X44842916Y-42951725D01*
X44841221Y-42956781D01*
X44783877Y-43106170D01*
X44722643Y-43254001D01*
X44720604Y-43258423D01*
X44647488Y-43401921D01*
X44570364Y-43541467D01*
X44568097Y-43545246D01*
X44480019Y-43680872D01*
X44445598Y-43729384D01*
X44390750Y-43772667D01*
X44321208Y-43779427D01*
X44259051Y-43747516D01*
X44224014Y-43687066D01*
X44220564Y-43662486D01*
X44220499Y-43660817D01*
X44217665Y-43624799D01*
X44217665Y-43624796D01*
X44172869Y-43470607D01*
X44138869Y-43413117D01*
X44121688Y-43345398D01*
X44138869Y-43286882D01*
X44172869Y-43229393D01*
X44210462Y-43099999D01*
X44217664Y-43075208D01*
X44217665Y-43075202D01*
X44220500Y-43039183D01*
X44220499Y-42640819D01*
X44220256Y-42637742D01*
X44217665Y-42604796D01*
X44172869Y-42450607D01*
X44091135Y-42312402D01*
X44091133Y-42312400D01*
X44091130Y-42312396D01*
X44036819Y-42258085D01*
X44003334Y-42196762D01*
X44000500Y-42170404D01*
X44000500Y-37807032D01*
X44001031Y-37798930D01*
X44005682Y-37763603D01*
X44005682Y-37763602D01*
X43985044Y-37606843D01*
X43985044Y-37606842D01*
X43924536Y-37460763D01*
X43900033Y-37428830D01*
X43828282Y-37335322D01*
X43800005Y-37313624D01*
X43793904Y-37308273D01*
X42140469Y-35654838D01*
X42106984Y-35593515D01*
X42111968Y-35523823D01*
X42140466Y-35479478D01*
X42168081Y-35451865D01*
X42251744Y-35310398D01*
X42288045Y-35185451D01*
X42297597Y-35152573D01*
X42297598Y-35152567D01*
X42300500Y-35115696D01*
X42300500Y-34684304D01*
X42297598Y-34647432D01*
X42297597Y-34647426D01*
X42251745Y-34489606D01*
X42251744Y-34489603D01*
X42251744Y-34489602D01*
X42168081Y-34348135D01*
X42168079Y-34348133D01*
X42168076Y-34348129D01*
X42051870Y-34231923D01*
X42051862Y-34231917D01*
X41972871Y-34185202D01*
X41910398Y-34148256D01*
X41910397Y-34148255D01*
X41910396Y-34148255D01*
X41910393Y-34148254D01*
X41752573Y-34102402D01*
X41752567Y-34102401D01*
X41715696Y-34099500D01*
X41715694Y-34099500D01*
X41396408Y-34099500D01*
X41329369Y-34079815D01*
X41283614Y-34027011D01*
X41273670Y-33957853D01*
X41277332Y-33940905D01*
X41297642Y-33870997D01*
X41297643Y-33870991D01*
X41297896Y-33867784D01*
X41300500Y-33834690D01*
X41300500Y-33365310D01*
X41297643Y-33329007D01*
X41292486Y-33311258D01*
X41252495Y-33173609D01*
X41252494Y-33173606D01*
X41252494Y-33173605D01*
X41170117Y-33034313D01*
X41170115Y-33034311D01*
X41170112Y-33034307D01*
X41055692Y-32919887D01*
X41055684Y-32919881D01*
X40916393Y-32837505D01*
X40916390Y-32837504D01*
X40760997Y-32792357D01*
X40760991Y-32792356D01*
X40724692Y-32789500D01*
X40724690Y-32789500D01*
X40315310Y-32789500D01*
X40315308Y-32789500D01*
X40279008Y-32792356D01*
X40279002Y-32792357D01*
X40123609Y-32837504D01*
X40123606Y-32837505D01*
X39984315Y-32919881D01*
X39984307Y-32919887D01*
X39869887Y-33034307D01*
X39869881Y-33034315D01*
X39787505Y-33173606D01*
X39787504Y-33173609D01*
X39742357Y-33329002D01*
X39742356Y-33329008D01*
X39739500Y-33365308D01*
X39739500Y-33834694D01*
X39741667Y-33862238D01*
X39727301Y-33930614D01*
X39678248Y-33980370D01*
X39610083Y-33995707D01*
X39551009Y-33976278D01*
X39381574Y-33867388D01*
X39325816Y-33845066D01*
X39186457Y-33789275D01*
X39186455Y-33789274D01*
X38980086Y-33749500D01*
X38980085Y-33749500D01*
X38272575Y-33749500D01*
X38115782Y-33764472D01*
X38115778Y-33764473D01*
X37914127Y-33823683D01*
X37727313Y-33919991D01*
X37562116Y-34049905D01*
X37562112Y-34049909D01*
X37424478Y-34208746D01*
X37319398Y-34390750D01*
X37250656Y-34589365D01*
X37250656Y-34589367D01*
X37221381Y-34792987D01*
X37220746Y-34797401D01*
X37230745Y-35007327D01*
X37280296Y-35211578D01*
X37280298Y-35211582D01*
X37367598Y-35402743D01*
X37367601Y-35402748D01*
X37367602Y-35402750D01*
X37367604Y-35402753D01*
X37489514Y-35573952D01*
X37489515Y-35573953D01*
X37489520Y-35573959D01*
X37641619Y-35718984D01*
X37641621Y-35718985D01*
X37641622Y-35718986D01*
X37668376Y-35736180D01*
X37682941Y-35745540D01*
X37728696Y-35798344D01*
X37738640Y-35867503D01*
X37709615Y-35931059D01*
X37692555Y-35947326D01*
X37562112Y-36049909D01*
X37424478Y-36208746D01*
X37319398Y-36390750D01*
X37250656Y-36589365D01*
X37250656Y-36589367D01*
X37220830Y-36796819D01*
X37220746Y-36797401D01*
X37230745Y-37007327D01*
X37280296Y-37211578D01*
X37282228Y-37217158D01*
X37280091Y-37217897D01*
X37288612Y-37277176D01*
X37259586Y-37340731D01*
X37253556Y-37347207D01*
X37031096Y-37569668D01*
X37024993Y-37575020D01*
X36996719Y-37596716D01*
X36972550Y-37628215D01*
X36900461Y-37722162D01*
X36900461Y-37722163D01*
X36839957Y-37868234D01*
X36839955Y-37868239D01*
X36820985Y-38012339D01*
X36819318Y-38025000D01*
X36821400Y-38040817D01*
X36823969Y-38060326D01*
X36824500Y-38068428D01*
X36824500Y-41921571D01*
X36823969Y-41929673D01*
X36819318Y-41964999D01*
X36819318Y-41965001D01*
X36825308Y-42010500D01*
X36839955Y-42121760D01*
X36839956Y-42121762D01*
X36900464Y-42267841D01*
X36996718Y-42393282D01*
X37024995Y-42414980D01*
X37031085Y-42420320D01*
X37153750Y-42542985D01*
X37227233Y-42616468D01*
X37260718Y-42677791D01*
X37259327Y-42736241D01*
X37224939Y-42864583D01*
X37224936Y-42864596D01*
X37204341Y-43099999D01*
X37204341Y-43100000D01*
X37224936Y-43335403D01*
X37224938Y-43335413D01*
X37286094Y-43563655D01*
X37286096Y-43563659D01*
X37286097Y-43563663D01*
X37343641Y-43687066D01*
X37385965Y-43777830D01*
X37385967Y-43777834D01*
X37465114Y-43890867D01*
X37521505Y-43971401D01*
X37688599Y-44138495D01*
X37785384Y-44206264D01*
X37882165Y-44274032D01*
X37882167Y-44274033D01*
X37882170Y-44274035D01*
X38096337Y-44373903D01*
X38324592Y-44435063D01*
X38507103Y-44451031D01*
X38559999Y-44455659D01*
X38560000Y-44455659D01*
X38560001Y-44455659D01*
X38612897Y-44451031D01*
X38795408Y-44435063D01*
X39023663Y-44373903D01*
X39237830Y-44274035D01*
X39431401Y-44138495D01*
X39553329Y-44016566D01*
X39614648Y-43983084D01*
X39684340Y-43988068D01*
X39740274Y-44029939D01*
X39757189Y-44060917D01*
X39806202Y-44192328D01*
X39806206Y-44192335D01*
X39892452Y-44307544D01*
X39892455Y-44307547D01*
X40007664Y-44393793D01*
X40007671Y-44393797D01*
X40142517Y-44444091D01*
X40142516Y-44444091D01*
X40149444Y-44444835D01*
X40202127Y-44450500D01*
X41806563Y-44450499D01*
X41814663Y-44451029D01*
X41828367Y-44452833D01*
X41849999Y-44455682D01*
X41850000Y-44455682D01*
X41885329Y-44451030D01*
X41893428Y-44450500D01*
X42720404Y-44450500D01*
X42787443Y-44470185D01*
X42808085Y-44486819D01*
X42822396Y-44501130D01*
X42822400Y-44501133D01*
X42822402Y-44501135D01*
X42960607Y-44582869D01*
X42968729Y-44585228D01*
X42987691Y-44590738D01*
X43046577Y-44628344D01*
X43075783Y-44691817D01*
X43066037Y-44761003D01*
X43020433Y-44813938D01*
X42997533Y-44825578D01*
X42956781Y-44841221D01*
X42951725Y-44842916D01*
X42796702Y-44887579D01*
X42643827Y-44928541D01*
X42638163Y-44929778D01*
X42475630Y-44957394D01*
X42323240Y-44981530D01*
X42317013Y-44982196D01*
X42133382Y-44992509D01*
X42001622Y-44999415D01*
X41998376Y-44999500D01*
X24863253Y-44999500D01*
X24796214Y-44979815D01*
X24750459Y-44927011D01*
X24740515Y-44857853D01*
X24769540Y-44794297D01*
X24799322Y-44769251D01*
X24854919Y-44735800D01*
X25139837Y-44519211D01*
X25399668Y-44273086D01*
X25631365Y-44000311D01*
X25832211Y-43704085D01*
X25999853Y-43387880D01*
X26132324Y-43055403D01*
X26201685Y-42805583D01*
X26238588Y-42746253D01*
X26301707Y-42716292D01*
X26371005Y-42725213D01*
X26424480Y-42770183D01*
X26445152Y-42836924D01*
X26444659Y-42848762D01*
X26444659Y-42849999D01*
X26463975Y-43046129D01*
X26521188Y-43234733D01*
X26614086Y-43408532D01*
X26614090Y-43408539D01*
X26739116Y-43560883D01*
X26891460Y-43685909D01*
X26891467Y-43685913D01*
X27065266Y-43778811D01*
X27065269Y-43778811D01*
X27065273Y-43778814D01*
X27253868Y-43836024D01*
X27450000Y-43855341D01*
X27646132Y-43836024D01*
X27834727Y-43778814D01*
X27836561Y-43777834D01*
X28008532Y-43685913D01*
X28008538Y-43685910D01*
X28160883Y-43560883D01*
X28285910Y-43408538D01*
X28309680Y-43364068D01*
X28340642Y-43306143D01*
X28389604Y-43256299D01*
X28457742Y-43240838D01*
X28523421Y-43264670D01*
X28559358Y-43306143D01*
X28614086Y-43408532D01*
X28614090Y-43408539D01*
X28739116Y-43560883D01*
X28891460Y-43685909D01*
X28891467Y-43685913D01*
X29065266Y-43778811D01*
X29065269Y-43778811D01*
X29065273Y-43778814D01*
X29253868Y-43836024D01*
X29450000Y-43855341D01*
X29646132Y-43836024D01*
X29834727Y-43778814D01*
X29836561Y-43777834D01*
X30008532Y-43685913D01*
X30008538Y-43685910D01*
X30160883Y-43560883D01*
X30285910Y-43408538D01*
X30378814Y-43234727D01*
X30436024Y-43046132D01*
X30455341Y-42850000D01*
X30436024Y-42653868D01*
X30378814Y-42465273D01*
X30378811Y-42465269D01*
X30378811Y-42465266D01*
X30285913Y-42291467D01*
X30285909Y-42291460D01*
X30163673Y-42142517D01*
X30160883Y-42139117D01*
X30095832Y-42085730D01*
X30056500Y-42027987D01*
X30050500Y-41989880D01*
X30050500Y-41168928D01*
X30051031Y-41160826D01*
X30055682Y-41125499D01*
X30055682Y-41125498D01*
X30035044Y-40968739D01*
X30035044Y-40968738D01*
X29974536Y-40822659D01*
X29946294Y-40785853D01*
X29878282Y-40697218D01*
X29850005Y-40675520D01*
X29843904Y-40670169D01*
X29055200Y-39881465D01*
X29021715Y-39820142D01*
X29019663Y-39807686D01*
X29009868Y-39720745D01*
X28950289Y-39550478D01*
X28854316Y-39397738D01*
X28795659Y-39339081D01*
X28762174Y-39277758D01*
X28767158Y-39208066D01*
X28795657Y-39163721D01*
X29176505Y-38782873D01*
X29237826Y-38749390D01*
X29307518Y-38754374D01*
X29363451Y-38796246D01*
X29368930Y-38804458D01*
X29369887Y-38805692D01*
X29484307Y-38920112D01*
X29484311Y-38920115D01*
X29484313Y-38920117D01*
X29623605Y-39002494D01*
X29661088Y-39013384D01*
X29779002Y-39047642D01*
X29779005Y-39047642D01*
X29779007Y-39047643D01*
X29791107Y-39048595D01*
X29815308Y-39050500D01*
X29815310Y-39050500D01*
X30284692Y-39050500D01*
X30302841Y-39049071D01*
X30320993Y-39047643D01*
X30320995Y-39047642D01*
X30320997Y-39047642D01*
X30361975Y-39035736D01*
X30476395Y-39002494D01*
X30537060Y-38966615D01*
X30604784Y-38949433D01*
X30643515Y-38957166D01*
X30742517Y-38994091D01*
X30742516Y-38994091D01*
X30749444Y-38994835D01*
X30802127Y-39000500D01*
X32297872Y-39000499D01*
X32357483Y-38994091D01*
X32382165Y-38984884D01*
X32451856Y-38979899D01*
X32513180Y-39013384D01*
X32546666Y-39074706D01*
X32549500Y-39101066D01*
X32549500Y-40247870D01*
X32549501Y-40247876D01*
X32555908Y-40307483D01*
X32606202Y-40442328D01*
X32606206Y-40442335D01*
X32692452Y-40557544D01*
X32692455Y-40557547D01*
X32807664Y-40643793D01*
X32807669Y-40643796D01*
X32868833Y-40666608D01*
X32924766Y-40708478D01*
X32949184Y-40773942D01*
X32949500Y-40782790D01*
X32949500Y-41184692D01*
X32952356Y-41220991D01*
X32952357Y-41220997D01*
X32997504Y-41376390D01*
X32997505Y-41376393D01*
X33079881Y-41515684D01*
X33079887Y-41515692D01*
X33194307Y-41630112D01*
X33194311Y-41630115D01*
X33194313Y-41630117D01*
X33333605Y-41712494D01*
X33374587Y-41724400D01*
X33489002Y-41757642D01*
X33489005Y-41757642D01*
X33489007Y-41757643D01*
X33501107Y-41758595D01*
X33525308Y-41760500D01*
X33525310Y-41760500D01*
X33934692Y-41760500D01*
X33952841Y-41759071D01*
X33970993Y-41757643D01*
X33970995Y-41757642D01*
X33970997Y-41757642D01*
X34043787Y-41736494D01*
X34126395Y-41712494D01*
X34265687Y-41630117D01*
X34380117Y-41515687D01*
X34462494Y-41376395D01*
X34507643Y-41220993D01*
X34510500Y-41184690D01*
X34510500Y-40797708D01*
X34530185Y-40730670D01*
X34582989Y-40684915D01*
X34591160Y-40681530D01*
X34692331Y-40643796D01*
X34807546Y-40557546D01*
X34893796Y-40442331D01*
X34944091Y-40307483D01*
X34950500Y-40247873D01*
X34950499Y-40154498D01*
X34970183Y-40087461D01*
X35022986Y-40041705D01*
X35074495Y-40030499D01*
X35499180Y-40030499D01*
X35499181Y-40030499D01*
X35502015Y-40030275D01*
X35535204Y-40027665D01*
X35689393Y-39982869D01*
X35827598Y-39901135D01*
X35941135Y-39787598D01*
X36022869Y-39649393D01*
X36067665Y-39495204D01*
X36070500Y-39459181D01*
X36070499Y-39060820D01*
X36067665Y-39024796D01*
X36022869Y-38870607D01*
X35988870Y-38813119D01*
X35971688Y-38745396D01*
X35988870Y-38686881D01*
X36022869Y-38629393D01*
X36067665Y-38475204D01*
X36070500Y-38439181D01*
X36070499Y-38040820D01*
X36067665Y-38004796D01*
X36022869Y-37850607D01*
X35994694Y-37802965D01*
X35949387Y-37726355D01*
X35932204Y-37658631D01*
X35954364Y-37592368D01*
X35963963Y-37580269D01*
X35993819Y-37547112D01*
X36088465Y-37383180D01*
X36146960Y-37203152D01*
X36166746Y-37014896D01*
X36146960Y-36826640D01*
X36088465Y-36646612D01*
X35993819Y-36482680D01*
X35867157Y-36342008D01*
X35862817Y-36338855D01*
X35755667Y-36261006D01*
X35713001Y-36205676D01*
X35707022Y-36136063D01*
X35739627Y-36074268D01*
X35740797Y-36073081D01*
X36602398Y-35211480D01*
X36608489Y-35206138D01*
X36635451Y-35185451D01*
X36652405Y-35163356D01*
X36658610Y-35155269D01*
X36658612Y-35155268D01*
X36727699Y-35065233D01*
X36755123Y-34999025D01*
X36779682Y-34939734D01*
X36781899Y-34934378D01*
X36785687Y-34925236D01*
X36800500Y-34812720D01*
X36805466Y-34775000D01*
X36801031Y-34741312D01*
X36800500Y-34733211D01*
X36800500Y-34120739D01*
X36801031Y-34112637D01*
X36802379Y-34102402D01*
X36805465Y-34078959D01*
X36800766Y-34043272D01*
X36800765Y-34043253D01*
X36798627Y-34027011D01*
X36785687Y-33928723D01*
X36757318Y-33860235D01*
X36727699Y-33788726D01*
X36727698Y-33788725D01*
X36727698Y-33788724D01*
X36656141Y-33695471D01*
X36635449Y-33668506D01*
X36620691Y-33657182D01*
X36608490Y-33647820D01*
X36602400Y-33642479D01*
X36476916Y-33516995D01*
X36443431Y-33455672D01*
X36445521Y-33394718D01*
X36445595Y-33394461D01*
X36447598Y-33387569D01*
X36450500Y-33350694D01*
X36450500Y-32919306D01*
X36447598Y-32882431D01*
X36434545Y-32837504D01*
X36426292Y-32809095D01*
X36426491Y-32739226D01*
X36464433Y-32680556D01*
X36528071Y-32651712D01*
X36545368Y-32650500D01*
X36984692Y-32650500D01*
X37002841Y-32649071D01*
X37020993Y-32647643D01*
X37020995Y-32647642D01*
X37020997Y-32647642D01*
X37061975Y-32635736D01*
X37176395Y-32602494D01*
X37315687Y-32520117D01*
X37430117Y-32405687D01*
X37512494Y-32266395D01*
X37557643Y-32110993D01*
X37559561Y-32086620D01*
X37560500Y-32074692D01*
X37560500Y-31665308D01*
X37557643Y-31629008D01*
X37557642Y-31629002D01*
X37512495Y-31473609D01*
X37512494Y-31473606D01*
X37512494Y-31473605D01*
X37430117Y-31334313D01*
X37430115Y-31334311D01*
X37430112Y-31334307D01*
X37315692Y-31219887D01*
X37315684Y-31219881D01*
X37238707Y-31174357D01*
X37176395Y-31137506D01*
X37176394Y-31137505D01*
X37176393Y-31137505D01*
X37176390Y-31137504D01*
X37020997Y-31092357D01*
X37020991Y-31092356D01*
X36984692Y-31089500D01*
X36984690Y-31089500D01*
X36542463Y-31089500D01*
X36475424Y-31069815D01*
X36429669Y-31017011D01*
X36419725Y-30947853D01*
X36423387Y-30930905D01*
X36447597Y-30847573D01*
X36447598Y-30847567D01*
X36450500Y-30810696D01*
X36450500Y-30524500D01*
X36470185Y-30457461D01*
X36522989Y-30411706D01*
X36574500Y-30400500D01*
X38880663Y-30400500D01*
X38947702Y-30420185D01*
X38953548Y-30424182D01*
X38967265Y-30434148D01*
X38967270Y-30434151D01*
X39140192Y-30511142D01*
X39140197Y-30511144D01*
X39325354Y-30550500D01*
X39325355Y-30550500D01*
X39514644Y-30550500D01*
X39514646Y-30550500D01*
X39699803Y-30511144D01*
X39872730Y-30434151D01*
X40025871Y-30322888D01*
X40152533Y-30182216D01*
X40247179Y-30018284D01*
X40305674Y-29838256D01*
X40325460Y-29650000D01*
X40305674Y-29461744D01*
X40298242Y-29438874D01*
X40296246Y-29369035D01*
X40328490Y-29312876D01*
X41166425Y-28474941D01*
X41219511Y-28443547D01*
X41247476Y-28435423D01*
X41282069Y-28430500D01*
X41567934Y-28430500D01*
X41602528Y-28435423D01*
X41679007Y-28457643D01*
X41691108Y-28458595D01*
X41715308Y-28460500D01*
X41715310Y-28460500D01*
X42184692Y-28460500D01*
X42202841Y-28459071D01*
X42220993Y-28457643D01*
X42297471Y-28435423D01*
X42332066Y-28430500D01*
X42617934Y-28430500D01*
X42652528Y-28435423D01*
X42729007Y-28457643D01*
X42741108Y-28458595D01*
X42765308Y-28460500D01*
X42765310Y-28460500D01*
X43234692Y-28460500D01*
X43252841Y-28459071D01*
X43270993Y-28457643D01*
X43347471Y-28435423D01*
X43382066Y-28430500D01*
X43667934Y-28430500D01*
X43702528Y-28435423D01*
X43779007Y-28457643D01*
X43791108Y-28458595D01*
X43815308Y-28460500D01*
X43815310Y-28460500D01*
X44284692Y-28460500D01*
X44302841Y-28459071D01*
X44320993Y-28457643D01*
X44320995Y-28457642D01*
X44320997Y-28457642D01*
X44361975Y-28445736D01*
X44476395Y-28412494D01*
X44615687Y-28330117D01*
X44730117Y-28215687D01*
X44749182Y-28183451D01*
X44768768Y-28150332D01*
X44819836Y-28102648D01*
X44888578Y-28090144D01*
X44953168Y-28116789D01*
G37*
%TD.AperFunction*%
%TA.AperFunction,Conductor*%
G36*
X42196884Y-37425571D02*
G01*
X42241234Y-37454073D01*
X42763182Y-37976021D01*
X42796666Y-38037342D01*
X42799500Y-38063700D01*
X42799500Y-42170404D01*
X42779815Y-42237443D01*
X42763181Y-42258085D01*
X42708869Y-42312396D01*
X42708862Y-42312405D01*
X42681231Y-42359128D01*
X42630162Y-42406812D01*
X42561420Y-42419315D01*
X42496831Y-42392669D01*
X42456901Y-42335334D01*
X42450499Y-42296007D01*
X42450499Y-42202129D01*
X42450498Y-42202123D01*
X42444091Y-42142516D01*
X42393797Y-42007671D01*
X42393793Y-42007664D01*
X42307547Y-41892455D01*
X42307544Y-41892452D01*
X42192335Y-41806206D01*
X42192328Y-41806202D01*
X42057482Y-41755908D01*
X42057483Y-41755908D01*
X41997883Y-41749501D01*
X41997881Y-41749500D01*
X41997873Y-41749500D01*
X41997864Y-41749500D01*
X40202129Y-41749500D01*
X40202123Y-41749501D01*
X40142516Y-41755908D01*
X40007671Y-41806202D01*
X40007664Y-41806206D01*
X39892455Y-41892452D01*
X39892452Y-41892455D01*
X39806206Y-42007664D01*
X39806203Y-42007669D01*
X39757189Y-42139083D01*
X39715317Y-42195016D01*
X39649853Y-42219433D01*
X39581580Y-42204581D01*
X39553326Y-42183430D01*
X39431402Y-42061506D01*
X39431395Y-42061501D01*
X39424851Y-42056919D01*
X39378588Y-42024525D01*
X39237834Y-41925967D01*
X39237830Y-41925965D01*
X39201824Y-41909175D01*
X39023663Y-41826097D01*
X39023659Y-41826096D01*
X39023655Y-41826094D01*
X38795413Y-41764938D01*
X38795403Y-41764936D01*
X38560001Y-41744341D01*
X38559998Y-41744341D01*
X38492330Y-41750261D01*
X38423830Y-41736494D01*
X38373647Y-41687879D01*
X38357714Y-41619850D01*
X38362447Y-41592138D01*
X38397642Y-41470997D01*
X38397643Y-41470991D01*
X38400500Y-41434692D01*
X38400500Y-40965308D01*
X38397643Y-40929008D01*
X38397642Y-40929002D01*
X38356052Y-40785853D01*
X38352494Y-40773605D01*
X38270117Y-40634313D01*
X38270115Y-40634311D01*
X38270112Y-40634307D01*
X38155692Y-40519887D01*
X38155681Y-40519878D01*
X38086378Y-40478892D01*
X38038695Y-40427823D01*
X38025500Y-40372161D01*
X38025500Y-40074499D01*
X38045185Y-40007460D01*
X38097989Y-39961705D01*
X38149500Y-39950499D01*
X39275002Y-39950499D01*
X39275008Y-39950499D01*
X39377797Y-39939999D01*
X39544334Y-39884814D01*
X39556205Y-39877491D01*
X39623596Y-39859052D01*
X39690260Y-39879974D01*
X39708982Y-39895350D01*
X39731344Y-39917712D01*
X39880666Y-40009814D01*
X40047203Y-40064999D01*
X40149991Y-40075500D01*
X40750008Y-40075499D01*
X40750016Y-40075498D01*
X40750019Y-40075498D01*
X40806302Y-40069748D01*
X40852797Y-40064999D01*
X41019334Y-40009814D01*
X41168656Y-39917712D01*
X41292712Y-39793656D01*
X41384814Y-39644334D01*
X41439999Y-39477797D01*
X41450500Y-39375009D01*
X41450499Y-38324992D01*
X41439999Y-38222203D01*
X41384814Y-38055666D01*
X41292712Y-37906344D01*
X41198548Y-37812180D01*
X41165064Y-37750858D01*
X41170048Y-37681166D01*
X41211920Y-37625233D01*
X41277384Y-37600816D01*
X41286230Y-37600500D01*
X41715696Y-37600500D01*
X41734131Y-37599049D01*
X41752569Y-37597598D01*
X41752571Y-37597597D01*
X41752573Y-37597597D01*
X41830282Y-37575020D01*
X41910398Y-37551744D01*
X42051865Y-37468081D01*
X42065871Y-37454073D01*
X42127192Y-37420588D01*
X42196884Y-37425571D01*
G37*
%TD.AperFunction*%
%TA.AperFunction,Conductor*%
G36*
X40203786Y-20020185D02*
G01*
X40249541Y-20072989D01*
X40259485Y-20142147D01*
X40230460Y-20205703D01*
X40200677Y-20230748D01*
X40145081Y-20264200D01*
X40125094Y-20279394D01*
X39860172Y-20480781D01*
X39860163Y-20480789D01*
X39600331Y-20726914D01*
X39368641Y-20999680D01*
X39368634Y-20999690D01*
X39167790Y-21295913D01*
X39167784Y-21295922D01*
X39000151Y-21612111D01*
X39000142Y-21612129D01*
X38867674Y-21944600D01*
X38867672Y-21944607D01*
X38771932Y-22289434D01*
X38771926Y-22289460D01*
X38714029Y-22642614D01*
X38714028Y-22642627D01*
X38714028Y-22642629D01*
X38710799Y-22702178D01*
X38694652Y-22999997D01*
X38694652Y-23000002D01*
X38714028Y-23357368D01*
X38714029Y-23357385D01*
X38771926Y-23710539D01*
X38771932Y-23710565D01*
X38867672Y-24055392D01*
X38867674Y-24055399D01*
X39000142Y-24387870D01*
X39000151Y-24387888D01*
X39167784Y-24704077D01*
X39167787Y-24704082D01*
X39167789Y-24704085D01*
X39351424Y-24974927D01*
X39368634Y-25000309D01*
X39368641Y-25000319D01*
X39481458Y-25133137D01*
X39600332Y-25273086D01*
X39860163Y-25519211D01*
X39860170Y-25519216D01*
X39860172Y-25519218D01*
X39886605Y-25539312D01*
X40145081Y-25735800D01*
X40451747Y-25920315D01*
X40451749Y-25920316D01*
X40451751Y-25920317D01*
X40451755Y-25920319D01*
X40640958Y-26007853D01*
X40776565Y-26070591D01*
X41115726Y-26184868D01*
X41465254Y-26261805D01*
X41821052Y-26300500D01*
X41821058Y-26300500D01*
X42178942Y-26300500D01*
X42178948Y-26300500D01*
X42534746Y-26261805D01*
X42884274Y-26184868D01*
X43223435Y-26070591D01*
X43548253Y-25920315D01*
X43854919Y-25735800D01*
X44139837Y-25519211D01*
X44399668Y-25273086D01*
X44631365Y-25000311D01*
X44678359Y-24930998D01*
X44772867Y-24791612D01*
X44826781Y-24747171D01*
X44896164Y-24738933D01*
X44958985Y-24769514D01*
X44995301Y-24829204D01*
X44999500Y-24861199D01*
X44999500Y-27146547D01*
X44979815Y-27213586D01*
X44927011Y-27259341D01*
X44857853Y-27269285D01*
X44794297Y-27240260D01*
X44768768Y-27209668D01*
X44730119Y-27144316D01*
X44730112Y-27144307D01*
X44615692Y-27029887D01*
X44615684Y-27029881D01*
X44487303Y-26953957D01*
X44476395Y-26947506D01*
X44476394Y-26947505D01*
X44476393Y-26947505D01*
X44476390Y-26947504D01*
X44320997Y-26902357D01*
X44320991Y-26902356D01*
X44284692Y-26899500D01*
X44284690Y-26899500D01*
X43815310Y-26899500D01*
X43815308Y-26899500D01*
X43779008Y-26902356D01*
X43779005Y-26902357D01*
X43723956Y-26918351D01*
X43702528Y-26924576D01*
X43667934Y-26929500D01*
X43382066Y-26929500D01*
X43347471Y-26924576D01*
X43317929Y-26915993D01*
X43270994Y-26902357D01*
X43270991Y-26902356D01*
X43234692Y-26899500D01*
X43234690Y-26899500D01*
X42765310Y-26899500D01*
X42765308Y-26899500D01*
X42729008Y-26902356D01*
X42729005Y-26902357D01*
X42673956Y-26918351D01*
X42652528Y-26924576D01*
X42617934Y-26929500D01*
X42332066Y-26929500D01*
X42297471Y-26924576D01*
X42267929Y-26915993D01*
X42220994Y-26902357D01*
X42220991Y-26902356D01*
X42184692Y-26899500D01*
X42184690Y-26899500D01*
X41715310Y-26899500D01*
X41715308Y-26899500D01*
X41679008Y-26902356D01*
X41679005Y-26902357D01*
X41623956Y-26918351D01*
X41602528Y-26924576D01*
X41567934Y-26929500D01*
X41282066Y-26929500D01*
X41247471Y-26924576D01*
X41217929Y-26915993D01*
X41170994Y-26902357D01*
X41170991Y-26902356D01*
X41134692Y-26899500D01*
X41134690Y-26899500D01*
X40665310Y-26899500D01*
X40665308Y-26899500D01*
X40629008Y-26902356D01*
X40629002Y-26902357D01*
X40473609Y-26947504D01*
X40473606Y-26947505D01*
X40334315Y-27029881D01*
X40334307Y-27029887D01*
X40219887Y-27144307D01*
X40219881Y-27144315D01*
X40137505Y-27283606D01*
X40137504Y-27283608D01*
X40106452Y-27390488D01*
X40075057Y-27443573D01*
X38934358Y-28584272D01*
X38920729Y-28596051D01*
X38901468Y-28610390D01*
X38867898Y-28650397D01*
X38864253Y-28654376D01*
X38858409Y-28660222D01*
X38838059Y-28685959D01*
X38788695Y-28744789D01*
X38784729Y-28750819D01*
X38784682Y-28750788D01*
X38780630Y-28757147D01*
X38780679Y-28757177D01*
X38776889Y-28763322D01*
X38746771Y-28827907D01*
X38700598Y-28880345D01*
X38634390Y-28899500D01*
X35875370Y-28899500D01*
X35857400Y-28898191D01*
X35833637Y-28894710D01*
X35788198Y-28898686D01*
X35781596Y-28899264D01*
X35776195Y-28899500D01*
X35767954Y-28899500D01*
X35746244Y-28902037D01*
X35735389Y-28903306D01*
X35720084Y-28904644D01*
X35658864Y-28910001D01*
X35651797Y-28911460D01*
X35651785Y-28911404D01*
X35644428Y-28913035D01*
X35644442Y-28913092D01*
X35637408Y-28914759D01*
X35565240Y-28941025D01*
X35492340Y-28965181D01*
X35485791Y-28968236D01*
X35485766Y-28968183D01*
X35478973Y-28971471D01*
X35478999Y-28971523D01*
X35472545Y-28974764D01*
X35408373Y-29016971D01*
X35343012Y-29057285D01*
X35337348Y-29061765D01*
X35337312Y-29061719D01*
X35331463Y-29066484D01*
X35331500Y-29066528D01*
X35325975Y-29071164D01*
X35273263Y-29127034D01*
X34764078Y-29636218D01*
X34702755Y-29669703D01*
X34702179Y-29669827D01*
X34637045Y-29683672D01*
X34637041Y-29683673D01*
X34469862Y-29758108D01*
X34400612Y-29767393D01*
X34337336Y-29737765D01*
X34331745Y-29732510D01*
X33730700Y-29131465D01*
X33697215Y-29070142D01*
X33695162Y-29057680D01*
X33692929Y-29037856D01*
X33704986Y-28969036D01*
X33752337Y-28917658D01*
X33816150Y-28899978D01*
X34133741Y-28899978D01*
X34141839Y-28900508D01*
X34162256Y-28903196D01*
X34175521Y-28904943D01*
X34175522Y-28904943D01*
X34211307Y-28900232D01*
X34211331Y-28900229D01*
X34213237Y-28899978D01*
X34213242Y-28899978D01*
X34325758Y-28885165D01*
X34465755Y-28827176D01*
X34476716Y-28818765D01*
X34555790Y-28758090D01*
X34555789Y-28758090D01*
X34563882Y-28751881D01*
X34563886Y-28751876D01*
X34585973Y-28734929D01*
X34606660Y-28707967D01*
X34612002Y-28701876D01*
X34844183Y-28469695D01*
X34850274Y-28464353D01*
X34877236Y-28443666D01*
X34877328Y-28443547D01*
X34894179Y-28421585D01*
X34894190Y-28421573D01*
X34969483Y-28323448D01*
X35014119Y-28215687D01*
X35027472Y-28183451D01*
X35030529Y-28160233D01*
X35042285Y-28070935D01*
X35042285Y-28070929D01*
X35047250Y-28033215D01*
X35042815Y-27999531D01*
X35042285Y-27991434D01*
X35042285Y-27879500D01*
X35061970Y-27812461D01*
X35114774Y-27766706D01*
X35166285Y-27755500D01*
X36465696Y-27755500D01*
X36480444Y-27754339D01*
X36502569Y-27752598D01*
X36514154Y-27749231D01*
X36562634Y-27745087D01*
X36592445Y-27748446D01*
X36699998Y-27760565D01*
X36700000Y-27760565D01*
X36700003Y-27760565D01*
X36879249Y-27740369D01*
X36879250Y-27740368D01*
X36879255Y-27740368D01*
X36961097Y-27711729D01*
X37024329Y-27706789D01*
X37029002Y-27707641D01*
X37029007Y-27707643D01*
X37059105Y-27710011D01*
X37065308Y-27710500D01*
X37065310Y-27710500D01*
X37534692Y-27710500D01*
X37552841Y-27709071D01*
X37570993Y-27707643D01*
X37570995Y-27707642D01*
X37570997Y-27707642D01*
X37611975Y-27695736D01*
X37726395Y-27662494D01*
X37865687Y-27580117D01*
X37980117Y-27465687D01*
X38062494Y-27326395D01*
X38107643Y-27170993D01*
X38109570Y-27146507D01*
X38110500Y-27134692D01*
X38110500Y-26725308D01*
X38107643Y-26689008D01*
X38107642Y-26689002D01*
X38062495Y-26533609D01*
X38062494Y-26533606D01*
X38062494Y-26533605D01*
X37980117Y-26394313D01*
X37980115Y-26394311D01*
X37980112Y-26394307D01*
X37865692Y-26279887D01*
X37865684Y-26279881D01*
X37726393Y-26197505D01*
X37726390Y-26197504D01*
X37570997Y-26152357D01*
X37570991Y-26152356D01*
X37534692Y-26149500D01*
X37534690Y-26149500D01*
X37151179Y-26149500D01*
X37084140Y-26129815D01*
X37038385Y-26077011D01*
X37028441Y-26007853D01*
X37032103Y-25990905D01*
X37047597Y-25937573D01*
X37047598Y-25937567D01*
X37050500Y-25900696D01*
X37050500Y-25469304D01*
X37047598Y-25432432D01*
X37047597Y-25432426D01*
X37001745Y-25274606D01*
X37001744Y-25274603D01*
X37001744Y-25274602D01*
X36918081Y-25133135D01*
X36918078Y-25133132D01*
X36913298Y-25126969D01*
X36915750Y-25125066D01*
X36889155Y-25076421D01*
X36894104Y-25006726D01*
X36914940Y-24974304D01*
X36913298Y-24973031D01*
X36918075Y-24966870D01*
X36918081Y-24966865D01*
X37001744Y-24825398D01*
X37047598Y-24667569D01*
X37050500Y-24630694D01*
X37050500Y-24199306D01*
X37047598Y-24162431D01*
X37001744Y-24004602D01*
X36918081Y-23863135D01*
X36918078Y-23863132D01*
X36913298Y-23856969D01*
X36915750Y-23855066D01*
X36889155Y-23806421D01*
X36894104Y-23736726D01*
X36914940Y-23704304D01*
X36913298Y-23703031D01*
X36918075Y-23696870D01*
X36918081Y-23696865D01*
X37001744Y-23555398D01*
X37047598Y-23397569D01*
X37050500Y-23360694D01*
X37050500Y-22929306D01*
X37047598Y-22892431D01*
X37040098Y-22866617D01*
X37001745Y-22734606D01*
X37001744Y-22734603D01*
X37001744Y-22734602D01*
X36918081Y-22593135D01*
X36918079Y-22593133D01*
X36918076Y-22593129D01*
X36801870Y-22476923D01*
X36801862Y-22476917D01*
X36692831Y-22412437D01*
X36660398Y-22393256D01*
X36660397Y-22393255D01*
X36660396Y-22393255D01*
X36660393Y-22393254D01*
X36502573Y-22347402D01*
X36502567Y-22347401D01*
X36465696Y-22344500D01*
X36465694Y-22344500D01*
X35798436Y-22344500D01*
X35791497Y-22344110D01*
X35762599Y-22340854D01*
X35750002Y-22339435D01*
X35749998Y-22339435D01*
X35737400Y-22340854D01*
X35708502Y-22344110D01*
X35701564Y-22344500D01*
X35034304Y-22344500D01*
X34997432Y-22347401D01*
X34997426Y-22347402D01*
X34839606Y-22393254D01*
X34839599Y-22393257D01*
X34762620Y-22438782D01*
X34694896Y-22455965D01*
X34628634Y-22433805D01*
X34584871Y-22379338D01*
X34575500Y-22332050D01*
X34575500Y-22207939D01*
X34595185Y-22140900D01*
X34611816Y-22120261D01*
X34629816Y-22102262D01*
X34725789Y-21949522D01*
X34785368Y-21779255D01*
X34789614Y-21741574D01*
X34805565Y-21600003D01*
X34805565Y-21599996D01*
X34785369Y-21420750D01*
X34785368Y-21420745D01*
X34765361Y-21363568D01*
X34725789Y-21250478D01*
X34629816Y-21097738D01*
X34502262Y-20970184D01*
X34349523Y-20874211D01*
X34179254Y-20814631D01*
X34179249Y-20814630D01*
X34000004Y-20794435D01*
X33999996Y-20794435D01*
X33820750Y-20814630D01*
X33820745Y-20814631D01*
X33650476Y-20874211D01*
X33497737Y-20970184D01*
X33370184Y-21097737D01*
X33274211Y-21250476D01*
X33214631Y-21420745D01*
X33214630Y-21420750D01*
X33194435Y-21599996D01*
X33194435Y-21600003D01*
X33214630Y-21779249D01*
X33214631Y-21779254D01*
X33274211Y-21949523D01*
X33370184Y-22102262D01*
X33388180Y-22120258D01*
X33421665Y-22181581D01*
X33424499Y-22207939D01*
X33424500Y-22460257D01*
X33404816Y-22527296D01*
X33388181Y-22547938D01*
X30062181Y-25873938D01*
X30000858Y-25907423D01*
X29931166Y-25902439D01*
X29875233Y-25860567D01*
X29850816Y-25795103D01*
X29850500Y-25786257D01*
X29850500Y-25469304D01*
X29847598Y-25432432D01*
X29847597Y-25432426D01*
X29801745Y-25274606D01*
X29801744Y-25274603D01*
X29801744Y-25274602D01*
X29718081Y-25133135D01*
X29718078Y-25133132D01*
X29713298Y-25126969D01*
X29715750Y-25125066D01*
X29689155Y-25076421D01*
X29694104Y-25006726D01*
X29714940Y-24974304D01*
X29713298Y-24973031D01*
X29718075Y-24966870D01*
X29718081Y-24966865D01*
X29801744Y-24825398D01*
X29847598Y-24667569D01*
X29850500Y-24630694D01*
X29850500Y-24199306D01*
X29847598Y-24162431D01*
X29801744Y-24004602D01*
X29718081Y-23863135D01*
X29718079Y-23863133D01*
X29718076Y-23863129D01*
X29601870Y-23746923D01*
X29601862Y-23746917D01*
X29460396Y-23663255D01*
X29460393Y-23663254D01*
X29302573Y-23617402D01*
X29302567Y-23617401D01*
X29265696Y-23614500D01*
X29265694Y-23614500D01*
X28598436Y-23614500D01*
X28591497Y-23614110D01*
X28562599Y-23610854D01*
X28550002Y-23609435D01*
X28549998Y-23609435D01*
X28537400Y-23610854D01*
X28508502Y-23614110D01*
X28501564Y-23614500D01*
X27834304Y-23614500D01*
X27797432Y-23617401D01*
X27797426Y-23617402D01*
X27639606Y-23663254D01*
X27639603Y-23663255D01*
X27498137Y-23746917D01*
X27498129Y-23746923D01*
X27381923Y-23863129D01*
X27381917Y-23863137D01*
X27298255Y-24004603D01*
X27298254Y-24004606D01*
X27252402Y-24162426D01*
X27252401Y-24162432D01*
X27249500Y-24199304D01*
X27249500Y-24630696D01*
X27252401Y-24667567D01*
X27252402Y-24667573D01*
X27298254Y-24825393D01*
X27298255Y-24825396D01*
X27381917Y-24966862D01*
X27386702Y-24973031D01*
X27384256Y-24974927D01*
X27410857Y-25023642D01*
X27405873Y-25093334D01*
X27385069Y-25125703D01*
X27386702Y-25126969D01*
X27381917Y-25133137D01*
X27298255Y-25274603D01*
X27298253Y-25274606D01*
X27264012Y-25392467D01*
X27226406Y-25451353D01*
X27162933Y-25480559D01*
X27093747Y-25470813D01*
X27057255Y-25445553D01*
X24111819Y-22500117D01*
X24078334Y-22438794D01*
X24075500Y-22412437D01*
X24075500Y-22361796D01*
X24075500Y-22307937D01*
X24095183Y-22240902D01*
X24111819Y-22220258D01*
X24129816Y-22202262D01*
X24225789Y-22049522D01*
X24285368Y-21879255D01*
X24296552Y-21779993D01*
X24305565Y-21700003D01*
X24305565Y-21699996D01*
X24285369Y-21520750D01*
X24285368Y-21520745D01*
X24225788Y-21350476D01*
X24162955Y-21250478D01*
X24129816Y-21197738D01*
X24002262Y-21070184D01*
X23890072Y-20999690D01*
X23849523Y-20974211D01*
X23679254Y-20914631D01*
X23679249Y-20914630D01*
X23500004Y-20894435D01*
X23499996Y-20894435D01*
X23320750Y-20914630D01*
X23320745Y-20914631D01*
X23150476Y-20974211D01*
X22997737Y-21070184D01*
X22870184Y-21197737D01*
X22774211Y-21350476D01*
X22714631Y-21520745D01*
X22714630Y-21520750D01*
X22694435Y-21699996D01*
X22694435Y-21700003D01*
X22714630Y-21879249D01*
X22714631Y-21879254D01*
X22774211Y-22049523D01*
X22870184Y-22202263D01*
X22888179Y-22220257D01*
X22921666Y-22281579D01*
X22924500Y-22307940D01*
X22924500Y-22660397D01*
X22923969Y-22668494D01*
X22922064Y-22682968D01*
X22919535Y-22702176D01*
X22924021Y-22736261D01*
X22924023Y-22736276D01*
X22924500Y-22739898D01*
X22938041Y-22842750D01*
X22938739Y-22848054D01*
X22939312Y-22852410D01*
X22939313Y-22852413D01*
X22997302Y-22992412D01*
X23067680Y-23084130D01*
X23067689Y-23084141D01*
X23089546Y-23112626D01*
X23089547Y-23112627D01*
X23089549Y-23112629D01*
X23112537Y-23130268D01*
X23116506Y-23133314D01*
X23122609Y-23138667D01*
X26378719Y-26394777D01*
X26412204Y-26456100D01*
X26414258Y-26468574D01*
X26428541Y-26595338D01*
X26488123Y-26765616D01*
X26491142Y-26771884D01*
X26489714Y-26772571D01*
X26506441Y-26831769D01*
X26486071Y-26898603D01*
X26432802Y-26943815D01*
X26382447Y-26954500D01*
X25016807Y-26954500D01*
X25008708Y-26953969D01*
X24988291Y-26951281D01*
X24975027Y-26949535D01*
X24975026Y-26949535D01*
X24970724Y-26950101D01*
X24941445Y-26953955D01*
X24941432Y-26953957D01*
X24937307Y-26954500D01*
X24937306Y-26954500D01*
X24824790Y-26969313D01*
X24824789Y-26969313D01*
X24692177Y-27024243D01*
X24684796Y-27027300D01*
X24684793Y-27027301D01*
X24684793Y-27027302D01*
X24681424Y-27029887D01*
X24595871Y-27095533D01*
X24595850Y-27095549D01*
X24564574Y-27119550D01*
X24543887Y-27146507D01*
X24538536Y-27152608D01*
X22217608Y-29473536D01*
X22211507Y-29478887D01*
X22184550Y-29499574D01*
X22160549Y-29530850D01*
X22160533Y-29530871D01*
X22102837Y-29606063D01*
X22092302Y-29619792D01*
X22092300Y-29619795D01*
X22034313Y-29759789D01*
X22034313Y-29759790D01*
X22019870Y-29869500D01*
X22018957Y-29876432D01*
X22018955Y-29876445D01*
X22014689Y-29908855D01*
X22014535Y-29910026D01*
X22016759Y-29926923D01*
X22018969Y-29943704D01*
X22019500Y-29951806D01*
X22019500Y-32963219D01*
X22018969Y-32971321D01*
X22014535Y-33004998D01*
X22019021Y-33039083D01*
X22019023Y-33039098D01*
X22034313Y-33155235D01*
X22034313Y-33155236D01*
X22073359Y-33249500D01*
X22092301Y-33295233D01*
X22162680Y-33386952D01*
X22162689Y-33386963D01*
X22184546Y-33415448D01*
X22184547Y-33415449D01*
X22184549Y-33415451D01*
X22195758Y-33424052D01*
X22211506Y-33436136D01*
X22217609Y-33441489D01*
X22683181Y-33907061D01*
X22716666Y-33968384D01*
X22719500Y-33994741D01*
X22719501Y-34149181D01*
X22722335Y-34185205D01*
X22767129Y-34339388D01*
X22767131Y-34339393D01*
X22848863Y-34477595D01*
X22848869Y-34477603D01*
X22962396Y-34591130D01*
X22962400Y-34591133D01*
X22962402Y-34591135D01*
X23100607Y-34672869D01*
X23139967Y-34684304D01*
X23254791Y-34717664D01*
X23254794Y-34717664D01*
X23254796Y-34717665D01*
X23290819Y-34720500D01*
X23485689Y-34720499D01*
X23552728Y-34740183D01*
X23598483Y-34792987D01*
X23609010Y-34857457D01*
X23604540Y-34899997D01*
X23604540Y-34900000D01*
X23624326Y-35088256D01*
X23624327Y-35088259D01*
X23682818Y-35268277D01*
X23682821Y-35268284D01*
X23777467Y-35432216D01*
X23859755Y-35523606D01*
X23904129Y-35572888D01*
X24057265Y-35684148D01*
X24057270Y-35684151D01*
X24230192Y-35761142D01*
X24230197Y-35761144D01*
X24415354Y-35800500D01*
X24415355Y-35800500D01*
X24490937Y-35800500D01*
X24557976Y-35820185D01*
X24603731Y-35872989D01*
X24613675Y-35942147D01*
X24605498Y-35971952D01*
X24565417Y-36068716D01*
X24565415Y-36068721D01*
X24545500Y-36219998D01*
X24545500Y-36220001D01*
X24565415Y-36371278D01*
X24565416Y-36371280D01*
X24623806Y-36512247D01*
X24623807Y-36512249D01*
X24623808Y-36512250D01*
X24716696Y-36633304D01*
X24837750Y-36726192D01*
X24978720Y-36784584D01*
X25035369Y-36792042D01*
X25092019Y-36799500D01*
X25092020Y-36799500D01*
X25167981Y-36799500D01*
X25205746Y-36794528D01*
X25281280Y-36784584D01*
X25422250Y-36726192D01*
X25543304Y-36633304D01*
X25636192Y-36512250D01*
X25653134Y-36471348D01*
X25696972Y-36416947D01*
X25763266Y-36394881D01*
X25830965Y-36412159D01*
X25833667Y-36413809D01*
X25900475Y-36455788D01*
X26070745Y-36515368D01*
X26070750Y-36515369D01*
X26249996Y-36535565D01*
X26250000Y-36535565D01*
X26250004Y-36535565D01*
X26429249Y-36515369D01*
X26429252Y-36515368D01*
X26429255Y-36515368D01*
X26599522Y-36455789D01*
X26752262Y-36359816D01*
X26767476Y-36344602D01*
X26828799Y-36311117D01*
X26898491Y-36316101D01*
X26954424Y-36357973D01*
X26978841Y-36423437D01*
X26979157Y-36432283D01*
X26979157Y-37101616D01*
X26959472Y-37168655D01*
X26942838Y-37189297D01*
X25456096Y-38676039D01*
X25449994Y-38681390D01*
X25421720Y-38703086D01*
X25421717Y-38703089D01*
X25421718Y-38703089D01*
X25339888Y-38809732D01*
X25328819Y-38824157D01*
X25325463Y-38828531D01*
X25264956Y-38974608D01*
X25264955Y-38974610D01*
X25244318Y-39131369D01*
X25248968Y-39166703D01*
X25249499Y-39174802D01*
X25249499Y-39314129D01*
X25229814Y-39381168D01*
X25177010Y-39426923D01*
X25107852Y-39436867D01*
X25050458Y-39412845D01*
X25030584Y-39397737D01*
X24854919Y-39264200D01*
X24548253Y-39079685D01*
X24548252Y-39079684D01*
X24548248Y-39079682D01*
X24548244Y-39079680D01*
X24223447Y-38929414D01*
X24223441Y-38929411D01*
X24223435Y-38929409D01*
X24048917Y-38870607D01*
X23884273Y-38815131D01*
X23534744Y-38738194D01*
X23178949Y-38699500D01*
X23178948Y-38699500D01*
X22821052Y-38699500D01*
X22821050Y-38699500D01*
X22465255Y-38738194D01*
X22115726Y-38815131D01*
X21874167Y-38896523D01*
X21776565Y-38929409D01*
X21776562Y-38929410D01*
X21776563Y-38929410D01*
X21776552Y-38929414D01*
X21451755Y-39079680D01*
X21451751Y-39079682D01*
X21307122Y-39166703D01*
X21145081Y-39264200D01*
X21127246Y-39277758D01*
X20860172Y-39480781D01*
X20860163Y-39480789D01*
X20600331Y-39726914D01*
X20368641Y-39999680D01*
X20368633Y-39999690D01*
X20227133Y-40208388D01*
X20173219Y-40252829D01*
X20103836Y-40261067D01*
X20041015Y-40230486D01*
X20004699Y-40170796D01*
X20000500Y-40138801D01*
X20000500Y-23001622D01*
X20000585Y-22998376D01*
X20004205Y-22929304D01*
X20007497Y-22866486D01*
X20008288Y-22852410D01*
X20017803Y-22682968D01*
X20018464Y-22676791D01*
X20042611Y-22524331D01*
X20070227Y-22361796D01*
X20071451Y-22356196D01*
X20112425Y-22203279D01*
X20157083Y-22048268D01*
X20158764Y-22043254D01*
X20216127Y-21893815D01*
X20277366Y-21745972D01*
X20279379Y-21741606D01*
X20352511Y-21598078D01*
X20395248Y-21520750D01*
X20429655Y-21458494D01*
X20431867Y-21454808D01*
X20519980Y-21319127D01*
X20536451Y-21295913D01*
X20612154Y-21189220D01*
X20614486Y-21186143D01*
X20715655Y-21061209D01*
X20717537Y-21058998D01*
X20822773Y-20941239D01*
X20825092Y-20938787D01*
X20938787Y-20825092D01*
X20941239Y-20822773D01*
X21058998Y-20717537D01*
X21061209Y-20715655D01*
X21186143Y-20614486D01*
X21189220Y-20612154D01*
X21319127Y-20519980D01*
X21329046Y-20513537D01*
X21454808Y-20431867D01*
X21458494Y-20429655D01*
X21598078Y-20352511D01*
X21610063Y-20346403D01*
X21741606Y-20279379D01*
X21745972Y-20277366D01*
X21893815Y-20216127D01*
X22043254Y-20158764D01*
X22048268Y-20157083D01*
X22203279Y-20112425D01*
X22356196Y-20071451D01*
X22361796Y-20070227D01*
X22524284Y-20042618D01*
X22676791Y-20018464D01*
X22682968Y-20017803D01*
X22866566Y-20007493D01*
X22998380Y-20000584D01*
X23001622Y-20000500D01*
X40136747Y-20000500D01*
X40203786Y-20020185D01*
G37*
%TD.AperFunction*%
%TA.AperFunction,Conductor*%
G36*
X31405703Y-33220029D02*
G01*
X31412181Y-33226061D01*
X32385159Y-34199039D01*
X32418644Y-34260362D01*
X32414520Y-34327675D01*
X32364631Y-34470247D01*
X32364630Y-34470252D01*
X32344435Y-34649498D01*
X32344435Y-34649505D01*
X32364630Y-34828751D01*
X32364631Y-34828756D01*
X32424211Y-34999025D01*
X32520184Y-35151764D01*
X32538181Y-35169761D01*
X32571666Y-35231084D01*
X32574500Y-35257442D01*
X32574500Y-35278333D01*
X32554815Y-35345372D01*
X32538181Y-35366014D01*
X32519887Y-35384307D01*
X32519881Y-35384315D01*
X32437505Y-35523606D01*
X32437504Y-35523609D01*
X32392357Y-35679002D01*
X32392356Y-35679008D01*
X32389500Y-35715308D01*
X32389500Y-36184692D01*
X32392356Y-36220991D01*
X32392357Y-36220997D01*
X32437504Y-36376390D01*
X32437505Y-36376393D01*
X32519881Y-36515684D01*
X32519887Y-36515692D01*
X32634307Y-36630112D01*
X32634311Y-36630115D01*
X32634313Y-36630117D01*
X32773605Y-36712494D01*
X32794009Y-36718422D01*
X32929002Y-36757642D01*
X32929005Y-36757642D01*
X32929007Y-36757643D01*
X32941107Y-36758595D01*
X32965308Y-36760500D01*
X32965310Y-36760500D01*
X33178359Y-36760500D01*
X33245398Y-36780185D01*
X33266040Y-36796819D01*
X33382415Y-36913194D01*
X33387756Y-36919284D01*
X33399152Y-36934136D01*
X33405535Y-36942455D01*
X33408444Y-36946245D01*
X33419166Y-36954472D01*
X33437381Y-36968450D01*
X33437386Y-36968454D01*
X33438627Y-36969406D01*
X33497911Y-37014896D01*
X33528662Y-37038492D01*
X33668659Y-37096481D01*
X33781175Y-37111294D01*
X33781176Y-37111294D01*
X33783189Y-37111559D01*
X33783208Y-37111560D01*
X33818895Y-37116259D01*
X33818896Y-37116259D01*
X33832160Y-37114512D01*
X33852577Y-37111824D01*
X33860676Y-37111294D01*
X34255674Y-37111294D01*
X34322713Y-37130979D01*
X34368468Y-37183783D01*
X34373605Y-37196976D01*
X34434104Y-37383173D01*
X34434107Y-37383180D01*
X34528751Y-37547110D01*
X34528752Y-37547111D01*
X34528753Y-37547112D01*
X34544977Y-37565131D01*
X34575207Y-37628121D01*
X34566583Y-37697457D01*
X34559560Y-37711224D01*
X34477133Y-37850602D01*
X34477129Y-37850611D01*
X34432335Y-38004791D01*
X34432334Y-38004797D01*
X34429500Y-38040817D01*
X34429500Y-38375500D01*
X34409815Y-38442539D01*
X34357011Y-38488294D01*
X34305500Y-38499500D01*
X33002129Y-38499500D01*
X33002123Y-38499501D01*
X32942517Y-38505908D01*
X32917830Y-38515116D01*
X32848138Y-38520099D01*
X32786816Y-38486612D01*
X32753332Y-38425288D01*
X32750499Y-38398941D01*
X32750499Y-37252128D01*
X32744091Y-37192517D01*
X32740833Y-37183783D01*
X32693797Y-37057671D01*
X32693793Y-37057664D01*
X32607547Y-36942455D01*
X32607544Y-36942452D01*
X32492334Y-36856205D01*
X32492332Y-36856204D01*
X32405359Y-36823764D01*
X32349426Y-36781892D01*
X32341307Y-36769583D01*
X32282534Y-36667785D01*
X32155870Y-36527111D01*
X32002734Y-36415851D01*
X32002729Y-36415848D01*
X31829807Y-36338857D01*
X31829802Y-36338855D01*
X31684001Y-36307865D01*
X31644646Y-36299500D01*
X31455354Y-36299500D01*
X31422897Y-36306398D01*
X31270197Y-36338855D01*
X31270192Y-36338857D01*
X31097271Y-36415848D01*
X31009137Y-36479881D01*
X30943330Y-36503360D01*
X30875277Y-36487534D01*
X30834377Y-36448509D01*
X30834159Y-36448684D01*
X30832881Y-36447081D01*
X30831257Y-36445532D01*
X30829816Y-36443238D01*
X30702262Y-36315684D01*
X30694994Y-36311117D01*
X30549523Y-36219711D01*
X30379254Y-36160131D01*
X30379249Y-36160130D01*
X30200004Y-36139935D01*
X30199996Y-36139935D01*
X30020750Y-36160130D01*
X30020745Y-36160131D01*
X29850476Y-36219711D01*
X29697737Y-36315684D01*
X29570184Y-36443237D01*
X29474210Y-36595978D01*
X29414630Y-36766250D01*
X29400348Y-36893012D01*
X29373281Y-36957426D01*
X29364809Y-36966809D01*
X29214476Y-37117142D01*
X29153153Y-37150627D01*
X29083461Y-37145643D01*
X29027528Y-37103771D01*
X29009753Y-37070416D01*
X28998582Y-37038492D01*
X28950289Y-36900478D01*
X28854316Y-36747738D01*
X28854314Y-36747736D01*
X28854313Y-36747734D01*
X28852050Y-36744896D01*
X28851159Y-36742715D01*
X28850611Y-36741842D01*
X28850764Y-36741745D01*
X28825644Y-36680209D01*
X28825000Y-36667587D01*
X28825000Y-35288601D01*
X28844685Y-35221562D01*
X28897489Y-35175807D01*
X28966647Y-35165863D01*
X28983588Y-35169523D01*
X29097431Y-35202598D01*
X29109722Y-35203565D01*
X29134304Y-35205500D01*
X29134306Y-35205500D01*
X30615696Y-35205500D01*
X30634131Y-35204049D01*
X30652569Y-35202598D01*
X30652571Y-35202597D01*
X30652573Y-35202597D01*
X30716063Y-35184151D01*
X30810398Y-35156744D01*
X30951865Y-35073081D01*
X31068081Y-34956865D01*
X31151744Y-34815398D01*
X31197598Y-34657569D01*
X31200500Y-34620694D01*
X31200500Y-34189306D01*
X31200177Y-34185208D01*
X31197598Y-34152432D01*
X31197597Y-34152426D01*
X31153908Y-34002050D01*
X31151744Y-33994602D01*
X31068081Y-33853135D01*
X31068078Y-33853132D01*
X31063298Y-33846969D01*
X31065750Y-33845066D01*
X31039155Y-33796421D01*
X31044104Y-33726726D01*
X31064940Y-33694304D01*
X31063298Y-33693031D01*
X31068075Y-33686870D01*
X31068081Y-33686865D01*
X31151744Y-33545398D01*
X31189259Y-33416272D01*
X31197597Y-33387573D01*
X31197597Y-33387571D01*
X31197598Y-33387569D01*
X31200500Y-33350694D01*
X31200500Y-33313742D01*
X31220185Y-33246703D01*
X31272989Y-33200948D01*
X31342147Y-33191004D01*
X31405703Y-33220029D01*
G37*
%TD.AperFunction*%
%TA.AperFunction,Conductor*%
G36*
X35592539Y-34305185D02*
G01*
X35638294Y-34357989D01*
X35649500Y-34409500D01*
X35649500Y-34485258D01*
X35629815Y-34552297D01*
X35613181Y-34572939D01*
X34994366Y-35191753D01*
X34933043Y-35225238D01*
X34863351Y-35220254D01*
X34807418Y-35178382D01*
X34783001Y-35112918D01*
X34783465Y-35090188D01*
X34783603Y-35088968D01*
X34792456Y-35010391D01*
X34792111Y-35007330D01*
X34772260Y-34831141D01*
X34772259Y-34831136D01*
X34739417Y-34737279D01*
X34712680Y-34660869D01*
X34710606Y-34657569D01*
X34657430Y-34572939D01*
X34616707Y-34508129D01*
X34605759Y-34497181D01*
X34572274Y-34435858D01*
X34577258Y-34366166D01*
X34619130Y-34310233D01*
X34684594Y-34285816D01*
X34693440Y-34285500D01*
X35525500Y-34285500D01*
X35592539Y-34305185D01*
G37*
%TD.AperFunction*%
%TA.AperFunction,Conductor*%
G36*
X31880099Y-27045185D02*
G01*
X31925854Y-27097989D01*
X31935798Y-27167147D01*
X31906773Y-27230703D01*
X31900741Y-27237181D01*
X31780184Y-27357737D01*
X31684211Y-27510476D01*
X31624631Y-27680745D01*
X31624630Y-27680750D01*
X31604435Y-27859996D01*
X31604435Y-27860004D01*
X31622915Y-28024026D01*
X31618772Y-28072501D01*
X31602358Y-28129000D01*
X31602356Y-28129013D01*
X31599500Y-28165308D01*
X31599500Y-28634692D01*
X31602356Y-28670991D01*
X31602357Y-28670997D01*
X31647504Y-28826390D01*
X31647505Y-28826393D01*
X31647506Y-28826395D01*
X31687907Y-28894710D01*
X31732232Y-28969659D01*
X31749500Y-29032780D01*
X31749500Y-29633219D01*
X31748969Y-29641316D01*
X31747826Y-29650000D01*
X31744535Y-29674998D01*
X31749021Y-29709083D01*
X31749023Y-29709098D01*
X31749500Y-29712720D01*
X31760648Y-29797401D01*
X31764313Y-29825235D01*
X31764313Y-29825236D01*
X31813638Y-29944316D01*
X31822302Y-29965234D01*
X31892680Y-30056952D01*
X31892689Y-30056963D01*
X31914546Y-30085448D01*
X31914547Y-30085449D01*
X31914549Y-30085451D01*
X31929745Y-30097111D01*
X31941506Y-30106136D01*
X31947609Y-30111489D01*
X33388180Y-31552060D01*
X33421665Y-31613383D01*
X33424499Y-31639741D01*
X33424500Y-33311258D01*
X33404815Y-33378297D01*
X33352012Y-33424052D01*
X33282853Y-33433996D01*
X33219297Y-33404971D01*
X33212819Y-33398939D01*
X31936818Y-32122938D01*
X31903333Y-32061615D01*
X31900500Y-32035266D01*
X31900500Y-31435770D01*
X31901031Y-31427670D01*
X31902026Y-31420117D01*
X31905466Y-31393985D01*
X31902124Y-31368597D01*
X31891093Y-31284814D01*
X31885687Y-31243751D01*
X31885687Y-31243749D01*
X31859309Y-31180067D01*
X31827699Y-31103752D01*
X31818954Y-31092356D01*
X31801658Y-31069815D01*
X31758612Y-31013717D01*
X31758609Y-31013714D01*
X31735451Y-30983534D01*
X31735449Y-30983532D01*
X31735448Y-30983531D01*
X31720619Y-30972152D01*
X31708490Y-30962846D01*
X31702400Y-30957505D01*
X31586818Y-30841923D01*
X31553333Y-30780600D01*
X31550499Y-30754250D01*
X31550499Y-30218959D01*
X31551030Y-30210857D01*
X31551905Y-30204211D01*
X31555465Y-30177177D01*
X31551830Y-30149575D01*
X31551830Y-30149560D01*
X31548473Y-30124060D01*
X31535687Y-30026941D01*
X31477698Y-29886944D01*
X31477697Y-29886942D01*
X31475968Y-29884690D01*
X31407660Y-29795667D01*
X31407656Y-29795663D01*
X31387784Y-29769767D01*
X31385451Y-29766726D01*
X31385449Y-29766725D01*
X31385449Y-29766724D01*
X31373342Y-29757434D01*
X31358490Y-29746038D01*
X31352400Y-29740697D01*
X30166557Y-28554854D01*
X30133072Y-28493531D01*
X30131016Y-28481034D01*
X30130980Y-28480719D01*
X30143062Y-28411907D01*
X30178718Y-28368513D01*
X30250268Y-28313612D01*
X30250269Y-28313609D01*
X30258357Y-28307404D01*
X30258358Y-28307402D01*
X30280451Y-28290451D01*
X30301138Y-28263489D01*
X30306480Y-28257398D01*
X31502060Y-27061818D01*
X31563383Y-27028334D01*
X31589741Y-27025500D01*
X31813060Y-27025500D01*
X31880099Y-27045185D01*
G37*
%TD.AperFunction*%
%TA.AperFunction,Conductor*%
G36*
X28473235Y-28475185D02*
G01*
X28518990Y-28527989D01*
X28529416Y-28565617D01*
X28540985Y-28668305D01*
X28540986Y-28668310D01*
X28600566Y-28838579D01*
X28650255Y-28917658D01*
X28696539Y-28991318D01*
X28824093Y-29118872D01*
X28976833Y-29214845D01*
X29147100Y-29274424D01*
X29147105Y-29274425D01*
X29229377Y-29283694D01*
X29293791Y-29310759D01*
X29303176Y-29319233D01*
X29566762Y-29582819D01*
X29600247Y-29644142D01*
X29595263Y-29713834D01*
X29553391Y-29769767D01*
X29487927Y-29794184D01*
X29479081Y-29794500D01*
X29134304Y-29794500D01*
X29097432Y-29797401D01*
X29097426Y-29797402D01*
X28939606Y-29843254D01*
X28939603Y-29843255D01*
X28798137Y-29926917D01*
X28798129Y-29926923D01*
X28681923Y-30043129D01*
X28681917Y-30043137D01*
X28598255Y-30184603D01*
X28598254Y-30184606D01*
X28552402Y-30342426D01*
X28552401Y-30342432D01*
X28549500Y-30379304D01*
X28549500Y-30470500D01*
X28529815Y-30537539D01*
X28477011Y-30583294D01*
X28425500Y-30594500D01*
X28355365Y-30594500D01*
X28288326Y-30574815D01*
X28267684Y-30558181D01*
X28149634Y-30440131D01*
X27996895Y-30344158D01*
X27826626Y-30284578D01*
X27826621Y-30284577D01*
X27647376Y-30264382D01*
X27647368Y-30264382D01*
X27468122Y-30284577D01*
X27468117Y-30284578D01*
X27297848Y-30344158D01*
X27145109Y-30440131D01*
X27096917Y-30488323D01*
X27035594Y-30521807D01*
X26965902Y-30516822D01*
X26909969Y-30474950D01*
X26904244Y-30466614D01*
X26879817Y-30427739D01*
X26752262Y-30300184D01*
X26599523Y-30204211D01*
X26429254Y-30144631D01*
X26429249Y-30144630D01*
X26250004Y-30124435D01*
X26249996Y-30124435D01*
X26070750Y-30144630D01*
X26070745Y-30144631D01*
X25900474Y-30204212D01*
X25833665Y-30246191D01*
X25766429Y-30265191D01*
X25699594Y-30244823D01*
X25654380Y-30191555D01*
X25653148Y-30188687D01*
X25636192Y-30147750D01*
X25543304Y-30026696D01*
X25422250Y-29933808D01*
X25422249Y-29933807D01*
X25422247Y-29933806D01*
X25281280Y-29875416D01*
X25281278Y-29875415D01*
X25167981Y-29860500D01*
X25167980Y-29860500D01*
X25092020Y-29860500D01*
X25092019Y-29860500D01*
X24978721Y-29875415D01*
X24978719Y-29875416D01*
X24837752Y-29933806D01*
X24716696Y-30026696D01*
X24623806Y-30147752D01*
X24565416Y-30288719D01*
X24565415Y-30288721D01*
X24545500Y-30439998D01*
X24545500Y-30440001D01*
X24565415Y-30591278D01*
X24565416Y-30591280D01*
X24623806Y-30732247D01*
X24623808Y-30732250D01*
X24675805Y-30800014D01*
X24700999Y-30865183D01*
X24686961Y-30933628D01*
X24638147Y-30983617D01*
X24577429Y-30999500D01*
X24415354Y-30999500D01*
X24387606Y-31005398D01*
X24230197Y-31038855D01*
X24230192Y-31038857D01*
X24057270Y-31115848D01*
X24057265Y-31115851D01*
X23904129Y-31227111D01*
X23777465Y-31367785D01*
X23751887Y-31412089D01*
X23701320Y-31460305D01*
X23632713Y-31473527D01*
X23567848Y-31447559D01*
X23527320Y-31390645D01*
X23520500Y-31350089D01*
X23520500Y-30344741D01*
X23540185Y-30277702D01*
X23556814Y-30257065D01*
X25322060Y-28491819D01*
X25383384Y-28458334D01*
X25409742Y-28455500D01*
X28406196Y-28455500D01*
X28473235Y-28475185D01*
G37*
%TD.AperFunction*%
%TA.AperFunction,Conductor*%
G36*
X34372347Y-23294044D02*
G01*
X34428281Y-23335916D01*
X34449314Y-23391688D01*
X34451263Y-23391333D01*
X34452402Y-23397573D01*
X34498254Y-23555393D01*
X34498255Y-23555396D01*
X34581917Y-23696862D01*
X34586702Y-23703031D01*
X34584256Y-23704927D01*
X34610857Y-23753642D01*
X34605873Y-23823334D01*
X34585069Y-23855703D01*
X34586702Y-23856969D01*
X34581917Y-23863137D01*
X34498255Y-24004603D01*
X34498254Y-24004606D01*
X34452402Y-24162426D01*
X34452401Y-24162432D01*
X34449500Y-24199304D01*
X34449500Y-24630696D01*
X34452401Y-24667567D01*
X34452402Y-24667573D01*
X34498254Y-24825393D01*
X34498255Y-24825396D01*
X34581917Y-24966862D01*
X34586702Y-24973031D01*
X34584256Y-24974927D01*
X34610857Y-25023642D01*
X34605873Y-25093334D01*
X34585069Y-25125703D01*
X34586702Y-25126969D01*
X34581917Y-25133137D01*
X34498255Y-25274603D01*
X34498254Y-25274606D01*
X34452402Y-25432426D01*
X34452401Y-25432432D01*
X34449500Y-25469304D01*
X34449500Y-25900696D01*
X34452401Y-25937567D01*
X34452402Y-25937573D01*
X34498254Y-26095393D01*
X34498255Y-26095396D01*
X34581917Y-26236862D01*
X34586702Y-26243031D01*
X34584256Y-26244927D01*
X34610857Y-26293642D01*
X34605873Y-26363334D01*
X34585069Y-26395703D01*
X34586702Y-26396969D01*
X34581917Y-26403137D01*
X34498255Y-26544603D01*
X34498254Y-26544605D01*
X34495513Y-26554040D01*
X34457904Y-26612924D01*
X34394430Y-26642128D01*
X34328986Y-26634001D01*
X34280197Y-26613792D01*
X34280195Y-26613791D01*
X34280194Y-26613791D01*
X34226864Y-26606769D01*
X34164056Y-26598501D01*
X34164041Y-26598499D01*
X34137154Y-26594960D01*
X34129958Y-26594013D01*
X34129957Y-26594013D01*
X34129956Y-26594013D01*
X34115657Y-26595895D01*
X34046622Y-26585126D01*
X34011796Y-26560636D01*
X33814494Y-26363334D01*
X33173771Y-25722609D01*
X33168418Y-25716506D01*
X33165768Y-25713053D01*
X33147733Y-25689549D01*
X33147731Y-25689547D01*
X33147730Y-25689546D01*
X33119245Y-25667689D01*
X33119234Y-25667680D01*
X33027514Y-25597301D01*
X32914231Y-25550378D01*
X32901324Y-25541129D01*
X32772821Y-25524212D01*
X32772795Y-25524210D01*
X32737283Y-25519535D01*
X32737281Y-25519535D01*
X32724016Y-25521281D01*
X32703599Y-25523969D01*
X32695501Y-25524500D01*
X32338742Y-25524500D01*
X32271703Y-25504815D01*
X32225948Y-25452011D01*
X32216004Y-25382853D01*
X32245029Y-25319297D01*
X32251061Y-25312819D01*
X32738487Y-24825393D01*
X34241335Y-23322543D01*
X34302656Y-23289060D01*
X34372347Y-23294044D01*
G37*
%TD.AperFunction*%
%TD*%
M02*
