M48
; DRILL file {KiCad 7.0.7} date Thu Mar  7 17:34:27 2024
; FORMAT={-:-/ absolute / metric / decimal}
; #@! TF.CreationDate,2024-03-07T17:34:27-08:00
; #@! TF.GenerationSoftware,Kicad,Pcbnew,7.0.7
; #@! TF.FileFunction,Plated,1,2,PTH
FMAT,2
METRIC
; #@! TA.AperFunction,Plated,PTH,ViaDrill
T1C0.300
; #@! TA.AperFunction,Plated,PTH,ViaDrill
T2C0.400
; #@! TA.AperFunction,Plated,PTH,ViaDrill
T3C0.500
; #@! TA.AperFunction,Plated,PTH,ComponentDrill
T4C0.600
; #@! TA.AperFunction,Plated,PTH,ComponentDrill
T5C0.750
; #@! TA.AperFunction,Plated,PTH,ComponentDrill
T6C1.000
; #@! TA.AperFunction,Plated,PTH,ComponentDrill
T7C3.200
%
G90
G05
T1
X20.99Y-25.43
X22.3Y-23.85
X23.5Y-21.7
X24.24Y-25.93
X24.51Y-32.9
X24.51Y-33.9
X25.25Y-39.0
X25.7Y-44.4
X26.25Y-30.93
X26.25Y-35.73
X26.7Y-39.19
X27.05Y-23.85
X27.214Y-26.416
X27.58Y-31.933
X27.647Y-31.07
X28.224Y-37.25
X28.224Y-39.9
X28.55Y-24.415
X28.55Y-25.685
X28.55Y-26.955
X29.326Y-28.489
X29.9Y-39.3
X30.2Y-36.945
X31.424Y-35.05
X31.55Y-39.65
X32.377Y-27.047
X32.41Y-27.86
X32.5Y-32.55
X32.5Y-40.55
X32.9Y-29.15
X33.05Y-37.9
X33.15Y-34.65
X33.199Y-28.153
X33.6Y-43.2
X33.889Y-27.749
X33.987Y-35.01
X34.0Y-21.6
X34.1Y-26.45
X35.0Y-34.387
X35.5Y-43.2
X35.75Y-23.145
X35.75Y-24.415
X35.75Y-25.685
X36.7Y-26.955
X37.4Y-26.0
X39.2Y-41.2
X40.9Y-26.75
X41.5Y-33.6
X41.85Y-31.75
X41.95Y-26.75
X43.0Y-26.75
X43.05Y-31.75
X44.05Y-26.75
X44.2Y-40.3
X44.4Y-35.95
T2
X23.9Y-30.65
X24.51Y-31.9
X24.51Y-34.9
X31.55Y-37.2
X34.917Y-30.545
X35.261Y-37.015
X39.42Y-29.65
X41.85Y-30.77
X44.45Y-34.4
T3
X26.9Y-21.7
X28.35Y-21.65
X30.65Y-24.15
X38.2Y-27.8
T5
X38.6Y-32.85
X38.6Y-34.85
X38.6Y-36.85
X38.6Y-38.85
T6
X38.56Y-43.1
X41.1Y-43.1
T7
X23.0Y-42.0
X42.0Y-23.0
T4
X21.85Y-29.01G85X21.05Y-29.01
G05
X21.85Y-37.65G85X21.05Y-37.65
G05
X26.2Y-29.01G85X25.1Y-29.01
G05
X26.2Y-37.65G85X25.1Y-37.65
G05
T0
M30
