%TF.GenerationSoftware,KiCad,Pcbnew,7.0.7*%
%TF.CreationDate,2024-03-07T17:34:25-08:00*%
%TF.ProjectId,magn_angle_sensor_v2,6d61676e-5f61-46e6-976c-655f73656e73,rev?*%
%TF.SameCoordinates,Original*%
%TF.FileFunction,Legend,Bot*%
%TF.FilePolarity,Positive*%
%FSLAX46Y46*%
G04 Gerber Fmt 4.6, Leading zero omitted, Abs format (unit mm)*
G04 Created by KiCad (PCBNEW 7.0.7) date 2024-03-07 17:34:25*
%MOMM*%
%LPD*%
G01*
G04 APERTURE LIST*
%ADD10C,0.150000*%
%ADD11C,0.548308*%
%ADD12C,0.813511*%
%ADD13C,0.551712*%
%ADD14C,0.651830*%
%ADD15C,0.648304*%
%ADD16C,0.659340*%
%ADD17C,0.120000*%
G04 APERTURE END LIST*
D10*
X23228181Y-21265587D02*
X21030000Y-22600000D01*
X21030000Y-22600000D02*
X23295218Y-24309472D01*
X23295218Y-24309472D02*
X23228181Y-21265587D01*
X26093049Y-25386468D02*
X23295218Y-24309472D01*
X26093049Y-25386468D02*
X27475380Y-31265587D01*
X24740241Y-30530827D02*
X23295218Y-24309472D01*
X24740241Y-30530827D02*
X27475380Y-31265587D01*
D11*
X23569372Y-24309472D02*
G75*
G03*
X23569372Y-24309472I-274154J0D01*
G01*
D12*
X21436755Y-22600000D02*
G75*
G03*
X21436755Y-22600000I-406755J0D01*
G01*
D13*
X23504037Y-21265587D02*
G75*
G03*
X23504037Y-21265587I-275856J0D01*
G01*
D14*
X26418964Y-25386468D02*
G75*
G03*
X26418964Y-25386468I-325915J0D01*
G01*
D15*
X25064393Y-30530827D02*
G75*
G03*
X25064393Y-30530827I-324152J0D01*
G01*
D16*
X27805050Y-31265587D02*
G75*
G03*
X27805050Y-31265587I-329670J0D01*
G01*
D10*
X31005237Y-44682200D02*
X30862380Y-44729819D01*
X30862380Y-44729819D02*
X30624285Y-44729819D01*
X30624285Y-44729819D02*
X30529047Y-44682200D01*
X30529047Y-44682200D02*
X30481428Y-44634580D01*
X30481428Y-44634580D02*
X30433809Y-44539342D01*
X30433809Y-44539342D02*
X30433809Y-44444104D01*
X30433809Y-44444104D02*
X30481428Y-44348866D01*
X30481428Y-44348866D02*
X30529047Y-44301247D01*
X30529047Y-44301247D02*
X30624285Y-44253628D01*
X30624285Y-44253628D02*
X30814761Y-44206009D01*
X30814761Y-44206009D02*
X30909999Y-44158390D01*
X30909999Y-44158390D02*
X30957618Y-44110771D01*
X30957618Y-44110771D02*
X31005237Y-44015533D01*
X31005237Y-44015533D02*
X31005237Y-43920295D01*
X31005237Y-43920295D02*
X30957618Y-43825057D01*
X30957618Y-43825057D02*
X30909999Y-43777438D01*
X30909999Y-43777438D02*
X30814761Y-43729819D01*
X30814761Y-43729819D02*
X30576666Y-43729819D01*
X30576666Y-43729819D02*
X30433809Y-43777438D01*
X30005237Y-44729819D02*
X30005237Y-43729819D01*
X30005237Y-43729819D02*
X29767142Y-43729819D01*
X29767142Y-43729819D02*
X29624285Y-43777438D01*
X29624285Y-43777438D02*
X29529047Y-43872676D01*
X29529047Y-43872676D02*
X29481428Y-43967914D01*
X29481428Y-43967914D02*
X29433809Y-44158390D01*
X29433809Y-44158390D02*
X29433809Y-44301247D01*
X29433809Y-44301247D02*
X29481428Y-44491723D01*
X29481428Y-44491723D02*
X29529047Y-44586961D01*
X29529047Y-44586961D02*
X29624285Y-44682200D01*
X29624285Y-44682200D02*
X29767142Y-44729819D01*
X29767142Y-44729819D02*
X30005237Y-44729819D01*
X29052856Y-44444104D02*
X28576666Y-44444104D01*
X29148094Y-44729819D02*
X28814761Y-43729819D01*
X28814761Y-43729819D02*
X28481428Y-44729819D01*
X28195713Y-44682200D02*
X28052856Y-44729819D01*
X28052856Y-44729819D02*
X27814761Y-44729819D01*
X27814761Y-44729819D02*
X27719523Y-44682200D01*
X27719523Y-44682200D02*
X27671904Y-44634580D01*
X27671904Y-44634580D02*
X27624285Y-44539342D01*
X27624285Y-44539342D02*
X27624285Y-44444104D01*
X27624285Y-44444104D02*
X27671904Y-44348866D01*
X27671904Y-44348866D02*
X27719523Y-44301247D01*
X27719523Y-44301247D02*
X27814761Y-44253628D01*
X27814761Y-44253628D02*
X28005237Y-44206009D01*
X28005237Y-44206009D02*
X28100475Y-44158390D01*
X28100475Y-44158390D02*
X28148094Y-44110771D01*
X28148094Y-44110771D02*
X28195713Y-44015533D01*
X28195713Y-44015533D02*
X28195713Y-43920295D01*
X28195713Y-43920295D02*
X28148094Y-43825057D01*
X28148094Y-43825057D02*
X28100475Y-43777438D01*
X28100475Y-43777438D02*
X28005237Y-43729819D01*
X28005237Y-43729819D02*
X27767142Y-43729819D01*
X27767142Y-43729819D02*
X27624285Y-43777438D01*
X27195713Y-44729819D02*
X27195713Y-43729819D01*
X27195713Y-43729819D02*
X26957618Y-43729819D01*
X26957618Y-43729819D02*
X26814761Y-43777438D01*
X26814761Y-43777438D02*
X26719523Y-43872676D01*
X26719523Y-43872676D02*
X26671904Y-43967914D01*
X26671904Y-43967914D02*
X26624285Y-44158390D01*
X26624285Y-44158390D02*
X26624285Y-44301247D01*
X26624285Y-44301247D02*
X26671904Y-44491723D01*
X26671904Y-44491723D02*
X26719523Y-44586961D01*
X26719523Y-44586961D02*
X26814761Y-44682200D01*
X26814761Y-44682200D02*
X26957618Y-44729819D01*
X26957618Y-44729819D02*
X27195713Y-44729819D01*
X25719523Y-44729819D02*
X26195713Y-44729819D01*
X26195713Y-44729819D02*
X26195713Y-43729819D01*
X29259580Y-38107142D02*
X29307200Y-38059523D01*
X29307200Y-38059523D02*
X29354819Y-37916666D01*
X29354819Y-37916666D02*
X29354819Y-37821428D01*
X29354819Y-37821428D02*
X29307200Y-37678571D01*
X29307200Y-37678571D02*
X29211961Y-37583333D01*
X29211961Y-37583333D02*
X29116723Y-37535714D01*
X29116723Y-37535714D02*
X28926247Y-37488095D01*
X28926247Y-37488095D02*
X28783390Y-37488095D01*
X28783390Y-37488095D02*
X28592914Y-37535714D01*
X28592914Y-37535714D02*
X28497676Y-37583333D01*
X28497676Y-37583333D02*
X28402438Y-37678571D01*
X28402438Y-37678571D02*
X28354819Y-37821428D01*
X28354819Y-37821428D02*
X28354819Y-37916666D01*
X28354819Y-37916666D02*
X28402438Y-38059523D01*
X28402438Y-38059523D02*
X28450057Y-38107142D01*
X28450057Y-38488095D02*
X28402438Y-38535714D01*
X28402438Y-38535714D02*
X28354819Y-38630952D01*
X28354819Y-38630952D02*
X28354819Y-38869047D01*
X28354819Y-38869047D02*
X28402438Y-38964285D01*
X28402438Y-38964285D02*
X28450057Y-39011904D01*
X28450057Y-39011904D02*
X28545295Y-39059523D01*
X28545295Y-39059523D02*
X28640533Y-39059523D01*
X28640533Y-39059523D02*
X28783390Y-39011904D01*
X28783390Y-39011904D02*
X29354819Y-38440476D01*
X29354819Y-38440476D02*
X29354819Y-39059523D01*
X28354819Y-39678571D02*
X28354819Y-39773809D01*
X28354819Y-39773809D02*
X28402438Y-39869047D01*
X28402438Y-39869047D02*
X28450057Y-39916666D01*
X28450057Y-39916666D02*
X28545295Y-39964285D01*
X28545295Y-39964285D02*
X28735771Y-40011904D01*
X28735771Y-40011904D02*
X28973866Y-40011904D01*
X28973866Y-40011904D02*
X29164342Y-39964285D01*
X29164342Y-39964285D02*
X29259580Y-39916666D01*
X29259580Y-39916666D02*
X29307200Y-39869047D01*
X29307200Y-39869047D02*
X29354819Y-39773809D01*
X29354819Y-39773809D02*
X29354819Y-39678571D01*
X29354819Y-39678571D02*
X29307200Y-39583333D01*
X29307200Y-39583333D02*
X29259580Y-39535714D01*
X29259580Y-39535714D02*
X29164342Y-39488095D01*
X29164342Y-39488095D02*
X28973866Y-39440476D01*
X28973866Y-39440476D02*
X28735771Y-39440476D01*
X28735771Y-39440476D02*
X28545295Y-39488095D01*
X28545295Y-39488095D02*
X28450057Y-39535714D01*
X28450057Y-39535714D02*
X28402438Y-39583333D01*
X28402438Y-39583333D02*
X28354819Y-39678571D01*
X33892857Y-42509580D02*
X33940476Y-42557200D01*
X33940476Y-42557200D02*
X34083333Y-42604819D01*
X34083333Y-42604819D02*
X34178571Y-42604819D01*
X34178571Y-42604819D02*
X34321428Y-42557200D01*
X34321428Y-42557200D02*
X34416666Y-42461961D01*
X34416666Y-42461961D02*
X34464285Y-42366723D01*
X34464285Y-42366723D02*
X34511904Y-42176247D01*
X34511904Y-42176247D02*
X34511904Y-42033390D01*
X34511904Y-42033390D02*
X34464285Y-41842914D01*
X34464285Y-41842914D02*
X34416666Y-41747676D01*
X34416666Y-41747676D02*
X34321428Y-41652438D01*
X34321428Y-41652438D02*
X34178571Y-41604819D01*
X34178571Y-41604819D02*
X34083333Y-41604819D01*
X34083333Y-41604819D02*
X33940476Y-41652438D01*
X33940476Y-41652438D02*
X33892857Y-41700057D01*
X33511904Y-41700057D02*
X33464285Y-41652438D01*
X33464285Y-41652438D02*
X33369047Y-41604819D01*
X33369047Y-41604819D02*
X33130952Y-41604819D01*
X33130952Y-41604819D02*
X33035714Y-41652438D01*
X33035714Y-41652438D02*
X32988095Y-41700057D01*
X32988095Y-41700057D02*
X32940476Y-41795295D01*
X32940476Y-41795295D02*
X32940476Y-41890533D01*
X32940476Y-41890533D02*
X32988095Y-42033390D01*
X32988095Y-42033390D02*
X33559523Y-42604819D01*
X33559523Y-42604819D02*
X32940476Y-42604819D01*
X31988095Y-42604819D02*
X32559523Y-42604819D01*
X32273809Y-42604819D02*
X32273809Y-41604819D01*
X32273809Y-41604819D02*
X32369047Y-41747676D01*
X32369047Y-41747676D02*
X32464285Y-41842914D01*
X32464285Y-41842914D02*
X32559523Y-41890533D01*
X33866666Y-28859580D02*
X33914285Y-28907200D01*
X33914285Y-28907200D02*
X34057142Y-28954819D01*
X34057142Y-28954819D02*
X34152380Y-28954819D01*
X34152380Y-28954819D02*
X34295237Y-28907200D01*
X34295237Y-28907200D02*
X34390475Y-28811961D01*
X34390475Y-28811961D02*
X34438094Y-28716723D01*
X34438094Y-28716723D02*
X34485713Y-28526247D01*
X34485713Y-28526247D02*
X34485713Y-28383390D01*
X34485713Y-28383390D02*
X34438094Y-28192914D01*
X34438094Y-28192914D02*
X34390475Y-28097676D01*
X34390475Y-28097676D02*
X34295237Y-28002438D01*
X34295237Y-28002438D02*
X34152380Y-27954819D01*
X34152380Y-27954819D02*
X34057142Y-27954819D01*
X34057142Y-27954819D02*
X33914285Y-28002438D01*
X33914285Y-28002438D02*
X33866666Y-28050057D01*
X33485713Y-28050057D02*
X33438094Y-28002438D01*
X33438094Y-28002438D02*
X33342856Y-27954819D01*
X33342856Y-27954819D02*
X33104761Y-27954819D01*
X33104761Y-27954819D02*
X33009523Y-28002438D01*
X33009523Y-28002438D02*
X32961904Y-28050057D01*
X32961904Y-28050057D02*
X32914285Y-28145295D01*
X32914285Y-28145295D02*
X32914285Y-28240533D01*
X32914285Y-28240533D02*
X32961904Y-28383390D01*
X32961904Y-28383390D02*
X33533332Y-28954819D01*
X33533332Y-28954819D02*
X32914285Y-28954819D01*
X22342857Y-35754819D02*
X22676190Y-35278628D01*
X22914285Y-35754819D02*
X22914285Y-34754819D01*
X22914285Y-34754819D02*
X22533333Y-34754819D01*
X22533333Y-34754819D02*
X22438095Y-34802438D01*
X22438095Y-34802438D02*
X22390476Y-34850057D01*
X22390476Y-34850057D02*
X22342857Y-34945295D01*
X22342857Y-34945295D02*
X22342857Y-35088152D01*
X22342857Y-35088152D02*
X22390476Y-35183390D01*
X22390476Y-35183390D02*
X22438095Y-35231009D01*
X22438095Y-35231009D02*
X22533333Y-35278628D01*
X22533333Y-35278628D02*
X22914285Y-35278628D01*
X21390476Y-35754819D02*
X21961904Y-35754819D01*
X21676190Y-35754819D02*
X21676190Y-34754819D01*
X21676190Y-34754819D02*
X21771428Y-34897676D01*
X21771428Y-34897676D02*
X21866666Y-34992914D01*
X21866666Y-34992914D02*
X21961904Y-35040533D01*
X20771428Y-34754819D02*
X20676190Y-34754819D01*
X20676190Y-34754819D02*
X20580952Y-34802438D01*
X20580952Y-34802438D02*
X20533333Y-34850057D01*
X20533333Y-34850057D02*
X20485714Y-34945295D01*
X20485714Y-34945295D02*
X20438095Y-35135771D01*
X20438095Y-35135771D02*
X20438095Y-35373866D01*
X20438095Y-35373866D02*
X20485714Y-35564342D01*
X20485714Y-35564342D02*
X20533333Y-35659580D01*
X20533333Y-35659580D02*
X20580952Y-35707200D01*
X20580952Y-35707200D02*
X20676190Y-35754819D01*
X20676190Y-35754819D02*
X20771428Y-35754819D01*
X20771428Y-35754819D02*
X20866666Y-35707200D01*
X20866666Y-35707200D02*
X20914285Y-35659580D01*
X20914285Y-35659580D02*
X20961904Y-35564342D01*
X20961904Y-35564342D02*
X21009523Y-35373866D01*
X21009523Y-35373866D02*
X21009523Y-35135771D01*
X21009523Y-35135771D02*
X20961904Y-34945295D01*
X20961904Y-34945295D02*
X20914285Y-34850057D01*
X20914285Y-34850057D02*
X20866666Y-34802438D01*
X20866666Y-34802438D02*
X20771428Y-34754819D01*
X22316666Y-33304819D02*
X22649999Y-32828628D01*
X22888094Y-33304819D02*
X22888094Y-32304819D01*
X22888094Y-32304819D02*
X22507142Y-32304819D01*
X22507142Y-32304819D02*
X22411904Y-32352438D01*
X22411904Y-32352438D02*
X22364285Y-32400057D01*
X22364285Y-32400057D02*
X22316666Y-32495295D01*
X22316666Y-32495295D02*
X22316666Y-32638152D01*
X22316666Y-32638152D02*
X22364285Y-32733390D01*
X22364285Y-32733390D02*
X22411904Y-32781009D01*
X22411904Y-32781009D02*
X22507142Y-32828628D01*
X22507142Y-32828628D02*
X22888094Y-32828628D01*
X21411904Y-32304819D02*
X21888094Y-32304819D01*
X21888094Y-32304819D02*
X21935713Y-32781009D01*
X21935713Y-32781009D02*
X21888094Y-32733390D01*
X21888094Y-32733390D02*
X21792856Y-32685771D01*
X21792856Y-32685771D02*
X21554761Y-32685771D01*
X21554761Y-32685771D02*
X21459523Y-32733390D01*
X21459523Y-32733390D02*
X21411904Y-32781009D01*
X21411904Y-32781009D02*
X21364285Y-32876247D01*
X21364285Y-32876247D02*
X21364285Y-33114342D01*
X21364285Y-33114342D02*
X21411904Y-33209580D01*
X21411904Y-33209580D02*
X21459523Y-33257200D01*
X21459523Y-33257200D02*
X21554761Y-33304819D01*
X21554761Y-33304819D02*
X21792856Y-33304819D01*
X21792856Y-33304819D02*
X21888094Y-33257200D01*
X21888094Y-33257200D02*
X21935713Y-33209580D01*
X44509580Y-37057142D02*
X44557200Y-37009523D01*
X44557200Y-37009523D02*
X44604819Y-36866666D01*
X44604819Y-36866666D02*
X44604819Y-36771428D01*
X44604819Y-36771428D02*
X44557200Y-36628571D01*
X44557200Y-36628571D02*
X44461961Y-36533333D01*
X44461961Y-36533333D02*
X44366723Y-36485714D01*
X44366723Y-36485714D02*
X44176247Y-36438095D01*
X44176247Y-36438095D02*
X44033390Y-36438095D01*
X44033390Y-36438095D02*
X43842914Y-36485714D01*
X43842914Y-36485714D02*
X43747676Y-36533333D01*
X43747676Y-36533333D02*
X43652438Y-36628571D01*
X43652438Y-36628571D02*
X43604819Y-36771428D01*
X43604819Y-36771428D02*
X43604819Y-36866666D01*
X43604819Y-36866666D02*
X43652438Y-37009523D01*
X43652438Y-37009523D02*
X43700057Y-37057142D01*
X43700057Y-37438095D02*
X43652438Y-37485714D01*
X43652438Y-37485714D02*
X43604819Y-37580952D01*
X43604819Y-37580952D02*
X43604819Y-37819047D01*
X43604819Y-37819047D02*
X43652438Y-37914285D01*
X43652438Y-37914285D02*
X43700057Y-37961904D01*
X43700057Y-37961904D02*
X43795295Y-38009523D01*
X43795295Y-38009523D02*
X43890533Y-38009523D01*
X43890533Y-38009523D02*
X44033390Y-37961904D01*
X44033390Y-37961904D02*
X44604819Y-37390476D01*
X44604819Y-37390476D02*
X44604819Y-38009523D01*
X43938152Y-38866666D02*
X44604819Y-38866666D01*
X43557200Y-38628571D02*
X44271485Y-38390476D01*
X44271485Y-38390476D02*
X44271485Y-39009523D01*
X42042857Y-40809580D02*
X42090476Y-40857200D01*
X42090476Y-40857200D02*
X42233333Y-40904819D01*
X42233333Y-40904819D02*
X42328571Y-40904819D01*
X42328571Y-40904819D02*
X42471428Y-40857200D01*
X42471428Y-40857200D02*
X42566666Y-40761961D01*
X42566666Y-40761961D02*
X42614285Y-40666723D01*
X42614285Y-40666723D02*
X42661904Y-40476247D01*
X42661904Y-40476247D02*
X42661904Y-40333390D01*
X42661904Y-40333390D02*
X42614285Y-40142914D01*
X42614285Y-40142914D02*
X42566666Y-40047676D01*
X42566666Y-40047676D02*
X42471428Y-39952438D01*
X42471428Y-39952438D02*
X42328571Y-39904819D01*
X42328571Y-39904819D02*
X42233333Y-39904819D01*
X42233333Y-39904819D02*
X42090476Y-39952438D01*
X42090476Y-39952438D02*
X42042857Y-40000057D01*
X41090476Y-40904819D02*
X41661904Y-40904819D01*
X41376190Y-40904819D02*
X41376190Y-39904819D01*
X41376190Y-39904819D02*
X41471428Y-40047676D01*
X41471428Y-40047676D02*
X41566666Y-40142914D01*
X41566666Y-40142914D02*
X41661904Y-40190533D01*
X40471428Y-39904819D02*
X40376190Y-39904819D01*
X40376190Y-39904819D02*
X40280952Y-39952438D01*
X40280952Y-39952438D02*
X40233333Y-40000057D01*
X40233333Y-40000057D02*
X40185714Y-40095295D01*
X40185714Y-40095295D02*
X40138095Y-40285771D01*
X40138095Y-40285771D02*
X40138095Y-40523866D01*
X40138095Y-40523866D02*
X40185714Y-40714342D01*
X40185714Y-40714342D02*
X40233333Y-40809580D01*
X40233333Y-40809580D02*
X40280952Y-40857200D01*
X40280952Y-40857200D02*
X40376190Y-40904819D01*
X40376190Y-40904819D02*
X40471428Y-40904819D01*
X40471428Y-40904819D02*
X40566666Y-40857200D01*
X40566666Y-40857200D02*
X40614285Y-40809580D01*
X40614285Y-40809580D02*
X40661904Y-40714342D01*
X40661904Y-40714342D02*
X40709523Y-40523866D01*
X40709523Y-40523866D02*
X40709523Y-40285771D01*
X40709523Y-40285771D02*
X40661904Y-40095295D01*
X40661904Y-40095295D02*
X40614285Y-40000057D01*
X40614285Y-40000057D02*
X40566666Y-39952438D01*
X40566666Y-39952438D02*
X40471428Y-39904819D01*
X36854819Y-38583333D02*
X36378628Y-38250000D01*
X36854819Y-38011905D02*
X35854819Y-38011905D01*
X35854819Y-38011905D02*
X35854819Y-38392857D01*
X35854819Y-38392857D02*
X35902438Y-38488095D01*
X35902438Y-38488095D02*
X35950057Y-38535714D01*
X35950057Y-38535714D02*
X36045295Y-38583333D01*
X36045295Y-38583333D02*
X36188152Y-38583333D01*
X36188152Y-38583333D02*
X36283390Y-38535714D01*
X36283390Y-38535714D02*
X36331009Y-38488095D01*
X36331009Y-38488095D02*
X36378628Y-38392857D01*
X36378628Y-38392857D02*
X36378628Y-38011905D01*
X35854819Y-38916667D02*
X35854819Y-39583333D01*
X35854819Y-39583333D02*
X36854819Y-39154762D01*
X44659580Y-28883333D02*
X44707200Y-28835714D01*
X44707200Y-28835714D02*
X44754819Y-28692857D01*
X44754819Y-28692857D02*
X44754819Y-28597619D01*
X44754819Y-28597619D02*
X44707200Y-28454762D01*
X44707200Y-28454762D02*
X44611961Y-28359524D01*
X44611961Y-28359524D02*
X44516723Y-28311905D01*
X44516723Y-28311905D02*
X44326247Y-28264286D01*
X44326247Y-28264286D02*
X44183390Y-28264286D01*
X44183390Y-28264286D02*
X43992914Y-28311905D01*
X43992914Y-28311905D02*
X43897676Y-28359524D01*
X43897676Y-28359524D02*
X43802438Y-28454762D01*
X43802438Y-28454762D02*
X43754819Y-28597619D01*
X43754819Y-28597619D02*
X43754819Y-28692857D01*
X43754819Y-28692857D02*
X43802438Y-28835714D01*
X43802438Y-28835714D02*
X43850057Y-28883333D01*
X43754819Y-29216667D02*
X43754819Y-29835714D01*
X43754819Y-29835714D02*
X44135771Y-29502381D01*
X44135771Y-29502381D02*
X44135771Y-29645238D01*
X44135771Y-29645238D02*
X44183390Y-29740476D01*
X44183390Y-29740476D02*
X44231009Y-29788095D01*
X44231009Y-29788095D02*
X44326247Y-29835714D01*
X44326247Y-29835714D02*
X44564342Y-29835714D01*
X44564342Y-29835714D02*
X44659580Y-29788095D01*
X44659580Y-29788095D02*
X44707200Y-29740476D01*
X44707200Y-29740476D02*
X44754819Y-29645238D01*
X44754819Y-29645238D02*
X44754819Y-29359524D01*
X44754819Y-29359524D02*
X44707200Y-29264286D01*
X44707200Y-29264286D02*
X44659580Y-29216667D01*
X43566666Y-42204819D02*
X43899999Y-41728628D01*
X44138094Y-42204819D02*
X44138094Y-41204819D01*
X44138094Y-41204819D02*
X43757142Y-41204819D01*
X43757142Y-41204819D02*
X43661904Y-41252438D01*
X43661904Y-41252438D02*
X43614285Y-41300057D01*
X43614285Y-41300057D02*
X43566666Y-41395295D01*
X43566666Y-41395295D02*
X43566666Y-41538152D01*
X43566666Y-41538152D02*
X43614285Y-41633390D01*
X43614285Y-41633390D02*
X43661904Y-41681009D01*
X43661904Y-41681009D02*
X43757142Y-41728628D01*
X43757142Y-41728628D02*
X44138094Y-41728628D01*
X43090475Y-42204819D02*
X42899999Y-42204819D01*
X42899999Y-42204819D02*
X42804761Y-42157200D01*
X42804761Y-42157200D02*
X42757142Y-42109580D01*
X42757142Y-42109580D02*
X42661904Y-41966723D01*
X42661904Y-41966723D02*
X42614285Y-41776247D01*
X42614285Y-41776247D02*
X42614285Y-41395295D01*
X42614285Y-41395295D02*
X42661904Y-41300057D01*
X42661904Y-41300057D02*
X42709523Y-41252438D01*
X42709523Y-41252438D02*
X42804761Y-41204819D01*
X42804761Y-41204819D02*
X42995237Y-41204819D01*
X42995237Y-41204819D02*
X43090475Y-41252438D01*
X43090475Y-41252438D02*
X43138094Y-41300057D01*
X43138094Y-41300057D02*
X43185713Y-41395295D01*
X43185713Y-41395295D02*
X43185713Y-41633390D01*
X43185713Y-41633390D02*
X43138094Y-41728628D01*
X43138094Y-41728628D02*
X43090475Y-41776247D01*
X43090475Y-41776247D02*
X42995237Y-41823866D01*
X42995237Y-41823866D02*
X42804761Y-41823866D01*
X42804761Y-41823866D02*
X42709523Y-41776247D01*
X42709523Y-41776247D02*
X42661904Y-41728628D01*
X42661904Y-41728628D02*
X42614285Y-41633390D01*
X32911904Y-21004819D02*
X32911904Y-21814342D01*
X32911904Y-21814342D02*
X32864285Y-21909580D01*
X32864285Y-21909580D02*
X32816666Y-21957200D01*
X32816666Y-21957200D02*
X32721428Y-22004819D01*
X32721428Y-22004819D02*
X32530952Y-22004819D01*
X32530952Y-22004819D02*
X32435714Y-21957200D01*
X32435714Y-21957200D02*
X32388095Y-21909580D01*
X32388095Y-21909580D02*
X32340476Y-21814342D01*
X32340476Y-21814342D02*
X32340476Y-21004819D01*
X31959523Y-21004819D02*
X31340476Y-21004819D01*
X31340476Y-21004819D02*
X31673809Y-21385771D01*
X31673809Y-21385771D02*
X31530952Y-21385771D01*
X31530952Y-21385771D02*
X31435714Y-21433390D01*
X31435714Y-21433390D02*
X31388095Y-21481009D01*
X31388095Y-21481009D02*
X31340476Y-21576247D01*
X31340476Y-21576247D02*
X31340476Y-21814342D01*
X31340476Y-21814342D02*
X31388095Y-21909580D01*
X31388095Y-21909580D02*
X31435714Y-21957200D01*
X31435714Y-21957200D02*
X31530952Y-22004819D01*
X31530952Y-22004819D02*
X31816666Y-22004819D01*
X31816666Y-22004819D02*
X31911904Y-21957200D01*
X31911904Y-21957200D02*
X31959523Y-21909580D01*
X30361904Y-28704819D02*
X30361904Y-29514342D01*
X30361904Y-29514342D02*
X30314285Y-29609580D01*
X30314285Y-29609580D02*
X30266666Y-29657200D01*
X30266666Y-29657200D02*
X30171428Y-29704819D01*
X30171428Y-29704819D02*
X29980952Y-29704819D01*
X29980952Y-29704819D02*
X29885714Y-29657200D01*
X29885714Y-29657200D02*
X29838095Y-29609580D01*
X29838095Y-29609580D02*
X29790476Y-29514342D01*
X29790476Y-29514342D02*
X29790476Y-28704819D01*
X28885714Y-29038152D02*
X28885714Y-29704819D01*
X29123809Y-28657200D02*
X29361904Y-29371485D01*
X29361904Y-29371485D02*
X28742857Y-29371485D01*
X30621904Y-45574819D02*
X30050476Y-45574819D01*
X30336190Y-46574819D02*
X30336190Y-45574819D01*
X29717142Y-46574819D02*
X29717142Y-45574819D01*
X29717142Y-45574819D02*
X29336190Y-45574819D01*
X29336190Y-45574819D02*
X29240952Y-45622438D01*
X29240952Y-45622438D02*
X29193333Y-45670057D01*
X29193333Y-45670057D02*
X29145714Y-45765295D01*
X29145714Y-45765295D02*
X29145714Y-45908152D01*
X29145714Y-45908152D02*
X29193333Y-46003390D01*
X29193333Y-46003390D02*
X29240952Y-46051009D01*
X29240952Y-46051009D02*
X29336190Y-46098628D01*
X29336190Y-46098628D02*
X29717142Y-46098628D01*
X28288571Y-45908152D02*
X28288571Y-46574819D01*
X28526666Y-45527200D02*
X28764761Y-46241485D01*
X28764761Y-46241485D02*
X28145714Y-46241485D01*
X36909580Y-40557142D02*
X36957200Y-40509523D01*
X36957200Y-40509523D02*
X37004819Y-40366666D01*
X37004819Y-40366666D02*
X37004819Y-40271428D01*
X37004819Y-40271428D02*
X36957200Y-40128571D01*
X36957200Y-40128571D02*
X36861961Y-40033333D01*
X36861961Y-40033333D02*
X36766723Y-39985714D01*
X36766723Y-39985714D02*
X36576247Y-39938095D01*
X36576247Y-39938095D02*
X36433390Y-39938095D01*
X36433390Y-39938095D02*
X36242914Y-39985714D01*
X36242914Y-39985714D02*
X36147676Y-40033333D01*
X36147676Y-40033333D02*
X36052438Y-40128571D01*
X36052438Y-40128571D02*
X36004819Y-40271428D01*
X36004819Y-40271428D02*
X36004819Y-40366666D01*
X36004819Y-40366666D02*
X36052438Y-40509523D01*
X36052438Y-40509523D02*
X36100057Y-40557142D01*
X36100057Y-40938095D02*
X36052438Y-40985714D01*
X36052438Y-40985714D02*
X36004819Y-41080952D01*
X36004819Y-41080952D02*
X36004819Y-41319047D01*
X36004819Y-41319047D02*
X36052438Y-41414285D01*
X36052438Y-41414285D02*
X36100057Y-41461904D01*
X36100057Y-41461904D02*
X36195295Y-41509523D01*
X36195295Y-41509523D02*
X36290533Y-41509523D01*
X36290533Y-41509523D02*
X36433390Y-41461904D01*
X36433390Y-41461904D02*
X37004819Y-40890476D01*
X37004819Y-40890476D02*
X37004819Y-41509523D01*
X36004819Y-41842857D02*
X36004819Y-42461904D01*
X36004819Y-42461904D02*
X36385771Y-42128571D01*
X36385771Y-42128571D02*
X36385771Y-42271428D01*
X36385771Y-42271428D02*
X36433390Y-42366666D01*
X36433390Y-42366666D02*
X36481009Y-42414285D01*
X36481009Y-42414285D02*
X36576247Y-42461904D01*
X36576247Y-42461904D02*
X36814342Y-42461904D01*
X36814342Y-42461904D02*
X36909580Y-42414285D01*
X36909580Y-42414285D02*
X36957200Y-42366666D01*
X36957200Y-42366666D02*
X37004819Y-42271428D01*
X37004819Y-42271428D02*
X37004819Y-41985714D01*
X37004819Y-41985714D02*
X36957200Y-41890476D01*
X36957200Y-41890476D02*
X36909580Y-41842857D01*
X42209580Y-28883333D02*
X42257200Y-28835714D01*
X42257200Y-28835714D02*
X42304819Y-28692857D01*
X42304819Y-28692857D02*
X42304819Y-28597619D01*
X42304819Y-28597619D02*
X42257200Y-28454762D01*
X42257200Y-28454762D02*
X42161961Y-28359524D01*
X42161961Y-28359524D02*
X42066723Y-28311905D01*
X42066723Y-28311905D02*
X41876247Y-28264286D01*
X41876247Y-28264286D02*
X41733390Y-28264286D01*
X41733390Y-28264286D02*
X41542914Y-28311905D01*
X41542914Y-28311905D02*
X41447676Y-28359524D01*
X41447676Y-28359524D02*
X41352438Y-28454762D01*
X41352438Y-28454762D02*
X41304819Y-28597619D01*
X41304819Y-28597619D02*
X41304819Y-28692857D01*
X41304819Y-28692857D02*
X41352438Y-28835714D01*
X41352438Y-28835714D02*
X41400057Y-28883333D01*
X41638152Y-29740476D02*
X42304819Y-29740476D01*
X41257200Y-29502381D02*
X41971485Y-29264286D01*
X41971485Y-29264286D02*
X41971485Y-29883333D01*
X35666666Y-36309580D02*
X35714285Y-36357200D01*
X35714285Y-36357200D02*
X35857142Y-36404819D01*
X35857142Y-36404819D02*
X35952380Y-36404819D01*
X35952380Y-36404819D02*
X36095237Y-36357200D01*
X36095237Y-36357200D02*
X36190475Y-36261961D01*
X36190475Y-36261961D02*
X36238094Y-36166723D01*
X36238094Y-36166723D02*
X36285713Y-35976247D01*
X36285713Y-35976247D02*
X36285713Y-35833390D01*
X36285713Y-35833390D02*
X36238094Y-35642914D01*
X36238094Y-35642914D02*
X36190475Y-35547676D01*
X36190475Y-35547676D02*
X36095237Y-35452438D01*
X36095237Y-35452438D02*
X35952380Y-35404819D01*
X35952380Y-35404819D02*
X35857142Y-35404819D01*
X35857142Y-35404819D02*
X35714285Y-35452438D01*
X35714285Y-35452438D02*
X35666666Y-35500057D01*
X34714285Y-36404819D02*
X35285713Y-36404819D01*
X34999999Y-36404819D02*
X34999999Y-35404819D01*
X34999999Y-35404819D02*
X35095237Y-35547676D01*
X35095237Y-35547676D02*
X35190475Y-35642914D01*
X35190475Y-35642914D02*
X35285713Y-35690533D01*
X22292857Y-32104819D02*
X22626190Y-31628628D01*
X22864285Y-32104819D02*
X22864285Y-31104819D01*
X22864285Y-31104819D02*
X22483333Y-31104819D01*
X22483333Y-31104819D02*
X22388095Y-31152438D01*
X22388095Y-31152438D02*
X22340476Y-31200057D01*
X22340476Y-31200057D02*
X22292857Y-31295295D01*
X22292857Y-31295295D02*
X22292857Y-31438152D01*
X22292857Y-31438152D02*
X22340476Y-31533390D01*
X22340476Y-31533390D02*
X22388095Y-31581009D01*
X22388095Y-31581009D02*
X22483333Y-31628628D01*
X22483333Y-31628628D02*
X22864285Y-31628628D01*
X21340476Y-32104819D02*
X21911904Y-32104819D01*
X21626190Y-32104819D02*
X21626190Y-31104819D01*
X21626190Y-31104819D02*
X21721428Y-31247676D01*
X21721428Y-31247676D02*
X21816666Y-31342914D01*
X21816666Y-31342914D02*
X21911904Y-31390533D01*
X20388095Y-32104819D02*
X20959523Y-32104819D01*
X20673809Y-32104819D02*
X20673809Y-31104819D01*
X20673809Y-31104819D02*
X20769047Y-31247676D01*
X20769047Y-31247676D02*
X20864285Y-31342914D01*
X20864285Y-31342914D02*
X20959523Y-31390533D01*
X27761904Y-45654819D02*
X27190476Y-45654819D01*
X27476190Y-46654819D02*
X27476190Y-45654819D01*
X26857142Y-46654819D02*
X26857142Y-45654819D01*
X26857142Y-45654819D02*
X26476190Y-45654819D01*
X26476190Y-45654819D02*
X26380952Y-45702438D01*
X26380952Y-45702438D02*
X26333333Y-45750057D01*
X26333333Y-45750057D02*
X26285714Y-45845295D01*
X26285714Y-45845295D02*
X26285714Y-45988152D01*
X26285714Y-45988152D02*
X26333333Y-46083390D01*
X26333333Y-46083390D02*
X26380952Y-46131009D01*
X26380952Y-46131009D02*
X26476190Y-46178628D01*
X26476190Y-46178628D02*
X26857142Y-46178628D01*
X25952380Y-45654819D02*
X25333333Y-45654819D01*
X25333333Y-45654819D02*
X25666666Y-46035771D01*
X25666666Y-46035771D02*
X25523809Y-46035771D01*
X25523809Y-46035771D02*
X25428571Y-46083390D01*
X25428571Y-46083390D02*
X25380952Y-46131009D01*
X25380952Y-46131009D02*
X25333333Y-46226247D01*
X25333333Y-46226247D02*
X25333333Y-46464342D01*
X25333333Y-46464342D02*
X25380952Y-46559580D01*
X25380952Y-46559580D02*
X25428571Y-46607200D01*
X25428571Y-46607200D02*
X25523809Y-46654819D01*
X25523809Y-46654819D02*
X25809523Y-46654819D01*
X25809523Y-46654819D02*
X25904761Y-46607200D01*
X25904761Y-46607200D02*
X25952380Y-46559580D01*
X31526190Y-41178628D02*
X31526190Y-41654819D01*
X31859523Y-40654819D02*
X31526190Y-41178628D01*
X31526190Y-41178628D02*
X31192857Y-40654819D01*
X30335714Y-41654819D02*
X30907142Y-41654819D01*
X30621428Y-41654819D02*
X30621428Y-40654819D01*
X30621428Y-40654819D02*
X30716666Y-40797676D01*
X30716666Y-40797676D02*
X30811904Y-40892914D01*
X30811904Y-40892914D02*
X30907142Y-40940533D01*
X37859580Y-23457142D02*
X37907200Y-23409523D01*
X37907200Y-23409523D02*
X37954819Y-23266666D01*
X37954819Y-23266666D02*
X37954819Y-23171428D01*
X37954819Y-23171428D02*
X37907200Y-23028571D01*
X37907200Y-23028571D02*
X37811961Y-22933333D01*
X37811961Y-22933333D02*
X37716723Y-22885714D01*
X37716723Y-22885714D02*
X37526247Y-22838095D01*
X37526247Y-22838095D02*
X37383390Y-22838095D01*
X37383390Y-22838095D02*
X37192914Y-22885714D01*
X37192914Y-22885714D02*
X37097676Y-22933333D01*
X37097676Y-22933333D02*
X37002438Y-23028571D01*
X37002438Y-23028571D02*
X36954819Y-23171428D01*
X36954819Y-23171428D02*
X36954819Y-23266666D01*
X36954819Y-23266666D02*
X37002438Y-23409523D01*
X37002438Y-23409523D02*
X37050057Y-23457142D01*
X37954819Y-24409523D02*
X37954819Y-23838095D01*
X37954819Y-24123809D02*
X36954819Y-24123809D01*
X36954819Y-24123809D02*
X37097676Y-24028571D01*
X37097676Y-24028571D02*
X37192914Y-23933333D01*
X37192914Y-23933333D02*
X37240533Y-23838095D01*
X37288152Y-25266666D02*
X37954819Y-25266666D01*
X36907200Y-25028571D02*
X37621485Y-24790476D01*
X37621485Y-24790476D02*
X37621485Y-25409523D01*
X44126666Y-34999580D02*
X44174285Y-35047200D01*
X44174285Y-35047200D02*
X44317142Y-35094819D01*
X44317142Y-35094819D02*
X44412380Y-35094819D01*
X44412380Y-35094819D02*
X44555237Y-35047200D01*
X44555237Y-35047200D02*
X44650475Y-34951961D01*
X44650475Y-34951961D02*
X44698094Y-34856723D01*
X44698094Y-34856723D02*
X44745713Y-34666247D01*
X44745713Y-34666247D02*
X44745713Y-34523390D01*
X44745713Y-34523390D02*
X44698094Y-34332914D01*
X44698094Y-34332914D02*
X44650475Y-34237676D01*
X44650475Y-34237676D02*
X44555237Y-34142438D01*
X44555237Y-34142438D02*
X44412380Y-34094819D01*
X44412380Y-34094819D02*
X44317142Y-34094819D01*
X44317142Y-34094819D02*
X44174285Y-34142438D01*
X44174285Y-34142438D02*
X44126666Y-34190057D01*
X43126666Y-35094819D02*
X43459999Y-34618628D01*
X43698094Y-35094819D02*
X43698094Y-34094819D01*
X43698094Y-34094819D02*
X43317142Y-34094819D01*
X43317142Y-34094819D02*
X43221904Y-34142438D01*
X43221904Y-34142438D02*
X43174285Y-34190057D01*
X43174285Y-34190057D02*
X43126666Y-34285295D01*
X43126666Y-34285295D02*
X43126666Y-34428152D01*
X43126666Y-34428152D02*
X43174285Y-34523390D01*
X43174285Y-34523390D02*
X43221904Y-34571009D01*
X43221904Y-34571009D02*
X43317142Y-34618628D01*
X43317142Y-34618628D02*
X43698094Y-34618628D01*
X42174285Y-35094819D02*
X42745713Y-35094819D01*
X42459999Y-35094819D02*
X42459999Y-34094819D01*
X42459999Y-34094819D02*
X42555237Y-34237676D01*
X42555237Y-34237676D02*
X42650475Y-34332914D01*
X42650475Y-34332914D02*
X42745713Y-34380533D01*
X43409580Y-28883333D02*
X43457200Y-28835714D01*
X43457200Y-28835714D02*
X43504819Y-28692857D01*
X43504819Y-28692857D02*
X43504819Y-28597619D01*
X43504819Y-28597619D02*
X43457200Y-28454762D01*
X43457200Y-28454762D02*
X43361961Y-28359524D01*
X43361961Y-28359524D02*
X43266723Y-28311905D01*
X43266723Y-28311905D02*
X43076247Y-28264286D01*
X43076247Y-28264286D02*
X42933390Y-28264286D01*
X42933390Y-28264286D02*
X42742914Y-28311905D01*
X42742914Y-28311905D02*
X42647676Y-28359524D01*
X42647676Y-28359524D02*
X42552438Y-28454762D01*
X42552438Y-28454762D02*
X42504819Y-28597619D01*
X42504819Y-28597619D02*
X42504819Y-28692857D01*
X42504819Y-28692857D02*
X42552438Y-28835714D01*
X42552438Y-28835714D02*
X42600057Y-28883333D01*
X42504819Y-29788095D02*
X42504819Y-29311905D01*
X42504819Y-29311905D02*
X42981009Y-29264286D01*
X42981009Y-29264286D02*
X42933390Y-29311905D01*
X42933390Y-29311905D02*
X42885771Y-29407143D01*
X42885771Y-29407143D02*
X42885771Y-29645238D01*
X42885771Y-29645238D02*
X42933390Y-29740476D01*
X42933390Y-29740476D02*
X42981009Y-29788095D01*
X42981009Y-29788095D02*
X43076247Y-29835714D01*
X43076247Y-29835714D02*
X43314342Y-29835714D01*
X43314342Y-29835714D02*
X43409580Y-29788095D01*
X43409580Y-29788095D02*
X43457200Y-29740476D01*
X43457200Y-29740476D02*
X43504819Y-29645238D01*
X43504819Y-29645238D02*
X43504819Y-29407143D01*
X43504819Y-29407143D02*
X43457200Y-29311905D01*
X43457200Y-29311905D02*
X43409580Y-29264286D01*
X40542857Y-31169580D02*
X40590476Y-31217200D01*
X40590476Y-31217200D02*
X40733333Y-31264819D01*
X40733333Y-31264819D02*
X40828571Y-31264819D01*
X40828571Y-31264819D02*
X40971428Y-31217200D01*
X40971428Y-31217200D02*
X41066666Y-31121961D01*
X41066666Y-31121961D02*
X41114285Y-31026723D01*
X41114285Y-31026723D02*
X41161904Y-30836247D01*
X41161904Y-30836247D02*
X41161904Y-30693390D01*
X41161904Y-30693390D02*
X41114285Y-30502914D01*
X41114285Y-30502914D02*
X41066666Y-30407676D01*
X41066666Y-30407676D02*
X40971428Y-30312438D01*
X40971428Y-30312438D02*
X40828571Y-30264819D01*
X40828571Y-30264819D02*
X40733333Y-30264819D01*
X40733333Y-30264819D02*
X40590476Y-30312438D01*
X40590476Y-30312438D02*
X40542857Y-30360057D01*
X39590476Y-31264819D02*
X40161904Y-31264819D01*
X39876190Y-31264819D02*
X39876190Y-30264819D01*
X39876190Y-30264819D02*
X39971428Y-30407676D01*
X39971428Y-30407676D02*
X40066666Y-30502914D01*
X40066666Y-30502914D02*
X40161904Y-30550533D01*
X39257142Y-30264819D02*
X38638095Y-30264819D01*
X38638095Y-30264819D02*
X38971428Y-30645771D01*
X38971428Y-30645771D02*
X38828571Y-30645771D01*
X38828571Y-30645771D02*
X38733333Y-30693390D01*
X38733333Y-30693390D02*
X38685714Y-30741009D01*
X38685714Y-30741009D02*
X38638095Y-30836247D01*
X38638095Y-30836247D02*
X38638095Y-31074342D01*
X38638095Y-31074342D02*
X38685714Y-31169580D01*
X38685714Y-31169580D02*
X38733333Y-31217200D01*
X38733333Y-31217200D02*
X38828571Y-31264819D01*
X38828571Y-31264819D02*
X39114285Y-31264819D01*
X39114285Y-31264819D02*
X39209523Y-31217200D01*
X39209523Y-31217200D02*
X39257142Y-31169580D01*
X43942857Y-33409580D02*
X43990476Y-33457200D01*
X43990476Y-33457200D02*
X44133333Y-33504819D01*
X44133333Y-33504819D02*
X44228571Y-33504819D01*
X44228571Y-33504819D02*
X44371428Y-33457200D01*
X44371428Y-33457200D02*
X44466666Y-33361961D01*
X44466666Y-33361961D02*
X44514285Y-33266723D01*
X44514285Y-33266723D02*
X44561904Y-33076247D01*
X44561904Y-33076247D02*
X44561904Y-32933390D01*
X44561904Y-32933390D02*
X44514285Y-32742914D01*
X44514285Y-32742914D02*
X44466666Y-32647676D01*
X44466666Y-32647676D02*
X44371428Y-32552438D01*
X44371428Y-32552438D02*
X44228571Y-32504819D01*
X44228571Y-32504819D02*
X44133333Y-32504819D01*
X44133333Y-32504819D02*
X43990476Y-32552438D01*
X43990476Y-32552438D02*
X43942857Y-32600057D01*
X42990476Y-33504819D02*
X43561904Y-33504819D01*
X43276190Y-33504819D02*
X43276190Y-32504819D01*
X43276190Y-32504819D02*
X43371428Y-32647676D01*
X43371428Y-32647676D02*
X43466666Y-32742914D01*
X43466666Y-32742914D02*
X43561904Y-32790533D01*
X42609523Y-32600057D02*
X42561904Y-32552438D01*
X42561904Y-32552438D02*
X42466666Y-32504819D01*
X42466666Y-32504819D02*
X42228571Y-32504819D01*
X42228571Y-32504819D02*
X42133333Y-32552438D01*
X42133333Y-32552438D02*
X42085714Y-32600057D01*
X42085714Y-32600057D02*
X42038095Y-32695295D01*
X42038095Y-32695295D02*
X42038095Y-32790533D01*
X42038095Y-32790533D02*
X42085714Y-32933390D01*
X42085714Y-32933390D02*
X42657142Y-33504819D01*
X42657142Y-33504819D02*
X42038095Y-33504819D01*
X44609580Y-30657142D02*
X44657200Y-30609523D01*
X44657200Y-30609523D02*
X44704819Y-30466666D01*
X44704819Y-30466666D02*
X44704819Y-30371428D01*
X44704819Y-30371428D02*
X44657200Y-30228571D01*
X44657200Y-30228571D02*
X44561961Y-30133333D01*
X44561961Y-30133333D02*
X44466723Y-30085714D01*
X44466723Y-30085714D02*
X44276247Y-30038095D01*
X44276247Y-30038095D02*
X44133390Y-30038095D01*
X44133390Y-30038095D02*
X43942914Y-30085714D01*
X43942914Y-30085714D02*
X43847676Y-30133333D01*
X43847676Y-30133333D02*
X43752438Y-30228571D01*
X43752438Y-30228571D02*
X43704819Y-30371428D01*
X43704819Y-30371428D02*
X43704819Y-30466666D01*
X43704819Y-30466666D02*
X43752438Y-30609523D01*
X43752438Y-30609523D02*
X43800057Y-30657142D01*
X44704819Y-31609523D02*
X44704819Y-31038095D01*
X44704819Y-31323809D02*
X43704819Y-31323809D01*
X43704819Y-31323809D02*
X43847676Y-31228571D01*
X43847676Y-31228571D02*
X43942914Y-31133333D01*
X43942914Y-31133333D02*
X43990533Y-31038095D01*
X44704819Y-32561904D02*
X44704819Y-31990476D01*
X44704819Y-32276190D02*
X43704819Y-32276190D01*
X43704819Y-32276190D02*
X43847676Y-32180952D01*
X43847676Y-32180952D02*
X43942914Y-32085714D01*
X43942914Y-32085714D02*
X43990533Y-31990476D01*
X39716666Y-28199580D02*
X39764285Y-28247200D01*
X39764285Y-28247200D02*
X39907142Y-28294819D01*
X39907142Y-28294819D02*
X40002380Y-28294819D01*
X40002380Y-28294819D02*
X40145237Y-28247200D01*
X40145237Y-28247200D02*
X40240475Y-28151961D01*
X40240475Y-28151961D02*
X40288094Y-28056723D01*
X40288094Y-28056723D02*
X40335713Y-27866247D01*
X40335713Y-27866247D02*
X40335713Y-27723390D01*
X40335713Y-27723390D02*
X40288094Y-27532914D01*
X40288094Y-27532914D02*
X40240475Y-27437676D01*
X40240475Y-27437676D02*
X40145237Y-27342438D01*
X40145237Y-27342438D02*
X40002380Y-27294819D01*
X40002380Y-27294819D02*
X39907142Y-27294819D01*
X39907142Y-27294819D02*
X39764285Y-27342438D01*
X39764285Y-27342438D02*
X39716666Y-27390057D01*
X38859523Y-27294819D02*
X39049999Y-27294819D01*
X39049999Y-27294819D02*
X39145237Y-27342438D01*
X39145237Y-27342438D02*
X39192856Y-27390057D01*
X39192856Y-27390057D02*
X39288094Y-27532914D01*
X39288094Y-27532914D02*
X39335713Y-27723390D01*
X39335713Y-27723390D02*
X39335713Y-28104342D01*
X39335713Y-28104342D02*
X39288094Y-28199580D01*
X39288094Y-28199580D02*
X39240475Y-28247200D01*
X39240475Y-28247200D02*
X39145237Y-28294819D01*
X39145237Y-28294819D02*
X38954761Y-28294819D01*
X38954761Y-28294819D02*
X38859523Y-28247200D01*
X38859523Y-28247200D02*
X38811904Y-28199580D01*
X38811904Y-28199580D02*
X38764285Y-28104342D01*
X38764285Y-28104342D02*
X38764285Y-27866247D01*
X38764285Y-27866247D02*
X38811904Y-27771009D01*
X38811904Y-27771009D02*
X38859523Y-27723390D01*
X38859523Y-27723390D02*
X38954761Y-27675771D01*
X38954761Y-27675771D02*
X39145237Y-27675771D01*
X39145237Y-27675771D02*
X39240475Y-27723390D01*
X39240475Y-27723390D02*
X39288094Y-27771009D01*
X39288094Y-27771009D02*
X39335713Y-27866247D01*
X22316666Y-34504819D02*
X22649999Y-34028628D01*
X22888094Y-34504819D02*
X22888094Y-33504819D01*
X22888094Y-33504819D02*
X22507142Y-33504819D01*
X22507142Y-33504819D02*
X22411904Y-33552438D01*
X22411904Y-33552438D02*
X22364285Y-33600057D01*
X22364285Y-33600057D02*
X22316666Y-33695295D01*
X22316666Y-33695295D02*
X22316666Y-33838152D01*
X22316666Y-33838152D02*
X22364285Y-33933390D01*
X22364285Y-33933390D02*
X22411904Y-33981009D01*
X22411904Y-33981009D02*
X22507142Y-34028628D01*
X22507142Y-34028628D02*
X22888094Y-34028628D01*
X21459523Y-33838152D02*
X21459523Y-34504819D01*
X21697618Y-33457200D02*
X21935713Y-34171485D01*
X21935713Y-34171485D02*
X21316666Y-34171485D01*
X37409580Y-29357142D02*
X37457200Y-29309523D01*
X37457200Y-29309523D02*
X37504819Y-29166666D01*
X37504819Y-29166666D02*
X37504819Y-29071428D01*
X37504819Y-29071428D02*
X37457200Y-28928571D01*
X37457200Y-28928571D02*
X37361961Y-28833333D01*
X37361961Y-28833333D02*
X37266723Y-28785714D01*
X37266723Y-28785714D02*
X37076247Y-28738095D01*
X37076247Y-28738095D02*
X36933390Y-28738095D01*
X36933390Y-28738095D02*
X36742914Y-28785714D01*
X36742914Y-28785714D02*
X36647676Y-28833333D01*
X36647676Y-28833333D02*
X36552438Y-28928571D01*
X36552438Y-28928571D02*
X36504819Y-29071428D01*
X36504819Y-29071428D02*
X36504819Y-29166666D01*
X36504819Y-29166666D02*
X36552438Y-29309523D01*
X36552438Y-29309523D02*
X36600057Y-29357142D01*
X37504819Y-30309523D02*
X37504819Y-29738095D01*
X37504819Y-30023809D02*
X36504819Y-30023809D01*
X36504819Y-30023809D02*
X36647676Y-29928571D01*
X36647676Y-29928571D02*
X36742914Y-29833333D01*
X36742914Y-29833333D02*
X36790533Y-29738095D01*
X36504819Y-30642857D02*
X36504819Y-31309523D01*
X36504819Y-31309523D02*
X37504819Y-30880952D01*
D17*
%TO.C,C20*%
X29690000Y-38857836D02*
X29690000Y-38642164D01*
X30410000Y-38857836D02*
X30410000Y-38642164D01*
%TO.C,C21*%
X33142164Y-40590000D02*
X33357836Y-40590000D01*
X33142164Y-41310000D02*
X33357836Y-41310000D01*
%TO.C,C2*%
X31792164Y-28040000D02*
X32007836Y-28040000D01*
X31792164Y-28760000D02*
X32007836Y-28760000D01*
%TO.C,R10*%
X24153641Y-35280000D02*
X23846359Y-35280000D01*
X24153641Y-34520000D02*
X23846359Y-34520000D01*
%TO.C,R5*%
X23846359Y-32520000D02*
X24153641Y-32520000D01*
X23846359Y-33280000D02*
X24153641Y-33280000D01*
%TO.C,C24*%
X40892164Y-33240000D02*
X41107836Y-33240000D01*
X40892164Y-33960000D02*
X41107836Y-33960000D01*
%TO.C,C10*%
X41661252Y-39585000D02*
X41138748Y-39585000D01*
X41661252Y-38115000D02*
X41138748Y-38115000D01*
%TO.C,R7*%
X34870000Y-38903641D02*
X34870000Y-38596359D01*
X35630000Y-38903641D02*
X35630000Y-38596359D01*
%TO.C,C3*%
X44410000Y-27092164D02*
X44410000Y-27307836D01*
X43690000Y-27092164D02*
X43690000Y-27307836D01*
%TO.C,R9*%
X43020000Y-43503641D02*
X43020000Y-43196359D01*
X43780000Y-43503641D02*
X43780000Y-43196359D01*
%TO.C,U3*%
X29425000Y-22325000D02*
X29425000Y-22585000D01*
X29425000Y-27515000D02*
X27750000Y-27515000D01*
X29425000Y-27775000D02*
X29425000Y-27515000D01*
X32150000Y-22325000D02*
X29425000Y-22325000D01*
X32150000Y-22325000D02*
X34875000Y-22325000D01*
X32150000Y-27775000D02*
X29425000Y-27775000D01*
X32150000Y-27775000D02*
X34875000Y-27775000D01*
X34875000Y-22325000D02*
X34875000Y-22585000D01*
X34875000Y-27775000D02*
X34875000Y-27515000D01*
%TO.C,U4*%
X32500000Y-35060000D02*
X34450000Y-35060000D01*
X32500000Y-35060000D02*
X30550000Y-35060000D01*
X32500000Y-29940000D02*
X35950000Y-29940000D01*
X32500000Y-29940000D02*
X30550000Y-29940000D01*
%TO.C,TP4*%
X30150000Y-42850000D02*
G75*
G03*
X30150000Y-42850000I-700000J0D01*
G01*
%TO.C,C23*%
X37992164Y-40840000D02*
X38207836Y-40840000D01*
X37992164Y-41560000D02*
X38207836Y-41560000D01*
%TO.C,C4*%
X42310000Y-27092164D02*
X42310000Y-27307836D01*
X41590000Y-27092164D02*
X41590000Y-27307836D01*
%TO.C,C1*%
X33757836Y-36310000D02*
X33542164Y-36310000D01*
X33757836Y-35590000D02*
X33542164Y-35590000D01*
%TO.C,R11*%
X24153641Y-32280000D02*
X23846359Y-32280000D01*
X24153641Y-31520000D02*
X23846359Y-31520000D01*
%TO.C,TP3*%
X28150000Y-42850000D02*
G75*
G03*
X28150000Y-42850000I-700000J0D01*
G01*
%TO.C,Y1*%
X34650000Y-40400000D02*
X30650000Y-40400000D01*
X34650000Y-37100000D02*
X34650000Y-40400000D01*
%TO.C,C14*%
X36940000Y-26557836D02*
X36940000Y-26342164D01*
X37660000Y-26557836D02*
X37660000Y-26342164D01*
%TO.C,CR1*%
X42000000Y-34290000D02*
X41350000Y-34290000D01*
X42000000Y-34290000D02*
X42650000Y-34290000D01*
X42000000Y-37410000D02*
X40325000Y-37410000D01*
X42000000Y-37410000D02*
X42650000Y-37410000D01*
%TO.C,C5*%
X43360000Y-27092164D02*
X43360000Y-27307836D01*
X42640000Y-27092164D02*
X42640000Y-27307836D01*
%TO.C,C13*%
X39792164Y-29290000D02*
X40007836Y-29290000D01*
X39792164Y-30010000D02*
X40007836Y-30010000D01*
%TO.C,C12*%
X42210000Y-31142164D02*
X42210000Y-31357836D01*
X41490000Y-31142164D02*
X41490000Y-31357836D01*
%TO.C,C11*%
X43410000Y-31142164D02*
X43410000Y-31357836D01*
X42690000Y-31142164D02*
X42690000Y-31357836D01*
%TO.C,C6*%
X40540000Y-27092164D02*
X40540000Y-27307836D01*
X41260000Y-27092164D02*
X41260000Y-27307836D01*
%TO.C,R4*%
X24153641Y-34280000D02*
X23846359Y-34280000D01*
X24153641Y-33520000D02*
X23846359Y-33520000D01*
%TO.C,C17*%
X37110000Y-32242164D02*
X37110000Y-32457836D01*
X36390000Y-32242164D02*
X36390000Y-32457836D01*
%TD*%
M02*
