%TF.GenerationSoftware,KiCad,Pcbnew,7.0.7*%
%TF.CreationDate,2024-03-07T17:34:28-08:00*%
%TF.ProjectId,magn_angle_sensor_v2,6d61676e-5f61-46e6-976c-655f73656e73,rev?*%
%TF.SameCoordinates,Original*%
%TF.FileFunction,Drillmap*%
%TF.FilePolarity,Positive*%
%FSLAX45Y45*%
G04 Gerber Fmt 4.5, Leading zero omitted, Abs format (unit mm)*
G04 Created by KiCad (PCBNEW 7.0.7) date 2024-03-07 17:34:28*
%MOMM*%
%LPD*%
G01*
G04 APERTURE LIST*
%ADD10C,0.100000*%
%ADD11C,0.200000*%
%ADD12C,0.065000*%
G04 APERTURE END LIST*
D10*
X4500000Y-4200000D02*
X4500000Y-2300000D01*
X4500000Y-2300000D02*
G75*
G03*
X4200000Y-2000000I-300000J0D01*
G01*
X4200000Y-2000000D02*
X2300000Y-2000000D01*
X2300000Y-4500000D02*
X4200000Y-4500000D01*
X2300000Y-2000000D02*
G75*
G03*
X2000000Y-2300000I0J-300000D01*
G01*
X2000000Y-2300000D02*
X2000000Y-4200000D01*
X4200000Y-4500000D02*
G75*
G03*
X4500000Y-4200000I0J300000D01*
G01*
X2000000Y-4200000D02*
G75*
G03*
X2300000Y-4500000I300000J0D01*
G01*
D11*
D12*
X2480500Y-3011500D02*
X2545500Y-3076500D01*
X2545500Y-3011500D02*
X2480500Y-3076500D01*
X2480500Y-3589500D02*
X2545500Y-3654500D01*
X2545500Y-3589500D02*
X2480500Y-3654500D01*
D11*
X2255777Y-4816484D02*
X2255777Y-4616484D01*
X2255777Y-4616484D02*
X2303396Y-4616484D01*
X2303396Y-4616484D02*
X2331967Y-4626008D01*
X2331967Y-4626008D02*
X2351015Y-4645055D01*
X2351015Y-4645055D02*
X2360539Y-4664103D01*
X2360539Y-4664103D02*
X2370063Y-4702198D01*
X2370063Y-4702198D02*
X2370063Y-4730770D01*
X2370063Y-4730770D02*
X2360539Y-4768865D01*
X2360539Y-4768865D02*
X2351015Y-4787912D01*
X2351015Y-4787912D02*
X2331967Y-4806960D01*
X2331967Y-4806960D02*
X2303396Y-4816484D01*
X2303396Y-4816484D02*
X2255777Y-4816484D01*
X2455777Y-4816484D02*
X2455777Y-4683150D01*
X2455777Y-4721246D02*
X2465301Y-4702198D01*
X2465301Y-4702198D02*
X2474824Y-4692674D01*
X2474824Y-4692674D02*
X2493872Y-4683150D01*
X2493872Y-4683150D02*
X2512920Y-4683150D01*
X2579586Y-4816484D02*
X2579586Y-4683150D01*
X2579586Y-4616484D02*
X2570063Y-4626008D01*
X2570063Y-4626008D02*
X2579586Y-4635531D01*
X2579586Y-4635531D02*
X2589110Y-4626008D01*
X2589110Y-4626008D02*
X2579586Y-4616484D01*
X2579586Y-4616484D02*
X2579586Y-4635531D01*
X2703396Y-4816484D02*
X2684348Y-4806960D01*
X2684348Y-4806960D02*
X2674824Y-4787912D01*
X2674824Y-4787912D02*
X2674824Y-4616484D01*
X2808158Y-4816484D02*
X2789110Y-4806960D01*
X2789110Y-4806960D02*
X2779586Y-4787912D01*
X2779586Y-4787912D02*
X2779586Y-4616484D01*
X3036729Y-4816484D02*
X3036729Y-4616484D01*
X3036729Y-4616484D02*
X3103396Y-4759341D01*
X3103396Y-4759341D02*
X3170062Y-4616484D01*
X3170062Y-4616484D02*
X3170062Y-4816484D01*
X3351015Y-4816484D02*
X3351015Y-4711722D01*
X3351015Y-4711722D02*
X3341491Y-4692674D01*
X3341491Y-4692674D02*
X3322443Y-4683150D01*
X3322443Y-4683150D02*
X3284348Y-4683150D01*
X3284348Y-4683150D02*
X3265301Y-4692674D01*
X3351015Y-4806960D02*
X3331967Y-4816484D01*
X3331967Y-4816484D02*
X3284348Y-4816484D01*
X3284348Y-4816484D02*
X3265301Y-4806960D01*
X3265301Y-4806960D02*
X3255777Y-4787912D01*
X3255777Y-4787912D02*
X3255777Y-4768865D01*
X3255777Y-4768865D02*
X3265301Y-4749817D01*
X3265301Y-4749817D02*
X3284348Y-4740293D01*
X3284348Y-4740293D02*
X3331967Y-4740293D01*
X3331967Y-4740293D02*
X3351015Y-4730770D01*
X3446253Y-4683150D02*
X3446253Y-4883150D01*
X3446253Y-4692674D02*
X3465301Y-4683150D01*
X3465301Y-4683150D02*
X3503396Y-4683150D01*
X3503396Y-4683150D02*
X3522443Y-4692674D01*
X3522443Y-4692674D02*
X3531967Y-4702198D01*
X3531967Y-4702198D02*
X3541491Y-4721246D01*
X3541491Y-4721246D02*
X3541491Y-4778389D01*
X3541491Y-4778389D02*
X3531967Y-4797436D01*
X3531967Y-4797436D02*
X3522443Y-4806960D01*
X3522443Y-4806960D02*
X3503396Y-4816484D01*
X3503396Y-4816484D02*
X3465301Y-4816484D01*
X3465301Y-4816484D02*
X3446253Y-4806960D01*
X3627205Y-4797436D02*
X3636729Y-4806960D01*
X3636729Y-4806960D02*
X3627205Y-4816484D01*
X3627205Y-4816484D02*
X3617682Y-4806960D01*
X3617682Y-4806960D02*
X3627205Y-4797436D01*
X3627205Y-4797436D02*
X3627205Y-4816484D01*
X3627205Y-4692674D02*
X3636729Y-4702198D01*
X3636729Y-4702198D02*
X3627205Y-4711722D01*
X3627205Y-4711722D02*
X3617682Y-4702198D01*
X3617682Y-4702198D02*
X3627205Y-4692674D01*
X3627205Y-4692674D02*
X3627205Y-4711722D01*
D12*
X1930000Y-5112500D02*
X1995000Y-5177500D01*
X1995000Y-5112500D02*
X1930000Y-5177500D01*
D11*
X2293872Y-5036484D02*
X2312920Y-5036484D01*
X2312920Y-5036484D02*
X2331967Y-5046008D01*
X2331967Y-5046008D02*
X2341491Y-5055531D01*
X2341491Y-5055531D02*
X2351015Y-5074579D01*
X2351015Y-5074579D02*
X2360539Y-5112674D01*
X2360539Y-5112674D02*
X2360539Y-5160293D01*
X2360539Y-5160293D02*
X2351015Y-5198389D01*
X2351015Y-5198389D02*
X2341491Y-5217436D01*
X2341491Y-5217436D02*
X2331967Y-5226960D01*
X2331967Y-5226960D02*
X2312920Y-5236484D01*
X2312920Y-5236484D02*
X2293872Y-5236484D01*
X2293872Y-5236484D02*
X2274824Y-5226960D01*
X2274824Y-5226960D02*
X2265301Y-5217436D01*
X2265301Y-5217436D02*
X2255777Y-5198389D01*
X2255777Y-5198389D02*
X2246253Y-5160293D01*
X2246253Y-5160293D02*
X2246253Y-5112674D01*
X2246253Y-5112674D02*
X2255777Y-5074579D01*
X2255777Y-5074579D02*
X2265301Y-5055531D01*
X2265301Y-5055531D02*
X2274824Y-5046008D01*
X2274824Y-5046008D02*
X2293872Y-5036484D01*
X2446253Y-5217436D02*
X2455777Y-5226960D01*
X2455777Y-5226960D02*
X2446253Y-5236484D01*
X2446253Y-5236484D02*
X2436729Y-5226960D01*
X2436729Y-5226960D02*
X2446253Y-5217436D01*
X2446253Y-5217436D02*
X2446253Y-5236484D01*
X2627205Y-5036484D02*
X2589110Y-5036484D01*
X2589110Y-5036484D02*
X2570063Y-5046008D01*
X2570063Y-5046008D02*
X2560539Y-5055531D01*
X2560539Y-5055531D02*
X2541491Y-5084103D01*
X2541491Y-5084103D02*
X2531967Y-5122198D01*
X2531967Y-5122198D02*
X2531967Y-5198389D01*
X2531967Y-5198389D02*
X2541491Y-5217436D01*
X2541491Y-5217436D02*
X2551015Y-5226960D01*
X2551015Y-5226960D02*
X2570063Y-5236484D01*
X2570063Y-5236484D02*
X2608158Y-5236484D01*
X2608158Y-5236484D02*
X2627205Y-5226960D01*
X2627205Y-5226960D02*
X2636729Y-5217436D01*
X2636729Y-5217436D02*
X2646253Y-5198389D01*
X2646253Y-5198389D02*
X2646253Y-5150770D01*
X2646253Y-5150770D02*
X2636729Y-5131722D01*
X2636729Y-5131722D02*
X2627205Y-5122198D01*
X2627205Y-5122198D02*
X2608158Y-5112674D01*
X2608158Y-5112674D02*
X2570063Y-5112674D01*
X2570063Y-5112674D02*
X2551015Y-5122198D01*
X2551015Y-5122198D02*
X2541491Y-5131722D01*
X2541491Y-5131722D02*
X2531967Y-5150770D01*
X2827205Y-5036484D02*
X2731967Y-5036484D01*
X2731967Y-5036484D02*
X2722444Y-5131722D01*
X2722444Y-5131722D02*
X2731967Y-5122198D01*
X2731967Y-5122198D02*
X2751015Y-5112674D01*
X2751015Y-5112674D02*
X2798634Y-5112674D01*
X2798634Y-5112674D02*
X2817682Y-5122198D01*
X2817682Y-5122198D02*
X2827205Y-5131722D01*
X2827205Y-5131722D02*
X2836729Y-5150770D01*
X2836729Y-5150770D02*
X2836729Y-5198389D01*
X2836729Y-5198389D02*
X2827205Y-5217436D01*
X2827205Y-5217436D02*
X2817682Y-5226960D01*
X2817682Y-5226960D02*
X2798634Y-5236484D01*
X2798634Y-5236484D02*
X2751015Y-5236484D01*
X2751015Y-5236484D02*
X2731967Y-5226960D01*
X2731967Y-5226960D02*
X2722444Y-5217436D01*
X2960539Y-5036484D02*
X2979586Y-5036484D01*
X2979586Y-5036484D02*
X2998634Y-5046008D01*
X2998634Y-5046008D02*
X3008158Y-5055531D01*
X3008158Y-5055531D02*
X3017682Y-5074579D01*
X3017682Y-5074579D02*
X3027205Y-5112674D01*
X3027205Y-5112674D02*
X3027205Y-5160293D01*
X3027205Y-5160293D02*
X3017682Y-5198389D01*
X3017682Y-5198389D02*
X3008158Y-5217436D01*
X3008158Y-5217436D02*
X2998634Y-5226960D01*
X2998634Y-5226960D02*
X2979586Y-5236484D01*
X2979586Y-5236484D02*
X2960539Y-5236484D01*
X2960539Y-5236484D02*
X2941491Y-5226960D01*
X2941491Y-5226960D02*
X2931967Y-5217436D01*
X2931967Y-5217436D02*
X2922443Y-5198389D01*
X2922443Y-5198389D02*
X2912920Y-5160293D01*
X2912920Y-5160293D02*
X2912920Y-5112674D01*
X2912920Y-5112674D02*
X2922443Y-5074579D01*
X2922443Y-5074579D02*
X2931967Y-5055531D01*
X2931967Y-5055531D02*
X2941491Y-5046008D01*
X2941491Y-5046008D02*
X2960539Y-5036484D01*
X3112920Y-5236484D02*
X3112920Y-5103150D01*
X3112920Y-5122198D02*
X3122443Y-5112674D01*
X3122443Y-5112674D02*
X3141491Y-5103150D01*
X3141491Y-5103150D02*
X3170063Y-5103150D01*
X3170063Y-5103150D02*
X3189110Y-5112674D01*
X3189110Y-5112674D02*
X3198634Y-5131722D01*
X3198634Y-5131722D02*
X3198634Y-5236484D01*
X3198634Y-5131722D02*
X3208158Y-5112674D01*
X3208158Y-5112674D02*
X3227205Y-5103150D01*
X3227205Y-5103150D02*
X3255777Y-5103150D01*
X3255777Y-5103150D02*
X3274824Y-5112674D01*
X3274824Y-5112674D02*
X3284348Y-5131722D01*
X3284348Y-5131722D02*
X3284348Y-5236484D01*
X3379586Y-5236484D02*
X3379586Y-5103150D01*
X3379586Y-5122198D02*
X3389110Y-5112674D01*
X3389110Y-5112674D02*
X3408158Y-5103150D01*
X3408158Y-5103150D02*
X3436729Y-5103150D01*
X3436729Y-5103150D02*
X3455777Y-5112674D01*
X3455777Y-5112674D02*
X3465301Y-5131722D01*
X3465301Y-5131722D02*
X3465301Y-5236484D01*
X3465301Y-5131722D02*
X3474824Y-5112674D01*
X3474824Y-5112674D02*
X3493872Y-5103150D01*
X3493872Y-5103150D02*
X3522443Y-5103150D01*
X3522443Y-5103150D02*
X3541491Y-5112674D01*
X3541491Y-5112674D02*
X3551015Y-5131722D01*
X3551015Y-5131722D02*
X3551015Y-5236484D01*
X3941491Y-5026960D02*
X3770063Y-5284103D01*
X4198634Y-5036484D02*
X4217682Y-5036484D01*
X4217682Y-5036484D02*
X4236729Y-5046008D01*
X4236729Y-5046008D02*
X4246253Y-5055531D01*
X4246253Y-5055531D02*
X4255777Y-5074579D01*
X4255777Y-5074579D02*
X4265301Y-5112674D01*
X4265301Y-5112674D02*
X4265301Y-5160293D01*
X4265301Y-5160293D02*
X4255777Y-5198389D01*
X4255777Y-5198389D02*
X4246253Y-5217436D01*
X4246253Y-5217436D02*
X4236729Y-5226960D01*
X4236729Y-5226960D02*
X4217682Y-5236484D01*
X4217682Y-5236484D02*
X4198634Y-5236484D01*
X4198634Y-5236484D02*
X4179586Y-5226960D01*
X4179586Y-5226960D02*
X4170063Y-5217436D01*
X4170063Y-5217436D02*
X4160539Y-5198389D01*
X4160539Y-5198389D02*
X4151015Y-5160293D01*
X4151015Y-5160293D02*
X4151015Y-5112674D01*
X4151015Y-5112674D02*
X4160539Y-5074579D01*
X4160539Y-5074579D02*
X4170063Y-5055531D01*
X4170063Y-5055531D02*
X4179586Y-5046008D01*
X4179586Y-5046008D02*
X4198634Y-5036484D01*
X4351015Y-5217436D02*
X4360539Y-5226960D01*
X4360539Y-5226960D02*
X4351015Y-5236484D01*
X4351015Y-5236484D02*
X4341491Y-5226960D01*
X4341491Y-5226960D02*
X4351015Y-5217436D01*
X4351015Y-5217436D02*
X4351015Y-5236484D01*
X4484348Y-5036484D02*
X4503396Y-5036484D01*
X4503396Y-5036484D02*
X4522444Y-5046008D01*
X4522444Y-5046008D02*
X4531968Y-5055531D01*
X4531968Y-5055531D02*
X4541491Y-5074579D01*
X4541491Y-5074579D02*
X4551015Y-5112674D01*
X4551015Y-5112674D02*
X4551015Y-5160293D01*
X4551015Y-5160293D02*
X4541491Y-5198389D01*
X4541491Y-5198389D02*
X4531968Y-5217436D01*
X4531968Y-5217436D02*
X4522444Y-5226960D01*
X4522444Y-5226960D02*
X4503396Y-5236484D01*
X4503396Y-5236484D02*
X4484348Y-5236484D01*
X4484348Y-5236484D02*
X4465301Y-5226960D01*
X4465301Y-5226960D02*
X4455777Y-5217436D01*
X4455777Y-5217436D02*
X4446253Y-5198389D01*
X4446253Y-5198389D02*
X4436729Y-5160293D01*
X4436729Y-5160293D02*
X4436729Y-5112674D01*
X4436729Y-5112674D02*
X4446253Y-5074579D01*
X4446253Y-5074579D02*
X4455777Y-5055531D01*
X4455777Y-5055531D02*
X4465301Y-5046008D01*
X4465301Y-5046008D02*
X4484348Y-5036484D01*
X4627206Y-5055531D02*
X4636729Y-5046008D01*
X4636729Y-5046008D02*
X4655777Y-5036484D01*
X4655777Y-5036484D02*
X4703396Y-5036484D01*
X4703396Y-5036484D02*
X4722444Y-5046008D01*
X4722444Y-5046008D02*
X4731968Y-5055531D01*
X4731968Y-5055531D02*
X4741491Y-5074579D01*
X4741491Y-5074579D02*
X4741491Y-5093627D01*
X4741491Y-5093627D02*
X4731968Y-5122198D01*
X4731968Y-5122198D02*
X4617682Y-5236484D01*
X4617682Y-5236484D02*
X4741491Y-5236484D01*
X4922444Y-5036484D02*
X4827206Y-5036484D01*
X4827206Y-5036484D02*
X4817682Y-5131722D01*
X4817682Y-5131722D02*
X4827206Y-5122198D01*
X4827206Y-5122198D02*
X4846253Y-5112674D01*
X4846253Y-5112674D02*
X4893872Y-5112674D01*
X4893872Y-5112674D02*
X4912920Y-5122198D01*
X4912920Y-5122198D02*
X4922444Y-5131722D01*
X4922444Y-5131722D02*
X4931968Y-5150770D01*
X4931968Y-5150770D02*
X4931968Y-5198389D01*
X4931968Y-5198389D02*
X4922444Y-5217436D01*
X4922444Y-5217436D02*
X4912920Y-5226960D01*
X4912920Y-5226960D02*
X4893872Y-5236484D01*
X4893872Y-5236484D02*
X4846253Y-5236484D01*
X4846253Y-5236484D02*
X4827206Y-5226960D01*
X4827206Y-5226960D02*
X4817682Y-5217436D01*
X5103396Y-5036484D02*
X5065301Y-5036484D01*
X5065301Y-5036484D02*
X5046253Y-5046008D01*
X5046253Y-5046008D02*
X5036729Y-5055531D01*
X5036729Y-5055531D02*
X5017682Y-5084103D01*
X5017682Y-5084103D02*
X5008158Y-5122198D01*
X5008158Y-5122198D02*
X5008158Y-5198389D01*
X5008158Y-5198389D02*
X5017682Y-5217436D01*
X5017682Y-5217436D02*
X5027206Y-5226960D01*
X5027206Y-5226960D02*
X5046253Y-5236484D01*
X5046253Y-5236484D02*
X5084349Y-5236484D01*
X5084349Y-5236484D02*
X5103396Y-5226960D01*
X5103396Y-5226960D02*
X5112920Y-5217436D01*
X5112920Y-5217436D02*
X5122444Y-5198389D01*
X5122444Y-5198389D02*
X5122444Y-5150770D01*
X5122444Y-5150770D02*
X5112920Y-5131722D01*
X5112920Y-5131722D02*
X5103396Y-5122198D01*
X5103396Y-5122198D02*
X5084349Y-5112674D01*
X5084349Y-5112674D02*
X5046253Y-5112674D01*
X5046253Y-5112674D02*
X5027206Y-5122198D01*
X5027206Y-5122198D02*
X5017682Y-5131722D01*
X5017682Y-5131722D02*
X5008158Y-5150770D01*
X5198634Y-5036484D02*
X5198634Y-5074579D01*
X5274825Y-5036484D02*
X5274825Y-5074579D01*
X5570063Y-5312674D02*
X5560539Y-5303150D01*
X5560539Y-5303150D02*
X5541491Y-5274579D01*
X5541491Y-5274579D02*
X5531968Y-5255531D01*
X5531968Y-5255531D02*
X5522444Y-5226960D01*
X5522444Y-5226960D02*
X5512920Y-5179341D01*
X5512920Y-5179341D02*
X5512920Y-5141246D01*
X5512920Y-5141246D02*
X5522444Y-5093627D01*
X5522444Y-5093627D02*
X5531968Y-5065055D01*
X5531968Y-5065055D02*
X5541491Y-5046008D01*
X5541491Y-5046008D02*
X5560539Y-5017436D01*
X5560539Y-5017436D02*
X5570063Y-5007912D01*
X5636729Y-5055531D02*
X5646253Y-5046008D01*
X5646253Y-5046008D02*
X5665301Y-5036484D01*
X5665301Y-5036484D02*
X5712920Y-5036484D01*
X5712920Y-5036484D02*
X5731968Y-5046008D01*
X5731968Y-5046008D02*
X5741491Y-5055531D01*
X5741491Y-5055531D02*
X5751015Y-5074579D01*
X5751015Y-5074579D02*
X5751015Y-5093627D01*
X5751015Y-5093627D02*
X5741491Y-5122198D01*
X5741491Y-5122198D02*
X5627206Y-5236484D01*
X5627206Y-5236484D02*
X5751015Y-5236484D01*
X5989110Y-5236484D02*
X5989110Y-5036484D01*
X6074825Y-5236484D02*
X6074825Y-5131722D01*
X6074825Y-5131722D02*
X6065301Y-5112674D01*
X6065301Y-5112674D02*
X6046253Y-5103150D01*
X6046253Y-5103150D02*
X6017682Y-5103150D01*
X6017682Y-5103150D02*
X5998634Y-5112674D01*
X5998634Y-5112674D02*
X5989110Y-5122198D01*
X6198634Y-5236484D02*
X6179587Y-5226960D01*
X6179587Y-5226960D02*
X6170063Y-5217436D01*
X6170063Y-5217436D02*
X6160539Y-5198389D01*
X6160539Y-5198389D02*
X6160539Y-5141246D01*
X6160539Y-5141246D02*
X6170063Y-5122198D01*
X6170063Y-5122198D02*
X6179587Y-5112674D01*
X6179587Y-5112674D02*
X6198634Y-5103150D01*
X6198634Y-5103150D02*
X6227206Y-5103150D01*
X6227206Y-5103150D02*
X6246253Y-5112674D01*
X6246253Y-5112674D02*
X6255777Y-5122198D01*
X6255777Y-5122198D02*
X6265301Y-5141246D01*
X6265301Y-5141246D02*
X6265301Y-5198389D01*
X6265301Y-5198389D02*
X6255777Y-5217436D01*
X6255777Y-5217436D02*
X6246253Y-5226960D01*
X6246253Y-5226960D02*
X6227206Y-5236484D01*
X6227206Y-5236484D02*
X6198634Y-5236484D01*
X6379587Y-5236484D02*
X6360539Y-5226960D01*
X6360539Y-5226960D02*
X6351015Y-5207912D01*
X6351015Y-5207912D02*
X6351015Y-5036484D01*
X6531968Y-5226960D02*
X6512920Y-5236484D01*
X6512920Y-5236484D02*
X6474825Y-5236484D01*
X6474825Y-5236484D02*
X6455777Y-5226960D01*
X6455777Y-5226960D02*
X6446253Y-5207912D01*
X6446253Y-5207912D02*
X6446253Y-5131722D01*
X6446253Y-5131722D02*
X6455777Y-5112674D01*
X6455777Y-5112674D02*
X6474825Y-5103150D01*
X6474825Y-5103150D02*
X6512920Y-5103150D01*
X6512920Y-5103150D02*
X6531968Y-5112674D01*
X6531968Y-5112674D02*
X6541491Y-5131722D01*
X6541491Y-5131722D02*
X6541491Y-5150770D01*
X6541491Y-5150770D02*
X6446253Y-5169817D01*
X6617682Y-5226960D02*
X6636730Y-5236484D01*
X6636730Y-5236484D02*
X6674825Y-5236484D01*
X6674825Y-5236484D02*
X6693872Y-5226960D01*
X6693872Y-5226960D02*
X6703396Y-5207912D01*
X6703396Y-5207912D02*
X6703396Y-5198389D01*
X6703396Y-5198389D02*
X6693872Y-5179341D01*
X6693872Y-5179341D02*
X6674825Y-5169817D01*
X6674825Y-5169817D02*
X6646253Y-5169817D01*
X6646253Y-5169817D02*
X6627206Y-5160293D01*
X6627206Y-5160293D02*
X6617682Y-5141246D01*
X6617682Y-5141246D02*
X6617682Y-5131722D01*
X6617682Y-5131722D02*
X6627206Y-5112674D01*
X6627206Y-5112674D02*
X6646253Y-5103150D01*
X6646253Y-5103150D02*
X6674825Y-5103150D01*
X6674825Y-5103150D02*
X6693872Y-5112674D01*
X6770063Y-5312674D02*
X6779587Y-5303150D01*
X6779587Y-5303150D02*
X6798634Y-5274579D01*
X6798634Y-5274579D02*
X6808158Y-5255531D01*
X6808158Y-5255531D02*
X6817682Y-5226960D01*
X6817682Y-5226960D02*
X6827206Y-5179341D01*
X6827206Y-5179341D02*
X6827206Y-5141246D01*
X6827206Y-5141246D02*
X6817682Y-5093627D01*
X6817682Y-5093627D02*
X6808158Y-5065055D01*
X6808158Y-5065055D02*
X6798634Y-5046008D01*
X6798634Y-5046008D02*
X6779587Y-5017436D01*
X6779587Y-5017436D02*
X6770063Y-5007912D01*
X7131968Y-5312674D02*
X7122444Y-5303150D01*
X7122444Y-5303150D02*
X7103396Y-5274579D01*
X7103396Y-5274579D02*
X7093872Y-5255531D01*
X7093872Y-5255531D02*
X7084349Y-5226960D01*
X7084349Y-5226960D02*
X7074825Y-5179341D01*
X7074825Y-5179341D02*
X7074825Y-5141246D01*
X7074825Y-5141246D02*
X7084349Y-5093627D01*
X7084349Y-5093627D02*
X7093872Y-5065055D01*
X7093872Y-5065055D02*
X7103396Y-5046008D01*
X7103396Y-5046008D02*
X7122444Y-5017436D01*
X7122444Y-5017436D02*
X7131968Y-5007912D01*
X7208158Y-5103150D02*
X7208158Y-5236484D01*
X7208158Y-5122198D02*
X7217682Y-5112674D01*
X7217682Y-5112674D02*
X7236730Y-5103150D01*
X7236730Y-5103150D02*
X7265301Y-5103150D01*
X7265301Y-5103150D02*
X7284349Y-5112674D01*
X7284349Y-5112674D02*
X7293872Y-5131722D01*
X7293872Y-5131722D02*
X7293872Y-5236484D01*
X7417682Y-5236484D02*
X7398634Y-5226960D01*
X7398634Y-5226960D02*
X7389111Y-5217436D01*
X7389111Y-5217436D02*
X7379587Y-5198389D01*
X7379587Y-5198389D02*
X7379587Y-5141246D01*
X7379587Y-5141246D02*
X7389111Y-5122198D01*
X7389111Y-5122198D02*
X7398634Y-5112674D01*
X7398634Y-5112674D02*
X7417682Y-5103150D01*
X7417682Y-5103150D02*
X7446253Y-5103150D01*
X7446253Y-5103150D02*
X7465301Y-5112674D01*
X7465301Y-5112674D02*
X7474825Y-5122198D01*
X7474825Y-5122198D02*
X7484349Y-5141246D01*
X7484349Y-5141246D02*
X7484349Y-5198389D01*
X7484349Y-5198389D02*
X7474825Y-5217436D01*
X7474825Y-5217436D02*
X7465301Y-5226960D01*
X7465301Y-5226960D02*
X7446253Y-5236484D01*
X7446253Y-5236484D02*
X7417682Y-5236484D01*
X7541492Y-5103150D02*
X7617682Y-5103150D01*
X7570063Y-5036484D02*
X7570063Y-5207912D01*
X7570063Y-5207912D02*
X7579587Y-5226960D01*
X7579587Y-5226960D02*
X7598634Y-5236484D01*
X7598634Y-5236484D02*
X7617682Y-5236484D01*
X7836730Y-5103150D02*
X7836730Y-5303150D01*
X7836730Y-5112674D02*
X7855777Y-5103150D01*
X7855777Y-5103150D02*
X7893873Y-5103150D01*
X7893873Y-5103150D02*
X7912920Y-5112674D01*
X7912920Y-5112674D02*
X7922444Y-5122198D01*
X7922444Y-5122198D02*
X7931968Y-5141246D01*
X7931968Y-5141246D02*
X7931968Y-5198389D01*
X7931968Y-5198389D02*
X7922444Y-5217436D01*
X7922444Y-5217436D02*
X7912920Y-5226960D01*
X7912920Y-5226960D02*
X7893873Y-5236484D01*
X7893873Y-5236484D02*
X7855777Y-5236484D01*
X7855777Y-5236484D02*
X7836730Y-5226960D01*
X8046253Y-5236484D02*
X8027206Y-5226960D01*
X8027206Y-5226960D02*
X8017682Y-5207912D01*
X8017682Y-5207912D02*
X8017682Y-5036484D01*
X8208158Y-5236484D02*
X8208158Y-5131722D01*
X8208158Y-5131722D02*
X8198634Y-5112674D01*
X8198634Y-5112674D02*
X8179587Y-5103150D01*
X8179587Y-5103150D02*
X8141492Y-5103150D01*
X8141492Y-5103150D02*
X8122444Y-5112674D01*
X8208158Y-5226960D02*
X8189111Y-5236484D01*
X8189111Y-5236484D02*
X8141492Y-5236484D01*
X8141492Y-5236484D02*
X8122444Y-5226960D01*
X8122444Y-5226960D02*
X8112920Y-5207912D01*
X8112920Y-5207912D02*
X8112920Y-5188865D01*
X8112920Y-5188865D02*
X8122444Y-5169817D01*
X8122444Y-5169817D02*
X8141492Y-5160293D01*
X8141492Y-5160293D02*
X8189111Y-5160293D01*
X8189111Y-5160293D02*
X8208158Y-5150770D01*
X8274825Y-5103150D02*
X8351015Y-5103150D01*
X8303396Y-5036484D02*
X8303396Y-5207912D01*
X8303396Y-5207912D02*
X8312920Y-5226960D01*
X8312920Y-5226960D02*
X8331968Y-5236484D01*
X8331968Y-5236484D02*
X8351015Y-5236484D01*
X8493873Y-5226960D02*
X8474825Y-5236484D01*
X8474825Y-5236484D02*
X8436730Y-5236484D01*
X8436730Y-5236484D02*
X8417682Y-5226960D01*
X8417682Y-5226960D02*
X8408158Y-5207912D01*
X8408158Y-5207912D02*
X8408158Y-5131722D01*
X8408158Y-5131722D02*
X8417682Y-5112674D01*
X8417682Y-5112674D02*
X8436730Y-5103150D01*
X8436730Y-5103150D02*
X8474825Y-5103150D01*
X8474825Y-5103150D02*
X8493873Y-5112674D01*
X8493873Y-5112674D02*
X8503396Y-5131722D01*
X8503396Y-5131722D02*
X8503396Y-5150770D01*
X8503396Y-5150770D02*
X8408158Y-5169817D01*
X8674825Y-5236484D02*
X8674825Y-5036484D01*
X8674825Y-5226960D02*
X8655777Y-5236484D01*
X8655777Y-5236484D02*
X8617682Y-5236484D01*
X8617682Y-5236484D02*
X8598635Y-5226960D01*
X8598635Y-5226960D02*
X8589111Y-5217436D01*
X8589111Y-5217436D02*
X8579587Y-5198389D01*
X8579587Y-5198389D02*
X8579587Y-5141246D01*
X8579587Y-5141246D02*
X8589111Y-5122198D01*
X8589111Y-5122198D02*
X8598635Y-5112674D01*
X8598635Y-5112674D02*
X8617682Y-5103150D01*
X8617682Y-5103150D02*
X8655777Y-5103150D01*
X8655777Y-5103150D02*
X8674825Y-5112674D01*
X8751016Y-5312674D02*
X8760539Y-5303150D01*
X8760539Y-5303150D02*
X8779587Y-5274579D01*
X8779587Y-5274579D02*
X8789111Y-5255531D01*
X8789111Y-5255531D02*
X8798635Y-5226960D01*
X8798635Y-5226960D02*
X8808158Y-5179341D01*
X8808158Y-5179341D02*
X8808158Y-5141246D01*
X8808158Y-5141246D02*
X8798635Y-5093627D01*
X8798635Y-5093627D02*
X8789111Y-5065055D01*
X8789111Y-5065055D02*
X8779587Y-5046008D01*
X8779587Y-5046008D02*
X8760539Y-5017436D01*
X8760539Y-5017436D02*
X8751016Y-5007912D01*
M02*
