%TF.GenerationSoftware,KiCad,Pcbnew,7.0.7*%
%TF.CreationDate,2024-03-07T17:34:25-08:00*%
%TF.ProjectId,magn_angle_sensor_v2,6d61676e-5f61-46e6-976c-655f73656e73,rev?*%
%TF.SameCoordinates,Original*%
%TF.FileFunction,Paste,Bot*%
%TF.FilePolarity,Positive*%
%FSLAX46Y46*%
G04 Gerber Fmt 4.6, Leading zero omitted, Abs format (unit mm)*
G04 Created by KiCad (PCBNEW 7.0.7) date 2024-03-07 17:34:25*
%MOMM*%
%LPD*%
G01*
G04 APERTURE LIST*
G04 Aperture macros list*
%AMRoundRect*
0 Rectangle with rounded corners*
0 $1 Rounding radius*
0 $2 $3 $4 $5 $6 $7 $8 $9 X,Y pos of 4 corners*
0 Add a 4 corners polygon primitive as box body*
4,1,4,$2,$3,$4,$5,$6,$7,$8,$9,$2,$3,0*
0 Add four circle primitives for the rounded corners*
1,1,$1+$1,$2,$3*
1,1,$1+$1,$4,$5*
1,1,$1+$1,$6,$7*
1,1,$1+$1,$8,$9*
0 Add four rect primitives between the rounded corners*
20,1,$1+$1,$2,$3,$4,$5,0*
20,1,$1+$1,$4,$5,$6,$7,0*
20,1,$1+$1,$6,$7,$8,$9,0*
20,1,$1+$1,$8,$9,$2,$3,0*%
G04 Aperture macros list end*
%ADD10RoundRect,0.140000X0.170000X-0.140000X0.170000X0.140000X-0.170000X0.140000X-0.170000X-0.140000X0*%
%ADD11RoundRect,0.140000X-0.140000X-0.170000X0.140000X-0.170000X0.140000X0.170000X-0.140000X0.170000X0*%
%ADD12RoundRect,0.135000X0.135000X0.185000X-0.135000X0.185000X-0.135000X-0.185000X0.135000X-0.185000X0*%
%ADD13RoundRect,0.135000X-0.135000X-0.185000X0.135000X-0.185000X0.135000X0.185000X-0.135000X0.185000X0*%
%ADD14RoundRect,0.250000X0.250000X0.475000X-0.250000X0.475000X-0.250000X-0.475000X0.250000X-0.475000X0*%
%ADD15RoundRect,0.135000X0.185000X-0.135000X0.185000X0.135000X-0.185000X0.135000X-0.185000X-0.135000X0*%
%ADD16RoundRect,0.140000X-0.170000X0.140000X-0.170000X-0.140000X0.170000X-0.140000X0.170000X0.140000X0*%
%ADD17RoundRect,0.150000X-0.650000X-0.150000X0.650000X-0.150000X0.650000X0.150000X-0.650000X0.150000X0*%
%ADD18RoundRect,0.150000X0.675000X0.150000X-0.675000X0.150000X-0.675000X-0.150000X0.675000X-0.150000X0*%
%ADD19RoundRect,0.140000X0.140000X0.170000X-0.140000X0.170000X-0.140000X-0.170000X0.140000X-0.170000X0*%
%ADD20R,1.400000X1.200000*%
%ADD21RoundRect,0.150000X-0.587500X-0.150000X0.587500X-0.150000X0.587500X0.150000X-0.587500X0.150000X0*%
G04 APERTURE END LIST*
D10*
%TO.C,C20*%
X30050000Y-39230000D03*
X30050000Y-38270000D03*
%TD*%
D11*
%TO.C,C21*%
X32770000Y-40950000D03*
X33730000Y-40950000D03*
%TD*%
%TO.C,C2*%
X31420000Y-28400000D03*
X32380000Y-28400000D03*
%TD*%
D12*
%TO.C,R10*%
X24510000Y-34900000D03*
X23490000Y-34900000D03*
%TD*%
D13*
%TO.C,R5*%
X23490000Y-32900000D03*
X24510000Y-32900000D03*
%TD*%
D11*
%TO.C,C24*%
X40520000Y-33600000D03*
X41480000Y-33600000D03*
%TD*%
D14*
%TO.C,C10*%
X42350000Y-38850000D03*
X40450000Y-38850000D03*
%TD*%
D15*
%TO.C,R7*%
X35250000Y-39260000D03*
X35250000Y-38240000D03*
%TD*%
D16*
%TO.C,C3*%
X44050000Y-26720000D03*
X44050000Y-27680000D03*
%TD*%
D15*
%TO.C,R9*%
X43400000Y-43860000D03*
X43400000Y-42840000D03*
%TD*%
D17*
%TO.C,U3*%
X28550000Y-26955000D03*
X28550000Y-25685000D03*
X28550000Y-24415000D03*
X28550000Y-23145000D03*
X35750000Y-23145000D03*
X35750000Y-24415000D03*
X35750000Y-25685000D03*
X35750000Y-26955000D03*
%TD*%
D18*
%TO.C,U4*%
X35125000Y-30595000D03*
X35125000Y-31865000D03*
X35125000Y-33135000D03*
X35125000Y-34405000D03*
X29875000Y-34405000D03*
X29875000Y-33135000D03*
X29875000Y-31865000D03*
X29875000Y-30595000D03*
%TD*%
D11*
%TO.C,C23*%
X37620000Y-41200000D03*
X38580000Y-41200000D03*
%TD*%
D16*
%TO.C,C4*%
X41950000Y-26720000D03*
X41950000Y-27680000D03*
%TD*%
D19*
%TO.C,C1*%
X34130000Y-35950000D03*
X33170000Y-35950000D03*
%TD*%
D12*
%TO.C,R11*%
X24510000Y-31900000D03*
X23490000Y-31900000D03*
%TD*%
D20*
%TO.C,Y1*%
X33750000Y-39600000D03*
X31550000Y-39600000D03*
X31550000Y-37900000D03*
X33750000Y-37900000D03*
%TD*%
D10*
%TO.C,C14*%
X37300000Y-26930000D03*
X37300000Y-25970000D03*
%TD*%
D21*
%TO.C,CR1*%
X41062500Y-36800000D03*
X41062500Y-34900000D03*
X42937500Y-35850000D03*
%TD*%
D16*
%TO.C,C5*%
X43000000Y-26720000D03*
X43000000Y-27680000D03*
%TD*%
D11*
%TO.C,C13*%
X39420000Y-29650000D03*
X40380000Y-29650000D03*
%TD*%
D16*
%TO.C,C12*%
X41850000Y-30770000D03*
X41850000Y-31730000D03*
%TD*%
%TO.C,C11*%
X43050000Y-30770000D03*
X43050000Y-31730000D03*
%TD*%
%TO.C,C6*%
X40900000Y-27680000D03*
X40900000Y-26720000D03*
%TD*%
D12*
%TO.C,R4*%
X24510000Y-33900000D03*
X23490000Y-33900000D03*
%TD*%
D16*
%TO.C,C17*%
X36750000Y-31870000D03*
X36750000Y-32830000D03*
%TD*%
M02*
