%TF.GenerationSoftware,KiCad,Pcbnew,7.0.7*%
%TF.CreationDate,2024-03-07T17:34:28-08:00*%
%TF.ProjectId,magn_angle_sensor_v2,6d61676e-5f61-46e6-976c-655f73656e73,rev?*%
%TF.SameCoordinates,Original*%
%TF.FileFunction,Drillmap*%
%TF.FilePolarity,Positive*%
%FSLAX45Y45*%
G04 Gerber Fmt 4.5, Leading zero omitted, Abs format (unit mm)*
G04 Created by KiCad (PCBNEW 7.0.7) date 2024-03-07 17:34:28*
%MOMM*%
%LPD*%
G01*
G04 APERTURE LIST*
%ADD10C,0.100000*%
%ADD11C,0.200000*%
%ADD12C,0.030000*%
%ADD13C,0.040000*%
%ADD14C,0.050000*%
%ADD15C,0.060000*%
%ADD16C,0.075000*%
%ADD17C,0.320000*%
G04 APERTURE END LIST*
D10*
X4500000Y-4200000D02*
X4500000Y-2300000D01*
X4500000Y-2300000D02*
G75*
G03*
X4200000Y-2000000I-300000J0D01*
G01*
X4200000Y-2000000D02*
X2300000Y-2000000D01*
X2300000Y-4500000D02*
X4200000Y-4500000D01*
X2300000Y-2000000D02*
G75*
G03*
X2000000Y-2300000I0J-300000D01*
G01*
X2000000Y-2300000D02*
X2000000Y-4200000D01*
X4200000Y-4500000D02*
G75*
G03*
X4500000Y-4200000I0J300000D01*
G01*
X2000000Y-4200000D02*
G75*
G03*
X2300000Y-4500000I300000J0D01*
G01*
D11*
D12*
X2084000Y-2528000D02*
X2114000Y-2558000D01*
X2114000Y-2528000D02*
X2084000Y-2558000D01*
X2215000Y-2370000D02*
X2245000Y-2400000D01*
X2245000Y-2370000D02*
X2215000Y-2400000D01*
X2335000Y-2155000D02*
X2365000Y-2185000D01*
X2365000Y-2155000D02*
X2335000Y-2185000D01*
X2409000Y-2578000D02*
X2439000Y-2608000D01*
X2439000Y-2578000D02*
X2409000Y-2608000D01*
X2436000Y-3275000D02*
X2466000Y-3305000D01*
X2466000Y-3275000D02*
X2436000Y-3305000D01*
X2436000Y-3375000D02*
X2466000Y-3405000D01*
X2466000Y-3375000D02*
X2436000Y-3405000D01*
X2510000Y-3885000D02*
X2540000Y-3915000D01*
X2540000Y-3885000D02*
X2510000Y-3915000D01*
X2555000Y-4425000D02*
X2585000Y-4455000D01*
X2585000Y-4425000D02*
X2555000Y-4455000D01*
X2610000Y-3078000D02*
X2640000Y-3108000D01*
X2640000Y-3078000D02*
X2610000Y-3108000D01*
X2610000Y-3558000D02*
X2640000Y-3588000D01*
X2640000Y-3558000D02*
X2610000Y-3588000D01*
X2655000Y-3904000D02*
X2685000Y-3934000D01*
X2685000Y-3904000D02*
X2655000Y-3934000D01*
X2690000Y-2370000D02*
X2720000Y-2400000D01*
X2720000Y-2370000D02*
X2690000Y-2400000D01*
X2706391Y-2626609D02*
X2736391Y-2656609D01*
X2736391Y-2626609D02*
X2706391Y-2656609D01*
X2742966Y-3178331D02*
X2772966Y-3208331D01*
X2772966Y-3178331D02*
X2742966Y-3208331D01*
X2749737Y-3091995D02*
X2779737Y-3121995D01*
X2779737Y-3091995D02*
X2749737Y-3121995D01*
X2807450Y-3710000D02*
X2837450Y-3740000D01*
X2837450Y-3710000D02*
X2807450Y-3740000D01*
X2807450Y-3975000D02*
X2837450Y-4005000D01*
X2837450Y-3975000D02*
X2807450Y-4005000D01*
X2840000Y-2426500D02*
X2870000Y-2456500D01*
X2870000Y-2426500D02*
X2840000Y-2456500D01*
X2840000Y-2553500D02*
X2870000Y-2583500D01*
X2870000Y-2553500D02*
X2840000Y-2583500D01*
X2840000Y-2680500D02*
X2870000Y-2710500D01*
X2870000Y-2680500D02*
X2840000Y-2710500D01*
X2917635Y-2833906D02*
X2947635Y-2863906D01*
X2947635Y-2833906D02*
X2917635Y-2863906D01*
X2975000Y-3915000D02*
X3005000Y-3945000D01*
X3005000Y-3915000D02*
X2975000Y-3945000D01*
X3005000Y-3679550D02*
X3035000Y-3709550D01*
X3035000Y-3679550D02*
X3005000Y-3709550D01*
X3127358Y-3489950D02*
X3157358Y-3519950D01*
X3157358Y-3489950D02*
X3127358Y-3519950D01*
X3140000Y-3950000D02*
X3170000Y-3980000D01*
X3170000Y-3950000D02*
X3140000Y-3980000D01*
X3222717Y-2689733D02*
X3252717Y-2719733D01*
X3252717Y-2689733D02*
X3222717Y-2719733D01*
X3226000Y-2771000D02*
X3256000Y-2801000D01*
X3256000Y-2771000D02*
X3226000Y-2801000D01*
X3235000Y-3240000D02*
X3265000Y-3270000D01*
X3265000Y-3240000D02*
X3235000Y-3270000D01*
X3235000Y-4040000D02*
X3265000Y-4070000D01*
X3265000Y-4040000D02*
X3235000Y-4070000D01*
X3275000Y-2900000D02*
X3305000Y-2930000D01*
X3305000Y-2900000D02*
X3275000Y-2930000D01*
X3290000Y-3775000D02*
X3320000Y-3805000D01*
X3320000Y-3775000D02*
X3290000Y-3805000D01*
X3300000Y-3449950D02*
X3330000Y-3479950D01*
X3330000Y-3449950D02*
X3300000Y-3479950D01*
X3304898Y-2800271D02*
X3334898Y-2830271D01*
X3334898Y-2800271D02*
X3304898Y-2830271D01*
X3345000Y-4305000D02*
X3375000Y-4335000D01*
X3375000Y-4305000D02*
X3345000Y-4335000D01*
X3373905Y-2759898D02*
X3403905Y-2789898D01*
X3403905Y-2759898D02*
X3373905Y-2789898D01*
X3383689Y-3486039D02*
X3413689Y-3516039D01*
X3413689Y-3486039D02*
X3383689Y-3516039D01*
X3385000Y-2145000D02*
X3415000Y-2175000D01*
X3415000Y-2145000D02*
X3385000Y-2175000D01*
X3395000Y-2630000D02*
X3425000Y-2660000D01*
X3425000Y-2630000D02*
X3395000Y-2660000D01*
X3485050Y-3423667D02*
X3515050Y-3453667D01*
X3515050Y-3423667D02*
X3485050Y-3453667D01*
X3535000Y-4305000D02*
X3565000Y-4335000D01*
X3565000Y-4305000D02*
X3535000Y-4335000D01*
X3560000Y-2299500D02*
X3590000Y-2329500D01*
X3590000Y-2299500D02*
X3560000Y-2329500D01*
X3560000Y-2426500D02*
X3590000Y-2456500D01*
X3590000Y-2426500D02*
X3560000Y-2456500D01*
X3560000Y-2553500D02*
X3590000Y-2583500D01*
X3590000Y-2553500D02*
X3560000Y-2583500D01*
X3655000Y-2680500D02*
X3685000Y-2710500D01*
X3685000Y-2680500D02*
X3655000Y-2710500D01*
X3725000Y-2585000D02*
X3755000Y-2615000D01*
X3755000Y-2585000D02*
X3725000Y-2615000D01*
X3905000Y-4105000D02*
X3935000Y-4135000D01*
X3935000Y-4105000D02*
X3905000Y-4135000D01*
X4075000Y-2660000D02*
X4105000Y-2690000D01*
X4105000Y-2660000D02*
X4075000Y-2690000D01*
X4135000Y-3345000D02*
X4165000Y-3375000D01*
X4165000Y-3345000D02*
X4135000Y-3375000D01*
X4170000Y-3160000D02*
X4200000Y-3190000D01*
X4200000Y-3160000D02*
X4170000Y-3190000D01*
X4180000Y-2660000D02*
X4210000Y-2690000D01*
X4210000Y-2660000D02*
X4180000Y-2690000D01*
X4285000Y-2660000D02*
X4315000Y-2690000D01*
X4315000Y-2660000D02*
X4285000Y-2690000D01*
X4290000Y-3160000D02*
X4320000Y-3190000D01*
X4320000Y-3160000D02*
X4290000Y-3190000D01*
X4390000Y-2660000D02*
X4420000Y-2690000D01*
X4420000Y-2660000D02*
X4390000Y-2690000D01*
X4405000Y-4015000D02*
X4435000Y-4045000D01*
X4435000Y-4015000D02*
X4405000Y-4045000D01*
X4425000Y-3580000D02*
X4455000Y-3610000D01*
X4455000Y-3580000D02*
X4425000Y-3610000D01*
D13*
X2410000Y-3065000D02*
G75*
G03*
X2410000Y-3065000I-20000J0D01*
G01*
X2471000Y-3190000D02*
G75*
G03*
X2471000Y-3190000I-20000J0D01*
G01*
X2471000Y-3490000D02*
G75*
G03*
X2471000Y-3490000I-20000J0D01*
G01*
X3175000Y-3720000D02*
G75*
G03*
X3175000Y-3720000I-20000J0D01*
G01*
X3511685Y-3054482D02*
G75*
G03*
X3511685Y-3054482I-20000J0D01*
G01*
X3546129Y-3701490D02*
G75*
G03*
X3546129Y-3701490I-20000J0D01*
G01*
X3962000Y-2965000D02*
G75*
G03*
X3962000Y-2965000I-20000J0D01*
G01*
X4205000Y-3077000D02*
G75*
G03*
X4205000Y-3077000I-20000J0D01*
G01*
X4465000Y-3440000D02*
G75*
G03*
X4465000Y-3440000I-20000J0D01*
G01*
D14*
X2690000Y-2145000D02*
X2690000Y-2195000D01*
X2665000Y-2170000D02*
X2715000Y-2170000D01*
X2835000Y-2140000D02*
X2835000Y-2190000D01*
X2810000Y-2165000D02*
X2860000Y-2165000D01*
X3065000Y-2390000D02*
X3065000Y-2440000D01*
X3040000Y-2415000D02*
X3090000Y-2415000D01*
X3820000Y-2755000D02*
X3820000Y-2805000D01*
X3795000Y-2780000D02*
X3845000Y-2780000D01*
D15*
X2166213Y-2922213D02*
X2166213Y-2879787D01*
X2123787Y-2879787D01*
X2123787Y-2922213D01*
X2166213Y-2922213D01*
D11*
X2185000Y-2871000D02*
X2105000Y-2871000D01*
X2105000Y-2871000D02*
G75*
G03*
X2105000Y-2931000I0J-30000D01*
G01*
X2105000Y-2931000D02*
X2185000Y-2931000D01*
X2185000Y-2931000D02*
G75*
G03*
X2185000Y-2871000I0J30000D01*
G01*
D15*
X2166213Y-3786213D02*
X2166213Y-3743787D01*
X2123787Y-3743787D01*
X2123787Y-3786213D01*
X2166213Y-3786213D01*
D11*
X2185000Y-3735000D02*
X2105000Y-3735000D01*
X2105000Y-3735000D02*
G75*
G03*
X2105000Y-3795000I0J-30000D01*
G01*
X2105000Y-3795000D02*
X2185000Y-3795000D01*
X2185000Y-3795000D02*
G75*
G03*
X2185000Y-3735000I0J30000D01*
G01*
D15*
X2586213Y-2922213D02*
X2586213Y-2879787D01*
X2543787Y-2879787D01*
X2543787Y-2922213D01*
X2586213Y-2922213D01*
D11*
X2620000Y-2871000D02*
X2510000Y-2871000D01*
X2510000Y-2871000D02*
G75*
G03*
X2510000Y-2931000I0J-30000D01*
G01*
X2510000Y-2931000D02*
X2620000Y-2931000D01*
X2620000Y-2931000D02*
G75*
G03*
X2620000Y-2871000I0J30000D01*
G01*
D15*
X2586213Y-3786213D02*
X2586213Y-3743787D01*
X2543787Y-3743787D01*
X2543787Y-3786213D01*
X2586213Y-3786213D01*
D11*
X2620000Y-3735000D02*
X2510000Y-3735000D01*
X2510000Y-3735000D02*
G75*
G03*
X2510000Y-3795000I0J-30000D01*
G01*
X2510000Y-3795000D02*
X2620000Y-3795000D01*
X2620000Y-3795000D02*
G75*
G03*
X2620000Y-3735000I0J30000D01*
G01*
D16*
X3860000Y-3322500D02*
X3897500Y-3285000D01*
X3860000Y-3247500D01*
X3822500Y-3285000D01*
X3860000Y-3322500D01*
X3860000Y-3522500D02*
X3897500Y-3485000D01*
X3860000Y-3447500D01*
X3822500Y-3485000D01*
X3860000Y-3522500D01*
X3860000Y-3722500D02*
X3897500Y-3685000D01*
X3860000Y-3647500D01*
X3822500Y-3685000D01*
X3860000Y-3722500D01*
X3860000Y-3922500D02*
X3897500Y-3885000D01*
X3860000Y-3847500D01*
X3822500Y-3885000D01*
X3860000Y-3922500D01*
D10*
X3806000Y-4260000D02*
X3906000Y-4360000D01*
X3906000Y-4260000D02*
X3806000Y-4360000D01*
X3906000Y-4310000D02*
G75*
G03*
X3906000Y-4310000I-50000J0D01*
G01*
X4060000Y-4260000D02*
X4160000Y-4360000D01*
X4160000Y-4260000D02*
X4060000Y-4360000D01*
X4160000Y-4310000D02*
G75*
G03*
X4160000Y-4310000I-50000J0D01*
G01*
D17*
X2140000Y-4040000D02*
X2460000Y-4360000D01*
X2460000Y-4040000D02*
X2140000Y-4360000D01*
X2300000Y-4040000D02*
X2300000Y-4360000D01*
X2140000Y-4200000D02*
X2460000Y-4200000D01*
X4040000Y-2140000D02*
X4360000Y-2460000D01*
X4360000Y-2140000D02*
X4040000Y-2460000D01*
X4200000Y-2140000D02*
X4200000Y-2460000D01*
X4040000Y-2300000D02*
X4360000Y-2300000D01*
D11*
X2255777Y-4816484D02*
X2255777Y-4616484D01*
X2255777Y-4616484D02*
X2303396Y-4616484D01*
X2303396Y-4616484D02*
X2331967Y-4626008D01*
X2331967Y-4626008D02*
X2351015Y-4645055D01*
X2351015Y-4645055D02*
X2360539Y-4664103D01*
X2360539Y-4664103D02*
X2370063Y-4702198D01*
X2370063Y-4702198D02*
X2370063Y-4730770D01*
X2370063Y-4730770D02*
X2360539Y-4768865D01*
X2360539Y-4768865D02*
X2351015Y-4787912D01*
X2351015Y-4787912D02*
X2331967Y-4806960D01*
X2331967Y-4806960D02*
X2303396Y-4816484D01*
X2303396Y-4816484D02*
X2255777Y-4816484D01*
X2455777Y-4816484D02*
X2455777Y-4683150D01*
X2455777Y-4721246D02*
X2465301Y-4702198D01*
X2465301Y-4702198D02*
X2474824Y-4692674D01*
X2474824Y-4692674D02*
X2493872Y-4683150D01*
X2493872Y-4683150D02*
X2512920Y-4683150D01*
X2579586Y-4816484D02*
X2579586Y-4683150D01*
X2579586Y-4616484D02*
X2570063Y-4626008D01*
X2570063Y-4626008D02*
X2579586Y-4635531D01*
X2579586Y-4635531D02*
X2589110Y-4626008D01*
X2589110Y-4626008D02*
X2579586Y-4616484D01*
X2579586Y-4616484D02*
X2579586Y-4635531D01*
X2703396Y-4816484D02*
X2684348Y-4806960D01*
X2684348Y-4806960D02*
X2674824Y-4787912D01*
X2674824Y-4787912D02*
X2674824Y-4616484D01*
X2808158Y-4816484D02*
X2789110Y-4806960D01*
X2789110Y-4806960D02*
X2779586Y-4787912D01*
X2779586Y-4787912D02*
X2779586Y-4616484D01*
X3036729Y-4816484D02*
X3036729Y-4616484D01*
X3036729Y-4616484D02*
X3103396Y-4759341D01*
X3103396Y-4759341D02*
X3170062Y-4616484D01*
X3170062Y-4616484D02*
X3170062Y-4816484D01*
X3351015Y-4816484D02*
X3351015Y-4711722D01*
X3351015Y-4711722D02*
X3341491Y-4692674D01*
X3341491Y-4692674D02*
X3322443Y-4683150D01*
X3322443Y-4683150D02*
X3284348Y-4683150D01*
X3284348Y-4683150D02*
X3265301Y-4692674D01*
X3351015Y-4806960D02*
X3331967Y-4816484D01*
X3331967Y-4816484D02*
X3284348Y-4816484D01*
X3284348Y-4816484D02*
X3265301Y-4806960D01*
X3265301Y-4806960D02*
X3255777Y-4787912D01*
X3255777Y-4787912D02*
X3255777Y-4768865D01*
X3255777Y-4768865D02*
X3265301Y-4749817D01*
X3265301Y-4749817D02*
X3284348Y-4740293D01*
X3284348Y-4740293D02*
X3331967Y-4740293D01*
X3331967Y-4740293D02*
X3351015Y-4730770D01*
X3446253Y-4683150D02*
X3446253Y-4883150D01*
X3446253Y-4692674D02*
X3465301Y-4683150D01*
X3465301Y-4683150D02*
X3503396Y-4683150D01*
X3503396Y-4683150D02*
X3522443Y-4692674D01*
X3522443Y-4692674D02*
X3531967Y-4702198D01*
X3531967Y-4702198D02*
X3541491Y-4721246D01*
X3541491Y-4721246D02*
X3541491Y-4778389D01*
X3541491Y-4778389D02*
X3531967Y-4797436D01*
X3531967Y-4797436D02*
X3522443Y-4806960D01*
X3522443Y-4806960D02*
X3503396Y-4816484D01*
X3503396Y-4816484D02*
X3465301Y-4816484D01*
X3465301Y-4816484D02*
X3446253Y-4806960D01*
X3627205Y-4797436D02*
X3636729Y-4806960D01*
X3636729Y-4806960D02*
X3627205Y-4816484D01*
X3627205Y-4816484D02*
X3617682Y-4806960D01*
X3617682Y-4806960D02*
X3627205Y-4797436D01*
X3627205Y-4797436D02*
X3627205Y-4816484D01*
X3627205Y-4692674D02*
X3636729Y-4702198D01*
X3636729Y-4702198D02*
X3627205Y-4711722D01*
X3627205Y-4711722D02*
X3617682Y-4702198D01*
X3617682Y-4702198D02*
X3627205Y-4692674D01*
X3627205Y-4692674D02*
X3627205Y-4711722D01*
D12*
X1965000Y-5130000D02*
X1995000Y-5160000D01*
X1995000Y-5130000D02*
X1965000Y-5160000D01*
D11*
X2293872Y-5036484D02*
X2312920Y-5036484D01*
X2312920Y-5036484D02*
X2331967Y-5046008D01*
X2331967Y-5046008D02*
X2341491Y-5055531D01*
X2341491Y-5055531D02*
X2351015Y-5074579D01*
X2351015Y-5074579D02*
X2360539Y-5112674D01*
X2360539Y-5112674D02*
X2360539Y-5160293D01*
X2360539Y-5160293D02*
X2351015Y-5198389D01*
X2351015Y-5198389D02*
X2341491Y-5217436D01*
X2341491Y-5217436D02*
X2331967Y-5226960D01*
X2331967Y-5226960D02*
X2312920Y-5236484D01*
X2312920Y-5236484D02*
X2293872Y-5236484D01*
X2293872Y-5236484D02*
X2274824Y-5226960D01*
X2274824Y-5226960D02*
X2265301Y-5217436D01*
X2265301Y-5217436D02*
X2255777Y-5198389D01*
X2255777Y-5198389D02*
X2246253Y-5160293D01*
X2246253Y-5160293D02*
X2246253Y-5112674D01*
X2246253Y-5112674D02*
X2255777Y-5074579D01*
X2255777Y-5074579D02*
X2265301Y-5055531D01*
X2265301Y-5055531D02*
X2274824Y-5046008D01*
X2274824Y-5046008D02*
X2293872Y-5036484D01*
X2446253Y-5217436D02*
X2455777Y-5226960D01*
X2455777Y-5226960D02*
X2446253Y-5236484D01*
X2446253Y-5236484D02*
X2436729Y-5226960D01*
X2436729Y-5226960D02*
X2446253Y-5217436D01*
X2446253Y-5217436D02*
X2446253Y-5236484D01*
X2522444Y-5036484D02*
X2646253Y-5036484D01*
X2646253Y-5036484D02*
X2579586Y-5112674D01*
X2579586Y-5112674D02*
X2608158Y-5112674D01*
X2608158Y-5112674D02*
X2627205Y-5122198D01*
X2627205Y-5122198D02*
X2636729Y-5131722D01*
X2636729Y-5131722D02*
X2646253Y-5150770D01*
X2646253Y-5150770D02*
X2646253Y-5198389D01*
X2646253Y-5198389D02*
X2636729Y-5217436D01*
X2636729Y-5217436D02*
X2627205Y-5226960D01*
X2627205Y-5226960D02*
X2608158Y-5236484D01*
X2608158Y-5236484D02*
X2551015Y-5236484D01*
X2551015Y-5236484D02*
X2531967Y-5226960D01*
X2531967Y-5226960D02*
X2522444Y-5217436D01*
X2770063Y-5036484D02*
X2789110Y-5036484D01*
X2789110Y-5036484D02*
X2808158Y-5046008D01*
X2808158Y-5046008D02*
X2817682Y-5055531D01*
X2817682Y-5055531D02*
X2827205Y-5074579D01*
X2827205Y-5074579D02*
X2836729Y-5112674D01*
X2836729Y-5112674D02*
X2836729Y-5160293D01*
X2836729Y-5160293D02*
X2827205Y-5198389D01*
X2827205Y-5198389D02*
X2817682Y-5217436D01*
X2817682Y-5217436D02*
X2808158Y-5226960D01*
X2808158Y-5226960D02*
X2789110Y-5236484D01*
X2789110Y-5236484D02*
X2770063Y-5236484D01*
X2770063Y-5236484D02*
X2751015Y-5226960D01*
X2751015Y-5226960D02*
X2741491Y-5217436D01*
X2741491Y-5217436D02*
X2731967Y-5198389D01*
X2731967Y-5198389D02*
X2722444Y-5160293D01*
X2722444Y-5160293D02*
X2722444Y-5112674D01*
X2722444Y-5112674D02*
X2731967Y-5074579D01*
X2731967Y-5074579D02*
X2741491Y-5055531D01*
X2741491Y-5055531D02*
X2751015Y-5046008D01*
X2751015Y-5046008D02*
X2770063Y-5036484D01*
X2960539Y-5036484D02*
X2979586Y-5036484D01*
X2979586Y-5036484D02*
X2998634Y-5046008D01*
X2998634Y-5046008D02*
X3008158Y-5055531D01*
X3008158Y-5055531D02*
X3017682Y-5074579D01*
X3017682Y-5074579D02*
X3027205Y-5112674D01*
X3027205Y-5112674D02*
X3027205Y-5160293D01*
X3027205Y-5160293D02*
X3017682Y-5198389D01*
X3017682Y-5198389D02*
X3008158Y-5217436D01*
X3008158Y-5217436D02*
X2998634Y-5226960D01*
X2998634Y-5226960D02*
X2979586Y-5236484D01*
X2979586Y-5236484D02*
X2960539Y-5236484D01*
X2960539Y-5236484D02*
X2941491Y-5226960D01*
X2941491Y-5226960D02*
X2931967Y-5217436D01*
X2931967Y-5217436D02*
X2922443Y-5198389D01*
X2922443Y-5198389D02*
X2912920Y-5160293D01*
X2912920Y-5160293D02*
X2912920Y-5112674D01*
X2912920Y-5112674D02*
X2922443Y-5074579D01*
X2922443Y-5074579D02*
X2931967Y-5055531D01*
X2931967Y-5055531D02*
X2941491Y-5046008D01*
X2941491Y-5046008D02*
X2960539Y-5036484D01*
X3112920Y-5236484D02*
X3112920Y-5103150D01*
X3112920Y-5122198D02*
X3122443Y-5112674D01*
X3122443Y-5112674D02*
X3141491Y-5103150D01*
X3141491Y-5103150D02*
X3170063Y-5103150D01*
X3170063Y-5103150D02*
X3189110Y-5112674D01*
X3189110Y-5112674D02*
X3198634Y-5131722D01*
X3198634Y-5131722D02*
X3198634Y-5236484D01*
X3198634Y-5131722D02*
X3208158Y-5112674D01*
X3208158Y-5112674D02*
X3227205Y-5103150D01*
X3227205Y-5103150D02*
X3255777Y-5103150D01*
X3255777Y-5103150D02*
X3274824Y-5112674D01*
X3274824Y-5112674D02*
X3284348Y-5131722D01*
X3284348Y-5131722D02*
X3284348Y-5236484D01*
X3379586Y-5236484D02*
X3379586Y-5103150D01*
X3379586Y-5122198D02*
X3389110Y-5112674D01*
X3389110Y-5112674D02*
X3408158Y-5103150D01*
X3408158Y-5103150D02*
X3436729Y-5103150D01*
X3436729Y-5103150D02*
X3455777Y-5112674D01*
X3455777Y-5112674D02*
X3465301Y-5131722D01*
X3465301Y-5131722D02*
X3465301Y-5236484D01*
X3465301Y-5131722D02*
X3474824Y-5112674D01*
X3474824Y-5112674D02*
X3493872Y-5103150D01*
X3493872Y-5103150D02*
X3522443Y-5103150D01*
X3522443Y-5103150D02*
X3541491Y-5112674D01*
X3541491Y-5112674D02*
X3551015Y-5131722D01*
X3551015Y-5131722D02*
X3551015Y-5236484D01*
X3941491Y-5026960D02*
X3770063Y-5284103D01*
X4198634Y-5036484D02*
X4217682Y-5036484D01*
X4217682Y-5036484D02*
X4236729Y-5046008D01*
X4236729Y-5046008D02*
X4246253Y-5055531D01*
X4246253Y-5055531D02*
X4255777Y-5074579D01*
X4255777Y-5074579D02*
X4265301Y-5112674D01*
X4265301Y-5112674D02*
X4265301Y-5160293D01*
X4265301Y-5160293D02*
X4255777Y-5198389D01*
X4255777Y-5198389D02*
X4246253Y-5217436D01*
X4246253Y-5217436D02*
X4236729Y-5226960D01*
X4236729Y-5226960D02*
X4217682Y-5236484D01*
X4217682Y-5236484D02*
X4198634Y-5236484D01*
X4198634Y-5236484D02*
X4179586Y-5226960D01*
X4179586Y-5226960D02*
X4170063Y-5217436D01*
X4170063Y-5217436D02*
X4160539Y-5198389D01*
X4160539Y-5198389D02*
X4151015Y-5160293D01*
X4151015Y-5160293D02*
X4151015Y-5112674D01*
X4151015Y-5112674D02*
X4160539Y-5074579D01*
X4160539Y-5074579D02*
X4170063Y-5055531D01*
X4170063Y-5055531D02*
X4179586Y-5046008D01*
X4179586Y-5046008D02*
X4198634Y-5036484D01*
X4351015Y-5217436D02*
X4360539Y-5226960D01*
X4360539Y-5226960D02*
X4351015Y-5236484D01*
X4351015Y-5236484D02*
X4341491Y-5226960D01*
X4341491Y-5226960D02*
X4351015Y-5217436D01*
X4351015Y-5217436D02*
X4351015Y-5236484D01*
X4484348Y-5036484D02*
X4503396Y-5036484D01*
X4503396Y-5036484D02*
X4522444Y-5046008D01*
X4522444Y-5046008D02*
X4531968Y-5055531D01*
X4531968Y-5055531D02*
X4541491Y-5074579D01*
X4541491Y-5074579D02*
X4551015Y-5112674D01*
X4551015Y-5112674D02*
X4551015Y-5160293D01*
X4551015Y-5160293D02*
X4541491Y-5198389D01*
X4541491Y-5198389D02*
X4531968Y-5217436D01*
X4531968Y-5217436D02*
X4522444Y-5226960D01*
X4522444Y-5226960D02*
X4503396Y-5236484D01*
X4503396Y-5236484D02*
X4484348Y-5236484D01*
X4484348Y-5236484D02*
X4465301Y-5226960D01*
X4465301Y-5226960D02*
X4455777Y-5217436D01*
X4455777Y-5217436D02*
X4446253Y-5198389D01*
X4446253Y-5198389D02*
X4436729Y-5160293D01*
X4436729Y-5160293D02*
X4436729Y-5112674D01*
X4436729Y-5112674D02*
X4446253Y-5074579D01*
X4446253Y-5074579D02*
X4455777Y-5055531D01*
X4455777Y-5055531D02*
X4465301Y-5046008D01*
X4465301Y-5046008D02*
X4484348Y-5036484D01*
X4741491Y-5236484D02*
X4627206Y-5236484D01*
X4684348Y-5236484D02*
X4684348Y-5036484D01*
X4684348Y-5036484D02*
X4665301Y-5065055D01*
X4665301Y-5065055D02*
X4646253Y-5084103D01*
X4646253Y-5084103D02*
X4627206Y-5093627D01*
X4931968Y-5236484D02*
X4817682Y-5236484D01*
X4874825Y-5236484D02*
X4874825Y-5036484D01*
X4874825Y-5036484D02*
X4855777Y-5065055D01*
X4855777Y-5065055D02*
X4836729Y-5084103D01*
X4836729Y-5084103D02*
X4817682Y-5093627D01*
X5046253Y-5122198D02*
X5027206Y-5112674D01*
X5027206Y-5112674D02*
X5017682Y-5103150D01*
X5017682Y-5103150D02*
X5008158Y-5084103D01*
X5008158Y-5084103D02*
X5008158Y-5074579D01*
X5008158Y-5074579D02*
X5017682Y-5055531D01*
X5017682Y-5055531D02*
X5027206Y-5046008D01*
X5027206Y-5046008D02*
X5046253Y-5036484D01*
X5046253Y-5036484D02*
X5084349Y-5036484D01*
X5084349Y-5036484D02*
X5103396Y-5046008D01*
X5103396Y-5046008D02*
X5112920Y-5055531D01*
X5112920Y-5055531D02*
X5122444Y-5074579D01*
X5122444Y-5074579D02*
X5122444Y-5084103D01*
X5122444Y-5084103D02*
X5112920Y-5103150D01*
X5112920Y-5103150D02*
X5103396Y-5112674D01*
X5103396Y-5112674D02*
X5084349Y-5122198D01*
X5084349Y-5122198D02*
X5046253Y-5122198D01*
X5046253Y-5122198D02*
X5027206Y-5131722D01*
X5027206Y-5131722D02*
X5017682Y-5141246D01*
X5017682Y-5141246D02*
X5008158Y-5160293D01*
X5008158Y-5160293D02*
X5008158Y-5198389D01*
X5008158Y-5198389D02*
X5017682Y-5217436D01*
X5017682Y-5217436D02*
X5027206Y-5226960D01*
X5027206Y-5226960D02*
X5046253Y-5236484D01*
X5046253Y-5236484D02*
X5084349Y-5236484D01*
X5084349Y-5236484D02*
X5103396Y-5226960D01*
X5103396Y-5226960D02*
X5112920Y-5217436D01*
X5112920Y-5217436D02*
X5122444Y-5198389D01*
X5122444Y-5198389D02*
X5122444Y-5160293D01*
X5122444Y-5160293D02*
X5112920Y-5141246D01*
X5112920Y-5141246D02*
X5103396Y-5131722D01*
X5103396Y-5131722D02*
X5084349Y-5122198D01*
X5198634Y-5036484D02*
X5198634Y-5074579D01*
X5274825Y-5036484D02*
X5274825Y-5074579D01*
X5570063Y-5312674D02*
X5560539Y-5303150D01*
X5560539Y-5303150D02*
X5541491Y-5274579D01*
X5541491Y-5274579D02*
X5531968Y-5255531D01*
X5531968Y-5255531D02*
X5522444Y-5226960D01*
X5522444Y-5226960D02*
X5512920Y-5179341D01*
X5512920Y-5179341D02*
X5512920Y-5141246D01*
X5512920Y-5141246D02*
X5522444Y-5093627D01*
X5522444Y-5093627D02*
X5531968Y-5065055D01*
X5531968Y-5065055D02*
X5541491Y-5046008D01*
X5541491Y-5046008D02*
X5560539Y-5017436D01*
X5560539Y-5017436D02*
X5570063Y-5007912D01*
X5741491Y-5036484D02*
X5646253Y-5036484D01*
X5646253Y-5036484D02*
X5636729Y-5131722D01*
X5636729Y-5131722D02*
X5646253Y-5122198D01*
X5646253Y-5122198D02*
X5665301Y-5112674D01*
X5665301Y-5112674D02*
X5712920Y-5112674D01*
X5712920Y-5112674D02*
X5731968Y-5122198D01*
X5731968Y-5122198D02*
X5741491Y-5131722D01*
X5741491Y-5131722D02*
X5751015Y-5150770D01*
X5751015Y-5150770D02*
X5751015Y-5198389D01*
X5751015Y-5198389D02*
X5741491Y-5217436D01*
X5741491Y-5217436D02*
X5731968Y-5226960D01*
X5731968Y-5226960D02*
X5712920Y-5236484D01*
X5712920Y-5236484D02*
X5665301Y-5236484D01*
X5665301Y-5236484D02*
X5646253Y-5226960D01*
X5646253Y-5226960D02*
X5636729Y-5217436D01*
X5931968Y-5036484D02*
X5836729Y-5036484D01*
X5836729Y-5036484D02*
X5827206Y-5131722D01*
X5827206Y-5131722D02*
X5836729Y-5122198D01*
X5836729Y-5122198D02*
X5855777Y-5112674D01*
X5855777Y-5112674D02*
X5903396Y-5112674D01*
X5903396Y-5112674D02*
X5922444Y-5122198D01*
X5922444Y-5122198D02*
X5931968Y-5131722D01*
X5931968Y-5131722D02*
X5941491Y-5150770D01*
X5941491Y-5150770D02*
X5941491Y-5198389D01*
X5941491Y-5198389D02*
X5931968Y-5217436D01*
X5931968Y-5217436D02*
X5922444Y-5226960D01*
X5922444Y-5226960D02*
X5903396Y-5236484D01*
X5903396Y-5236484D02*
X5855777Y-5236484D01*
X5855777Y-5236484D02*
X5836729Y-5226960D01*
X5836729Y-5226960D02*
X5827206Y-5217436D01*
X6179587Y-5236484D02*
X6179587Y-5036484D01*
X6265301Y-5236484D02*
X6265301Y-5131722D01*
X6265301Y-5131722D02*
X6255777Y-5112674D01*
X6255777Y-5112674D02*
X6236730Y-5103150D01*
X6236730Y-5103150D02*
X6208158Y-5103150D01*
X6208158Y-5103150D02*
X6189110Y-5112674D01*
X6189110Y-5112674D02*
X6179587Y-5122198D01*
X6389110Y-5236484D02*
X6370063Y-5226960D01*
X6370063Y-5226960D02*
X6360539Y-5217436D01*
X6360539Y-5217436D02*
X6351015Y-5198389D01*
X6351015Y-5198389D02*
X6351015Y-5141246D01*
X6351015Y-5141246D02*
X6360539Y-5122198D01*
X6360539Y-5122198D02*
X6370063Y-5112674D01*
X6370063Y-5112674D02*
X6389110Y-5103150D01*
X6389110Y-5103150D02*
X6417682Y-5103150D01*
X6417682Y-5103150D02*
X6436730Y-5112674D01*
X6436730Y-5112674D02*
X6446253Y-5122198D01*
X6446253Y-5122198D02*
X6455777Y-5141246D01*
X6455777Y-5141246D02*
X6455777Y-5198389D01*
X6455777Y-5198389D02*
X6446253Y-5217436D01*
X6446253Y-5217436D02*
X6436730Y-5226960D01*
X6436730Y-5226960D02*
X6417682Y-5236484D01*
X6417682Y-5236484D02*
X6389110Y-5236484D01*
X6570063Y-5236484D02*
X6551015Y-5226960D01*
X6551015Y-5226960D02*
X6541491Y-5207912D01*
X6541491Y-5207912D02*
X6541491Y-5036484D01*
X6722444Y-5226960D02*
X6703396Y-5236484D01*
X6703396Y-5236484D02*
X6665301Y-5236484D01*
X6665301Y-5236484D02*
X6646253Y-5226960D01*
X6646253Y-5226960D02*
X6636730Y-5207912D01*
X6636730Y-5207912D02*
X6636730Y-5131722D01*
X6636730Y-5131722D02*
X6646253Y-5112674D01*
X6646253Y-5112674D02*
X6665301Y-5103150D01*
X6665301Y-5103150D02*
X6703396Y-5103150D01*
X6703396Y-5103150D02*
X6722444Y-5112674D01*
X6722444Y-5112674D02*
X6731968Y-5131722D01*
X6731968Y-5131722D02*
X6731968Y-5150770D01*
X6731968Y-5150770D02*
X6636730Y-5169817D01*
X6808158Y-5226960D02*
X6827206Y-5236484D01*
X6827206Y-5236484D02*
X6865301Y-5236484D01*
X6865301Y-5236484D02*
X6884349Y-5226960D01*
X6884349Y-5226960D02*
X6893872Y-5207912D01*
X6893872Y-5207912D02*
X6893872Y-5198389D01*
X6893872Y-5198389D02*
X6884349Y-5179341D01*
X6884349Y-5179341D02*
X6865301Y-5169817D01*
X6865301Y-5169817D02*
X6836730Y-5169817D01*
X6836730Y-5169817D02*
X6817682Y-5160293D01*
X6817682Y-5160293D02*
X6808158Y-5141246D01*
X6808158Y-5141246D02*
X6808158Y-5131722D01*
X6808158Y-5131722D02*
X6817682Y-5112674D01*
X6817682Y-5112674D02*
X6836730Y-5103150D01*
X6836730Y-5103150D02*
X6865301Y-5103150D01*
X6865301Y-5103150D02*
X6884349Y-5112674D01*
X6960539Y-5312674D02*
X6970063Y-5303150D01*
X6970063Y-5303150D02*
X6989111Y-5274579D01*
X6989111Y-5274579D02*
X6998634Y-5255531D01*
X6998634Y-5255531D02*
X7008158Y-5226960D01*
X7008158Y-5226960D02*
X7017682Y-5179341D01*
X7017682Y-5179341D02*
X7017682Y-5141246D01*
X7017682Y-5141246D02*
X7008158Y-5093627D01*
X7008158Y-5093627D02*
X6998634Y-5065055D01*
X6998634Y-5065055D02*
X6989111Y-5046008D01*
X6989111Y-5046008D02*
X6970063Y-5017436D01*
X6970063Y-5017436D02*
X6960539Y-5007912D01*
D13*
X1995000Y-5409000D02*
G75*
G03*
X1995000Y-5409000I-20000J0D01*
G01*
D11*
X2293872Y-5300484D02*
X2312920Y-5300484D01*
X2312920Y-5300484D02*
X2331967Y-5310008D01*
X2331967Y-5310008D02*
X2341491Y-5319531D01*
X2341491Y-5319531D02*
X2351015Y-5338579D01*
X2351015Y-5338579D02*
X2360539Y-5376674D01*
X2360539Y-5376674D02*
X2360539Y-5424293D01*
X2360539Y-5424293D02*
X2351015Y-5462389D01*
X2351015Y-5462389D02*
X2341491Y-5481436D01*
X2341491Y-5481436D02*
X2331967Y-5490960D01*
X2331967Y-5490960D02*
X2312920Y-5500484D01*
X2312920Y-5500484D02*
X2293872Y-5500484D01*
X2293872Y-5500484D02*
X2274824Y-5490960D01*
X2274824Y-5490960D02*
X2265301Y-5481436D01*
X2265301Y-5481436D02*
X2255777Y-5462389D01*
X2255777Y-5462389D02*
X2246253Y-5424293D01*
X2246253Y-5424293D02*
X2246253Y-5376674D01*
X2246253Y-5376674D02*
X2255777Y-5338579D01*
X2255777Y-5338579D02*
X2265301Y-5319531D01*
X2265301Y-5319531D02*
X2274824Y-5310008D01*
X2274824Y-5310008D02*
X2293872Y-5300484D01*
X2446253Y-5481436D02*
X2455777Y-5490960D01*
X2455777Y-5490960D02*
X2446253Y-5500484D01*
X2446253Y-5500484D02*
X2436729Y-5490960D01*
X2436729Y-5490960D02*
X2446253Y-5481436D01*
X2446253Y-5481436D02*
X2446253Y-5500484D01*
X2627205Y-5367150D02*
X2627205Y-5500484D01*
X2579586Y-5290960D02*
X2531967Y-5433817D01*
X2531967Y-5433817D02*
X2655777Y-5433817D01*
X2770063Y-5300484D02*
X2789110Y-5300484D01*
X2789110Y-5300484D02*
X2808158Y-5310008D01*
X2808158Y-5310008D02*
X2817682Y-5319531D01*
X2817682Y-5319531D02*
X2827205Y-5338579D01*
X2827205Y-5338579D02*
X2836729Y-5376674D01*
X2836729Y-5376674D02*
X2836729Y-5424293D01*
X2836729Y-5424293D02*
X2827205Y-5462389D01*
X2827205Y-5462389D02*
X2817682Y-5481436D01*
X2817682Y-5481436D02*
X2808158Y-5490960D01*
X2808158Y-5490960D02*
X2789110Y-5500484D01*
X2789110Y-5500484D02*
X2770063Y-5500484D01*
X2770063Y-5500484D02*
X2751015Y-5490960D01*
X2751015Y-5490960D02*
X2741491Y-5481436D01*
X2741491Y-5481436D02*
X2731967Y-5462389D01*
X2731967Y-5462389D02*
X2722444Y-5424293D01*
X2722444Y-5424293D02*
X2722444Y-5376674D01*
X2722444Y-5376674D02*
X2731967Y-5338579D01*
X2731967Y-5338579D02*
X2741491Y-5319531D01*
X2741491Y-5319531D02*
X2751015Y-5310008D01*
X2751015Y-5310008D02*
X2770063Y-5300484D01*
X2960539Y-5300484D02*
X2979586Y-5300484D01*
X2979586Y-5300484D02*
X2998634Y-5310008D01*
X2998634Y-5310008D02*
X3008158Y-5319531D01*
X3008158Y-5319531D02*
X3017682Y-5338579D01*
X3017682Y-5338579D02*
X3027205Y-5376674D01*
X3027205Y-5376674D02*
X3027205Y-5424293D01*
X3027205Y-5424293D02*
X3017682Y-5462389D01*
X3017682Y-5462389D02*
X3008158Y-5481436D01*
X3008158Y-5481436D02*
X2998634Y-5490960D01*
X2998634Y-5490960D02*
X2979586Y-5500484D01*
X2979586Y-5500484D02*
X2960539Y-5500484D01*
X2960539Y-5500484D02*
X2941491Y-5490960D01*
X2941491Y-5490960D02*
X2931967Y-5481436D01*
X2931967Y-5481436D02*
X2922443Y-5462389D01*
X2922443Y-5462389D02*
X2912920Y-5424293D01*
X2912920Y-5424293D02*
X2912920Y-5376674D01*
X2912920Y-5376674D02*
X2922443Y-5338579D01*
X2922443Y-5338579D02*
X2931967Y-5319531D01*
X2931967Y-5319531D02*
X2941491Y-5310008D01*
X2941491Y-5310008D02*
X2960539Y-5300484D01*
X3112920Y-5500484D02*
X3112920Y-5367150D01*
X3112920Y-5386198D02*
X3122443Y-5376674D01*
X3122443Y-5376674D02*
X3141491Y-5367150D01*
X3141491Y-5367150D02*
X3170063Y-5367150D01*
X3170063Y-5367150D02*
X3189110Y-5376674D01*
X3189110Y-5376674D02*
X3198634Y-5395722D01*
X3198634Y-5395722D02*
X3198634Y-5500484D01*
X3198634Y-5395722D02*
X3208158Y-5376674D01*
X3208158Y-5376674D02*
X3227205Y-5367150D01*
X3227205Y-5367150D02*
X3255777Y-5367150D01*
X3255777Y-5367150D02*
X3274824Y-5376674D01*
X3274824Y-5376674D02*
X3284348Y-5395722D01*
X3284348Y-5395722D02*
X3284348Y-5500484D01*
X3379586Y-5500484D02*
X3379586Y-5367150D01*
X3379586Y-5386198D02*
X3389110Y-5376674D01*
X3389110Y-5376674D02*
X3408158Y-5367150D01*
X3408158Y-5367150D02*
X3436729Y-5367150D01*
X3436729Y-5367150D02*
X3455777Y-5376674D01*
X3455777Y-5376674D02*
X3465301Y-5395722D01*
X3465301Y-5395722D02*
X3465301Y-5500484D01*
X3465301Y-5395722D02*
X3474824Y-5376674D01*
X3474824Y-5376674D02*
X3493872Y-5367150D01*
X3493872Y-5367150D02*
X3522443Y-5367150D01*
X3522443Y-5367150D02*
X3541491Y-5376674D01*
X3541491Y-5376674D02*
X3551015Y-5395722D01*
X3551015Y-5395722D02*
X3551015Y-5500484D01*
X3941491Y-5290960D02*
X3770063Y-5548103D01*
X4198634Y-5300484D02*
X4217682Y-5300484D01*
X4217682Y-5300484D02*
X4236729Y-5310008D01*
X4236729Y-5310008D02*
X4246253Y-5319531D01*
X4246253Y-5319531D02*
X4255777Y-5338579D01*
X4255777Y-5338579D02*
X4265301Y-5376674D01*
X4265301Y-5376674D02*
X4265301Y-5424293D01*
X4265301Y-5424293D02*
X4255777Y-5462389D01*
X4255777Y-5462389D02*
X4246253Y-5481436D01*
X4246253Y-5481436D02*
X4236729Y-5490960D01*
X4236729Y-5490960D02*
X4217682Y-5500484D01*
X4217682Y-5500484D02*
X4198634Y-5500484D01*
X4198634Y-5500484D02*
X4179586Y-5490960D01*
X4179586Y-5490960D02*
X4170063Y-5481436D01*
X4170063Y-5481436D02*
X4160539Y-5462389D01*
X4160539Y-5462389D02*
X4151015Y-5424293D01*
X4151015Y-5424293D02*
X4151015Y-5376674D01*
X4151015Y-5376674D02*
X4160539Y-5338579D01*
X4160539Y-5338579D02*
X4170063Y-5319531D01*
X4170063Y-5319531D02*
X4179586Y-5310008D01*
X4179586Y-5310008D02*
X4198634Y-5300484D01*
X4351015Y-5481436D02*
X4360539Y-5490960D01*
X4360539Y-5490960D02*
X4351015Y-5500484D01*
X4351015Y-5500484D02*
X4341491Y-5490960D01*
X4341491Y-5490960D02*
X4351015Y-5481436D01*
X4351015Y-5481436D02*
X4351015Y-5500484D01*
X4484348Y-5300484D02*
X4503396Y-5300484D01*
X4503396Y-5300484D02*
X4522444Y-5310008D01*
X4522444Y-5310008D02*
X4531968Y-5319531D01*
X4531968Y-5319531D02*
X4541491Y-5338579D01*
X4541491Y-5338579D02*
X4551015Y-5376674D01*
X4551015Y-5376674D02*
X4551015Y-5424293D01*
X4551015Y-5424293D02*
X4541491Y-5462389D01*
X4541491Y-5462389D02*
X4531968Y-5481436D01*
X4531968Y-5481436D02*
X4522444Y-5490960D01*
X4522444Y-5490960D02*
X4503396Y-5500484D01*
X4503396Y-5500484D02*
X4484348Y-5500484D01*
X4484348Y-5500484D02*
X4465301Y-5490960D01*
X4465301Y-5490960D02*
X4455777Y-5481436D01*
X4455777Y-5481436D02*
X4446253Y-5462389D01*
X4446253Y-5462389D02*
X4436729Y-5424293D01*
X4436729Y-5424293D02*
X4436729Y-5376674D01*
X4436729Y-5376674D02*
X4446253Y-5338579D01*
X4446253Y-5338579D02*
X4455777Y-5319531D01*
X4455777Y-5319531D02*
X4465301Y-5310008D01*
X4465301Y-5310008D02*
X4484348Y-5300484D01*
X4741491Y-5500484D02*
X4627206Y-5500484D01*
X4684348Y-5500484D02*
X4684348Y-5300484D01*
X4684348Y-5300484D02*
X4665301Y-5329055D01*
X4665301Y-5329055D02*
X4646253Y-5348103D01*
X4646253Y-5348103D02*
X4627206Y-5357627D01*
X4922444Y-5300484D02*
X4827206Y-5300484D01*
X4827206Y-5300484D02*
X4817682Y-5395722D01*
X4817682Y-5395722D02*
X4827206Y-5386198D01*
X4827206Y-5386198D02*
X4846253Y-5376674D01*
X4846253Y-5376674D02*
X4893872Y-5376674D01*
X4893872Y-5376674D02*
X4912920Y-5386198D01*
X4912920Y-5386198D02*
X4922444Y-5395722D01*
X4922444Y-5395722D02*
X4931968Y-5414770D01*
X4931968Y-5414770D02*
X4931968Y-5462389D01*
X4931968Y-5462389D02*
X4922444Y-5481436D01*
X4922444Y-5481436D02*
X4912920Y-5490960D01*
X4912920Y-5490960D02*
X4893872Y-5500484D01*
X4893872Y-5500484D02*
X4846253Y-5500484D01*
X4846253Y-5500484D02*
X4827206Y-5490960D01*
X4827206Y-5490960D02*
X4817682Y-5481436D01*
X4998634Y-5300484D02*
X5131968Y-5300484D01*
X5131968Y-5300484D02*
X5046253Y-5500484D01*
X5198634Y-5300484D02*
X5198634Y-5338579D01*
X5274825Y-5300484D02*
X5274825Y-5338579D01*
X5570063Y-5576674D02*
X5560539Y-5567150D01*
X5560539Y-5567150D02*
X5541491Y-5538579D01*
X5541491Y-5538579D02*
X5531968Y-5519531D01*
X5531968Y-5519531D02*
X5522444Y-5490960D01*
X5522444Y-5490960D02*
X5512920Y-5443341D01*
X5512920Y-5443341D02*
X5512920Y-5405246D01*
X5512920Y-5405246D02*
X5522444Y-5357627D01*
X5522444Y-5357627D02*
X5531968Y-5329055D01*
X5531968Y-5329055D02*
X5541491Y-5310008D01*
X5541491Y-5310008D02*
X5560539Y-5281436D01*
X5560539Y-5281436D02*
X5570063Y-5271912D01*
X5655777Y-5500484D02*
X5693872Y-5500484D01*
X5693872Y-5500484D02*
X5712920Y-5490960D01*
X5712920Y-5490960D02*
X5722444Y-5481436D01*
X5722444Y-5481436D02*
X5741491Y-5452865D01*
X5741491Y-5452865D02*
X5751015Y-5414770D01*
X5751015Y-5414770D02*
X5751015Y-5338579D01*
X5751015Y-5338579D02*
X5741491Y-5319531D01*
X5741491Y-5319531D02*
X5731968Y-5310008D01*
X5731968Y-5310008D02*
X5712920Y-5300484D01*
X5712920Y-5300484D02*
X5674825Y-5300484D01*
X5674825Y-5300484D02*
X5655777Y-5310008D01*
X5655777Y-5310008D02*
X5646253Y-5319531D01*
X5646253Y-5319531D02*
X5636729Y-5338579D01*
X5636729Y-5338579D02*
X5636729Y-5386198D01*
X5636729Y-5386198D02*
X5646253Y-5405246D01*
X5646253Y-5405246D02*
X5655777Y-5414770D01*
X5655777Y-5414770D02*
X5674825Y-5424293D01*
X5674825Y-5424293D02*
X5712920Y-5424293D01*
X5712920Y-5424293D02*
X5731968Y-5414770D01*
X5731968Y-5414770D02*
X5741491Y-5405246D01*
X5741491Y-5405246D02*
X5751015Y-5386198D01*
X5989110Y-5500484D02*
X5989110Y-5300484D01*
X6074825Y-5500484D02*
X6074825Y-5395722D01*
X6074825Y-5395722D02*
X6065301Y-5376674D01*
X6065301Y-5376674D02*
X6046253Y-5367150D01*
X6046253Y-5367150D02*
X6017682Y-5367150D01*
X6017682Y-5367150D02*
X5998634Y-5376674D01*
X5998634Y-5376674D02*
X5989110Y-5386198D01*
X6198634Y-5500484D02*
X6179587Y-5490960D01*
X6179587Y-5490960D02*
X6170063Y-5481436D01*
X6170063Y-5481436D02*
X6160539Y-5462389D01*
X6160539Y-5462389D02*
X6160539Y-5405246D01*
X6160539Y-5405246D02*
X6170063Y-5386198D01*
X6170063Y-5386198D02*
X6179587Y-5376674D01*
X6179587Y-5376674D02*
X6198634Y-5367150D01*
X6198634Y-5367150D02*
X6227206Y-5367150D01*
X6227206Y-5367150D02*
X6246253Y-5376674D01*
X6246253Y-5376674D02*
X6255777Y-5386198D01*
X6255777Y-5386198D02*
X6265301Y-5405246D01*
X6265301Y-5405246D02*
X6265301Y-5462389D01*
X6265301Y-5462389D02*
X6255777Y-5481436D01*
X6255777Y-5481436D02*
X6246253Y-5490960D01*
X6246253Y-5490960D02*
X6227206Y-5500484D01*
X6227206Y-5500484D02*
X6198634Y-5500484D01*
X6379587Y-5500484D02*
X6360539Y-5490960D01*
X6360539Y-5490960D02*
X6351015Y-5471912D01*
X6351015Y-5471912D02*
X6351015Y-5300484D01*
X6531968Y-5490960D02*
X6512920Y-5500484D01*
X6512920Y-5500484D02*
X6474825Y-5500484D01*
X6474825Y-5500484D02*
X6455777Y-5490960D01*
X6455777Y-5490960D02*
X6446253Y-5471912D01*
X6446253Y-5471912D02*
X6446253Y-5395722D01*
X6446253Y-5395722D02*
X6455777Y-5376674D01*
X6455777Y-5376674D02*
X6474825Y-5367150D01*
X6474825Y-5367150D02*
X6512920Y-5367150D01*
X6512920Y-5367150D02*
X6531968Y-5376674D01*
X6531968Y-5376674D02*
X6541491Y-5395722D01*
X6541491Y-5395722D02*
X6541491Y-5414770D01*
X6541491Y-5414770D02*
X6446253Y-5433817D01*
X6617682Y-5490960D02*
X6636730Y-5500484D01*
X6636730Y-5500484D02*
X6674825Y-5500484D01*
X6674825Y-5500484D02*
X6693872Y-5490960D01*
X6693872Y-5490960D02*
X6703396Y-5471912D01*
X6703396Y-5471912D02*
X6703396Y-5462389D01*
X6703396Y-5462389D02*
X6693872Y-5443341D01*
X6693872Y-5443341D02*
X6674825Y-5433817D01*
X6674825Y-5433817D02*
X6646253Y-5433817D01*
X6646253Y-5433817D02*
X6627206Y-5424293D01*
X6627206Y-5424293D02*
X6617682Y-5405246D01*
X6617682Y-5405246D02*
X6617682Y-5395722D01*
X6617682Y-5395722D02*
X6627206Y-5376674D01*
X6627206Y-5376674D02*
X6646253Y-5367150D01*
X6646253Y-5367150D02*
X6674825Y-5367150D01*
X6674825Y-5367150D02*
X6693872Y-5376674D01*
X6770063Y-5576674D02*
X6779587Y-5567150D01*
X6779587Y-5567150D02*
X6798634Y-5538579D01*
X6798634Y-5538579D02*
X6808158Y-5519531D01*
X6808158Y-5519531D02*
X6817682Y-5490960D01*
X6817682Y-5490960D02*
X6827206Y-5443341D01*
X6827206Y-5443341D02*
X6827206Y-5405246D01*
X6827206Y-5405246D02*
X6817682Y-5357627D01*
X6817682Y-5357627D02*
X6808158Y-5329055D01*
X6808158Y-5329055D02*
X6798634Y-5310008D01*
X6798634Y-5310008D02*
X6779587Y-5281436D01*
X6779587Y-5281436D02*
X6770063Y-5271912D01*
D14*
X1970000Y-5648000D02*
X1970000Y-5698000D01*
X1945000Y-5673000D02*
X1995000Y-5673000D01*
D11*
X2293872Y-5564484D02*
X2312920Y-5564484D01*
X2312920Y-5564484D02*
X2331967Y-5574008D01*
X2331967Y-5574008D02*
X2341491Y-5583531D01*
X2341491Y-5583531D02*
X2351015Y-5602579D01*
X2351015Y-5602579D02*
X2360539Y-5640674D01*
X2360539Y-5640674D02*
X2360539Y-5688293D01*
X2360539Y-5688293D02*
X2351015Y-5726388D01*
X2351015Y-5726388D02*
X2341491Y-5745436D01*
X2341491Y-5745436D02*
X2331967Y-5754960D01*
X2331967Y-5754960D02*
X2312920Y-5764484D01*
X2312920Y-5764484D02*
X2293872Y-5764484D01*
X2293872Y-5764484D02*
X2274824Y-5754960D01*
X2274824Y-5754960D02*
X2265301Y-5745436D01*
X2265301Y-5745436D02*
X2255777Y-5726388D01*
X2255777Y-5726388D02*
X2246253Y-5688293D01*
X2246253Y-5688293D02*
X2246253Y-5640674D01*
X2246253Y-5640674D02*
X2255777Y-5602579D01*
X2255777Y-5602579D02*
X2265301Y-5583531D01*
X2265301Y-5583531D02*
X2274824Y-5574008D01*
X2274824Y-5574008D02*
X2293872Y-5564484D01*
X2446253Y-5745436D02*
X2455777Y-5754960D01*
X2455777Y-5754960D02*
X2446253Y-5764484D01*
X2446253Y-5764484D02*
X2436729Y-5754960D01*
X2436729Y-5754960D02*
X2446253Y-5745436D01*
X2446253Y-5745436D02*
X2446253Y-5764484D01*
X2636729Y-5564484D02*
X2541491Y-5564484D01*
X2541491Y-5564484D02*
X2531967Y-5659722D01*
X2531967Y-5659722D02*
X2541491Y-5650198D01*
X2541491Y-5650198D02*
X2560539Y-5640674D01*
X2560539Y-5640674D02*
X2608158Y-5640674D01*
X2608158Y-5640674D02*
X2627205Y-5650198D01*
X2627205Y-5650198D02*
X2636729Y-5659722D01*
X2636729Y-5659722D02*
X2646253Y-5678769D01*
X2646253Y-5678769D02*
X2646253Y-5726388D01*
X2646253Y-5726388D02*
X2636729Y-5745436D01*
X2636729Y-5745436D02*
X2627205Y-5754960D01*
X2627205Y-5754960D02*
X2608158Y-5764484D01*
X2608158Y-5764484D02*
X2560539Y-5764484D01*
X2560539Y-5764484D02*
X2541491Y-5754960D01*
X2541491Y-5754960D02*
X2531967Y-5745436D01*
X2770063Y-5564484D02*
X2789110Y-5564484D01*
X2789110Y-5564484D02*
X2808158Y-5574008D01*
X2808158Y-5574008D02*
X2817682Y-5583531D01*
X2817682Y-5583531D02*
X2827205Y-5602579D01*
X2827205Y-5602579D02*
X2836729Y-5640674D01*
X2836729Y-5640674D02*
X2836729Y-5688293D01*
X2836729Y-5688293D02*
X2827205Y-5726388D01*
X2827205Y-5726388D02*
X2817682Y-5745436D01*
X2817682Y-5745436D02*
X2808158Y-5754960D01*
X2808158Y-5754960D02*
X2789110Y-5764484D01*
X2789110Y-5764484D02*
X2770063Y-5764484D01*
X2770063Y-5764484D02*
X2751015Y-5754960D01*
X2751015Y-5754960D02*
X2741491Y-5745436D01*
X2741491Y-5745436D02*
X2731967Y-5726388D01*
X2731967Y-5726388D02*
X2722444Y-5688293D01*
X2722444Y-5688293D02*
X2722444Y-5640674D01*
X2722444Y-5640674D02*
X2731967Y-5602579D01*
X2731967Y-5602579D02*
X2741491Y-5583531D01*
X2741491Y-5583531D02*
X2751015Y-5574008D01*
X2751015Y-5574008D02*
X2770063Y-5564484D01*
X2960539Y-5564484D02*
X2979586Y-5564484D01*
X2979586Y-5564484D02*
X2998634Y-5574008D01*
X2998634Y-5574008D02*
X3008158Y-5583531D01*
X3008158Y-5583531D02*
X3017682Y-5602579D01*
X3017682Y-5602579D02*
X3027205Y-5640674D01*
X3027205Y-5640674D02*
X3027205Y-5688293D01*
X3027205Y-5688293D02*
X3017682Y-5726388D01*
X3017682Y-5726388D02*
X3008158Y-5745436D01*
X3008158Y-5745436D02*
X2998634Y-5754960D01*
X2998634Y-5754960D02*
X2979586Y-5764484D01*
X2979586Y-5764484D02*
X2960539Y-5764484D01*
X2960539Y-5764484D02*
X2941491Y-5754960D01*
X2941491Y-5754960D02*
X2931967Y-5745436D01*
X2931967Y-5745436D02*
X2922443Y-5726388D01*
X2922443Y-5726388D02*
X2912920Y-5688293D01*
X2912920Y-5688293D02*
X2912920Y-5640674D01*
X2912920Y-5640674D02*
X2922443Y-5602579D01*
X2922443Y-5602579D02*
X2931967Y-5583531D01*
X2931967Y-5583531D02*
X2941491Y-5574008D01*
X2941491Y-5574008D02*
X2960539Y-5564484D01*
X3112920Y-5764484D02*
X3112920Y-5631150D01*
X3112920Y-5650198D02*
X3122443Y-5640674D01*
X3122443Y-5640674D02*
X3141491Y-5631150D01*
X3141491Y-5631150D02*
X3170063Y-5631150D01*
X3170063Y-5631150D02*
X3189110Y-5640674D01*
X3189110Y-5640674D02*
X3198634Y-5659722D01*
X3198634Y-5659722D02*
X3198634Y-5764484D01*
X3198634Y-5659722D02*
X3208158Y-5640674D01*
X3208158Y-5640674D02*
X3227205Y-5631150D01*
X3227205Y-5631150D02*
X3255777Y-5631150D01*
X3255777Y-5631150D02*
X3274824Y-5640674D01*
X3274824Y-5640674D02*
X3284348Y-5659722D01*
X3284348Y-5659722D02*
X3284348Y-5764484D01*
X3379586Y-5764484D02*
X3379586Y-5631150D01*
X3379586Y-5650198D02*
X3389110Y-5640674D01*
X3389110Y-5640674D02*
X3408158Y-5631150D01*
X3408158Y-5631150D02*
X3436729Y-5631150D01*
X3436729Y-5631150D02*
X3455777Y-5640674D01*
X3455777Y-5640674D02*
X3465301Y-5659722D01*
X3465301Y-5659722D02*
X3465301Y-5764484D01*
X3465301Y-5659722D02*
X3474824Y-5640674D01*
X3474824Y-5640674D02*
X3493872Y-5631150D01*
X3493872Y-5631150D02*
X3522443Y-5631150D01*
X3522443Y-5631150D02*
X3541491Y-5640674D01*
X3541491Y-5640674D02*
X3551015Y-5659722D01*
X3551015Y-5659722D02*
X3551015Y-5764484D01*
X3941491Y-5554960D02*
X3770063Y-5812103D01*
X4198634Y-5564484D02*
X4217682Y-5564484D01*
X4217682Y-5564484D02*
X4236729Y-5574008D01*
X4236729Y-5574008D02*
X4246253Y-5583531D01*
X4246253Y-5583531D02*
X4255777Y-5602579D01*
X4255777Y-5602579D02*
X4265301Y-5640674D01*
X4265301Y-5640674D02*
X4265301Y-5688293D01*
X4265301Y-5688293D02*
X4255777Y-5726388D01*
X4255777Y-5726388D02*
X4246253Y-5745436D01*
X4246253Y-5745436D02*
X4236729Y-5754960D01*
X4236729Y-5754960D02*
X4217682Y-5764484D01*
X4217682Y-5764484D02*
X4198634Y-5764484D01*
X4198634Y-5764484D02*
X4179586Y-5754960D01*
X4179586Y-5754960D02*
X4170063Y-5745436D01*
X4170063Y-5745436D02*
X4160539Y-5726388D01*
X4160539Y-5726388D02*
X4151015Y-5688293D01*
X4151015Y-5688293D02*
X4151015Y-5640674D01*
X4151015Y-5640674D02*
X4160539Y-5602579D01*
X4160539Y-5602579D02*
X4170063Y-5583531D01*
X4170063Y-5583531D02*
X4179586Y-5574008D01*
X4179586Y-5574008D02*
X4198634Y-5564484D01*
X4351015Y-5745436D02*
X4360539Y-5754960D01*
X4360539Y-5754960D02*
X4351015Y-5764484D01*
X4351015Y-5764484D02*
X4341491Y-5754960D01*
X4341491Y-5754960D02*
X4351015Y-5745436D01*
X4351015Y-5745436D02*
X4351015Y-5764484D01*
X4484348Y-5564484D02*
X4503396Y-5564484D01*
X4503396Y-5564484D02*
X4522444Y-5574008D01*
X4522444Y-5574008D02*
X4531968Y-5583531D01*
X4531968Y-5583531D02*
X4541491Y-5602579D01*
X4541491Y-5602579D02*
X4551015Y-5640674D01*
X4551015Y-5640674D02*
X4551015Y-5688293D01*
X4551015Y-5688293D02*
X4541491Y-5726388D01*
X4541491Y-5726388D02*
X4531968Y-5745436D01*
X4531968Y-5745436D02*
X4522444Y-5754960D01*
X4522444Y-5754960D02*
X4503396Y-5764484D01*
X4503396Y-5764484D02*
X4484348Y-5764484D01*
X4484348Y-5764484D02*
X4465301Y-5754960D01*
X4465301Y-5754960D02*
X4455777Y-5745436D01*
X4455777Y-5745436D02*
X4446253Y-5726388D01*
X4446253Y-5726388D02*
X4436729Y-5688293D01*
X4436729Y-5688293D02*
X4436729Y-5640674D01*
X4436729Y-5640674D02*
X4446253Y-5602579D01*
X4446253Y-5602579D02*
X4455777Y-5583531D01*
X4455777Y-5583531D02*
X4465301Y-5574008D01*
X4465301Y-5574008D02*
X4484348Y-5564484D01*
X4741491Y-5764484D02*
X4627206Y-5764484D01*
X4684348Y-5764484D02*
X4684348Y-5564484D01*
X4684348Y-5564484D02*
X4665301Y-5593055D01*
X4665301Y-5593055D02*
X4646253Y-5612103D01*
X4646253Y-5612103D02*
X4627206Y-5621627D01*
X4836729Y-5764484D02*
X4874825Y-5764484D01*
X4874825Y-5764484D02*
X4893872Y-5754960D01*
X4893872Y-5754960D02*
X4903396Y-5745436D01*
X4903396Y-5745436D02*
X4922444Y-5716865D01*
X4922444Y-5716865D02*
X4931968Y-5678769D01*
X4931968Y-5678769D02*
X4931968Y-5602579D01*
X4931968Y-5602579D02*
X4922444Y-5583531D01*
X4922444Y-5583531D02*
X4912920Y-5574008D01*
X4912920Y-5574008D02*
X4893872Y-5564484D01*
X4893872Y-5564484D02*
X4855777Y-5564484D01*
X4855777Y-5564484D02*
X4836729Y-5574008D01*
X4836729Y-5574008D02*
X4827206Y-5583531D01*
X4827206Y-5583531D02*
X4817682Y-5602579D01*
X4817682Y-5602579D02*
X4817682Y-5650198D01*
X4817682Y-5650198D02*
X4827206Y-5669246D01*
X4827206Y-5669246D02*
X4836729Y-5678769D01*
X4836729Y-5678769D02*
X4855777Y-5688293D01*
X4855777Y-5688293D02*
X4893872Y-5688293D01*
X4893872Y-5688293D02*
X4912920Y-5678769D01*
X4912920Y-5678769D02*
X4922444Y-5669246D01*
X4922444Y-5669246D02*
X4931968Y-5650198D01*
X4998634Y-5564484D02*
X5131968Y-5564484D01*
X5131968Y-5564484D02*
X5046253Y-5764484D01*
X5198634Y-5564484D02*
X5198634Y-5602579D01*
X5274825Y-5564484D02*
X5274825Y-5602579D01*
X5570063Y-5840674D02*
X5560539Y-5831150D01*
X5560539Y-5831150D02*
X5541491Y-5802579D01*
X5541491Y-5802579D02*
X5531968Y-5783531D01*
X5531968Y-5783531D02*
X5522444Y-5754960D01*
X5522444Y-5754960D02*
X5512920Y-5707341D01*
X5512920Y-5707341D02*
X5512920Y-5669246D01*
X5512920Y-5669246D02*
X5522444Y-5621627D01*
X5522444Y-5621627D02*
X5531968Y-5593055D01*
X5531968Y-5593055D02*
X5541491Y-5574008D01*
X5541491Y-5574008D02*
X5560539Y-5545436D01*
X5560539Y-5545436D02*
X5570063Y-5535912D01*
X5731968Y-5631150D02*
X5731968Y-5764484D01*
X5684348Y-5554960D02*
X5636729Y-5697817D01*
X5636729Y-5697817D02*
X5760539Y-5697817D01*
X5989110Y-5764484D02*
X5989110Y-5564484D01*
X6074825Y-5764484D02*
X6074825Y-5659722D01*
X6074825Y-5659722D02*
X6065301Y-5640674D01*
X6065301Y-5640674D02*
X6046253Y-5631150D01*
X6046253Y-5631150D02*
X6017682Y-5631150D01*
X6017682Y-5631150D02*
X5998634Y-5640674D01*
X5998634Y-5640674D02*
X5989110Y-5650198D01*
X6198634Y-5764484D02*
X6179587Y-5754960D01*
X6179587Y-5754960D02*
X6170063Y-5745436D01*
X6170063Y-5745436D02*
X6160539Y-5726388D01*
X6160539Y-5726388D02*
X6160539Y-5669246D01*
X6160539Y-5669246D02*
X6170063Y-5650198D01*
X6170063Y-5650198D02*
X6179587Y-5640674D01*
X6179587Y-5640674D02*
X6198634Y-5631150D01*
X6198634Y-5631150D02*
X6227206Y-5631150D01*
X6227206Y-5631150D02*
X6246253Y-5640674D01*
X6246253Y-5640674D02*
X6255777Y-5650198D01*
X6255777Y-5650198D02*
X6265301Y-5669246D01*
X6265301Y-5669246D02*
X6265301Y-5726388D01*
X6265301Y-5726388D02*
X6255777Y-5745436D01*
X6255777Y-5745436D02*
X6246253Y-5754960D01*
X6246253Y-5754960D02*
X6227206Y-5764484D01*
X6227206Y-5764484D02*
X6198634Y-5764484D01*
X6379587Y-5764484D02*
X6360539Y-5754960D01*
X6360539Y-5754960D02*
X6351015Y-5735912D01*
X6351015Y-5735912D02*
X6351015Y-5564484D01*
X6531968Y-5754960D02*
X6512920Y-5764484D01*
X6512920Y-5764484D02*
X6474825Y-5764484D01*
X6474825Y-5764484D02*
X6455777Y-5754960D01*
X6455777Y-5754960D02*
X6446253Y-5735912D01*
X6446253Y-5735912D02*
X6446253Y-5659722D01*
X6446253Y-5659722D02*
X6455777Y-5640674D01*
X6455777Y-5640674D02*
X6474825Y-5631150D01*
X6474825Y-5631150D02*
X6512920Y-5631150D01*
X6512920Y-5631150D02*
X6531968Y-5640674D01*
X6531968Y-5640674D02*
X6541491Y-5659722D01*
X6541491Y-5659722D02*
X6541491Y-5678769D01*
X6541491Y-5678769D02*
X6446253Y-5697817D01*
X6617682Y-5754960D02*
X6636730Y-5764484D01*
X6636730Y-5764484D02*
X6674825Y-5764484D01*
X6674825Y-5764484D02*
X6693872Y-5754960D01*
X6693872Y-5754960D02*
X6703396Y-5735912D01*
X6703396Y-5735912D02*
X6703396Y-5726388D01*
X6703396Y-5726388D02*
X6693872Y-5707341D01*
X6693872Y-5707341D02*
X6674825Y-5697817D01*
X6674825Y-5697817D02*
X6646253Y-5697817D01*
X6646253Y-5697817D02*
X6627206Y-5688293D01*
X6627206Y-5688293D02*
X6617682Y-5669246D01*
X6617682Y-5669246D02*
X6617682Y-5659722D01*
X6617682Y-5659722D02*
X6627206Y-5640674D01*
X6627206Y-5640674D02*
X6646253Y-5631150D01*
X6646253Y-5631150D02*
X6674825Y-5631150D01*
X6674825Y-5631150D02*
X6693872Y-5640674D01*
X6770063Y-5840674D02*
X6779587Y-5831150D01*
X6779587Y-5831150D02*
X6798634Y-5802579D01*
X6798634Y-5802579D02*
X6808158Y-5783531D01*
X6808158Y-5783531D02*
X6817682Y-5754960D01*
X6817682Y-5754960D02*
X6827206Y-5707341D01*
X6827206Y-5707341D02*
X6827206Y-5669246D01*
X6827206Y-5669246D02*
X6817682Y-5621627D01*
X6817682Y-5621627D02*
X6808158Y-5593055D01*
X6808158Y-5593055D02*
X6798634Y-5574008D01*
X6798634Y-5574008D02*
X6779587Y-5545436D01*
X6779587Y-5545436D02*
X6770063Y-5535912D01*
D15*
X1986213Y-5958213D02*
X1986213Y-5915787D01*
X1943787Y-5915787D01*
X1943787Y-5958213D01*
X1986213Y-5958213D01*
D11*
X2293872Y-5828484D02*
X2312920Y-5828484D01*
X2312920Y-5828484D02*
X2331967Y-5838008D01*
X2331967Y-5838008D02*
X2341491Y-5847531D01*
X2341491Y-5847531D02*
X2351015Y-5866579D01*
X2351015Y-5866579D02*
X2360539Y-5904674D01*
X2360539Y-5904674D02*
X2360539Y-5952293D01*
X2360539Y-5952293D02*
X2351015Y-5990388D01*
X2351015Y-5990388D02*
X2341491Y-6009436D01*
X2341491Y-6009436D02*
X2331967Y-6018960D01*
X2331967Y-6018960D02*
X2312920Y-6028484D01*
X2312920Y-6028484D02*
X2293872Y-6028484D01*
X2293872Y-6028484D02*
X2274824Y-6018960D01*
X2274824Y-6018960D02*
X2265301Y-6009436D01*
X2265301Y-6009436D02*
X2255777Y-5990388D01*
X2255777Y-5990388D02*
X2246253Y-5952293D01*
X2246253Y-5952293D02*
X2246253Y-5904674D01*
X2246253Y-5904674D02*
X2255777Y-5866579D01*
X2255777Y-5866579D02*
X2265301Y-5847531D01*
X2265301Y-5847531D02*
X2274824Y-5838008D01*
X2274824Y-5838008D02*
X2293872Y-5828484D01*
X2446253Y-6009436D02*
X2455777Y-6018960D01*
X2455777Y-6018960D02*
X2446253Y-6028484D01*
X2446253Y-6028484D02*
X2436729Y-6018960D01*
X2436729Y-6018960D02*
X2446253Y-6009436D01*
X2446253Y-6009436D02*
X2446253Y-6028484D01*
X2627205Y-5828484D02*
X2589110Y-5828484D01*
X2589110Y-5828484D02*
X2570063Y-5838008D01*
X2570063Y-5838008D02*
X2560539Y-5847531D01*
X2560539Y-5847531D02*
X2541491Y-5876103D01*
X2541491Y-5876103D02*
X2531967Y-5914198D01*
X2531967Y-5914198D02*
X2531967Y-5990388D01*
X2531967Y-5990388D02*
X2541491Y-6009436D01*
X2541491Y-6009436D02*
X2551015Y-6018960D01*
X2551015Y-6018960D02*
X2570063Y-6028484D01*
X2570063Y-6028484D02*
X2608158Y-6028484D01*
X2608158Y-6028484D02*
X2627205Y-6018960D01*
X2627205Y-6018960D02*
X2636729Y-6009436D01*
X2636729Y-6009436D02*
X2646253Y-5990388D01*
X2646253Y-5990388D02*
X2646253Y-5942769D01*
X2646253Y-5942769D02*
X2636729Y-5923722D01*
X2636729Y-5923722D02*
X2627205Y-5914198D01*
X2627205Y-5914198D02*
X2608158Y-5904674D01*
X2608158Y-5904674D02*
X2570063Y-5904674D01*
X2570063Y-5904674D02*
X2551015Y-5914198D01*
X2551015Y-5914198D02*
X2541491Y-5923722D01*
X2541491Y-5923722D02*
X2531967Y-5942769D01*
X2770063Y-5828484D02*
X2789110Y-5828484D01*
X2789110Y-5828484D02*
X2808158Y-5838008D01*
X2808158Y-5838008D02*
X2817682Y-5847531D01*
X2817682Y-5847531D02*
X2827205Y-5866579D01*
X2827205Y-5866579D02*
X2836729Y-5904674D01*
X2836729Y-5904674D02*
X2836729Y-5952293D01*
X2836729Y-5952293D02*
X2827205Y-5990388D01*
X2827205Y-5990388D02*
X2817682Y-6009436D01*
X2817682Y-6009436D02*
X2808158Y-6018960D01*
X2808158Y-6018960D02*
X2789110Y-6028484D01*
X2789110Y-6028484D02*
X2770063Y-6028484D01*
X2770063Y-6028484D02*
X2751015Y-6018960D01*
X2751015Y-6018960D02*
X2741491Y-6009436D01*
X2741491Y-6009436D02*
X2731967Y-5990388D01*
X2731967Y-5990388D02*
X2722444Y-5952293D01*
X2722444Y-5952293D02*
X2722444Y-5904674D01*
X2722444Y-5904674D02*
X2731967Y-5866579D01*
X2731967Y-5866579D02*
X2741491Y-5847531D01*
X2741491Y-5847531D02*
X2751015Y-5838008D01*
X2751015Y-5838008D02*
X2770063Y-5828484D01*
X2960539Y-5828484D02*
X2979586Y-5828484D01*
X2979586Y-5828484D02*
X2998634Y-5838008D01*
X2998634Y-5838008D02*
X3008158Y-5847531D01*
X3008158Y-5847531D02*
X3017682Y-5866579D01*
X3017682Y-5866579D02*
X3027205Y-5904674D01*
X3027205Y-5904674D02*
X3027205Y-5952293D01*
X3027205Y-5952293D02*
X3017682Y-5990388D01*
X3017682Y-5990388D02*
X3008158Y-6009436D01*
X3008158Y-6009436D02*
X2998634Y-6018960D01*
X2998634Y-6018960D02*
X2979586Y-6028484D01*
X2979586Y-6028484D02*
X2960539Y-6028484D01*
X2960539Y-6028484D02*
X2941491Y-6018960D01*
X2941491Y-6018960D02*
X2931967Y-6009436D01*
X2931967Y-6009436D02*
X2922443Y-5990388D01*
X2922443Y-5990388D02*
X2912920Y-5952293D01*
X2912920Y-5952293D02*
X2912920Y-5904674D01*
X2912920Y-5904674D02*
X2922443Y-5866579D01*
X2922443Y-5866579D02*
X2931967Y-5847531D01*
X2931967Y-5847531D02*
X2941491Y-5838008D01*
X2941491Y-5838008D02*
X2960539Y-5828484D01*
X3112920Y-6028484D02*
X3112920Y-5895150D01*
X3112920Y-5914198D02*
X3122443Y-5904674D01*
X3122443Y-5904674D02*
X3141491Y-5895150D01*
X3141491Y-5895150D02*
X3170063Y-5895150D01*
X3170063Y-5895150D02*
X3189110Y-5904674D01*
X3189110Y-5904674D02*
X3198634Y-5923722D01*
X3198634Y-5923722D02*
X3198634Y-6028484D01*
X3198634Y-5923722D02*
X3208158Y-5904674D01*
X3208158Y-5904674D02*
X3227205Y-5895150D01*
X3227205Y-5895150D02*
X3255777Y-5895150D01*
X3255777Y-5895150D02*
X3274824Y-5904674D01*
X3274824Y-5904674D02*
X3284348Y-5923722D01*
X3284348Y-5923722D02*
X3284348Y-6028484D01*
X3379586Y-6028484D02*
X3379586Y-5895150D01*
X3379586Y-5914198D02*
X3389110Y-5904674D01*
X3389110Y-5904674D02*
X3408158Y-5895150D01*
X3408158Y-5895150D02*
X3436729Y-5895150D01*
X3436729Y-5895150D02*
X3455777Y-5904674D01*
X3455777Y-5904674D02*
X3465301Y-5923722D01*
X3465301Y-5923722D02*
X3465301Y-6028484D01*
X3465301Y-5923722D02*
X3474824Y-5904674D01*
X3474824Y-5904674D02*
X3493872Y-5895150D01*
X3493872Y-5895150D02*
X3522443Y-5895150D01*
X3522443Y-5895150D02*
X3541491Y-5904674D01*
X3541491Y-5904674D02*
X3551015Y-5923722D01*
X3551015Y-5923722D02*
X3551015Y-6028484D01*
X3941491Y-5818960D02*
X3770063Y-6076103D01*
X4198634Y-5828484D02*
X4217682Y-5828484D01*
X4217682Y-5828484D02*
X4236729Y-5838008D01*
X4236729Y-5838008D02*
X4246253Y-5847531D01*
X4246253Y-5847531D02*
X4255777Y-5866579D01*
X4255777Y-5866579D02*
X4265301Y-5904674D01*
X4265301Y-5904674D02*
X4265301Y-5952293D01*
X4265301Y-5952293D02*
X4255777Y-5990388D01*
X4255777Y-5990388D02*
X4246253Y-6009436D01*
X4246253Y-6009436D02*
X4236729Y-6018960D01*
X4236729Y-6018960D02*
X4217682Y-6028484D01*
X4217682Y-6028484D02*
X4198634Y-6028484D01*
X4198634Y-6028484D02*
X4179586Y-6018960D01*
X4179586Y-6018960D02*
X4170063Y-6009436D01*
X4170063Y-6009436D02*
X4160539Y-5990388D01*
X4160539Y-5990388D02*
X4151015Y-5952293D01*
X4151015Y-5952293D02*
X4151015Y-5904674D01*
X4151015Y-5904674D02*
X4160539Y-5866579D01*
X4160539Y-5866579D02*
X4170063Y-5847531D01*
X4170063Y-5847531D02*
X4179586Y-5838008D01*
X4179586Y-5838008D02*
X4198634Y-5828484D01*
X4351015Y-6009436D02*
X4360539Y-6018960D01*
X4360539Y-6018960D02*
X4351015Y-6028484D01*
X4351015Y-6028484D02*
X4341491Y-6018960D01*
X4341491Y-6018960D02*
X4351015Y-6009436D01*
X4351015Y-6009436D02*
X4351015Y-6028484D01*
X4484348Y-5828484D02*
X4503396Y-5828484D01*
X4503396Y-5828484D02*
X4522444Y-5838008D01*
X4522444Y-5838008D02*
X4531968Y-5847531D01*
X4531968Y-5847531D02*
X4541491Y-5866579D01*
X4541491Y-5866579D02*
X4551015Y-5904674D01*
X4551015Y-5904674D02*
X4551015Y-5952293D01*
X4551015Y-5952293D02*
X4541491Y-5990388D01*
X4541491Y-5990388D02*
X4531968Y-6009436D01*
X4531968Y-6009436D02*
X4522444Y-6018960D01*
X4522444Y-6018960D02*
X4503396Y-6028484D01*
X4503396Y-6028484D02*
X4484348Y-6028484D01*
X4484348Y-6028484D02*
X4465301Y-6018960D01*
X4465301Y-6018960D02*
X4455777Y-6009436D01*
X4455777Y-6009436D02*
X4446253Y-5990388D01*
X4446253Y-5990388D02*
X4436729Y-5952293D01*
X4436729Y-5952293D02*
X4436729Y-5904674D01*
X4436729Y-5904674D02*
X4446253Y-5866579D01*
X4446253Y-5866579D02*
X4455777Y-5847531D01*
X4455777Y-5847531D02*
X4465301Y-5838008D01*
X4465301Y-5838008D02*
X4484348Y-5828484D01*
X4627206Y-5847531D02*
X4636729Y-5838008D01*
X4636729Y-5838008D02*
X4655777Y-5828484D01*
X4655777Y-5828484D02*
X4703396Y-5828484D01*
X4703396Y-5828484D02*
X4722444Y-5838008D01*
X4722444Y-5838008D02*
X4731968Y-5847531D01*
X4731968Y-5847531D02*
X4741491Y-5866579D01*
X4741491Y-5866579D02*
X4741491Y-5885627D01*
X4741491Y-5885627D02*
X4731968Y-5914198D01*
X4731968Y-5914198D02*
X4617682Y-6028484D01*
X4617682Y-6028484D02*
X4741491Y-6028484D01*
X4808158Y-5828484D02*
X4931968Y-5828484D01*
X4931968Y-5828484D02*
X4865301Y-5904674D01*
X4865301Y-5904674D02*
X4893872Y-5904674D01*
X4893872Y-5904674D02*
X4912920Y-5914198D01*
X4912920Y-5914198D02*
X4922444Y-5923722D01*
X4922444Y-5923722D02*
X4931968Y-5942769D01*
X4931968Y-5942769D02*
X4931968Y-5990388D01*
X4931968Y-5990388D02*
X4922444Y-6009436D01*
X4922444Y-6009436D02*
X4912920Y-6018960D01*
X4912920Y-6018960D02*
X4893872Y-6028484D01*
X4893872Y-6028484D02*
X4836729Y-6028484D01*
X4836729Y-6028484D02*
X4817682Y-6018960D01*
X4817682Y-6018960D02*
X4808158Y-6009436D01*
X5103396Y-5828484D02*
X5065301Y-5828484D01*
X5065301Y-5828484D02*
X5046253Y-5838008D01*
X5046253Y-5838008D02*
X5036729Y-5847531D01*
X5036729Y-5847531D02*
X5017682Y-5876103D01*
X5017682Y-5876103D02*
X5008158Y-5914198D01*
X5008158Y-5914198D02*
X5008158Y-5990388D01*
X5008158Y-5990388D02*
X5017682Y-6009436D01*
X5017682Y-6009436D02*
X5027206Y-6018960D01*
X5027206Y-6018960D02*
X5046253Y-6028484D01*
X5046253Y-6028484D02*
X5084349Y-6028484D01*
X5084349Y-6028484D02*
X5103396Y-6018960D01*
X5103396Y-6018960D02*
X5112920Y-6009436D01*
X5112920Y-6009436D02*
X5122444Y-5990388D01*
X5122444Y-5990388D02*
X5122444Y-5942769D01*
X5122444Y-5942769D02*
X5112920Y-5923722D01*
X5112920Y-5923722D02*
X5103396Y-5914198D01*
X5103396Y-5914198D02*
X5084349Y-5904674D01*
X5084349Y-5904674D02*
X5046253Y-5904674D01*
X5046253Y-5904674D02*
X5027206Y-5914198D01*
X5027206Y-5914198D02*
X5017682Y-5923722D01*
X5017682Y-5923722D02*
X5008158Y-5942769D01*
X5198634Y-5828484D02*
X5198634Y-5866579D01*
X5274825Y-5828484D02*
X5274825Y-5866579D01*
X5570063Y-6104674D02*
X5560539Y-6095150D01*
X5560539Y-6095150D02*
X5541491Y-6066579D01*
X5541491Y-6066579D02*
X5531968Y-6047531D01*
X5531968Y-6047531D02*
X5522444Y-6018960D01*
X5522444Y-6018960D02*
X5512920Y-5971341D01*
X5512920Y-5971341D02*
X5512920Y-5933246D01*
X5512920Y-5933246D02*
X5522444Y-5885627D01*
X5522444Y-5885627D02*
X5531968Y-5857055D01*
X5531968Y-5857055D02*
X5541491Y-5838008D01*
X5541491Y-5838008D02*
X5560539Y-5809436D01*
X5560539Y-5809436D02*
X5570063Y-5799912D01*
X5684348Y-5828484D02*
X5703396Y-5828484D01*
X5703396Y-5828484D02*
X5722444Y-5838008D01*
X5722444Y-5838008D02*
X5731968Y-5847531D01*
X5731968Y-5847531D02*
X5741491Y-5866579D01*
X5741491Y-5866579D02*
X5751015Y-5904674D01*
X5751015Y-5904674D02*
X5751015Y-5952293D01*
X5751015Y-5952293D02*
X5741491Y-5990388D01*
X5741491Y-5990388D02*
X5731968Y-6009436D01*
X5731968Y-6009436D02*
X5722444Y-6018960D01*
X5722444Y-6018960D02*
X5703396Y-6028484D01*
X5703396Y-6028484D02*
X5684348Y-6028484D01*
X5684348Y-6028484D02*
X5665301Y-6018960D01*
X5665301Y-6018960D02*
X5655777Y-6009436D01*
X5655777Y-6009436D02*
X5646253Y-5990388D01*
X5646253Y-5990388D02*
X5636729Y-5952293D01*
X5636729Y-5952293D02*
X5636729Y-5904674D01*
X5636729Y-5904674D02*
X5646253Y-5866579D01*
X5646253Y-5866579D02*
X5655777Y-5847531D01*
X5655777Y-5847531D02*
X5665301Y-5838008D01*
X5665301Y-5838008D02*
X5684348Y-5828484D01*
X5989110Y-6028484D02*
X5989110Y-5828484D01*
X6074825Y-6028484D02*
X6074825Y-5923722D01*
X6074825Y-5923722D02*
X6065301Y-5904674D01*
X6065301Y-5904674D02*
X6046253Y-5895150D01*
X6046253Y-5895150D02*
X6017682Y-5895150D01*
X6017682Y-5895150D02*
X5998634Y-5904674D01*
X5998634Y-5904674D02*
X5989110Y-5914198D01*
X6198634Y-6028484D02*
X6179587Y-6018960D01*
X6179587Y-6018960D02*
X6170063Y-6009436D01*
X6170063Y-6009436D02*
X6160539Y-5990388D01*
X6160539Y-5990388D02*
X6160539Y-5933246D01*
X6160539Y-5933246D02*
X6170063Y-5914198D01*
X6170063Y-5914198D02*
X6179587Y-5904674D01*
X6179587Y-5904674D02*
X6198634Y-5895150D01*
X6198634Y-5895150D02*
X6227206Y-5895150D01*
X6227206Y-5895150D02*
X6246253Y-5904674D01*
X6246253Y-5904674D02*
X6255777Y-5914198D01*
X6255777Y-5914198D02*
X6265301Y-5933246D01*
X6265301Y-5933246D02*
X6265301Y-5990388D01*
X6265301Y-5990388D02*
X6255777Y-6009436D01*
X6255777Y-6009436D02*
X6246253Y-6018960D01*
X6246253Y-6018960D02*
X6227206Y-6028484D01*
X6227206Y-6028484D02*
X6198634Y-6028484D01*
X6379587Y-6028484D02*
X6360539Y-6018960D01*
X6360539Y-6018960D02*
X6351015Y-5999912D01*
X6351015Y-5999912D02*
X6351015Y-5828484D01*
X6531968Y-6018960D02*
X6512920Y-6028484D01*
X6512920Y-6028484D02*
X6474825Y-6028484D01*
X6474825Y-6028484D02*
X6455777Y-6018960D01*
X6455777Y-6018960D02*
X6446253Y-5999912D01*
X6446253Y-5999912D02*
X6446253Y-5923722D01*
X6446253Y-5923722D02*
X6455777Y-5904674D01*
X6455777Y-5904674D02*
X6474825Y-5895150D01*
X6474825Y-5895150D02*
X6512920Y-5895150D01*
X6512920Y-5895150D02*
X6531968Y-5904674D01*
X6531968Y-5904674D02*
X6541491Y-5923722D01*
X6541491Y-5923722D02*
X6541491Y-5942769D01*
X6541491Y-5942769D02*
X6446253Y-5961817D01*
X6617682Y-6018960D02*
X6636730Y-6028484D01*
X6636730Y-6028484D02*
X6674825Y-6028484D01*
X6674825Y-6028484D02*
X6693872Y-6018960D01*
X6693872Y-6018960D02*
X6703396Y-5999912D01*
X6703396Y-5999912D02*
X6703396Y-5990388D01*
X6703396Y-5990388D02*
X6693872Y-5971341D01*
X6693872Y-5971341D02*
X6674825Y-5961817D01*
X6674825Y-5961817D02*
X6646253Y-5961817D01*
X6646253Y-5961817D02*
X6627206Y-5952293D01*
X6627206Y-5952293D02*
X6617682Y-5933246D01*
X6617682Y-5933246D02*
X6617682Y-5923722D01*
X6617682Y-5923722D02*
X6627206Y-5904674D01*
X6627206Y-5904674D02*
X6646253Y-5895150D01*
X6646253Y-5895150D02*
X6674825Y-5895150D01*
X6674825Y-5895150D02*
X6693872Y-5904674D01*
X6941492Y-5952293D02*
X7093873Y-5952293D01*
X7017682Y-6028484D02*
X7017682Y-5876103D01*
X7427206Y-5895150D02*
X7427206Y-6028484D01*
X7379587Y-5818960D02*
X7331968Y-5961817D01*
X7331968Y-5961817D02*
X7455777Y-5961817D01*
X7674825Y-6018960D02*
X7693873Y-6028484D01*
X7693873Y-6028484D02*
X7731968Y-6028484D01*
X7731968Y-6028484D02*
X7751015Y-6018960D01*
X7751015Y-6018960D02*
X7760539Y-5999912D01*
X7760539Y-5999912D02*
X7760539Y-5990388D01*
X7760539Y-5990388D02*
X7751015Y-5971341D01*
X7751015Y-5971341D02*
X7731968Y-5961817D01*
X7731968Y-5961817D02*
X7703396Y-5961817D01*
X7703396Y-5961817D02*
X7684349Y-5952293D01*
X7684349Y-5952293D02*
X7674825Y-5933246D01*
X7674825Y-5933246D02*
X7674825Y-5923722D01*
X7674825Y-5923722D02*
X7684349Y-5904674D01*
X7684349Y-5904674D02*
X7703396Y-5895150D01*
X7703396Y-5895150D02*
X7731968Y-5895150D01*
X7731968Y-5895150D02*
X7751015Y-5904674D01*
X7874825Y-6028484D02*
X7855777Y-6018960D01*
X7855777Y-6018960D02*
X7846254Y-5999912D01*
X7846254Y-5999912D02*
X7846254Y-5828484D01*
X7979587Y-6028484D02*
X7960539Y-6018960D01*
X7960539Y-6018960D02*
X7951015Y-6009436D01*
X7951015Y-6009436D02*
X7941492Y-5990388D01*
X7941492Y-5990388D02*
X7941492Y-5933246D01*
X7941492Y-5933246D02*
X7951015Y-5914198D01*
X7951015Y-5914198D02*
X7960539Y-5904674D01*
X7960539Y-5904674D02*
X7979587Y-5895150D01*
X7979587Y-5895150D02*
X8008158Y-5895150D01*
X8008158Y-5895150D02*
X8027206Y-5904674D01*
X8027206Y-5904674D02*
X8036730Y-5914198D01*
X8036730Y-5914198D02*
X8046254Y-5933246D01*
X8046254Y-5933246D02*
X8046254Y-5990388D01*
X8046254Y-5990388D02*
X8036730Y-6009436D01*
X8036730Y-6009436D02*
X8027206Y-6018960D01*
X8027206Y-6018960D02*
X8008158Y-6028484D01*
X8008158Y-6028484D02*
X7979587Y-6028484D01*
X8103396Y-5895150D02*
X8179587Y-5895150D01*
X8131968Y-5828484D02*
X8131968Y-5999912D01*
X8131968Y-5999912D02*
X8141492Y-6018960D01*
X8141492Y-6018960D02*
X8160539Y-6028484D01*
X8160539Y-6028484D02*
X8179587Y-6028484D01*
X8236730Y-6018960D02*
X8255777Y-6028484D01*
X8255777Y-6028484D02*
X8293873Y-6028484D01*
X8293873Y-6028484D02*
X8312920Y-6018960D01*
X8312920Y-6018960D02*
X8322444Y-5999912D01*
X8322444Y-5999912D02*
X8322444Y-5990388D01*
X8322444Y-5990388D02*
X8312920Y-5971341D01*
X8312920Y-5971341D02*
X8293873Y-5961817D01*
X8293873Y-5961817D02*
X8265301Y-5961817D01*
X8265301Y-5961817D02*
X8246254Y-5952293D01*
X8246254Y-5952293D02*
X8236730Y-5933246D01*
X8236730Y-5933246D02*
X8236730Y-5923722D01*
X8236730Y-5923722D02*
X8246254Y-5904674D01*
X8246254Y-5904674D02*
X8265301Y-5895150D01*
X8265301Y-5895150D02*
X8293873Y-5895150D01*
X8293873Y-5895150D02*
X8312920Y-5904674D01*
X8389111Y-6104674D02*
X8398635Y-6095150D01*
X8398635Y-6095150D02*
X8417682Y-6066579D01*
X8417682Y-6066579D02*
X8427206Y-6047531D01*
X8427206Y-6047531D02*
X8436730Y-6018960D01*
X8436730Y-6018960D02*
X8446254Y-5971341D01*
X8446254Y-5971341D02*
X8446254Y-5933246D01*
X8446254Y-5933246D02*
X8436730Y-5885627D01*
X8436730Y-5885627D02*
X8427206Y-5857055D01*
X8427206Y-5857055D02*
X8417682Y-5838008D01*
X8417682Y-5838008D02*
X8398635Y-5809436D01*
X8398635Y-5809436D02*
X8389111Y-5799912D01*
D16*
X1957500Y-6238500D02*
X1995000Y-6201000D01*
X1957500Y-6163500D01*
X1920000Y-6201000D01*
X1957500Y-6238500D01*
D11*
X2293872Y-6092484D02*
X2312920Y-6092484D01*
X2312920Y-6092484D02*
X2331967Y-6102008D01*
X2331967Y-6102008D02*
X2341491Y-6111531D01*
X2341491Y-6111531D02*
X2351015Y-6130579D01*
X2351015Y-6130579D02*
X2360539Y-6168674D01*
X2360539Y-6168674D02*
X2360539Y-6216293D01*
X2360539Y-6216293D02*
X2351015Y-6254388D01*
X2351015Y-6254388D02*
X2341491Y-6273436D01*
X2341491Y-6273436D02*
X2331967Y-6282960D01*
X2331967Y-6282960D02*
X2312920Y-6292484D01*
X2312920Y-6292484D02*
X2293872Y-6292484D01*
X2293872Y-6292484D02*
X2274824Y-6282960D01*
X2274824Y-6282960D02*
X2265301Y-6273436D01*
X2265301Y-6273436D02*
X2255777Y-6254388D01*
X2255777Y-6254388D02*
X2246253Y-6216293D01*
X2246253Y-6216293D02*
X2246253Y-6168674D01*
X2246253Y-6168674D02*
X2255777Y-6130579D01*
X2255777Y-6130579D02*
X2265301Y-6111531D01*
X2265301Y-6111531D02*
X2274824Y-6102008D01*
X2274824Y-6102008D02*
X2293872Y-6092484D01*
X2446253Y-6273436D02*
X2455777Y-6282960D01*
X2455777Y-6282960D02*
X2446253Y-6292484D01*
X2446253Y-6292484D02*
X2436729Y-6282960D01*
X2436729Y-6282960D02*
X2446253Y-6273436D01*
X2446253Y-6273436D02*
X2446253Y-6292484D01*
X2522444Y-6092484D02*
X2655777Y-6092484D01*
X2655777Y-6092484D02*
X2570063Y-6292484D01*
X2827205Y-6092484D02*
X2731967Y-6092484D01*
X2731967Y-6092484D02*
X2722444Y-6187722D01*
X2722444Y-6187722D02*
X2731967Y-6178198D01*
X2731967Y-6178198D02*
X2751015Y-6168674D01*
X2751015Y-6168674D02*
X2798634Y-6168674D01*
X2798634Y-6168674D02*
X2817682Y-6178198D01*
X2817682Y-6178198D02*
X2827205Y-6187722D01*
X2827205Y-6187722D02*
X2836729Y-6206769D01*
X2836729Y-6206769D02*
X2836729Y-6254388D01*
X2836729Y-6254388D02*
X2827205Y-6273436D01*
X2827205Y-6273436D02*
X2817682Y-6282960D01*
X2817682Y-6282960D02*
X2798634Y-6292484D01*
X2798634Y-6292484D02*
X2751015Y-6292484D01*
X2751015Y-6292484D02*
X2731967Y-6282960D01*
X2731967Y-6282960D02*
X2722444Y-6273436D01*
X2960539Y-6092484D02*
X2979586Y-6092484D01*
X2979586Y-6092484D02*
X2998634Y-6102008D01*
X2998634Y-6102008D02*
X3008158Y-6111531D01*
X3008158Y-6111531D02*
X3017682Y-6130579D01*
X3017682Y-6130579D02*
X3027205Y-6168674D01*
X3027205Y-6168674D02*
X3027205Y-6216293D01*
X3027205Y-6216293D02*
X3017682Y-6254388D01*
X3017682Y-6254388D02*
X3008158Y-6273436D01*
X3008158Y-6273436D02*
X2998634Y-6282960D01*
X2998634Y-6282960D02*
X2979586Y-6292484D01*
X2979586Y-6292484D02*
X2960539Y-6292484D01*
X2960539Y-6292484D02*
X2941491Y-6282960D01*
X2941491Y-6282960D02*
X2931967Y-6273436D01*
X2931967Y-6273436D02*
X2922443Y-6254388D01*
X2922443Y-6254388D02*
X2912920Y-6216293D01*
X2912920Y-6216293D02*
X2912920Y-6168674D01*
X2912920Y-6168674D02*
X2922443Y-6130579D01*
X2922443Y-6130579D02*
X2931967Y-6111531D01*
X2931967Y-6111531D02*
X2941491Y-6102008D01*
X2941491Y-6102008D02*
X2960539Y-6092484D01*
X3112920Y-6292484D02*
X3112920Y-6159150D01*
X3112920Y-6178198D02*
X3122443Y-6168674D01*
X3122443Y-6168674D02*
X3141491Y-6159150D01*
X3141491Y-6159150D02*
X3170063Y-6159150D01*
X3170063Y-6159150D02*
X3189110Y-6168674D01*
X3189110Y-6168674D02*
X3198634Y-6187722D01*
X3198634Y-6187722D02*
X3198634Y-6292484D01*
X3198634Y-6187722D02*
X3208158Y-6168674D01*
X3208158Y-6168674D02*
X3227205Y-6159150D01*
X3227205Y-6159150D02*
X3255777Y-6159150D01*
X3255777Y-6159150D02*
X3274824Y-6168674D01*
X3274824Y-6168674D02*
X3284348Y-6187722D01*
X3284348Y-6187722D02*
X3284348Y-6292484D01*
X3379586Y-6292484D02*
X3379586Y-6159150D01*
X3379586Y-6178198D02*
X3389110Y-6168674D01*
X3389110Y-6168674D02*
X3408158Y-6159150D01*
X3408158Y-6159150D02*
X3436729Y-6159150D01*
X3436729Y-6159150D02*
X3455777Y-6168674D01*
X3455777Y-6168674D02*
X3465301Y-6187722D01*
X3465301Y-6187722D02*
X3465301Y-6292484D01*
X3465301Y-6187722D02*
X3474824Y-6168674D01*
X3474824Y-6168674D02*
X3493872Y-6159150D01*
X3493872Y-6159150D02*
X3522443Y-6159150D01*
X3522443Y-6159150D02*
X3541491Y-6168674D01*
X3541491Y-6168674D02*
X3551015Y-6187722D01*
X3551015Y-6187722D02*
X3551015Y-6292484D01*
X3941491Y-6082960D02*
X3770063Y-6340103D01*
X4198634Y-6092484D02*
X4217682Y-6092484D01*
X4217682Y-6092484D02*
X4236729Y-6102008D01*
X4236729Y-6102008D02*
X4246253Y-6111531D01*
X4246253Y-6111531D02*
X4255777Y-6130579D01*
X4255777Y-6130579D02*
X4265301Y-6168674D01*
X4265301Y-6168674D02*
X4265301Y-6216293D01*
X4265301Y-6216293D02*
X4255777Y-6254388D01*
X4255777Y-6254388D02*
X4246253Y-6273436D01*
X4246253Y-6273436D02*
X4236729Y-6282960D01*
X4236729Y-6282960D02*
X4217682Y-6292484D01*
X4217682Y-6292484D02*
X4198634Y-6292484D01*
X4198634Y-6292484D02*
X4179586Y-6282960D01*
X4179586Y-6282960D02*
X4170063Y-6273436D01*
X4170063Y-6273436D02*
X4160539Y-6254388D01*
X4160539Y-6254388D02*
X4151015Y-6216293D01*
X4151015Y-6216293D02*
X4151015Y-6168674D01*
X4151015Y-6168674D02*
X4160539Y-6130579D01*
X4160539Y-6130579D02*
X4170063Y-6111531D01*
X4170063Y-6111531D02*
X4179586Y-6102008D01*
X4179586Y-6102008D02*
X4198634Y-6092484D01*
X4351015Y-6273436D02*
X4360539Y-6282960D01*
X4360539Y-6282960D02*
X4351015Y-6292484D01*
X4351015Y-6292484D02*
X4341491Y-6282960D01*
X4341491Y-6282960D02*
X4351015Y-6273436D01*
X4351015Y-6273436D02*
X4351015Y-6292484D01*
X4484348Y-6092484D02*
X4503396Y-6092484D01*
X4503396Y-6092484D02*
X4522444Y-6102008D01*
X4522444Y-6102008D02*
X4531968Y-6111531D01*
X4531968Y-6111531D02*
X4541491Y-6130579D01*
X4541491Y-6130579D02*
X4551015Y-6168674D01*
X4551015Y-6168674D02*
X4551015Y-6216293D01*
X4551015Y-6216293D02*
X4541491Y-6254388D01*
X4541491Y-6254388D02*
X4531968Y-6273436D01*
X4531968Y-6273436D02*
X4522444Y-6282960D01*
X4522444Y-6282960D02*
X4503396Y-6292484D01*
X4503396Y-6292484D02*
X4484348Y-6292484D01*
X4484348Y-6292484D02*
X4465301Y-6282960D01*
X4465301Y-6282960D02*
X4455777Y-6273436D01*
X4455777Y-6273436D02*
X4446253Y-6254388D01*
X4446253Y-6254388D02*
X4436729Y-6216293D01*
X4436729Y-6216293D02*
X4436729Y-6168674D01*
X4436729Y-6168674D02*
X4446253Y-6130579D01*
X4446253Y-6130579D02*
X4455777Y-6111531D01*
X4455777Y-6111531D02*
X4465301Y-6102008D01*
X4465301Y-6102008D02*
X4484348Y-6092484D01*
X4627206Y-6111531D02*
X4636729Y-6102008D01*
X4636729Y-6102008D02*
X4655777Y-6092484D01*
X4655777Y-6092484D02*
X4703396Y-6092484D01*
X4703396Y-6092484D02*
X4722444Y-6102008D01*
X4722444Y-6102008D02*
X4731968Y-6111531D01*
X4731968Y-6111531D02*
X4741491Y-6130579D01*
X4741491Y-6130579D02*
X4741491Y-6149627D01*
X4741491Y-6149627D02*
X4731968Y-6178198D01*
X4731968Y-6178198D02*
X4617682Y-6292484D01*
X4617682Y-6292484D02*
X4741491Y-6292484D01*
X4836729Y-6292484D02*
X4874825Y-6292484D01*
X4874825Y-6292484D02*
X4893872Y-6282960D01*
X4893872Y-6282960D02*
X4903396Y-6273436D01*
X4903396Y-6273436D02*
X4922444Y-6244865D01*
X4922444Y-6244865D02*
X4931968Y-6206769D01*
X4931968Y-6206769D02*
X4931968Y-6130579D01*
X4931968Y-6130579D02*
X4922444Y-6111531D01*
X4922444Y-6111531D02*
X4912920Y-6102008D01*
X4912920Y-6102008D02*
X4893872Y-6092484D01*
X4893872Y-6092484D02*
X4855777Y-6092484D01*
X4855777Y-6092484D02*
X4836729Y-6102008D01*
X4836729Y-6102008D02*
X4827206Y-6111531D01*
X4827206Y-6111531D02*
X4817682Y-6130579D01*
X4817682Y-6130579D02*
X4817682Y-6178198D01*
X4817682Y-6178198D02*
X4827206Y-6197246D01*
X4827206Y-6197246D02*
X4836729Y-6206769D01*
X4836729Y-6206769D02*
X4855777Y-6216293D01*
X4855777Y-6216293D02*
X4893872Y-6216293D01*
X4893872Y-6216293D02*
X4912920Y-6206769D01*
X4912920Y-6206769D02*
X4922444Y-6197246D01*
X4922444Y-6197246D02*
X4931968Y-6178198D01*
X5112920Y-6092484D02*
X5017682Y-6092484D01*
X5017682Y-6092484D02*
X5008158Y-6187722D01*
X5008158Y-6187722D02*
X5017682Y-6178198D01*
X5017682Y-6178198D02*
X5036729Y-6168674D01*
X5036729Y-6168674D02*
X5084349Y-6168674D01*
X5084349Y-6168674D02*
X5103396Y-6178198D01*
X5103396Y-6178198D02*
X5112920Y-6187722D01*
X5112920Y-6187722D02*
X5122444Y-6206769D01*
X5122444Y-6206769D02*
X5122444Y-6254388D01*
X5122444Y-6254388D02*
X5112920Y-6273436D01*
X5112920Y-6273436D02*
X5103396Y-6282960D01*
X5103396Y-6282960D02*
X5084349Y-6292484D01*
X5084349Y-6292484D02*
X5036729Y-6292484D01*
X5036729Y-6292484D02*
X5017682Y-6282960D01*
X5017682Y-6282960D02*
X5008158Y-6273436D01*
X5198634Y-6092484D02*
X5198634Y-6130579D01*
X5274825Y-6092484D02*
X5274825Y-6130579D01*
X5570063Y-6368674D02*
X5560539Y-6359150D01*
X5560539Y-6359150D02*
X5541491Y-6330579D01*
X5541491Y-6330579D02*
X5531968Y-6311531D01*
X5531968Y-6311531D02*
X5522444Y-6282960D01*
X5522444Y-6282960D02*
X5512920Y-6235341D01*
X5512920Y-6235341D02*
X5512920Y-6197246D01*
X5512920Y-6197246D02*
X5522444Y-6149627D01*
X5522444Y-6149627D02*
X5531968Y-6121055D01*
X5531968Y-6121055D02*
X5541491Y-6102008D01*
X5541491Y-6102008D02*
X5560539Y-6073436D01*
X5560539Y-6073436D02*
X5570063Y-6063912D01*
X5731968Y-6159150D02*
X5731968Y-6292484D01*
X5684348Y-6082960D02*
X5636729Y-6225817D01*
X5636729Y-6225817D02*
X5760539Y-6225817D01*
X5989110Y-6292484D02*
X5989110Y-6092484D01*
X6074825Y-6292484D02*
X6074825Y-6187722D01*
X6074825Y-6187722D02*
X6065301Y-6168674D01*
X6065301Y-6168674D02*
X6046253Y-6159150D01*
X6046253Y-6159150D02*
X6017682Y-6159150D01*
X6017682Y-6159150D02*
X5998634Y-6168674D01*
X5998634Y-6168674D02*
X5989110Y-6178198D01*
X6198634Y-6292484D02*
X6179587Y-6282960D01*
X6179587Y-6282960D02*
X6170063Y-6273436D01*
X6170063Y-6273436D02*
X6160539Y-6254388D01*
X6160539Y-6254388D02*
X6160539Y-6197246D01*
X6160539Y-6197246D02*
X6170063Y-6178198D01*
X6170063Y-6178198D02*
X6179587Y-6168674D01*
X6179587Y-6168674D02*
X6198634Y-6159150D01*
X6198634Y-6159150D02*
X6227206Y-6159150D01*
X6227206Y-6159150D02*
X6246253Y-6168674D01*
X6246253Y-6168674D02*
X6255777Y-6178198D01*
X6255777Y-6178198D02*
X6265301Y-6197246D01*
X6265301Y-6197246D02*
X6265301Y-6254388D01*
X6265301Y-6254388D02*
X6255777Y-6273436D01*
X6255777Y-6273436D02*
X6246253Y-6282960D01*
X6246253Y-6282960D02*
X6227206Y-6292484D01*
X6227206Y-6292484D02*
X6198634Y-6292484D01*
X6379587Y-6292484D02*
X6360539Y-6282960D01*
X6360539Y-6282960D02*
X6351015Y-6263912D01*
X6351015Y-6263912D02*
X6351015Y-6092484D01*
X6531968Y-6282960D02*
X6512920Y-6292484D01*
X6512920Y-6292484D02*
X6474825Y-6292484D01*
X6474825Y-6292484D02*
X6455777Y-6282960D01*
X6455777Y-6282960D02*
X6446253Y-6263912D01*
X6446253Y-6263912D02*
X6446253Y-6187722D01*
X6446253Y-6187722D02*
X6455777Y-6168674D01*
X6455777Y-6168674D02*
X6474825Y-6159150D01*
X6474825Y-6159150D02*
X6512920Y-6159150D01*
X6512920Y-6159150D02*
X6531968Y-6168674D01*
X6531968Y-6168674D02*
X6541491Y-6187722D01*
X6541491Y-6187722D02*
X6541491Y-6206769D01*
X6541491Y-6206769D02*
X6446253Y-6225817D01*
X6617682Y-6282960D02*
X6636730Y-6292484D01*
X6636730Y-6292484D02*
X6674825Y-6292484D01*
X6674825Y-6292484D02*
X6693872Y-6282960D01*
X6693872Y-6282960D02*
X6703396Y-6263912D01*
X6703396Y-6263912D02*
X6703396Y-6254388D01*
X6703396Y-6254388D02*
X6693872Y-6235341D01*
X6693872Y-6235341D02*
X6674825Y-6225817D01*
X6674825Y-6225817D02*
X6646253Y-6225817D01*
X6646253Y-6225817D02*
X6627206Y-6216293D01*
X6627206Y-6216293D02*
X6617682Y-6197246D01*
X6617682Y-6197246D02*
X6617682Y-6187722D01*
X6617682Y-6187722D02*
X6627206Y-6168674D01*
X6627206Y-6168674D02*
X6646253Y-6159150D01*
X6646253Y-6159150D02*
X6674825Y-6159150D01*
X6674825Y-6159150D02*
X6693872Y-6168674D01*
X6770063Y-6368674D02*
X6779587Y-6359150D01*
X6779587Y-6359150D02*
X6798634Y-6330579D01*
X6798634Y-6330579D02*
X6808158Y-6311531D01*
X6808158Y-6311531D02*
X6817682Y-6282960D01*
X6817682Y-6282960D02*
X6827206Y-6235341D01*
X6827206Y-6235341D02*
X6827206Y-6197246D01*
X6827206Y-6197246D02*
X6817682Y-6149627D01*
X6817682Y-6149627D02*
X6808158Y-6121055D01*
X6808158Y-6121055D02*
X6798634Y-6102008D01*
X6798634Y-6102008D02*
X6779587Y-6073436D01*
X6779587Y-6073436D02*
X6770063Y-6063912D01*
D10*
X1895000Y-6415000D02*
X1995000Y-6515000D01*
X1995000Y-6415000D02*
X1895000Y-6515000D01*
X1995000Y-6465000D02*
G75*
G03*
X1995000Y-6465000I-50000J0D01*
G01*
D11*
X2360539Y-6556484D02*
X2246253Y-6556484D01*
X2303396Y-6556484D02*
X2303396Y-6356484D01*
X2303396Y-6356484D02*
X2284348Y-6385055D01*
X2284348Y-6385055D02*
X2265301Y-6404103D01*
X2265301Y-6404103D02*
X2246253Y-6413627D01*
X2446253Y-6537436D02*
X2455777Y-6546960D01*
X2455777Y-6546960D02*
X2446253Y-6556484D01*
X2446253Y-6556484D02*
X2436729Y-6546960D01*
X2436729Y-6546960D02*
X2446253Y-6537436D01*
X2446253Y-6537436D02*
X2446253Y-6556484D01*
X2579586Y-6356484D02*
X2598634Y-6356484D01*
X2598634Y-6356484D02*
X2617682Y-6366008D01*
X2617682Y-6366008D02*
X2627205Y-6375531D01*
X2627205Y-6375531D02*
X2636729Y-6394579D01*
X2636729Y-6394579D02*
X2646253Y-6432674D01*
X2646253Y-6432674D02*
X2646253Y-6480293D01*
X2646253Y-6480293D02*
X2636729Y-6518388D01*
X2636729Y-6518388D02*
X2627205Y-6537436D01*
X2627205Y-6537436D02*
X2617682Y-6546960D01*
X2617682Y-6546960D02*
X2598634Y-6556484D01*
X2598634Y-6556484D02*
X2579586Y-6556484D01*
X2579586Y-6556484D02*
X2560539Y-6546960D01*
X2560539Y-6546960D02*
X2551015Y-6537436D01*
X2551015Y-6537436D02*
X2541491Y-6518388D01*
X2541491Y-6518388D02*
X2531967Y-6480293D01*
X2531967Y-6480293D02*
X2531967Y-6432674D01*
X2531967Y-6432674D02*
X2541491Y-6394579D01*
X2541491Y-6394579D02*
X2551015Y-6375531D01*
X2551015Y-6375531D02*
X2560539Y-6366008D01*
X2560539Y-6366008D02*
X2579586Y-6356484D01*
X2770063Y-6356484D02*
X2789110Y-6356484D01*
X2789110Y-6356484D02*
X2808158Y-6366008D01*
X2808158Y-6366008D02*
X2817682Y-6375531D01*
X2817682Y-6375531D02*
X2827205Y-6394579D01*
X2827205Y-6394579D02*
X2836729Y-6432674D01*
X2836729Y-6432674D02*
X2836729Y-6480293D01*
X2836729Y-6480293D02*
X2827205Y-6518388D01*
X2827205Y-6518388D02*
X2817682Y-6537436D01*
X2817682Y-6537436D02*
X2808158Y-6546960D01*
X2808158Y-6546960D02*
X2789110Y-6556484D01*
X2789110Y-6556484D02*
X2770063Y-6556484D01*
X2770063Y-6556484D02*
X2751015Y-6546960D01*
X2751015Y-6546960D02*
X2741491Y-6537436D01*
X2741491Y-6537436D02*
X2731967Y-6518388D01*
X2731967Y-6518388D02*
X2722444Y-6480293D01*
X2722444Y-6480293D02*
X2722444Y-6432674D01*
X2722444Y-6432674D02*
X2731967Y-6394579D01*
X2731967Y-6394579D02*
X2741491Y-6375531D01*
X2741491Y-6375531D02*
X2751015Y-6366008D01*
X2751015Y-6366008D02*
X2770063Y-6356484D01*
X2960539Y-6356484D02*
X2979586Y-6356484D01*
X2979586Y-6356484D02*
X2998634Y-6366008D01*
X2998634Y-6366008D02*
X3008158Y-6375531D01*
X3008158Y-6375531D02*
X3017682Y-6394579D01*
X3017682Y-6394579D02*
X3027205Y-6432674D01*
X3027205Y-6432674D02*
X3027205Y-6480293D01*
X3027205Y-6480293D02*
X3017682Y-6518388D01*
X3017682Y-6518388D02*
X3008158Y-6537436D01*
X3008158Y-6537436D02*
X2998634Y-6546960D01*
X2998634Y-6546960D02*
X2979586Y-6556484D01*
X2979586Y-6556484D02*
X2960539Y-6556484D01*
X2960539Y-6556484D02*
X2941491Y-6546960D01*
X2941491Y-6546960D02*
X2931967Y-6537436D01*
X2931967Y-6537436D02*
X2922443Y-6518388D01*
X2922443Y-6518388D02*
X2912920Y-6480293D01*
X2912920Y-6480293D02*
X2912920Y-6432674D01*
X2912920Y-6432674D02*
X2922443Y-6394579D01*
X2922443Y-6394579D02*
X2931967Y-6375531D01*
X2931967Y-6375531D02*
X2941491Y-6366008D01*
X2941491Y-6366008D02*
X2960539Y-6356484D01*
X3112920Y-6556484D02*
X3112920Y-6423150D01*
X3112920Y-6442198D02*
X3122443Y-6432674D01*
X3122443Y-6432674D02*
X3141491Y-6423150D01*
X3141491Y-6423150D02*
X3170063Y-6423150D01*
X3170063Y-6423150D02*
X3189110Y-6432674D01*
X3189110Y-6432674D02*
X3198634Y-6451722D01*
X3198634Y-6451722D02*
X3198634Y-6556484D01*
X3198634Y-6451722D02*
X3208158Y-6432674D01*
X3208158Y-6432674D02*
X3227205Y-6423150D01*
X3227205Y-6423150D02*
X3255777Y-6423150D01*
X3255777Y-6423150D02*
X3274824Y-6432674D01*
X3274824Y-6432674D02*
X3284348Y-6451722D01*
X3284348Y-6451722D02*
X3284348Y-6556484D01*
X3379586Y-6556484D02*
X3379586Y-6423150D01*
X3379586Y-6442198D02*
X3389110Y-6432674D01*
X3389110Y-6432674D02*
X3408158Y-6423150D01*
X3408158Y-6423150D02*
X3436729Y-6423150D01*
X3436729Y-6423150D02*
X3455777Y-6432674D01*
X3455777Y-6432674D02*
X3465301Y-6451722D01*
X3465301Y-6451722D02*
X3465301Y-6556484D01*
X3465301Y-6451722D02*
X3474824Y-6432674D01*
X3474824Y-6432674D02*
X3493872Y-6423150D01*
X3493872Y-6423150D02*
X3522443Y-6423150D01*
X3522443Y-6423150D02*
X3541491Y-6432674D01*
X3541491Y-6432674D02*
X3551015Y-6451722D01*
X3551015Y-6451722D02*
X3551015Y-6556484D01*
X3941491Y-6346960D02*
X3770063Y-6604103D01*
X4198634Y-6356484D02*
X4217682Y-6356484D01*
X4217682Y-6356484D02*
X4236729Y-6366008D01*
X4236729Y-6366008D02*
X4246253Y-6375531D01*
X4246253Y-6375531D02*
X4255777Y-6394579D01*
X4255777Y-6394579D02*
X4265301Y-6432674D01*
X4265301Y-6432674D02*
X4265301Y-6480293D01*
X4265301Y-6480293D02*
X4255777Y-6518388D01*
X4255777Y-6518388D02*
X4246253Y-6537436D01*
X4246253Y-6537436D02*
X4236729Y-6546960D01*
X4236729Y-6546960D02*
X4217682Y-6556484D01*
X4217682Y-6556484D02*
X4198634Y-6556484D01*
X4198634Y-6556484D02*
X4179586Y-6546960D01*
X4179586Y-6546960D02*
X4170063Y-6537436D01*
X4170063Y-6537436D02*
X4160539Y-6518388D01*
X4160539Y-6518388D02*
X4151015Y-6480293D01*
X4151015Y-6480293D02*
X4151015Y-6432674D01*
X4151015Y-6432674D02*
X4160539Y-6394579D01*
X4160539Y-6394579D02*
X4170063Y-6375531D01*
X4170063Y-6375531D02*
X4179586Y-6366008D01*
X4179586Y-6366008D02*
X4198634Y-6356484D01*
X4351015Y-6537436D02*
X4360539Y-6546960D01*
X4360539Y-6546960D02*
X4351015Y-6556484D01*
X4351015Y-6556484D02*
X4341491Y-6546960D01*
X4341491Y-6546960D02*
X4351015Y-6537436D01*
X4351015Y-6537436D02*
X4351015Y-6556484D01*
X4484348Y-6356484D02*
X4503396Y-6356484D01*
X4503396Y-6356484D02*
X4522444Y-6366008D01*
X4522444Y-6366008D02*
X4531968Y-6375531D01*
X4531968Y-6375531D02*
X4541491Y-6394579D01*
X4541491Y-6394579D02*
X4551015Y-6432674D01*
X4551015Y-6432674D02*
X4551015Y-6480293D01*
X4551015Y-6480293D02*
X4541491Y-6518388D01*
X4541491Y-6518388D02*
X4531968Y-6537436D01*
X4531968Y-6537436D02*
X4522444Y-6546960D01*
X4522444Y-6546960D02*
X4503396Y-6556484D01*
X4503396Y-6556484D02*
X4484348Y-6556484D01*
X4484348Y-6556484D02*
X4465301Y-6546960D01*
X4465301Y-6546960D02*
X4455777Y-6537436D01*
X4455777Y-6537436D02*
X4446253Y-6518388D01*
X4446253Y-6518388D02*
X4436729Y-6480293D01*
X4436729Y-6480293D02*
X4436729Y-6432674D01*
X4436729Y-6432674D02*
X4446253Y-6394579D01*
X4446253Y-6394579D02*
X4455777Y-6375531D01*
X4455777Y-6375531D02*
X4465301Y-6366008D01*
X4465301Y-6366008D02*
X4484348Y-6356484D01*
X4617682Y-6356484D02*
X4741491Y-6356484D01*
X4741491Y-6356484D02*
X4674825Y-6432674D01*
X4674825Y-6432674D02*
X4703396Y-6432674D01*
X4703396Y-6432674D02*
X4722444Y-6442198D01*
X4722444Y-6442198D02*
X4731968Y-6451722D01*
X4731968Y-6451722D02*
X4741491Y-6470769D01*
X4741491Y-6470769D02*
X4741491Y-6518388D01*
X4741491Y-6518388D02*
X4731968Y-6537436D01*
X4731968Y-6537436D02*
X4722444Y-6546960D01*
X4722444Y-6546960D02*
X4703396Y-6556484D01*
X4703396Y-6556484D02*
X4646253Y-6556484D01*
X4646253Y-6556484D02*
X4627206Y-6546960D01*
X4627206Y-6546960D02*
X4617682Y-6537436D01*
X4836729Y-6556484D02*
X4874825Y-6556484D01*
X4874825Y-6556484D02*
X4893872Y-6546960D01*
X4893872Y-6546960D02*
X4903396Y-6537436D01*
X4903396Y-6537436D02*
X4922444Y-6508865D01*
X4922444Y-6508865D02*
X4931968Y-6470769D01*
X4931968Y-6470769D02*
X4931968Y-6394579D01*
X4931968Y-6394579D02*
X4922444Y-6375531D01*
X4922444Y-6375531D02*
X4912920Y-6366008D01*
X4912920Y-6366008D02*
X4893872Y-6356484D01*
X4893872Y-6356484D02*
X4855777Y-6356484D01*
X4855777Y-6356484D02*
X4836729Y-6366008D01*
X4836729Y-6366008D02*
X4827206Y-6375531D01*
X4827206Y-6375531D02*
X4817682Y-6394579D01*
X4817682Y-6394579D02*
X4817682Y-6442198D01*
X4817682Y-6442198D02*
X4827206Y-6461246D01*
X4827206Y-6461246D02*
X4836729Y-6470769D01*
X4836729Y-6470769D02*
X4855777Y-6480293D01*
X4855777Y-6480293D02*
X4893872Y-6480293D01*
X4893872Y-6480293D02*
X4912920Y-6470769D01*
X4912920Y-6470769D02*
X4922444Y-6461246D01*
X4922444Y-6461246D02*
X4931968Y-6442198D01*
X5103396Y-6423150D02*
X5103396Y-6556484D01*
X5055777Y-6346960D02*
X5008158Y-6489817D01*
X5008158Y-6489817D02*
X5131968Y-6489817D01*
X5198634Y-6356484D02*
X5198634Y-6394579D01*
X5274825Y-6356484D02*
X5274825Y-6394579D01*
X5570063Y-6632674D02*
X5560539Y-6623150D01*
X5560539Y-6623150D02*
X5541491Y-6594579D01*
X5541491Y-6594579D02*
X5531968Y-6575531D01*
X5531968Y-6575531D02*
X5522444Y-6546960D01*
X5522444Y-6546960D02*
X5512920Y-6499341D01*
X5512920Y-6499341D02*
X5512920Y-6461246D01*
X5512920Y-6461246D02*
X5522444Y-6413627D01*
X5522444Y-6413627D02*
X5531968Y-6385055D01*
X5531968Y-6385055D02*
X5541491Y-6366008D01*
X5541491Y-6366008D02*
X5560539Y-6337436D01*
X5560539Y-6337436D02*
X5570063Y-6327912D01*
X5636729Y-6375531D02*
X5646253Y-6366008D01*
X5646253Y-6366008D02*
X5665301Y-6356484D01*
X5665301Y-6356484D02*
X5712920Y-6356484D01*
X5712920Y-6356484D02*
X5731968Y-6366008D01*
X5731968Y-6366008D02*
X5741491Y-6375531D01*
X5741491Y-6375531D02*
X5751015Y-6394579D01*
X5751015Y-6394579D02*
X5751015Y-6413627D01*
X5751015Y-6413627D02*
X5741491Y-6442198D01*
X5741491Y-6442198D02*
X5627206Y-6556484D01*
X5627206Y-6556484D02*
X5751015Y-6556484D01*
X5989110Y-6556484D02*
X5989110Y-6356484D01*
X6074825Y-6556484D02*
X6074825Y-6451722D01*
X6074825Y-6451722D02*
X6065301Y-6432674D01*
X6065301Y-6432674D02*
X6046253Y-6423150D01*
X6046253Y-6423150D02*
X6017682Y-6423150D01*
X6017682Y-6423150D02*
X5998634Y-6432674D01*
X5998634Y-6432674D02*
X5989110Y-6442198D01*
X6198634Y-6556484D02*
X6179587Y-6546960D01*
X6179587Y-6546960D02*
X6170063Y-6537436D01*
X6170063Y-6537436D02*
X6160539Y-6518388D01*
X6160539Y-6518388D02*
X6160539Y-6461246D01*
X6160539Y-6461246D02*
X6170063Y-6442198D01*
X6170063Y-6442198D02*
X6179587Y-6432674D01*
X6179587Y-6432674D02*
X6198634Y-6423150D01*
X6198634Y-6423150D02*
X6227206Y-6423150D01*
X6227206Y-6423150D02*
X6246253Y-6432674D01*
X6246253Y-6432674D02*
X6255777Y-6442198D01*
X6255777Y-6442198D02*
X6265301Y-6461246D01*
X6265301Y-6461246D02*
X6265301Y-6518388D01*
X6265301Y-6518388D02*
X6255777Y-6537436D01*
X6255777Y-6537436D02*
X6246253Y-6546960D01*
X6246253Y-6546960D02*
X6227206Y-6556484D01*
X6227206Y-6556484D02*
X6198634Y-6556484D01*
X6379587Y-6556484D02*
X6360539Y-6546960D01*
X6360539Y-6546960D02*
X6351015Y-6527912D01*
X6351015Y-6527912D02*
X6351015Y-6356484D01*
X6531968Y-6546960D02*
X6512920Y-6556484D01*
X6512920Y-6556484D02*
X6474825Y-6556484D01*
X6474825Y-6556484D02*
X6455777Y-6546960D01*
X6455777Y-6546960D02*
X6446253Y-6527912D01*
X6446253Y-6527912D02*
X6446253Y-6451722D01*
X6446253Y-6451722D02*
X6455777Y-6432674D01*
X6455777Y-6432674D02*
X6474825Y-6423150D01*
X6474825Y-6423150D02*
X6512920Y-6423150D01*
X6512920Y-6423150D02*
X6531968Y-6432674D01*
X6531968Y-6432674D02*
X6541491Y-6451722D01*
X6541491Y-6451722D02*
X6541491Y-6470769D01*
X6541491Y-6470769D02*
X6446253Y-6489817D01*
X6617682Y-6546960D02*
X6636730Y-6556484D01*
X6636730Y-6556484D02*
X6674825Y-6556484D01*
X6674825Y-6556484D02*
X6693872Y-6546960D01*
X6693872Y-6546960D02*
X6703396Y-6527912D01*
X6703396Y-6527912D02*
X6703396Y-6518388D01*
X6703396Y-6518388D02*
X6693872Y-6499341D01*
X6693872Y-6499341D02*
X6674825Y-6489817D01*
X6674825Y-6489817D02*
X6646253Y-6489817D01*
X6646253Y-6489817D02*
X6627206Y-6480293D01*
X6627206Y-6480293D02*
X6617682Y-6461246D01*
X6617682Y-6461246D02*
X6617682Y-6451722D01*
X6617682Y-6451722D02*
X6627206Y-6432674D01*
X6627206Y-6432674D02*
X6646253Y-6423150D01*
X6646253Y-6423150D02*
X6674825Y-6423150D01*
X6674825Y-6423150D02*
X6693872Y-6432674D01*
X6770063Y-6632674D02*
X6779587Y-6623150D01*
X6779587Y-6623150D02*
X6798634Y-6594579D01*
X6798634Y-6594579D02*
X6808158Y-6575531D01*
X6808158Y-6575531D02*
X6817682Y-6546960D01*
X6817682Y-6546960D02*
X6827206Y-6499341D01*
X6827206Y-6499341D02*
X6827206Y-6461246D01*
X6827206Y-6461246D02*
X6817682Y-6413627D01*
X6817682Y-6413627D02*
X6808158Y-6385055D01*
X6808158Y-6385055D02*
X6798634Y-6366008D01*
X6798634Y-6366008D02*
X6779587Y-6337436D01*
X6779587Y-6337436D02*
X6770063Y-6327912D01*
X1795000Y-6629000D02*
X1995000Y-6829000D01*
X1995000Y-6629000D02*
X1795000Y-6829000D01*
X1895000Y-6629000D02*
X1895000Y-6829000D01*
X1795000Y-6729000D02*
X1995000Y-6729000D01*
X2236729Y-6620484D02*
X2360539Y-6620484D01*
X2360539Y-6620484D02*
X2293872Y-6696674D01*
X2293872Y-6696674D02*
X2322444Y-6696674D01*
X2322444Y-6696674D02*
X2341491Y-6706198D01*
X2341491Y-6706198D02*
X2351015Y-6715722D01*
X2351015Y-6715722D02*
X2360539Y-6734769D01*
X2360539Y-6734769D02*
X2360539Y-6782388D01*
X2360539Y-6782388D02*
X2351015Y-6801436D01*
X2351015Y-6801436D02*
X2341491Y-6810960D01*
X2341491Y-6810960D02*
X2322444Y-6820484D01*
X2322444Y-6820484D02*
X2265301Y-6820484D01*
X2265301Y-6820484D02*
X2246253Y-6810960D01*
X2246253Y-6810960D02*
X2236729Y-6801436D01*
X2446253Y-6801436D02*
X2455777Y-6810960D01*
X2455777Y-6810960D02*
X2446253Y-6820484D01*
X2446253Y-6820484D02*
X2436729Y-6810960D01*
X2436729Y-6810960D02*
X2446253Y-6801436D01*
X2446253Y-6801436D02*
X2446253Y-6820484D01*
X2531967Y-6639531D02*
X2541491Y-6630008D01*
X2541491Y-6630008D02*
X2560539Y-6620484D01*
X2560539Y-6620484D02*
X2608158Y-6620484D01*
X2608158Y-6620484D02*
X2627205Y-6630008D01*
X2627205Y-6630008D02*
X2636729Y-6639531D01*
X2636729Y-6639531D02*
X2646253Y-6658579D01*
X2646253Y-6658579D02*
X2646253Y-6677627D01*
X2646253Y-6677627D02*
X2636729Y-6706198D01*
X2636729Y-6706198D02*
X2522444Y-6820484D01*
X2522444Y-6820484D02*
X2646253Y-6820484D01*
X2770063Y-6620484D02*
X2789110Y-6620484D01*
X2789110Y-6620484D02*
X2808158Y-6630008D01*
X2808158Y-6630008D02*
X2817682Y-6639531D01*
X2817682Y-6639531D02*
X2827205Y-6658579D01*
X2827205Y-6658579D02*
X2836729Y-6696674D01*
X2836729Y-6696674D02*
X2836729Y-6744293D01*
X2836729Y-6744293D02*
X2827205Y-6782388D01*
X2827205Y-6782388D02*
X2817682Y-6801436D01*
X2817682Y-6801436D02*
X2808158Y-6810960D01*
X2808158Y-6810960D02*
X2789110Y-6820484D01*
X2789110Y-6820484D02*
X2770063Y-6820484D01*
X2770063Y-6820484D02*
X2751015Y-6810960D01*
X2751015Y-6810960D02*
X2741491Y-6801436D01*
X2741491Y-6801436D02*
X2731967Y-6782388D01*
X2731967Y-6782388D02*
X2722444Y-6744293D01*
X2722444Y-6744293D02*
X2722444Y-6696674D01*
X2722444Y-6696674D02*
X2731967Y-6658579D01*
X2731967Y-6658579D02*
X2741491Y-6639531D01*
X2741491Y-6639531D02*
X2751015Y-6630008D01*
X2751015Y-6630008D02*
X2770063Y-6620484D01*
X2960539Y-6620484D02*
X2979586Y-6620484D01*
X2979586Y-6620484D02*
X2998634Y-6630008D01*
X2998634Y-6630008D02*
X3008158Y-6639531D01*
X3008158Y-6639531D02*
X3017682Y-6658579D01*
X3017682Y-6658579D02*
X3027205Y-6696674D01*
X3027205Y-6696674D02*
X3027205Y-6744293D01*
X3027205Y-6744293D02*
X3017682Y-6782388D01*
X3017682Y-6782388D02*
X3008158Y-6801436D01*
X3008158Y-6801436D02*
X2998634Y-6810960D01*
X2998634Y-6810960D02*
X2979586Y-6820484D01*
X2979586Y-6820484D02*
X2960539Y-6820484D01*
X2960539Y-6820484D02*
X2941491Y-6810960D01*
X2941491Y-6810960D02*
X2931967Y-6801436D01*
X2931967Y-6801436D02*
X2922443Y-6782388D01*
X2922443Y-6782388D02*
X2912920Y-6744293D01*
X2912920Y-6744293D02*
X2912920Y-6696674D01*
X2912920Y-6696674D02*
X2922443Y-6658579D01*
X2922443Y-6658579D02*
X2931967Y-6639531D01*
X2931967Y-6639531D02*
X2941491Y-6630008D01*
X2941491Y-6630008D02*
X2960539Y-6620484D01*
X3112920Y-6820484D02*
X3112920Y-6687150D01*
X3112920Y-6706198D02*
X3122443Y-6696674D01*
X3122443Y-6696674D02*
X3141491Y-6687150D01*
X3141491Y-6687150D02*
X3170063Y-6687150D01*
X3170063Y-6687150D02*
X3189110Y-6696674D01*
X3189110Y-6696674D02*
X3198634Y-6715722D01*
X3198634Y-6715722D02*
X3198634Y-6820484D01*
X3198634Y-6715722D02*
X3208158Y-6696674D01*
X3208158Y-6696674D02*
X3227205Y-6687150D01*
X3227205Y-6687150D02*
X3255777Y-6687150D01*
X3255777Y-6687150D02*
X3274824Y-6696674D01*
X3274824Y-6696674D02*
X3284348Y-6715722D01*
X3284348Y-6715722D02*
X3284348Y-6820484D01*
X3379586Y-6820484D02*
X3379586Y-6687150D01*
X3379586Y-6706198D02*
X3389110Y-6696674D01*
X3389110Y-6696674D02*
X3408158Y-6687150D01*
X3408158Y-6687150D02*
X3436729Y-6687150D01*
X3436729Y-6687150D02*
X3455777Y-6696674D01*
X3455777Y-6696674D02*
X3465301Y-6715722D01*
X3465301Y-6715722D02*
X3465301Y-6820484D01*
X3465301Y-6715722D02*
X3474824Y-6696674D01*
X3474824Y-6696674D02*
X3493872Y-6687150D01*
X3493872Y-6687150D02*
X3522443Y-6687150D01*
X3522443Y-6687150D02*
X3541491Y-6696674D01*
X3541491Y-6696674D02*
X3551015Y-6715722D01*
X3551015Y-6715722D02*
X3551015Y-6820484D01*
X3941491Y-6610960D02*
X3770063Y-6868103D01*
X4198634Y-6620484D02*
X4217682Y-6620484D01*
X4217682Y-6620484D02*
X4236729Y-6630008D01*
X4236729Y-6630008D02*
X4246253Y-6639531D01*
X4246253Y-6639531D02*
X4255777Y-6658579D01*
X4255777Y-6658579D02*
X4265301Y-6696674D01*
X4265301Y-6696674D02*
X4265301Y-6744293D01*
X4265301Y-6744293D02*
X4255777Y-6782388D01*
X4255777Y-6782388D02*
X4246253Y-6801436D01*
X4246253Y-6801436D02*
X4236729Y-6810960D01*
X4236729Y-6810960D02*
X4217682Y-6820484D01*
X4217682Y-6820484D02*
X4198634Y-6820484D01*
X4198634Y-6820484D02*
X4179586Y-6810960D01*
X4179586Y-6810960D02*
X4170063Y-6801436D01*
X4170063Y-6801436D02*
X4160539Y-6782388D01*
X4160539Y-6782388D02*
X4151015Y-6744293D01*
X4151015Y-6744293D02*
X4151015Y-6696674D01*
X4151015Y-6696674D02*
X4160539Y-6658579D01*
X4160539Y-6658579D02*
X4170063Y-6639531D01*
X4170063Y-6639531D02*
X4179586Y-6630008D01*
X4179586Y-6630008D02*
X4198634Y-6620484D01*
X4351015Y-6801436D02*
X4360539Y-6810960D01*
X4360539Y-6810960D02*
X4351015Y-6820484D01*
X4351015Y-6820484D02*
X4341491Y-6810960D01*
X4341491Y-6810960D02*
X4351015Y-6801436D01*
X4351015Y-6801436D02*
X4351015Y-6820484D01*
X4551015Y-6820484D02*
X4436729Y-6820484D01*
X4493872Y-6820484D02*
X4493872Y-6620484D01*
X4493872Y-6620484D02*
X4474825Y-6649055D01*
X4474825Y-6649055D02*
X4455777Y-6668103D01*
X4455777Y-6668103D02*
X4436729Y-6677627D01*
X4627206Y-6639531D02*
X4636729Y-6630008D01*
X4636729Y-6630008D02*
X4655777Y-6620484D01*
X4655777Y-6620484D02*
X4703396Y-6620484D01*
X4703396Y-6620484D02*
X4722444Y-6630008D01*
X4722444Y-6630008D02*
X4731968Y-6639531D01*
X4731968Y-6639531D02*
X4741491Y-6658579D01*
X4741491Y-6658579D02*
X4741491Y-6677627D01*
X4741491Y-6677627D02*
X4731968Y-6706198D01*
X4731968Y-6706198D02*
X4617682Y-6820484D01*
X4617682Y-6820484D02*
X4741491Y-6820484D01*
X4912920Y-6620484D02*
X4874825Y-6620484D01*
X4874825Y-6620484D02*
X4855777Y-6630008D01*
X4855777Y-6630008D02*
X4846253Y-6639531D01*
X4846253Y-6639531D02*
X4827206Y-6668103D01*
X4827206Y-6668103D02*
X4817682Y-6706198D01*
X4817682Y-6706198D02*
X4817682Y-6782388D01*
X4817682Y-6782388D02*
X4827206Y-6801436D01*
X4827206Y-6801436D02*
X4836729Y-6810960D01*
X4836729Y-6810960D02*
X4855777Y-6820484D01*
X4855777Y-6820484D02*
X4893872Y-6820484D01*
X4893872Y-6820484D02*
X4912920Y-6810960D01*
X4912920Y-6810960D02*
X4922444Y-6801436D01*
X4922444Y-6801436D02*
X4931968Y-6782388D01*
X4931968Y-6782388D02*
X4931968Y-6734769D01*
X4931968Y-6734769D02*
X4922444Y-6715722D01*
X4922444Y-6715722D02*
X4912920Y-6706198D01*
X4912920Y-6706198D02*
X4893872Y-6696674D01*
X4893872Y-6696674D02*
X4855777Y-6696674D01*
X4855777Y-6696674D02*
X4836729Y-6706198D01*
X4836729Y-6706198D02*
X4827206Y-6715722D01*
X4827206Y-6715722D02*
X4817682Y-6734769D01*
X5055777Y-6620484D02*
X5074825Y-6620484D01*
X5074825Y-6620484D02*
X5093872Y-6630008D01*
X5093872Y-6630008D02*
X5103396Y-6639531D01*
X5103396Y-6639531D02*
X5112920Y-6658579D01*
X5112920Y-6658579D02*
X5122444Y-6696674D01*
X5122444Y-6696674D02*
X5122444Y-6744293D01*
X5122444Y-6744293D02*
X5112920Y-6782388D01*
X5112920Y-6782388D02*
X5103396Y-6801436D01*
X5103396Y-6801436D02*
X5093872Y-6810960D01*
X5093872Y-6810960D02*
X5074825Y-6820484D01*
X5074825Y-6820484D02*
X5055777Y-6820484D01*
X5055777Y-6820484D02*
X5036729Y-6810960D01*
X5036729Y-6810960D02*
X5027206Y-6801436D01*
X5027206Y-6801436D02*
X5017682Y-6782388D01*
X5017682Y-6782388D02*
X5008158Y-6744293D01*
X5008158Y-6744293D02*
X5008158Y-6696674D01*
X5008158Y-6696674D02*
X5017682Y-6658579D01*
X5017682Y-6658579D02*
X5027206Y-6639531D01*
X5027206Y-6639531D02*
X5036729Y-6630008D01*
X5036729Y-6630008D02*
X5055777Y-6620484D01*
X5198634Y-6620484D02*
X5198634Y-6658579D01*
X5274825Y-6620484D02*
X5274825Y-6658579D01*
X5570063Y-6896674D02*
X5560539Y-6887150D01*
X5560539Y-6887150D02*
X5541491Y-6858579D01*
X5541491Y-6858579D02*
X5531968Y-6839531D01*
X5531968Y-6839531D02*
X5522444Y-6810960D01*
X5522444Y-6810960D02*
X5512920Y-6763341D01*
X5512920Y-6763341D02*
X5512920Y-6725246D01*
X5512920Y-6725246D02*
X5522444Y-6677627D01*
X5522444Y-6677627D02*
X5531968Y-6649055D01*
X5531968Y-6649055D02*
X5541491Y-6630008D01*
X5541491Y-6630008D02*
X5560539Y-6601436D01*
X5560539Y-6601436D02*
X5570063Y-6591912D01*
X5636729Y-6639531D02*
X5646253Y-6630008D01*
X5646253Y-6630008D02*
X5665301Y-6620484D01*
X5665301Y-6620484D02*
X5712920Y-6620484D01*
X5712920Y-6620484D02*
X5731968Y-6630008D01*
X5731968Y-6630008D02*
X5741491Y-6639531D01*
X5741491Y-6639531D02*
X5751015Y-6658579D01*
X5751015Y-6658579D02*
X5751015Y-6677627D01*
X5751015Y-6677627D02*
X5741491Y-6706198D01*
X5741491Y-6706198D02*
X5627206Y-6820484D01*
X5627206Y-6820484D02*
X5751015Y-6820484D01*
X5989110Y-6820484D02*
X5989110Y-6620484D01*
X6074825Y-6820484D02*
X6074825Y-6715722D01*
X6074825Y-6715722D02*
X6065301Y-6696674D01*
X6065301Y-6696674D02*
X6046253Y-6687150D01*
X6046253Y-6687150D02*
X6017682Y-6687150D01*
X6017682Y-6687150D02*
X5998634Y-6696674D01*
X5998634Y-6696674D02*
X5989110Y-6706198D01*
X6198634Y-6820484D02*
X6179587Y-6810960D01*
X6179587Y-6810960D02*
X6170063Y-6801436D01*
X6170063Y-6801436D02*
X6160539Y-6782388D01*
X6160539Y-6782388D02*
X6160539Y-6725246D01*
X6160539Y-6725246D02*
X6170063Y-6706198D01*
X6170063Y-6706198D02*
X6179587Y-6696674D01*
X6179587Y-6696674D02*
X6198634Y-6687150D01*
X6198634Y-6687150D02*
X6227206Y-6687150D01*
X6227206Y-6687150D02*
X6246253Y-6696674D01*
X6246253Y-6696674D02*
X6255777Y-6706198D01*
X6255777Y-6706198D02*
X6265301Y-6725246D01*
X6265301Y-6725246D02*
X6265301Y-6782388D01*
X6265301Y-6782388D02*
X6255777Y-6801436D01*
X6255777Y-6801436D02*
X6246253Y-6810960D01*
X6246253Y-6810960D02*
X6227206Y-6820484D01*
X6227206Y-6820484D02*
X6198634Y-6820484D01*
X6379587Y-6820484D02*
X6360539Y-6810960D01*
X6360539Y-6810960D02*
X6351015Y-6791912D01*
X6351015Y-6791912D02*
X6351015Y-6620484D01*
X6531968Y-6810960D02*
X6512920Y-6820484D01*
X6512920Y-6820484D02*
X6474825Y-6820484D01*
X6474825Y-6820484D02*
X6455777Y-6810960D01*
X6455777Y-6810960D02*
X6446253Y-6791912D01*
X6446253Y-6791912D02*
X6446253Y-6715722D01*
X6446253Y-6715722D02*
X6455777Y-6696674D01*
X6455777Y-6696674D02*
X6474825Y-6687150D01*
X6474825Y-6687150D02*
X6512920Y-6687150D01*
X6512920Y-6687150D02*
X6531968Y-6696674D01*
X6531968Y-6696674D02*
X6541491Y-6715722D01*
X6541491Y-6715722D02*
X6541491Y-6734769D01*
X6541491Y-6734769D02*
X6446253Y-6753817D01*
X6617682Y-6810960D02*
X6636730Y-6820484D01*
X6636730Y-6820484D02*
X6674825Y-6820484D01*
X6674825Y-6820484D02*
X6693872Y-6810960D01*
X6693872Y-6810960D02*
X6703396Y-6791912D01*
X6703396Y-6791912D02*
X6703396Y-6782388D01*
X6703396Y-6782388D02*
X6693872Y-6763341D01*
X6693872Y-6763341D02*
X6674825Y-6753817D01*
X6674825Y-6753817D02*
X6646253Y-6753817D01*
X6646253Y-6753817D02*
X6627206Y-6744293D01*
X6627206Y-6744293D02*
X6617682Y-6725246D01*
X6617682Y-6725246D02*
X6617682Y-6715722D01*
X6617682Y-6715722D02*
X6627206Y-6696674D01*
X6627206Y-6696674D02*
X6646253Y-6687150D01*
X6646253Y-6687150D02*
X6674825Y-6687150D01*
X6674825Y-6687150D02*
X6693872Y-6696674D01*
X6770063Y-6896674D02*
X6779587Y-6887150D01*
X6779587Y-6887150D02*
X6798634Y-6858579D01*
X6798634Y-6858579D02*
X6808158Y-6839531D01*
X6808158Y-6839531D02*
X6817682Y-6810960D01*
X6817682Y-6810960D02*
X6827206Y-6763341D01*
X6827206Y-6763341D02*
X6827206Y-6725246D01*
X6827206Y-6725246D02*
X6817682Y-6677627D01*
X6817682Y-6677627D02*
X6808158Y-6649055D01*
X6808158Y-6649055D02*
X6798634Y-6630008D01*
X6798634Y-6630008D02*
X6779587Y-6601436D01*
X6779587Y-6601436D02*
X6770063Y-6591912D01*
M02*
