M48
; DRILL file {KiCad 8.0.1-rc1} date 2024-04-12T00:40:07-0700
; FORMAT={-:-/ absolute / metric / decimal}
; #@! TF.CreationDate,2024-04-12T00:40:07-07:00
; #@! TF.GenerationSoftware,Kicad,Pcbnew,8.0.1-rc1
; #@! TF.FileFunction,Plated,1,4,PTH
FMAT,2
METRIC
; #@! TA.AperFunction,Plated,PTH,ComponentDrill
T1C0.200
; #@! TA.AperFunction,Plated,PTH,ViaDrill
T2C0.300
; #@! TA.AperFunction,Plated,PTH,ViaDrill
T3C0.330
; #@! TA.AperFunction,Plated,PTH,ComponentDrill
T4C0.600
; #@! TA.AperFunction,Plated,PTH,ComponentDrill
T5C0.750
; #@! TA.AperFunction,Plated,PTH,ComponentDrill
T6C0.800
; #@! TA.AperFunction,Plated,PTH,ComponentDrill
T7C1.000
; #@! TA.AperFunction,Plated,PTH,ComponentDrill
T8C1.100
; #@! TA.AperFunction,Plated,PTH,ComponentDrill
T9C2.200
; #@! TA.AperFunction,Plated,PTH,ComponentDrill
T10C2.700
; #@! TA.AperFunction,Plated,PTH,ComponentDrill
T11C3.200
%
G90
G05
T1
X101.6Y-64.6
X101.6Y-65.3
X101.6Y-66.0
X101.6Y-66.7
X101.6Y-67.4
X102.3Y-64.6
X102.3Y-65.3
X102.3Y-66.0
X102.3Y-66.7
X102.3Y-67.4
X103.0Y-64.6
X103.0Y-65.3
X103.0Y-66.0
X103.0Y-66.7
X103.0Y-67.4
X103.7Y-64.6
X103.7Y-65.3
X103.7Y-66.0
X103.7Y-66.7
X103.7Y-67.4
X104.4Y-64.6
X104.4Y-65.3
X104.4Y-66.0
X104.4Y-66.7
X104.4Y-67.4
T2
X42.03Y-89.21
X42.72Y-84.119
X42.88Y-89.21
X43.29Y-79.73
X43.94Y-90.9
X43.95Y-90.07
X44.58Y-88.32
X44.788Y-80.177
X45.167Y-82.039
X45.962Y-90.008
X46.543Y-76.888
X46.629Y-85.041
X46.78Y-74.94
X47.49Y-84.069
X47.89Y-91.14
X48.658Y-73.043
X49.022Y-74.832
X49.033Y-76.143
X49.22Y-87.55
X49.292Y-83.183
X49.42Y-92.44
X49.5Y-98.81
X49.75Y-91.02
X49.926Y-97.844
X50.304Y-82.854
X50.51Y-71.39
X50.55Y-76.15
X50.656Y-96.579
X50.725Y-85.829
X50.753Y-84.046
X51.176Y-92.685
X51.28Y-100.11
X51.93Y-79.351
X51.938Y-91.364
X52.31Y-78.611
X52.33Y-76.61
X52.54Y-87.27
X52.581Y-83.665
X52.61Y-65.95
X52.68Y-77.85
X52.69Y-101.11
X52.773Y-85.396
X52.851Y-89.784
X52.959Y-96.616
X53.237Y-101.695
X53.43Y-92.511
X53.656Y-97.168
X54.176Y-91.458
X54.22Y-64.72
X54.578Y-94.271
X55.933Y-95.385
X56.36Y-103.59
X56.46Y-45.02
X56.55Y-44.1
X57.24Y-46.293
X57.828Y-95.033
X58.64Y-104.76
X59.098Y-92.833
X59.5Y-105.07
X60.45Y-105.62
X62.763Y-42.805
X65.81Y-107.36
X66.19Y-105.21
X66.237Y-50.112
X66.88Y-48.295
X67.1Y-108.34
X67.301Y-45.104
X67.507Y-52.312
X67.754Y-41.864
X68.255Y-56.575
X68.484Y-43.128
X68.522Y-47.679
X69.222Y-56.534
X70.198Y-105.262
X70.62Y-47.564
X70.758Y-103.828
X70.77Y-108.06
X70.85Y-109.93
X71.159Y-48.737
X71.597Y-45.525
X71.802Y-102.948
X71.92Y-107.36
X71.94Y-108.16
X72.16Y-101.252
X72.359Y-46.846
X72.66Y-110.66
X73.05Y-107.07
X73.272Y-48.426
X73.51Y-102.69
X73.62Y-101.252
X73.91Y-109.72
X73.92Y-108.92
X74.1Y-85.026
X74.17Y-110.93
X74.7Y-103.02
X74.77Y-109.71
X74.89Y-111.29
X75.4Y-99.115
X75.4Y-100.385
X75.4Y-101.655
X75.57Y-109.69
X75.809Y-111.499
X76.589Y-106.727
X76.77Y-83.5
X77.57Y-102.8
X77.94Y-105.91
X78.0Y-107.15
X78.325Y-99.725
X79.0Y-100.7
X79.144Y-107.525
X79.2Y-99.675
X79.33Y-111.84
X79.35Y-81.994
X79.4Y-101.58
X79.4Y-103.27
X79.812Y-100.725
X80.373Y-109.86
X80.4Y-100.175
X81.1Y-83.66
X81.45Y-107.44
X81.77Y-108.31
X81.8Y-48.46
X81.87Y-53.03
X82.15Y-109.17
X82.5Y-107.81
X82.6Y-101.65
X83.1Y-82.52
X83.44Y-108.31
X83.46Y-47.34
X84.04Y-107.56
X84.17Y-95.33
X84.29Y-106.79
X84.38Y-101.822
X84.63Y-104.4
X84.64Y-103.6
X84.84Y-99.55
X85.03Y-48.16
X85.22Y-106.59
X85.43Y-103.93
X86.15Y-103.13
X86.15Y-105.14
X86.89Y-96.37
X88.574Y-49.688
X88.62Y-97.97
X89.52Y-97.02
X89.562Y-91.934
X89.91Y-53.54
X90.03Y-78.81
X91.186Y-52.568
X91.29Y-99.73
X91.35Y-77.32
X91.61Y-59.43
X92.247Y-51.507
X93.09Y-77.33
X93.51Y-78.1
X93.62Y-95.04
X93.676Y-88.85
X94.03Y-86.73
X94.28Y-61.31
X94.65Y-60.59
X94.662Y-97.375
X94.75Y-59.37
X94.914Y-96.328
X95.04Y-93.62
X95.62Y-85.23
X95.86Y-81.98
X96.21Y-91.12
X96.328Y-94.914
X96.593Y-100.482
X96.61Y-59.37
X96.74Y-88.15
X96.77Y-67.57
X97.02Y-85.06
X97.377Y-94.66
X97.54Y-58.56
X97.9Y-89.75
X98.07Y-92.52
X98.395Y-79.855
X98.877Y-86.79
X99.54Y-53.24
X99.665Y-84.805
X99.76Y-58.8
X100.04Y-56.77
X100.05Y-54.57
X100.18Y-90.78
X100.482Y-96.593
X100.703Y-86.79
X100.79Y-68.46
X100.882Y-69.84
X100.935Y-79.855
X100.95Y-84.925
X101.26Y-92.7
X101.79Y-90.58
X101.9Y-83.05
X102.188Y-81.32
X102.2Y-89.08
X102.227Y-86.79
X102.82Y-53.32
X103.13Y-70.21
X103.38Y-90.33
X103.39Y-94.42
X104.08Y-93.84
X104.11Y-70.22
X104.74Y-83.28
X104.87Y-82.4
X104.98Y-70.49
X105.14Y-62.7
X105.302Y-64.35
X105.302Y-67.64
X105.79Y-70.52
X105.86Y-85.292
X106.47Y-65.5
X106.47Y-66.5
X106.47Y-68.47
X106.48Y-63.51
X106.56Y-92.03
X106.59Y-89.97
X107.32Y-85.292
X107.44Y-90.0
X107.57Y-90.86
X107.57Y-92.05
X107.58Y-72.898
X107.69Y-60.72
X107.82Y-71.99
X107.88Y-70.36
X107.89Y-71.18
X107.95Y-66.05
X108.04Y-63.71
X108.83Y-62.43
X108.99Y-79.25
X109.0Y-80.5
X109.08Y-70.36
X109.32Y-86.42
X110.0Y-68.25
X110.0Y-69.25
X110.0Y-70.25
X110.58Y-77.13
X110.78Y-79.64
X111.11Y-72.66
T3
X53.754Y-98.299
X55.963Y-99.574
X55.967Y-101.366
X56.647Y-101.989
X60.803Y-45.611
X61.683Y-45.334
X62.59Y-91.103
X63.237Y-46.226
X65.446Y-44.951
X67.259Y-56.201
X69.91Y-57.1
X70.861Y-39.929
X70.96Y-57.21
X71.95Y-57.41
X72.325Y-40.885
X72.46Y-58.44
X73.087Y-40.445
X76.468Y-102.501
X76.584Y-46.491
X76.769Y-107.53
X77.47Y-109.44
X77.503Y-38.946
X78.076Y-44.737
X78.468Y-109.86
X78.758Y-39.088
X79.105Y-46.801
X80.597Y-45.046
X82.642Y-44.351
X83.467Y-41.04
X84.235Y-44.793
X85.233Y-41.529
X85.804Y-45.317
X86.971Y-42.111
X87.342Y-45.924
X88.676Y-42.782
X95.151Y-77.696
X105.8Y-79.2
X105.8Y-81.75
X107.35Y-78.3
X107.55Y-77.4
T5
X40.552Y-80.988
X40.951Y-82.948
T6
X101.34Y-60.08
X103.815Y-57.605
T7
X41.861Y-87.104
X44.35Y-86.598
X59.46Y-66.11
X59.46Y-68.65
X59.46Y-71.19
X59.46Y-73.73
X59.46Y-76.27
X59.46Y-78.81
X59.46Y-81.35
X59.46Y-83.89
X62.0Y-66.11
X62.0Y-68.65
X62.0Y-71.19
X62.0Y-73.73
X62.0Y-76.27
X62.0Y-78.81
X62.0Y-81.35
X62.0Y-83.89
X65.96Y-71.19
X65.96Y-73.73
X65.96Y-76.27
X65.96Y-78.81
X68.5Y-71.19
X68.5Y-73.73
X68.5Y-76.27
X68.5Y-78.81
X73.801Y-59.297
X73.801Y-90.703
X75.071Y-57.097
X75.071Y-92.903
X76.001Y-60.567
X76.001Y-89.433
X76.38Y-73.73
X76.38Y-76.27
X77.271Y-58.367
X77.271Y-91.633
X78.2Y-61.837
X78.2Y-88.163
X78.92Y-73.73
X78.92Y-76.27
X79.47Y-59.637
X79.47Y-90.363
X80.4Y-63.107
X80.4Y-86.893
X81.46Y-73.73
X81.46Y-76.27
X81.67Y-60.907
X81.67Y-89.093
X82.6Y-64.377
X82.6Y-85.623
X83.87Y-62.177
X83.87Y-87.823
X84.0Y-73.73
X84.0Y-76.27
X84.8Y-65.647
X84.8Y-84.353
X86.07Y-63.447
X86.07Y-86.553
X86.999Y-66.917
X86.999Y-83.083
X88.269Y-64.717
X88.269Y-85.283
X89.199Y-68.187
X89.199Y-81.813
X90.469Y-65.987
X90.469Y-84.013
T8
X55.49Y-52.243
X56.76Y-54.442
X58.03Y-56.642
X64.662Y-103.297
X65.932Y-101.097
X67.202Y-98.898
T9
X68.0Y-62.876
X68.0Y-87.124
X89.0Y-75.0
T10
X49.8Y-55.92
X52.3Y-60.25
T11
X41.0Y-75.0
X92.0Y-104.445
X92.5Y-45.555
T4
X93.53Y-99.639G85X94.237Y-100.346
G05
X96.128Y-102.238G85X97.048Y-103.157
G05
X99.639Y-93.53G85X100.346Y-94.237
G05
X102.238Y-96.128G85X103.157Y-97.048
G05
M30
