G04 #@! TF.GenerationSoftware,KiCad,Pcbnew,8.0.1-rc1*
G04 #@! TF.CreationDate,2024-04-12T00:39:34-07:00*
G04 #@! TF.ProjectId,Toolhead Board,546f6f6c-6865-4616-9420-426f6172642e,1*
G04 #@! TF.SameCoordinates,Original*
G04 #@! TF.FileFunction,Paste,Bot*
G04 #@! TF.FilePolarity,Positive*
%FSLAX46Y46*%
G04 Gerber Fmt 4.6, Leading zero omitted, Abs format (unit mm)*
G04 Created by KiCad (PCBNEW 8.0.1-rc1) date 2024-04-12 00:39:34*
%MOMM*%
%LPD*%
G01*
G04 APERTURE LIST*
G04 Aperture macros list*
%AMRoundRect*
0 Rectangle with rounded corners*
0 $1 Rounding radius*
0 $2 $3 $4 $5 $6 $7 $8 $9 X,Y pos of 4 corners*
0 Add a 4 corners polygon primitive as box body*
4,1,4,$2,$3,$4,$5,$6,$7,$8,$9,$2,$3,0*
0 Add four circle primitives for the rounded corners*
1,1,$1+$1,$2,$3*
1,1,$1+$1,$4,$5*
1,1,$1+$1,$6,$7*
1,1,$1+$1,$8,$9*
0 Add four rect primitives between the rounded corners*
20,1,$1+$1,$2,$3,$4,$5,0*
20,1,$1+$1,$4,$5,$6,$7,0*
20,1,$1+$1,$6,$7,$8,$9,0*
20,1,$1+$1,$8,$9,$2,$3,0*%
%AMRotRect*
0 Rectangle, with rotation*
0 The origin of the aperture is its center*
0 $1 length*
0 $2 width*
0 $3 Rotation angle, in degrees counterclockwise*
0 Add horizontal line*
21,1,$1,$2,0,0,$3*%
G04 Aperture macros list end*
%ADD10RoundRect,0.237500X0.097756X0.330681X-0.335256X0.080681X-0.097756X-0.330681X0.335256X-0.080681X0*%
%ADD11RoundRect,0.237500X-0.080681X0.335256X-0.330681X-0.097756X0.080681X-0.335256X0.330681X0.097756X0*%
%ADD12RoundRect,0.237500X-0.355681X0.141058X-0.055681X-0.378558X0.355681X-0.141058X0.055681X0.378558X0*%
%ADD13RoundRect,0.237500X0.237500X-0.250000X0.237500X0.250000X-0.237500X0.250000X-0.237500X-0.250000X0*%
%ADD14RoundRect,0.250000X-0.362500X-1.425000X0.362500X-1.425000X0.362500X1.425000X-0.362500X1.425000X0*%
%ADD15RoundRect,0.237500X-0.344715X0.008839X0.008839X-0.344715X0.344715X-0.008839X-0.008839X0.344715X0*%
%ADD16RoundRect,0.237500X0.008839X0.344715X-0.344715X-0.008839X-0.008839X-0.344715X0.344715X0.008839X0*%
%ADD17RoundRect,0.237500X-0.237500X0.250000X-0.237500X-0.250000X0.237500X-0.250000X0.237500X0.250000X0*%
%ADD18RoundRect,0.237500X0.044194X0.380070X-0.380070X-0.044194X-0.044194X-0.380070X0.380070X0.044194X0*%
%ADD19RoundRect,0.237500X0.055681X-0.378558X0.355681X0.141058X-0.055681X0.378558X-0.355681X-0.141058X0*%
%ADD20RoundRect,0.237500X0.355681X-0.141058X0.055681X0.378558X-0.355681X0.141058X-0.055681X-0.378558X0*%
%ADD21RoundRect,0.237500X-0.335256X-0.080681X0.097756X-0.330681X0.335256X0.080681X-0.097756X0.330681X0*%
%ADD22RoundRect,0.250000X-1.052836X1.026434X-1.415336X0.398566X1.052836X-1.026434X1.415336X-0.398566X0*%
%ADD23RoundRect,0.250000X-0.337500X-0.475000X0.337500X-0.475000X0.337500X0.475000X-0.337500X0.475000X0*%
%ADD24RoundRect,0.250000X1.415336X0.398566X1.052836X1.026434X-1.415336X-0.398566X-1.052836X-1.026434X0*%
%ADD25RoundRect,0.237500X0.300000X0.237500X-0.300000X0.237500X-0.300000X-0.237500X0.300000X-0.237500X0*%
%ADD26RoundRect,0.237500X-0.008839X-0.344715X0.344715X0.008839X0.008839X0.344715X-0.344715X-0.008839X0*%
%ADD27RoundRect,0.250000X-0.580112X0.054784X-0.242612X-0.529784X0.580112X-0.054784X0.242612X0.529784X0*%
%ADD28RoundRect,0.218750X0.381250X-0.218750X0.381250X0.218750X-0.381250X0.218750X-0.381250X-0.218750X0*%
%ADD29RoundRect,0.250000X0.242612X-0.529784X0.580112X0.054784X-0.242612X0.529784X-0.580112X-0.054784X0*%
%ADD30RoundRect,0.150000X0.583790X-0.163846X-0.433790X0.423654X-0.583790X0.163846X0.433790X-0.423654X0*%
%ADD31RoundRect,0.237500X0.344715X-0.008839X-0.008839X0.344715X-0.344715X0.008839X0.008839X-0.344715X0*%
%ADD32RoundRect,0.237500X-0.097756X-0.330681X0.335256X-0.080681X0.097756X0.330681X-0.335256X0.080681X0*%
%ADD33RoundRect,0.237500X-0.246628X-0.292542X0.341327X-0.172922X0.246628X0.292542X-0.341327X0.172922X0*%
%ADD34RoundRect,0.237500X0.237500X-0.300000X0.237500X0.300000X-0.237500X0.300000X-0.237500X-0.300000X0*%
%ADD35RoundRect,0.250000X-0.242612X0.529784X-0.580112X-0.054784X0.242612X-0.529784X0.580112X0.054784X0*%
%ADD36RoundRect,0.237500X-0.120937X0.322925X-0.316303X-0.137328X0.120937X-0.322925X0.316303X0.137328X0*%
%ADD37R,1.650000X1.350000*%
%ADD38RoundRect,0.150000X-0.545801X-0.264117X0.605611X-0.029860X0.545801X0.264117X-0.605611X0.029860X0*%
%ADD39RoundRect,0.237500X0.282574X-0.197631X0.182890X0.292331X-0.282574X0.197631X-0.182890X-0.292331X0*%
%ADD40RoundRect,0.218750X-0.380068X-0.220797X-0.001182X-0.439547X0.380068X0.220797X0.001182X0.439547X0*%
%ADD41RoundRect,0.237500X-0.300000X-0.237500X0.300000X-0.237500X0.300000X0.237500X-0.300000X0.237500X0*%
%ADD42RoundRect,0.237500X-0.237500X0.300000X-0.237500X-0.300000X0.237500X-0.300000X0.237500X0.300000X0*%
%ADD43RoundRect,0.218750X-0.001182X0.439547X-0.380068X0.220797X0.001182X-0.439547X0.380068X-0.220797X0*%
%ADD44RoundRect,0.150000X-0.150000X0.587500X-0.150000X-0.587500X0.150000X-0.587500X0.150000X0.587500X0*%
%ADD45RoundRect,0.237500X-0.137672X0.316153X-0.308682X-0.153693X0.137672X-0.316153X0.308682X0.153693X0*%
%ADD46RoundRect,0.250000X0.337500X0.475000X-0.337500X0.475000X-0.337500X-0.475000X0.337500X-0.475000X0*%
%ADD47RotRect,1.650000X1.350000X11.500000*%
%ADD48RoundRect,0.237500X-0.250000X-0.237500X0.250000X-0.237500X0.250000X0.237500X-0.250000X0.237500X0*%
%ADD49RoundRect,0.237500X-0.055681X0.378558X-0.355681X-0.141058X0.055681X-0.378558X0.355681X0.141058X0*%
%ADD50RoundRect,0.237500X-0.154029X0.308514X-0.300215X-0.169638X0.154029X-0.308514X0.300215X0.169638X0*%
%ADD51RoundRect,0.150000X-0.650000X-0.150000X0.650000X-0.150000X0.650000X0.150000X-0.650000X0.150000X0*%
%ADD52RoundRect,0.150000X-0.433790X-0.423654X0.583790X0.163846X0.433790X0.423654X-0.583790X-0.163846X0*%
%ADD53RoundRect,0.237500X0.330681X-0.097756X0.080681X0.335256X-0.330681X0.097756X-0.080681X-0.335256X0*%
%ADD54RoundRect,0.250000X0.580112X-0.054784X0.242612X0.529784X-0.580112X0.054784X-0.242612X-0.529784X0*%
%ADD55RoundRect,0.237500X0.335256X0.080681X-0.097756X0.330681X-0.335256X-0.080681X0.097756X-0.330681X0*%
%ADD56RoundRect,0.237500X-0.169965X0.300030X-0.290926X-0.185117X0.169965X-0.300030X0.290926X0.185117X0*%
G04 APERTURE END LIST*
D10*
X75680248Y-84113750D03*
X74099752Y-85026250D03*
D11*
X52025811Y-91212463D03*
X51113311Y-92792959D03*
D12*
X66017030Y-46801041D03*
X66879530Y-48294935D03*
D13*
X105860000Y-85292500D03*
X105860000Y-83467500D03*
D14*
X94037500Y-75000000D03*
X99962500Y-75000000D03*
D15*
X96593273Y-100482361D03*
X97883743Y-101772831D03*
D16*
X89610594Y-91855658D03*
X88320124Y-93146128D03*
D17*
X107320000Y-83467500D03*
X107320000Y-85292500D03*
D18*
X98099880Y-61580120D03*
X96880120Y-62799880D03*
D19*
X55070470Y-96878959D03*
X55932970Y-95385065D03*
D20*
X68768190Y-51546192D03*
X67905690Y-50052298D03*
D21*
X50656434Y-96579293D03*
X52236930Y-97491793D03*
D22*
X65481250Y-91486959D03*
X62518750Y-96618159D03*
D23*
X98482500Y-79610000D03*
X100557500Y-79610000D03*
D24*
X61656250Y-51887947D03*
X58693750Y-46756747D03*
D25*
X100882500Y-69840000D03*
X99157500Y-69840000D03*
X103912500Y-81320000D03*
X102187500Y-81320000D03*
D10*
X68483567Y-43128207D03*
X66903071Y-44040707D03*
D26*
X92385988Y-90140924D03*
X93676458Y-88850454D03*
D27*
X64333626Y-47305302D03*
X65371126Y-49102304D03*
D26*
X89380784Y-94206788D03*
X90671254Y-92916318D03*
D28*
X103500000Y-84862500D03*
X103500000Y-82737500D03*
D29*
X56348874Y-98084699D03*
X57386374Y-96287697D03*
D30*
X55528496Y-92625635D03*
X54578496Y-94271083D03*
X53429698Y-92510859D03*
D31*
X94913895Y-96328109D03*
X93623425Y-95037639D03*
D32*
X66173071Y-42776310D03*
X67753567Y-41863810D03*
D33*
X44552630Y-78643371D03*
X46243000Y-78299461D03*
D34*
X76000000Y-105862500D03*
X76000000Y-104137500D03*
D35*
X59266374Y-93031441D03*
X58228874Y-94828443D03*
D15*
X100482361Y-96593273D03*
X101772831Y-97883743D03*
D36*
X88055304Y-44243630D03*
X87342220Y-45923552D03*
D37*
X80125000Y-105875000D03*
X77875000Y-105875000D03*
X77875000Y-104125000D03*
X80125000Y-104125000D03*
D22*
X61656250Y-98112053D03*
X58693750Y-103243253D03*
D38*
X45166955Y-82039065D03*
X44788156Y-80177208D03*
X46814914Y-80734322D03*
D34*
X83500000Y-105862500D03*
X83500000Y-104137500D03*
D39*
X48424960Y-86545643D03*
X48061114Y-84757281D03*
D40*
X52208825Y-94750473D03*
X54049129Y-95812973D03*
D41*
X78647500Y-108400000D03*
X80372500Y-108400000D03*
D42*
X72160000Y-99527500D03*
X72160000Y-101252500D03*
D33*
X45549471Y-83542995D03*
X47239841Y-83199085D03*
D41*
X98427500Y-81330000D03*
X100152500Y-81330000D03*
D43*
X69291176Y-45387027D03*
X67450872Y-46449527D03*
D41*
X78647500Y-109860000D03*
X80372500Y-109860000D03*
D44*
X100000000Y-83050000D03*
X101900000Y-83050000D03*
X100950000Y-84925000D03*
D42*
X73620000Y-99527500D03*
X73620000Y-101252500D03*
D14*
X101687500Y-75000000D03*
X107612500Y-75000000D03*
D45*
X86427748Y-43602520D03*
X85803562Y-45317460D03*
D32*
X77769752Y-82906250D03*
X79350248Y-81993750D03*
D46*
X104317500Y-79610000D03*
X102242500Y-79610000D03*
D39*
X46994270Y-86836720D03*
X46630424Y-85048358D03*
D34*
X84380000Y-101822500D03*
X84380000Y-100097500D03*
D47*
X50376276Y-84113710D03*
X52581106Y-83665132D03*
X52930000Y-85380000D03*
X50725170Y-85828578D03*
D48*
X100527500Y-86790000D03*
X102352500Y-86790000D03*
D18*
X99139880Y-62620120D03*
X97920120Y-63839880D03*
D24*
X65481251Y-58513041D03*
X62518751Y-53381841D03*
D15*
X95037639Y-93623425D03*
X96328109Y-94913895D03*
D49*
X57804310Y-92123809D03*
X56941810Y-93617703D03*
D50*
X84768869Y-43047467D03*
X84235291Y-44792723D03*
D51*
X75400000Y-101655000D03*
X75400000Y-100385000D03*
X75400000Y-99115000D03*
X75400000Y-97845000D03*
X82600000Y-97845000D03*
X82600000Y-99115000D03*
X82600000Y-100385000D03*
X82600000Y-101655000D03*
D52*
X69471504Y-49324365D03*
X68521504Y-47678917D03*
X70620302Y-47564141D03*
D53*
X72446690Y-46997538D03*
X71534190Y-45417042D03*
D54*
X67251126Y-52358559D03*
X66213626Y-50561557D03*
D17*
X82000000Y-104087500D03*
X82000000Y-105912500D03*
D55*
X51506930Y-98756190D03*
X49926434Y-97843690D03*
D56*
X83083216Y-42579993D03*
X82641708Y-44350783D03*
M02*
