G04 #@! TF.GenerationSoftware,KiCad,Pcbnew,8.0.1-rc1*
G04 #@! TF.CreationDate,2024-04-12T00:39:34-07:00*
G04 #@! TF.ProjectId,Toolhead Board,546f6f6c-6865-4616-9420-426f6172642e,1*
G04 #@! TF.SameCoordinates,Original*
G04 #@! TF.FileFunction,Paste,Top*
G04 #@! TF.FilePolarity,Positive*
%FSLAX46Y46*%
G04 Gerber Fmt 4.6, Leading zero omitted, Abs format (unit mm)*
G04 Created by KiCad (PCBNEW 8.0.1-rc1) date 2024-04-12 00:39:34*
%MOMM*%
%LPD*%
G01*
G04 APERTURE LIST*
G04 Aperture macros list*
%AMRoundRect*
0 Rectangle with rounded corners*
0 $1 Rounding radius*
0 $2 $3 $4 $5 $6 $7 $8 $9 X,Y pos of 4 corners*
0 Add a 4 corners polygon primitive as box body*
4,1,4,$2,$3,$4,$5,$6,$7,$8,$9,$2,$3,0*
0 Add four circle primitives for the rounded corners*
1,1,$1+$1,$2,$3*
1,1,$1+$1,$4,$5*
1,1,$1+$1,$6,$7*
1,1,$1+$1,$8,$9*
0 Add four rect primitives between the rounded corners*
20,1,$1+$1,$2,$3,$4,$5,0*
20,1,$1+$1,$4,$5,$6,$7,0*
20,1,$1+$1,$6,$7,$8,$9,0*
20,1,$1+$1,$8,$9,$2,$3,0*%
%AMRotRect*
0 Rectangle, with rotation*
0 The origin of the aperture is its center*
0 $1 length*
0 $2 width*
0 $3 Rotation angle, in degrees counterclockwise*
0 Add horizontal line*
21,1,$1,$2,0,0,$3*%
%AMFreePoly0*
4,1,21,0.512500,-0.225000,0.095943,-0.225000,0.097197,-1.050000,0.510000,-1.050000,0.510001,-1.500000,-0.515000,-1.500000,-0.515000,-1.347986,-3.302500,-1.349600,-3.322009,-1.347679,-3.358057,-1.332747,-3.385647,-1.305157,-3.400579,-1.269109,-3.402500,-0.005000,-3.400579,0.014509,-3.385647,0.050557,-3.358057,0.078147,-3.322009,0.093079,-0.512500,0.094704,-0.512500,0.225000,0.512500,0.225000,
0.512500,-0.225000,0.512500,-0.225000,$1*%
%AMFreePoly1*
4,1,19,0.152013,0.173193,0.186792,0.125324,0.191478,0.095739,0.191478,0.038978,0.173193,-0.017296,0.163437,-0.028720,0.028720,-0.163437,-0.024001,-0.190299,-0.038978,-0.191478,-0.095739,-0.191478,-0.152013,-0.173193,-0.186792,-0.125324,-0.191478,-0.095739,-0.191478,0.095739,-0.173193,0.152013,-0.125324,0.186792,-0.095739,0.191478,0.095739,0.191478,0.152013,0.173193,0.152013,0.173193,
$1*%
%AMFreePoly2*
4,1,21,0.039096,0.263894,0.050520,0.254137,0.163437,0.141219,0.190299,0.088498,0.191478,0.073522,0.191478,-0.073522,0.173193,-0.129796,0.163437,-0.141219,0.050520,-0.254137,-0.002201,-0.281000,-0.017178,-0.282179,-0.095739,-0.282179,-0.152013,-0.263894,-0.186792,-0.216025,-0.191478,-0.186440,-0.191478,0.186440,-0.173193,0.242714,-0.125324,0.277493,-0.095739,0.282179,-0.017178,0.282179,
0.039096,0.263894,0.039096,0.263894,$1*%
%AMFreePoly3*
4,1,19,0.017296,0.173193,0.028720,0.163437,0.163437,0.028720,0.190299,-0.024001,0.191478,-0.038978,0.191478,-0.095739,0.173193,-0.152013,0.125324,-0.186792,0.095739,-0.191478,-0.095739,-0.191478,-0.152013,-0.173193,-0.186792,-0.125324,-0.191478,-0.095739,-0.191478,0.095739,-0.173193,0.152013,-0.125324,0.186792,-0.095739,0.191478,-0.038978,0.191478,0.017296,0.173193,0.017296,0.173193,
$1*%
%AMFreePoly4*
4,1,21,0.242714,0.173193,0.277493,0.125324,0.282179,0.095739,0.282179,0.017178,0.263894,-0.039096,0.254137,-0.050520,0.141219,-0.163437,0.088498,-0.190299,0.073522,-0.191478,-0.073522,-0.191478,-0.129796,-0.173193,-0.141219,-0.163437,-0.254137,-0.050520,-0.281000,0.002201,-0.282179,0.017178,-0.282179,0.095739,-0.263894,0.152013,-0.216025,0.186792,-0.186440,0.191478,0.186440,0.191478,
0.242714,0.173193,0.242714,0.173193,$1*%
%AMFreePoly5*
4,1,25,0.153044,0.262299,0.165464,0.251692,0.251692,0.165464,0.280897,0.108147,0.282178,0.091864,0.282178,-0.091864,0.262299,-0.153044,0.251692,-0.165464,0.165464,-0.251692,0.108147,-0.280897,0.091864,-0.282178,-0.091864,-0.282178,-0.153044,-0.262299,-0.165464,-0.251692,-0.251692,-0.165464,-0.280897,-0.108147,-0.282178,-0.091864,-0.282178,0.091864,-0.262299,0.153044,-0.251692,0.165464,
-0.165464,0.251692,-0.108147,0.280897,-0.091864,0.282178,0.091864,0.282178,0.153044,0.262299,0.153044,0.262299,$1*%
%AMFreePoly6*
4,1,21,0.129796,0.173193,0.141219,0.163437,0.254137,0.050520,0.281000,-0.002201,0.282179,-0.017178,0.282179,-0.095739,0.263894,-0.152013,0.216025,-0.186792,0.186440,-0.191478,-0.186440,-0.191478,-0.242714,-0.173193,-0.277493,-0.125324,-0.282179,-0.095739,-0.282179,-0.017178,-0.263894,0.039096,-0.254137,0.050520,-0.141219,0.163437,-0.088498,0.190299,-0.073522,0.191478,0.073522,0.191478,
0.129796,0.173193,0.129796,0.173193,$1*%
%AMFreePoly7*
4,1,19,0.152013,0.173193,0.186792,0.125324,0.191478,0.095739,0.191478,-0.095739,0.173193,-0.152013,0.125324,-0.186792,0.095739,-0.191478,0.038978,-0.191478,-0.017296,-0.173193,-0.028720,-0.163437,-0.163437,-0.028720,-0.190299,0.024001,-0.191478,0.038978,-0.191478,0.095739,-0.173193,0.152013,-0.125324,0.186792,-0.095739,0.191478,0.095739,0.191478,0.152013,0.173193,0.152013,0.173193,
$1*%
%AMFreePoly8*
4,1,21,0.152013,0.263894,0.186792,0.216025,0.191478,0.186440,0.191478,-0.186440,0.173193,-0.242714,0.125324,-0.277493,0.095739,-0.282179,0.017178,-0.282179,-0.039096,-0.263894,-0.050520,-0.254137,-0.163437,-0.141219,-0.190299,-0.088498,-0.191478,-0.073522,-0.191478,0.073522,-0.173193,0.129796,-0.163437,0.141219,-0.050520,0.254137,0.002201,0.281000,0.017178,0.282179,0.095739,0.282179,
0.152013,0.263894,0.152013,0.263894,$1*%
%AMFreePoly9*
4,1,19,0.152013,0.173193,0.186792,0.125324,0.191478,0.095739,0.191478,-0.095739,0.173193,-0.152013,0.125324,-0.186792,0.095739,-0.191478,-0.095739,-0.191478,-0.152013,-0.173193,-0.186792,-0.125324,-0.191478,-0.095739,-0.191478,-0.038978,-0.173193,0.017296,-0.163437,0.028720,-0.028720,0.163437,0.024001,0.190299,0.038978,0.191478,0.095739,0.191478,0.152013,0.173193,0.152013,0.173193,
$1*%
G04 Aperture macros list end*
%ADD10RoundRect,0.237500X-0.237500X0.300000X-0.237500X-0.300000X0.237500X-0.300000X0.237500X0.300000X0*%
%ADD11RoundRect,0.237500X0.141058X0.355681X-0.378558X0.055681X-0.141058X-0.355681X0.378558X-0.055681X0*%
%ADD12RoundRect,0.237500X-0.378558X-0.055681X0.141058X-0.355681X0.378558X0.055681X-0.141058X0.355681X0*%
%ADD13RoundRect,0.237500X0.300000X0.237500X-0.300000X0.237500X-0.300000X-0.237500X0.300000X-0.237500X0*%
%ADD14RoundRect,0.250000X1.052836X-1.026434X1.415336X-0.398566X-1.052836X1.026434X-1.415336X0.398566X0*%
%ADD15RoundRect,0.250000X0.097227X-0.574524X0.574524X-0.097227X-0.097227X0.574524X-0.574524X0.097227X0*%
%ADD16RotRect,1.000000X2.000000X45.000000*%
%ADD17RotRect,0.520000X1.000000X45.000000*%
%ADD18RotRect,0.270000X1.000000X45.000000*%
%ADD19RoundRect,0.250000X-0.054784X-0.580112X0.529784X-0.242612X0.054784X0.580112X-0.529784X0.242612X0*%
%ADD20RoundRect,0.237500X0.292542X-0.246628X0.172922X0.341327X-0.292542X0.246628X-0.172922X-0.341327X0*%
%ADD21RoundRect,0.237500X-0.300000X-0.237500X0.300000X-0.237500X0.300000X0.237500X-0.300000X0.237500X0*%
%ADD22RoundRect,0.237500X-0.292542X0.246628X-0.172922X-0.341327X0.292542X-0.246628X0.172922X0.341327X0*%
%ADD23RoundRect,0.250000X0.000000X-0.452548X0.452548X0.000000X0.000000X0.452548X-0.452548X0.000000X0*%
%ADD24RoundRect,0.075000X-0.256326X-0.362392X0.362392X0.256326X0.256326X0.362392X-0.362392X-0.256326X0*%
%ADD25RoundRect,0.075000X0.256326X-0.362392X0.362392X-0.256326X-0.256326X0.362392X-0.362392X0.256326X0*%
%ADD26RoundRect,0.237500X-0.097756X-0.330681X0.335256X-0.080681X0.097756X0.330681X-0.335256X0.080681X0*%
%ADD27RoundRect,0.237500X-0.250000X-0.237500X0.250000X-0.237500X0.250000X0.237500X-0.250000X0.237500X0*%
%ADD28RoundRect,0.237500X-0.282574X0.197631X-0.182890X-0.292331X0.282574X-0.197631X0.182890X0.292331X0*%
%ADD29RoundRect,0.112500X-0.062914X0.410729X-0.160409X-0.383308X0.062914X-0.410729X0.160409X0.383308X0*%
%ADD30FreePoly0,263.000000*%
%ADD31RoundRect,0.150000X0.639471X0.542404X-0.789471X-0.282596X-0.639471X-0.542404X0.789471X0.282596X0*%
%ADD32RoundRect,0.250001X-0.768977X-0.114905X-0.114905X-0.768977X0.768977X0.114905X0.114905X0.768977X0*%
%ADD33RoundRect,0.150000X0.150000X-0.825000X0.150000X0.825000X-0.150000X0.825000X-0.150000X-0.825000X0*%
%ADD34RoundRect,0.112500X0.062914X-0.410729X0.160409X0.383308X-0.062914X0.410729X-0.160409X-0.383308X0*%
%ADD35FreePoly0,83.000000*%
%ADD36RoundRect,0.250000X-1.415336X-0.398566X-1.052836X-1.026434X1.415336X0.398566X1.052836X1.026434X0*%
%ADD37RoundRect,0.237500X0.154029X-0.308514X0.300215X0.169638X-0.154029X0.308514X-0.300215X-0.169638X0*%
%ADD38RotRect,0.900000X1.700000X225.000000*%
%ADD39RoundRect,0.237500X0.330681X-0.097756X0.080681X0.335256X-0.330681X0.097756X-0.080681X-0.335256X0*%
%ADD40RoundRect,0.250000X0.362500X1.425000X-0.362500X1.425000X-0.362500X-1.425000X0.362500X-1.425000X0*%
%ADD41RoundRect,0.237500X0.055681X-0.378558X0.355681X0.141058X-0.055681X0.378558X-0.355681X-0.141058X0*%
%ADD42RoundRect,0.237500X0.137672X-0.316153X0.308682X0.153693X-0.137672X0.316153X-0.308682X-0.153693X0*%
%ADD43RoundRect,0.237500X-0.237500X0.250000X-0.237500X-0.250000X0.237500X-0.250000X0.237500X0.250000X0*%
%ADD44RoundRect,0.237500X-0.344715X0.008839X0.008839X-0.344715X0.344715X-0.008839X-0.008839X0.344715X0*%
%ADD45RoundRect,0.237500X0.282574X-0.197631X0.182890X0.292331X-0.282574X0.197631X-0.182890X-0.292331X0*%
%ADD46RoundRect,0.237500X0.237500X-0.250000X0.237500X0.250000X-0.237500X0.250000X-0.237500X-0.250000X0*%
%ADD47RoundRect,0.237500X0.008839X0.344715X-0.344715X-0.008839X-0.008839X-0.344715X0.344715X0.008839X0*%
%ADD48R,0.250000X0.675000*%
%ADD49R,0.675000X0.250000*%
%ADD50RotRect,0.900000X1.700000X45.000000*%
%ADD51RoundRect,0.237500X-0.355681X0.141058X-0.055681X-0.378558X0.355681X-0.141058X0.055681X0.378558X0*%
%ADD52RoundRect,0.237500X0.120937X-0.322925X0.316303X0.137328X-0.120937X0.322925X-0.316303X-0.137328X0*%
%ADD53FreePoly1,270.000000*%
%ADD54FreePoly2,270.000000*%
%ADD55FreePoly3,270.000000*%
%ADD56FreePoly4,270.000000*%
%ADD57FreePoly5,270.000000*%
%ADD58FreePoly6,270.000000*%
%ADD59FreePoly7,270.000000*%
%ADD60FreePoly8,270.000000*%
%ADD61FreePoly9,270.000000*%
%ADD62RoundRect,0.062500X-0.062500X0.325000X-0.062500X-0.325000X0.062500X-0.325000X0.062500X0.325000X0*%
%ADD63RoundRect,0.062500X-0.325000X0.062500X-0.325000X-0.062500X0.325000X-0.062500X0.325000X0.062500X0*%
%ADD64RoundRect,0.250000X0.054784X0.580112X-0.529784X0.242612X-0.054784X-0.580112X0.529784X-0.242612X0*%
%ADD65RoundRect,0.250000X-0.377374X0.249778X-0.249778X-0.377374X0.377374X-0.249778X0.249778X0.377374X0*%
%ADD66RoundRect,0.075000X-0.160718X0.413764X0.013729X-0.443670X0.160718X-0.413764X-0.013729X0.443670X0*%
%ADD67RoundRect,0.075000X-0.443670X-0.013729X-0.413764X-0.160718X0.443670X0.013729X0.413764X0.160718X0*%
%ADD68RoundRect,0.237500X-0.080681X0.335256X-0.330681X-0.097756X0.080681X-0.335256X0.330681X0.097756X0*%
%ADD69RoundRect,0.150000X-0.789471X0.282596X0.639471X-0.542404X0.789471X-0.282596X-0.639471X0.542404X0*%
%ADD70RoundRect,0.237500X0.250000X0.237500X-0.250000X0.237500X-0.250000X-0.237500X0.250000X-0.237500X0*%
%ADD71RoundRect,0.237500X0.097756X0.330681X-0.335256X0.080681X-0.097756X-0.330681X0.335256X-0.080681X0*%
%ADD72RoundRect,0.237500X0.355681X-0.141058X0.055681X0.378558X-0.355681X0.141058X-0.055681X-0.378558X0*%
%ADD73RoundRect,0.249999X-0.395001X-0.395001X0.395001X-0.395001X0.395001X0.395001X-0.395001X0.395001X0*%
%ADD74RoundRect,0.050000X-0.387500X-0.050000X0.387500X-0.050000X0.387500X0.050000X-0.387500X0.050000X0*%
%ADD75RoundRect,0.050000X-0.050000X-0.387500X0.050000X-0.387500X0.050000X0.387500X-0.050000X0.387500X0*%
%ADD76RoundRect,0.237500X0.169965X-0.300030X0.290926X0.185117X-0.169965X0.300030X-0.290926X-0.185117X0*%
%ADD77RoundRect,0.237500X0.344715X-0.008839X-0.008839X0.344715X-0.344715X0.008839X0.008839X-0.344715X0*%
%ADD78RoundRect,0.237500X-0.055681X0.378558X-0.355681X-0.141058X0.055681X-0.378558X0.355681X0.141058X0*%
G04 APERTURE END LIST*
D10*
X72160000Y-99527500D03*
X72160000Y-101252500D03*
D11*
X56206947Y-57668750D03*
X54713053Y-58531250D03*
D12*
X68173053Y-97148750D03*
X69666947Y-98011250D03*
D13*
X83237500Y-100125000D03*
X81512500Y-100125000D03*
X83237500Y-98650000D03*
X81512500Y-98650000D03*
D14*
X62518750Y-96618159D03*
X65481250Y-91486959D03*
D15*
X88428724Y-54981277D03*
X89895970Y-53514031D03*
D14*
X58693750Y-103243253D03*
X61656250Y-98112053D03*
D16*
X98652722Y-100632621D03*
X100632621Y-98652722D03*
D17*
X94480792Y-98864854D03*
X95011122Y-98334524D03*
D18*
X95435386Y-97910260D03*
X96496047Y-96849600D03*
X97203153Y-96142493D03*
X97910260Y-95435386D03*
D17*
X98334524Y-95011122D03*
X98864854Y-94480792D03*
X98864854Y-94480792D03*
X98334524Y-95011122D03*
D18*
X97556707Y-95788940D03*
X96849600Y-96496047D03*
X96142493Y-97203153D03*
X95788940Y-97556707D03*
D17*
X95011122Y-98334524D03*
X94480792Y-98864854D03*
D19*
X52581499Y-51368750D03*
X54378501Y-50331250D03*
D20*
X51097315Y-85736620D03*
X50753405Y-84046250D03*
D21*
X83937500Y-101600000D03*
X85662500Y-101600000D03*
D22*
X49322715Y-84337327D03*
X49666625Y-86027697D03*
D23*
X92191817Y-55899998D03*
X93195908Y-56904090D03*
X94200000Y-57908181D03*
X93195908Y-54895906D03*
X94200000Y-55899998D03*
X95204092Y-56904090D03*
X94200000Y-53891815D03*
X95204092Y-54895906D03*
X96208183Y-55899998D03*
D24*
X90814726Y-56527555D03*
X91274346Y-56987175D03*
X91733965Y-57446794D03*
X92193585Y-57906413D03*
X92653204Y-58366033D03*
X93112823Y-58825652D03*
X93572443Y-59285272D03*
D25*
X94827557Y-59285272D03*
X95287177Y-58825652D03*
X95746796Y-58366033D03*
X96206415Y-57906413D03*
X96666035Y-57446794D03*
X97125654Y-56987175D03*
X97585274Y-56527555D03*
D24*
X97585274Y-55272441D03*
X97125654Y-54812821D03*
X96666035Y-54353202D03*
X96206415Y-53893583D03*
X95746796Y-53433963D03*
X95287177Y-52974344D03*
X94827557Y-52514724D03*
D25*
X93572443Y-52514724D03*
X93112823Y-52974344D03*
X92653204Y-53433963D03*
X92193585Y-53893583D03*
X91733965Y-54353202D03*
X91274346Y-54812821D03*
X90814726Y-55272441D03*
D21*
X102227500Y-86790000D03*
X103952500Y-86790000D03*
D26*
X74099752Y-85026250D03*
X75680248Y-84113750D03*
D27*
X108087500Y-65000000D03*
X109912500Y-65000000D03*
D19*
X73331499Y-83488750D03*
X75128501Y-82451250D03*
D28*
X50088364Y-72752104D03*
X50452210Y-74540466D03*
D29*
X80365273Y-46955811D03*
X79104739Y-46801037D03*
X77844205Y-46646263D03*
X76583672Y-46491489D03*
D30*
X77152597Y-52278963D03*
X79678322Y-52591602D03*
D31*
X71793879Y-49836836D03*
X71158879Y-48736984D03*
X70523879Y-47637131D03*
X69888879Y-46537279D03*
X69253879Y-45437427D03*
X68618879Y-44337575D03*
X67983879Y-43237722D03*
X67348879Y-42137870D03*
X63062053Y-44612870D03*
X63697053Y-45712722D03*
X64332053Y-46812575D03*
X64967053Y-47912427D03*
X65602053Y-49012279D03*
X66237053Y-50112131D03*
X66872053Y-51211984D03*
X67507053Y-52311836D03*
D32*
X102698179Y-93148179D03*
X104801821Y-95251821D03*
D20*
X52772986Y-85395700D03*
X52429076Y-83705330D03*
D33*
X98395000Y-84805000D03*
X99665000Y-84805000D03*
X100935000Y-84805000D03*
X102205000Y-84805000D03*
X103475000Y-84805000D03*
X104745000Y-84805000D03*
X106015000Y-84805000D03*
X107285000Y-84805000D03*
X107285000Y-79855000D03*
X106015000Y-79855000D03*
X104745000Y-79855000D03*
X103475000Y-79855000D03*
X102205000Y-79855000D03*
X100935000Y-79855000D03*
X99665000Y-79855000D03*
X98395000Y-79855000D03*
D34*
X76815552Y-44582030D03*
X78076086Y-44736804D03*
X79336620Y-44891578D03*
X80597153Y-45046352D03*
D35*
X80028228Y-39258878D03*
X77502503Y-38946239D03*
D36*
X58693750Y-46756747D03*
X61656250Y-51887947D03*
D20*
X43591782Y-82151000D03*
X43247872Y-80460630D03*
D37*
X84235291Y-44792723D03*
X84768869Y-43047467D03*
D38*
X90697771Y-91829141D03*
X88293607Y-94233305D03*
D39*
X73271690Y-48426480D03*
X72359190Y-46845984D03*
D40*
X107612500Y-75000000D03*
X101687500Y-75000000D03*
D41*
X48663311Y-97036484D03*
X49525811Y-95542590D03*
D42*
X85803562Y-45317460D03*
X86427748Y-43602520D03*
D21*
X96967500Y-64540000D03*
X98692500Y-64540000D03*
D43*
X68650000Y-102887500D03*
X68650000Y-104712500D03*
D36*
X62518751Y-53381841D03*
X65481251Y-58513041D03*
D44*
X90956145Y-50216629D03*
X92246615Y-51507099D03*
D45*
X49021520Y-74831544D03*
X48657674Y-73043182D03*
D46*
X98750000Y-67832500D03*
X98750000Y-66007500D03*
D40*
X99962500Y-75000000D03*
X94037500Y-75000000D03*
D47*
X97695235Y-50554765D03*
X96404765Y-51845235D03*
D48*
X71750000Y-102737500D03*
X71250000Y-102737500D03*
X70750000Y-102737500D03*
X70250000Y-102737500D03*
D49*
X69987500Y-103500000D03*
X69987500Y-104000000D03*
X69987500Y-104500000D03*
D48*
X70250000Y-105262500D03*
X70750000Y-105262500D03*
X71250000Y-105262500D03*
X71750000Y-105262500D03*
D49*
X72012500Y-104500000D03*
X72012500Y-104000000D03*
X72012500Y-103500000D03*
D50*
X91829141Y-90697771D03*
X94233305Y-88293607D03*
D12*
X63643053Y-105058750D03*
X65136947Y-105921250D03*
D51*
X69084189Y-41173516D03*
X69946689Y-42667410D03*
D52*
X87342220Y-45923552D03*
X88055304Y-44243630D03*
D53*
X104637500Y-64362500D03*
D54*
X104050000Y-64362500D03*
X103350000Y-64362500D03*
X102650000Y-64362500D03*
X101950000Y-64362500D03*
D55*
X101362500Y-64362500D03*
D56*
X104637500Y-64950000D03*
D57*
X104050000Y-64950000D03*
X103350000Y-64950000D03*
X102650000Y-64950000D03*
X101950000Y-64950000D03*
D58*
X101362500Y-64950000D03*
D56*
X104637500Y-65650000D03*
D57*
X104050000Y-65650000D03*
X103350000Y-65650000D03*
X102650000Y-65650000D03*
X101950000Y-65650000D03*
D58*
X101362500Y-65650000D03*
D56*
X104637500Y-66350000D03*
D57*
X104050000Y-66350000D03*
X103350000Y-66350000D03*
X102650000Y-66350000D03*
X101950000Y-66350000D03*
D58*
X101362500Y-66350000D03*
D56*
X104637500Y-67050000D03*
D57*
X104050000Y-67050000D03*
X103350000Y-67050000D03*
X102650000Y-67050000D03*
X101950000Y-67050000D03*
D58*
X101362500Y-67050000D03*
D59*
X104637500Y-67637500D03*
D60*
X104050000Y-67637500D03*
X103350000Y-67637500D03*
X102650000Y-67637500D03*
X101950000Y-67637500D03*
D61*
X101362500Y-67637500D03*
D62*
X104500000Y-63537500D03*
X104000000Y-63537500D03*
X103500000Y-63537500D03*
X103000000Y-63537500D03*
X102500000Y-63537500D03*
X102000000Y-63537500D03*
X101500000Y-63537500D03*
D63*
X100537500Y-64500000D03*
X100537500Y-65000000D03*
X100537500Y-65500000D03*
X100537500Y-66000000D03*
X100537500Y-66500000D03*
X100537500Y-67000000D03*
X100537500Y-67500000D03*
D62*
X101500000Y-68462500D03*
X102000000Y-68462500D03*
X102500000Y-68462500D03*
X103000000Y-68462500D03*
X103500000Y-68462500D03*
X104000000Y-68462500D03*
X104500000Y-68462500D03*
D63*
X105462500Y-67500000D03*
X105462500Y-67000000D03*
X105462500Y-66500000D03*
X105462500Y-66000000D03*
X105462500Y-65500000D03*
X105462500Y-65000000D03*
X105462500Y-64500000D03*
D64*
X78388501Y-80561250D03*
X76591499Y-81598750D03*
D13*
X83237500Y-97175000D03*
X81512500Y-97175000D03*
D27*
X98877500Y-86790000D03*
X100702500Y-86790000D03*
D65*
X50128391Y-77605404D03*
X48736898Y-77888507D03*
X47345404Y-78171609D03*
X50411493Y-78996898D03*
X49020000Y-79280000D03*
X47628507Y-79563102D03*
X50694596Y-80388391D03*
X49303102Y-80671493D03*
X47911609Y-80954596D03*
D66*
X50365147Y-76110696D03*
X49728196Y-76240285D03*
X49091245Y-76369874D03*
X48454293Y-76499464D03*
X47817342Y-76629053D03*
X47180391Y-76758642D03*
X46543440Y-76888231D03*
D67*
X45850696Y-77934853D03*
X45980285Y-78571804D03*
X46109874Y-79208755D03*
X46239464Y-79845707D03*
X46369053Y-80482658D03*
X46498642Y-81119609D03*
X46628231Y-81756560D03*
D66*
X47674853Y-82449304D03*
X48311804Y-82319715D03*
X48948755Y-82190126D03*
X49585707Y-82060536D03*
X50222658Y-81930947D03*
X50859609Y-81801358D03*
X51496560Y-81671769D03*
D67*
X52189304Y-80625147D03*
X52059715Y-79988196D03*
X51930126Y-79351245D03*
X51800536Y-78714293D03*
X51670947Y-78077342D03*
X51541358Y-77440391D03*
X51411769Y-76803440D03*
D68*
X52850811Y-89783521D03*
X51938311Y-91364017D03*
D13*
X70142500Y-106690000D03*
X68417500Y-106690000D03*
D10*
X73620000Y-99527500D03*
X73620000Y-101252500D03*
D44*
X89895487Y-51277288D03*
X91185957Y-52567758D03*
D69*
X54811121Y-90358164D03*
X54176121Y-91458016D03*
X53541121Y-92557869D03*
X52906121Y-93657721D03*
X52271121Y-94757573D03*
X51636121Y-95857425D03*
X51001121Y-96957278D03*
X50366121Y-98057130D03*
X54652947Y-100532130D03*
X55287947Y-99432278D03*
X55922947Y-98332425D03*
X56557947Y-97232573D03*
X57192947Y-96132721D03*
X57827947Y-95032869D03*
X58462947Y-93933016D03*
X59097947Y-92833164D03*
D21*
X78467500Y-109860000D03*
X80192500Y-109860000D03*
D70*
X109912500Y-67000000D03*
X108087500Y-67000000D03*
D71*
X79350248Y-81993750D03*
X77769752Y-82906250D03*
D13*
X107252500Y-86790000D03*
X105527500Y-86790000D03*
D72*
X71596690Y-45525295D03*
X70734190Y-44031401D03*
D73*
X78200000Y-104200000D03*
X78200000Y-105800000D03*
X79800000Y-104200000D03*
X79800000Y-105800000D03*
D74*
X75562500Y-102400000D03*
X75562500Y-102800000D03*
X75562500Y-103200000D03*
X75562500Y-103600000D03*
X75562500Y-104000000D03*
X75562500Y-104400000D03*
X75562500Y-104800000D03*
X75562500Y-105200000D03*
X75562500Y-105600000D03*
X75562500Y-106000000D03*
X75562500Y-106400000D03*
X75562500Y-106800000D03*
X75562500Y-107200000D03*
X75562500Y-107600000D03*
D75*
X76400000Y-108437500D03*
X76800000Y-108437500D03*
X77200000Y-108437500D03*
X77600000Y-108437500D03*
X78000000Y-108437500D03*
X78400000Y-108437500D03*
X78800000Y-108437500D03*
X79200000Y-108437500D03*
X79600000Y-108437500D03*
X80000000Y-108437500D03*
X80400000Y-108437500D03*
X80800000Y-108437500D03*
X81200000Y-108437500D03*
X81600000Y-108437500D03*
D74*
X82437500Y-107600000D03*
X82437500Y-107200000D03*
X82437500Y-106800000D03*
X82437500Y-106400000D03*
X82437500Y-106000000D03*
X82437500Y-105600000D03*
X82437500Y-105200000D03*
X82437500Y-104800000D03*
X82437500Y-104400000D03*
X82437500Y-104000000D03*
X82437500Y-103600000D03*
X82437500Y-103200000D03*
X82437500Y-102800000D03*
X82437500Y-102400000D03*
D75*
X81600000Y-101562500D03*
X81200000Y-101562500D03*
X80800000Y-101562500D03*
X80400000Y-101562500D03*
X80000000Y-101562500D03*
X79600000Y-101562500D03*
X79200000Y-101562500D03*
X78800000Y-101562500D03*
X78400000Y-101562500D03*
X78000000Y-101562500D03*
X77600000Y-101562500D03*
X77200000Y-101562500D03*
X76800000Y-101562500D03*
X76400000Y-101562500D03*
D76*
X82641708Y-44350783D03*
X83083216Y-42579993D03*
D10*
X103520000Y-60377500D03*
X103520000Y-62102500D03*
D77*
X106045235Y-93845235D03*
X104754765Y-92554765D03*
D21*
X99587500Y-62160000D03*
X101312500Y-62160000D03*
D78*
X51175811Y-92684706D03*
X50313311Y-94178600D03*
M02*
