G04 #@! TF.GenerationSoftware,KiCad,Pcbnew,8.0.1-rc1*
G04 #@! TF.CreationDate,2024-04-12T00:39:34-07:00*
G04 #@! TF.ProjectId,Toolhead Board,546f6f6c-6865-4616-9420-426f6172642e,1*
G04 #@! TF.SameCoordinates,Original*
G04 #@! TF.FileFunction,Legend,Top*
G04 #@! TF.FilePolarity,Positive*
%FSLAX46Y46*%
G04 Gerber Fmt 4.6, Leading zero omitted, Abs format (unit mm)*
G04 Created by KiCad (PCBNEW 8.0.1-rc1) date 2024-04-12 00:39:34*
%MOMM*%
%LPD*%
G01*
G04 APERTURE LIST*
G04 Aperture macros list*
%AMRoundRect*
0 Rectangle with rounded corners*
0 $1 Rounding radius*
0 $2 $3 $4 $5 $6 $7 $8 $9 X,Y pos of 4 corners*
0 Add a 4 corners polygon primitive as box body*
4,1,4,$2,$3,$4,$5,$6,$7,$8,$9,$2,$3,0*
0 Add four circle primitives for the rounded corners*
1,1,$1+$1,$2,$3*
1,1,$1+$1,$4,$5*
1,1,$1+$1,$6,$7*
1,1,$1+$1,$8,$9*
0 Add four rect primitives between the rounded corners*
20,1,$1+$1,$2,$3,$4,$5,0*
20,1,$1+$1,$4,$5,$6,$7,0*
20,1,$1+$1,$6,$7,$8,$9,0*
20,1,$1+$1,$8,$9,$2,$3,0*%
%AMHorizOval*
0 Thick line with rounded ends*
0 $1 width*
0 $2 $3 position (X,Y) of the first rounded end (center of the circle)*
0 $4 $5 position (X,Y) of the second rounded end (center of the circle)*
0 Add line between two ends*
20,1,$1,$2,$3,$4,$5,0*
0 Add two circle primitives to create the rounded ends*
1,1,$1,$2,$3*
1,1,$1,$4,$5*%
%AMRotRect*
0 Rectangle, with rotation*
0 The origin of the aperture is its center*
0 $1 length*
0 $2 width*
0 $3 Rotation angle, in degrees counterclockwise*
0 Add horizontal line*
21,1,$1,$2,0,0,$3*%
%AMFreePoly0*
4,1,19,0.550000,-0.750000,0.000000,-0.750000,0.000000,-0.744912,-0.071157,-0.744911,-0.207708,-0.704816,-0.327430,-0.627875,-0.420627,-0.520320,-0.479746,-0.390866,-0.500000,-0.250000,-0.500000,0.250000,-0.479746,0.390866,-0.420627,0.520320,-0.327430,0.627875,-0.207708,0.704816,-0.071157,0.744911,0.000000,0.744912,0.000000,0.750000,0.550000,0.750000,0.550000,-0.750000,0.550000,-0.750000,
$1*%
%AMFreePoly1*
4,1,19,0.000000,0.744912,0.071157,0.744911,0.207708,0.704816,0.327430,0.627875,0.420627,0.520320,0.479746,0.390866,0.500000,0.250000,0.500000,-0.250000,0.479746,-0.390866,0.420627,-0.520320,0.327430,-0.627875,0.207708,-0.704816,0.071157,-0.744911,0.000000,-0.744912,0.000000,-0.750000,-0.550000,-0.750000,-0.550000,0.750000,0.000000,0.750000,0.000000,0.744912,0.000000,0.744912,
$1*%
%AMFreePoly2*
4,1,21,0.512500,-0.225000,0.095943,-0.225000,0.097197,-1.050000,0.510000,-1.050000,0.510001,-1.500000,-0.515000,-1.500000,-0.515000,-1.347986,-3.302500,-1.349600,-3.322009,-1.347679,-3.358057,-1.332747,-3.385647,-1.305157,-3.400579,-1.269109,-3.402500,-0.005000,-3.400579,0.014509,-3.385647,0.050557,-3.358057,0.078147,-3.322009,0.093079,-0.512500,0.094704,-0.512500,0.225000,0.512500,0.225000,
0.512500,-0.225000,0.512500,-0.225000,$1*%
%AMFreePoly3*
4,1,19,0.500000,-0.750000,0.000000,-0.750000,0.000000,-0.744911,-0.071157,-0.744911,-0.207708,-0.704816,-0.327430,-0.627875,-0.420627,-0.520320,-0.479746,-0.390866,-0.500000,-0.250000,-0.500000,0.250000,-0.479746,0.390866,-0.420627,0.520320,-0.327430,0.627875,-0.207708,0.704816,-0.071157,0.744911,0.000000,0.744911,0.000000,0.750000,0.500000,0.750000,0.500000,-0.750000,0.500000,-0.750000,
$1*%
%AMFreePoly4*
4,1,19,0.000000,0.744911,0.071157,0.744911,0.207708,0.704816,0.327430,0.627875,0.420627,0.520320,0.479746,0.390866,0.500000,0.250000,0.500000,-0.250000,0.479746,-0.390866,0.420627,-0.520320,0.327430,-0.627875,0.207708,-0.704816,0.071157,-0.744911,0.000000,-0.744911,0.000000,-0.750000,-0.500000,-0.750000,-0.500000,0.750000,0.000000,0.750000,0.000000,0.744911,0.000000,0.744911,
$1*%
G04 Aperture macros list end*
%ADD10C,0.152400*%
%ADD11C,0.150000*%
%ADD12C,0.120000*%
%ADD13C,0.100000*%
%ADD14C,0.200000*%
%ADD15RoundRect,0.237500X-0.237500X0.300000X-0.237500X-0.300000X0.237500X-0.300000X0.237500X0.300000X0*%
%ADD16RoundRect,0.237500X0.141058X0.355681X-0.378558X0.055681X-0.141058X-0.355681X0.378558X-0.055681X0*%
%ADD17RoundRect,0.237500X-0.378558X-0.055681X0.141058X-0.355681X0.378558X0.055681X-0.141058X0.355681X0*%
%ADD18RoundRect,0.237500X0.300000X0.237500X-0.300000X0.237500X-0.300000X-0.237500X0.300000X-0.237500X0*%
%ADD19RotRect,1.700000X1.700000X120.000000*%
%ADD20HorizOval,1.700000X0.000000X0.000000X0.000000X0.000000X0*%
%ADD21RoundRect,0.250000X1.052836X-1.026434X1.415336X-0.398566X-1.052836X1.026434X-1.415336X0.398566X0*%
%ADD22RoundRect,0.250000X0.097227X-0.574524X0.574524X-0.097227X-0.097227X0.574524X-0.574524X0.097227X0*%
%ADD23C,0.600000*%
%ADD24RotRect,1.000000X2.000000X45.000000*%
%ADD25HorizOval,0.600000X0.088388X0.088388X-0.088388X-0.088388X0*%
%ADD26RotRect,0.520000X1.000000X45.000000*%
%ADD27RotRect,0.270000X1.000000X45.000000*%
%ADD28HorizOval,1.300000X-0.353553X0.353553X0.353553X-0.353553X0*%
%ADD29HorizOval,1.300000X-0.459619X0.459619X0.459619X-0.459619X0*%
%ADD30RoundRect,0.250000X-0.054784X-0.580112X0.529784X-0.242612X0.054784X0.580112X-0.529784X0.242612X0*%
%ADD31RoundRect,0.237500X0.292542X-0.246628X0.172922X0.341327X-0.292542X0.246628X-0.172922X-0.341327X0*%
%ADD32RoundRect,0.237500X-0.300000X-0.237500X0.300000X-0.237500X0.300000X0.237500X-0.300000X0.237500X0*%
%ADD33RoundRect,0.237500X-0.292542X0.246628X-0.172922X-0.341327X0.292542X-0.246628X0.172922X0.341327X0*%
%ADD34RoundRect,0.075000X-0.256326X-0.362392X0.362392X0.256326X0.256326X0.362392X-0.362392X-0.256326X0*%
%ADD35RoundRect,0.075000X0.256326X-0.362392X0.362392X-0.256326X-0.256326X0.362392X-0.362392X0.256326X0*%
%ADD36RotRect,4.250000X4.250000X45.000000*%
%ADD37RoundRect,0.237500X-0.097756X-0.330681X0.335256X-0.080681X0.097756X0.330681X-0.335256X0.080681X0*%
%ADD38RoundRect,0.237500X-0.250000X-0.237500X0.250000X-0.237500X0.250000X0.237500X-0.250000X0.237500X0*%
%ADD39FreePoly0,225.000000*%
%ADD40RotRect,1.000000X1.500000X225.000000*%
%ADD41FreePoly1,225.000000*%
%ADD42RoundRect,0.237500X-0.282574X0.197631X-0.182890X-0.292331X0.282574X-0.197631X0.182890X0.292331X0*%
%ADD43C,4.400000*%
%ADD44RoundRect,0.112500X-0.062914X0.410729X-0.160409X-0.383308X0.062914X-0.410729X0.160409X0.383308X0*%
%ADD45FreePoly2,263.000000*%
%ADD46R,1.700000X1.700000*%
%ADD47O,1.700000X1.700000*%
%ADD48RoundRect,0.150000X0.639471X0.542404X-0.789471X-0.282596X-0.639471X-0.542404X0.789471X0.282596X0*%
%ADD49RoundRect,0.250001X-0.768977X-0.114905X-0.114905X-0.768977X0.768977X0.114905X0.114905X0.768977X0*%
%ADD50RoundRect,0.150000X0.150000X-0.825000X0.150000X0.825000X-0.150000X0.825000X-0.150000X-0.825000X0*%
%ADD51RoundRect,0.112500X0.062914X-0.410729X0.160409X0.383308X-0.062914X0.410729X-0.160409X-0.383308X0*%
%ADD52FreePoly2,83.000000*%
%ADD53RoundRect,0.250000X-1.415336X-0.398566X-1.052836X-1.026434X1.415336X0.398566X1.052836X1.026434X0*%
%ADD54RoundRect,0.237500X0.154029X-0.308514X0.300215X0.169638X-0.154029X0.308514X-0.300215X-0.169638X0*%
%ADD55RotRect,0.900000X1.700000X225.000000*%
%ADD56RoundRect,0.237500X0.330681X-0.097756X0.080681X0.335256X-0.330681X0.097756X-0.080681X-0.335256X0*%
%ADD57RoundRect,0.250000X0.362500X1.425000X-0.362500X1.425000X-0.362500X-1.425000X0.362500X-1.425000X0*%
%ADD58RoundRect,0.237500X0.055681X-0.378558X0.355681X0.141058X-0.055681X0.378558X-0.355681X-0.141058X0*%
%ADD59RoundRect,0.237500X0.137672X-0.316153X0.308682X0.153693X-0.137672X0.316153X-0.308682X-0.153693X0*%
%ADD60RoundRect,0.237500X-0.237500X0.250000X-0.237500X-0.250000X0.237500X-0.250000X0.237500X0.250000X0*%
%ADD61RoundRect,0.237500X-0.344715X0.008839X0.008839X-0.344715X0.344715X-0.008839X-0.008839X0.344715X0*%
%ADD62RoundRect,0.237500X0.282574X-0.197631X0.182890X0.292331X-0.282574X0.197631X-0.182890X-0.292331X0*%
%ADD63RoundRect,0.237500X0.237500X-0.250000X0.237500X0.250000X-0.237500X0.250000X-0.237500X-0.250000X0*%
%ADD64C,5.600000*%
%ADD65RoundRect,0.237500X0.008839X0.344715X-0.344715X-0.008839X-0.008839X-0.344715X0.344715X0.008839X0*%
%ADD66R,0.250000X0.675000*%
%ADD67R,0.675000X0.250000*%
%ADD68RotRect,0.900000X1.700000X45.000000*%
%ADD69RoundRect,0.237500X-0.355681X0.141058X-0.055681X-0.378558X0.355681X-0.141058X0.055681X0.378558X0*%
%ADD70RoundRect,0.237500X0.120937X-0.322925X0.316303X0.137328X-0.120937X0.322925X-0.316303X-0.137328X0*%
%ADD71RoundRect,0.062500X-0.062500X0.325000X-0.062500X-0.325000X0.062500X-0.325000X0.062500X0.325000X0*%
%ADD72RoundRect,0.062500X-0.325000X0.062500X-0.325000X-0.062500X0.325000X-0.062500X0.325000X0.062500X0*%
%ADD73R,3.750000X3.750000*%
%ADD74RoundRect,0.250000X0.054784X0.580112X-0.529784X0.242612X-0.054784X-0.580112X0.529784X-0.242612X0*%
%ADD75RoundRect,0.075000X-0.160718X0.413764X0.013729X-0.443670X0.160718X-0.413764X-0.013729X0.443670X0*%
%ADD76RoundRect,0.075000X-0.443670X-0.013729X-0.413764X-0.160718X0.443670X0.013729X0.413764X0.160718X0*%
%ADD77RotRect,4.250000X4.250000X281.500000*%
%ADD78RoundRect,0.237500X-0.080681X0.335256X-0.330681X-0.097756X0.080681X-0.335256X0.330681X0.097756X0*%
%ADD79RoundRect,0.150000X-0.789471X0.282596X0.639471X-0.542404X0.789471X-0.282596X-0.639471X0.542404X0*%
%ADD80RoundRect,0.237500X0.250000X0.237500X-0.250000X0.237500X-0.250000X-0.237500X0.250000X-0.237500X0*%
%ADD81RoundRect,0.237500X0.097756X0.330681X-0.335256X0.080681X-0.097756X-0.330681X0.335256X-0.080681X0*%
%ADD82RotRect,1.700000X1.700000X240.000000*%
%ADD83HorizOval,1.700000X0.000000X0.000000X0.000000X0.000000X0*%
%ADD84RoundRect,0.237500X0.355681X-0.141058X0.055681X0.378558X-0.355681X0.141058X-0.055681X-0.378558X0*%
%ADD85RoundRect,0.050000X-0.387500X-0.050000X0.387500X-0.050000X0.387500X0.050000X-0.387500X0.050000X0*%
%ADD86RoundRect,0.050000X-0.050000X-0.387500X0.050000X-0.387500X0.050000X0.387500X-0.050000X0.387500X0*%
%ADD87R,3.200000X3.200000*%
%ADD88RoundRect,0.237500X0.169965X-0.300030X0.290926X0.185117X-0.169965X0.300030X-0.290926X-0.185117X0*%
%ADD89RoundRect,0.237500X0.344715X-0.008839X-0.008839X0.344715X-0.344715X0.008839X0.008839X-0.344715X0*%
%ADD90RoundRect,0.237500X-0.055681X0.378558X-0.355681X-0.141058X0.055681X-0.378558X0.355681X0.141058X0*%
%ADD91FreePoly3,90.000000*%
%ADD92FreePoly4,90.000000*%
%ADD93RotRect,1.700000X1.700000X281.500000*%
%ADD94HorizOval,1.700000X0.000000X0.000000X0.000000X0.000000X0*%
%ADD95RotRect,1.600000X1.600000X45.000000*%
%ADD96C,1.600000*%
%ADD97RoundRect,0.250000X-0.682232X0.218369X-0.542674X-0.467579X0.682232X-0.218369X0.542674X0.467579X0*%
%ADD98HorizOval,1.200000X-0.269479X-0.054826X0.269479X0.054826X0*%
%ADD99RotRect,1.905000X2.000000X60.000000*%
%ADD100HorizOval,1.905000X-0.041136X0.023750X0.041136X-0.023750X0*%
%ADD101RotRect,3.800000X3.800000X120.000000*%
%ADD102C,4.000000*%
%ADD103RotRect,1.905000X2.000000X300.000000*%
%ADD104HorizOval,1.905000X-0.041136X-0.023750X0.041136X0.023750X0*%
G04 APERTURE END LIST*
D10*
X75749672Y-72160000D02*
X79490327Y-72160000D01*
X79890000Y-57850000D02*
X82809983Y-59535853D01*
X84600008Y-60577073D02*
X87519991Y-62262926D01*
X74460000Y-77870000D02*
X79610039Y-77870000D01*
X64410000Y-66780000D02*
X64410000Y-80230074D01*
X88967595Y-86715000D02*
X82472404Y-90465000D01*
X57850000Y-74225026D02*
X57850000Y-65634974D01*
X79184455Y-85745000D02*
X82215544Y-83995000D01*
X83634455Y-83215000D02*
X86665544Y-81465000D01*
X63610000Y-70419843D02*
X63880000Y-70170000D01*
X75670008Y-55497073D02*
X78589991Y-57182926D01*
X63880000Y-70170000D02*
X63880000Y-61639977D01*
X63610000Y-70419843D02*
X63610000Y-74500157D01*
X63600000Y-70030000D02*
X63600000Y-61630000D01*
X70110000Y-69864960D02*
X70110000Y-79975039D01*
X81380008Y-65587073D02*
X84299991Y-67272926D01*
X72410008Y-60407073D02*
X75329991Y-62092926D01*
X77080008Y-63057073D02*
X79999991Y-64742926D01*
X88934045Y-62402929D02*
X88890549Y-62333124D01*
X88890549Y-62333124D02*
X88789991Y-62275067D01*
X88789991Y-62275067D02*
X88665891Y-62248110D01*
X88665891Y-62248110D02*
X88551767Y-62271606D01*
X88551767Y-62271606D02*
X88471163Y-62314454D01*
X88471163Y-62314454D02*
X88343475Y-62419503D01*
X88343475Y-62419503D02*
X88272848Y-62512804D01*
X88272848Y-62512804D02*
X88212198Y-62656557D01*
X88212198Y-62656557D02*
X88198633Y-62738110D01*
X88198633Y-62738110D02*
X88218587Y-62839015D01*
X88218587Y-62839015D02*
X88295603Y-62928173D01*
X88295603Y-62928173D02*
X88362641Y-62966878D01*
X88362641Y-62966878D02*
X88486741Y-62993834D01*
X88486741Y-62993834D02*
X88543803Y-62982087D01*
X88543803Y-62982087D02*
X88708599Y-62764385D01*
X88708599Y-62764385D02*
X88574522Y-62686975D01*
X88798392Y-63218458D02*
X89292780Y-62565353D01*
X89292780Y-62565353D02*
X89200624Y-63450687D01*
X89200624Y-63450687D02*
X89695012Y-62797582D01*
X89535817Y-63644211D02*
X90030205Y-62991106D01*
X90030205Y-62991106D02*
X90197802Y-63087867D01*
X90197802Y-63087867D02*
X90274817Y-63177025D01*
X90274817Y-63177025D02*
X90294772Y-63277930D01*
X90294772Y-63277930D02*
X90281206Y-63359483D01*
X90281206Y-63359483D02*
X90220556Y-63503236D01*
X90220556Y-63503236D02*
X90149929Y-63596537D01*
X90149929Y-63596537D02*
X90022241Y-63701586D01*
X90022241Y-63701586D02*
X89941637Y-63744434D01*
X89941637Y-63744434D02*
X89827514Y-63767930D01*
X89827514Y-63767930D02*
X89703414Y-63740973D01*
X89703414Y-63740973D02*
X89535817Y-63644211D01*
X70547213Y-76080533D02*
X70508508Y-76036990D01*
X70508508Y-76036990D02*
X70469803Y-75954742D01*
X70469803Y-75954742D02*
X70469803Y-75761218D01*
X70469803Y-75761218D02*
X70508508Y-75688647D01*
X70508508Y-75688647D02*
X70547213Y-75654780D01*
X70547213Y-75654780D02*
X70624622Y-75625752D01*
X70624622Y-75625752D02*
X70702032Y-75635428D01*
X70702032Y-75635428D02*
X70818146Y-75688647D01*
X70818146Y-75688647D02*
X71282603Y-76211161D01*
X71282603Y-76211161D02*
X71282603Y-75707999D01*
X70740737Y-74943581D02*
X71282603Y-75011314D01*
X70431099Y-75098400D02*
X71011670Y-75364495D01*
X71011670Y-75364495D02*
X71011670Y-74861333D01*
X70469803Y-74600076D02*
X71282603Y-74430743D01*
X71282603Y-74430743D02*
X70469803Y-74058209D01*
X76256359Y-85949862D02*
X76372080Y-85927744D01*
X76372080Y-85927744D02*
X76539676Y-85830982D01*
X76539676Y-85830982D02*
X76591552Y-85756338D01*
X76591552Y-85756338D02*
X76609909Y-85701048D01*
X76609909Y-85701048D02*
X76613104Y-85609819D01*
X76613104Y-85609819D02*
X76582779Y-85537942D01*
X76582779Y-85537942D02*
X76518934Y-85485418D01*
X76518934Y-85485418D02*
X76470253Y-85468832D01*
X76470253Y-85468832D02*
X76388052Y-85471598D01*
X76388052Y-85471598D02*
X76238812Y-85513069D01*
X76238812Y-85513069D02*
X76156611Y-85515836D01*
X76156611Y-85515836D02*
X76107929Y-85499250D01*
X76107929Y-85499250D02*
X76044085Y-85446725D01*
X76044085Y-85446725D02*
X76013760Y-85374849D01*
X76013760Y-85374849D02*
X76016954Y-85283620D01*
X76016954Y-85283620D02*
X76035311Y-85228329D01*
X76035311Y-85228329D02*
X76087187Y-85153686D01*
X76087187Y-85153686D02*
X76254784Y-85056924D01*
X76254784Y-85056924D02*
X76370504Y-85034805D01*
X76992208Y-84631172D02*
X76657015Y-84824695D01*
X76657015Y-84824695D02*
X76775121Y-85203431D01*
X76775121Y-85203431D02*
X76793477Y-85148141D01*
X76793477Y-85148141D02*
X76845354Y-85073497D01*
X76845354Y-85073497D02*
X77012950Y-84976735D01*
X77012950Y-84976735D02*
X77095151Y-84973969D01*
X77095151Y-84973969D02*
X77143833Y-84990555D01*
X77143833Y-84990555D02*
X77207677Y-85043079D01*
X77207677Y-85043079D02*
X77283490Y-85222771D01*
X77283490Y-85222771D02*
X77280295Y-85314000D01*
X77280295Y-85314000D02*
X77261938Y-85369291D01*
X77261938Y-85369291D02*
X77210062Y-85443934D01*
X77210062Y-85443934D02*
X77042466Y-85540696D01*
X77042466Y-85540696D02*
X76960265Y-85543462D01*
X76960265Y-85543462D02*
X76911583Y-85526876D01*
X76910640Y-87083110D02*
X77026361Y-87060992D01*
X77026361Y-87060992D02*
X77193957Y-86964230D01*
X77193957Y-86964230D02*
X77245833Y-86889586D01*
X77245833Y-86889586D02*
X77264190Y-86834296D01*
X77264190Y-86834296D02*
X77267385Y-86743067D01*
X77267385Y-86743067D02*
X77237060Y-86671190D01*
X77237060Y-86671190D02*
X77173215Y-86618666D01*
X77173215Y-86618666D02*
X77124534Y-86602080D01*
X77124534Y-86602080D02*
X77042333Y-86604846D01*
X77042333Y-86604846D02*
X76893093Y-86646317D01*
X76893093Y-86646317D02*
X76810892Y-86649084D01*
X76810892Y-86649084D02*
X76762210Y-86632498D01*
X76762210Y-86632498D02*
X76698366Y-86579973D01*
X76698366Y-86579973D02*
X76668041Y-86508097D01*
X76668041Y-86508097D02*
X76671235Y-86416868D01*
X76671235Y-86416868D02*
X76689592Y-86361577D01*
X76689592Y-86361577D02*
X76741468Y-86286934D01*
X76741468Y-86286934D02*
X76909065Y-86190172D01*
X76909065Y-86190172D02*
X77024785Y-86168053D01*
X77612970Y-85783772D02*
X77478893Y-85861181D01*
X77478893Y-85861181D02*
X77427017Y-85935825D01*
X77427017Y-85935825D02*
X77408660Y-85991115D01*
X77408660Y-85991115D02*
X77387109Y-86137635D01*
X77387109Y-86137635D02*
X77414239Y-86300741D01*
X77414239Y-86300741D02*
X77535539Y-86588248D01*
X77535539Y-86588248D02*
X77599383Y-86640772D01*
X77599383Y-86640772D02*
X77648065Y-86657358D01*
X77648065Y-86657358D02*
X77730266Y-86654592D01*
X77730266Y-86654592D02*
X77864343Y-86577182D01*
X77864343Y-86577182D02*
X77916219Y-86502539D01*
X77916219Y-86502539D02*
X77934576Y-86447248D01*
X77934576Y-86447248D02*
X77937771Y-86356019D01*
X77937771Y-86356019D02*
X77861958Y-86176327D01*
X77861958Y-86176327D02*
X77798114Y-86123803D01*
X77798114Y-86123803D02*
X77749432Y-86107217D01*
X77749432Y-86107217D02*
X77667231Y-86109983D01*
X77667231Y-86109983D02*
X77533154Y-86187393D01*
X77533154Y-86187393D02*
X77481278Y-86262036D01*
X77481278Y-86262036D02*
X77462921Y-86317327D01*
X77462921Y-86317327D02*
X77459726Y-86408556D01*
X77560438Y-71069803D02*
X78063600Y-71069803D01*
X78063600Y-71069803D02*
X77753962Y-71379441D01*
X77753962Y-71379441D02*
X77870076Y-71379441D01*
X77870076Y-71379441D02*
X77942647Y-71418146D01*
X77942647Y-71418146D02*
X77976514Y-71456851D01*
X77976514Y-71456851D02*
X78005542Y-71534260D01*
X78005542Y-71534260D02*
X77981352Y-71727784D01*
X77981352Y-71727784D02*
X77932971Y-71805194D01*
X77932971Y-71805194D02*
X77889428Y-71843899D01*
X77889428Y-71843899D02*
X77807181Y-71882603D01*
X77807181Y-71882603D02*
X77574952Y-71882603D01*
X77574952Y-71882603D02*
X77502381Y-71843899D01*
X77502381Y-71843899D02*
X77468514Y-71805194D01*
X78295828Y-71069803D02*
X78465161Y-71882603D01*
X78465161Y-71882603D02*
X78837695Y-71069803D01*
X79031219Y-71069803D02*
X79534381Y-71069803D01*
X79534381Y-71069803D02*
X79224743Y-71379441D01*
X79224743Y-71379441D02*
X79340857Y-71379441D01*
X79340857Y-71379441D02*
X79413428Y-71418146D01*
X79413428Y-71418146D02*
X79447295Y-71456851D01*
X79447295Y-71456851D02*
X79476323Y-71534260D01*
X79476323Y-71534260D02*
X79452133Y-71727784D01*
X79452133Y-71727784D02*
X79403752Y-71805194D01*
X79403752Y-71805194D02*
X79360209Y-71843899D01*
X79360209Y-71843899D02*
X79277962Y-71882603D01*
X79277962Y-71882603D02*
X79045733Y-71882603D01*
X79045733Y-71882603D02*
X78973162Y-71843899D01*
X78973162Y-71843899D02*
X78939295Y-71805194D01*
X64934663Y-80462381D02*
X64895958Y-80573657D01*
X64895958Y-80573657D02*
X64895958Y-80767181D01*
X64895958Y-80767181D02*
X64934663Y-80849428D01*
X64934663Y-80849428D02*
X64973367Y-80892971D01*
X64973367Y-80892971D02*
X65050777Y-80941352D01*
X65050777Y-80941352D02*
X65128186Y-80951028D01*
X65128186Y-80951028D02*
X65205596Y-80922000D01*
X65205596Y-80922000D02*
X65244301Y-80888133D01*
X65244301Y-80888133D02*
X65283005Y-80815562D01*
X65283005Y-80815562D02*
X65321710Y-80665581D01*
X65321710Y-80665581D02*
X65360415Y-80593009D01*
X65360415Y-80593009D02*
X65399120Y-80559142D01*
X65399120Y-80559142D02*
X65476529Y-80530114D01*
X65476529Y-80530114D02*
X65553939Y-80539790D01*
X65553939Y-80539790D02*
X65631348Y-80588171D01*
X65631348Y-80588171D02*
X65670053Y-80631714D01*
X65670053Y-80631714D02*
X65708758Y-80713962D01*
X65708758Y-80713962D02*
X65708758Y-80907485D01*
X65708758Y-80907485D02*
X65670053Y-81018762D01*
X64973367Y-81744476D02*
X64934663Y-81700933D01*
X64934663Y-81700933D02*
X64895958Y-81579980D01*
X64895958Y-81579980D02*
X64895958Y-81502571D01*
X64895958Y-81502571D02*
X64934663Y-81391295D01*
X64934663Y-81391295D02*
X65012072Y-81323561D01*
X65012072Y-81323561D02*
X65089482Y-81294533D01*
X65089482Y-81294533D02*
X65244301Y-81275180D01*
X65244301Y-81275180D02*
X65360415Y-81289695D01*
X65360415Y-81289695D02*
X65515234Y-81347752D01*
X65515234Y-81347752D02*
X65592643Y-81396133D01*
X65592643Y-81396133D02*
X65670053Y-81483218D01*
X65670053Y-81483218D02*
X65708758Y-81604171D01*
X65708758Y-81604171D02*
X65708758Y-81681580D01*
X65708758Y-81681580D02*
X65670053Y-81792857D01*
X65670053Y-81792857D02*
X65631348Y-81826723D01*
X64895958Y-82470190D02*
X64895958Y-82083142D01*
X64895958Y-82083142D02*
X65708758Y-82184742D01*
X63626101Y-80443029D02*
X63587396Y-80554305D01*
X63587396Y-80554305D02*
X63587396Y-80747829D01*
X63587396Y-80747829D02*
X63626101Y-80830076D01*
X63626101Y-80830076D02*
X63664805Y-80873619D01*
X63664805Y-80873619D02*
X63742215Y-80922000D01*
X63742215Y-80922000D02*
X63819624Y-80931676D01*
X63819624Y-80931676D02*
X63897034Y-80902648D01*
X63897034Y-80902648D02*
X63935739Y-80868781D01*
X63935739Y-80868781D02*
X63974443Y-80796210D01*
X63974443Y-80796210D02*
X64013148Y-80646229D01*
X64013148Y-80646229D02*
X64051853Y-80573657D01*
X64051853Y-80573657D02*
X64090558Y-80539790D01*
X64090558Y-80539790D02*
X64167967Y-80510762D01*
X64167967Y-80510762D02*
X64245377Y-80520438D01*
X64245377Y-80520438D02*
X64322786Y-80568819D01*
X64322786Y-80568819D02*
X64361491Y-80612362D01*
X64361491Y-80612362D02*
X64400196Y-80694610D01*
X64400196Y-80694610D02*
X64400196Y-80888133D01*
X64400196Y-80888133D02*
X64361491Y-80999410D01*
X63587396Y-81250990D02*
X64400196Y-81352590D01*
X64400196Y-81352590D02*
X64400196Y-81546114D01*
X64400196Y-81546114D02*
X64361491Y-81657390D01*
X64361491Y-81657390D02*
X64284081Y-81725124D01*
X64284081Y-81725124D02*
X64206672Y-81754152D01*
X64206672Y-81754152D02*
X64051853Y-81773505D01*
X64051853Y-81773505D02*
X63935739Y-81758990D01*
X63935739Y-81758990D02*
X63780920Y-81700933D01*
X63780920Y-81700933D02*
X63703510Y-81652552D01*
X63703510Y-81652552D02*
X63626101Y-81565466D01*
X63626101Y-81565466D02*
X63587396Y-81444514D01*
X63587396Y-81444514D02*
X63587396Y-81250990D01*
X63819624Y-82054114D02*
X63819624Y-82441162D01*
X63587396Y-81947676D02*
X64400196Y-82320209D01*
X64400196Y-82320209D02*
X63587396Y-82489543D01*
X80275496Y-57750154D02*
X80769884Y-57097049D01*
X80769884Y-57097049D02*
X81038038Y-57251868D01*
X81038038Y-57251868D02*
X81081535Y-57321673D01*
X81081535Y-57321673D02*
X81091512Y-57372125D01*
X81091512Y-57372125D02*
X81077947Y-57453678D01*
X81077947Y-57453678D02*
X81007320Y-57546979D01*
X81007320Y-57546979D02*
X80926716Y-57589827D01*
X80926716Y-57589827D02*
X80869654Y-57601575D01*
X80869654Y-57601575D02*
X80779073Y-57593970D01*
X80779073Y-57593970D02*
X80510919Y-57439151D01*
X81406751Y-57464744D02*
X81079959Y-58214611D01*
X81079959Y-58214611D02*
X81567171Y-57825517D01*
X81567171Y-57825517D02*
X81348114Y-58369430D01*
X81348114Y-58369430D02*
X82010098Y-57813087D01*
X81783864Y-58621011D02*
X82278253Y-57967906D01*
X82278253Y-57967906D02*
X82159753Y-58569876D01*
X82159753Y-58569876D02*
X82747523Y-58238839D01*
X82747523Y-58238839D02*
X82253135Y-58891944D01*
X82957040Y-59298344D02*
X82554808Y-59066116D01*
X82755924Y-59182230D02*
X83250312Y-58529124D01*
X83250312Y-58529124D02*
X83112647Y-58583720D01*
X83112647Y-58583720D02*
X82998524Y-58607216D01*
X82998524Y-58607216D02*
X82907943Y-58599612D01*
X72828829Y-61049858D02*
X72885890Y-61038110D01*
X72885890Y-61038110D02*
X72976471Y-61045715D01*
X72976471Y-61045715D02*
X73144068Y-61142477D01*
X73144068Y-61142477D02*
X73187564Y-61212282D01*
X73187564Y-61212282D02*
X73197541Y-61262734D01*
X73197541Y-61262734D02*
X73183976Y-61344287D01*
X73183976Y-61344287D02*
X73136891Y-61406488D01*
X73136891Y-61406488D02*
X73032745Y-61480436D01*
X73032745Y-61480436D02*
X72348006Y-61621411D01*
X72348006Y-61621411D02*
X72783757Y-61872992D01*
X73716696Y-61785931D02*
X73387104Y-62221334D01*
X73737438Y-61440367D02*
X73216707Y-61810109D01*
X73216707Y-61810109D02*
X73652458Y-62061690D01*
X74149647Y-61723048D02*
X73889894Y-62511620D01*
X73889894Y-62511620D02*
X74618917Y-61993981D01*
X64149803Y-62598056D02*
X64149803Y-62985104D01*
X64149803Y-62985104D02*
X64536851Y-63072190D01*
X64536851Y-63072190D02*
X64498146Y-63028647D01*
X64498146Y-63028647D02*
X64459441Y-62946399D01*
X64459441Y-62946399D02*
X64459441Y-62752875D01*
X64459441Y-62752875D02*
X64498146Y-62680304D01*
X64498146Y-62680304D02*
X64536851Y-62646437D01*
X64536851Y-62646437D02*
X64614260Y-62617409D01*
X64614260Y-62617409D02*
X64807784Y-62641599D01*
X64807784Y-62641599D02*
X64885194Y-62689980D01*
X64885194Y-62689980D02*
X64923899Y-62733523D01*
X64923899Y-62733523D02*
X64962603Y-62815770D01*
X64962603Y-62815770D02*
X64962603Y-63009294D01*
X64962603Y-63009294D02*
X64923899Y-63081866D01*
X64923899Y-63081866D02*
X64885194Y-63115732D01*
X64149803Y-62327123D02*
X64962603Y-62157790D01*
X64962603Y-62157790D02*
X64149803Y-61785256D01*
D11*
X85961100Y-49902608D02*
X85253993Y-49195501D01*
X85624382Y-48959799D02*
X85624382Y-48892456D01*
X85624382Y-48892456D02*
X85658054Y-48791441D01*
X85658054Y-48791441D02*
X85826413Y-48623082D01*
X85826413Y-48623082D02*
X85927428Y-48589410D01*
X85927428Y-48589410D02*
X85994772Y-48589410D01*
X85994772Y-48589410D02*
X86095787Y-48623082D01*
X86095787Y-48623082D02*
X86163130Y-48690425D01*
X86163130Y-48690425D02*
X86230474Y-48825112D01*
X86230474Y-48825112D02*
X86230474Y-49633234D01*
X86230474Y-49633234D02*
X86668207Y-49195502D01*
X87307970Y-48421051D02*
X87307970Y-48488395D01*
X87307970Y-48488395D02*
X87240627Y-48623082D01*
X87240627Y-48623082D02*
X87173283Y-48690425D01*
X87173283Y-48690425D02*
X87038596Y-48757769D01*
X87038596Y-48757769D02*
X86903909Y-48757769D01*
X86903909Y-48757769D02*
X86802894Y-48724097D01*
X86802894Y-48724097D02*
X86634535Y-48623082D01*
X86634535Y-48623082D02*
X86533520Y-48522067D01*
X86533520Y-48522067D02*
X86432504Y-48353708D01*
X86432504Y-48353708D02*
X86398833Y-48252693D01*
X86398833Y-48252693D02*
X86398833Y-48118006D01*
X86398833Y-48118006D02*
X86466176Y-47983319D01*
X86466176Y-47983319D02*
X86533520Y-47915975D01*
X86533520Y-47915975D02*
X86668207Y-47848632D01*
X86668207Y-47848632D02*
X86735550Y-47848632D01*
X87678359Y-48185349D02*
X86971253Y-47478242D01*
X86971253Y-47478242D02*
X87240627Y-47208868D01*
X87240627Y-47208868D02*
X87341642Y-47175196D01*
X87341642Y-47175196D02*
X87408985Y-47175196D01*
X87408985Y-47175196D02*
X87510001Y-47208868D01*
X87510001Y-47208868D02*
X87611016Y-47309883D01*
X87611016Y-47309883D02*
X87644688Y-47410899D01*
X87644688Y-47410899D02*
X87644688Y-47478242D01*
X87644688Y-47478242D02*
X87611016Y-47579258D01*
X87611016Y-47579258D02*
X87341642Y-47848632D01*
X87678359Y-46771135D02*
X88250779Y-47343555D01*
X88250779Y-47343555D02*
X88351794Y-47377227D01*
X88351794Y-47377227D02*
X88419138Y-47377227D01*
X88419138Y-47377227D02*
X88520153Y-47343555D01*
X88520153Y-47343555D02*
X88654840Y-47208868D01*
X88654840Y-47208868D02*
X88688512Y-47107853D01*
X88688512Y-47107853D02*
X88688512Y-47040509D01*
X88688512Y-47040509D02*
X88654840Y-46939494D01*
X88654840Y-46939494D02*
X88082420Y-46367074D01*
D10*
X94511648Y-91612429D02*
X94080596Y-91496113D01*
X94183228Y-91940849D02*
X93680333Y-91294271D01*
X93680333Y-91294271D02*
X93899280Y-91075324D01*
X93899280Y-91075324D02*
X93977965Y-91051376D01*
X93977965Y-91051376D02*
X94029280Y-91054797D01*
X94029280Y-91054797D02*
X94104543Y-91089008D01*
X94104543Y-91089008D02*
X94176385Y-91181376D01*
X94176385Y-91181376D02*
X94196912Y-91270324D01*
X94196912Y-91270324D02*
X94193491Y-91328481D01*
X94193491Y-91328481D02*
X94162701Y-91414008D01*
X94162701Y-91414008D02*
X93943754Y-91632955D01*
X94706648Y-91362692D02*
X94812701Y-91311376D01*
X94812701Y-91311376D02*
X94949543Y-91174534D01*
X94949543Y-91174534D02*
X94980332Y-91089008D01*
X94980332Y-91089008D02*
X94983753Y-91030850D01*
X94983753Y-91030850D02*
X94963227Y-90941903D01*
X94963227Y-90941903D02*
X94915332Y-90880324D01*
X94915332Y-90880324D02*
X94840069Y-90846113D01*
X94840069Y-90846113D02*
X94788753Y-90842692D01*
X94788753Y-90842692D02*
X94710069Y-90866640D01*
X94710069Y-90866640D02*
X94576648Y-90945324D01*
X94576648Y-90945324D02*
X94497964Y-90969271D01*
X94497964Y-90969271D02*
X94446648Y-90965850D01*
X94446648Y-90965850D02*
X94371385Y-90931640D01*
X94371385Y-90931640D02*
X94323491Y-90870061D01*
X94323491Y-90870061D02*
X94302964Y-90781113D01*
X94302964Y-90781113D02*
X94306385Y-90722956D01*
X94306385Y-90722956D02*
X94337175Y-90637429D01*
X94337175Y-90637429D02*
X94474017Y-90500587D01*
X94474017Y-90500587D02*
X94580069Y-90449272D01*
X94720332Y-90254272D02*
X95048753Y-89925851D01*
X95387437Y-90736640D02*
X94884543Y-90090062D01*
X56574041Y-77261809D02*
X55761241Y-77160209D01*
X55761241Y-77160209D02*
X55761241Y-76966685D01*
X55761241Y-76966685D02*
X55799946Y-76855409D01*
X55799946Y-76855409D02*
X55877356Y-76787675D01*
X55877356Y-76787675D02*
X55954765Y-76758647D01*
X55954765Y-76758647D02*
X56109584Y-76739295D01*
X56109584Y-76739295D02*
X56225698Y-76753809D01*
X56225698Y-76753809D02*
X56380517Y-76811866D01*
X56380517Y-76811866D02*
X56457927Y-76860247D01*
X56457927Y-76860247D02*
X56535337Y-76947333D01*
X56535337Y-76947333D02*
X56574041Y-77068285D01*
X56574041Y-77068285D02*
X56574041Y-77261809D01*
X55838651Y-76395790D02*
X55799946Y-76352247D01*
X55799946Y-76352247D02*
X55761241Y-76269999D01*
X55761241Y-76269999D02*
X55761241Y-76076475D01*
X55761241Y-76076475D02*
X55799946Y-76003904D01*
X55799946Y-76003904D02*
X55838651Y-75970037D01*
X55838651Y-75970037D02*
X55916060Y-75941009D01*
X55916060Y-75941009D02*
X55993470Y-75950685D01*
X55993470Y-75950685D02*
X56109584Y-76003904D01*
X56109584Y-76003904D02*
X56574041Y-76526418D01*
X56574041Y-76526418D02*
X56574041Y-76023256D01*
X55761241Y-75418495D02*
X55761241Y-75341085D01*
X55761241Y-75341085D02*
X55799946Y-75268514D01*
X55799946Y-75268514D02*
X55838651Y-75234647D01*
X55838651Y-75234647D02*
X55916060Y-75205619D01*
X55916060Y-75205619D02*
X56070879Y-75186266D01*
X56070879Y-75186266D02*
X56264403Y-75210457D01*
X56264403Y-75210457D02*
X56419222Y-75268514D01*
X56419222Y-75268514D02*
X56496632Y-75316895D01*
X56496632Y-75316895D02*
X56535337Y-75360438D01*
X56535337Y-75360438D02*
X56574041Y-75442685D01*
X56574041Y-75442685D02*
X56574041Y-75520095D01*
X56574041Y-75520095D02*
X56535337Y-75592666D01*
X56535337Y-75592666D02*
X56496632Y-75626533D01*
X56496632Y-75626533D02*
X56419222Y-75655561D01*
X56419222Y-75655561D02*
X56264403Y-75674914D01*
X56264403Y-75674914D02*
X56070879Y-75650723D01*
X56070879Y-75650723D02*
X55916060Y-75592666D01*
X55916060Y-75592666D02*
X55838651Y-75544285D01*
X55838651Y-75544285D02*
X55799946Y-75500742D01*
X55799946Y-75500742D02*
X55761241Y-75418495D01*
X57882603Y-76874761D02*
X57069803Y-76773161D01*
X57069803Y-76773161D02*
X57069803Y-76579637D01*
X57069803Y-76579637D02*
X57108508Y-76468361D01*
X57108508Y-76468361D02*
X57185918Y-76400627D01*
X57185918Y-76400627D02*
X57263327Y-76371599D01*
X57263327Y-76371599D02*
X57418146Y-76352247D01*
X57418146Y-76352247D02*
X57534260Y-76366761D01*
X57534260Y-76366761D02*
X57689079Y-76424818D01*
X57689079Y-76424818D02*
X57766489Y-76473199D01*
X57766489Y-76473199D02*
X57843899Y-76560285D01*
X57843899Y-76560285D02*
X57882603Y-76681237D01*
X57882603Y-76681237D02*
X57882603Y-76874761D01*
X57882603Y-75636208D02*
X57882603Y-76100666D01*
X57882603Y-75868437D02*
X57069803Y-75766837D01*
X57069803Y-75766837D02*
X57185918Y-75858761D01*
X57185918Y-75858761D02*
X57263327Y-75945847D01*
X57263327Y-75945847D02*
X57302032Y-76028094D01*
X80859623Y-83532115D02*
X80524430Y-83725638D01*
X80524430Y-83725638D02*
X80642535Y-84104374D01*
X80642535Y-84104374D02*
X80660892Y-84049084D01*
X80660892Y-84049084D02*
X80712768Y-83974440D01*
X80712768Y-83974440D02*
X80880365Y-83877678D01*
X80880365Y-83877678D02*
X80962566Y-83874912D01*
X80962566Y-83874912D02*
X81011248Y-83891498D01*
X81011248Y-83891498D02*
X81075092Y-83944022D01*
X81075092Y-83944022D02*
X81150904Y-84123714D01*
X81150904Y-84123714D02*
X81147710Y-84214943D01*
X81147710Y-84214943D02*
X81129353Y-84270234D01*
X81129353Y-84270234D02*
X81077477Y-84344877D01*
X81077477Y-84344877D02*
X80909880Y-84441639D01*
X80909880Y-84441639D02*
X80827679Y-84444405D01*
X80827679Y-84444405D02*
X80778997Y-84427819D01*
X81094258Y-83396648D02*
X81647305Y-84015887D01*
X81647305Y-84015887D02*
X81563528Y-83125715D01*
X56458508Y-70437352D02*
X56419803Y-70509923D01*
X56419803Y-70509923D02*
X56419803Y-70626037D01*
X56419803Y-70626037D02*
X56458508Y-70746990D01*
X56458508Y-70746990D02*
X56535918Y-70834075D01*
X56535918Y-70834075D02*
X56613327Y-70882456D01*
X56613327Y-70882456D02*
X56768146Y-70940513D01*
X56768146Y-70940513D02*
X56884260Y-70955028D01*
X56884260Y-70955028D02*
X57039079Y-70935675D01*
X57039079Y-70935675D02*
X57116489Y-70906647D01*
X57116489Y-70906647D02*
X57193899Y-70838913D01*
X57193899Y-70838913D02*
X57232603Y-70727637D01*
X57232603Y-70727637D02*
X57232603Y-70650228D01*
X57232603Y-70650228D02*
X57193899Y-70529275D01*
X57193899Y-70529275D02*
X57155194Y-70485732D01*
X57155194Y-70485732D02*
X56884260Y-70451866D01*
X56884260Y-70451866D02*
X56884260Y-70606685D01*
X57232603Y-70147066D02*
X56419803Y-70045466D01*
X56419803Y-70045466D02*
X57232603Y-69682609D01*
X57232603Y-69682609D02*
X56419803Y-69581009D01*
X57232603Y-69295561D02*
X56419803Y-69193961D01*
X56419803Y-69193961D02*
X56419803Y-69000437D01*
X56419803Y-69000437D02*
X56458508Y-68889161D01*
X56458508Y-68889161D02*
X56535918Y-68821427D01*
X56535918Y-68821427D02*
X56613327Y-68792399D01*
X56613327Y-68792399D02*
X56768146Y-68773047D01*
X56768146Y-68773047D02*
X56884260Y-68787561D01*
X56884260Y-68787561D02*
X57039079Y-68845618D01*
X57039079Y-68845618D02*
X57116489Y-68893999D01*
X57116489Y-68893999D02*
X57193899Y-68981085D01*
X57193899Y-68981085D02*
X57232603Y-69102037D01*
X57232603Y-69102037D02*
X57232603Y-69295561D01*
X76525496Y-63990154D02*
X77019884Y-63337049D01*
X77019884Y-63337049D02*
X77288038Y-63491868D01*
X77288038Y-63491868D02*
X77331535Y-63561673D01*
X77331535Y-63561673D02*
X77341512Y-63612125D01*
X77341512Y-63612125D02*
X77327947Y-63693678D01*
X77327947Y-63693678D02*
X77257320Y-63786979D01*
X77257320Y-63786979D02*
X77176716Y-63829827D01*
X77176716Y-63829827D02*
X77119654Y-63841575D01*
X77119654Y-63841575D02*
X77029073Y-63833970D01*
X77029073Y-63833970D02*
X76760919Y-63679151D01*
X77656751Y-63704744D02*
X77329959Y-64454611D01*
X77329959Y-64454611D02*
X77817171Y-64065517D01*
X77817171Y-64065517D02*
X77598114Y-64609430D01*
X77598114Y-64609430D02*
X78260098Y-64053087D01*
X78033864Y-64861011D02*
X78528253Y-64207906D01*
X78528253Y-64207906D02*
X78409753Y-64809876D01*
X78409753Y-64809876D02*
X78997523Y-64478839D01*
X78997523Y-64478839D02*
X78503135Y-65131944D01*
X79265677Y-64633658D02*
X79701428Y-64885239D01*
X79701428Y-64885239D02*
X79278455Y-64998574D01*
X79278455Y-64998574D02*
X79379013Y-65056631D01*
X79379013Y-65056631D02*
X79422509Y-65126436D01*
X79422509Y-65126436D02*
X79432486Y-65176889D01*
X79432486Y-65176889D02*
X79418921Y-65258442D01*
X79418921Y-65258442D02*
X79301209Y-65413943D01*
X79301209Y-65413943D02*
X79220605Y-65456791D01*
X79220605Y-65456791D02*
X79163544Y-65468539D01*
X79163544Y-65468539D02*
X79072963Y-65460935D01*
X79072963Y-65460935D02*
X78871847Y-65344820D01*
X78871847Y-65344820D02*
X78828351Y-65275015D01*
X78828351Y-65275015D02*
X78818374Y-65224563D01*
X85146741Y-68623834D02*
X85223757Y-68712992D01*
X85223757Y-68712992D02*
X85391353Y-68809754D01*
X85391353Y-68809754D02*
X85481934Y-68817358D01*
X85481934Y-68817358D02*
X85538996Y-68805610D01*
X85538996Y-68805610D02*
X85619600Y-68762762D01*
X85619600Y-68762762D02*
X85666684Y-68700562D01*
X85666684Y-68700562D02*
X85680250Y-68619009D01*
X85680250Y-68619009D02*
X85670273Y-68568556D01*
X85670273Y-68568556D02*
X85626776Y-68498751D01*
X85626776Y-68498751D02*
X85516241Y-68390241D01*
X85516241Y-68390241D02*
X85472745Y-68320436D01*
X85472745Y-68320436D02*
X85462768Y-68269984D01*
X85462768Y-68269984D02*
X85476333Y-68188431D01*
X85476333Y-68188431D02*
X85523418Y-68126230D01*
X85523418Y-68126230D02*
X85604022Y-68083382D01*
X85604022Y-68083382D02*
X85661083Y-68071634D01*
X85661083Y-68071634D02*
X85751664Y-68079239D01*
X85751664Y-68079239D02*
X85919261Y-68176001D01*
X85919261Y-68176001D02*
X85996277Y-68265158D01*
X86240889Y-68451077D02*
X86297950Y-68439329D01*
X86297950Y-68439329D02*
X86388531Y-68446934D01*
X86388531Y-68446934D02*
X86556128Y-68543696D01*
X86556128Y-68543696D02*
X86599624Y-68613501D01*
X86599624Y-68613501D02*
X86609601Y-68663953D01*
X86609601Y-68663953D02*
X86596036Y-68745506D01*
X86596036Y-68745506D02*
X86548951Y-68807707D01*
X86548951Y-68807707D02*
X86444805Y-68881655D01*
X86444805Y-68881655D02*
X85760066Y-69022630D01*
X85760066Y-69022630D02*
X86195817Y-69274211D01*
X87376741Y-69963834D02*
X87453757Y-70052992D01*
X87453757Y-70052992D02*
X87621353Y-70149754D01*
X87621353Y-70149754D02*
X87711934Y-70157358D01*
X87711934Y-70157358D02*
X87768996Y-70145610D01*
X87768996Y-70145610D02*
X87849600Y-70102762D01*
X87849600Y-70102762D02*
X87896684Y-70040562D01*
X87896684Y-70040562D02*
X87910250Y-69959009D01*
X87910250Y-69959009D02*
X87900273Y-69908556D01*
X87900273Y-69908556D02*
X87856776Y-69838751D01*
X87856776Y-69838751D02*
X87746241Y-69730241D01*
X87746241Y-69730241D02*
X87702745Y-69660436D01*
X87702745Y-69660436D02*
X87692768Y-69609984D01*
X87692768Y-69609984D02*
X87706333Y-69528431D01*
X87706333Y-69528431D02*
X87753418Y-69466230D01*
X87753418Y-69466230D02*
X87834022Y-69423382D01*
X87834022Y-69423382D02*
X87891083Y-69411634D01*
X87891083Y-69411634D02*
X87981664Y-69419239D01*
X87981664Y-69419239D02*
X88149261Y-69516001D01*
X88149261Y-69516001D02*
X88226277Y-69605158D01*
X88425817Y-70614211D02*
X88023585Y-70381982D01*
X88224701Y-70498096D02*
X88719089Y-69844991D01*
X88719089Y-69844991D02*
X88581423Y-69899587D01*
X88581423Y-69899587D02*
X88467300Y-69923083D01*
X88467300Y-69923083D02*
X88376719Y-69915478D01*
X92429819Y-66754058D02*
X92094626Y-66560534D01*
X92094626Y-66560534D02*
X91825684Y-66852184D01*
X91825684Y-66852184D02*
X91882745Y-66840436D01*
X91882745Y-66840436D02*
X91973326Y-66848041D01*
X91973326Y-66848041D02*
X92140923Y-66944803D01*
X92140923Y-66944803D02*
X92184419Y-67014608D01*
X92184419Y-67014608D02*
X92194396Y-67065060D01*
X92194396Y-67065060D02*
X92180831Y-67146613D01*
X92180831Y-67146613D02*
X92063119Y-67302115D01*
X92063119Y-67302115D02*
X91982515Y-67344963D01*
X91982515Y-67344963D02*
X91925454Y-67356711D01*
X91925454Y-67356711D02*
X91834873Y-67349106D01*
X91834873Y-67349106D02*
X91667276Y-67252344D01*
X91667276Y-67252344D02*
X91623780Y-67182539D01*
X91623780Y-67182539D02*
X91613803Y-67132087D01*
X92664454Y-66889524D02*
X92404701Y-67678097D01*
X92404701Y-67678097D02*
X93133724Y-67160458D01*
X70875046Y-88745627D02*
X71210239Y-88552103D01*
X70898982Y-88999962D02*
X70815206Y-88109789D01*
X70815206Y-88109789D02*
X71368253Y-88729028D01*
X71602888Y-88593561D02*
X71284476Y-87838856D01*
X71284476Y-87838856D02*
X71452073Y-87742094D01*
X71452073Y-87742094D02*
X71567793Y-87719975D01*
X71567793Y-87719975D02*
X71665157Y-87753147D01*
X71665157Y-87753147D02*
X71729001Y-87805672D01*
X71729001Y-87805672D02*
X71823170Y-87930073D01*
X71823170Y-87930073D02*
X71868657Y-88037888D01*
X71868657Y-88037888D02*
X71895788Y-88200993D01*
X71895788Y-88200993D02*
X71892594Y-88292223D01*
X71892594Y-88292223D02*
X71855880Y-88402804D01*
X71855880Y-88402804D02*
X71770484Y-88496800D01*
X71770484Y-88496800D02*
X71602888Y-88593561D01*
X72678700Y-87883056D02*
X72660343Y-87938347D01*
X72660343Y-87938347D02*
X72574948Y-88032342D01*
X72574948Y-88032342D02*
X72507909Y-88071047D01*
X72507909Y-88071047D02*
X72392189Y-88093166D01*
X72392189Y-88093166D02*
X72294825Y-88059994D01*
X72294825Y-88059994D02*
X72230981Y-88007470D01*
X72230981Y-88007470D02*
X72136812Y-87883069D01*
X72136812Y-87883069D02*
X72091324Y-87775254D01*
X72091324Y-87775254D02*
X72064194Y-87612148D01*
X72064194Y-87612148D02*
X72067388Y-87520919D01*
X72067388Y-87520919D02*
X72104102Y-87410337D01*
X72104102Y-87410337D02*
X72189497Y-87316342D01*
X72189497Y-87316342D02*
X72256536Y-87277637D01*
X72256536Y-87277637D02*
X72372256Y-87255518D01*
X72372256Y-87255518D02*
X72420938Y-87272104D01*
X73379411Y-87567885D02*
X72977179Y-87800114D01*
X73178295Y-87684000D02*
X72859884Y-86929294D01*
X72859884Y-86929294D02*
X72838332Y-87075814D01*
X72838332Y-87075814D02*
X72801619Y-87186395D01*
X72801619Y-87186395D02*
X72749742Y-87261039D01*
X71529327Y-89878875D02*
X71864520Y-89685351D01*
X71553263Y-90133210D02*
X71469487Y-89243037D01*
X71469487Y-89243037D02*
X72022534Y-89862276D01*
X72257169Y-89726809D02*
X71938757Y-88972104D01*
X71938757Y-88972104D02*
X72106354Y-88875342D01*
X72106354Y-88875342D02*
X72222074Y-88853223D01*
X72222074Y-88853223D02*
X72319438Y-88886395D01*
X72319438Y-88886395D02*
X72383282Y-88938920D01*
X72383282Y-88938920D02*
X72477451Y-89063321D01*
X72477451Y-89063321D02*
X72522938Y-89171136D01*
X72522938Y-89171136D02*
X72550069Y-89334241D01*
X72550069Y-89334241D02*
X72546875Y-89425471D01*
X72546875Y-89425471D02*
X72510161Y-89536052D01*
X72510161Y-89536052D02*
X72424765Y-89630048D01*
X72424765Y-89630048D02*
X72257169Y-89726809D01*
X73332981Y-89016304D02*
X73314624Y-89071595D01*
X73314624Y-89071595D02*
X73229229Y-89165590D01*
X73229229Y-89165590D02*
X73162190Y-89204295D01*
X73162190Y-89204295D02*
X73046470Y-89226414D01*
X73046470Y-89226414D02*
X72949106Y-89193242D01*
X72949106Y-89193242D02*
X72885262Y-89140718D01*
X72885262Y-89140718D02*
X72791093Y-89016317D01*
X72791093Y-89016317D02*
X72745605Y-88908502D01*
X72745605Y-88908502D02*
X72718475Y-88745396D01*
X72718475Y-88745396D02*
X72721669Y-88654167D01*
X72721669Y-88654167D02*
X72758383Y-88543585D01*
X72758383Y-88543585D02*
X72843778Y-88449590D01*
X72843778Y-88449590D02*
X72910817Y-88410885D01*
X72910817Y-88410885D02*
X73026537Y-88388766D01*
X73026537Y-88388766D02*
X73075219Y-88405352D01*
X73480645Y-88081894D02*
X73547684Y-88043190D01*
X73547684Y-88043190D02*
X73629885Y-88040423D01*
X73629885Y-88040423D02*
X73678567Y-88057009D01*
X73678567Y-88057009D02*
X73742411Y-88109534D01*
X73742411Y-88109534D02*
X73836580Y-88233935D01*
X73836580Y-88233935D02*
X73912392Y-88413626D01*
X73912392Y-88413626D02*
X73939523Y-88576732D01*
X73939523Y-88576732D02*
X73936329Y-88667961D01*
X73936329Y-88667961D02*
X73917972Y-88723252D01*
X73917972Y-88723252D02*
X73866096Y-88797895D01*
X73866096Y-88797895D02*
X73799057Y-88836600D01*
X73799057Y-88836600D02*
X73716856Y-88839366D01*
X73716856Y-88839366D02*
X73668174Y-88822780D01*
X73668174Y-88822780D02*
X73604330Y-88770256D01*
X73604330Y-88770256D02*
X73510161Y-88645855D01*
X73510161Y-88645855D02*
X73434348Y-88466163D01*
X73434348Y-88466163D02*
X73407218Y-88303057D01*
X73407218Y-88303057D02*
X73410412Y-88211828D01*
X73410412Y-88211828D02*
X73428769Y-88156538D01*
X73428769Y-88156538D02*
X73480645Y-88081894D01*
X84785496Y-60440154D02*
X85279884Y-59787049D01*
X85279884Y-59787049D02*
X85548038Y-59941868D01*
X85548038Y-59941868D02*
X85591535Y-60011673D01*
X85591535Y-60011673D02*
X85601512Y-60062125D01*
X85601512Y-60062125D02*
X85587947Y-60143678D01*
X85587947Y-60143678D02*
X85517320Y-60236979D01*
X85517320Y-60236979D02*
X85436716Y-60279827D01*
X85436716Y-60279827D02*
X85379654Y-60291575D01*
X85379654Y-60291575D02*
X85289073Y-60283970D01*
X85289073Y-60283970D02*
X85020919Y-60129151D01*
X85916751Y-60154744D02*
X85589959Y-60904611D01*
X85589959Y-60904611D02*
X86077171Y-60515517D01*
X86077171Y-60515517D02*
X85858114Y-61059430D01*
X85858114Y-61059430D02*
X86520098Y-60503087D01*
X86293864Y-61311011D02*
X86788253Y-60657906D01*
X86788253Y-60657906D02*
X86669753Y-61259876D01*
X86669753Y-61259876D02*
X87257523Y-60928839D01*
X87257523Y-60928839D02*
X86763135Y-61581944D01*
X87726793Y-61199772D02*
X87793832Y-61238477D01*
X87793832Y-61238477D02*
X87837328Y-61308282D01*
X87837328Y-61308282D02*
X87847305Y-61358734D01*
X87847305Y-61358734D02*
X87833740Y-61440287D01*
X87833740Y-61440287D02*
X87773090Y-61584041D01*
X87773090Y-61584041D02*
X87655378Y-61739542D01*
X87655378Y-61739542D02*
X87527690Y-61844591D01*
X87527690Y-61844591D02*
X87447086Y-61887439D01*
X87447086Y-61887439D02*
X87390024Y-61899187D01*
X87390024Y-61899187D02*
X87299443Y-61891582D01*
X87299443Y-61891582D02*
X87232405Y-61852878D01*
X87232405Y-61852878D02*
X87188908Y-61783072D01*
X87188908Y-61783072D02*
X87178931Y-61732620D01*
X87178931Y-61732620D02*
X87192497Y-61651067D01*
X87192497Y-61651067D02*
X87253147Y-61507314D01*
X87253147Y-61507314D02*
X87370858Y-61351812D01*
X87370858Y-61351812D02*
X87498547Y-61246764D01*
X87498547Y-61246764D02*
X87579150Y-61203915D01*
X87579150Y-61203915D02*
X87636212Y-61192168D01*
X87636212Y-61192168D02*
X87726793Y-61199772D01*
X64788508Y-68847352D02*
X64749803Y-68919923D01*
X64749803Y-68919923D02*
X64749803Y-69036037D01*
X64749803Y-69036037D02*
X64788508Y-69156990D01*
X64788508Y-69156990D02*
X64865918Y-69244075D01*
X64865918Y-69244075D02*
X64943327Y-69292456D01*
X64943327Y-69292456D02*
X65098146Y-69350513D01*
X65098146Y-69350513D02*
X65214260Y-69365028D01*
X65214260Y-69365028D02*
X65369079Y-69345675D01*
X65369079Y-69345675D02*
X65446489Y-69316647D01*
X65446489Y-69316647D02*
X65523899Y-69248913D01*
X65523899Y-69248913D02*
X65562603Y-69137637D01*
X65562603Y-69137637D02*
X65562603Y-69060228D01*
X65562603Y-69060228D02*
X65523899Y-68939275D01*
X65523899Y-68939275D02*
X65485194Y-68895732D01*
X65485194Y-68895732D02*
X65214260Y-68861866D01*
X65214260Y-68861866D02*
X65214260Y-69016685D01*
X65562603Y-68557066D02*
X64749803Y-68455466D01*
X64749803Y-68455466D02*
X65562603Y-68092609D01*
X65562603Y-68092609D02*
X64749803Y-67991009D01*
X65562603Y-67705561D02*
X64749803Y-67603961D01*
X64749803Y-67603961D02*
X64749803Y-67410437D01*
X64749803Y-67410437D02*
X64788508Y-67299161D01*
X64788508Y-67299161D02*
X64865918Y-67231427D01*
X64865918Y-67231427D02*
X64943327Y-67202399D01*
X64943327Y-67202399D02*
X65098146Y-67183047D01*
X65098146Y-67183047D02*
X65214260Y-67197561D01*
X65214260Y-67197561D02*
X65369079Y-67255618D01*
X65369079Y-67255618D02*
X65446489Y-67303999D01*
X65446489Y-67303999D02*
X65523899Y-67391085D01*
X65523899Y-67391085D02*
X65562603Y-67512037D01*
X65562603Y-67512037D02*
X65562603Y-67705561D01*
X80865496Y-66580154D02*
X81359884Y-65927049D01*
X81359884Y-65927049D02*
X81628038Y-66081868D01*
X81628038Y-66081868D02*
X81671535Y-66151673D01*
X81671535Y-66151673D02*
X81681512Y-66202125D01*
X81681512Y-66202125D02*
X81667947Y-66283678D01*
X81667947Y-66283678D02*
X81597320Y-66376979D01*
X81597320Y-66376979D02*
X81516716Y-66419827D01*
X81516716Y-66419827D02*
X81459654Y-66431575D01*
X81459654Y-66431575D02*
X81369073Y-66423970D01*
X81369073Y-66423970D02*
X81100919Y-66269151D01*
X81996751Y-66294744D02*
X81669959Y-67044611D01*
X81669959Y-67044611D02*
X82157171Y-66655517D01*
X82157171Y-66655517D02*
X81938114Y-67199430D01*
X81938114Y-67199430D02*
X82600098Y-66643087D01*
X82373864Y-67451011D02*
X82868253Y-66797906D01*
X82868253Y-66797906D02*
X82749753Y-67399876D01*
X82749753Y-67399876D02*
X83337523Y-67068839D01*
X83337523Y-67068839D02*
X82843135Y-67721944D01*
X83592112Y-67305211D02*
X83649173Y-67293463D01*
X83649173Y-67293463D02*
X83739754Y-67301067D01*
X83739754Y-67301067D02*
X83907351Y-67397829D01*
X83907351Y-67397829D02*
X83950847Y-67467634D01*
X83950847Y-67467634D02*
X83960824Y-67518087D01*
X83960824Y-67518087D02*
X83947259Y-67599640D01*
X83947259Y-67599640D02*
X83900174Y-67661840D01*
X83900174Y-67661840D02*
X83796028Y-67735789D01*
X83796028Y-67735789D02*
X83111289Y-67876763D01*
X83111289Y-67876763D02*
X83547040Y-68128344D01*
X75121943Y-78079803D02*
X74734895Y-78079803D01*
X74734895Y-78079803D02*
X74647810Y-78466851D01*
X74647810Y-78466851D02*
X74691352Y-78428146D01*
X74691352Y-78428146D02*
X74773600Y-78389441D01*
X74773600Y-78389441D02*
X74967124Y-78389441D01*
X74967124Y-78389441D02*
X75039695Y-78428146D01*
X75039695Y-78428146D02*
X75073562Y-78466851D01*
X75073562Y-78466851D02*
X75102590Y-78544260D01*
X75102590Y-78544260D02*
X75078400Y-78737784D01*
X75078400Y-78737784D02*
X75030019Y-78815194D01*
X75030019Y-78815194D02*
X74986476Y-78853899D01*
X74986476Y-78853899D02*
X74904229Y-78892603D01*
X74904229Y-78892603D02*
X74710705Y-78892603D01*
X74710705Y-78892603D02*
X74638133Y-78853899D01*
X74638133Y-78853899D02*
X74604267Y-78815194D01*
X75392876Y-78079803D02*
X75562209Y-78892603D01*
X75562209Y-78892603D02*
X75934743Y-78079803D01*
X56574041Y-79781809D02*
X55761241Y-79680209D01*
X55761241Y-79680209D02*
X55761241Y-79486685D01*
X55761241Y-79486685D02*
X55799946Y-79375409D01*
X55799946Y-79375409D02*
X55877356Y-79307675D01*
X55877356Y-79307675D02*
X55954765Y-79278647D01*
X55954765Y-79278647D02*
X56109584Y-79259295D01*
X56109584Y-79259295D02*
X56225698Y-79273809D01*
X56225698Y-79273809D02*
X56380517Y-79331866D01*
X56380517Y-79331866D02*
X56457927Y-79380247D01*
X56457927Y-79380247D02*
X56535337Y-79467333D01*
X56535337Y-79467333D02*
X56574041Y-79588285D01*
X56574041Y-79588285D02*
X56574041Y-79781809D01*
X55838651Y-78915790D02*
X55799946Y-78872247D01*
X55799946Y-78872247D02*
X55761241Y-78789999D01*
X55761241Y-78789999D02*
X55761241Y-78596475D01*
X55761241Y-78596475D02*
X55799946Y-78523904D01*
X55799946Y-78523904D02*
X55838651Y-78490037D01*
X55838651Y-78490037D02*
X55916060Y-78461009D01*
X55916060Y-78461009D02*
X55993470Y-78470685D01*
X55993470Y-78470685D02*
X56109584Y-78523904D01*
X56109584Y-78523904D02*
X56574041Y-79046418D01*
X56574041Y-79046418D02*
X56574041Y-78543256D01*
X56032175Y-77778838D02*
X56574041Y-77846571D01*
X55722537Y-77933657D02*
X56303108Y-78199752D01*
X56303108Y-78199752D02*
X56303108Y-77696590D01*
X57882603Y-79781809D02*
X57069803Y-79680209D01*
X57069803Y-79680209D02*
X57069803Y-79486685D01*
X57069803Y-79486685D02*
X57108508Y-79375409D01*
X57108508Y-79375409D02*
X57185918Y-79307675D01*
X57185918Y-79307675D02*
X57263327Y-79278647D01*
X57263327Y-79278647D02*
X57418146Y-79259295D01*
X57418146Y-79259295D02*
X57534260Y-79273809D01*
X57534260Y-79273809D02*
X57689079Y-79331866D01*
X57689079Y-79331866D02*
X57766489Y-79380247D01*
X57766489Y-79380247D02*
X57843899Y-79467333D01*
X57843899Y-79467333D02*
X57882603Y-79588285D01*
X57882603Y-79588285D02*
X57882603Y-79781809D01*
X57147213Y-78915790D02*
X57108508Y-78872247D01*
X57108508Y-78872247D02*
X57069803Y-78789999D01*
X57069803Y-78789999D02*
X57069803Y-78596475D01*
X57069803Y-78596475D02*
X57108508Y-78523904D01*
X57108508Y-78523904D02*
X57147213Y-78490037D01*
X57147213Y-78490037D02*
X57224622Y-78461009D01*
X57224622Y-78461009D02*
X57302032Y-78470685D01*
X57302032Y-78470685D02*
X57418146Y-78523904D01*
X57418146Y-78523904D02*
X57882603Y-79046418D01*
X57882603Y-79046418D02*
X57882603Y-78543256D01*
X57882603Y-77769161D02*
X57882603Y-78233619D01*
X57882603Y-78001390D02*
X57069803Y-77899790D01*
X57069803Y-77899790D02*
X57185918Y-77991714D01*
X57185918Y-77991714D02*
X57263327Y-78078800D01*
X57263327Y-78078800D02*
X57302032Y-78161047D01*
X90247430Y-95274542D02*
X90353483Y-95223226D01*
X90353483Y-95223226D02*
X90404798Y-95226647D01*
X90404798Y-95226647D02*
X90480061Y-95260858D01*
X90480061Y-95260858D02*
X90551904Y-95353226D01*
X90551904Y-95353226D02*
X90572430Y-95442174D01*
X90572430Y-95442174D02*
X90569009Y-95500331D01*
X90569009Y-95500331D02*
X90538219Y-95585858D01*
X90538219Y-95585858D02*
X90319272Y-95804805D01*
X90319272Y-95804805D02*
X89816378Y-95158226D01*
X89816378Y-95158226D02*
X90007957Y-94966648D01*
X90007957Y-94966648D02*
X90086641Y-94942700D01*
X90086641Y-94942700D02*
X90137956Y-94946121D01*
X90137956Y-94946121D02*
X90213220Y-94980332D01*
X90213220Y-94980332D02*
X90261114Y-95041911D01*
X90261114Y-95041911D02*
X90281641Y-95130858D01*
X90281641Y-95130858D02*
X90278220Y-95189016D01*
X90278220Y-95189016D02*
X90247430Y-95274542D01*
X90247430Y-95274542D02*
X90055851Y-95466121D01*
X90500588Y-94474016D02*
X90610061Y-94364543D01*
X90610061Y-94364543D02*
X90688746Y-94340595D01*
X90688746Y-94340595D02*
X90791377Y-94347438D01*
X90791377Y-94347438D02*
X90914535Y-94443227D01*
X90914535Y-94443227D02*
X91082166Y-94658753D01*
X91082166Y-94658753D02*
X91150587Y-94809279D01*
X91150587Y-94809279D02*
X91143745Y-94925595D01*
X91143745Y-94925595D02*
X91112956Y-95011121D01*
X91112956Y-95011121D02*
X91003482Y-95120595D01*
X91003482Y-95120595D02*
X90924798Y-95144542D01*
X90924798Y-95144542D02*
X90822166Y-95137700D01*
X90822166Y-95137700D02*
X90699009Y-95041911D01*
X90699009Y-95041911D02*
X90531377Y-94826385D01*
X90531377Y-94826385D02*
X90462956Y-94675858D01*
X90462956Y-94675858D02*
X90469798Y-94559543D01*
X90469798Y-94559543D02*
X90500588Y-94474016D01*
X91102693Y-93871911D02*
X91212166Y-93762438D01*
X91212166Y-93762438D02*
X91290850Y-93738490D01*
X91290850Y-93738490D02*
X91393482Y-93745333D01*
X91393482Y-93745333D02*
X91516640Y-93841122D01*
X91516640Y-93841122D02*
X91684271Y-94056648D01*
X91684271Y-94056648D02*
X91752692Y-94207174D01*
X91752692Y-94207174D02*
X91745850Y-94323490D01*
X91745850Y-94323490D02*
X91715061Y-94409016D01*
X91715061Y-94409016D02*
X91605587Y-94518490D01*
X91605587Y-94518490D02*
X91526903Y-94542437D01*
X91526903Y-94542437D02*
X91424271Y-94535595D01*
X91424271Y-94535595D02*
X91301114Y-94439806D01*
X91301114Y-94439806D02*
X91133482Y-94224280D01*
X91133482Y-94224280D02*
X91065061Y-94073753D01*
X91065061Y-94073753D02*
X91071903Y-93957438D01*
X91071903Y-93957438D02*
X91102693Y-93871911D01*
X91513219Y-93461385D02*
X91841640Y-93132964D01*
X92180324Y-93943753D02*
X91677429Y-93297175D01*
X77488829Y-55449858D02*
X77545890Y-55438110D01*
X77545890Y-55438110D02*
X77636471Y-55445715D01*
X77636471Y-55445715D02*
X77804068Y-55542477D01*
X77804068Y-55542477D02*
X77847564Y-55612282D01*
X77847564Y-55612282D02*
X77857541Y-55662734D01*
X77857541Y-55662734D02*
X77843976Y-55744287D01*
X77843976Y-55744287D02*
X77796891Y-55806488D01*
X77796891Y-55806488D02*
X77692745Y-55880436D01*
X77692745Y-55880436D02*
X77008006Y-56021411D01*
X77008006Y-56021411D02*
X77443757Y-56272992D01*
X78376696Y-56185931D02*
X78047104Y-56621334D01*
X78397438Y-55840367D02*
X77876707Y-56210109D01*
X77876707Y-56210109D02*
X78312458Y-56461690D01*
X78809647Y-56123048D02*
X78549894Y-56911620D01*
X78549894Y-56911620D02*
X79278917Y-56393981D01*
X86923110Y-78841095D02*
X87325342Y-78608866D01*
X87442638Y-79479686D02*
X87124226Y-78724981D01*
X87694054Y-78395990D02*
X87761093Y-78357286D01*
X87761093Y-78357286D02*
X87843294Y-78354519D01*
X87843294Y-78354519D02*
X87891976Y-78371105D01*
X87891976Y-78371105D02*
X87955820Y-78423629D01*
X87955820Y-78423629D02*
X88049989Y-78548030D01*
X88049989Y-78548030D02*
X88125801Y-78727722D01*
X88125801Y-78727722D02*
X88152932Y-78890828D01*
X88152932Y-78890828D02*
X88149738Y-78982057D01*
X88149738Y-78982057D02*
X88131381Y-79037348D01*
X88131381Y-79037348D02*
X88079505Y-79111991D01*
X88079505Y-79111991D02*
X88012466Y-79150696D01*
X88012466Y-79150696D02*
X87930265Y-79153462D01*
X87930265Y-79153462D02*
X87881583Y-79136876D01*
X87881583Y-79136876D02*
X87817739Y-79084352D01*
X87817739Y-79084352D02*
X87723570Y-78959951D01*
X87723570Y-78959951D02*
X87647757Y-78780259D01*
X87647757Y-78780259D02*
X87620627Y-78617153D01*
X87620627Y-78617153D02*
X87623821Y-78525924D01*
X87623821Y-78525924D02*
X87642178Y-78470633D01*
X87642178Y-78470633D02*
X87694054Y-78395990D01*
X87577391Y-79974343D02*
X87979623Y-79742114D01*
X88096919Y-80612934D02*
X87778507Y-79858229D01*
X88901382Y-80148477D02*
X88499151Y-80380706D01*
X88700266Y-80264591D02*
X88381855Y-79509886D01*
X88381855Y-79509886D02*
X88360303Y-79656406D01*
X88360303Y-79656406D02*
X88323590Y-79766987D01*
X88323590Y-79766987D02*
X88271714Y-79841630D01*
X84112198Y-81597867D02*
X84547949Y-81346286D01*
X84547949Y-81346286D02*
X84434613Y-81769260D01*
X84434613Y-81769260D02*
X84535171Y-81711202D01*
X84535171Y-81711202D02*
X84617372Y-81708436D01*
X84617372Y-81708436D02*
X84666054Y-81725022D01*
X84666054Y-81725022D02*
X84729898Y-81777546D01*
X84729898Y-81777546D02*
X84805711Y-81957238D01*
X84805711Y-81957238D02*
X84802516Y-82048467D01*
X84802516Y-82048467D02*
X84784159Y-82103758D01*
X84784159Y-82103758D02*
X84732283Y-82178401D01*
X84732283Y-82178401D02*
X84531167Y-82294515D01*
X84531167Y-82294515D02*
X84448966Y-82297282D01*
X84448966Y-82297282D02*
X84400285Y-82280696D01*
X84749064Y-81230172D02*
X85302111Y-81849411D01*
X85302111Y-81849411D02*
X85218335Y-80959239D01*
X85385931Y-80862477D02*
X85821682Y-80610896D01*
X85821682Y-80610896D02*
X85708347Y-81033869D01*
X85708347Y-81033869D02*
X85808905Y-80975812D01*
X85808905Y-80975812D02*
X85891106Y-80973046D01*
X85891106Y-80973046D02*
X85939788Y-80989632D01*
X85939788Y-80989632D02*
X86003632Y-81042156D01*
X86003632Y-81042156D02*
X86079444Y-81221848D01*
X86079444Y-81221848D02*
X86076250Y-81313077D01*
X86076250Y-81313077D02*
X86057893Y-81368367D01*
X86057893Y-81368367D02*
X86006017Y-81443011D01*
X86006017Y-81443011D02*
X85804901Y-81559125D01*
X85804901Y-81559125D02*
X85722700Y-81561891D01*
X85722700Y-81561891D02*
X85674018Y-81545305D01*
X64953367Y-83356571D02*
X64914663Y-83313028D01*
X64914663Y-83313028D02*
X64875958Y-83192075D01*
X64875958Y-83192075D02*
X64875958Y-83114666D01*
X64875958Y-83114666D02*
X64914663Y-83003390D01*
X64914663Y-83003390D02*
X64992072Y-82935656D01*
X64992072Y-82935656D02*
X65069482Y-82906628D01*
X65069482Y-82906628D02*
X65224301Y-82887275D01*
X65224301Y-82887275D02*
X65340415Y-82901790D01*
X65340415Y-82901790D02*
X65495234Y-82959847D01*
X65495234Y-82959847D02*
X65572643Y-83008228D01*
X65572643Y-83008228D02*
X65650053Y-83095313D01*
X65650053Y-83095313D02*
X65688758Y-83216266D01*
X65688758Y-83216266D02*
X65688758Y-83293675D01*
X65688758Y-83293675D02*
X65650053Y-83404952D01*
X65650053Y-83404952D02*
X65611348Y-83438818D01*
X65108186Y-83685561D02*
X65108186Y-84072609D01*
X64875958Y-83579123D02*
X65688758Y-83951656D01*
X65688758Y-83951656D02*
X64875958Y-84120990D01*
X64875958Y-84391923D02*
X65688758Y-84493523D01*
X65688758Y-84493523D02*
X64875958Y-84856380D01*
X64875958Y-84856380D02*
X65688758Y-84957980D01*
X64875958Y-85243428D02*
X65688758Y-85345028D01*
X65301710Y-85296647D02*
X65301710Y-85761104D01*
X64875958Y-85707885D02*
X65688758Y-85809485D01*
X63644805Y-83453333D02*
X63606101Y-83409790D01*
X63606101Y-83409790D02*
X63567396Y-83288837D01*
X63567396Y-83288837D02*
X63567396Y-83211428D01*
X63567396Y-83211428D02*
X63606101Y-83100152D01*
X63606101Y-83100152D02*
X63683510Y-83032418D01*
X63683510Y-83032418D02*
X63760920Y-83003390D01*
X63760920Y-83003390D02*
X63915739Y-82984037D01*
X63915739Y-82984037D02*
X64031853Y-82998552D01*
X64031853Y-82998552D02*
X64186672Y-83056609D01*
X64186672Y-83056609D02*
X64264081Y-83104990D01*
X64264081Y-83104990D02*
X64341491Y-83192075D01*
X64341491Y-83192075D02*
X64380196Y-83313028D01*
X64380196Y-83313028D02*
X64380196Y-83390437D01*
X64380196Y-83390437D02*
X64341491Y-83501714D01*
X64341491Y-83501714D02*
X64302786Y-83535580D01*
X63799624Y-83782323D02*
X63799624Y-84169371D01*
X63567396Y-83675885D02*
X64380196Y-84048418D01*
X64380196Y-84048418D02*
X63567396Y-84217752D01*
X63567396Y-84488685D02*
X64380196Y-84590285D01*
X64380196Y-84590285D02*
X63567396Y-84953142D01*
X63567396Y-84953142D02*
X64380196Y-85054742D01*
X63567396Y-85727238D02*
X63567396Y-85340190D01*
X63567396Y-85340190D02*
X64380196Y-85441790D01*
X62508508Y-63357352D02*
X62469803Y-63429923D01*
X62469803Y-63429923D02*
X62469803Y-63546037D01*
X62469803Y-63546037D02*
X62508508Y-63666990D01*
X62508508Y-63666990D02*
X62585918Y-63754075D01*
X62585918Y-63754075D02*
X62663327Y-63802456D01*
X62663327Y-63802456D02*
X62818146Y-63860513D01*
X62818146Y-63860513D02*
X62934260Y-63875028D01*
X62934260Y-63875028D02*
X63089079Y-63855675D01*
X63089079Y-63855675D02*
X63166489Y-63826647D01*
X63166489Y-63826647D02*
X63243899Y-63758913D01*
X63243899Y-63758913D02*
X63282603Y-63647637D01*
X63282603Y-63647637D02*
X63282603Y-63570228D01*
X63282603Y-63570228D02*
X63243899Y-63449275D01*
X63243899Y-63449275D02*
X63205194Y-63405732D01*
X63205194Y-63405732D02*
X62934260Y-63371866D01*
X62934260Y-63371866D02*
X62934260Y-63526685D01*
X63282603Y-63067066D02*
X62469803Y-62965466D01*
X62469803Y-62965466D02*
X63282603Y-62602609D01*
X63282603Y-62602609D02*
X62469803Y-62501009D01*
X63282603Y-62215561D02*
X62469803Y-62113961D01*
X62469803Y-62113961D02*
X62469803Y-61920437D01*
X62469803Y-61920437D02*
X62508508Y-61809161D01*
X62508508Y-61809161D02*
X62585918Y-61741427D01*
X62585918Y-61741427D02*
X62663327Y-61712399D01*
X62663327Y-61712399D02*
X62818146Y-61693047D01*
X62818146Y-61693047D02*
X62934260Y-61707561D01*
X62934260Y-61707561D02*
X63089079Y-61765618D01*
X63089079Y-61765618D02*
X63166489Y-61813999D01*
X63166489Y-61813999D02*
X63243899Y-61901085D01*
X63243899Y-61901085D02*
X63282603Y-62022037D01*
X63282603Y-62022037D02*
X63282603Y-62215561D01*
X73906359Y-87219862D02*
X74022080Y-87197744D01*
X74022080Y-87197744D02*
X74189676Y-87100982D01*
X74189676Y-87100982D02*
X74241552Y-87026338D01*
X74241552Y-87026338D02*
X74259909Y-86971048D01*
X74259909Y-86971048D02*
X74263104Y-86879819D01*
X74263104Y-86879819D02*
X74232779Y-86807942D01*
X74232779Y-86807942D02*
X74168934Y-86755418D01*
X74168934Y-86755418D02*
X74120253Y-86738832D01*
X74120253Y-86738832D02*
X74038052Y-86741598D01*
X74038052Y-86741598D02*
X73888812Y-86783069D01*
X73888812Y-86783069D02*
X73806611Y-86785836D01*
X73806611Y-86785836D02*
X73757929Y-86769250D01*
X73757929Y-86769250D02*
X73694085Y-86716725D01*
X73694085Y-86716725D02*
X73663760Y-86644849D01*
X73663760Y-86644849D02*
X73666954Y-86553620D01*
X73666954Y-86553620D02*
X73685311Y-86498329D01*
X73685311Y-86498329D02*
X73737187Y-86423686D01*
X73737187Y-86423686D02*
X73904784Y-86326924D01*
X73904784Y-86326924D02*
X74020504Y-86304805D01*
X74239977Y-86133400D02*
X74675728Y-85881819D01*
X74675728Y-85881819D02*
X74562392Y-86304793D01*
X74562392Y-86304793D02*
X74662950Y-86246735D01*
X74662950Y-86246735D02*
X74745151Y-86243969D01*
X74745151Y-86243969D02*
X74793833Y-86260555D01*
X74793833Y-86260555D02*
X74857677Y-86313079D01*
X74857677Y-86313079D02*
X74933490Y-86492771D01*
X74933490Y-86492771D02*
X74930295Y-86584000D01*
X74930295Y-86584000D02*
X74911938Y-86639291D01*
X74911938Y-86639291D02*
X74860062Y-86713934D01*
X74860062Y-86713934D02*
X74658946Y-86830048D01*
X74658946Y-86830048D02*
X74576745Y-86832815D01*
X74576745Y-86832815D02*
X74528063Y-86816229D01*
X74560640Y-88353110D02*
X74676361Y-88330992D01*
X74676361Y-88330992D02*
X74843957Y-88234230D01*
X74843957Y-88234230D02*
X74895833Y-88159586D01*
X74895833Y-88159586D02*
X74914190Y-88104296D01*
X74914190Y-88104296D02*
X74917385Y-88013067D01*
X74917385Y-88013067D02*
X74887060Y-87941190D01*
X74887060Y-87941190D02*
X74823215Y-87888666D01*
X74823215Y-87888666D02*
X74774534Y-87872080D01*
X74774534Y-87872080D02*
X74692333Y-87874846D01*
X74692333Y-87874846D02*
X74543093Y-87916317D01*
X74543093Y-87916317D02*
X74460892Y-87919084D01*
X74460892Y-87919084D02*
X74412210Y-87902498D01*
X74412210Y-87902498D02*
X74348366Y-87849973D01*
X74348366Y-87849973D02*
X74318041Y-87778097D01*
X74318041Y-87778097D02*
X74321235Y-87686868D01*
X74321235Y-87686868D02*
X74339592Y-87631577D01*
X74339592Y-87631577D02*
X74391468Y-87556934D01*
X74391468Y-87556934D02*
X74559065Y-87460172D01*
X74559065Y-87460172D02*
X74674785Y-87438053D01*
X75369107Y-87305340D02*
X75581382Y-87808477D01*
X75080211Y-87114595D02*
X75140051Y-87750433D01*
X75140051Y-87750433D02*
X75575802Y-87498852D01*
X87137445Y-89089718D02*
X87219647Y-89086951D01*
X87219647Y-89086951D02*
X87320204Y-89028894D01*
X87320204Y-89028894D02*
X87405600Y-88934898D01*
X87405600Y-88934898D02*
X87442314Y-88824317D01*
X87442314Y-88824317D02*
X87445508Y-88733088D01*
X87445508Y-88733088D02*
X87418377Y-88569982D01*
X87418377Y-88569982D02*
X87372890Y-88462167D01*
X87372890Y-88462167D02*
X87278721Y-88337766D01*
X87278721Y-88337766D02*
X87214877Y-88285242D01*
X87214877Y-88285242D02*
X87117513Y-88252070D01*
X87117513Y-88252070D02*
X87001793Y-88274189D01*
X87001793Y-88274189D02*
X86934754Y-88312893D01*
X86934754Y-88312893D02*
X86849359Y-88406889D01*
X86849359Y-88406889D02*
X86831002Y-88462180D01*
X86831002Y-88462180D02*
X86937139Y-88713748D01*
X86937139Y-88713748D02*
X87071216Y-88636338D01*
X86499003Y-88564474D02*
X86817415Y-89319180D01*
X86817415Y-89319180D02*
X86096771Y-88796703D01*
X86096771Y-88796703D02*
X86415183Y-89551408D01*
X85761578Y-88990227D02*
X86079990Y-89744932D01*
X86079990Y-89744932D02*
X85912393Y-89841694D01*
X85912393Y-89841694D02*
X85796673Y-89863813D01*
X85796673Y-89863813D02*
X85699309Y-89830641D01*
X85699309Y-89830641D02*
X85635465Y-89778117D01*
X85635465Y-89778117D02*
X85541296Y-89653716D01*
X85541296Y-89653716D02*
X85495809Y-89545900D01*
X85495809Y-89545900D02*
X85468678Y-89382795D01*
X85468678Y-89382795D02*
X85471872Y-89291566D01*
X85471872Y-89291566D02*
X85508586Y-89180984D01*
X85508586Y-89180984D02*
X85593982Y-89086989D01*
X85593982Y-89086989D02*
X85761578Y-88990227D01*
D11*
X72519580Y-98081792D02*
X72567200Y-98129411D01*
X72567200Y-98129411D02*
X72614819Y-98272268D01*
X72614819Y-98272268D02*
X72614819Y-98367506D01*
X72614819Y-98367506D02*
X72567200Y-98510363D01*
X72567200Y-98510363D02*
X72471961Y-98605601D01*
X72471961Y-98605601D02*
X72376723Y-98653220D01*
X72376723Y-98653220D02*
X72186247Y-98700839D01*
X72186247Y-98700839D02*
X72043390Y-98700839D01*
X72043390Y-98700839D02*
X71852914Y-98653220D01*
X71852914Y-98653220D02*
X71757676Y-98605601D01*
X71757676Y-98605601D02*
X71662438Y-98510363D01*
X71662438Y-98510363D02*
X71614819Y-98367506D01*
X71614819Y-98367506D02*
X71614819Y-98272268D01*
X71614819Y-98272268D02*
X71662438Y-98129411D01*
X71662438Y-98129411D02*
X71710057Y-98081792D01*
X72614819Y-97129411D02*
X72614819Y-97700839D01*
X72614819Y-97415125D02*
X71614819Y-97415125D01*
X71614819Y-97415125D02*
X71757676Y-97510363D01*
X71757676Y-97510363D02*
X71852914Y-97605601D01*
X71852914Y-97605601D02*
X71900533Y-97700839D01*
X71614819Y-96796077D02*
X71614819Y-96177030D01*
X71614819Y-96177030D02*
X71995771Y-96510363D01*
X71995771Y-96510363D02*
X71995771Y-96367506D01*
X71995771Y-96367506D02*
X72043390Y-96272268D01*
X72043390Y-96272268D02*
X72091009Y-96224649D01*
X72091009Y-96224649D02*
X72186247Y-96177030D01*
X72186247Y-96177030D02*
X72424342Y-96177030D01*
X72424342Y-96177030D02*
X72519580Y-96224649D01*
X72519580Y-96224649D02*
X72567200Y-96272268D01*
X72567200Y-96272268D02*
X72614819Y-96367506D01*
X72614819Y-96367506D02*
X72614819Y-96653220D01*
X72614819Y-96653220D02*
X72567200Y-96748458D01*
X72567200Y-96748458D02*
X72519580Y-96796077D01*
X56210453Y-59733155D02*
X56193023Y-59798204D01*
X56193023Y-59798204D02*
X56093115Y-59910872D01*
X56093115Y-59910872D02*
X56010636Y-59958491D01*
X56010636Y-59958491D02*
X55863109Y-59988680D01*
X55863109Y-59988680D02*
X55733011Y-59953820D01*
X55733011Y-59953820D02*
X55644153Y-59895151D01*
X55644153Y-59895151D02*
X55507675Y-59754004D01*
X55507675Y-59754004D02*
X55436247Y-59630286D01*
X55436247Y-59630286D02*
X55382248Y-59441519D01*
X55382248Y-59441519D02*
X55375868Y-59335231D01*
X55375868Y-59335231D02*
X55410728Y-59205133D01*
X55410728Y-59205133D02*
X55510636Y-59092465D01*
X55510636Y-59092465D02*
X55593115Y-59044846D01*
X55593115Y-59044846D02*
X55740642Y-59014657D01*
X55740642Y-59014657D02*
X55805691Y-59032087D01*
X56135605Y-58841610D02*
X56153035Y-58776562D01*
X56153035Y-58776562D02*
X56211704Y-58687703D01*
X56211704Y-58687703D02*
X56417901Y-58568656D01*
X56417901Y-58568656D02*
X56524189Y-58562276D01*
X56524189Y-58562276D02*
X56589238Y-58579706D01*
X56589238Y-58579706D02*
X56678096Y-58638375D01*
X56678096Y-58638375D02*
X56725715Y-58720853D01*
X56725715Y-58720853D02*
X56755904Y-58868381D01*
X56755904Y-58868381D02*
X56546747Y-59648967D01*
X56546747Y-59648967D02*
X57082858Y-59339443D01*
X69310872Y-96569657D02*
X69245823Y-96587086D01*
X69245823Y-96587086D02*
X69098296Y-96556897D01*
X69098296Y-96556897D02*
X69015817Y-96509278D01*
X69015817Y-96509278D02*
X68915909Y-96396610D01*
X68915909Y-96396610D02*
X68881049Y-96266513D01*
X68881049Y-96266513D02*
X68887429Y-96160224D01*
X68887429Y-96160224D02*
X68941428Y-95971458D01*
X68941428Y-95971458D02*
X69012856Y-95847740D01*
X69012856Y-95847740D02*
X69149334Y-95706592D01*
X69149334Y-95706592D02*
X69238192Y-95647923D01*
X69238192Y-95647923D02*
X69368290Y-95613063D01*
X69368290Y-95613063D02*
X69515817Y-95643253D01*
X69515817Y-95643253D02*
X69598296Y-95690872D01*
X69598296Y-95690872D02*
X69698204Y-95803540D01*
X69698204Y-95803540D02*
X69715634Y-95868588D01*
X70338894Y-96503356D02*
X70005560Y-97080707D01*
X70323173Y-96054394D02*
X69759834Y-96553936D01*
X69759834Y-96553936D02*
X70295945Y-96863460D01*
X84808333Y-100484580D02*
X84760714Y-100532200D01*
X84760714Y-100532200D02*
X84617857Y-100579819D01*
X84617857Y-100579819D02*
X84522619Y-100579819D01*
X84522619Y-100579819D02*
X84379762Y-100532200D01*
X84379762Y-100532200D02*
X84284524Y-100436961D01*
X84284524Y-100436961D02*
X84236905Y-100341723D01*
X84236905Y-100341723D02*
X84189286Y-100151247D01*
X84189286Y-100151247D02*
X84189286Y-100008390D01*
X84189286Y-100008390D02*
X84236905Y-99817914D01*
X84236905Y-99817914D02*
X84284524Y-99722676D01*
X84284524Y-99722676D02*
X84379762Y-99627438D01*
X84379762Y-99627438D02*
X84522619Y-99579819D01*
X84522619Y-99579819D02*
X84617857Y-99579819D01*
X84617857Y-99579819D02*
X84760714Y-99627438D01*
X84760714Y-99627438D02*
X84808333Y-99675057D01*
X85713095Y-99579819D02*
X85236905Y-99579819D01*
X85236905Y-99579819D02*
X85189286Y-100056009D01*
X85189286Y-100056009D02*
X85236905Y-100008390D01*
X85236905Y-100008390D02*
X85332143Y-99960771D01*
X85332143Y-99960771D02*
X85570238Y-99960771D01*
X85570238Y-99960771D02*
X85665476Y-100008390D01*
X85665476Y-100008390D02*
X85713095Y-100056009D01*
X85713095Y-100056009D02*
X85760714Y-100151247D01*
X85760714Y-100151247D02*
X85760714Y-100389342D01*
X85760714Y-100389342D02*
X85713095Y-100484580D01*
X85713095Y-100484580D02*
X85665476Y-100532200D01*
X85665476Y-100532200D02*
X85570238Y-100579819D01*
X85570238Y-100579819D02*
X85332143Y-100579819D01*
X85332143Y-100579819D02*
X85236905Y-100532200D01*
X85236905Y-100532200D02*
X85189286Y-100484580D01*
X84808333Y-99009580D02*
X84760714Y-99057200D01*
X84760714Y-99057200D02*
X84617857Y-99104819D01*
X84617857Y-99104819D02*
X84522619Y-99104819D01*
X84522619Y-99104819D02*
X84379762Y-99057200D01*
X84379762Y-99057200D02*
X84284524Y-98961961D01*
X84284524Y-98961961D02*
X84236905Y-98866723D01*
X84236905Y-98866723D02*
X84189286Y-98676247D01*
X84189286Y-98676247D02*
X84189286Y-98533390D01*
X84189286Y-98533390D02*
X84236905Y-98342914D01*
X84236905Y-98342914D02*
X84284524Y-98247676D01*
X84284524Y-98247676D02*
X84379762Y-98152438D01*
X84379762Y-98152438D02*
X84522619Y-98104819D01*
X84522619Y-98104819D02*
X84617857Y-98104819D01*
X84617857Y-98104819D02*
X84760714Y-98152438D01*
X84760714Y-98152438D02*
X84808333Y-98200057D01*
X85141667Y-98104819D02*
X85808333Y-98104819D01*
X85808333Y-98104819D02*
X85379762Y-99104819D01*
X65390859Y-90357804D02*
X65340279Y-89778744D01*
X64895988Y-90072089D02*
X65395988Y-89206064D01*
X65395988Y-89206064D02*
X65725902Y-89396540D01*
X65725902Y-89396540D02*
X65784571Y-89485399D01*
X65784571Y-89485399D02*
X65802001Y-89550447D01*
X65802001Y-89550447D02*
X65795621Y-89656736D01*
X65795621Y-89656736D02*
X65724193Y-89780453D01*
X65724193Y-89780453D02*
X65635334Y-89839123D01*
X65635334Y-89839123D02*
X65570285Y-89856552D01*
X65570285Y-89856552D02*
X65463997Y-89850173D01*
X65463997Y-89850173D02*
X65134083Y-89659696D01*
X66215645Y-90833994D02*
X65720774Y-90548280D01*
X65968210Y-90691137D02*
X66468210Y-89825112D01*
X66468210Y-89825112D02*
X66314302Y-89901211D01*
X66314302Y-89901211D02*
X66184205Y-89936070D01*
X66184205Y-89936070D02*
X66077917Y-89929690D01*
X67040432Y-91310185D02*
X66545560Y-91024470D01*
X66792996Y-91167328D02*
X67292996Y-90301302D01*
X67292996Y-90301302D02*
X67139089Y-90377401D01*
X67139089Y-90377401D02*
X67008991Y-90412261D01*
X67008991Y-90412261D02*
X66902703Y-90405881D01*
X86737139Y-55953724D02*
X86669795Y-55953724D01*
X86669795Y-55953724D02*
X86535108Y-55886380D01*
X86535108Y-55886380D02*
X86467765Y-55819037D01*
X86467765Y-55819037D02*
X86400421Y-55684350D01*
X86400421Y-55684350D02*
X86400421Y-55549663D01*
X86400421Y-55549663D02*
X86434093Y-55448648D01*
X86434093Y-55448648D02*
X86535108Y-55280289D01*
X86535108Y-55280289D02*
X86636123Y-55179274D01*
X86636123Y-55179274D02*
X86804482Y-55078258D01*
X86804482Y-55078258D02*
X86905497Y-55044587D01*
X86905497Y-55044587D02*
X87040184Y-55044587D01*
X87040184Y-55044587D02*
X87174871Y-55111930D01*
X87174871Y-55111930D02*
X87242215Y-55179274D01*
X87242215Y-55179274D02*
X87309558Y-55313961D01*
X87309558Y-55313961D02*
X87309558Y-55381304D01*
X88016665Y-55953724D02*
X87679948Y-55617006D01*
X87679948Y-55617006D02*
X87309558Y-55920052D01*
X87309558Y-55920052D02*
X87376902Y-55920052D01*
X87376902Y-55920052D02*
X87477917Y-55953724D01*
X87477917Y-55953724D02*
X87646276Y-56122083D01*
X87646276Y-56122083D02*
X87679948Y-56223098D01*
X87679948Y-56223098D02*
X87679948Y-56290441D01*
X87679948Y-56290441D02*
X87646276Y-56391457D01*
X87646276Y-56391457D02*
X87477917Y-56559815D01*
X87477917Y-56559815D02*
X87376902Y-56593487D01*
X87376902Y-56593487D02*
X87309558Y-56593487D01*
X87309558Y-56593487D02*
X87208543Y-56559815D01*
X87208543Y-56559815D02*
X87040184Y-56391457D01*
X87040184Y-56391457D02*
X87006513Y-56290441D01*
X87006513Y-56290441D02*
X87006513Y-56223098D01*
X88016665Y-57367938D02*
X87612604Y-56963877D01*
X87814635Y-57165907D02*
X88521742Y-56458800D01*
X88521742Y-56458800D02*
X88353383Y-56492472D01*
X88353383Y-56492472D02*
X88218696Y-56492472D01*
X88218696Y-56492472D02*
X88117681Y-56458800D01*
X57628253Y-104755415D02*
X57577673Y-104176356D01*
X57133381Y-104469701D02*
X57633381Y-103603676D01*
X57633381Y-103603676D02*
X57963296Y-103794152D01*
X57963296Y-103794152D02*
X58021965Y-103883010D01*
X58021965Y-103883010D02*
X58039394Y-103948059D01*
X58039394Y-103948059D02*
X58033015Y-104054347D01*
X58033015Y-104054347D02*
X57961586Y-104178065D01*
X57961586Y-104178065D02*
X57872728Y-104236734D01*
X57872728Y-104236734D02*
X57807679Y-104254164D01*
X57807679Y-104254164D02*
X57701391Y-104247784D01*
X57701391Y-104247784D02*
X57371476Y-104057308D01*
X58911800Y-104341771D02*
X58499407Y-104103676D01*
X58499407Y-104103676D02*
X58220072Y-104492259D01*
X58220072Y-104492259D02*
X58285121Y-104474829D01*
X58285121Y-104474829D02*
X58391409Y-104481209D01*
X58391409Y-104481209D02*
X58597606Y-104600257D01*
X58597606Y-104600257D02*
X58656275Y-104689115D01*
X58656275Y-104689115D02*
X58673704Y-104754164D01*
X58673704Y-104754164D02*
X58667325Y-104860452D01*
X58667325Y-104860452D02*
X58548277Y-105066649D01*
X58548277Y-105066649D02*
X58459419Y-105125318D01*
X58459419Y-105125318D02*
X58394370Y-105142747D01*
X58394370Y-105142747D02*
X58288082Y-105136368D01*
X58288082Y-105136368D02*
X58081885Y-105017320D01*
X58081885Y-105017320D02*
X58023216Y-104928462D01*
X58023216Y-104928462D02*
X58005786Y-104863413D01*
X94672761Y-95144166D02*
X95177837Y-95649242D01*
X95177837Y-95649242D02*
X95245181Y-95783929D01*
X95245181Y-95783929D02*
X95245181Y-95918616D01*
X95245181Y-95918616D02*
X95177837Y-96053303D01*
X95177837Y-96053303D02*
X95110494Y-96120647D01*
X96086975Y-95144166D02*
X95682914Y-95548227D01*
X95884944Y-95346196D02*
X95177837Y-94639089D01*
X95177837Y-94639089D02*
X95211509Y-94807448D01*
X95211509Y-94807448D02*
X95211509Y-94942135D01*
X95211509Y-94942135D02*
X95177837Y-95043150D01*
X52675453Y-49789816D02*
X52658023Y-49854865D01*
X52658023Y-49854865D02*
X52558115Y-49967533D01*
X52558115Y-49967533D02*
X52475636Y-50015152D01*
X52475636Y-50015152D02*
X52328109Y-50045341D01*
X52328109Y-50045341D02*
X52198011Y-50010481D01*
X52198011Y-50010481D02*
X52109153Y-49951812D01*
X52109153Y-49951812D02*
X51972675Y-49810665D01*
X51972675Y-49810665D02*
X51901247Y-49686947D01*
X51901247Y-49686947D02*
X51847248Y-49498180D01*
X51847248Y-49498180D02*
X51840868Y-49391892D01*
X51840868Y-49391892D02*
X51875728Y-49261794D01*
X51875728Y-49261794D02*
X51975636Y-49149126D01*
X51975636Y-49149126D02*
X52058115Y-49101507D01*
X52058115Y-49101507D02*
X52205642Y-49071318D01*
X52205642Y-49071318D02*
X52270691Y-49088748D01*
X53547858Y-49396104D02*
X53052986Y-49681818D01*
X53300422Y-49538961D02*
X52800422Y-48672936D01*
X52800422Y-48672936D02*
X52789372Y-48844273D01*
X52789372Y-48844273D02*
X52754513Y-48974370D01*
X52754513Y-48974370D02*
X52695843Y-49063229D01*
X51053117Y-87322986D02*
X50996960Y-87285816D01*
X50996960Y-87285816D02*
X50921816Y-87155321D01*
X50921816Y-87155321D02*
X50902828Y-87061995D01*
X50902828Y-87061995D02*
X50921010Y-86912512D01*
X50921010Y-86912512D02*
X50995349Y-86800198D01*
X50995349Y-86800198D02*
X51079181Y-86734548D01*
X51079181Y-86734548D02*
X51256340Y-86649910D01*
X51256340Y-86649910D02*
X51396329Y-86621429D01*
X51396329Y-86621429D02*
X51592475Y-86630117D01*
X51592475Y-86630117D02*
X51695295Y-86657792D01*
X51695295Y-86657792D02*
X51807609Y-86732131D01*
X51807609Y-86732131D02*
X51882753Y-86862627D01*
X51882753Y-86862627D02*
X51901740Y-86955953D01*
X51901740Y-86955953D02*
X51883559Y-87105436D01*
X51883559Y-87105436D02*
X51846389Y-87161593D01*
X51922339Y-87534897D02*
X51978496Y-87572067D01*
X51978496Y-87572067D02*
X52044146Y-87655899D01*
X52044146Y-87655899D02*
X52091615Y-87889214D01*
X52091615Y-87889214D02*
X52063939Y-87992034D01*
X52063939Y-87992034D02*
X52026770Y-88048191D01*
X52026770Y-88048191D02*
X51942937Y-88113842D01*
X51942937Y-88113842D02*
X51849611Y-88132829D01*
X51849611Y-88132829D02*
X51700128Y-88114647D01*
X51700128Y-88114647D02*
X51026247Y-87668615D01*
X51026247Y-87668615D02*
X51149665Y-88275235D01*
X52196046Y-88402508D02*
X52319464Y-89009128D01*
X52319464Y-89009128D02*
X51879703Y-88758437D01*
X51879703Y-88758437D02*
X51908184Y-88898426D01*
X51908184Y-88898426D02*
X51880509Y-89001246D01*
X51880509Y-89001246D02*
X51843339Y-89057402D01*
X51843339Y-89057402D02*
X51759507Y-89123053D01*
X51759507Y-89123053D02*
X51526191Y-89170522D01*
X51526191Y-89170522D02*
X51423372Y-89142846D01*
X51423372Y-89142846D02*
X51367215Y-89105677D01*
X51367215Y-89105677D02*
X51301564Y-89021844D01*
X51301564Y-89021844D02*
X51244602Y-88741866D01*
X51244602Y-88741866D02*
X51272278Y-88639046D01*
X51272278Y-88639046D02*
X51309447Y-88582889D01*
X87233333Y-101959580D02*
X87185714Y-102007200D01*
X87185714Y-102007200D02*
X87042857Y-102054819D01*
X87042857Y-102054819D02*
X86947619Y-102054819D01*
X86947619Y-102054819D02*
X86804762Y-102007200D01*
X86804762Y-102007200D02*
X86709524Y-101911961D01*
X86709524Y-101911961D02*
X86661905Y-101816723D01*
X86661905Y-101816723D02*
X86614286Y-101626247D01*
X86614286Y-101626247D02*
X86614286Y-101483390D01*
X86614286Y-101483390D02*
X86661905Y-101292914D01*
X86661905Y-101292914D02*
X86709524Y-101197676D01*
X86709524Y-101197676D02*
X86804762Y-101102438D01*
X86804762Y-101102438D02*
X86947619Y-101054819D01*
X86947619Y-101054819D02*
X87042857Y-101054819D01*
X87042857Y-101054819D02*
X87185714Y-101102438D01*
X87185714Y-101102438D02*
X87233333Y-101150057D01*
X88090476Y-101054819D02*
X87900000Y-101054819D01*
X87900000Y-101054819D02*
X87804762Y-101102438D01*
X87804762Y-101102438D02*
X87757143Y-101150057D01*
X87757143Y-101150057D02*
X87661905Y-101292914D01*
X87661905Y-101292914D02*
X87614286Y-101483390D01*
X87614286Y-101483390D02*
X87614286Y-101864342D01*
X87614286Y-101864342D02*
X87661905Y-101959580D01*
X87661905Y-101959580D02*
X87709524Y-102007200D01*
X87709524Y-102007200D02*
X87804762Y-102054819D01*
X87804762Y-102054819D02*
X87995238Y-102054819D01*
X87995238Y-102054819D02*
X88090476Y-102007200D01*
X88090476Y-102007200D02*
X88138095Y-101959580D01*
X88138095Y-101959580D02*
X88185714Y-101864342D01*
X88185714Y-101864342D02*
X88185714Y-101626247D01*
X88185714Y-101626247D02*
X88138095Y-101531009D01*
X88138095Y-101531009D02*
X88090476Y-101483390D01*
X88090476Y-101483390D02*
X87995238Y-101435771D01*
X87995238Y-101435771D02*
X87804762Y-101435771D01*
X87804762Y-101435771D02*
X87709524Y-101483390D01*
X87709524Y-101483390D02*
X87661905Y-101531009D01*
X87661905Y-101531009D02*
X87614286Y-101626247D01*
X49622427Y-87614063D02*
X49566270Y-87576893D01*
X49566270Y-87576893D02*
X49491126Y-87446398D01*
X49491126Y-87446398D02*
X49472138Y-87353072D01*
X49472138Y-87353072D02*
X49490320Y-87203589D01*
X49490320Y-87203589D02*
X49564659Y-87091275D01*
X49564659Y-87091275D02*
X49648491Y-87025625D01*
X49648491Y-87025625D02*
X49825650Y-86940987D01*
X49825650Y-86940987D02*
X49965639Y-86912506D01*
X49965639Y-86912506D02*
X50161785Y-86921194D01*
X50161785Y-86921194D02*
X50264605Y-86948869D01*
X50264605Y-86948869D02*
X50376919Y-87023208D01*
X50376919Y-87023208D02*
X50452063Y-87153704D01*
X50452063Y-87153704D02*
X50471050Y-87247030D01*
X50471050Y-87247030D02*
X50452869Y-87396513D01*
X50452869Y-87396513D02*
X50415699Y-87452670D01*
X50491649Y-87825974D02*
X50547806Y-87863144D01*
X50547806Y-87863144D02*
X50613456Y-87946976D01*
X50613456Y-87946976D02*
X50660925Y-88180291D01*
X50660925Y-88180291D02*
X50633249Y-88283111D01*
X50633249Y-88283111D02*
X50596080Y-88339268D01*
X50596080Y-88339268D02*
X50512247Y-88404919D01*
X50512247Y-88404919D02*
X50418921Y-88423906D01*
X50418921Y-88423906D02*
X50269438Y-88405724D01*
X50269438Y-88405724D02*
X49595557Y-87959692D01*
X49595557Y-87959692D02*
X49718975Y-88566312D01*
X50822318Y-88973564D02*
X50841305Y-89066890D01*
X50841305Y-89066890D02*
X50813630Y-89169710D01*
X50813630Y-89169710D02*
X50776460Y-89225867D01*
X50776460Y-89225867D02*
X50692628Y-89291517D01*
X50692628Y-89291517D02*
X50515469Y-89376155D01*
X50515469Y-89376155D02*
X50282154Y-89423624D01*
X50282154Y-89423624D02*
X50086008Y-89414935D01*
X50086008Y-89414935D02*
X49983188Y-89387260D01*
X49983188Y-89387260D02*
X49927031Y-89350090D01*
X49927031Y-89350090D02*
X49861380Y-89266258D01*
X49861380Y-89266258D02*
X49842393Y-89172932D01*
X49842393Y-89172932D02*
X49870069Y-89070112D01*
X49870069Y-89070112D02*
X49907238Y-89013955D01*
X49907238Y-89013955D02*
X49991071Y-88948305D01*
X49991071Y-88948305D02*
X50168229Y-88863667D01*
X50168229Y-88863667D02*
X50401545Y-88816198D01*
X50401545Y-88816198D02*
X50597691Y-88824886D01*
X50597691Y-88824886D02*
X50700510Y-88852562D01*
X50700510Y-88852562D02*
X50756667Y-88889731D01*
X50756667Y-88889731D02*
X50822318Y-88973564D01*
X95685003Y-59643992D02*
X96257423Y-60216411D01*
X96257423Y-60216411D02*
X96358438Y-60250083D01*
X96358438Y-60250083D02*
X96425782Y-60250083D01*
X96425782Y-60250083D02*
X96526797Y-60216411D01*
X96526797Y-60216411D02*
X96661484Y-60081724D01*
X96661484Y-60081724D02*
X96695156Y-59980709D01*
X96695156Y-59980709D02*
X96695156Y-59913366D01*
X96695156Y-59913366D02*
X96661484Y-59812350D01*
X96661484Y-59812350D02*
X96089064Y-59239931D01*
X97503278Y-59239931D02*
X97099217Y-59643992D01*
X97301247Y-59441961D02*
X96594140Y-58734854D01*
X96594140Y-58734854D02*
X96627812Y-58903213D01*
X96627812Y-58903213D02*
X96627812Y-59037900D01*
X96627812Y-59037900D02*
X96594140Y-59138915D01*
X97031873Y-58297121D02*
X97469606Y-57859389D01*
X97469606Y-57859389D02*
X97503278Y-58364465D01*
X97503278Y-58364465D02*
X97604293Y-58263450D01*
X97604293Y-58263450D02*
X97705308Y-58229778D01*
X97705308Y-58229778D02*
X97772652Y-58229778D01*
X97772652Y-58229778D02*
X97873667Y-58263450D01*
X97873667Y-58263450D02*
X98042026Y-58431809D01*
X98042026Y-58431809D02*
X98075698Y-58532824D01*
X98075698Y-58532824D02*
X98075698Y-58600167D01*
X98075698Y-58600167D02*
X98042026Y-58701183D01*
X98042026Y-58701183D02*
X97839995Y-58903213D01*
X97839995Y-58903213D02*
X97738980Y-58936885D01*
X97738980Y-58936885D02*
X97671636Y-58936885D01*
X102447142Y-88579580D02*
X102399523Y-88627200D01*
X102399523Y-88627200D02*
X102256666Y-88674819D01*
X102256666Y-88674819D02*
X102161428Y-88674819D01*
X102161428Y-88674819D02*
X102018571Y-88627200D01*
X102018571Y-88627200D02*
X101923333Y-88531961D01*
X101923333Y-88531961D02*
X101875714Y-88436723D01*
X101875714Y-88436723D02*
X101828095Y-88246247D01*
X101828095Y-88246247D02*
X101828095Y-88103390D01*
X101828095Y-88103390D02*
X101875714Y-87912914D01*
X101875714Y-87912914D02*
X101923333Y-87817676D01*
X101923333Y-87817676D02*
X102018571Y-87722438D01*
X102018571Y-87722438D02*
X102161428Y-87674819D01*
X102161428Y-87674819D02*
X102256666Y-87674819D01*
X102256666Y-87674819D02*
X102399523Y-87722438D01*
X102399523Y-87722438D02*
X102447142Y-87770057D01*
X102780476Y-87674819D02*
X103399523Y-87674819D01*
X103399523Y-87674819D02*
X103066190Y-88055771D01*
X103066190Y-88055771D02*
X103209047Y-88055771D01*
X103209047Y-88055771D02*
X103304285Y-88103390D01*
X103304285Y-88103390D02*
X103351904Y-88151009D01*
X103351904Y-88151009D02*
X103399523Y-88246247D01*
X103399523Y-88246247D02*
X103399523Y-88484342D01*
X103399523Y-88484342D02*
X103351904Y-88579580D01*
X103351904Y-88579580D02*
X103304285Y-88627200D01*
X103304285Y-88627200D02*
X103209047Y-88674819D01*
X103209047Y-88674819D02*
X102923333Y-88674819D01*
X102923333Y-88674819D02*
X102828095Y-88627200D01*
X102828095Y-88627200D02*
X102780476Y-88579580D01*
X104256666Y-87674819D02*
X104066190Y-87674819D01*
X104066190Y-87674819D02*
X103970952Y-87722438D01*
X103970952Y-87722438D02*
X103923333Y-87770057D01*
X103923333Y-87770057D02*
X103828095Y-87912914D01*
X103828095Y-87912914D02*
X103780476Y-88103390D01*
X103780476Y-88103390D02*
X103780476Y-88484342D01*
X103780476Y-88484342D02*
X103828095Y-88579580D01*
X103828095Y-88579580D02*
X103875714Y-88627200D01*
X103875714Y-88627200D02*
X103970952Y-88674819D01*
X103970952Y-88674819D02*
X104161428Y-88674819D01*
X104161428Y-88674819D02*
X104256666Y-88627200D01*
X104256666Y-88627200D02*
X104304285Y-88579580D01*
X104304285Y-88579580D02*
X104351904Y-88484342D01*
X104351904Y-88484342D02*
X104351904Y-88246247D01*
X104351904Y-88246247D02*
X104304285Y-88151009D01*
X104304285Y-88151009D02*
X104256666Y-88103390D01*
X104256666Y-88103390D02*
X104161428Y-88055771D01*
X104161428Y-88055771D02*
X103970952Y-88055771D01*
X103970952Y-88055771D02*
X103875714Y-88103390D01*
X103875714Y-88103390D02*
X103828095Y-88151009D01*
X103828095Y-88151009D02*
X103780476Y-88246247D01*
X72000857Y-86763226D02*
X71474087Y-86517500D01*
X71505986Y-87048941D02*
X71005986Y-86182915D01*
X71005986Y-86182915D02*
X71335900Y-85992439D01*
X71335900Y-85992439D02*
X71442188Y-85986059D01*
X71442188Y-85986059D02*
X71507237Y-86003489D01*
X71507237Y-86003489D02*
X71596095Y-86062158D01*
X71596095Y-86062158D02*
X71667524Y-86185876D01*
X71667524Y-86185876D02*
X71673904Y-86292164D01*
X71673904Y-86292164D02*
X71656474Y-86357213D01*
X71656474Y-86357213D02*
X71597805Y-86446071D01*
X71597805Y-86446071D02*
X71267890Y-86636548D01*
X71748293Y-85754344D02*
X72536968Y-86453703D01*
X72536968Y-86453703D02*
X72325643Y-85421011D01*
X72620698Y-85360632D02*
X72638128Y-85295583D01*
X72638128Y-85295583D02*
X72696797Y-85206725D01*
X72696797Y-85206725D02*
X72902994Y-85087677D01*
X72902994Y-85087677D02*
X73009282Y-85081297D01*
X73009282Y-85081297D02*
X73074331Y-85098727D01*
X73074331Y-85098727D02*
X73163189Y-85157396D01*
X73163189Y-85157396D02*
X73210808Y-85239875D01*
X73210808Y-85239875D02*
X73240997Y-85387402D01*
X73240997Y-85387402D02*
X73031840Y-86167988D01*
X73031840Y-86167988D02*
X73567951Y-85858464D01*
X108357142Y-64024819D02*
X108023809Y-63548628D01*
X107785714Y-64024819D02*
X107785714Y-63024819D01*
X107785714Y-63024819D02*
X108166666Y-63024819D01*
X108166666Y-63024819D02*
X108261904Y-63072438D01*
X108261904Y-63072438D02*
X108309523Y-63120057D01*
X108309523Y-63120057D02*
X108357142Y-63215295D01*
X108357142Y-63215295D02*
X108357142Y-63358152D01*
X108357142Y-63358152D02*
X108309523Y-63453390D01*
X108309523Y-63453390D02*
X108261904Y-63501009D01*
X108261904Y-63501009D02*
X108166666Y-63548628D01*
X108166666Y-63548628D02*
X107785714Y-63548628D01*
X108738095Y-63120057D02*
X108785714Y-63072438D01*
X108785714Y-63072438D02*
X108880952Y-63024819D01*
X108880952Y-63024819D02*
X109119047Y-63024819D01*
X109119047Y-63024819D02*
X109214285Y-63072438D01*
X109214285Y-63072438D02*
X109261904Y-63120057D01*
X109261904Y-63120057D02*
X109309523Y-63215295D01*
X109309523Y-63215295D02*
X109309523Y-63310533D01*
X109309523Y-63310533D02*
X109261904Y-63453390D01*
X109261904Y-63453390D02*
X108690476Y-64024819D01*
X108690476Y-64024819D02*
X109309523Y-64024819D01*
X110166666Y-63024819D02*
X109976190Y-63024819D01*
X109976190Y-63024819D02*
X109880952Y-63072438D01*
X109880952Y-63072438D02*
X109833333Y-63120057D01*
X109833333Y-63120057D02*
X109738095Y-63262914D01*
X109738095Y-63262914D02*
X109690476Y-63453390D01*
X109690476Y-63453390D02*
X109690476Y-63834342D01*
X109690476Y-63834342D02*
X109738095Y-63929580D01*
X109738095Y-63929580D02*
X109785714Y-63977200D01*
X109785714Y-63977200D02*
X109880952Y-64024819D01*
X109880952Y-64024819D02*
X110071428Y-64024819D01*
X110071428Y-64024819D02*
X110166666Y-63977200D01*
X110166666Y-63977200D02*
X110214285Y-63929580D01*
X110214285Y-63929580D02*
X110261904Y-63834342D01*
X110261904Y-63834342D02*
X110261904Y-63596247D01*
X110261904Y-63596247D02*
X110214285Y-63501009D01*
X110214285Y-63501009D02*
X110166666Y-63453390D01*
X110166666Y-63453390D02*
X110071428Y-63405771D01*
X110071428Y-63405771D02*
X109880952Y-63405771D01*
X109880952Y-63405771D02*
X109785714Y-63453390D01*
X109785714Y-63453390D02*
X109738095Y-63501009D01*
X109738095Y-63501009D02*
X109690476Y-63596247D01*
X71210760Y-85128367D02*
X71193330Y-85193416D01*
X71193330Y-85193416D02*
X71093421Y-85306084D01*
X71093421Y-85306084D02*
X71010943Y-85353703D01*
X71010943Y-85353703D02*
X70863415Y-85383892D01*
X70863415Y-85383892D02*
X70733318Y-85349032D01*
X70733318Y-85349032D02*
X70644459Y-85290363D01*
X70644459Y-85290363D02*
X70507982Y-85149216D01*
X70507982Y-85149216D02*
X70436553Y-85025498D01*
X70436553Y-85025498D02*
X70382555Y-84836731D01*
X70382555Y-84836731D02*
X70376175Y-84730443D01*
X70376175Y-84730443D02*
X70411034Y-84600345D01*
X70411034Y-84600345D02*
X70510943Y-84487677D01*
X70510943Y-84487677D02*
X70593421Y-84440058D01*
X70593421Y-84440058D02*
X70740949Y-84409869D01*
X70740949Y-84409869D02*
X70805998Y-84427299D01*
X71541925Y-83892439D02*
X71129532Y-84130534D01*
X71129532Y-84130534D02*
X71326388Y-84566737D01*
X71326388Y-84566737D02*
X71343818Y-84501688D01*
X71343818Y-84501688D02*
X71402487Y-84412830D01*
X71402487Y-84412830D02*
X71608684Y-84293782D01*
X71608684Y-84293782D02*
X71714972Y-84287402D01*
X71714972Y-84287402D02*
X71780021Y-84304832D01*
X71780021Y-84304832D02*
X71868879Y-84363501D01*
X71868879Y-84363501D02*
X71987927Y-84569698D01*
X71987927Y-84569698D02*
X71994306Y-84675986D01*
X71994306Y-84675986D02*
X71976877Y-84741035D01*
X71976877Y-84741035D02*
X71918208Y-84829893D01*
X71918208Y-84829893D02*
X71712011Y-84948941D01*
X71712011Y-84948941D02*
X71605723Y-84955320D01*
X71605723Y-84955320D02*
X71540674Y-84937891D01*
X71871840Y-83701963D02*
X72407951Y-83392439D01*
X72407951Y-83392439D02*
X72309752Y-83889020D01*
X72309752Y-83889020D02*
X72433470Y-83817592D01*
X72433470Y-83817592D02*
X72539758Y-83811212D01*
X72539758Y-83811212D02*
X72604807Y-83828642D01*
X72604807Y-83828642D02*
X72693665Y-83887311D01*
X72693665Y-83887311D02*
X72812713Y-84093507D01*
X72812713Y-84093507D02*
X72819093Y-84199795D01*
X72819093Y-84199795D02*
X72801663Y-84264844D01*
X72801663Y-84264844D02*
X72742994Y-84353703D01*
X72742994Y-84353703D02*
X72495558Y-84496560D01*
X72495558Y-84496560D02*
X72389270Y-84502939D01*
X72389270Y-84502939D02*
X72324221Y-84485510D01*
X51097725Y-72821913D02*
X51497900Y-72400335D01*
X50983800Y-72261956D02*
X51963725Y-72062588D01*
X51963725Y-72062588D02*
X52039675Y-72435893D01*
X52039675Y-72435893D02*
X52011999Y-72538713D01*
X52011999Y-72538713D02*
X51974830Y-72594870D01*
X51974830Y-72594870D02*
X51890997Y-72660520D01*
X51890997Y-72660520D02*
X51751008Y-72689001D01*
X51751008Y-72689001D02*
X51648188Y-72661326D01*
X51648188Y-72661326D02*
X51592031Y-72624156D01*
X51592031Y-72624156D02*
X51526381Y-72540324D01*
X51526381Y-72540324D02*
X51450431Y-72167019D01*
X52060273Y-73014837D02*
X52116430Y-73052007D01*
X52116430Y-73052007D02*
X52182080Y-73135839D01*
X52182080Y-73135839D02*
X52229549Y-73369155D01*
X52229549Y-73369155D02*
X52201873Y-73471974D01*
X52201873Y-73471974D02*
X52164704Y-73528131D01*
X52164704Y-73528131D02*
X52080872Y-73593782D01*
X52080872Y-73593782D02*
X51987545Y-73612769D01*
X51987545Y-73612769D02*
X51838062Y-73594587D01*
X51838062Y-73594587D02*
X51164181Y-73148555D01*
X51164181Y-73148555D02*
X51287599Y-73755175D01*
X52333980Y-73882448D02*
X52457398Y-74489069D01*
X52457398Y-74489069D02*
X52017638Y-74238377D01*
X52017638Y-74238377D02*
X52046119Y-74378366D01*
X52046119Y-74378366D02*
X52018443Y-74481186D01*
X52018443Y-74481186D02*
X51981274Y-74537343D01*
X51981274Y-74537343D02*
X51897441Y-74602993D01*
X51897441Y-74602993D02*
X51664126Y-74650462D01*
X51664126Y-74650462D02*
X51561306Y-74622786D01*
X51561306Y-74622786D02*
X51505149Y-74585617D01*
X51505149Y-74585617D02*
X51439499Y-74501784D01*
X51439499Y-74501784D02*
X51382536Y-74221806D01*
X51382536Y-74221806D02*
X51410212Y-74118986D01*
X51410212Y-74118986D02*
X51447381Y-74062829D01*
X73707996Y-52662425D02*
X74511486Y-52761081D01*
X74511486Y-52761081D02*
X74611818Y-52725423D01*
X74611818Y-52725423D02*
X74664885Y-52683963D01*
X74664885Y-52683963D02*
X74723756Y-52595238D01*
X74723756Y-52595238D02*
X74746969Y-52406181D01*
X74746969Y-52406181D02*
X74711312Y-52305850D01*
X74711312Y-52305850D02*
X74669851Y-52252782D01*
X74669851Y-52252782D02*
X74581126Y-52193912D01*
X74581126Y-52193912D02*
X73777636Y-52095256D01*
X74892052Y-51224579D02*
X74822412Y-51791748D01*
X74857232Y-51508163D02*
X73864686Y-51386294D01*
X73864686Y-51386294D02*
X73994871Y-51498232D01*
X73994871Y-51498232D02*
X74077793Y-51604367D01*
X74077793Y-51604367D02*
X74113450Y-51704699D01*
X74040460Y-50736203D02*
X73998999Y-50683136D01*
X73998999Y-50683136D02*
X73963342Y-50582804D01*
X73963342Y-50582804D02*
X73992358Y-50346484D01*
X73992358Y-50346484D02*
X74051229Y-50257759D01*
X74051229Y-50257759D02*
X74104296Y-50216298D01*
X74104296Y-50216298D02*
X74204628Y-50180641D01*
X74204628Y-50180641D02*
X74299156Y-50192247D01*
X74299156Y-50192247D02*
X74435145Y-50256921D01*
X74435145Y-50256921D02*
X74932675Y-50893730D01*
X74932675Y-50893730D02*
X75008118Y-50279297D01*
X69445546Y-52243214D02*
X69850308Y-52944283D01*
X69850308Y-52944283D02*
X69939166Y-53002952D01*
X69939166Y-53002952D02*
X70004215Y-53020381D01*
X70004215Y-53020381D02*
X70110503Y-53014002D01*
X70110503Y-53014002D02*
X70275461Y-52918764D01*
X70275461Y-52918764D02*
X70334130Y-52829905D01*
X70334130Y-52829905D02*
X70351559Y-52764856D01*
X70351559Y-52764856D02*
X70345180Y-52658568D01*
X70345180Y-52658568D02*
X69940418Y-51957500D01*
X70690814Y-52019130D02*
X70584526Y-52025510D01*
X70584526Y-52025510D02*
X70519477Y-52008080D01*
X70519477Y-52008080D02*
X70430619Y-51949411D01*
X70430619Y-51949411D02*
X70406810Y-51908172D01*
X70406810Y-51908172D02*
X70400430Y-51801883D01*
X70400430Y-51801883D02*
X70417860Y-51736835D01*
X70417860Y-51736835D02*
X70476529Y-51647976D01*
X70476529Y-51647976D02*
X70641486Y-51552738D01*
X70641486Y-51552738D02*
X70747774Y-51546358D01*
X70747774Y-51546358D02*
X70812823Y-51563788D01*
X70812823Y-51563788D02*
X70901681Y-51622457D01*
X70901681Y-51622457D02*
X70925491Y-51663697D01*
X70925491Y-51663697D02*
X70931871Y-51769985D01*
X70931871Y-51769985D02*
X70914441Y-51835034D01*
X70914441Y-51835034D02*
X70855772Y-51923892D01*
X70855772Y-51923892D02*
X70690814Y-52019130D01*
X70690814Y-52019130D02*
X70632145Y-52107988D01*
X70632145Y-52107988D02*
X70614716Y-52173037D01*
X70614716Y-52173037D02*
X70621095Y-52279325D01*
X70621095Y-52279325D02*
X70716333Y-52444283D01*
X70716333Y-52444283D02*
X70805192Y-52502952D01*
X70805192Y-52502952D02*
X70870241Y-52520381D01*
X70870241Y-52520381D02*
X70976529Y-52514002D01*
X70976529Y-52514002D02*
X71141486Y-52418764D01*
X71141486Y-52418764D02*
X71200155Y-52329905D01*
X71200155Y-52329905D02*
X71217585Y-52264856D01*
X71217585Y-52264856D02*
X71211205Y-52158568D01*
X71211205Y-52158568D02*
X71115967Y-51993611D01*
X71115967Y-51993611D02*
X71027109Y-51934942D01*
X71027109Y-51934942D02*
X70962060Y-51917512D01*
X70962060Y-51917512D02*
X70855772Y-51923892D01*
X101258667Y-92752491D02*
X100551561Y-92045384D01*
X100551561Y-92045384D02*
X100719919Y-91877025D01*
X100719919Y-91877025D02*
X100854606Y-91809682D01*
X100854606Y-91809682D02*
X100989293Y-91809682D01*
X100989293Y-91809682D02*
X101090309Y-91843354D01*
X101090309Y-91843354D02*
X101258667Y-91944369D01*
X101258667Y-91944369D02*
X101359683Y-92045384D01*
X101359683Y-92045384D02*
X101460698Y-92213743D01*
X101460698Y-92213743D02*
X101494370Y-92314758D01*
X101494370Y-92314758D02*
X101494370Y-92449445D01*
X101494370Y-92449445D02*
X101427026Y-92584132D01*
X101427026Y-92584132D02*
X101258667Y-92752491D01*
X102336163Y-91674995D02*
X101932102Y-92079056D01*
X102134133Y-91877025D02*
X101427026Y-91169919D01*
X101427026Y-91169919D02*
X101460698Y-91338277D01*
X101460698Y-91338277D02*
X101460698Y-91472964D01*
X101460698Y-91472964D02*
X101427026Y-91573980D01*
X52669780Y-86992984D02*
X52613623Y-86955814D01*
X52613623Y-86955814D02*
X52538479Y-86825319D01*
X52538479Y-86825319D02*
X52519492Y-86731993D01*
X52519492Y-86731993D02*
X52537674Y-86582510D01*
X52537674Y-86582510D02*
X52612012Y-86470196D01*
X52612012Y-86470196D02*
X52695845Y-86404546D01*
X52695845Y-86404546D02*
X52873003Y-86319908D01*
X52873003Y-86319908D02*
X53012993Y-86291427D01*
X53012993Y-86291427D02*
X53209139Y-86300115D01*
X53209139Y-86300115D02*
X53311959Y-86327790D01*
X53311959Y-86327790D02*
X53424272Y-86402129D01*
X53424272Y-86402129D02*
X53499416Y-86532625D01*
X53499416Y-86532625D02*
X53518404Y-86625951D01*
X53518404Y-86625951D02*
X53500222Y-86775434D01*
X53500222Y-86775434D02*
X53463053Y-86831591D01*
X53539002Y-87204895D02*
X53595159Y-87242065D01*
X53595159Y-87242065D02*
X53660809Y-87325897D01*
X53660809Y-87325897D02*
X53708278Y-87559213D01*
X53708278Y-87559213D02*
X53680602Y-87662032D01*
X53680602Y-87662032D02*
X53643433Y-87718189D01*
X53643433Y-87718189D02*
X53559601Y-87783840D01*
X53559601Y-87783840D02*
X53466274Y-87802827D01*
X53466274Y-87802827D02*
X53316791Y-87784645D01*
X53316791Y-87784645D02*
X52642910Y-87338613D01*
X52642910Y-87338613D02*
X52766328Y-87945233D01*
X53590498Y-88652256D02*
X52937215Y-88785168D01*
X53916334Y-88342991D02*
X53168919Y-88252082D01*
X53168919Y-88252082D02*
X53292338Y-88858702D01*
X96394819Y-83091904D02*
X97204342Y-83091904D01*
X97204342Y-83091904D02*
X97299580Y-83044285D01*
X97299580Y-83044285D02*
X97347200Y-82996666D01*
X97347200Y-82996666D02*
X97394819Y-82901428D01*
X97394819Y-82901428D02*
X97394819Y-82710952D01*
X97394819Y-82710952D02*
X97347200Y-82615714D01*
X97347200Y-82615714D02*
X97299580Y-82568095D01*
X97299580Y-82568095D02*
X97204342Y-82520476D01*
X97204342Y-82520476D02*
X96394819Y-82520476D01*
X96394819Y-82139523D02*
X96394819Y-81472857D01*
X96394819Y-81472857D02*
X97394819Y-81901428D01*
X74935869Y-42739816D02*
X75739359Y-42838472D01*
X75739359Y-42838472D02*
X75839691Y-42802814D01*
X75839691Y-42802814D02*
X75892758Y-42761354D01*
X75892758Y-42761354D02*
X75951629Y-42672629D01*
X75951629Y-42672629D02*
X75974842Y-42483572D01*
X75974842Y-42483572D02*
X75939185Y-42383241D01*
X75939185Y-42383241D02*
X75897724Y-42330173D01*
X75897724Y-42330173D02*
X75808999Y-42271303D01*
X75808999Y-42271303D02*
X75005509Y-42172647D01*
X76119925Y-41301970D02*
X76050285Y-41869139D01*
X76085105Y-41585554D02*
X75092559Y-41463685D01*
X75092559Y-41463685D02*
X75222744Y-41575623D01*
X75222744Y-41575623D02*
X75305666Y-41681758D01*
X75305666Y-41681758D02*
X75341323Y-41782090D01*
X76235991Y-40356688D02*
X76166351Y-40923857D01*
X76201171Y-40640272D02*
X75208625Y-40518403D01*
X75208625Y-40518403D02*
X75338810Y-40630341D01*
X75338810Y-40630341D02*
X75421732Y-40736476D01*
X75421732Y-40736476D02*
X75457389Y-40836807D01*
X58083072Y-46032353D02*
X57556301Y-45786627D01*
X57588200Y-46318068D02*
X57088200Y-45452042D01*
X57088200Y-45452042D02*
X57418115Y-45261566D01*
X57418115Y-45261566D02*
X57524403Y-45255186D01*
X57524403Y-45255186D02*
X57589452Y-45272616D01*
X57589452Y-45272616D02*
X57678310Y-45331285D01*
X57678310Y-45331285D02*
X57749739Y-45455003D01*
X57749739Y-45455003D02*
X57756118Y-45561291D01*
X57756118Y-45561291D02*
X57738688Y-45626340D01*
X57738688Y-45626340D02*
X57680019Y-45715198D01*
X57680019Y-45715198D02*
X57350105Y-45905675D01*
X57871747Y-44999661D02*
X58407858Y-44690138D01*
X58407858Y-44690138D02*
X58309659Y-45186719D01*
X58309659Y-45186719D02*
X58433377Y-45115290D01*
X58433377Y-45115290D02*
X58539665Y-45108910D01*
X58539665Y-45108910D02*
X58604714Y-45126340D01*
X58604714Y-45126340D02*
X58693572Y-45185009D01*
X58693572Y-45185009D02*
X58812620Y-45391206D01*
X58812620Y-45391206D02*
X58819000Y-45497494D01*
X58819000Y-45497494D02*
X58801570Y-45562543D01*
X58801570Y-45562543D02*
X58742901Y-45651401D01*
X58742901Y-45651401D02*
X58495465Y-45794258D01*
X58495465Y-45794258D02*
X58389177Y-45800638D01*
X58389177Y-45800638D02*
X58324128Y-45783208D01*
X41538007Y-81032648D02*
X41481850Y-80995478D01*
X41481850Y-80995478D02*
X41406706Y-80864983D01*
X41406706Y-80864983D02*
X41387719Y-80771657D01*
X41387719Y-80771657D02*
X41405901Y-80622174D01*
X41405901Y-80622174D02*
X41480239Y-80509860D01*
X41480239Y-80509860D02*
X41564072Y-80444210D01*
X41564072Y-80444210D02*
X41741230Y-80359572D01*
X41741230Y-80359572D02*
X41881220Y-80331091D01*
X41881220Y-80331091D02*
X42077366Y-80339779D01*
X42077366Y-80339779D02*
X42180186Y-80367454D01*
X42180186Y-80367454D02*
X42292499Y-80441793D01*
X42292499Y-80441793D02*
X42367643Y-80572289D01*
X42367643Y-80572289D02*
X42386631Y-80665615D01*
X42386631Y-80665615D02*
X42368449Y-80815098D01*
X42368449Y-80815098D02*
X42331280Y-80871255D01*
X41634555Y-81984897D02*
X41520631Y-81424940D01*
X41577593Y-81704918D02*
X42557518Y-81505550D01*
X42557518Y-81505550D02*
X42398541Y-81440705D01*
X42398541Y-81440705D02*
X42286227Y-81366367D01*
X42286227Y-81366367D02*
X42220577Y-81282534D01*
X41729492Y-82451528D02*
X41767467Y-82638180D01*
X41767467Y-82638180D02*
X41833118Y-82722012D01*
X41833118Y-82722012D02*
X41889274Y-82759182D01*
X41889274Y-82759182D02*
X42048251Y-82824027D01*
X42048251Y-82824027D02*
X42244397Y-82832715D01*
X42244397Y-82832715D02*
X42617702Y-82756765D01*
X42617702Y-82756765D02*
X42701534Y-82691115D01*
X42701534Y-82691115D02*
X42738704Y-82634958D01*
X42738704Y-82634958D02*
X42766379Y-82532138D01*
X42766379Y-82532138D02*
X42728404Y-82345486D01*
X42728404Y-82345486D02*
X42662754Y-82261653D01*
X42662754Y-82261653D02*
X42606597Y-82224484D01*
X42606597Y-82224484D02*
X42503777Y-82196808D01*
X42503777Y-82196808D02*
X42270462Y-82244277D01*
X42270462Y-82244277D02*
X42186629Y-82309927D01*
X42186629Y-82309927D02*
X42149460Y-82366084D01*
X42149460Y-82366084D02*
X42121784Y-82468904D01*
X42121784Y-82468904D02*
X42159759Y-82655556D01*
X42159759Y-82655556D02*
X42225410Y-82739389D01*
X42225410Y-82739389D02*
X42281567Y-82776558D01*
X42281567Y-82776558D02*
X42384386Y-82804234D01*
X85641119Y-41750089D02*
X85088279Y-41929633D01*
X85474050Y-42296549D02*
X84517745Y-42004177D01*
X84517745Y-42004177D02*
X84629125Y-41639871D01*
X84629125Y-41639871D02*
X84702508Y-41562717D01*
X84702508Y-41562717D02*
X84761969Y-41531101D01*
X84761969Y-41531101D02*
X84866968Y-41513407D01*
X84866968Y-41513407D02*
X85003583Y-41555175D01*
X85003583Y-41555175D02*
X85080737Y-41628558D01*
X85080737Y-41628558D02*
X85112353Y-41688019D01*
X85112353Y-41688019D02*
X85130046Y-41793018D01*
X85130046Y-41793018D02*
X85018667Y-42157325D01*
X85254187Y-40735485D02*
X85891724Y-40930399D01*
X84820268Y-40851797D02*
X85433731Y-41288325D01*
X85433731Y-41288325D02*
X85614723Y-40696327D01*
X85060721Y-40228183D02*
X85255636Y-39590646D01*
X85255636Y-39590646D02*
X86086638Y-40292863D01*
X73312562Y-46606910D02*
X73558288Y-46080140D01*
X73026848Y-46112039D02*
X73892873Y-45612039D01*
X73892873Y-45612039D02*
X74083349Y-45941953D01*
X74083349Y-45941953D02*
X74089729Y-46048241D01*
X74089729Y-46048241D02*
X74072299Y-46113290D01*
X74072299Y-46113290D02*
X74013630Y-46202148D01*
X74013630Y-46202148D02*
X73889912Y-46273577D01*
X73889912Y-46273577D02*
X73783624Y-46279957D01*
X73783624Y-46279957D02*
X73718575Y-46262527D01*
X73718575Y-46262527D02*
X73629717Y-46203858D01*
X73629717Y-46203858D02*
X73439241Y-45873943D01*
X74345254Y-46395586D02*
X74654778Y-46931696D01*
X74654778Y-46931696D02*
X74158197Y-46833498D01*
X74158197Y-46833498D02*
X74229625Y-46957215D01*
X74229625Y-46957215D02*
X74236005Y-47063504D01*
X74236005Y-47063504D02*
X74218575Y-47128552D01*
X74218575Y-47128552D02*
X74159906Y-47217411D01*
X74159906Y-47217411D02*
X73953710Y-47336458D01*
X73953710Y-47336458D02*
X73847422Y-47342838D01*
X73847422Y-47342838D02*
X73782373Y-47325408D01*
X73782373Y-47325408D02*
X73693514Y-47266739D01*
X73693514Y-47266739D02*
X73550657Y-47019303D01*
X73550657Y-47019303D02*
X73544278Y-46913015D01*
X73544278Y-46913015D02*
X73561707Y-46847966D01*
X74821445Y-47220372D02*
X75130968Y-47756483D01*
X75130968Y-47756483D02*
X74634387Y-47658284D01*
X74634387Y-47658284D02*
X74705816Y-47782002D01*
X74705816Y-47782002D02*
X74712196Y-47888290D01*
X74712196Y-47888290D02*
X74694766Y-47953339D01*
X74694766Y-47953339D02*
X74636097Y-48042197D01*
X74636097Y-48042197D02*
X74429900Y-48161245D01*
X74429900Y-48161245D02*
X74323612Y-48167624D01*
X74323612Y-48167624D02*
X74258563Y-48150194D01*
X74258563Y-48150194D02*
X74169705Y-48091525D01*
X74169705Y-48091525D02*
X74026848Y-47844090D01*
X74026848Y-47844090D02*
X74020468Y-47737801D01*
X74020468Y-47737801D02*
X74037898Y-47672753D01*
X109454819Y-75166666D02*
X108978628Y-75499999D01*
X109454819Y-75738094D02*
X108454819Y-75738094D01*
X108454819Y-75738094D02*
X108454819Y-75357142D01*
X108454819Y-75357142D02*
X108502438Y-75261904D01*
X108502438Y-75261904D02*
X108550057Y-75214285D01*
X108550057Y-75214285D02*
X108645295Y-75166666D01*
X108645295Y-75166666D02*
X108788152Y-75166666D01*
X108788152Y-75166666D02*
X108883390Y-75214285D01*
X108883390Y-75214285D02*
X108931009Y-75261904D01*
X108931009Y-75261904D02*
X108978628Y-75357142D01*
X108978628Y-75357142D02*
X108978628Y-75738094D01*
X109454819Y-74214285D02*
X109454819Y-74785713D01*
X109454819Y-74499999D02*
X108454819Y-74499999D01*
X108454819Y-74499999D02*
X108597676Y-74595237D01*
X108597676Y-74595237D02*
X108692914Y-74690475D01*
X108692914Y-74690475D02*
X108740533Y-74785713D01*
X47846122Y-96311058D02*
X47863552Y-96376106D01*
X47863552Y-96376106D02*
X47833363Y-96523634D01*
X47833363Y-96523634D02*
X47785744Y-96606113D01*
X47785744Y-96606113D02*
X47673076Y-96706021D01*
X47673076Y-96706021D02*
X47542978Y-96740880D01*
X47542978Y-96740880D02*
X47436690Y-96734501D01*
X47436690Y-96734501D02*
X47247923Y-96680502D01*
X47247923Y-96680502D02*
X47124205Y-96609073D01*
X47124205Y-96609073D02*
X46983058Y-96472596D01*
X46983058Y-96472596D02*
X46924389Y-96383738D01*
X46924389Y-96383738D02*
X46889529Y-96253640D01*
X46889529Y-96253640D02*
X46919718Y-96106113D01*
X46919718Y-96106113D02*
X46967337Y-96023634D01*
X46967337Y-96023634D02*
X47080005Y-95923726D01*
X47080005Y-95923726D02*
X47145054Y-95906296D01*
X47779822Y-95283036D02*
X48357172Y-95616369D01*
X47330860Y-95298756D02*
X47830402Y-95862096D01*
X47830402Y-95862096D02*
X48139926Y-95325985D01*
X48642886Y-95121497D02*
X48738125Y-94956540D01*
X48738125Y-94956540D02*
X48744504Y-94850252D01*
X48744504Y-94850252D02*
X48727075Y-94785203D01*
X48727075Y-94785203D02*
X48650976Y-94631296D01*
X48650976Y-94631296D02*
X48509828Y-94494819D01*
X48509828Y-94494819D02*
X48179914Y-94304343D01*
X48179914Y-94304343D02*
X48073625Y-94297963D01*
X48073625Y-94297963D02*
X48008577Y-94315393D01*
X48008577Y-94315393D02*
X47919718Y-94374062D01*
X47919718Y-94374062D02*
X47824480Y-94539019D01*
X47824480Y-94539019D02*
X47818100Y-94645307D01*
X47818100Y-94645307D02*
X47835530Y-94710356D01*
X47835530Y-94710356D02*
X47894199Y-94799214D01*
X47894199Y-94799214D02*
X48100396Y-94918262D01*
X48100396Y-94918262D02*
X48206684Y-94924642D01*
X48206684Y-94924642D02*
X48271733Y-94907212D01*
X48271733Y-94907212D02*
X48360591Y-94848543D01*
X48360591Y-94848543D02*
X48455829Y-94683585D01*
X48455829Y-94683585D02*
X48462209Y-94577297D01*
X48462209Y-94577297D02*
X48444779Y-94512249D01*
X48444779Y-94512249D02*
X48386110Y-94423390D01*
X87366700Y-42352571D02*
X86805221Y-42502935D01*
X87171260Y-42889538D02*
X86231567Y-42547518D01*
X86231567Y-42547518D02*
X86361861Y-42189540D01*
X86361861Y-42189540D02*
X86439181Y-42116332D01*
X86439181Y-42116332D02*
X86500215Y-42087871D01*
X86500215Y-42087871D02*
X86605996Y-42075697D01*
X86605996Y-42075697D02*
X86740238Y-42124557D01*
X86740238Y-42124557D02*
X86813446Y-42201878D01*
X86813446Y-42201878D02*
X86841907Y-42262912D01*
X86841907Y-42262912D02*
X86854081Y-42368693D01*
X86854081Y-42368693D02*
X86723787Y-42726671D01*
X87033398Y-41319106D02*
X87659860Y-41547120D01*
X86593987Y-41412549D02*
X87183762Y-41880586D01*
X87183762Y-41880586D02*
X87395489Y-41298871D01*
X87062188Y-40265407D02*
X86899321Y-40712880D01*
X86899321Y-40712880D02*
X87330507Y-40920494D01*
X87330507Y-40920494D02*
X87302046Y-40859460D01*
X87302046Y-40859460D02*
X87289872Y-40753679D01*
X87289872Y-40753679D02*
X87371306Y-40529942D01*
X87371306Y-40529942D02*
X87448626Y-40456734D01*
X87448626Y-40456734D02*
X87509660Y-40428274D01*
X87509660Y-40428274D02*
X87615442Y-40416100D01*
X87615442Y-40416100D02*
X87839178Y-40497533D01*
X87839178Y-40497533D02*
X87912386Y-40574854D01*
X87912386Y-40574854D02*
X87940846Y-40635888D01*
X87940846Y-40635888D02*
X87953020Y-40741669D01*
X87953020Y-40741669D02*
X87871587Y-40965405D01*
X87871587Y-40965405D02*
X87794266Y-41038613D01*
X87794266Y-41038613D02*
X87733232Y-41067074D01*
X97187142Y-63469580D02*
X97139523Y-63517200D01*
X97139523Y-63517200D02*
X96996666Y-63564819D01*
X96996666Y-63564819D02*
X96901428Y-63564819D01*
X96901428Y-63564819D02*
X96758571Y-63517200D01*
X96758571Y-63517200D02*
X96663333Y-63421961D01*
X96663333Y-63421961D02*
X96615714Y-63326723D01*
X96615714Y-63326723D02*
X96568095Y-63136247D01*
X96568095Y-63136247D02*
X96568095Y-62993390D01*
X96568095Y-62993390D02*
X96615714Y-62802914D01*
X96615714Y-62802914D02*
X96663333Y-62707676D01*
X96663333Y-62707676D02*
X96758571Y-62612438D01*
X96758571Y-62612438D02*
X96901428Y-62564819D01*
X96901428Y-62564819D02*
X96996666Y-62564819D01*
X96996666Y-62564819D02*
X97139523Y-62612438D01*
X97139523Y-62612438D02*
X97187142Y-62660057D01*
X97520476Y-62564819D02*
X98139523Y-62564819D01*
X98139523Y-62564819D02*
X97806190Y-62945771D01*
X97806190Y-62945771D02*
X97949047Y-62945771D01*
X97949047Y-62945771D02*
X98044285Y-62993390D01*
X98044285Y-62993390D02*
X98091904Y-63041009D01*
X98091904Y-63041009D02*
X98139523Y-63136247D01*
X98139523Y-63136247D02*
X98139523Y-63374342D01*
X98139523Y-63374342D02*
X98091904Y-63469580D01*
X98091904Y-63469580D02*
X98044285Y-63517200D01*
X98044285Y-63517200D02*
X97949047Y-63564819D01*
X97949047Y-63564819D02*
X97663333Y-63564819D01*
X97663333Y-63564819D02*
X97568095Y-63517200D01*
X97568095Y-63517200D02*
X97520476Y-63469580D01*
X98758571Y-62564819D02*
X98853809Y-62564819D01*
X98853809Y-62564819D02*
X98949047Y-62612438D01*
X98949047Y-62612438D02*
X98996666Y-62660057D01*
X98996666Y-62660057D02*
X99044285Y-62755295D01*
X99044285Y-62755295D02*
X99091904Y-62945771D01*
X99091904Y-62945771D02*
X99091904Y-63183866D01*
X99091904Y-63183866D02*
X99044285Y-63374342D01*
X99044285Y-63374342D02*
X98996666Y-63469580D01*
X98996666Y-63469580D02*
X98949047Y-63517200D01*
X98949047Y-63517200D02*
X98853809Y-63564819D01*
X98853809Y-63564819D02*
X98758571Y-63564819D01*
X98758571Y-63564819D02*
X98663333Y-63517200D01*
X98663333Y-63517200D02*
X98615714Y-63469580D01*
X98615714Y-63469580D02*
X98568095Y-63374342D01*
X98568095Y-63374342D02*
X98520476Y-63183866D01*
X98520476Y-63183866D02*
X98520476Y-62945771D01*
X98520476Y-62945771D02*
X98568095Y-62755295D01*
X98568095Y-62755295D02*
X98615714Y-62660057D01*
X98615714Y-62660057D02*
X98663333Y-62612438D01*
X98663333Y-62612438D02*
X98758571Y-62564819D01*
X67674819Y-104442857D02*
X67198628Y-104776190D01*
X67674819Y-105014285D02*
X66674819Y-105014285D01*
X66674819Y-105014285D02*
X66674819Y-104633333D01*
X66674819Y-104633333D02*
X66722438Y-104538095D01*
X66722438Y-104538095D02*
X66770057Y-104490476D01*
X66770057Y-104490476D02*
X66865295Y-104442857D01*
X66865295Y-104442857D02*
X67008152Y-104442857D01*
X67008152Y-104442857D02*
X67103390Y-104490476D01*
X67103390Y-104490476D02*
X67151009Y-104538095D01*
X67151009Y-104538095D02*
X67198628Y-104633333D01*
X67198628Y-104633333D02*
X67198628Y-105014285D01*
X67008152Y-103585714D02*
X67674819Y-103585714D01*
X66627200Y-103823809D02*
X67341485Y-104061904D01*
X67341485Y-104061904D02*
X67341485Y-103442857D01*
X66674819Y-103157142D02*
X66674819Y-102538095D01*
X66674819Y-102538095D02*
X67055771Y-102871428D01*
X67055771Y-102871428D02*
X67055771Y-102728571D01*
X67055771Y-102728571D02*
X67103390Y-102633333D01*
X67103390Y-102633333D02*
X67151009Y-102585714D01*
X67151009Y-102585714D02*
X67246247Y-102538095D01*
X67246247Y-102538095D02*
X67484342Y-102538095D01*
X67484342Y-102538095D02*
X67579580Y-102585714D01*
X67579580Y-102585714D02*
X67627200Y-102633333D01*
X67627200Y-102633333D02*
X67674819Y-102728571D01*
X67674819Y-102728571D02*
X67674819Y-103014285D01*
X67674819Y-103014285D02*
X67627200Y-103109523D01*
X67627200Y-103109523D02*
X67579580Y-103157142D01*
X66258073Y-60191869D02*
X65731302Y-59946143D01*
X65763201Y-60477584D02*
X65263201Y-59611558D01*
X65263201Y-59611558D02*
X65593116Y-59421082D01*
X65593116Y-59421082D02*
X65699404Y-59414702D01*
X65699404Y-59414702D02*
X65764453Y-59432132D01*
X65764453Y-59432132D02*
X65853311Y-59490801D01*
X65853311Y-59490801D02*
X65924740Y-59614519D01*
X65924740Y-59614519D02*
X65931119Y-59720807D01*
X65931119Y-59720807D02*
X65913689Y-59785856D01*
X65913689Y-59785856D02*
X65855020Y-59874714D01*
X65855020Y-59874714D02*
X65525106Y-60065191D01*
X66670466Y-59953774D02*
X66835423Y-59858536D01*
X66835423Y-59858536D02*
X66894092Y-59769678D01*
X66894092Y-59769678D02*
X66911522Y-59704629D01*
X66911522Y-59704629D02*
X66922572Y-59533292D01*
X66922572Y-59533292D02*
X66868573Y-59344525D01*
X66868573Y-59344525D02*
X66678097Y-59014611D01*
X66678097Y-59014611D02*
X66589239Y-58955942D01*
X66589239Y-58955942D02*
X66524190Y-58938512D01*
X66524190Y-58938512D02*
X66417902Y-58944892D01*
X66417902Y-58944892D02*
X66252945Y-59040130D01*
X66252945Y-59040130D02*
X66194275Y-59128988D01*
X66194275Y-59128988D02*
X66176846Y-59194037D01*
X66176846Y-59194037D02*
X66183225Y-59300325D01*
X66183225Y-59300325D02*
X66302273Y-59506522D01*
X66302273Y-59506522D02*
X66391131Y-59565191D01*
X66391131Y-59565191D02*
X66456180Y-59582620D01*
X66456180Y-59582620D02*
X66562468Y-59576241D01*
X66562468Y-59576241D02*
X66727426Y-59481003D01*
X66727426Y-59481003D02*
X66786095Y-59392144D01*
X66786095Y-59392144D02*
X66803524Y-59327095D01*
X66803524Y-59327095D02*
X66797145Y-59220807D01*
X91836368Y-49717737D02*
X91937383Y-49145318D01*
X91432307Y-49313676D02*
X92139414Y-48606570D01*
X92139414Y-48606570D02*
X92408788Y-48875944D01*
X92408788Y-48875944D02*
X92442460Y-48976959D01*
X92442460Y-48976959D02*
X92442460Y-49044302D01*
X92442460Y-49044302D02*
X92408788Y-49145318D01*
X92408788Y-49145318D02*
X92307773Y-49246333D01*
X92307773Y-49246333D02*
X92206757Y-49280005D01*
X92206757Y-49280005D02*
X92139414Y-49280005D01*
X92139414Y-49280005D02*
X92038399Y-49246333D01*
X92038399Y-49246333D02*
X91769025Y-48976959D01*
X92913864Y-49852424D02*
X92442460Y-50323829D01*
X93014879Y-49414692D02*
X92341444Y-49751409D01*
X92341444Y-49751409D02*
X92779177Y-50189142D01*
X93418941Y-50020783D02*
X93486284Y-50020783D01*
X93486284Y-50020783D02*
X93587299Y-50054455D01*
X93587299Y-50054455D02*
X93755658Y-50222814D01*
X93755658Y-50222814D02*
X93789330Y-50323829D01*
X93789330Y-50323829D02*
X93789330Y-50391173D01*
X93789330Y-50391173D02*
X93755658Y-50492188D01*
X93755658Y-50492188D02*
X93688315Y-50559531D01*
X93688315Y-50559531D02*
X93553628Y-50626875D01*
X93553628Y-50626875D02*
X92745506Y-50626875D01*
X92745506Y-50626875D02*
X93183238Y-51064608D01*
X46864451Y-73683183D02*
X47264626Y-73261605D01*
X46750526Y-73123226D02*
X47730451Y-72923858D01*
X47730451Y-72923858D02*
X47806401Y-73297163D01*
X47806401Y-73297163D02*
X47778725Y-73399983D01*
X47778725Y-73399983D02*
X47741556Y-73456140D01*
X47741556Y-73456140D02*
X47657723Y-73521790D01*
X47657723Y-73521790D02*
X47517734Y-73550271D01*
X47517734Y-73550271D02*
X47414914Y-73522596D01*
X47414914Y-73522596D02*
X47358757Y-73485426D01*
X47358757Y-73485426D02*
X47293107Y-73401594D01*
X47293107Y-73401594D02*
X47217157Y-73028289D01*
X47826999Y-73876107D02*
X47883156Y-73913277D01*
X47883156Y-73913277D02*
X47948806Y-73997109D01*
X47948806Y-73997109D02*
X47996275Y-74230425D01*
X47996275Y-74230425D02*
X47968599Y-74333244D01*
X47968599Y-74333244D02*
X47931430Y-74389401D01*
X47931430Y-74389401D02*
X47847598Y-74455052D01*
X47847598Y-74455052D02*
X47754271Y-74474039D01*
X47754271Y-74474039D02*
X47604788Y-74455857D01*
X47604788Y-74455857D02*
X46930907Y-74009825D01*
X46930907Y-74009825D02*
X47054325Y-74616445D01*
X47878495Y-75323468D02*
X47225212Y-75456380D01*
X48204331Y-75014203D02*
X47456916Y-74923294D01*
X47456916Y-74923294D02*
X47580335Y-75529914D01*
X99204819Y-70613922D02*
X98728628Y-70947255D01*
X99204819Y-71185350D02*
X98204819Y-71185350D01*
X98204819Y-71185350D02*
X98204819Y-70804398D01*
X98204819Y-70804398D02*
X98252438Y-70709160D01*
X98252438Y-70709160D02*
X98300057Y-70661541D01*
X98300057Y-70661541D02*
X98395295Y-70613922D01*
X98395295Y-70613922D02*
X98538152Y-70613922D01*
X98538152Y-70613922D02*
X98633390Y-70661541D01*
X98633390Y-70661541D02*
X98681009Y-70709160D01*
X98681009Y-70709160D02*
X98728628Y-70804398D01*
X98728628Y-70804398D02*
X98728628Y-71185350D01*
X98300057Y-70232969D02*
X98252438Y-70185350D01*
X98252438Y-70185350D02*
X98204819Y-70090112D01*
X98204819Y-70090112D02*
X98204819Y-69852017D01*
X98204819Y-69852017D02*
X98252438Y-69756779D01*
X98252438Y-69756779D02*
X98300057Y-69709160D01*
X98300057Y-69709160D02*
X98395295Y-69661541D01*
X98395295Y-69661541D02*
X98490533Y-69661541D01*
X98490533Y-69661541D02*
X98633390Y-69709160D01*
X98633390Y-69709160D02*
X99204819Y-70280588D01*
X99204819Y-70280588D02*
X99204819Y-69661541D01*
X98633390Y-69090112D02*
X98585771Y-69185350D01*
X98585771Y-69185350D02*
X98538152Y-69232969D01*
X98538152Y-69232969D02*
X98442914Y-69280588D01*
X98442914Y-69280588D02*
X98395295Y-69280588D01*
X98395295Y-69280588D02*
X98300057Y-69232969D01*
X98300057Y-69232969D02*
X98252438Y-69185350D01*
X98252438Y-69185350D02*
X98204819Y-69090112D01*
X98204819Y-69090112D02*
X98204819Y-68899636D01*
X98204819Y-68899636D02*
X98252438Y-68804398D01*
X98252438Y-68804398D02*
X98300057Y-68756779D01*
X98300057Y-68756779D02*
X98395295Y-68709160D01*
X98395295Y-68709160D02*
X98442914Y-68709160D01*
X98442914Y-68709160D02*
X98538152Y-68756779D01*
X98538152Y-68756779D02*
X98585771Y-68804398D01*
X98585771Y-68804398D02*
X98633390Y-68899636D01*
X98633390Y-68899636D02*
X98633390Y-69090112D01*
X98633390Y-69090112D02*
X98681009Y-69185350D01*
X98681009Y-69185350D02*
X98728628Y-69232969D01*
X98728628Y-69232969D02*
X98823866Y-69280588D01*
X98823866Y-69280588D02*
X99014342Y-69280588D01*
X99014342Y-69280588D02*
X99109580Y-69232969D01*
X99109580Y-69232969D02*
X99157200Y-69185350D01*
X99157200Y-69185350D02*
X99204819Y-69090112D01*
X99204819Y-69090112D02*
X99204819Y-68899636D01*
X99204819Y-68899636D02*
X99157200Y-68804398D01*
X99157200Y-68804398D02*
X99109580Y-68756779D01*
X99109580Y-68756779D02*
X99014342Y-68709160D01*
X99014342Y-68709160D02*
X98823866Y-68709160D01*
X98823866Y-68709160D02*
X98728628Y-68756779D01*
X98728628Y-68756779D02*
X98681009Y-68804398D01*
X98681009Y-68804398D02*
X98633390Y-68899636D01*
X93104819Y-75166666D02*
X92628628Y-75499999D01*
X93104819Y-75738094D02*
X92104819Y-75738094D01*
X92104819Y-75738094D02*
X92104819Y-75357142D01*
X92104819Y-75357142D02*
X92152438Y-75261904D01*
X92152438Y-75261904D02*
X92200057Y-75214285D01*
X92200057Y-75214285D02*
X92295295Y-75166666D01*
X92295295Y-75166666D02*
X92438152Y-75166666D01*
X92438152Y-75166666D02*
X92533390Y-75214285D01*
X92533390Y-75214285D02*
X92581009Y-75261904D01*
X92581009Y-75261904D02*
X92628628Y-75357142D01*
X92628628Y-75357142D02*
X92628628Y-75738094D01*
X92104819Y-74833332D02*
X92104819Y-74166666D01*
X92104819Y-74166666D02*
X93104819Y-74595237D01*
X95967036Y-51076173D02*
X95394617Y-50975158D01*
X95562975Y-51480234D02*
X94855869Y-50773127D01*
X94855869Y-50773127D02*
X95125243Y-50503753D01*
X95125243Y-50503753D02*
X95226258Y-50470081D01*
X95226258Y-50470081D02*
X95293601Y-50470081D01*
X95293601Y-50470081D02*
X95394617Y-50503753D01*
X95394617Y-50503753D02*
X95495632Y-50604768D01*
X95495632Y-50604768D02*
X95529304Y-50705784D01*
X95529304Y-50705784D02*
X95529304Y-50773127D01*
X95529304Y-50773127D02*
X95495632Y-50874142D01*
X95495632Y-50874142D02*
X95226258Y-51143516D01*
X96101723Y-49998677D02*
X96573128Y-50470081D01*
X95663991Y-49897662D02*
X96000708Y-50571097D01*
X96000708Y-50571097D02*
X96438441Y-50133364D01*
X96539456Y-49089539D02*
X96404769Y-49224226D01*
X96404769Y-49224226D02*
X96371098Y-49325242D01*
X96371098Y-49325242D02*
X96371098Y-49392585D01*
X96371098Y-49392585D02*
X96404769Y-49560944D01*
X96404769Y-49560944D02*
X96505785Y-49729303D01*
X96505785Y-49729303D02*
X96775159Y-49998677D01*
X96775159Y-49998677D02*
X96876174Y-50032348D01*
X96876174Y-50032348D02*
X96943517Y-50032348D01*
X96943517Y-50032348D02*
X97044533Y-49998677D01*
X97044533Y-49998677D02*
X97179220Y-49863990D01*
X97179220Y-49863990D02*
X97212891Y-49762974D01*
X97212891Y-49762974D02*
X97212891Y-49695631D01*
X97212891Y-49695631D02*
X97179220Y-49594616D01*
X97179220Y-49594616D02*
X97010861Y-49426257D01*
X97010861Y-49426257D02*
X96909846Y-49392585D01*
X96909846Y-49392585D02*
X96842502Y-49392585D01*
X96842502Y-49392585D02*
X96741487Y-49426257D01*
X96741487Y-49426257D02*
X96606800Y-49560944D01*
X96606800Y-49560944D02*
X96573128Y-49661959D01*
X96573128Y-49661959D02*
X96573128Y-49729303D01*
X96573128Y-49729303D02*
X96606800Y-49830318D01*
X72954819Y-105238094D02*
X73764342Y-105238094D01*
X73764342Y-105238094D02*
X73859580Y-105190475D01*
X73859580Y-105190475D02*
X73907200Y-105142856D01*
X73907200Y-105142856D02*
X73954819Y-105047618D01*
X73954819Y-105047618D02*
X73954819Y-104857142D01*
X73954819Y-104857142D02*
X73907200Y-104761904D01*
X73907200Y-104761904D02*
X73859580Y-104714285D01*
X73859580Y-104714285D02*
X73764342Y-104666666D01*
X73764342Y-104666666D02*
X72954819Y-104666666D01*
X73954819Y-103666666D02*
X73954819Y-104238094D01*
X73954819Y-103952380D02*
X72954819Y-103952380D01*
X72954819Y-103952380D02*
X73097676Y-104047618D01*
X73097676Y-104047618D02*
X73192914Y-104142856D01*
X73192914Y-104142856D02*
X73240533Y-104238094D01*
X72954819Y-103047618D02*
X72954819Y-102952380D01*
X72954819Y-102952380D02*
X73002438Y-102857142D01*
X73002438Y-102857142D02*
X73050057Y-102809523D01*
X73050057Y-102809523D02*
X73145295Y-102761904D01*
X73145295Y-102761904D02*
X73335771Y-102714285D01*
X73335771Y-102714285D02*
X73573866Y-102714285D01*
X73573866Y-102714285D02*
X73764342Y-102761904D01*
X73764342Y-102761904D02*
X73859580Y-102809523D01*
X73859580Y-102809523D02*
X73907200Y-102857142D01*
X73907200Y-102857142D02*
X73954819Y-102952380D01*
X73954819Y-102952380D02*
X73954819Y-103047618D01*
X73954819Y-103047618D02*
X73907200Y-103142856D01*
X73907200Y-103142856D02*
X73859580Y-103190475D01*
X73859580Y-103190475D02*
X73764342Y-103238094D01*
X73764342Y-103238094D02*
X73573866Y-103285713D01*
X73573866Y-103285713D02*
X73335771Y-103285713D01*
X73335771Y-103285713D02*
X73145295Y-103238094D01*
X73145295Y-103238094D02*
X73050057Y-103190475D01*
X73050057Y-103190475D02*
X73002438Y-103142856D01*
X73002438Y-103142856D02*
X72954819Y-103047618D01*
X63305872Y-106888073D02*
X63240823Y-106905502D01*
X63240823Y-106905502D02*
X63093296Y-106875313D01*
X63093296Y-106875313D02*
X63010817Y-106827694D01*
X63010817Y-106827694D02*
X62910909Y-106715026D01*
X62910909Y-106715026D02*
X62876049Y-106584929D01*
X62876049Y-106584929D02*
X62882429Y-106478640D01*
X62882429Y-106478640D02*
X62936428Y-106289874D01*
X62936428Y-106289874D02*
X63007856Y-106166156D01*
X63007856Y-106166156D02*
X63144334Y-106025008D01*
X63144334Y-106025008D02*
X63233192Y-105966339D01*
X63233192Y-105966339D02*
X63363290Y-105931479D01*
X63363290Y-105931479D02*
X63510817Y-105961669D01*
X63510817Y-105961669D02*
X63593296Y-106009288D01*
X63593296Y-106009288D02*
X63693204Y-106121956D01*
X63693204Y-106121956D02*
X63710634Y-106187004D01*
X64046928Y-106271193D02*
X64583039Y-106580716D01*
X64583039Y-106580716D02*
X64103888Y-106743964D01*
X64103888Y-106743964D02*
X64227606Y-106815393D01*
X64227606Y-106815393D02*
X64286275Y-106904251D01*
X64286275Y-106904251D02*
X64303704Y-106969300D01*
X64303704Y-106969300D02*
X64297325Y-107075588D01*
X64297325Y-107075588D02*
X64178277Y-107281785D01*
X64178277Y-107281785D02*
X64089419Y-107340454D01*
X64089419Y-107340454D02*
X64024370Y-107357883D01*
X64024370Y-107357883D02*
X63918082Y-107351504D01*
X63918082Y-107351504D02*
X63670646Y-107208646D01*
X63670646Y-107208646D02*
X63611977Y-107119788D01*
X63611977Y-107119788D02*
X63594547Y-107054739D01*
X70121020Y-40828522D02*
X70055971Y-40811093D01*
X70055971Y-40811093D02*
X69943303Y-40711184D01*
X69943303Y-40711184D02*
X69895684Y-40628706D01*
X69895684Y-40628706D02*
X69865495Y-40481178D01*
X69865495Y-40481178D02*
X69900354Y-40351080D01*
X69900354Y-40351080D02*
X69959023Y-40262222D01*
X69959023Y-40262222D02*
X70100171Y-40125745D01*
X70100171Y-40125745D02*
X70223889Y-40054316D01*
X70223889Y-40054316D02*
X70412656Y-40000317D01*
X70412656Y-40000317D02*
X70518944Y-39993938D01*
X70518944Y-39993938D02*
X70649041Y-40028797D01*
X70649041Y-40028797D02*
X70761709Y-40128706D01*
X70761709Y-40128706D02*
X70809328Y-40211184D01*
X70809328Y-40211184D02*
X70839518Y-40358712D01*
X70839518Y-40358712D02*
X70822088Y-40423760D01*
X71044463Y-41285116D02*
X70467112Y-41618449D01*
X71255330Y-40888443D02*
X70517692Y-41039389D01*
X70517692Y-41039389D02*
X70827216Y-41575500D01*
X71547424Y-41489603D02*
X71856947Y-42025714D01*
X71856947Y-42025714D02*
X71360366Y-41927515D01*
X71360366Y-41927515D02*
X71431795Y-42051233D01*
X71431795Y-42051233D02*
X71438175Y-42157521D01*
X71438175Y-42157521D02*
X71420745Y-42222570D01*
X71420745Y-42222570D02*
X71362076Y-42311428D01*
X71362076Y-42311428D02*
X71155879Y-42430476D01*
X71155879Y-42430476D02*
X71049591Y-42436855D01*
X71049591Y-42436855D02*
X70984542Y-42419425D01*
X70984542Y-42419425D02*
X70895684Y-42360756D01*
X70895684Y-42360756D02*
X70752827Y-42113321D01*
X70752827Y-42113321D02*
X70746447Y-42007032D01*
X70746447Y-42007032D02*
X70763877Y-41941984D01*
X89058388Y-43044534D02*
X88489808Y-43165306D01*
X88835113Y-43570537D02*
X87914608Y-43179805D01*
X87914608Y-43179805D02*
X88063458Y-42829137D01*
X88063458Y-42829137D02*
X88144504Y-42760076D01*
X88144504Y-42760076D02*
X88206944Y-42734849D01*
X88206944Y-42734849D02*
X88313217Y-42728228D01*
X88313217Y-42728228D02*
X88444718Y-42784046D01*
X88444718Y-42784046D02*
X88513779Y-42865092D01*
X88513779Y-42865092D02*
X88539006Y-42927532D01*
X88539006Y-42927532D02*
X88545627Y-43033806D01*
X88545627Y-43033806D02*
X88396777Y-43384474D01*
X88779630Y-41995042D02*
X89393300Y-42255530D01*
X88335930Y-42065360D02*
X88900403Y-42563622D01*
X88900403Y-42563622D02*
X89142284Y-41993785D01*
X89151755Y-41118371D02*
X89765425Y-41378858D01*
X88708055Y-41188689D02*
X89272528Y-41686950D01*
X89272528Y-41686950D02*
X89514409Y-41117114D01*
X106264819Y-69561904D02*
X107074342Y-69561904D01*
X107074342Y-69561904D02*
X107169580Y-69514285D01*
X107169580Y-69514285D02*
X107217200Y-69466666D01*
X107217200Y-69466666D02*
X107264819Y-69371428D01*
X107264819Y-69371428D02*
X107264819Y-69180952D01*
X107264819Y-69180952D02*
X107217200Y-69085714D01*
X107217200Y-69085714D02*
X107169580Y-69038095D01*
X107169580Y-69038095D02*
X107074342Y-68990476D01*
X107074342Y-68990476D02*
X106264819Y-68990476D01*
X106264819Y-68085714D02*
X106264819Y-68276190D01*
X106264819Y-68276190D02*
X106312438Y-68371428D01*
X106312438Y-68371428D02*
X106360057Y-68419047D01*
X106360057Y-68419047D02*
X106502914Y-68514285D01*
X106502914Y-68514285D02*
X106693390Y-68561904D01*
X106693390Y-68561904D02*
X107074342Y-68561904D01*
X107074342Y-68561904D02*
X107169580Y-68514285D01*
X107169580Y-68514285D02*
X107217200Y-68466666D01*
X107217200Y-68466666D02*
X107264819Y-68371428D01*
X107264819Y-68371428D02*
X107264819Y-68180952D01*
X107264819Y-68180952D02*
X107217200Y-68085714D01*
X107217200Y-68085714D02*
X107169580Y-68038095D01*
X107169580Y-68038095D02*
X107074342Y-67990476D01*
X107074342Y-67990476D02*
X106836247Y-67990476D01*
X106836247Y-67990476D02*
X106741009Y-68038095D01*
X106741009Y-68038095D02*
X106693390Y-68085714D01*
X106693390Y-68085714D02*
X106645771Y-68180952D01*
X106645771Y-68180952D02*
X106645771Y-68371428D01*
X106645771Y-68371428D02*
X106693390Y-68466666D01*
X106693390Y-68466666D02*
X106741009Y-68514285D01*
X106741009Y-68514285D02*
X106836247Y-68561904D01*
X79755359Y-80187302D02*
X79737929Y-80252351D01*
X79737929Y-80252351D02*
X79638021Y-80365019D01*
X79638021Y-80365019D02*
X79555542Y-80412638D01*
X79555542Y-80412638D02*
X79408015Y-80442827D01*
X79408015Y-80442827D02*
X79277917Y-80407967D01*
X79277917Y-80407967D02*
X79189059Y-80349298D01*
X79189059Y-80349298D02*
X79052581Y-80208151D01*
X79052581Y-80208151D02*
X78981153Y-80084433D01*
X78981153Y-80084433D02*
X78927154Y-79895666D01*
X78927154Y-79895666D02*
X78920774Y-79789378D01*
X78920774Y-79789378D02*
X78955634Y-79659280D01*
X78955634Y-79659280D02*
X79055542Y-79546612D01*
X79055542Y-79546612D02*
X79138021Y-79498993D01*
X79138021Y-79498993D02*
X79285548Y-79468804D01*
X79285548Y-79468804D02*
X79350597Y-79486234D01*
X80086525Y-78951374D02*
X79674132Y-79189469D01*
X79674132Y-79189469D02*
X79870988Y-79625672D01*
X79870988Y-79625672D02*
X79888418Y-79560623D01*
X79888418Y-79560623D02*
X79947087Y-79471765D01*
X79947087Y-79471765D02*
X80153283Y-79352717D01*
X80153283Y-79352717D02*
X80259571Y-79346337D01*
X80259571Y-79346337D02*
X80324620Y-79363767D01*
X80324620Y-79363767D02*
X80413478Y-79422436D01*
X80413478Y-79422436D02*
X80532526Y-79628633D01*
X80532526Y-79628633D02*
X80538906Y-79734921D01*
X80538906Y-79734921D02*
X80521476Y-79799970D01*
X80521476Y-79799970D02*
X80462807Y-79888828D01*
X80462807Y-79888828D02*
X80256610Y-80007876D01*
X80256610Y-80007876D02*
X80150322Y-80014255D01*
X80150322Y-80014255D02*
X80085273Y-79996826D01*
X80505298Y-78819567D02*
X80522727Y-78754518D01*
X80522727Y-78754518D02*
X80581397Y-78665660D01*
X80581397Y-78665660D02*
X80787593Y-78546612D01*
X80787593Y-78546612D02*
X80893881Y-78540232D01*
X80893881Y-78540232D02*
X80958930Y-78557662D01*
X80958930Y-78557662D02*
X81047788Y-78616331D01*
X81047788Y-78616331D02*
X81095407Y-78698810D01*
X81095407Y-78698810D02*
X81125597Y-78846337D01*
X81125597Y-78846337D02*
X80916439Y-79626923D01*
X80916439Y-79626923D02*
X81452550Y-79317399D01*
X84808333Y-97534580D02*
X84760714Y-97582200D01*
X84760714Y-97582200D02*
X84617857Y-97629819D01*
X84617857Y-97629819D02*
X84522619Y-97629819D01*
X84522619Y-97629819D02*
X84379762Y-97582200D01*
X84379762Y-97582200D02*
X84284524Y-97486961D01*
X84284524Y-97486961D02*
X84236905Y-97391723D01*
X84236905Y-97391723D02*
X84189286Y-97201247D01*
X84189286Y-97201247D02*
X84189286Y-97058390D01*
X84189286Y-97058390D02*
X84236905Y-96867914D01*
X84236905Y-96867914D02*
X84284524Y-96772676D01*
X84284524Y-96772676D02*
X84379762Y-96677438D01*
X84379762Y-96677438D02*
X84522619Y-96629819D01*
X84522619Y-96629819D02*
X84617857Y-96629819D01*
X84617857Y-96629819D02*
X84760714Y-96677438D01*
X84760714Y-96677438D02*
X84808333Y-96725057D01*
X85379762Y-97058390D02*
X85284524Y-97010771D01*
X85284524Y-97010771D02*
X85236905Y-96963152D01*
X85236905Y-96963152D02*
X85189286Y-96867914D01*
X85189286Y-96867914D02*
X85189286Y-96820295D01*
X85189286Y-96820295D02*
X85236905Y-96725057D01*
X85236905Y-96725057D02*
X85284524Y-96677438D01*
X85284524Y-96677438D02*
X85379762Y-96629819D01*
X85379762Y-96629819D02*
X85570238Y-96629819D01*
X85570238Y-96629819D02*
X85665476Y-96677438D01*
X85665476Y-96677438D02*
X85713095Y-96725057D01*
X85713095Y-96725057D02*
X85760714Y-96820295D01*
X85760714Y-96820295D02*
X85760714Y-96867914D01*
X85760714Y-96867914D02*
X85713095Y-96963152D01*
X85713095Y-96963152D02*
X85665476Y-97010771D01*
X85665476Y-97010771D02*
X85570238Y-97058390D01*
X85570238Y-97058390D02*
X85379762Y-97058390D01*
X85379762Y-97058390D02*
X85284524Y-97106009D01*
X85284524Y-97106009D02*
X85236905Y-97153628D01*
X85236905Y-97153628D02*
X85189286Y-97248866D01*
X85189286Y-97248866D02*
X85189286Y-97439342D01*
X85189286Y-97439342D02*
X85236905Y-97534580D01*
X85236905Y-97534580D02*
X85284524Y-97582200D01*
X85284524Y-97582200D02*
X85379762Y-97629819D01*
X85379762Y-97629819D02*
X85570238Y-97629819D01*
X85570238Y-97629819D02*
X85665476Y-97582200D01*
X85665476Y-97582200D02*
X85713095Y-97534580D01*
X85713095Y-97534580D02*
X85760714Y-97439342D01*
X85760714Y-97439342D02*
X85760714Y-97248866D01*
X85760714Y-97248866D02*
X85713095Y-97153628D01*
X85713095Y-97153628D02*
X85665476Y-97106009D01*
X85665476Y-97106009D02*
X85570238Y-97058390D01*
X99147142Y-88644819D02*
X98813809Y-88168628D01*
X98575714Y-88644819D02*
X98575714Y-87644819D01*
X98575714Y-87644819D02*
X98956666Y-87644819D01*
X98956666Y-87644819D02*
X99051904Y-87692438D01*
X99051904Y-87692438D02*
X99099523Y-87740057D01*
X99099523Y-87740057D02*
X99147142Y-87835295D01*
X99147142Y-87835295D02*
X99147142Y-87978152D01*
X99147142Y-87978152D02*
X99099523Y-88073390D01*
X99099523Y-88073390D02*
X99051904Y-88121009D01*
X99051904Y-88121009D02*
X98956666Y-88168628D01*
X98956666Y-88168628D02*
X98575714Y-88168628D01*
X99528095Y-87740057D02*
X99575714Y-87692438D01*
X99575714Y-87692438D02*
X99670952Y-87644819D01*
X99670952Y-87644819D02*
X99909047Y-87644819D01*
X99909047Y-87644819D02*
X100004285Y-87692438D01*
X100004285Y-87692438D02*
X100051904Y-87740057D01*
X100051904Y-87740057D02*
X100099523Y-87835295D01*
X100099523Y-87835295D02*
X100099523Y-87930533D01*
X100099523Y-87930533D02*
X100051904Y-88073390D01*
X100051904Y-88073390D02*
X99480476Y-88644819D01*
X99480476Y-88644819D02*
X100099523Y-88644819D01*
X100575714Y-88644819D02*
X100766190Y-88644819D01*
X100766190Y-88644819D02*
X100861428Y-88597200D01*
X100861428Y-88597200D02*
X100909047Y-88549580D01*
X100909047Y-88549580D02*
X101004285Y-88406723D01*
X101004285Y-88406723D02*
X101051904Y-88216247D01*
X101051904Y-88216247D02*
X101051904Y-87835295D01*
X101051904Y-87835295D02*
X101004285Y-87740057D01*
X101004285Y-87740057D02*
X100956666Y-87692438D01*
X100956666Y-87692438D02*
X100861428Y-87644819D01*
X100861428Y-87644819D02*
X100670952Y-87644819D01*
X100670952Y-87644819D02*
X100575714Y-87692438D01*
X100575714Y-87692438D02*
X100528095Y-87740057D01*
X100528095Y-87740057D02*
X100480476Y-87835295D01*
X100480476Y-87835295D02*
X100480476Y-88073390D01*
X100480476Y-88073390D02*
X100528095Y-88168628D01*
X100528095Y-88168628D02*
X100575714Y-88216247D01*
X100575714Y-88216247D02*
X100670952Y-88263866D01*
X100670952Y-88263866D02*
X100861428Y-88263866D01*
X100861428Y-88263866D02*
X100956666Y-88216247D01*
X100956666Y-88216247D02*
X101004285Y-88168628D01*
X101004285Y-88168628D02*
X101051904Y-88073390D01*
X45793682Y-81912825D02*
X45000410Y-82074218D01*
X45000410Y-82074218D02*
X44916578Y-82139868D01*
X44916578Y-82139868D02*
X44879408Y-82196025D01*
X44879408Y-82196025D02*
X44851733Y-82298845D01*
X44851733Y-82298845D02*
X44889707Y-82485497D01*
X44889707Y-82485497D02*
X44955358Y-82569330D01*
X44955358Y-82569330D02*
X45011515Y-82606499D01*
X45011515Y-82606499D02*
X45114335Y-82634175D01*
X45114335Y-82634175D02*
X45907607Y-82472782D01*
X46097481Y-83406043D02*
X46002544Y-82939412D01*
X46002544Y-82939412D02*
X45526420Y-82987686D01*
X45526420Y-82987686D02*
X45582576Y-83024856D01*
X45582576Y-83024856D02*
X45648227Y-83108688D01*
X45648227Y-83108688D02*
X45695695Y-83342004D01*
X45695695Y-83342004D02*
X45668020Y-83444823D01*
X45668020Y-83444823D02*
X45630850Y-83500980D01*
X45630850Y-83500980D02*
X45547018Y-83566631D01*
X45547018Y-83566631D02*
X45313702Y-83614099D01*
X45313702Y-83614099D02*
X45210883Y-83586424D01*
X45210883Y-83586424D02*
X45154726Y-83549254D01*
X45154726Y-83549254D02*
X45089075Y-83465422D01*
X45089075Y-83465422D02*
X45041607Y-83232106D01*
X45041607Y-83232106D02*
X45069282Y-83129287D01*
X45069282Y-83129287D02*
X45106452Y-83073130D01*
X51254581Y-90657909D02*
X50675521Y-90708489D01*
X50968866Y-91152780D02*
X50102841Y-90652780D01*
X50102841Y-90652780D02*
X50293317Y-90322866D01*
X50293317Y-90322866D02*
X50382176Y-90264197D01*
X50382176Y-90264197D02*
X50447224Y-90246767D01*
X50447224Y-90246767D02*
X50553513Y-90253147D01*
X50553513Y-90253147D02*
X50677230Y-90324575D01*
X50677230Y-90324575D02*
X50735900Y-90413434D01*
X50735900Y-90413434D02*
X50753329Y-90478483D01*
X50753329Y-90478483D02*
X50746950Y-90584771D01*
X50746950Y-90584771D02*
X50556473Y-90914685D01*
X50555222Y-89869234D02*
X50864746Y-89333123D01*
X50864746Y-89333123D02*
X51027994Y-89812274D01*
X51027994Y-89812274D02*
X51099422Y-89688556D01*
X51099422Y-89688556D02*
X51188281Y-89629887D01*
X51188281Y-89629887D02*
X51253329Y-89612457D01*
X51253329Y-89612457D02*
X51359617Y-89618837D01*
X51359617Y-89618837D02*
X51565814Y-89737884D01*
X51565814Y-89737884D02*
X51624483Y-89826743D01*
X51624483Y-89826743D02*
X51641913Y-89891792D01*
X51641913Y-89891792D02*
X51635533Y-89998080D01*
X51635533Y-89998080D02*
X51492676Y-90245516D01*
X51492676Y-90245516D02*
X51403818Y-90304185D01*
X51403818Y-90304185D02*
X51338769Y-90321614D01*
X51031413Y-89044447D02*
X51364746Y-88467097D01*
X51364746Y-88467097D02*
X52016486Y-89338251D01*
X68637142Y-108479580D02*
X68589523Y-108527200D01*
X68589523Y-108527200D02*
X68446666Y-108574819D01*
X68446666Y-108574819D02*
X68351428Y-108574819D01*
X68351428Y-108574819D02*
X68208571Y-108527200D01*
X68208571Y-108527200D02*
X68113333Y-108431961D01*
X68113333Y-108431961D02*
X68065714Y-108336723D01*
X68065714Y-108336723D02*
X68018095Y-108146247D01*
X68018095Y-108146247D02*
X68018095Y-108003390D01*
X68018095Y-108003390D02*
X68065714Y-107812914D01*
X68065714Y-107812914D02*
X68113333Y-107717676D01*
X68113333Y-107717676D02*
X68208571Y-107622438D01*
X68208571Y-107622438D02*
X68351428Y-107574819D01*
X68351428Y-107574819D02*
X68446666Y-107574819D01*
X68446666Y-107574819D02*
X68589523Y-107622438D01*
X68589523Y-107622438D02*
X68637142Y-107670057D01*
X69541904Y-107574819D02*
X69065714Y-107574819D01*
X69065714Y-107574819D02*
X69018095Y-108051009D01*
X69018095Y-108051009D02*
X69065714Y-108003390D01*
X69065714Y-108003390D02*
X69160952Y-107955771D01*
X69160952Y-107955771D02*
X69399047Y-107955771D01*
X69399047Y-107955771D02*
X69494285Y-108003390D01*
X69494285Y-108003390D02*
X69541904Y-108051009D01*
X69541904Y-108051009D02*
X69589523Y-108146247D01*
X69589523Y-108146247D02*
X69589523Y-108384342D01*
X69589523Y-108384342D02*
X69541904Y-108479580D01*
X69541904Y-108479580D02*
X69494285Y-108527200D01*
X69494285Y-108527200D02*
X69399047Y-108574819D01*
X69399047Y-108574819D02*
X69160952Y-108574819D01*
X69160952Y-108574819D02*
X69065714Y-108527200D01*
X69065714Y-108527200D02*
X69018095Y-108479580D01*
X70208571Y-107574819D02*
X70303809Y-107574819D01*
X70303809Y-107574819D02*
X70399047Y-107622438D01*
X70399047Y-107622438D02*
X70446666Y-107670057D01*
X70446666Y-107670057D02*
X70494285Y-107765295D01*
X70494285Y-107765295D02*
X70541904Y-107955771D01*
X70541904Y-107955771D02*
X70541904Y-108193866D01*
X70541904Y-108193866D02*
X70494285Y-108384342D01*
X70494285Y-108384342D02*
X70446666Y-108479580D01*
X70446666Y-108479580D02*
X70399047Y-108527200D01*
X70399047Y-108527200D02*
X70303809Y-108574819D01*
X70303809Y-108574819D02*
X70208571Y-108574819D01*
X70208571Y-108574819D02*
X70113333Y-108527200D01*
X70113333Y-108527200D02*
X70065714Y-108479580D01*
X70065714Y-108479580D02*
X70018095Y-108384342D01*
X70018095Y-108384342D02*
X69970476Y-108193866D01*
X69970476Y-108193866D02*
X69970476Y-107955771D01*
X69970476Y-107955771D02*
X70018095Y-107765295D01*
X70018095Y-107765295D02*
X70065714Y-107670057D01*
X70065714Y-107670057D02*
X70113333Y-107622438D01*
X70113333Y-107622438D02*
X70208571Y-107574819D01*
X73979580Y-98081792D02*
X74027200Y-98129411D01*
X74027200Y-98129411D02*
X74074819Y-98272268D01*
X74074819Y-98272268D02*
X74074819Y-98367506D01*
X74074819Y-98367506D02*
X74027200Y-98510363D01*
X74027200Y-98510363D02*
X73931961Y-98605601D01*
X73931961Y-98605601D02*
X73836723Y-98653220D01*
X73836723Y-98653220D02*
X73646247Y-98700839D01*
X73646247Y-98700839D02*
X73503390Y-98700839D01*
X73503390Y-98700839D02*
X73312914Y-98653220D01*
X73312914Y-98653220D02*
X73217676Y-98605601D01*
X73217676Y-98605601D02*
X73122438Y-98510363D01*
X73122438Y-98510363D02*
X73074819Y-98367506D01*
X73074819Y-98367506D02*
X73074819Y-98272268D01*
X73074819Y-98272268D02*
X73122438Y-98129411D01*
X73122438Y-98129411D02*
X73170057Y-98081792D01*
X74074819Y-97129411D02*
X74074819Y-97700839D01*
X74074819Y-97415125D02*
X73074819Y-97415125D01*
X73074819Y-97415125D02*
X73217676Y-97510363D01*
X73217676Y-97510363D02*
X73312914Y-97605601D01*
X73312914Y-97605601D02*
X73360533Y-97700839D01*
X73170057Y-96748458D02*
X73122438Y-96700839D01*
X73122438Y-96700839D02*
X73074819Y-96605601D01*
X73074819Y-96605601D02*
X73074819Y-96367506D01*
X73074819Y-96367506D02*
X73122438Y-96272268D01*
X73122438Y-96272268D02*
X73170057Y-96224649D01*
X73170057Y-96224649D02*
X73265295Y-96177030D01*
X73265295Y-96177030D02*
X73360533Y-96177030D01*
X73360533Y-96177030D02*
X73503390Y-96224649D01*
X73503390Y-96224649D02*
X74074819Y-96796077D01*
X74074819Y-96796077D02*
X74074819Y-96177030D01*
X88373007Y-53400203D02*
X87800588Y-53299188D01*
X87968946Y-53804264D02*
X87261840Y-53097157D01*
X87261840Y-53097157D02*
X87531214Y-52827783D01*
X87531214Y-52827783D02*
X87632229Y-52794111D01*
X87632229Y-52794111D02*
X87699572Y-52794111D01*
X87699572Y-52794111D02*
X87800588Y-52827783D01*
X87800588Y-52827783D02*
X87901603Y-52928798D01*
X87901603Y-52928798D02*
X87935275Y-53029814D01*
X87935275Y-53029814D02*
X87935275Y-53097157D01*
X87935275Y-53097157D02*
X87901603Y-53198172D01*
X87901603Y-53198172D02*
X87632229Y-53467546D01*
X88507694Y-52322707D02*
X88979099Y-52794111D01*
X88069962Y-52221692D02*
X88406679Y-52895127D01*
X88406679Y-52895127D02*
X88844412Y-52457394D01*
X89719878Y-52053333D02*
X89315817Y-52457394D01*
X89517847Y-52255363D02*
X88810740Y-51548256D01*
X88810740Y-51548256D02*
X88844412Y-51716615D01*
X88844412Y-51716615D02*
X88844412Y-51851302D01*
X88844412Y-51851302D02*
X88810740Y-51952317D01*
X57294795Y-89482504D02*
X56890033Y-90183572D01*
X56890033Y-90183572D02*
X56883653Y-90289860D01*
X56883653Y-90289860D02*
X56901083Y-90354909D01*
X56901083Y-90354909D02*
X56959752Y-90443767D01*
X56959752Y-90443767D02*
X57124710Y-90539005D01*
X57124710Y-90539005D02*
X57230998Y-90545385D01*
X57230998Y-90545385D02*
X57296046Y-90527955D01*
X57296046Y-90527955D02*
X57384905Y-90469286D01*
X57384905Y-90469286D02*
X57789667Y-89768218D01*
X57743299Y-90896148D02*
X57908256Y-90991386D01*
X57908256Y-90991386D02*
X58014544Y-90997766D01*
X58014544Y-90997766D02*
X58079593Y-90980336D01*
X58079593Y-90980336D02*
X58233500Y-90904237D01*
X58233500Y-90904237D02*
X58369978Y-90763089D01*
X58369978Y-90763089D02*
X58560454Y-90433175D01*
X58560454Y-90433175D02*
X58566834Y-90326887D01*
X58566834Y-90326887D02*
X58549404Y-90261838D01*
X58549404Y-90261838D02*
X58490735Y-90172980D01*
X58490735Y-90172980D02*
X58325778Y-90077742D01*
X58325778Y-90077742D02*
X58219490Y-90071362D01*
X58219490Y-90071362D02*
X58154441Y-90088792D01*
X58154441Y-90088792D02*
X58065582Y-90147461D01*
X58065582Y-90147461D02*
X57946535Y-90353657D01*
X57946535Y-90353657D02*
X57940155Y-90459945D01*
X57940155Y-90459945D02*
X57957585Y-90524994D01*
X57957585Y-90524994D02*
X58016254Y-90613853D01*
X58016254Y-90613853D02*
X58181211Y-90709091D01*
X58181211Y-90709091D02*
X58287499Y-90715470D01*
X58287499Y-90715470D02*
X58352548Y-90698041D01*
X58352548Y-90698041D02*
X58441406Y-90639372D01*
X76588458Y-110219580D02*
X76540839Y-110267200D01*
X76540839Y-110267200D02*
X76397982Y-110314819D01*
X76397982Y-110314819D02*
X76302744Y-110314819D01*
X76302744Y-110314819D02*
X76159887Y-110267200D01*
X76159887Y-110267200D02*
X76064649Y-110171961D01*
X76064649Y-110171961D02*
X76017030Y-110076723D01*
X76017030Y-110076723D02*
X75969411Y-109886247D01*
X75969411Y-109886247D02*
X75969411Y-109743390D01*
X75969411Y-109743390D02*
X76017030Y-109552914D01*
X76017030Y-109552914D02*
X76064649Y-109457676D01*
X76064649Y-109457676D02*
X76159887Y-109362438D01*
X76159887Y-109362438D02*
X76302744Y-109314819D01*
X76302744Y-109314819D02*
X76397982Y-109314819D01*
X76397982Y-109314819D02*
X76540839Y-109362438D01*
X76540839Y-109362438D02*
X76588458Y-109410057D01*
X77064649Y-110314819D02*
X77255125Y-110314819D01*
X77255125Y-110314819D02*
X77350363Y-110267200D01*
X77350363Y-110267200D02*
X77397982Y-110219580D01*
X77397982Y-110219580D02*
X77493220Y-110076723D01*
X77493220Y-110076723D02*
X77540839Y-109886247D01*
X77540839Y-109886247D02*
X77540839Y-109505295D01*
X77540839Y-109505295D02*
X77493220Y-109410057D01*
X77493220Y-109410057D02*
X77445601Y-109362438D01*
X77445601Y-109362438D02*
X77350363Y-109314819D01*
X77350363Y-109314819D02*
X77159887Y-109314819D01*
X77159887Y-109314819D02*
X77064649Y-109362438D01*
X77064649Y-109362438D02*
X77017030Y-109410057D01*
X77017030Y-109410057D02*
X76969411Y-109505295D01*
X76969411Y-109505295D02*
X76969411Y-109743390D01*
X76969411Y-109743390D02*
X77017030Y-109838628D01*
X77017030Y-109838628D02*
X77064649Y-109886247D01*
X77064649Y-109886247D02*
X77159887Y-109933866D01*
X77159887Y-109933866D02*
X77350363Y-109933866D01*
X77350363Y-109933866D02*
X77445601Y-109886247D01*
X77445601Y-109886247D02*
X77493220Y-109838628D01*
X77493220Y-109838628D02*
X77540839Y-109743390D01*
X108357142Y-68884819D02*
X108023809Y-68408628D01*
X107785714Y-68884819D02*
X107785714Y-67884819D01*
X107785714Y-67884819D02*
X108166666Y-67884819D01*
X108166666Y-67884819D02*
X108261904Y-67932438D01*
X108261904Y-67932438D02*
X108309523Y-67980057D01*
X108309523Y-67980057D02*
X108357142Y-68075295D01*
X108357142Y-68075295D02*
X108357142Y-68218152D01*
X108357142Y-68218152D02*
X108309523Y-68313390D01*
X108309523Y-68313390D02*
X108261904Y-68361009D01*
X108261904Y-68361009D02*
X108166666Y-68408628D01*
X108166666Y-68408628D02*
X107785714Y-68408628D01*
X108738095Y-67980057D02*
X108785714Y-67932438D01*
X108785714Y-67932438D02*
X108880952Y-67884819D01*
X108880952Y-67884819D02*
X109119047Y-67884819D01*
X109119047Y-67884819D02*
X109214285Y-67932438D01*
X109214285Y-67932438D02*
X109261904Y-67980057D01*
X109261904Y-67980057D02*
X109309523Y-68075295D01*
X109309523Y-68075295D02*
X109309523Y-68170533D01*
X109309523Y-68170533D02*
X109261904Y-68313390D01*
X109261904Y-68313390D02*
X108690476Y-68884819D01*
X108690476Y-68884819D02*
X109309523Y-68884819D01*
X109642857Y-67884819D02*
X110309523Y-67884819D01*
X110309523Y-67884819D02*
X109880952Y-68884819D01*
X80872978Y-81639780D02*
X80346208Y-81394054D01*
X80378106Y-81925495D02*
X79878106Y-81059469D01*
X79878106Y-81059469D02*
X80208021Y-80868993D01*
X80208021Y-80868993D02*
X80314309Y-80862613D01*
X80314309Y-80862613D02*
X80379358Y-80880043D01*
X80379358Y-80880043D02*
X80468216Y-80938712D01*
X80468216Y-80938712D02*
X80539645Y-81062430D01*
X80539645Y-81062430D02*
X80546024Y-81168718D01*
X80546024Y-81168718D02*
X80528595Y-81233767D01*
X80528595Y-81233767D02*
X80469926Y-81322625D01*
X80469926Y-81322625D02*
X80140011Y-81513102D01*
X80620414Y-80630898D02*
X81409089Y-81330257D01*
X81409089Y-81330257D02*
X81197764Y-80297565D01*
X82440072Y-80735018D02*
X81945200Y-81020733D01*
X82192636Y-80877876D02*
X81692636Y-80011850D01*
X81692636Y-80011850D02*
X81681586Y-80183187D01*
X81681586Y-80183187D02*
X81646726Y-80313285D01*
X81646726Y-80313285D02*
X81588057Y-80402143D01*
X105747142Y-88579580D02*
X105699523Y-88627200D01*
X105699523Y-88627200D02*
X105556666Y-88674819D01*
X105556666Y-88674819D02*
X105461428Y-88674819D01*
X105461428Y-88674819D02*
X105318571Y-88627200D01*
X105318571Y-88627200D02*
X105223333Y-88531961D01*
X105223333Y-88531961D02*
X105175714Y-88436723D01*
X105175714Y-88436723D02*
X105128095Y-88246247D01*
X105128095Y-88246247D02*
X105128095Y-88103390D01*
X105128095Y-88103390D02*
X105175714Y-87912914D01*
X105175714Y-87912914D02*
X105223333Y-87817676D01*
X105223333Y-87817676D02*
X105318571Y-87722438D01*
X105318571Y-87722438D02*
X105461428Y-87674819D01*
X105461428Y-87674819D02*
X105556666Y-87674819D01*
X105556666Y-87674819D02*
X105699523Y-87722438D01*
X105699523Y-87722438D02*
X105747142Y-87770057D01*
X106080476Y-87674819D02*
X106699523Y-87674819D01*
X106699523Y-87674819D02*
X106366190Y-88055771D01*
X106366190Y-88055771D02*
X106509047Y-88055771D01*
X106509047Y-88055771D02*
X106604285Y-88103390D01*
X106604285Y-88103390D02*
X106651904Y-88151009D01*
X106651904Y-88151009D02*
X106699523Y-88246247D01*
X106699523Y-88246247D02*
X106699523Y-88484342D01*
X106699523Y-88484342D02*
X106651904Y-88579580D01*
X106651904Y-88579580D02*
X106604285Y-88627200D01*
X106604285Y-88627200D02*
X106509047Y-88674819D01*
X106509047Y-88674819D02*
X106223333Y-88674819D01*
X106223333Y-88674819D02*
X106128095Y-88627200D01*
X106128095Y-88627200D02*
X106080476Y-88579580D01*
X107032857Y-87674819D02*
X107699523Y-87674819D01*
X107699523Y-87674819D02*
X107270952Y-88674819D01*
X71771021Y-43686407D02*
X71705972Y-43668978D01*
X71705972Y-43668978D02*
X71593304Y-43569069D01*
X71593304Y-43569069D02*
X71545685Y-43486591D01*
X71545685Y-43486591D02*
X71515496Y-43339063D01*
X71515496Y-43339063D02*
X71550355Y-43208965D01*
X71550355Y-43208965D02*
X71609024Y-43120107D01*
X71609024Y-43120107D02*
X71750172Y-42983630D01*
X71750172Y-42983630D02*
X71873890Y-42912201D01*
X71873890Y-42912201D02*
X72062657Y-42858202D01*
X72062657Y-42858202D02*
X72168945Y-42851823D01*
X72168945Y-42851823D02*
X72299042Y-42886682D01*
X72299042Y-42886682D02*
X72411710Y-42986591D01*
X72411710Y-42986591D02*
X72459329Y-43069069D01*
X72459329Y-43069069D02*
X72489519Y-43216597D01*
X72489519Y-43216597D02*
X72472089Y-43281645D01*
X72694464Y-44143001D02*
X72117113Y-44476334D01*
X72905331Y-43746328D02*
X72167693Y-43897274D01*
X72167693Y-43897274D02*
X72477217Y-44433385D01*
X73138756Y-44436346D02*
X73203804Y-44453776D01*
X73203804Y-44453776D02*
X73292663Y-44512445D01*
X73292663Y-44512445D02*
X73411710Y-44718641D01*
X73411710Y-44718641D02*
X73418090Y-44824930D01*
X73418090Y-44824930D02*
X73400660Y-44889978D01*
X73400660Y-44889978D02*
X73341991Y-44978837D01*
X73341991Y-44978837D02*
X73259513Y-45026456D01*
X73259513Y-45026456D02*
X73111985Y-45056645D01*
X73111985Y-45056645D02*
X72331399Y-44847488D01*
X72331399Y-44847488D02*
X72640923Y-45383599D01*
X78238095Y-99624819D02*
X78238095Y-100434342D01*
X78238095Y-100434342D02*
X78285714Y-100529580D01*
X78285714Y-100529580D02*
X78333333Y-100577200D01*
X78333333Y-100577200D02*
X78428571Y-100624819D01*
X78428571Y-100624819D02*
X78619047Y-100624819D01*
X78619047Y-100624819D02*
X78714285Y-100577200D01*
X78714285Y-100577200D02*
X78761904Y-100529580D01*
X78761904Y-100529580D02*
X78809523Y-100434342D01*
X78809523Y-100434342D02*
X78809523Y-99624819D01*
X79190476Y-99624819D02*
X79809523Y-99624819D01*
X79809523Y-99624819D02*
X79476190Y-100005771D01*
X79476190Y-100005771D02*
X79619047Y-100005771D01*
X79619047Y-100005771D02*
X79714285Y-100053390D01*
X79714285Y-100053390D02*
X79761904Y-100101009D01*
X79761904Y-100101009D02*
X79809523Y-100196247D01*
X79809523Y-100196247D02*
X79809523Y-100434342D01*
X79809523Y-100434342D02*
X79761904Y-100529580D01*
X79761904Y-100529580D02*
X79714285Y-100577200D01*
X79714285Y-100577200D02*
X79619047Y-100624819D01*
X79619047Y-100624819D02*
X79333333Y-100624819D01*
X79333333Y-100624819D02*
X79238095Y-100577200D01*
X79238095Y-100577200D02*
X79190476Y-100529580D01*
X83886369Y-41238744D02*
X83343683Y-41446975D01*
X83748128Y-41793199D02*
X82777832Y-41551277D01*
X82777832Y-41551277D02*
X82869993Y-41181640D01*
X82869993Y-41181640D02*
X82939237Y-41100751D01*
X82939237Y-41100751D02*
X82996962Y-41066067D01*
X82996962Y-41066067D02*
X83100891Y-41042902D01*
X83100891Y-41042902D02*
X83239505Y-41077463D01*
X83239505Y-41077463D02*
X83320394Y-41146708D01*
X83320394Y-41146708D02*
X83355079Y-41204432D01*
X83355079Y-41204432D02*
X83378243Y-41308361D01*
X83378243Y-41308361D02*
X83286082Y-41677998D01*
X83446867Y-40245781D02*
X84093730Y-40407062D01*
X83019630Y-40384643D02*
X83655098Y-40788467D01*
X83655098Y-40788467D02*
X83804859Y-40187808D01*
X83700557Y-39621957D02*
X83631312Y-39702846D01*
X83631312Y-39702846D02*
X83573588Y-39737531D01*
X83573588Y-39737531D02*
X83469658Y-39760695D01*
X83469658Y-39760695D02*
X83423454Y-39749175D01*
X83423454Y-39749175D02*
X83342565Y-39679930D01*
X83342565Y-39679930D02*
X83307880Y-39622205D01*
X83307880Y-39622205D02*
X83284716Y-39518276D01*
X83284716Y-39518276D02*
X83330796Y-39333458D01*
X83330796Y-39333458D02*
X83400041Y-39252569D01*
X83400041Y-39252569D02*
X83457766Y-39217884D01*
X83457766Y-39217884D02*
X83561695Y-39194720D01*
X83561695Y-39194720D02*
X83607900Y-39206240D01*
X83607900Y-39206240D02*
X83688789Y-39275485D01*
X83688789Y-39275485D02*
X83723473Y-39333210D01*
X83723473Y-39333210D02*
X83746637Y-39437139D01*
X83746637Y-39437139D02*
X83700557Y-39621957D01*
X83700557Y-39621957D02*
X83723721Y-39725886D01*
X83723721Y-39725886D02*
X83758406Y-39783611D01*
X83758406Y-39783611D02*
X83839295Y-39852856D01*
X83839295Y-39852856D02*
X84024113Y-39898936D01*
X84024113Y-39898936D02*
X84128042Y-39875772D01*
X84128042Y-39875772D02*
X84185767Y-39841087D01*
X84185767Y-39841087D02*
X84255012Y-39760198D01*
X84255012Y-39760198D02*
X84301092Y-39575380D01*
X84301092Y-39575380D02*
X84277928Y-39471451D01*
X84277928Y-39471451D02*
X84243243Y-39413726D01*
X84243243Y-39413726D02*
X84162354Y-39344481D01*
X84162354Y-39344481D02*
X83977536Y-39298401D01*
X83977536Y-39298401D02*
X83873607Y-39321565D01*
X83873607Y-39321565D02*
X83815882Y-39356250D01*
X83815882Y-39356250D02*
X83746637Y-39437139D01*
X105309580Y-61882857D02*
X105357200Y-61930476D01*
X105357200Y-61930476D02*
X105404819Y-62073333D01*
X105404819Y-62073333D02*
X105404819Y-62168571D01*
X105404819Y-62168571D02*
X105357200Y-62311428D01*
X105357200Y-62311428D02*
X105261961Y-62406666D01*
X105261961Y-62406666D02*
X105166723Y-62454285D01*
X105166723Y-62454285D02*
X104976247Y-62501904D01*
X104976247Y-62501904D02*
X104833390Y-62501904D01*
X104833390Y-62501904D02*
X104642914Y-62454285D01*
X104642914Y-62454285D02*
X104547676Y-62406666D01*
X104547676Y-62406666D02*
X104452438Y-62311428D01*
X104452438Y-62311428D02*
X104404819Y-62168571D01*
X104404819Y-62168571D02*
X104404819Y-62073333D01*
X104404819Y-62073333D02*
X104452438Y-61930476D01*
X104452438Y-61930476D02*
X104500057Y-61882857D01*
X104500057Y-61501904D02*
X104452438Y-61454285D01*
X104452438Y-61454285D02*
X104404819Y-61359047D01*
X104404819Y-61359047D02*
X104404819Y-61120952D01*
X104404819Y-61120952D02*
X104452438Y-61025714D01*
X104452438Y-61025714D02*
X104500057Y-60978095D01*
X104500057Y-60978095D02*
X104595295Y-60930476D01*
X104595295Y-60930476D02*
X104690533Y-60930476D01*
X104690533Y-60930476D02*
X104833390Y-60978095D01*
X104833390Y-60978095D02*
X105404819Y-61549523D01*
X105404819Y-61549523D02*
X105404819Y-60930476D01*
X104833390Y-60359047D02*
X104785771Y-60454285D01*
X104785771Y-60454285D02*
X104738152Y-60501904D01*
X104738152Y-60501904D02*
X104642914Y-60549523D01*
X104642914Y-60549523D02*
X104595295Y-60549523D01*
X104595295Y-60549523D02*
X104500057Y-60501904D01*
X104500057Y-60501904D02*
X104452438Y-60454285D01*
X104452438Y-60454285D02*
X104404819Y-60359047D01*
X104404819Y-60359047D02*
X104404819Y-60168571D01*
X104404819Y-60168571D02*
X104452438Y-60073333D01*
X104452438Y-60073333D02*
X104500057Y-60025714D01*
X104500057Y-60025714D02*
X104595295Y-59978095D01*
X104595295Y-59978095D02*
X104642914Y-59978095D01*
X104642914Y-59978095D02*
X104738152Y-60025714D01*
X104738152Y-60025714D02*
X104785771Y-60073333D01*
X104785771Y-60073333D02*
X104833390Y-60168571D01*
X104833390Y-60168571D02*
X104833390Y-60359047D01*
X104833390Y-60359047D02*
X104881009Y-60454285D01*
X104881009Y-60454285D02*
X104928628Y-60501904D01*
X104928628Y-60501904D02*
X105023866Y-60549523D01*
X105023866Y-60549523D02*
X105214342Y-60549523D01*
X105214342Y-60549523D02*
X105309580Y-60501904D01*
X105309580Y-60501904D02*
X105357200Y-60454285D01*
X105357200Y-60454285D02*
X105404819Y-60359047D01*
X105404819Y-60359047D02*
X105404819Y-60168571D01*
X105404819Y-60168571D02*
X105357200Y-60073333D01*
X105357200Y-60073333D02*
X105309580Y-60025714D01*
X105309580Y-60025714D02*
X105214342Y-59978095D01*
X105214342Y-59978095D02*
X105023866Y-59978095D01*
X105023866Y-59978095D02*
X104928628Y-60025714D01*
X104928628Y-60025714D02*
X104881009Y-60073333D01*
X104881009Y-60073333D02*
X104833390Y-60168571D01*
X105573825Y-92117036D02*
X105674840Y-91544617D01*
X105169764Y-91712975D02*
X105876871Y-91005869D01*
X105876871Y-91005869D02*
X106146245Y-91275243D01*
X106146245Y-91275243D02*
X106179917Y-91376258D01*
X106179917Y-91376258D02*
X106179917Y-91443601D01*
X106179917Y-91443601D02*
X106146245Y-91544617D01*
X106146245Y-91544617D02*
X106045230Y-91645632D01*
X106045230Y-91645632D02*
X105944214Y-91679304D01*
X105944214Y-91679304D02*
X105876871Y-91679304D01*
X105876871Y-91679304D02*
X105775856Y-91645632D01*
X105775856Y-91645632D02*
X105506482Y-91376258D01*
X106247260Y-92790471D02*
X105843199Y-92386410D01*
X106045230Y-92588441D02*
X106752336Y-91881334D01*
X106752336Y-91881334D02*
X106583978Y-91915006D01*
X106583978Y-91915006D02*
X106449291Y-91915006D01*
X106449291Y-91915006D02*
X106348275Y-91881334D01*
X107324756Y-92925159D02*
X106853352Y-93396563D01*
X107425772Y-92487426D02*
X106752337Y-92824143D01*
X106752337Y-92824143D02*
X107190069Y-93261876D01*
X98657142Y-61159580D02*
X98609523Y-61207200D01*
X98609523Y-61207200D02*
X98466666Y-61254819D01*
X98466666Y-61254819D02*
X98371428Y-61254819D01*
X98371428Y-61254819D02*
X98228571Y-61207200D01*
X98228571Y-61207200D02*
X98133333Y-61111961D01*
X98133333Y-61111961D02*
X98085714Y-61016723D01*
X98085714Y-61016723D02*
X98038095Y-60826247D01*
X98038095Y-60826247D02*
X98038095Y-60683390D01*
X98038095Y-60683390D02*
X98085714Y-60492914D01*
X98085714Y-60492914D02*
X98133333Y-60397676D01*
X98133333Y-60397676D02*
X98228571Y-60302438D01*
X98228571Y-60302438D02*
X98371428Y-60254819D01*
X98371428Y-60254819D02*
X98466666Y-60254819D01*
X98466666Y-60254819D02*
X98609523Y-60302438D01*
X98609523Y-60302438D02*
X98657142Y-60350057D01*
X99038095Y-60350057D02*
X99085714Y-60302438D01*
X99085714Y-60302438D02*
X99180952Y-60254819D01*
X99180952Y-60254819D02*
X99419047Y-60254819D01*
X99419047Y-60254819D02*
X99514285Y-60302438D01*
X99514285Y-60302438D02*
X99561904Y-60350057D01*
X99561904Y-60350057D02*
X99609523Y-60445295D01*
X99609523Y-60445295D02*
X99609523Y-60540533D01*
X99609523Y-60540533D02*
X99561904Y-60683390D01*
X99561904Y-60683390D02*
X98990476Y-61254819D01*
X98990476Y-61254819D02*
X99609523Y-61254819D01*
X100085714Y-61254819D02*
X100276190Y-61254819D01*
X100276190Y-61254819D02*
X100371428Y-61207200D01*
X100371428Y-61207200D02*
X100419047Y-61159580D01*
X100419047Y-61159580D02*
X100514285Y-61016723D01*
X100514285Y-61016723D02*
X100561904Y-60826247D01*
X100561904Y-60826247D02*
X100561904Y-60445295D01*
X100561904Y-60445295D02*
X100514285Y-60350057D01*
X100514285Y-60350057D02*
X100466666Y-60302438D01*
X100466666Y-60302438D02*
X100371428Y-60254819D01*
X100371428Y-60254819D02*
X100180952Y-60254819D01*
X100180952Y-60254819D02*
X100085714Y-60302438D01*
X100085714Y-60302438D02*
X100038095Y-60350057D01*
X100038095Y-60350057D02*
X99990476Y-60445295D01*
X99990476Y-60445295D02*
X99990476Y-60683390D01*
X99990476Y-60683390D02*
X100038095Y-60778628D01*
X100038095Y-60778628D02*
X100085714Y-60826247D01*
X100085714Y-60826247D02*
X100180952Y-60873866D01*
X100180952Y-60873866D02*
X100371428Y-60873866D01*
X100371428Y-60873866D02*
X100466666Y-60826247D01*
X100466666Y-60826247D02*
X100514285Y-60778628D01*
X100514285Y-60778628D02*
X100561904Y-60683390D01*
X49496122Y-93453174D02*
X49513552Y-93518222D01*
X49513552Y-93518222D02*
X49483363Y-93665750D01*
X49483363Y-93665750D02*
X49435744Y-93748229D01*
X49435744Y-93748229D02*
X49323076Y-93848137D01*
X49323076Y-93848137D02*
X49192978Y-93882996D01*
X49192978Y-93882996D02*
X49086690Y-93876617D01*
X49086690Y-93876617D02*
X48897923Y-93822618D01*
X48897923Y-93822618D02*
X48774205Y-93751189D01*
X48774205Y-93751189D02*
X48633058Y-93614712D01*
X48633058Y-93614712D02*
X48574389Y-93525854D01*
X48574389Y-93525854D02*
X48539529Y-93395756D01*
X48539529Y-93395756D02*
X48569718Y-93248229D01*
X48569718Y-93248229D02*
X48617337Y-93165750D01*
X48617337Y-93165750D02*
X48730005Y-93065842D01*
X48730005Y-93065842D02*
X48795054Y-93048412D01*
X49429822Y-92425152D02*
X50007172Y-92758485D01*
X48980860Y-92440872D02*
X49480402Y-93004212D01*
X49480402Y-93004212D02*
X49789926Y-92468101D01*
X49845634Y-91895421D02*
X49756776Y-91954090D01*
X49756776Y-91954090D02*
X49691727Y-91971519D01*
X49691727Y-91971519D02*
X49585439Y-91965140D01*
X49585439Y-91965140D02*
X49544199Y-91941330D01*
X49544199Y-91941330D02*
X49485530Y-91852472D01*
X49485530Y-91852472D02*
X49468100Y-91787423D01*
X49468100Y-91787423D02*
X49474480Y-91681135D01*
X49474480Y-91681135D02*
X49569718Y-91516178D01*
X49569718Y-91516178D02*
X49658577Y-91457509D01*
X49658577Y-91457509D02*
X49723625Y-91440079D01*
X49723625Y-91440079D02*
X49829914Y-91446459D01*
X49829914Y-91446459D02*
X49871153Y-91470268D01*
X49871153Y-91470268D02*
X49929822Y-91559126D01*
X49929822Y-91559126D02*
X49947252Y-91624175D01*
X49947252Y-91624175D02*
X49940872Y-91730463D01*
X49940872Y-91730463D02*
X49845634Y-91895421D01*
X49845634Y-91895421D02*
X49839254Y-92001709D01*
X49839254Y-92001709D02*
X49856684Y-92066758D01*
X49856684Y-92066758D02*
X49915353Y-92155616D01*
X49915353Y-92155616D02*
X50080310Y-92250854D01*
X50080310Y-92250854D02*
X50186598Y-92257234D01*
X50186598Y-92257234D02*
X50251647Y-92239804D01*
X50251647Y-92239804D02*
X50340506Y-92181135D01*
X50340506Y-92181135D02*
X50435744Y-92016178D01*
X50435744Y-92016178D02*
X50442123Y-91909890D01*
X50442123Y-91909890D02*
X50424694Y-91844841D01*
X50424694Y-91844841D02*
X50366025Y-91755982D01*
X50366025Y-91755982D02*
X50201067Y-91660744D01*
X50201067Y-91660744D02*
X50094779Y-91654365D01*
X50094779Y-91654365D02*
X50029730Y-91671794D01*
X50029730Y-91671794D02*
X49940872Y-91730463D01*
D12*
X72670000Y-100243733D02*
X72670000Y-100536267D01*
X71650000Y-100243733D02*
X71650000Y-100536267D01*
X55841671Y-58468539D02*
X55588329Y-58614806D01*
X55331671Y-57585194D02*
X55078329Y-57731461D01*
X69048329Y-97065194D02*
X69301671Y-97211461D01*
X68538329Y-97948539D02*
X68791671Y-98094806D01*
X82521267Y-100635000D02*
X82228733Y-100635000D01*
X82521267Y-99615000D02*
X82228733Y-99615000D01*
X74584220Y-94719848D02*
X92285779Y-84499848D01*
X74584220Y-94719848D02*
X73284220Y-92468182D01*
X92285779Y-84499848D02*
X89685779Y-79996516D01*
X73284220Y-92468182D02*
X75535886Y-91168182D01*
X75535886Y-91168182D02*
X74235886Y-88916516D01*
X72649220Y-91368330D02*
X71984220Y-90216516D01*
X71984220Y-90216516D02*
X73136034Y-89551516D01*
X74235886Y-88916516D02*
X89685779Y-79996516D01*
X82521267Y-99160000D02*
X82228733Y-99160000D01*
X82521267Y-98140000D02*
X82228733Y-98140000D01*
X61430565Y-95082952D02*
X63607629Y-91312166D01*
X64392371Y-96792952D02*
X66569435Y-93022166D01*
X88457890Y-53912664D02*
X88827357Y-53543197D01*
X89497337Y-54952111D02*
X89866804Y-54582644D01*
X57605565Y-101708046D02*
X59782629Y-97937260D01*
X60567371Y-103418046D02*
X62744435Y-99647260D01*
X94731815Y-101208913D02*
X95336392Y-101813490D01*
X97542565Y-104019663D02*
X98214316Y-104691414D01*
X98214316Y-104691414D02*
X104691414Y-98214316D01*
X101208913Y-94731815D02*
X101813490Y-95336392D01*
X104019663Y-97542565D02*
X104691414Y-98214316D01*
X52886249Y-50344097D02*
X53338751Y-50082845D01*
X53621249Y-51617155D02*
X54073751Y-51355903D01*
X50454759Y-85136443D02*
X50396437Y-84849782D01*
X51454283Y-84933088D02*
X51395961Y-84646427D01*
X84653733Y-101090000D02*
X84946267Y-101090000D01*
X84653733Y-102110000D02*
X84946267Y-102110000D01*
X49965271Y-84937504D02*
X50023593Y-85224165D01*
X48965747Y-85140859D02*
X49024069Y-85427520D01*
X90332126Y-56430328D02*
X89971501Y-56069704D01*
X94200000Y-60298202D02*
X93669670Y-59767872D01*
X90332126Y-55369668D02*
X90013928Y-55687866D01*
X94730330Y-59767872D02*
X94200000Y-60298202D01*
X93669670Y-52032124D02*
X94200000Y-51501794D01*
X98067874Y-56430328D02*
X98598204Y-55899998D01*
X94200000Y-51501794D02*
X94730330Y-52032124D01*
X98598204Y-55899998D02*
X98067874Y-55369668D01*
X89801796Y-55899998D02*
X89398745Y-55836358D01*
X89738156Y-55496947D01*
X89801796Y-55899998D01*
G36*
X89801796Y-55899998D02*
G01*
X89398745Y-55836358D01*
X89738156Y-55496947D01*
X89801796Y-55899998D01*
G37*
X102943733Y-86280000D02*
X103236267Y-86280000D01*
X102943733Y-87300000D02*
X103236267Y-87300000D01*
X74408153Y-84244864D02*
X74849347Y-83990140D01*
X74930653Y-85149860D02*
X75371847Y-84895136D01*
X108745276Y-64477500D02*
X109254724Y-64477500D01*
X108745276Y-65522500D02*
X109254724Y-65522500D01*
X73636249Y-82464097D02*
X74088751Y-82202845D01*
X74371249Y-83737155D02*
X74823751Y-83475903D01*
X89811908Y-48025851D02*
X90236172Y-48450115D01*
X88574471Y-47566232D02*
X88150207Y-47990496D01*
X90271527Y-49404709D02*
X88291628Y-51384608D01*
X88574471Y-47990496D02*
X88574471Y-47566232D01*
X88574471Y-47990496D02*
X88150207Y-47990496D01*
X86877415Y-49970395D02*
X88857314Y-47990496D01*
X87337034Y-51349253D02*
X86912770Y-50924989D01*
X90236171Y-48450116D02*
G75*
G02*
X90236171Y-49440064I-494972J-494974D01*
G01*
X88821959Y-48025852D02*
G75*
G02*
X89811907Y-48025852I494974J-494972D01*
G01*
X88326984Y-51349253D02*
G75*
G02*
X87337034Y-51349253I-494975J494975D01*
G01*
X86912770Y-50924989D02*
G75*
G02*
X86912770Y-49935039I494975J494975D01*
G01*
X50731514Y-73292505D02*
X50833081Y-73791726D01*
X49707493Y-73500844D02*
X49809060Y-74000065D01*
X81084821Y-46880441D02*
X80353605Y-52835717D01*
X75903731Y-46244283D02*
X75172515Y-52199559D01*
X81305782Y-46393741D02*
X80829360Y-46335244D01*
X80887857Y-45858822D01*
X81305782Y-46393741D01*
G36*
X81305782Y-46393741D02*
G01*
X80829360Y-46335244D01*
X80887857Y-45858822D01*
X81305782Y-46393741D01*
G37*
X85330000Y-72400000D02*
X75050000Y-72400000D01*
X85330000Y-72400000D02*
X85330000Y-75000000D01*
X75050000Y-72400000D02*
X75050000Y-77600000D01*
X85330000Y-75000000D02*
X82730000Y-75000000D01*
X82730000Y-75000000D02*
X82730000Y-77600000D01*
X85330000Y-76270000D02*
X85330000Y-77600000D01*
X85330000Y-77600000D02*
X84000000Y-77600000D01*
X82730000Y-77600000D02*
X75050000Y-77600000D01*
X69957966Y-51606942D02*
X71646716Y-50631942D01*
X69957966Y-51606942D02*
X68269216Y-52581942D01*
X64897966Y-42842764D02*
X66586716Y-41867764D01*
X64897966Y-42842764D02*
X63209216Y-43817764D01*
X72641581Y-50375099D02*
X72225888Y-50615099D01*
X72268735Y-50209310D01*
X72641581Y-50375099D01*
G36*
X72641581Y-50375099D02*
G01*
X72225888Y-50615099D01*
X72268735Y-50209310D01*
X72641581Y-50375099D01*
G37*
X102813084Y-91657951D02*
X101207951Y-93263084D01*
X101207951Y-93263084D02*
X104078805Y-96133937D01*
X105683937Y-94528805D02*
X102813084Y-91657951D01*
X64630000Y-69860000D02*
X64630000Y-80140000D01*
X64630000Y-69860000D02*
X67230000Y-69860000D01*
X64630000Y-80140000D02*
X69830000Y-80140000D01*
X67230000Y-69860000D02*
X67230000Y-72460000D01*
X67230000Y-72460000D02*
X69830000Y-72460000D01*
X68500000Y-69860000D02*
X69830000Y-69860000D01*
X69830000Y-69860000D02*
X69830000Y-71190000D01*
X69830000Y-72460000D02*
X69830000Y-80140000D01*
X52130430Y-84795523D02*
X52072108Y-84508862D01*
X53129954Y-84592168D02*
X53071632Y-84305507D01*
X97780000Y-82330000D02*
X97780000Y-84280000D01*
X97780000Y-82330000D02*
X97780000Y-80380000D01*
X107900000Y-82330000D02*
X107900000Y-84280000D01*
X107900000Y-82330000D02*
X107900000Y-80380000D01*
X97835000Y-85030000D02*
X97505000Y-85270000D01*
X97505000Y-84790000D01*
X97835000Y-85030000D01*
G36*
X97835000Y-85030000D02*
G01*
X97505000Y-85270000D01*
X97505000Y-84790000D01*
X97835000Y-85030000D01*
G37*
X76096004Y-44657400D02*
X76827220Y-38702124D01*
X81277094Y-45293558D02*
X82008310Y-39338282D01*
X76351465Y-45202597D02*
X76292968Y-45679019D01*
X75875043Y-45144100D01*
X76351465Y-45202597D01*
G36*
X76351465Y-45202597D02*
G01*
X76292968Y-45679019D01*
X75875043Y-45144100D01*
X76351465Y-45202597D01*
G37*
X60567371Y-46581954D02*
X62744435Y-50352740D01*
X57605565Y-48291954D02*
X59782629Y-52062740D01*
X42949226Y-81550823D02*
X42890904Y-81264162D01*
X43948750Y-81347468D02*
X43890428Y-81060807D01*
X83927937Y-44010925D02*
X84076885Y-43523737D01*
X84927275Y-44316453D02*
X85076223Y-43829265D01*
X91652365Y-92854446D02*
X89318912Y-95187899D01*
X91440233Y-92642314D02*
X91652365Y-92854446D01*
X89884598Y-91086679D02*
X89672466Y-90874547D01*
X89672466Y-90874547D02*
X87339013Y-93208000D01*
X89318912Y-95187899D02*
X89106780Y-94975767D01*
X87339013Y-93208000D02*
X87551145Y-93420132D01*
X72490304Y-48118079D02*
X72235580Y-47676885D01*
X73395300Y-47595579D02*
X73140576Y-47154385D01*
X106827064Y-76710000D02*
X102472936Y-76710000D01*
X106827064Y-73290000D02*
X102472936Y-73290000D01*
X48579755Y-96161208D02*
X48726022Y-95907866D01*
X49463100Y-96671208D02*
X49609367Y-96417866D01*
X85537545Y-44520647D02*
X85711786Y-44041922D01*
X86519524Y-44878058D02*
X86693765Y-44399333D01*
X97683733Y-64030000D02*
X97976267Y-64030000D01*
X97683733Y-65050000D02*
X97976267Y-65050000D01*
X69172500Y-103545276D02*
X69172500Y-104054724D01*
X68127500Y-103545276D02*
X68127500Y-104054724D01*
X64392372Y-53207048D02*
X66569436Y-56977834D01*
X61430566Y-54917048D02*
X63607630Y-58687834D01*
X91790726Y-50312284D02*
X92150960Y-50672518D01*
X91051800Y-51051210D02*
X91412034Y-51411444D01*
X48378370Y-74291143D02*
X48276803Y-73791922D01*
X49402391Y-74082804D02*
X49300824Y-73583583D01*
X98227500Y-67174724D02*
X98227500Y-66665276D01*
X99272500Y-67174724D02*
X99272500Y-66665276D01*
X99177064Y-76710000D02*
X94822936Y-76710000D01*
X99177064Y-73290000D02*
X94822936Y-73290000D01*
X97599580Y-51389346D02*
X97239346Y-51749580D01*
X96860654Y-50650420D02*
X96500420Y-51010654D01*
D13*
X69650000Y-102400000D02*
X69870000Y-102400000D01*
X69650000Y-102400000D02*
X69650000Y-103120000D01*
X72350000Y-102600000D02*
X72350000Y-103120000D01*
X72350000Y-104880000D02*
X72350000Y-105600000D01*
X72350000Y-105600000D02*
X72130000Y-105600000D01*
X69870000Y-105600000D02*
X69650000Y-105600000D01*
X69650000Y-105600000D02*
X69650000Y-104880000D01*
X72710000Y-102400000D02*
X72350000Y-102400000D01*
X72350000Y-102040000D01*
X72710000Y-102400000D01*
G36*
X72710000Y-102400000D02*
G01*
X72350000Y-102400000D01*
X72350000Y-102040000D01*
X72710000Y-102400000D01*
G37*
D12*
X90874547Y-89672466D02*
X93208000Y-87339013D01*
X91086679Y-89884598D02*
X90874547Y-89672466D01*
X92642314Y-91440233D02*
X92854446Y-91652365D01*
X92854446Y-91652365D02*
X95187899Y-89318912D01*
X93208000Y-87339013D02*
X93420132Y-87551145D01*
X95187899Y-89318912D02*
X94975767Y-89106780D01*
X64518329Y-104975194D02*
X64771671Y-105121461D01*
X64008329Y-105858539D02*
X64261671Y-106004806D01*
X69883978Y-41538792D02*
X70030245Y-41792134D01*
X69000633Y-42048792D02*
X69146900Y-42302134D01*
X87118270Y-45113909D02*
X87317327Y-44644959D01*
X88080197Y-45522223D02*
X88279254Y-45053273D01*
X104885000Y-63390000D02*
X105370000Y-63390000D01*
X100390000Y-63390000D02*
X101115000Y-63390000D01*
X105610000Y-64115000D02*
X105610000Y-63690000D01*
X100390000Y-64115000D02*
X100390000Y-63390000D01*
X105610000Y-67885000D02*
X105610000Y-68610000D01*
X100390000Y-67885000D02*
X100390000Y-68610000D01*
X105610000Y-68610000D02*
X104885000Y-68610000D01*
X100390000Y-68610000D02*
X101115000Y-68610000D01*
X105940000Y-63630000D02*
X105610000Y-63390000D01*
X105940000Y-63150000D01*
X105940000Y-63630000D01*
G36*
X105940000Y-63630000D02*
G01*
X105610000Y-63390000D01*
X105940000Y-63150000D01*
X105940000Y-63630000D01*
G37*
X78083751Y-81585903D02*
X77631249Y-81847155D01*
X77348751Y-80312845D02*
X76896249Y-80574097D01*
X82521267Y-97685000D02*
X82228733Y-97685000D01*
X82521267Y-96665000D02*
X82228733Y-96665000D01*
X99535276Y-86267500D02*
X100044724Y-86267500D01*
X99535276Y-87312500D02*
X100044724Y-87312500D01*
X50712588Y-75761926D02*
X51212350Y-75660248D01*
X45352400Y-76852468D02*
X46087343Y-76702942D01*
X51597058Y-76347343D02*
X51507342Y-75906377D01*
X45501926Y-77587412D02*
X45352400Y-76852468D01*
X52538074Y-80972588D02*
X52687600Y-81707532D01*
X46442942Y-82212657D02*
X46592468Y-82947600D01*
X52687600Y-81707532D02*
X51952657Y-81857058D01*
X46592468Y-82947600D02*
X47327412Y-82798074D01*
X51818755Y-75781790D02*
X51447532Y-75612400D01*
X51723058Y-75311427D01*
X51818755Y-75781790D01*
G36*
X51818755Y-75781790D02*
G01*
X51447532Y-75612400D01*
X51723058Y-75311427D01*
X51818755Y-75781790D01*
G37*
X52974421Y-90614422D02*
X52719697Y-91055616D01*
X52069425Y-90091922D02*
X51814701Y-90533116D01*
X69426267Y-107200000D02*
X69133733Y-107200000D01*
X69426267Y-106180000D02*
X69133733Y-106180000D01*
X74130000Y-100243733D02*
X74130000Y-100536267D01*
X73110000Y-100243733D02*
X73110000Y-100536267D01*
X90730068Y-51372943D02*
X91090302Y-51733177D01*
X89991142Y-52111869D02*
X90351376Y-52472103D01*
X57262034Y-91063058D02*
X55573284Y-90088058D01*
X57262034Y-91063058D02*
X58950784Y-92038058D01*
X52202034Y-99827236D02*
X50513284Y-98852236D01*
X52202034Y-99827236D02*
X53890784Y-100802236D01*
X55269112Y-89594901D02*
X54896265Y-89760690D01*
X54853419Y-89354901D01*
X55269112Y-89594901D01*
G36*
X55269112Y-89594901D02*
G01*
X54896265Y-89760690D01*
X54853419Y-89354901D01*
X55269112Y-89594901D01*
G37*
X79183733Y-109350000D02*
X79476267Y-109350000D01*
X79183733Y-110370000D02*
X79476267Y-110370000D01*
X109254724Y-67522500D02*
X108745276Y-67522500D01*
X109254724Y-66477500D02*
X108745276Y-66477500D01*
X79041847Y-82775136D02*
X78600653Y-83029860D01*
X78519347Y-81870140D02*
X78078153Y-82124864D01*
X106536267Y-87300000D02*
X106243733Y-87300000D01*
X106536267Y-86280000D02*
X106243733Y-86280000D01*
X92285780Y-65500152D02*
X74584221Y-55280152D01*
X92285780Y-65500152D02*
X90985780Y-67751818D01*
X74584221Y-55280152D02*
X71984221Y-59783484D01*
X90985780Y-67751818D02*
X88734114Y-66451818D01*
X88734114Y-66451818D02*
X87434114Y-68703484D01*
X90350780Y-68851670D02*
X89685780Y-70003484D01*
X89685780Y-70003484D02*
X88533966Y-69338484D01*
X87434114Y-68703484D02*
X71984221Y-59783484D01*
X70796901Y-45160019D02*
X70650634Y-44906677D01*
X71680246Y-44650019D02*
X71533979Y-44396677D01*
X58130000Y-64780000D02*
X58130000Y-85220000D01*
X58130000Y-64780000D02*
X60730000Y-64780000D01*
X58130000Y-85220000D02*
X63330000Y-85220000D01*
X60730000Y-64780000D02*
X60730000Y-67380000D01*
X60730000Y-67380000D02*
X63330000Y-67380000D01*
X62000000Y-64780000D02*
X63330000Y-64780000D01*
X63330000Y-64780000D02*
X63330000Y-66110000D01*
X63330000Y-67380000D02*
X63330000Y-85220000D01*
X75390000Y-102040000D02*
X75390000Y-101630000D01*
X75390000Y-108610000D02*
X75390000Y-107960000D01*
X76040000Y-101390000D02*
X75690000Y-101390000D01*
X76040000Y-108610000D02*
X75390000Y-108610000D01*
X81960000Y-101390000D02*
X82610000Y-101390000D01*
X81960000Y-108610000D02*
X82610000Y-108610000D01*
X82610000Y-101390000D02*
X82610000Y-102040000D01*
X82610000Y-108610000D02*
X82610000Y-107960000D01*
X75390000Y-101390000D02*
X75150000Y-101060000D01*
X75630000Y-101060000D01*
X75390000Y-101390000D01*
G36*
X75390000Y-101390000D02*
G01*
X75150000Y-101060000D01*
X75630000Y-101060000D01*
X75390000Y-101390000D01*
G37*
X82293859Y-43586141D02*
X82417106Y-43091826D01*
X83307818Y-43838950D02*
X83431065Y-43344635D01*
X104030000Y-61093733D02*
X104030000Y-61386267D01*
X103010000Y-61093733D02*
X103010000Y-61386267D01*
X105210654Y-93749580D02*
X104850420Y-93389346D01*
X105949580Y-93010654D02*
X105589346Y-92650420D01*
X100303733Y-61650000D02*
X100596267Y-61650000D01*
X100303733Y-62670000D02*
X100596267Y-62670000D01*
X51259367Y-93559982D02*
X51113100Y-93813324D01*
X50376022Y-93049982D02*
X50229755Y-93303324D01*
X97070000Y-68320000D02*
X96470000Y-68320000D01*
X95770000Y-67620000D02*
X95770000Y-66220000D01*
X97770000Y-66220000D02*
X97770000Y-67620000D01*
X96470000Y-65520000D02*
X97070000Y-65520000D01*
X96470000Y-68320000D02*
G75*
G02*
X95770000Y-67620000I-1J699999D01*
G01*
X97770000Y-67620000D02*
G75*
G02*
X97070000Y-68320000I-699999J-1D01*
G01*
X95770000Y-66220000D02*
G75*
G02*
X96470000Y-65520000I700000J0D01*
G01*
X97070000Y-65520000D02*
G75*
G02*
X97770000Y-66220000I0J-700000D01*
G01*
%LPC*%
D14*
X77529555Y-49000465D02*
X77127386Y-52275867D01*
X75892063Y-52124189D01*
X76294232Y-48848786D01*
X77529555Y-49000465D01*
G36*
X77529555Y-49000465D02*
G01*
X77127386Y-52275867D01*
X75892063Y-52124189D01*
X76294232Y-48848786D01*
X77529555Y-49000465D01*
G37*
X81288762Y-39413652D02*
X80886593Y-42689055D01*
X79651270Y-42537376D01*
X80053439Y-39261974D01*
X81288762Y-39413652D01*
G36*
X81288762Y-39413652D02*
G01*
X80886593Y-42689055D01*
X79651270Y-42537376D01*
X80053439Y-39261974D01*
X81288762Y-39413652D01*
G37*
D15*
X72160000Y-99527500D03*
X72160000Y-101252500D03*
D16*
X56206947Y-57668750D03*
X54713053Y-58531250D03*
D17*
X68173053Y-97148750D03*
X69666947Y-98011250D03*
D18*
X83237500Y-100125000D03*
X81512500Y-100125000D03*
D19*
X73801034Y-90703330D03*
D20*
X75071034Y-92903035D03*
X76000739Y-89433330D03*
X77270739Y-91633035D03*
X78200443Y-88163330D03*
X79470443Y-90363035D03*
X80400148Y-86893330D03*
X81670148Y-89093035D03*
X82599852Y-85623330D03*
X83869852Y-87823035D03*
X84799557Y-84353330D03*
X86069557Y-86553035D03*
X86999261Y-83083330D03*
X88269261Y-85283035D03*
X89198966Y-81813330D03*
X90468966Y-84013035D03*
D18*
X83237500Y-98650000D03*
X81512500Y-98650000D03*
D21*
X62518750Y-96618159D03*
X65481250Y-91486959D03*
D22*
X88428724Y-54981277D03*
X89895970Y-53514031D03*
D21*
X58693750Y-103243253D03*
X61656250Y-98112053D03*
D23*
X95329320Y-99571961D03*
D24*
X98652722Y-100632621D03*
X100632621Y-98652722D03*
D25*
X99571961Y-95329320D03*
D26*
X94480792Y-98864854D03*
X95011122Y-98334524D03*
D27*
X95435386Y-97910260D03*
X96496047Y-96849600D03*
X97203153Y-96142493D03*
X97910260Y-95435386D03*
D26*
X98334524Y-95011122D03*
X98864854Y-94480792D03*
X98864854Y-94480792D03*
X98334524Y-95011122D03*
D27*
X97556707Y-95788940D03*
X96849600Y-96496047D03*
X96142493Y-97203153D03*
X95788940Y-97556707D03*
D26*
X95011122Y-98334524D03*
X94480792Y-98864854D03*
D28*
X93883287Y-99992690D03*
D29*
X96587971Y-102697373D03*
D28*
X99992690Y-93883287D03*
D29*
X102697373Y-96587971D03*
D30*
X52581499Y-51368750D03*
X54378501Y-50331250D03*
D31*
X51097315Y-85736620D03*
X50753405Y-84046250D03*
D32*
X83937500Y-101600000D03*
X85662500Y-101600000D03*
D33*
X49322715Y-84337327D03*
X49666625Y-86027697D03*
D34*
X90814726Y-56527555D03*
X91274346Y-56987175D03*
X91733965Y-57446794D03*
X92193585Y-57906413D03*
X92653204Y-58366033D03*
X93112823Y-58825652D03*
X93572443Y-59285272D03*
D35*
X94827557Y-59285272D03*
X95287177Y-58825652D03*
X95746796Y-58366033D03*
X96206415Y-57906413D03*
X96666035Y-57446794D03*
X97125654Y-56987175D03*
X97585274Y-56527555D03*
D34*
X97585274Y-55272441D03*
X97125654Y-54812821D03*
X96666035Y-54353202D03*
X96206415Y-53893583D03*
X95746796Y-53433963D03*
X95287177Y-52974344D03*
X94827557Y-52514724D03*
D35*
X93572443Y-52514724D03*
X93112823Y-52974344D03*
X92653204Y-53433963D03*
X92193585Y-53893583D03*
X91733965Y-54353202D03*
X91274346Y-54812821D03*
X90814726Y-55272441D03*
D36*
X94200000Y-55899998D03*
D32*
X102227500Y-86790000D03*
X103952500Y-86790000D03*
D37*
X74099752Y-85026250D03*
X75680248Y-84113750D03*
D38*
X108087500Y-65000000D03*
X109912500Y-65000000D03*
D30*
X73331499Y-83488750D03*
X75128501Y-82451250D03*
D39*
X89493710Y-48768313D03*
D40*
X88574471Y-49687552D03*
D41*
X87655232Y-50606791D03*
D42*
X50088364Y-72752104D03*
X50452210Y-74540466D03*
D43*
X68000000Y-87124356D03*
D44*
X80365273Y-46955811D03*
X79104739Y-46801037D03*
X77844205Y-46646263D03*
X76583672Y-46491489D03*
D45*
X77152597Y-52278963D03*
X79678322Y-52591602D03*
D46*
X84000000Y-76270000D03*
D47*
X84000000Y-73730000D03*
X81460000Y-76270000D03*
X81460000Y-73730000D03*
X78920000Y-76270000D03*
X78920000Y-73730000D03*
X76380000Y-76270000D03*
X76380000Y-73730000D03*
D48*
X71793879Y-49836836D03*
X71158879Y-48736984D03*
X70523879Y-47637131D03*
X69888879Y-46537279D03*
X69253879Y-45437427D03*
X68618879Y-44337575D03*
X67983879Y-43237722D03*
X67348879Y-42137870D03*
X63062053Y-44612870D03*
X63697053Y-45712722D03*
X64332053Y-46812575D03*
X64967053Y-47912427D03*
X65602053Y-49012279D03*
X66237053Y-50112131D03*
X66872053Y-51211984D03*
X67507053Y-52311836D03*
D49*
X102698179Y-93148179D03*
X104801821Y-95251821D03*
D46*
X68500000Y-71190000D03*
D47*
X65960000Y-71190000D03*
X68500000Y-73730000D03*
X65960000Y-73730000D03*
X68500000Y-76270000D03*
X65960000Y-76270000D03*
X68500000Y-78810000D03*
X65960000Y-78810000D03*
D31*
X52772986Y-85395700D03*
X52429076Y-83705330D03*
D50*
X98395000Y-84805000D03*
X99665000Y-84805000D03*
X100935000Y-84805000D03*
X102205000Y-84805000D03*
X103475000Y-84805000D03*
X104745000Y-84805000D03*
X106015000Y-84805000D03*
X107285000Y-84805000D03*
X107285000Y-79855000D03*
X106015000Y-79855000D03*
X104745000Y-79855000D03*
X103475000Y-79855000D03*
X102205000Y-79855000D03*
X100935000Y-79855000D03*
X99665000Y-79855000D03*
X98395000Y-79855000D03*
D51*
X76815552Y-44582030D03*
X78076086Y-44736804D03*
X79336620Y-44891578D03*
X80597153Y-45046352D03*
D52*
X80028228Y-39258878D03*
X77502503Y-38946239D03*
D53*
X58693750Y-46756747D03*
X61656250Y-51887947D03*
D31*
X43591782Y-82151000D03*
X43247872Y-80460630D03*
D54*
X84235291Y-44792723D03*
X84768869Y-43047467D03*
D55*
X90697771Y-91829141D03*
X88293607Y-94233305D03*
D56*
X73271690Y-48426480D03*
X72359190Y-46845984D03*
D57*
X107612500Y-75000000D03*
X101687500Y-75000000D03*
D58*
X48663311Y-97036484D03*
X49525811Y-95542590D03*
D59*
X85803562Y-45317460D03*
X86427748Y-43602520D03*
D32*
X96967500Y-64540000D03*
X98692500Y-64540000D03*
D60*
X68650000Y-102887500D03*
X68650000Y-104712500D03*
D53*
X62518751Y-53381841D03*
X65481251Y-58513041D03*
D61*
X90956145Y-50216629D03*
X92246615Y-51507099D03*
D62*
X49021520Y-74831544D03*
X48657674Y-73043182D03*
D63*
X98750000Y-67832500D03*
X98750000Y-66007500D03*
D64*
X41000000Y-75000000D03*
D57*
X99962500Y-75000000D03*
X94037500Y-75000000D03*
D65*
X97695235Y-50554765D03*
X96404765Y-51845235D03*
D66*
X71750000Y-102737500D03*
X71250000Y-102737500D03*
X70750000Y-102737500D03*
X70250000Y-102737500D03*
D67*
X69987500Y-103500000D03*
X69987500Y-104000000D03*
X69987500Y-104500000D03*
D66*
X70250000Y-105262500D03*
X70750000Y-105262500D03*
X71250000Y-105262500D03*
X71750000Y-105262500D03*
D67*
X72012500Y-104500000D03*
X72012500Y-104000000D03*
X72012500Y-103500000D03*
D68*
X91829141Y-90697771D03*
X94233305Y-88293607D03*
D17*
X63643053Y-105058750D03*
X65136947Y-105921250D03*
D69*
X69084189Y-41173516D03*
X69946689Y-42667410D03*
D70*
X87342220Y-45923552D03*
X88055304Y-44243630D03*
D71*
X104500000Y-63537500D03*
X104000000Y-63537500D03*
X103500000Y-63537500D03*
X103000000Y-63537500D03*
X102500000Y-63537500D03*
X102000000Y-63537500D03*
X101500000Y-63537500D03*
D72*
X100537500Y-64500000D03*
X100537500Y-65000000D03*
X100537500Y-65500000D03*
X100537500Y-66000000D03*
X100537500Y-66500000D03*
X100537500Y-67000000D03*
X100537500Y-67500000D03*
D71*
X101500000Y-68462500D03*
X102000000Y-68462500D03*
X102500000Y-68462500D03*
X103000000Y-68462500D03*
X103500000Y-68462500D03*
X104000000Y-68462500D03*
X104500000Y-68462500D03*
D72*
X105462500Y-67500000D03*
X105462500Y-67000000D03*
X105462500Y-66500000D03*
X105462500Y-66000000D03*
X105462500Y-65500000D03*
X105462500Y-65000000D03*
X105462500Y-64500000D03*
D73*
X103000000Y-66000000D03*
D74*
X78388501Y-80561250D03*
X76591499Y-81598750D03*
D18*
X83237500Y-97175000D03*
X81512500Y-97175000D03*
D38*
X98877500Y-86790000D03*
X100702500Y-86790000D03*
D64*
X92000000Y-104444864D03*
D75*
X50365147Y-76110696D03*
X49728196Y-76240285D03*
X49091245Y-76369874D03*
X48454293Y-76499464D03*
X47817342Y-76629053D03*
X47180391Y-76758642D03*
X46543440Y-76888231D03*
D76*
X45850696Y-77934853D03*
X45980285Y-78571804D03*
X46109874Y-79208755D03*
X46239464Y-79845707D03*
X46369053Y-80482658D03*
X46498642Y-81119609D03*
X46628231Y-81756560D03*
D75*
X47674853Y-82449304D03*
X48311804Y-82319715D03*
X48948755Y-82190126D03*
X49585707Y-82060536D03*
X50222658Y-81930947D03*
X50859609Y-81801358D03*
X51496560Y-81671769D03*
D76*
X52189304Y-80625147D03*
X52059715Y-79988196D03*
X51930126Y-79351245D03*
X51800536Y-78714293D03*
X51670947Y-78077342D03*
X51541358Y-77440391D03*
X51411769Y-76803440D03*
D77*
X49020000Y-79280000D03*
D78*
X52850811Y-89783521D03*
X51938311Y-91364017D03*
D18*
X70142500Y-106690000D03*
X68417500Y-106690000D03*
D15*
X73620000Y-99527500D03*
X73620000Y-101252500D03*
D61*
X89895487Y-51277288D03*
X91185957Y-52567758D03*
D79*
X54811121Y-90358164D03*
X54176121Y-91458016D03*
X53541121Y-92557869D03*
X52906121Y-93657721D03*
X52271121Y-94757573D03*
X51636121Y-95857425D03*
X51001121Y-96957278D03*
X50366121Y-98057130D03*
X54652947Y-100532130D03*
X55287947Y-99432278D03*
X55922947Y-98332425D03*
X56557947Y-97232573D03*
X57192947Y-96132721D03*
X57827947Y-95032869D03*
X58462947Y-93933016D03*
X59097947Y-92833164D03*
D32*
X78467500Y-109860000D03*
X80192500Y-109860000D03*
D80*
X109912500Y-67000000D03*
X108087500Y-67000000D03*
D43*
X68000000Y-62875644D03*
D81*
X79350248Y-81993750D03*
X77769752Y-82906250D03*
D43*
X89000000Y-75000000D03*
D18*
X107252500Y-86790000D03*
X105527500Y-86790000D03*
D82*
X89198966Y-68186670D03*
D83*
X90468966Y-65986965D03*
X86999261Y-66916670D03*
X88269261Y-64716965D03*
X84799557Y-65646670D03*
X86069557Y-63446965D03*
X82599852Y-64376670D03*
X83869852Y-62176965D03*
X80400148Y-63106670D03*
X81670148Y-60906965D03*
X78200443Y-61836670D03*
X79470443Y-59636965D03*
X76000739Y-60566670D03*
X77270739Y-58366965D03*
X73801034Y-59296670D03*
X75071034Y-57096965D03*
D84*
X71596690Y-45525295D03*
X70734190Y-44031401D03*
D46*
X62000000Y-66110000D03*
D47*
X59460000Y-66110000D03*
X62000000Y-68650000D03*
X59460000Y-68650000D03*
X62000000Y-71190000D03*
X59460000Y-71190000D03*
X62000000Y-73730000D03*
X59460000Y-73730000D03*
X62000000Y-76270000D03*
X59460000Y-76270000D03*
X62000000Y-78810000D03*
X59460000Y-78810000D03*
X62000000Y-81350000D03*
X59460000Y-81350000D03*
X62000000Y-83890000D03*
X59460000Y-83890000D03*
D85*
X75562500Y-102400000D03*
X75562500Y-102800000D03*
X75562500Y-103200000D03*
X75562500Y-103600000D03*
X75562500Y-104000000D03*
X75562500Y-104400000D03*
X75562500Y-104800000D03*
X75562500Y-105200000D03*
X75562500Y-105600000D03*
X75562500Y-106000000D03*
X75562500Y-106400000D03*
X75562500Y-106800000D03*
X75562500Y-107200000D03*
X75562500Y-107600000D03*
D86*
X76400000Y-108437500D03*
X76800000Y-108437500D03*
X77200000Y-108437500D03*
X77600000Y-108437500D03*
X78000000Y-108437500D03*
X78400000Y-108437500D03*
X78800000Y-108437500D03*
X79200000Y-108437500D03*
X79600000Y-108437500D03*
X80000000Y-108437500D03*
X80400000Y-108437500D03*
X80800000Y-108437500D03*
X81200000Y-108437500D03*
X81600000Y-108437500D03*
D85*
X82437500Y-107600000D03*
X82437500Y-107200000D03*
X82437500Y-106800000D03*
X82437500Y-106400000D03*
X82437500Y-106000000D03*
X82437500Y-105600000D03*
X82437500Y-105200000D03*
X82437500Y-104800000D03*
X82437500Y-104400000D03*
X82437500Y-104000000D03*
X82437500Y-103600000D03*
X82437500Y-103200000D03*
X82437500Y-102800000D03*
X82437500Y-102400000D03*
D86*
X81600000Y-101562500D03*
X81200000Y-101562500D03*
X80800000Y-101562500D03*
X80400000Y-101562500D03*
X80000000Y-101562500D03*
X79600000Y-101562500D03*
X79200000Y-101562500D03*
X78800000Y-101562500D03*
X78400000Y-101562500D03*
X78000000Y-101562500D03*
X77600000Y-101562500D03*
X77200000Y-101562500D03*
X76800000Y-101562500D03*
X76400000Y-101562500D03*
D87*
X79000000Y-105000000D03*
D88*
X82641708Y-44350783D03*
X83083216Y-42579993D03*
D15*
X103520000Y-60377500D03*
X103520000Y-62102500D03*
D89*
X106045235Y-93845235D03*
X104754765Y-92554765D03*
D32*
X99587500Y-62160000D03*
X101312500Y-62160000D03*
D90*
X51175811Y-92684706D03*
X50313311Y-94178600D03*
D91*
X96770000Y-67570000D03*
D92*
X96770000Y-66270000D03*
D64*
X92500000Y-45555136D03*
D93*
X41860596Y-87104194D03*
D94*
X44349605Y-86597799D03*
D95*
X101340000Y-60080000D03*
D96*
X103814874Y-57605126D03*
D97*
X40552264Y-80987985D03*
D98*
X40951000Y-82947834D03*
D99*
X64661606Y-103297205D03*
D100*
X65931606Y-101097500D03*
X67201606Y-98897796D03*
D101*
X52300000Y-60250000D03*
D102*
X49800000Y-55919873D03*
D103*
X55489981Y-52242528D03*
D104*
X56759981Y-54442233D03*
X58029981Y-56641937D03*
%LPD*%
M02*
