%TF.GenerationSoftware,KiCad,Pcbnew,8.0.1-rc1*%
%TF.CreationDate,2024-04-17T22:05:37-07:00*%
%TF.ProjectId,Toolhead Board Breakout,546f6f6c-6865-4616-9420-426f61726420,rev?*%
%TF.SameCoordinates,Original*%
%TF.FileFunction,Soldermask,Top*%
%TF.FilePolarity,Negative*%
%FSLAX46Y46*%
G04 Gerber Fmt 4.6, Leading zero omitted, Abs format (unit mm)*
G04 Created by KiCad (PCBNEW 8.0.1-rc1) date 2024-04-17 22:05:37*
%MOMM*%
%LPD*%
G01*
G04 APERTURE LIST*
G04 Aperture macros list*
%AMRoundRect*
0 Rectangle with rounded corners*
0 $1 Rounding radius*
0 $2 $3 $4 $5 $6 $7 $8 $9 X,Y pos of 4 corners*
0 Add a 4 corners polygon primitive as box body*
4,1,4,$2,$3,$4,$5,$6,$7,$8,$9,$2,$3,0*
0 Add four circle primitives for the rounded corners*
1,1,$1+$1,$2,$3*
1,1,$1+$1,$4,$5*
1,1,$1+$1,$6,$7*
1,1,$1+$1,$8,$9*
0 Add four rect primitives between the rounded corners*
20,1,$1+$1,$2,$3,$4,$5,0*
20,1,$1+$1,$4,$5,$6,$7,0*
20,1,$1+$1,$6,$7,$8,$9,0*
20,1,$1+$1,$8,$9,$2,$3,0*%
%AMHorizOval*
0 Thick line with rounded ends*
0 $1 width*
0 $2 $3 position (X,Y) of the first rounded end (center of the circle)*
0 $4 $5 position (X,Y) of the second rounded end (center of the circle)*
0 Add line between two ends*
20,1,$1,$2,$3,$4,$5,0*
0 Add two circle primitives to create the rounded ends*
1,1,$1,$2,$3*
1,1,$1,$4,$5*%
%AMRotRect*
0 Rectangle, with rotation*
0 The origin of the aperture is its center*
0 $1 length*
0 $2 width*
0 $3 Rotation angle, in degrees counterclockwise*
0 Add horizontal line*
21,1,$1,$2,0,0,$3*%
G04 Aperture macros list end*
%ADD10RoundRect,0.250000X0.119744X-0.557370X0.569696X-0.021139X-0.119744X0.557370X-0.569696X0.021139X0*%
%ADD11C,5.600000*%
%ADD12RoundRect,0.250000X0.625000X-0.350000X0.625000X0.350000X-0.625000X0.350000X-0.625000X-0.350000X0*%
%ADD13O,1.750000X1.200000*%
%ADD14RoundRect,0.250000X-0.529784X-0.242612X0.054784X-0.580112X0.529784X0.242612X-0.054784X0.580112X0*%
%ADD15RoundRect,0.250000X-0.569696X-0.021139X-0.119744X-0.557370X0.569696X0.021139X0.119744X0.557370X0*%
%ADD16RoundRect,0.250000X-0.155880X0.947735X-0.958837X0.055961X0.155880X-0.947735X0.958837X-0.055961X0*%
%ADD17HorizOval,1.700000X-0.111472X0.100370X0.111472X-0.100370X0*%
%ADD18R,3.800000X3.800000*%
%ADD19C,4.000000*%
%ADD20RotRect,1.200000X1.200000X220.000000*%
%ADD21RotRect,1.500000X1.600000X220.000000*%
%ADD22RoundRect,0.250000X-0.886489X0.315851X-0.476065X-0.811780X0.886489X-0.315851X0.476065X0.811780X0*%
%ADD23HorizOval,1.700000X-0.117462X-0.042753X0.117462X0.042753X0*%
%ADD24R,1.700000X1.700000*%
%ADD25O,1.700000X1.700000*%
%ADD26RoundRect,0.250000X0.958837X0.055961X0.155880X0.947735X-0.958837X-0.055961X-0.155880X-0.947735X0*%
%ADD27HorizOval,1.700000X0.111472X0.100370X-0.111472X-0.100370X0*%
%ADD28RoundRect,0.250000X-0.476065X0.811780X-0.886489X-0.315851X0.476065X-0.811780X0.886489X0.315851X0*%
%ADD29HorizOval,1.700000X-0.117462X0.042753X0.117462X-0.042753X0*%
%ADD30RoundRect,0.250000X0.054784X0.580112X-0.529784X0.242612X-0.054784X-0.580112X0.529784X-0.242612X0*%
%ADD31RotRect,1.200000X1.200000X320.000000*%
%ADD32RotRect,1.500000X1.600000X320.000000*%
%ADD33RotRect,1.700000X1.700000X60.000000*%
%ADD34HorizOval,1.700000X0.000000X0.000000X0.000000X0.000000X0*%
%ADD35RotRect,1.700000X1.700000X300.000000*%
%ADD36HorizOval,1.700000X0.000000X0.000000X0.000000X0.000000X0*%
G04 APERTURE END LIST*
D10*
%TO.C,R4*%
X49668069Y-99433241D03*
X50953645Y-97901153D03*
%TD*%
D11*
%TO.C,H1*%
X68000000Y-87124356D03*
%TD*%
%TO.C,H1*%
X68000000Y-62875644D03*
%TD*%
D12*
%TO.C,J13*%
X54500000Y-83250000D03*
D13*
X54500000Y-81250000D03*
%TD*%
D14*
%TO.C,C3*%
X51605875Y-88348720D03*
X53402877Y-89386220D03*
%TD*%
D11*
%TO.C,H2*%
X92000000Y-45555136D03*
%TD*%
D15*
%TO.C,R2*%
X99046355Y-97901153D03*
X100331931Y-99433241D03*
%TD*%
D16*
%TO.C,J18*%
X51702786Y-52341053D03*
D17*
X50029959Y-54198915D03*
%TD*%
D14*
%TO.C,C4*%
X50605875Y-90080770D03*
X52402877Y-91118270D03*
%TD*%
D18*
%TO.C,J15*%
X71750000Y-42500001D03*
D19*
X71750000Y-47500001D03*
%TD*%
D20*
%TO.C,R1*%
X98876447Y-100654538D03*
D21*
X95744015Y-101977553D03*
D20*
X97590871Y-99122449D03*
%TD*%
D22*
%TO.C,J6*%
X104544950Y-60300769D03*
D23*
X105400000Y-62650001D03*
X106255051Y-64999232D03*
X107110101Y-67348464D03*
%TD*%
D24*
%TO.C,J11*%
X68500002Y-102950000D03*
D25*
X68500002Y-105490000D03*
X68500002Y-108030000D03*
%TD*%
D11*
%TO.C,H2*%
X58000000Y-45555136D03*
%TD*%
D12*
%TO.C,J14*%
X54500000Y-76290000D03*
D13*
X54500000Y-74290000D03*
X54500000Y-72290000D03*
X54500000Y-70290000D03*
%TD*%
D11*
%TO.C,H2*%
X41000000Y-75000000D03*
%TD*%
D26*
%TO.C,J17*%
X99970042Y-54198915D03*
D27*
X98297215Y-52341053D03*
%TD*%
D11*
%TO.C,H2*%
X92000000Y-104444864D03*
%TD*%
D24*
%TO.C,J9*%
X76500000Y-102949999D03*
D25*
X76500000Y-105489999D03*
X76500000Y-108029999D03*
%TD*%
D28*
%TO.C,J22*%
X45766059Y-60369049D03*
D29*
X44911009Y-62718281D03*
X44055958Y-65067512D03*
X43200908Y-67416744D03*
%TD*%
D11*
%TO.C,H2*%
X109000000Y-75000000D03*
%TD*%
D24*
%TO.C,J10*%
X73500001Y-102949999D03*
D25*
X73500001Y-105489999D03*
X73500001Y-108029999D03*
%TD*%
D11*
%TO.C,H2*%
X58000000Y-104444864D03*
%TD*%
%TO.C,H1*%
X89000000Y-75000000D03*
%TD*%
D24*
%TO.C,J7*%
X84500000Y-102949999D03*
D25*
X84500000Y-105489999D03*
X84500000Y-108029999D03*
%TD*%
D30*
%TO.C,C2*%
X98394125Y-88348720D03*
X96597123Y-89386220D03*
%TD*%
D31*
%TO.C,R3*%
X52409129Y-99122449D03*
D32*
X54255985Y-101977553D03*
D31*
X51123553Y-100654538D03*
%TD*%
D24*
%TO.C,J8*%
X81500000Y-102949999D03*
D25*
X81500000Y-105489999D03*
X81500000Y-108029999D03*
%TD*%
D30*
%TO.C,C1*%
X99394125Y-90080770D03*
X97597123Y-91118270D03*
%TD*%
D24*
%TO.C,J12*%
X65500000Y-102949999D03*
D25*
X65500000Y-105489999D03*
X65500000Y-108029999D03*
%TD*%
D18*
%TO.C,J21*%
X78250001Y-42500001D03*
D19*
X78250001Y-47500001D03*
%TD*%
D24*
%TO.C,J1*%
X62000000Y-66110000D03*
D25*
X59460000Y-66110000D03*
X62000000Y-68650000D03*
X59460000Y-68650000D03*
X62000000Y-71190000D03*
X59460000Y-71190000D03*
X62000000Y-73730000D03*
X59460000Y-73730000D03*
X62000000Y-76270000D03*
X59460000Y-76270000D03*
X62000000Y-78810000D03*
X59460000Y-78810000D03*
X62000000Y-81350000D03*
X59460000Y-81350000D03*
X62000000Y-83890000D03*
X59460000Y-83890000D03*
%TD*%
D24*
%TO.C,J5*%
X84000000Y-76270000D03*
D25*
X84000000Y-73730000D03*
X81460000Y-76270000D03*
X81460000Y-73730000D03*
X78920000Y-76270000D03*
X78920000Y-73730000D03*
X76380000Y-76270000D03*
X76380000Y-73730000D03*
%TD*%
D33*
%TO.C,J2*%
X89198966Y-68186670D03*
D34*
X90468966Y-65986965D03*
X86999261Y-66916670D03*
X88269261Y-64716965D03*
X84799557Y-65646670D03*
X86069557Y-63446965D03*
X82599852Y-64376670D03*
X83869852Y-62176965D03*
X80400148Y-63106670D03*
X81670148Y-60906965D03*
X78200443Y-61836670D03*
X79470443Y-59636965D03*
X76000739Y-60566670D03*
X77270739Y-58366965D03*
X73801034Y-59296670D03*
X75071033Y-57096965D03*
%TD*%
D35*
%TO.C,J3*%
X73801034Y-90703330D03*
D36*
X75071034Y-92903035D03*
X76000739Y-89433330D03*
X77270739Y-91633035D03*
X78200443Y-88163330D03*
X79470443Y-90363035D03*
X80400148Y-86893330D03*
X81670148Y-89093035D03*
X82599852Y-85623330D03*
X83869852Y-87823035D03*
X84799557Y-84353330D03*
X86069557Y-86553035D03*
X86999261Y-83083330D03*
X88269261Y-85283035D03*
X89198966Y-81813330D03*
X90468966Y-84013035D03*
%TD*%
D24*
%TO.C,J4*%
X68500000Y-71190000D03*
D25*
X65960000Y-71190000D03*
X68500000Y-73730000D03*
X65960000Y-73730000D03*
X68500000Y-76270000D03*
X65960000Y-76270000D03*
X68500000Y-78810000D03*
X65960000Y-78810000D03*
%TD*%
M02*
