M48
; DRILL file {KiCad 8.0.1-rc1} date 2024-04-17T22:05:41-0700
; FORMAT={-:-/ absolute / metric / decimal}
; #@! TF.CreationDate,2024-04-17T22:05:41-07:00
; #@! TF.GenerationSoftware,Kicad,Pcbnew,8.0.1-rc1
; #@! TF.FileFunction,Plated,1,2,PTH
FMAT,2
METRIC
; #@! TA.AperFunction,Plated,PTH,ViaDrill
T1C0.300
; #@! TA.AperFunction,Plated,PTH,ViaDrill
T2C0.600
; #@! TA.AperFunction,Plated,PTH,ComponentDrill
T3C0.750
; #@! TA.AperFunction,Plated,PTH,ComponentDrill
T4C0.950
; #@! TA.AperFunction,Plated,PTH,ComponentDrill
T5C1.000
; #@! TA.AperFunction,Plated,PTH,ComponentDrill
T6C2.700
; #@! TA.AperFunction,Plated,PTH,ComponentDrill
T7C3.200
%
G90
G05
T1
X64.0Y-72.69
X64.292Y-74.248
X92.634Y-72.506
X93.46Y-72.5
X96.355Y-79.213
X96.92Y-78.647
X100.878Y-72.958
X101.368Y-68.648
X101.443Y-72.392
X101.934Y-68.083
T2
X49.276Y-88.158
X50.954Y-97.901
X52.278Y-86.959
X55.445Y-94.924
X58.22Y-90.118
X58.676Y-62.456
X59.645Y-97.349
X62.42Y-92.543
X87.58Y-92.543
X90.355Y-97.349
X91.78Y-90.118
X94.555Y-94.924
X97.64Y-86.95
X100.262Y-91.358
X100.724Y-88.158
T3
X54.5Y-70.29
X54.5Y-72.29
X54.5Y-74.29
X54.5Y-76.29
X54.5Y-81.25
X54.5Y-83.25
T4
X43.201Y-67.417
X44.056Y-65.068
X44.911Y-62.718
X45.766Y-60.369
X104.545Y-60.301
X105.4Y-62.65
X106.255Y-64.999
X107.11Y-67.348
T5
X50.03Y-54.199
X51.703Y-52.341
X59.46Y-66.11
X59.46Y-68.65
X59.46Y-71.19
X59.46Y-73.73
X59.46Y-76.27
X59.46Y-78.81
X59.46Y-81.35
X59.46Y-83.89
X62.0Y-66.11
X62.0Y-68.65
X62.0Y-71.19
X62.0Y-73.73
X62.0Y-76.27
X62.0Y-78.81
X62.0Y-81.35
X62.0Y-83.89
X65.5Y-102.95
X65.5Y-105.49
X65.5Y-108.03
X65.96Y-71.19
X65.96Y-73.73
X65.96Y-76.27
X65.96Y-78.81
X68.5Y-71.19
X68.5Y-73.73
X68.5Y-76.27
X68.5Y-78.81
X68.5Y-102.95
X68.5Y-105.49
X68.5Y-108.03
X73.5Y-102.95
X73.5Y-105.49
X73.5Y-108.03
X73.801Y-59.297
X73.801Y-90.703
X75.071Y-57.097
X75.071Y-92.903
X76.001Y-60.567
X76.001Y-89.433
X76.38Y-73.73
X76.38Y-76.27
X76.5Y-102.95
X76.5Y-105.49
X76.5Y-108.03
X77.271Y-58.367
X77.271Y-91.633
X78.2Y-61.837
X78.2Y-88.163
X78.92Y-73.73
X78.92Y-76.27
X79.47Y-59.637
X79.47Y-90.363
X80.4Y-63.107
X80.4Y-86.893
X81.46Y-73.73
X81.46Y-76.27
X81.5Y-102.95
X81.5Y-105.49
X81.5Y-108.03
X81.67Y-60.907
X81.67Y-89.093
X82.6Y-64.377
X82.6Y-85.623
X83.87Y-62.177
X83.87Y-87.823
X84.0Y-73.73
X84.0Y-76.27
X84.5Y-102.95
X84.5Y-105.49
X84.5Y-108.03
X84.8Y-65.647
X84.8Y-84.353
X86.07Y-63.447
X86.07Y-86.553
X86.999Y-66.917
X86.999Y-83.083
X88.269Y-64.717
X88.269Y-85.283
X89.199Y-68.187
X89.199Y-81.813
X90.469Y-65.987
X90.469Y-84.013
X98.297Y-52.341
X99.97Y-54.199
T6
X71.75Y-42.5
X71.75Y-47.5
X78.25Y-42.5
X78.25Y-47.5
T7
X41.0Y-75.0
X58.0Y-45.555
X58.0Y-104.445
X68.0Y-62.876
X68.0Y-87.124
X89.0Y-75.0
X92.0Y-45.555
X92.0Y-104.445
X109.0Y-75.0
M30
