%TF.GenerationSoftware,KiCad,Pcbnew,8.0.1-rc1*%
%TF.CreationDate,2024-04-17T22:05:37-07:00*%
%TF.ProjectId,Toolhead Board Breakout,546f6f6c-6865-4616-9420-426f61726420,rev?*%
%TF.SameCoordinates,Original*%
%TF.FileFunction,Copper,L2,Bot*%
%TF.FilePolarity,Positive*%
%FSLAX46Y46*%
G04 Gerber Fmt 4.6, Leading zero omitted, Abs format (unit mm)*
G04 Created by KiCad (PCBNEW 8.0.1-rc1) date 2024-04-17 22:05:37*
%MOMM*%
%LPD*%
G01*
G04 APERTURE LIST*
G04 Aperture macros list*
%AMRoundRect*
0 Rectangle with rounded corners*
0 $1 Rounding radius*
0 $2 $3 $4 $5 $6 $7 $8 $9 X,Y pos of 4 corners*
0 Add a 4 corners polygon primitive as box body*
4,1,4,$2,$3,$4,$5,$6,$7,$8,$9,$2,$3,0*
0 Add four circle primitives for the rounded corners*
1,1,$1+$1,$2,$3*
1,1,$1+$1,$4,$5*
1,1,$1+$1,$6,$7*
1,1,$1+$1,$8,$9*
0 Add four rect primitives between the rounded corners*
20,1,$1+$1,$2,$3,$4,$5,0*
20,1,$1+$1,$4,$5,$6,$7,0*
20,1,$1+$1,$6,$7,$8,$9,0*
20,1,$1+$1,$8,$9,$2,$3,0*%
%AMHorizOval*
0 Thick line with rounded ends*
0 $1 width*
0 $2 $3 position (X,Y) of the first rounded end (center of the circle)*
0 $4 $5 position (X,Y) of the second rounded end (center of the circle)*
0 Add line between two ends*
20,1,$1,$2,$3,$4,$5,0*
0 Add two circle primitives to create the rounded ends*
1,1,$1,$2,$3*
1,1,$1,$4,$5*%
%AMRotRect*
0 Rectangle, with rotation*
0 The origin of the aperture is its center*
0 $1 length*
0 $2 width*
0 $3 Rotation angle, in degrees counterclockwise*
0 Add horizontal line*
21,1,$1,$2,0,0,$3*%
G04 Aperture macros list end*
%TA.AperFunction,ComponentPad*%
%ADD10C,5.600000*%
%TD*%
%TA.AperFunction,ComponentPad*%
%ADD11RoundRect,0.250000X0.625000X-0.350000X0.625000X0.350000X-0.625000X0.350000X-0.625000X-0.350000X0*%
%TD*%
%TA.AperFunction,ComponentPad*%
%ADD12O,1.750000X1.200000*%
%TD*%
%TA.AperFunction,ComponentPad*%
%ADD13RoundRect,0.250000X-0.155880X0.947735X-0.958837X0.055961X0.155880X-0.947735X0.958837X-0.055961X0*%
%TD*%
%TA.AperFunction,ComponentPad*%
%ADD14HorizOval,1.700000X-0.111472X0.100370X0.111472X-0.100370X0*%
%TD*%
%TA.AperFunction,ComponentPad*%
%ADD15R,3.800000X3.800000*%
%TD*%
%TA.AperFunction,ComponentPad*%
%ADD16C,4.000000*%
%TD*%
%TA.AperFunction,ComponentPad*%
%ADD17RoundRect,0.250000X-0.886489X0.315851X-0.476065X-0.811780X0.886489X-0.315851X0.476065X0.811780X0*%
%TD*%
%TA.AperFunction,ComponentPad*%
%ADD18HorizOval,1.700000X-0.117462X-0.042753X0.117462X0.042753X0*%
%TD*%
%TA.AperFunction,ComponentPad*%
%ADD19R,1.700000X1.700000*%
%TD*%
%TA.AperFunction,ComponentPad*%
%ADD20O,1.700000X1.700000*%
%TD*%
%TA.AperFunction,ComponentPad*%
%ADD21RoundRect,0.250000X0.958837X0.055961X0.155880X0.947735X-0.958837X-0.055961X-0.155880X-0.947735X0*%
%TD*%
%TA.AperFunction,ComponentPad*%
%ADD22HorizOval,1.700000X0.111472X0.100370X-0.111472X-0.100370X0*%
%TD*%
%TA.AperFunction,ComponentPad*%
%ADD23RoundRect,0.250000X-0.476065X0.811780X-0.886489X-0.315851X0.476065X-0.811780X0.886489X0.315851X0*%
%TD*%
%TA.AperFunction,ComponentPad*%
%ADD24HorizOval,1.700000X-0.117462X0.042753X0.117462X-0.042753X0*%
%TD*%
%TA.AperFunction,SMDPad,CuDef*%
%ADD25RoundRect,0.250000X1.625352X1.284808X-1.925352X-0.765192X-1.625352X-1.284808X1.925352X0.765192X0*%
%TD*%
%TA.AperFunction,SMDPad,CuDef*%
%ADD26RoundRect,0.250000X0.566201X3.069310X-2.941201X1.044310X-0.566201X-3.069310X2.941201X-1.044310X0*%
%TD*%
%TA.AperFunction,SMDPad,CuDef*%
%ADD27RoundRect,0.250002X1.278812X6.685028X-6.428810X2.235030X-1.278812X-6.685028X6.428810X-2.235030X0*%
%TD*%
%TA.AperFunction,SMDPad,CuDef*%
%ADD28RoundRect,0.250000X-1.925352X0.765192X1.625352X-1.284808X1.925352X-0.765192X-1.625352X1.284808X0*%
%TD*%
%TA.AperFunction,SMDPad,CuDef*%
%ADD29RoundRect,0.250000X-2.941201X-1.044310X0.566201X-3.069310X2.941201X1.044310X-0.566201X3.069310X0*%
%TD*%
%TA.AperFunction,SMDPad,CuDef*%
%ADD30RoundRect,0.250002X-6.428810X-2.235030X1.278812X-6.685028X6.428810X2.235030X-1.278812X6.685028X0*%
%TD*%
%TA.AperFunction,ComponentPad*%
%ADD31RotRect,1.700000X1.700000X60.000000*%
%TD*%
%TA.AperFunction,ComponentPad*%
%ADD32HorizOval,1.700000X0.000000X0.000000X0.000000X0.000000X0*%
%TD*%
%TA.AperFunction,ComponentPad*%
%ADD33RotRect,1.700000X1.700000X300.000000*%
%TD*%
%TA.AperFunction,ComponentPad*%
%ADD34HorizOval,1.700000X0.000000X0.000000X0.000000X0.000000X0*%
%TD*%
%TA.AperFunction,ViaPad*%
%ADD35C,1.200000*%
%TD*%
%TA.AperFunction,ViaPad*%
%ADD36C,0.600000*%
%TD*%
%TA.AperFunction,Conductor*%
%ADD37C,0.350000*%
%TD*%
%TA.AperFunction,Conductor*%
%ADD38C,2.000000*%
%TD*%
%TA.AperFunction,Conductor*%
%ADD39C,1.500000*%
%TD*%
%TA.AperFunction,Conductor*%
%ADD40C,2.500000*%
%TD*%
%TA.AperFunction,Conductor*%
%ADD41C,0.750000*%
%TD*%
%TA.AperFunction,Conductor*%
%ADD42C,0.250000*%
%TD*%
%TA.AperFunction,Conductor*%
%ADD43C,0.500000*%
%TD*%
G04 APERTURE END LIST*
D10*
%TO.P,H1,1,1*%
%TO.N,GND*%
X68000000Y-87124356D03*
%TD*%
%TO.P,H1,1,1*%
%TO.N,GND*%
X68000000Y-62875644D03*
%TD*%
D11*
%TO.P,J13,1,Pin_1*%
%TO.N,CAN_H*%
X54500000Y-83250000D03*
D12*
%TO.P,J13,2,Pin_2*%
%TO.N,CAN_L*%
X54500000Y-81250000D03*
%TD*%
D10*
%TO.P,H2,1,1*%
%TO.N,GND*%
X92000000Y-45555136D03*
%TD*%
D13*
%TO.P,J18,1,Pin_1*%
%TO.N,THERM1*%
X51702786Y-52341053D03*
D14*
%TO.P,J18,2,Pin_2*%
%TO.N,GND*%
X50029959Y-54198915D03*
%TD*%
D15*
%TO.P,J15,1,Pin_1*%
%TO.N,+24V*%
X71750000Y-42500001D03*
D16*
%TO.P,J15,2,Pin_2*%
%TO.N,GND*%
X71750000Y-47500001D03*
%TD*%
D17*
%TO.P,J6,1,Pin_1*%
%TO.N,OA1*%
X104544950Y-60300769D03*
D18*
%TO.P,J6,2,Pin_2*%
%TO.N,OA2*%
X105400000Y-62650001D03*
%TO.P,J6,3,Pin_3*%
%TO.N,OB1*%
X106255051Y-64999232D03*
%TO.P,J6,4,Pin_4*%
%TO.N,OB2*%
X107110101Y-67348464D03*
%TD*%
D19*
%TO.P,J11,1,Pin_1*%
%TO.N,SERVO5*%
X68500002Y-102950000D03*
D20*
%TO.P,J11,2,Pin_2*%
%TO.N,5VB*%
X68500002Y-105490000D03*
%TO.P,J11,3,Pin_3*%
%TO.N,GND*%
X68500002Y-108030000D03*
%TD*%
D10*
%TO.P,H2,1,1*%
%TO.N,GND*%
X58000000Y-45555136D03*
%TD*%
D11*
%TO.P,J14,1,Pin_1*%
%TO.N,+3.3V*%
X54500000Y-76290000D03*
D12*
%TO.P,J14,2,Pin_2*%
%TO.N,SDA*%
X54500000Y-74290000D03*
%TO.P,J14,3,Pin_3*%
%TO.N,SCL*%
X54500000Y-72290000D03*
%TO.P,J14,4,Pin_4*%
%TO.N,GND*%
X54500000Y-70290000D03*
%TD*%
D10*
%TO.P,H2,1,1*%
%TO.N,GND*%
X41000000Y-75000000D03*
%TD*%
D21*
%TO.P,J17,1,Pin_1*%
%TO.N,THERM0*%
X99970042Y-54198915D03*
D22*
%TO.P,J17,2,Pin_2*%
%TO.N,GND*%
X98297215Y-52341053D03*
%TD*%
D10*
%TO.P,H2,1,1*%
%TO.N,GND*%
X92000000Y-104444864D03*
%TD*%
D19*
%TO.P,J9,1,Pin_1*%
%TO.N,SERVO3*%
X76500000Y-102949999D03*
D20*
%TO.P,J9,2,Pin_2*%
%TO.N,+5V*%
X76500000Y-105489999D03*
%TO.P,J9,3,Pin_3*%
%TO.N,GND*%
X76500000Y-108029999D03*
%TD*%
D23*
%TO.P,J22,1,Pin_1*%
%TO.N,+24V*%
X45766059Y-60369049D03*
D24*
%TO.P,J22,2,Pin_2*%
%TO.N,24V_PWM1*%
X44911009Y-62718281D03*
%TO.P,J22,3,Pin_3*%
%TO.N,24V_PWM2*%
X44055958Y-65067512D03*
%TO.P,J22,4,Pin_4*%
%TO.N,24V_PWM3*%
X43200908Y-67416744D03*
%TD*%
D10*
%TO.P,H2,1,1*%
%TO.N,GND*%
X109000000Y-75000000D03*
%TD*%
D19*
%TO.P,J10,1,Pin_1*%
%TO.N,SERVO4*%
X73500001Y-102949999D03*
D20*
%TO.P,J10,2,Pin_2*%
%TO.N,+5V*%
X73500001Y-105489999D03*
%TO.P,J10,3,Pin_3*%
%TO.N,GND*%
X73500001Y-108029999D03*
%TD*%
D10*
%TO.P,H2,1,1*%
%TO.N,GND*%
X58000000Y-104444864D03*
%TD*%
%TO.P,H1,1,1*%
%TO.N,GND*%
X89000000Y-75000000D03*
%TD*%
D19*
%TO.P,J7,1,Pin_1*%
%TO.N,SERVO1*%
X84500000Y-102949999D03*
D20*
%TO.P,J7,2,Pin_2*%
%TO.N,5VA*%
X84500000Y-105489999D03*
%TO.P,J7,3,Pin_3*%
%TO.N,GND*%
X84500000Y-108029999D03*
%TD*%
D19*
%TO.P,J8,1,Pin_1*%
%TO.N,SERVO2*%
X81500000Y-102949999D03*
D20*
%TO.P,J8,2,Pin_2*%
%TO.N,5VA*%
X81500000Y-105489999D03*
%TO.P,J8,3,Pin_3*%
%TO.N,GND*%
X81500000Y-108029999D03*
%TD*%
D19*
%TO.P,J12,1,Pin_1*%
%TO.N,SERVO6*%
X65500000Y-102949999D03*
D20*
%TO.P,J12,2,Pin_2*%
%TO.N,5VB*%
X65500000Y-105489999D03*
%TO.P,J12,3,Pin_3*%
%TO.N,GND*%
X65500000Y-108029999D03*
%TD*%
D15*
%TO.P,J21,1,Pin_1*%
%TO.N,+24V*%
X78250001Y-42500001D03*
D16*
%TO.P,J21,2,Pin_2*%
%TO.N,24V_PWM0*%
X78250001Y-47500001D03*
%TD*%
D25*
%TO.P,U1,1,GND*%
%TO.N,Net-(U1-GND)*%
X97721553Y-86958790D03*
%TO.P,U1,2,VO*%
%TO.N,5VA*%
X98991553Y-89158495D03*
D26*
X94555032Y-94924215D03*
X91780032Y-90117775D03*
D27*
X91067421Y-93733495D03*
D26*
X90354809Y-97349215D03*
X87579809Y-92542775D03*
D25*
%TO.P,U1,3,VI*%
%TO.N,+24V*%
X100261552Y-91358200D03*
%TD*%
D28*
%TO.P,U2,1,GND*%
%TO.N,Net-(U2-GND)*%
X49738448Y-91358200D03*
%TO.P,U2,2,VO*%
%TO.N,5VB*%
X51008447Y-89158495D03*
D29*
X55444968Y-94924215D03*
X58219968Y-90117775D03*
D30*
X58932579Y-93733495D03*
D29*
X62420191Y-92542775D03*
X59645191Y-97349215D03*
D28*
%TO.P,U2,3,VI*%
%TO.N,+24V*%
X52278447Y-86958790D03*
%TD*%
D19*
%TO.P,J1,1,Pin_1*%
%TO.N,GND*%
X62000000Y-66110000D03*
D20*
%TO.P,J1,2,Pin_2*%
X59460000Y-66110000D03*
%TO.P,J1,3,Pin_3*%
X62000000Y-68650000D03*
%TO.P,J1,4,Pin_4*%
X59460000Y-68650000D03*
%TO.P,J1,5,Pin_5*%
%TO.N,+5V*%
X62000000Y-71190000D03*
%TO.P,J1,6,Pin_6*%
%TO.N,GND*%
X59460000Y-71190000D03*
%TO.P,J1,7,Pin_7*%
%TO.N,+5V*%
X62000000Y-73730000D03*
%TO.P,J1,8,Pin_8*%
%TO.N,GND*%
X59460000Y-73730000D03*
%TO.P,J1,9,Pin_9*%
%TO.N,D1*%
X62000000Y-76270000D03*
%TO.P,J1,10,Pin_10*%
%TO.N,D20*%
X59460000Y-76270000D03*
%TO.P,J1,11,Pin_11*%
%TO.N,D21*%
X62000000Y-78810000D03*
%TO.P,J1,12,Pin_12*%
%TO.N,D24*%
X59460000Y-78810000D03*
%TO.P,J1,13,Pin_13*%
%TO.N,SCL*%
X62000000Y-81350000D03*
%TO.P,J1,14,Pin_14*%
%TO.N,SDA*%
X59460000Y-81350000D03*
%TO.P,J1,15,Pin_15*%
%TO.N,CAN_L*%
X62000000Y-83890000D03*
%TO.P,J1,16,Pin_16*%
%TO.N,CAN_H*%
X59460000Y-83890000D03*
%TD*%
D19*
%TO.P,J5,1,Pin_1*%
%TO.N,OB1*%
X84000000Y-76270000D03*
D20*
%TO.P,J5,2,Pin_2*%
%TO.N,OA2*%
X84000000Y-73730000D03*
%TO.P,J5,3,Pin_3*%
%TO.N,OB2*%
X81460000Y-76270000D03*
%TO.P,J5,4,Pin_4*%
%TO.N,OA1*%
X81460000Y-73730000D03*
%TO.P,J5,5,Pin_5*%
%TO.N,+5V*%
X78920000Y-76270000D03*
%TO.P,J5,6,Pin_6*%
%TO.N,+3.3V*%
X78920000Y-73730000D03*
%TO.P,J5,7,Pin_7*%
%TO.N,+5V*%
X76380000Y-76270000D03*
%TO.P,J5,8,Pin_8*%
%TO.N,+3.3V*%
X76380000Y-73730000D03*
%TD*%
D31*
%TO.P,J2,1,Pin_1*%
%TO.N,SERVO1*%
X89198966Y-68186670D03*
D32*
%TO.P,J2,2,Pin_2*%
%TO.N,+5V*%
X90468966Y-65986965D03*
%TO.P,J2,3,Pin_3*%
%TO.N,SERVO2*%
X86999261Y-66916670D03*
%TO.P,J2,4,Pin_4*%
%TO.N,GND*%
X88269261Y-64716965D03*
%TO.P,J2,5,Pin_5*%
%TO.N,24V_PWM2*%
X84799557Y-65646670D03*
%TO.P,J2,6,Pin_6*%
%TO.N,24V_PWM0*%
X86069557Y-63446965D03*
%TO.P,J2,7,Pin_7*%
%TO.N,24V_PWM2*%
X82599852Y-64376670D03*
%TO.P,J2,8,Pin_8*%
%TO.N,24V_PWM0*%
X83869852Y-62176965D03*
%TO.P,J2,9,Pin_9*%
%TO.N,24V_PWM3*%
X80400148Y-63106670D03*
%TO.P,J2,10,Pin_10*%
%TO.N,24V_PWM1*%
X81670148Y-60906965D03*
%TO.P,J2,11,Pin_11*%
%TO.N,24V_PWM3*%
X78200443Y-61836670D03*
%TO.P,J2,12,Pin_12*%
%TO.N,24V_PWM1*%
X79470443Y-59636965D03*
%TO.P,J2,13,Pin_13*%
%TO.N,+24V*%
X76000739Y-60566670D03*
%TO.P,J2,14,Pin_14*%
X77270739Y-58366965D03*
%TO.P,J2,15,Pin_15*%
X73801034Y-59296670D03*
%TO.P,J2,16,Pin_16*%
X75071033Y-57096965D03*
%TD*%
D33*
%TO.P,J3,1,Pin_1*%
%TO.N,ADC1*%
X73801034Y-90703330D03*
D34*
%TO.P,J3,2,Pin_2*%
%TO.N,ADC0*%
X75071034Y-92903035D03*
%TO.P,J3,3,Pin_3*%
%TO.N,SERVO3*%
X76000739Y-89433330D03*
%TO.P,J3,4,Pin_4*%
%TO.N,SERVO4*%
X77270739Y-91633035D03*
%TO.P,J3,5,Pin_5*%
%TO.N,SERVO5*%
X78200443Y-88163330D03*
%TO.P,J3,6,Pin_6*%
%TO.N,SERVO6*%
X79470443Y-90363035D03*
%TO.P,J3,7,Pin_7*%
%TO.N,+5V*%
X80400148Y-86893330D03*
%TO.P,J3,8,Pin_8*%
%TO.N,GND*%
X81670148Y-89093035D03*
%TO.P,J3,9,Pin_9*%
%TO.N,+5V*%
X82599852Y-85623330D03*
%TO.P,J3,10,Pin_10*%
%TO.N,GND*%
X83869852Y-87823035D03*
%TO.P,J3,11,Pin_11*%
%TO.N,+3.3V*%
X84799557Y-84353330D03*
%TO.P,J3,12,Pin_12*%
%TO.N,GND*%
X86069557Y-86553035D03*
%TO.P,J3,13,Pin_13*%
%TO.N,+3.3V*%
X86999261Y-83083330D03*
%TO.P,J3,14,Pin_14*%
%TO.N,GND*%
X88269261Y-85283035D03*
%TO.P,J3,15,Pin_15*%
%TO.N,THERM0*%
X89198966Y-81813330D03*
%TO.P,J3,16,Pin_16*%
%TO.N,THERM1*%
X90468966Y-84013035D03*
%TD*%
D19*
%TO.P,J4,1,Pin_1*%
%TO.N,+24V*%
X68500000Y-71190000D03*
D20*
%TO.P,J4,2,Pin_2*%
%TO.N,GND*%
X65960000Y-71190000D03*
%TO.P,J4,3,Pin_3*%
%TO.N,+24V*%
X68500000Y-73730000D03*
%TO.P,J4,4,Pin_4*%
%TO.N,GND*%
X65960000Y-73730000D03*
%TO.P,J4,5,Pin_5*%
%TO.N,+24V*%
X68500000Y-76270000D03*
%TO.P,J4,6,Pin_6*%
%TO.N,GND*%
X65960000Y-76270000D03*
%TO.P,J4,7,Pin_7*%
%TO.N,+24V*%
X68500000Y-78810000D03*
%TO.P,J4,8,Pin_8*%
%TO.N,GND*%
X65960000Y-78810000D03*
%TD*%
D35*
%TO.N,+24V*%
X100261553Y-91358200D03*
X52278447Y-86958791D03*
%TO.N,24V_PWM3*%
X58675851Y-62455851D03*
D36*
%TO.N,SERVO2*%
X96354613Y-79213022D03*
X92634206Y-72505794D03*
%TO.N,SERVO1*%
X96920302Y-78647337D03*
X93460000Y-72500000D03*
%TO.N,THERM1*%
X101443297Y-72391926D03*
X101368422Y-68648423D03*
%TO.N,+3.3V*%
X64291676Y-74248324D03*
X64000000Y-72690000D03*
%TO.N,THERM0*%
X101934109Y-68082736D03*
X100877610Y-72957613D03*
D35*
%TO.N,Net-(U1-GND)*%
X97640000Y-86950000D03*
%TO.N,5VA*%
X94555032Y-94924215D03*
X100723604Y-88158495D03*
X91780032Y-90117775D03*
X90354809Y-97349215D03*
X87579809Y-92542775D03*
%TO.N,5VB*%
X49276396Y-88158495D03*
X55444968Y-94924216D03*
X59645191Y-97349215D03*
X58219967Y-90117775D03*
X62420190Y-92542775D03*
%TO.N,Net-(U2-GND)*%
X50953645Y-97901153D03*
%TD*%
D37*
%TO.N,+5V*%
X87801968Y-65986965D02*
X87506673Y-65691670D01*
X80170000Y-75020000D02*
X78920000Y-76270000D01*
X86486969Y-65691670D02*
X80170000Y-72008639D01*
X80170000Y-72008639D02*
X80170000Y-75020000D01*
X87506673Y-65691670D02*
X86486969Y-65691670D01*
D38*
X76500000Y-105459999D02*
X73500001Y-105459999D01*
D37*
X90468966Y-65986965D02*
X87801968Y-65986965D01*
D39*
%TO.N,+24V*%
X75120000Y-42500000D02*
X71750000Y-42500001D01*
X76000739Y-60566670D02*
X73801034Y-59296670D01*
X102273604Y-86899781D02*
X102273604Y-89346148D01*
X48155108Y-57980000D02*
X72484364Y-57980000D01*
X68500000Y-80012081D02*
X62666333Y-85845748D01*
X68500000Y-78810000D02*
X94183823Y-78810000D01*
X72484364Y-57980000D02*
X73801034Y-59296670D01*
X77270739Y-58366965D02*
X76000739Y-60566670D01*
X75120000Y-42500000D02*
X78250001Y-42500001D01*
X68500000Y-78810000D02*
X68500000Y-80012081D01*
D40*
X68500000Y-71190000D02*
X68500000Y-78810000D01*
D39*
X75071033Y-57096965D02*
X77270739Y-58366965D01*
X102273604Y-89346148D02*
X100261552Y-91358200D01*
X73801034Y-59296670D02*
X75071033Y-57096965D01*
X94183823Y-78810000D02*
X102273604Y-86899781D01*
D40*
X73801034Y-65888966D02*
X73801034Y-59296670D01*
D39*
X62666333Y-85845748D02*
X53391491Y-85845748D01*
X45766059Y-60369049D02*
X48155108Y-57980000D01*
X53391491Y-85845748D02*
X52278448Y-86958791D01*
D40*
X68500000Y-71190000D02*
X73801034Y-65888966D01*
D39*
X75071033Y-57096965D02*
X75120000Y-42500000D01*
D41*
%TO.N,24V_PWM3*%
X43911457Y-67416743D02*
X43200908Y-67416743D01*
X58675851Y-62455851D02*
X48872349Y-62455851D01*
X48872349Y-62455851D02*
X43911457Y-67416743D01*
D37*
%TO.N,SERVO2*%
X92634206Y-75492615D02*
X96354613Y-79213022D01*
X92634206Y-72505794D02*
X92634206Y-75492615D01*
%TO.N,SERVO1*%
X96457431Y-78538022D02*
X96810987Y-78538022D01*
X96810987Y-78538022D02*
X96920302Y-78647337D01*
X93460000Y-72500000D02*
X93460000Y-75540591D01*
X93460000Y-75540591D02*
X96457431Y-78538022D01*
D39*
%TO.N,24V_PWM0*%
X83869852Y-53119852D02*
X78250001Y-47500001D01*
X83869852Y-62176965D02*
X83869852Y-53119852D01*
D42*
%TO.N,SERVO4*%
X77995739Y-98454261D02*
X73500001Y-102949999D01*
X77995739Y-92358035D02*
X77995739Y-98454261D01*
X77270739Y-91633035D02*
X77995739Y-92358035D01*
D37*
%TO.N,THERM1*%
X101443297Y-68723298D02*
X101368422Y-68648423D01*
X101443297Y-72391926D02*
X101443297Y-68723298D01*
%TO.N,+3.3V*%
X64291676Y-75710736D02*
X62507412Y-77495000D01*
X64291676Y-74248324D02*
X64291676Y-75710736D01*
X62507412Y-77495000D02*
X55705000Y-77495000D01*
X64000000Y-73462412D02*
X64000000Y-72690000D01*
X62482412Y-74980000D02*
X64000000Y-73462412D01*
X55810000Y-74980000D02*
X62482412Y-74980000D01*
X55705000Y-77495000D02*
X54500000Y-76290000D01*
X54500000Y-76290000D02*
X55810000Y-74980000D01*
D42*
%TO.N,SERVO6*%
X78687144Y-86988330D02*
X74947774Y-86988330D01*
X79470443Y-90363035D02*
X79470443Y-87771629D01*
X79470443Y-87771629D02*
X78687144Y-86988330D01*
X65500000Y-96436104D02*
X65500000Y-102949999D01*
X74947774Y-86988330D02*
X65500000Y-96436104D01*
D37*
%TO.N,THERM0*%
X100877610Y-72957613D02*
X100693422Y-72773425D01*
X100693422Y-72773425D02*
X100693422Y-68368828D01*
X101824796Y-67973423D02*
X101934109Y-68082736D01*
X100693422Y-68368828D02*
X101088827Y-67973423D01*
X101088827Y-67973423D02*
X101824796Y-67973423D01*
D42*
%TO.N,SERVO5*%
X68500002Y-94072498D02*
X68500002Y-102950000D01*
X74409170Y-88163330D02*
X68500002Y-94072498D01*
X78200443Y-88163330D02*
X74409170Y-88163330D01*
%TO.N,SERVO3*%
X78445739Y-101004260D02*
X76500000Y-102949999D01*
X76879037Y-89433330D02*
X78445739Y-91000032D01*
X78445739Y-91000032D02*
X78445739Y-101004260D01*
X76000739Y-89433330D02*
X76879037Y-89433330D01*
D41*
%TO.N,OA2*%
X84000000Y-73730000D02*
X86105000Y-71625000D01*
X86105000Y-71625000D02*
X94564221Y-71625000D01*
X103539221Y-62650000D02*
X105400000Y-62650000D01*
X94564221Y-71625000D02*
X103539221Y-62650000D01*
%TO.N,OA1*%
X81460000Y-73730000D02*
X84515000Y-70675000D01*
X94170719Y-70675000D02*
X104544950Y-60300769D01*
X84515000Y-70675000D02*
X94170719Y-70675000D01*
D40*
%TO.N,5VA*%
X87690000Y-100014024D02*
X90354809Y-97349215D01*
X85800001Y-105489999D02*
X87690000Y-103600000D01*
D38*
X98991553Y-89158495D02*
X91067421Y-93733495D01*
D40*
X84500000Y-105489999D02*
X85800001Y-105489999D01*
X81500000Y-105489999D02*
X84500000Y-105489999D01*
X87690000Y-103600000D02*
X87690000Y-100014024D01*
%TO.N,5VB*%
X65500000Y-105489999D02*
X63440000Y-105489999D01*
X62430000Y-104479999D02*
X62430000Y-100134024D01*
X68500002Y-105490000D02*
X65500000Y-105489999D01*
D38*
X51008447Y-89158495D02*
X58932579Y-93733495D01*
D40*
X63440000Y-105489999D02*
X62430000Y-104479999D01*
X62430000Y-100134024D02*
X59645191Y-97349215D01*
D43*
%TO.N,Net-(U2-GND)*%
X49738446Y-91358200D02*
X49738446Y-96685954D01*
X49738446Y-96685954D02*
X50953645Y-97901153D01*
%TD*%
%TA.AperFunction,Conductor*%
%TO.N,GND*%
G36*
X76208564Y-38020276D02*
G01*
X76212568Y-38020407D01*
X77417896Y-38079621D01*
X77421902Y-38079884D01*
X78624541Y-38178495D01*
X78628573Y-38178891D01*
X79827419Y-38316807D01*
X79831401Y-38317332D01*
X81025090Y-38494399D01*
X81029006Y-38495045D01*
X82216283Y-38711078D01*
X82220210Y-38711859D01*
X83360830Y-38958210D01*
X83399717Y-38966609D01*
X83403670Y-38967530D01*
X84574212Y-39260735D01*
X84578100Y-39261776D01*
X85738463Y-39593136D01*
X85742299Y-39594300D01*
X86891205Y-39963450D01*
X86895015Y-39964744D01*
X88031183Y-40371271D01*
X88034920Y-40372678D01*
X89157211Y-40816174D01*
X89160956Y-40817725D01*
X90268120Y-41297698D01*
X90271729Y-41299333D01*
X91362651Y-41815301D01*
X91366261Y-41817082D01*
X92439654Y-42368434D01*
X92443201Y-42370330D01*
X93497996Y-42956518D01*
X93501479Y-42958529D01*
X94529163Y-43574500D01*
X94536486Y-43578889D01*
X94539931Y-43581031D01*
X95554141Y-44234957D01*
X95557496Y-44237199D01*
X96549694Y-44923909D01*
X96552980Y-44926263D01*
X97448227Y-45590224D01*
X97522237Y-45645113D01*
X97525443Y-45647573D01*
X98168007Y-46157548D01*
X98470654Y-46397746D01*
X98473790Y-46400320D01*
X98584390Y-46494157D01*
X99393921Y-47180993D01*
X99396971Y-47183668D01*
X100063583Y-47787850D01*
X100291065Y-47994027D01*
X100294021Y-47996795D01*
X101161168Y-48836020D01*
X101163979Y-48838831D01*
X102002472Y-49705222D01*
X102003198Y-49705972D01*
X102005972Y-49708934D01*
X102816331Y-50603028D01*
X102819006Y-50606078D01*
X103599678Y-51526208D01*
X103602253Y-51529345D01*
X104352416Y-52474543D01*
X104354882Y-52477757D01*
X104675020Y-52909413D01*
X105073727Y-53447006D01*
X105076089Y-53450303D01*
X105762057Y-54441430D01*
X105762787Y-54442484D01*
X105765042Y-54445858D01*
X106418968Y-55460068D01*
X106421110Y-55463513D01*
X107041461Y-56498505D01*
X107043490Y-56502019D01*
X107629660Y-57556782D01*
X107631573Y-57560361D01*
X108182910Y-58633724D01*
X108184705Y-58637363D01*
X108272386Y-58822749D01*
X108630610Y-59580150D01*
X108700646Y-59728227D01*
X108702313Y-59731908D01*
X108836275Y-60040921D01*
X109182272Y-60839039D01*
X109183825Y-60842788D01*
X109627310Y-61965049D01*
X109628739Y-61968847D01*
X110035249Y-63104968D01*
X110036554Y-63108810D01*
X110405692Y-64257677D01*
X110406870Y-64261560D01*
X110738218Y-65421883D01*
X110739268Y-65425803D01*
X111032469Y-66596331D01*
X111033390Y-66600282D01*
X111288134Y-67779762D01*
X111288926Y-67783742D01*
X111504946Y-68970949D01*
X111505607Y-68974952D01*
X111682664Y-70168577D01*
X111683194Y-70172600D01*
X111821107Y-71371423D01*
X111821504Y-71375462D01*
X111920113Y-72578075D01*
X111920379Y-72582124D01*
X111979591Y-73787406D01*
X111979723Y-73791461D01*
X111999466Y-74997971D01*
X111999466Y-75002029D01*
X111979723Y-76208538D01*
X111979591Y-76212593D01*
X111920379Y-77417875D01*
X111920113Y-77421924D01*
X111821504Y-78624537D01*
X111821107Y-78628576D01*
X111683194Y-79827399D01*
X111682664Y-79831422D01*
X111505607Y-81025047D01*
X111504946Y-81029050D01*
X111288926Y-82216257D01*
X111288134Y-82220237D01*
X111033390Y-83399717D01*
X111032469Y-83403668D01*
X110739268Y-84574196D01*
X110738218Y-84578116D01*
X110406870Y-85738439D01*
X110405692Y-85742322D01*
X110036554Y-86891189D01*
X110035249Y-86895031D01*
X109628739Y-88031152D01*
X109627310Y-88034950D01*
X109183825Y-89157211D01*
X109182272Y-89160960D01*
X108702320Y-90268076D01*
X108700646Y-90271772D01*
X108184705Y-91362636D01*
X108182910Y-91366275D01*
X107631573Y-92439638D01*
X107629660Y-92443217D01*
X107043490Y-93497980D01*
X107041461Y-93501494D01*
X106421110Y-94536486D01*
X106418968Y-94539931D01*
X105765042Y-95554141D01*
X105762787Y-95557515D01*
X105076090Y-96549694D01*
X105073727Y-96552993D01*
X104354886Y-97522237D01*
X104352416Y-97525456D01*
X103602253Y-98470654D01*
X103599678Y-98473791D01*
X102819006Y-99393921D01*
X102816331Y-99396971D01*
X102005972Y-100291065D01*
X102003198Y-100294027D01*
X101164008Y-101161139D01*
X101161139Y-101164008D01*
X100294027Y-102003198D01*
X100291065Y-102005972D01*
X99396971Y-102816331D01*
X99393921Y-102819006D01*
X98473791Y-103599678D01*
X98470654Y-103602253D01*
X97525456Y-104352416D01*
X97522237Y-104354886D01*
X96552993Y-105073727D01*
X96549694Y-105076090D01*
X95557515Y-105762787D01*
X95554141Y-105765042D01*
X94539931Y-106418968D01*
X94536486Y-106421110D01*
X93501494Y-107041461D01*
X93497980Y-107043490D01*
X92443217Y-107629660D01*
X92439638Y-107631573D01*
X91366275Y-108182910D01*
X91362636Y-108184705D01*
X90271772Y-108700646D01*
X90268076Y-108702320D01*
X89160960Y-109182272D01*
X89157211Y-109183825D01*
X88034950Y-109627310D01*
X88031152Y-109628739D01*
X86895031Y-110035249D01*
X86891189Y-110036554D01*
X85742322Y-110405692D01*
X85738439Y-110406870D01*
X84578116Y-110738218D01*
X84574196Y-110739268D01*
X83403668Y-111032469D01*
X83399717Y-111033390D01*
X82220237Y-111288134D01*
X82216257Y-111288926D01*
X81029050Y-111504946D01*
X81025047Y-111505607D01*
X79831422Y-111682664D01*
X79827399Y-111683194D01*
X78628576Y-111821107D01*
X78624537Y-111821504D01*
X77421924Y-111920113D01*
X77417875Y-111920379D01*
X76212593Y-111979591D01*
X76208538Y-111979723D01*
X75002029Y-111999466D01*
X74997971Y-111999466D01*
X73791461Y-111979723D01*
X73787406Y-111979591D01*
X72582124Y-111920379D01*
X72578075Y-111920113D01*
X71375462Y-111821504D01*
X71371423Y-111821107D01*
X70172600Y-111683194D01*
X70168577Y-111682664D01*
X68974952Y-111505607D01*
X68970949Y-111504946D01*
X67783742Y-111288926D01*
X67779762Y-111288134D01*
X66600282Y-111033390D01*
X66596331Y-111032469D01*
X65425803Y-110739268D01*
X65421883Y-110738218D01*
X64261560Y-110406870D01*
X64257677Y-110405692D01*
X63108810Y-110036554D01*
X63104968Y-110035249D01*
X61968847Y-109628739D01*
X61965049Y-109627310D01*
X60842788Y-109183825D01*
X60839039Y-109182272D01*
X60142384Y-108880261D01*
X59731908Y-108702313D01*
X59728243Y-108700653D01*
X58637363Y-108184705D01*
X58633724Y-108182910D01*
X57560361Y-107631573D01*
X57556782Y-107629660D01*
X56502019Y-107043490D01*
X56498505Y-107041461D01*
X55463513Y-106421110D01*
X55460068Y-106418968D01*
X54445858Y-105765042D01*
X54442484Y-105762787D01*
X54141517Y-105554485D01*
X53450303Y-105076089D01*
X53447006Y-105073727D01*
X52477757Y-104354882D01*
X52474543Y-104352416D01*
X52468288Y-104347452D01*
X51960637Y-103944551D01*
X51529345Y-103602253D01*
X51526208Y-103599678D01*
X50606078Y-102819006D01*
X50603028Y-102816331D01*
X50059279Y-102323506D01*
X49708929Y-102005967D01*
X49705972Y-102003198D01*
X49598823Y-101899499D01*
X48838831Y-101163979D01*
X48836020Y-101161168D01*
X47996795Y-100294021D01*
X47994027Y-100291065D01*
X47183668Y-99396971D01*
X47180993Y-99393921D01*
X46400321Y-98473791D01*
X46397746Y-98470654D01*
X46088020Y-98080402D01*
X45647573Y-97525443D01*
X45645113Y-97522237D01*
X45553633Y-97398891D01*
X44926263Y-96552980D01*
X44923909Y-96549694D01*
X44889066Y-96499351D01*
X44237199Y-95557496D01*
X44234957Y-95554141D01*
X43581031Y-94539931D01*
X43578889Y-94536486D01*
X42958529Y-93501479D01*
X42956509Y-93497980D01*
X42850369Y-93306991D01*
X42370330Y-92443201D01*
X42368426Y-92439638D01*
X42309167Y-92324271D01*
X41817082Y-91366261D01*
X41815294Y-91362636D01*
X41443229Y-90575972D01*
X47357825Y-90575972D01*
X47373030Y-90710922D01*
X47427336Y-90835392D01*
X47427336Y-90835393D01*
X47427337Y-90835394D01*
X47427338Y-90835396D01*
X47489787Y-90907963D01*
X47515921Y-90938331D01*
X47515924Y-90938334D01*
X47540841Y-90956013D01*
X47540859Y-90956025D01*
X48739767Y-91648214D01*
X49225946Y-91928909D01*
X49274162Y-91979476D01*
X49287946Y-92036296D01*
X49287946Y-96745262D01*
X49312158Y-96835626D01*
X49318646Y-96859839D01*
X49318646Y-96859840D01*
X49318647Y-96859841D01*
X49377957Y-96962568D01*
X49377959Y-96962570D01*
X50122913Y-97707524D01*
X50156398Y-97768847D01*
X50158452Y-97809087D01*
X50148080Y-97901148D01*
X50148080Y-97901156D01*
X50168275Y-98080402D01*
X50168276Y-98080407D01*
X50227856Y-98250676D01*
X50293881Y-98355753D01*
X50323829Y-98403415D01*
X50451383Y-98530969D01*
X50604123Y-98626942D01*
X50774390Y-98686521D01*
X50774395Y-98686522D01*
X50953641Y-98706718D01*
X50953645Y-98706718D01*
X50953649Y-98706718D01*
X51132894Y-98686522D01*
X51132897Y-98686521D01*
X51132900Y-98686521D01*
X51303167Y-98626942D01*
X51455907Y-98530969D01*
X51583461Y-98403415D01*
X51679434Y-98250675D01*
X51739013Y-98080408D01*
X51739014Y-98080402D01*
X51759210Y-97901156D01*
X51759210Y-97901149D01*
X51739014Y-97721903D01*
X51739013Y-97721898D01*
X51679433Y-97551629D01*
X51583460Y-97398890D01*
X51455907Y-97271337D01*
X51303168Y-97175364D01*
X51132899Y-97115784D01*
X51132894Y-97115783D01*
X50953649Y-97095588D01*
X50953641Y-97095588D01*
X50861579Y-97105960D01*
X50792758Y-97093905D01*
X50760016Y-97070421D01*
X50225265Y-96535670D01*
X50191780Y-96474347D01*
X50188946Y-96447989D01*
X50188946Y-92699671D01*
X50208631Y-92632632D01*
X50261435Y-92586877D01*
X50330593Y-92576933D01*
X50374944Y-92592283D01*
X50560945Y-92699671D01*
X51130946Y-93028762D01*
X51185546Y-93060285D01*
X51213329Y-93073030D01*
X51346765Y-93098278D01*
X51481715Y-93083073D01*
X51606188Y-93028765D01*
X51709123Y-92940182D01*
X51726812Y-92915253D01*
X52081078Y-92301647D01*
X52093822Y-92273864D01*
X52096274Y-92260908D01*
X52119070Y-92140427D01*
X52103865Y-92005477D01*
X52070459Y-91928909D01*
X52049558Y-91881004D01*
X51960975Y-91778069D01*
X51960974Y-91778068D01*
X51960971Y-91778065D01*
X51936054Y-91760386D01*
X51936036Y-91760374D01*
X48291358Y-89656119D01*
X48291353Y-89656116D01*
X48291350Y-89656115D01*
X48263567Y-89643370D01*
X48210490Y-89633327D01*
X48130129Y-89618121D01*
X47995181Y-89633326D01*
X47870709Y-89687634D01*
X47870704Y-89687637D01*
X47767770Y-89776220D01*
X47750090Y-89801137D01*
X47750085Y-89801144D01*
X47395820Y-90414749D01*
X47383072Y-90442539D01*
X47357825Y-90575972D01*
X41443229Y-90575972D01*
X41299333Y-90271729D01*
X41297698Y-90268120D01*
X40817725Y-89160956D01*
X40816174Y-89157211D01*
X40815611Y-89155786D01*
X40372678Y-88034920D01*
X40371271Y-88031183D01*
X39964744Y-86895015D01*
X39963445Y-86891189D01*
X39936127Y-86806167D01*
X39594300Y-85742299D01*
X39593129Y-85738439D01*
X39501450Y-85417396D01*
X39261776Y-84578100D01*
X39260731Y-84574196D01*
X39256990Y-84559262D01*
X39030302Y-83654269D01*
X53424500Y-83654269D01*
X53427353Y-83684699D01*
X53427353Y-83684701D01*
X53470184Y-83807101D01*
X53472207Y-83812882D01*
X53552850Y-83922150D01*
X53662118Y-84002793D01*
X53691388Y-84013035D01*
X53790299Y-84047646D01*
X53820730Y-84050500D01*
X53820734Y-84050500D01*
X55179270Y-84050500D01*
X55209699Y-84047646D01*
X55209701Y-84047646D01*
X55273790Y-84025219D01*
X55337882Y-84002793D01*
X55447150Y-83922150D01*
X55527793Y-83812882D01*
X55550219Y-83748790D01*
X55572646Y-83684701D01*
X55572646Y-83684699D01*
X55575500Y-83654269D01*
X55575500Y-82845730D01*
X55572646Y-82815300D01*
X55572646Y-82815298D01*
X55539006Y-82719163D01*
X55527793Y-82687118D01*
X55447150Y-82577850D01*
X55337882Y-82497207D01*
X55337880Y-82497206D01*
X55209700Y-82452353D01*
X55179270Y-82449500D01*
X55179266Y-82449500D01*
X53820734Y-82449500D01*
X53820730Y-82449500D01*
X53790300Y-82452353D01*
X53790298Y-82452353D01*
X53662119Y-82497206D01*
X53662117Y-82497207D01*
X53552850Y-82577850D01*
X53472207Y-82687117D01*
X53472206Y-82687119D01*
X53427353Y-82815298D01*
X53427353Y-82815300D01*
X53424500Y-82845730D01*
X53424500Y-83654269D01*
X39030302Y-83654269D01*
X38967530Y-83403668D01*
X38966609Y-83399717D01*
X38911291Y-83143590D01*
X38711859Y-82220210D01*
X38711073Y-82216257D01*
X38549603Y-81328846D01*
X53424500Y-81328846D01*
X53455261Y-81483489D01*
X53455264Y-81483501D01*
X53515602Y-81629172D01*
X53515609Y-81629185D01*
X53603210Y-81760288D01*
X53603213Y-81760292D01*
X53714707Y-81871786D01*
X53714711Y-81871789D01*
X53845814Y-81959390D01*
X53845827Y-81959397D01*
X53990356Y-82019262D01*
X53991503Y-82019737D01*
X54133736Y-82048029D01*
X54146153Y-82050499D01*
X54146156Y-82050500D01*
X54146158Y-82050500D01*
X54853844Y-82050500D01*
X54853845Y-82050499D01*
X55008497Y-82019737D01*
X55154179Y-81959394D01*
X55285289Y-81871789D01*
X55396789Y-81760289D01*
X55484394Y-81629179D01*
X55544737Y-81483497D01*
X55571291Y-81350000D01*
X58404417Y-81350000D01*
X58424699Y-81555932D01*
X58440311Y-81607397D01*
X58484768Y-81753954D01*
X58582315Y-81936450D01*
X58582317Y-81936452D01*
X58713589Y-82096410D01*
X58810209Y-82175702D01*
X58873550Y-82227685D01*
X59056046Y-82325232D01*
X59254066Y-82385300D01*
X59254065Y-82385300D01*
X59272529Y-82387118D01*
X59460000Y-82405583D01*
X59665934Y-82385300D01*
X59863954Y-82325232D01*
X60046450Y-82227685D01*
X60206410Y-82096410D01*
X60337685Y-81936450D01*
X60435232Y-81753954D01*
X60495300Y-81555934D01*
X60515583Y-81350000D01*
X60944417Y-81350000D01*
X60964699Y-81555932D01*
X60980311Y-81607397D01*
X61024768Y-81753954D01*
X61122315Y-81936450D01*
X61122317Y-81936452D01*
X61253589Y-82096410D01*
X61350209Y-82175702D01*
X61413550Y-82227685D01*
X61596046Y-82325232D01*
X61794066Y-82385300D01*
X61794065Y-82385300D01*
X61812529Y-82387118D01*
X62000000Y-82405583D01*
X62205934Y-82385300D01*
X62403954Y-82325232D01*
X62586450Y-82227685D01*
X62746410Y-82096410D01*
X62877685Y-81936450D01*
X62975232Y-81753954D01*
X63035300Y-81555934D01*
X63055583Y-81350000D01*
X63035300Y-81144066D01*
X62975232Y-80946046D01*
X62877685Y-80763550D01*
X62825702Y-80700209D01*
X62746410Y-80603589D01*
X62596136Y-80480264D01*
X62586450Y-80472315D01*
X62403954Y-80374768D01*
X62205934Y-80314700D01*
X62205932Y-80314699D01*
X62205934Y-80314699D01*
X62000000Y-80294417D01*
X61794067Y-80314699D01*
X61596043Y-80374769D01*
X61485898Y-80433643D01*
X61413550Y-80472315D01*
X61413548Y-80472316D01*
X61413547Y-80472317D01*
X61253589Y-80603589D01*
X61127077Y-80757747D01*
X61122315Y-80763550D01*
X61083643Y-80835898D01*
X61024769Y-80946043D01*
X60964699Y-81144067D01*
X60944417Y-81350000D01*
X60515583Y-81350000D01*
X60495300Y-81144066D01*
X60435232Y-80946046D01*
X60337685Y-80763550D01*
X60285702Y-80700209D01*
X60206410Y-80603589D01*
X60056136Y-80480264D01*
X60046450Y-80472315D01*
X59863954Y-80374768D01*
X59665934Y-80314700D01*
X59665932Y-80314699D01*
X59665934Y-80314699D01*
X59460000Y-80294417D01*
X59254067Y-80314699D01*
X59056043Y-80374769D01*
X58945898Y-80433643D01*
X58873550Y-80472315D01*
X58873548Y-80472316D01*
X58873547Y-80472317D01*
X58713589Y-80603589D01*
X58587077Y-80757747D01*
X58582315Y-80763550D01*
X58543643Y-80835898D01*
X58484769Y-80946043D01*
X58424699Y-81144067D01*
X58404417Y-81350000D01*
X55571291Y-81350000D01*
X55575500Y-81328842D01*
X55575500Y-81171158D01*
X55575500Y-81171155D01*
X55575499Y-81171153D01*
X55566847Y-81127659D01*
X55544737Y-81016503D01*
X55511245Y-80935645D01*
X55484397Y-80870827D01*
X55484390Y-80870814D01*
X55396789Y-80739711D01*
X55396786Y-80739707D01*
X55285292Y-80628213D01*
X55285288Y-80628210D01*
X55154185Y-80540609D01*
X55154172Y-80540602D01*
X55008501Y-80480264D01*
X55008489Y-80480261D01*
X54853845Y-80449500D01*
X54853842Y-80449500D01*
X54146158Y-80449500D01*
X54146155Y-80449500D01*
X53991510Y-80480261D01*
X53991498Y-80480264D01*
X53845827Y-80540602D01*
X53845814Y-80540609D01*
X53714711Y-80628210D01*
X53714707Y-80628213D01*
X53603213Y-80739707D01*
X53603210Y-80739711D01*
X53515609Y-80870814D01*
X53515602Y-80870827D01*
X53455264Y-81016498D01*
X53455261Y-81016510D01*
X53424500Y-81171153D01*
X53424500Y-81328846D01*
X38549603Y-81328846D01*
X38495045Y-81029006D01*
X38494399Y-81025090D01*
X38317332Y-79831401D01*
X38316805Y-79827399D01*
X38315298Y-79814302D01*
X38178891Y-78628573D01*
X38178495Y-78624537D01*
X38176817Y-78604067D01*
X38079884Y-77421902D01*
X38079620Y-77417875D01*
X38075086Y-77325582D01*
X38044072Y-76694269D01*
X53424500Y-76694269D01*
X53427353Y-76724699D01*
X53427353Y-76724701D01*
X53472206Y-76852880D01*
X53472207Y-76852882D01*
X53552850Y-76962150D01*
X53662118Y-77042793D01*
X53682752Y-77050013D01*
X53790299Y-77087646D01*
X53820730Y-77090500D01*
X53820734Y-77090500D01*
X54718101Y-77090500D01*
X54785140Y-77110185D01*
X54805782Y-77126819D01*
X55404525Y-77725562D01*
X55474438Y-77795475D01*
X55542494Y-77834767D01*
X55560062Y-77844910D01*
X55607811Y-77857705D01*
X55607812Y-77857705D01*
X55614512Y-77859500D01*
X55655564Y-77870500D01*
X55655565Y-77870500D01*
X58609879Y-77870500D01*
X58676918Y-77890185D01*
X58722673Y-77942989D01*
X58732617Y-78012147D01*
X58705732Y-78073165D01*
X58582317Y-78223546D01*
X58484769Y-78406043D01*
X58424699Y-78604067D01*
X58404417Y-78810000D01*
X58424699Y-79015932D01*
X58454734Y-79114944D01*
X58484768Y-79213954D01*
X58582315Y-79396450D01*
X58582317Y-79396452D01*
X58713589Y-79556410D01*
X58730427Y-79570228D01*
X58873550Y-79687685D01*
X59056046Y-79785232D01*
X59254066Y-79845300D01*
X59254065Y-79845300D01*
X59272529Y-79847118D01*
X59460000Y-79865583D01*
X59665934Y-79845300D01*
X59863954Y-79785232D01*
X60046450Y-79687685D01*
X60206410Y-79556410D01*
X60337685Y-79396450D01*
X60435232Y-79213954D01*
X60495300Y-79015934D01*
X60515583Y-78810000D01*
X60495300Y-78604066D01*
X60435232Y-78406046D01*
X60337685Y-78223550D01*
X60214268Y-78073165D01*
X60186955Y-78008855D01*
X60198746Y-77939987D01*
X60245898Y-77888427D01*
X60310121Y-77870500D01*
X61149879Y-77870500D01*
X61216918Y-77890185D01*
X61262673Y-77942989D01*
X61272617Y-78012147D01*
X61245732Y-78073165D01*
X61122317Y-78223546D01*
X61024769Y-78406043D01*
X60964699Y-78604067D01*
X60944417Y-78810000D01*
X60964699Y-79015932D01*
X60994734Y-79114944D01*
X61024768Y-79213954D01*
X61122315Y-79396450D01*
X61122317Y-79396452D01*
X61253589Y-79556410D01*
X61270427Y-79570228D01*
X61413550Y-79687685D01*
X61596046Y-79785232D01*
X61794066Y-79845300D01*
X61794065Y-79845300D01*
X61812529Y-79847118D01*
X62000000Y-79865583D01*
X62205934Y-79845300D01*
X62403954Y-79785232D01*
X62586450Y-79687685D01*
X62746410Y-79556410D01*
X62877685Y-79396450D01*
X62975232Y-79213954D01*
X63035300Y-79015934D01*
X63055583Y-78810000D01*
X63035300Y-78604066D01*
X62975232Y-78406046D01*
X62877685Y-78223550D01*
X62797795Y-78126203D01*
X62746410Y-78063589D01*
X62689640Y-78017000D01*
X62650305Y-77959254D01*
X62648434Y-77889409D01*
X62684621Y-77829641D01*
X62706299Y-77813762D01*
X62737974Y-77795475D01*
X62807887Y-77725562D01*
X64592150Y-75941299D01*
X64606704Y-75916091D01*
X64641586Y-75855674D01*
X64664233Y-75771154D01*
X64667176Y-75760172D01*
X64667176Y-75661300D01*
X64667176Y-74625507D01*
X64686861Y-74558468D01*
X64697459Y-74544309D01*
X64717053Y-74521697D01*
X64776841Y-74390781D01*
X64797323Y-74248324D01*
X64776841Y-74105867D01*
X64717053Y-73974951D01*
X64622804Y-73866181D01*
X64501729Y-73788371D01*
X64501726Y-73788369D01*
X64431976Y-73767889D01*
X64373198Y-73730115D01*
X64344173Y-73666559D01*
X64350537Y-73615931D01*
X64347807Y-73615200D01*
X64351396Y-73601805D01*
X64375500Y-73511848D01*
X64375500Y-73412976D01*
X64375500Y-73067183D01*
X64395185Y-73000144D01*
X64405783Y-72985985D01*
X64425377Y-72963373D01*
X64485165Y-72832457D01*
X64505647Y-72690000D01*
X64485165Y-72547543D01*
X64425377Y-72416627D01*
X64331128Y-72307857D01*
X64210053Y-72230047D01*
X64210051Y-72230046D01*
X64210049Y-72230045D01*
X64210050Y-72230045D01*
X64071963Y-72189500D01*
X64071961Y-72189500D01*
X63928039Y-72189500D01*
X63928036Y-72189500D01*
X63789949Y-72230045D01*
X63668873Y-72307856D01*
X63574623Y-72416626D01*
X63574622Y-72416628D01*
X63514834Y-72547543D01*
X63494353Y-72690000D01*
X63514834Y-72832456D01*
X63563642Y-72939328D01*
X63574623Y-72963373D01*
X63594212Y-72985980D01*
X63623238Y-73049534D01*
X63624500Y-73067183D01*
X63624500Y-73255512D01*
X63604815Y-73322551D01*
X63588181Y-73343193D01*
X63254040Y-73677333D01*
X63192717Y-73710818D01*
X63123025Y-73705834D01*
X63067092Y-73663962D01*
X63042956Y-73601807D01*
X63035300Y-73524066D01*
X62975232Y-73326046D01*
X62877685Y-73143550D01*
X62800529Y-73049534D01*
X62746410Y-72983589D01*
X62602306Y-72865328D01*
X62586450Y-72852315D01*
X62403954Y-72754768D01*
X62205934Y-72694700D01*
X62205932Y-72694699D01*
X62205934Y-72694699D01*
X62000000Y-72674417D01*
X61794067Y-72694699D01*
X61596043Y-72754769D01*
X61492446Y-72810144D01*
X61413550Y-72852315D01*
X61413548Y-72852316D01*
X61413547Y-72852317D01*
X61253589Y-72983589D01*
X61122317Y-73143547D01*
X61122315Y-73143550D01*
X61085500Y-73212425D01*
X61024769Y-73326043D01*
X60964699Y-73524067D01*
X60944417Y-73730000D01*
X60964699Y-73935932D01*
X61024769Y-74133956D01*
X61122317Y-74316453D01*
X61192388Y-74401835D01*
X61219701Y-74466145D01*
X61207910Y-74535013D01*
X61160758Y-74586573D01*
X61096535Y-74604500D01*
X55760562Y-74604500D01*
X55708178Y-74618536D01*
X55638328Y-74616873D01*
X55580466Y-74577709D01*
X55552963Y-74513480D01*
X55554469Y-74474569D01*
X55575500Y-74368844D01*
X55575500Y-74211155D01*
X55575499Y-74211153D01*
X55544738Y-74056510D01*
X55544737Y-74056503D01*
X55510958Y-73974952D01*
X55484397Y-73910827D01*
X55484390Y-73910814D01*
X55396789Y-73779711D01*
X55396786Y-73779707D01*
X55285292Y-73668213D01*
X55285288Y-73668210D01*
X55154185Y-73580609D01*
X55154172Y-73580602D01*
X55008501Y-73520264D01*
X55008489Y-73520261D01*
X54853845Y-73489500D01*
X54853842Y-73489500D01*
X54146158Y-73489500D01*
X54146155Y-73489500D01*
X53991510Y-73520261D01*
X53991498Y-73520264D01*
X53845827Y-73580602D01*
X53845814Y-73580609D01*
X53714711Y-73668210D01*
X53714707Y-73668213D01*
X53603213Y-73779707D01*
X53603210Y-73779711D01*
X53515609Y-73910814D01*
X53515602Y-73910827D01*
X53455264Y-74056498D01*
X53455261Y-74056510D01*
X53424500Y-74211153D01*
X53424500Y-74368846D01*
X53455261Y-74523489D01*
X53455264Y-74523501D01*
X53515602Y-74669172D01*
X53515609Y-74669185D01*
X53603210Y-74800288D01*
X53603213Y-74800292D01*
X53714707Y-74911786D01*
X53714711Y-74911789D01*
X53845814Y-74999390D01*
X53845827Y-74999397D01*
X53991498Y-75059735D01*
X53991503Y-75059737D01*
X54144127Y-75090096D01*
X54146153Y-75090499D01*
X54146156Y-75090500D01*
X54146158Y-75090500D01*
X54853841Y-75090500D01*
X54853842Y-75090500D01*
X54853842Y-75090499D01*
X54857941Y-75090096D01*
X54926588Y-75103111D01*
X54977301Y-75151173D01*
X54993979Y-75219023D01*
X54971327Y-75285119D01*
X54957785Y-75301177D01*
X54805780Y-75453182D01*
X54744459Y-75486666D01*
X54718101Y-75489500D01*
X53820730Y-75489500D01*
X53790300Y-75492353D01*
X53790298Y-75492353D01*
X53662119Y-75537206D01*
X53662117Y-75537207D01*
X53552850Y-75617850D01*
X53472207Y-75727117D01*
X53472206Y-75727119D01*
X53427353Y-75855298D01*
X53427353Y-75855300D01*
X53424500Y-75885730D01*
X53424500Y-76694269D01*
X38044072Y-76694269D01*
X38020407Y-76212568D01*
X38020276Y-76208538D01*
X38020201Y-76203962D01*
X38000533Y-75002016D01*
X38000533Y-74997971D01*
X38001943Y-74911789D01*
X38020276Y-73791433D01*
X38020408Y-73787406D01*
X38020787Y-73779707D01*
X38079621Y-72582099D01*
X38079886Y-72578075D01*
X38081201Y-72562047D01*
X38097042Y-72368846D01*
X53424500Y-72368846D01*
X53455261Y-72523489D01*
X53455264Y-72523501D01*
X53515602Y-72669172D01*
X53515609Y-72669185D01*
X53603210Y-72800288D01*
X53603213Y-72800292D01*
X53714707Y-72911786D01*
X53714711Y-72911789D01*
X53845814Y-72999390D01*
X53845827Y-72999397D01*
X53991498Y-73059735D01*
X53991503Y-73059737D01*
X54146153Y-73090499D01*
X54146156Y-73090500D01*
X54146158Y-73090500D01*
X54853844Y-73090500D01*
X54853845Y-73090499D01*
X55008497Y-73059737D01*
X55121166Y-73013067D01*
X55154172Y-72999397D01*
X55154172Y-72999396D01*
X55154179Y-72999394D01*
X55285289Y-72911789D01*
X55396789Y-72800289D01*
X55484394Y-72669179D01*
X55544737Y-72523497D01*
X55575500Y-72368842D01*
X55575500Y-72211158D01*
X55575500Y-72211155D01*
X55575499Y-72211153D01*
X55565579Y-72161281D01*
X55544737Y-72056503D01*
X55544735Y-72056498D01*
X55484397Y-71910827D01*
X55484390Y-71910814D01*
X55396789Y-71779711D01*
X55396786Y-71779707D01*
X55285292Y-71668213D01*
X55285288Y-71668210D01*
X55154185Y-71580609D01*
X55154172Y-71580602D01*
X55008501Y-71520264D01*
X55008489Y-71520261D01*
X54853845Y-71489500D01*
X54853842Y-71489500D01*
X54146158Y-71489500D01*
X54146155Y-71489500D01*
X53991510Y-71520261D01*
X53991498Y-71520264D01*
X53845827Y-71580602D01*
X53845814Y-71580609D01*
X53714711Y-71668210D01*
X53714707Y-71668213D01*
X53603213Y-71779707D01*
X53603210Y-71779711D01*
X53515609Y-71910814D01*
X53515602Y-71910827D01*
X53455264Y-72056498D01*
X53455261Y-72056510D01*
X53424500Y-72211153D01*
X53424500Y-72368846D01*
X38097042Y-72368846D01*
X38178495Y-71375452D01*
X38178892Y-71371423D01*
X38188625Y-71286819D01*
X38199763Y-71190000D01*
X60944417Y-71190000D01*
X60964699Y-71395932D01*
X60993083Y-71489500D01*
X61024768Y-71593954D01*
X61122315Y-71776450D01*
X61134105Y-71790816D01*
X61253589Y-71936410D01*
X61349037Y-72014741D01*
X61413550Y-72067685D01*
X61596046Y-72165232D01*
X61794066Y-72225300D01*
X61794065Y-72225300D01*
X61807539Y-72226627D01*
X62000000Y-72245583D01*
X62205934Y-72225300D01*
X62403954Y-72165232D01*
X62586450Y-72067685D01*
X62746410Y-71936410D01*
X62877685Y-71776450D01*
X62975232Y-71593954D01*
X63035300Y-71395934D01*
X63055583Y-71190000D01*
X63035300Y-70984066D01*
X62975232Y-70786046D01*
X62877685Y-70603550D01*
X62825702Y-70540209D01*
X62746410Y-70443589D01*
X62586452Y-70312317D01*
X62586453Y-70312317D01*
X62586450Y-70312315D01*
X62403954Y-70214768D01*
X62205934Y-70154700D01*
X62205932Y-70154699D01*
X62205934Y-70154699D01*
X62000000Y-70134417D01*
X61794067Y-70154699D01*
X61618692Y-70207898D01*
X61596973Y-70214487D01*
X61596043Y-70214769D01*
X61485898Y-70273643D01*
X61413550Y-70312315D01*
X61413548Y-70312316D01*
X61413547Y-70312317D01*
X61253589Y-70443589D01*
X61122317Y-70603547D01*
X61024769Y-70786043D01*
X60964699Y-70984067D01*
X60944417Y-71190000D01*
X38199763Y-71190000D01*
X38316808Y-70172572D01*
X38317335Y-70168577D01*
X38494400Y-68974899D01*
X38495044Y-68971003D01*
X38711080Y-67783704D01*
X38711857Y-67779801D01*
X38811932Y-67316445D01*
X42029432Y-67316445D01*
X42035478Y-67454897D01*
X42038459Y-67523177D01*
X42067464Y-67641717D01*
X42087641Y-67724176D01*
X42087645Y-67724185D01*
X42133555Y-67822639D01*
X42175094Y-67911721D01*
X42257894Y-68024645D01*
X42297458Y-68078603D01*
X42382242Y-68156293D01*
X42450018Y-68218399D01*
X42450020Y-68218400D01*
X42450021Y-68218401D01*
X42459067Y-68223890D01*
X42626926Y-68325750D01*
X43056300Y-68482031D01*
X43260823Y-68513510D01*
X43467556Y-68504484D01*
X43668557Y-68455301D01*
X43856100Y-68367849D01*
X44022978Y-68245488D01*
X44162778Y-68092924D01*
X44270129Y-67916017D01*
X44285943Y-67872565D01*
X44314782Y-67827296D01*
X49074410Y-63067670D01*
X49135733Y-63034185D01*
X49162091Y-63031351D01*
X58067911Y-63031351D01*
X58134950Y-63051036D01*
X58155592Y-63067670D01*
X58173589Y-63085667D01*
X58207015Y-63106670D01*
X58279467Y-63152195D01*
X58326329Y-63181640D01*
X58451674Y-63225500D01*
X58496596Y-63241219D01*
X58496601Y-63241220D01*
X58675847Y-63261416D01*
X58675851Y-63261416D01*
X58675855Y-63261416D01*
X58855100Y-63241220D01*
X58855103Y-63241219D01*
X58855106Y-63241219D01*
X59025373Y-63181640D01*
X59178113Y-63085667D01*
X59305667Y-62958113D01*
X59401640Y-62805373D01*
X59461219Y-62635106D01*
X59461220Y-62635100D01*
X59481416Y-62455854D01*
X59481416Y-62455847D01*
X59461220Y-62276601D01*
X59461219Y-62276596D01*
X59401640Y-62106329D01*
X59381640Y-62074500D01*
X59349799Y-62023824D01*
X59305667Y-61953589D01*
X59178113Y-61826035D01*
X59151440Y-61809275D01*
X59025374Y-61730062D01*
X58855105Y-61670482D01*
X58855100Y-61670481D01*
X58675855Y-61650286D01*
X58675847Y-61650286D01*
X58496601Y-61670481D01*
X58496596Y-61670482D01*
X58326327Y-61730062D01*
X58173588Y-61826035D01*
X58155592Y-61844032D01*
X58094269Y-61877517D01*
X58067911Y-61880351D01*
X48796583Y-61880351D01*
X48650212Y-61919570D01*
X48518984Y-61995336D01*
X48518981Y-61995338D01*
X45431684Y-65082634D01*
X45370361Y-65116119D01*
X45300669Y-65111135D01*
X45244736Y-65069263D01*
X45220319Y-65003799D01*
X45220125Y-65000432D01*
X45218407Y-64961079D01*
X45169224Y-64760078D01*
X45081772Y-64572535D01*
X44959411Y-64405657D01*
X44959409Y-64405656D01*
X44959407Y-64405652D01*
X44806852Y-64265861D01*
X44806843Y-64265854D01*
X44687402Y-64193375D01*
X44629940Y-64158506D01*
X44200565Y-64002225D01*
X44146002Y-63993827D01*
X43996042Y-63970745D01*
X43805273Y-63979075D01*
X43789310Y-63979772D01*
X43710283Y-63999109D01*
X43588310Y-64028954D01*
X43588301Y-64028958D01*
X43400769Y-64116405D01*
X43233883Y-64238771D01*
X43094088Y-64391331D01*
X43094085Y-64391334D01*
X42986738Y-64568237D01*
X42986737Y-64568239D01*
X42916913Y-64760079D01*
X42915962Y-64762691D01*
X42884482Y-64967210D01*
X42884482Y-64967213D01*
X42890984Y-65116119D01*
X42893509Y-65173945D01*
X42921454Y-65288149D01*
X42942691Y-65374944D01*
X42942695Y-65374953D01*
X42998303Y-65494205D01*
X43030144Y-65562489D01*
X43112944Y-65675413D01*
X43152508Y-65729371D01*
X43237292Y-65807061D01*
X43305068Y-65869167D01*
X43481976Y-65976518D01*
X43911350Y-66132799D01*
X44076973Y-66158290D01*
X44140237Y-66187944D01*
X44177427Y-66247093D01*
X44176734Y-66316960D01*
X44145790Y-66368528D01*
X43987895Y-66526423D01*
X43926572Y-66559908D01*
X43856880Y-66554924D01*
X43835886Y-66544751D01*
X43774893Y-66507740D01*
X43774890Y-66507738D01*
X43345515Y-66351457D01*
X43290952Y-66343059D01*
X43140992Y-66319977D01*
X42950223Y-66328307D01*
X42934260Y-66329004D01*
X42855233Y-66348341D01*
X42733260Y-66378186D01*
X42733251Y-66378190D01*
X42545719Y-66465637D01*
X42378833Y-66588003D01*
X42239038Y-66740563D01*
X42239035Y-66740566D01*
X42137315Y-66908196D01*
X42131687Y-66917471D01*
X42085766Y-67043639D01*
X42060912Y-67111923D01*
X42029432Y-67316442D01*
X42029432Y-67316445D01*
X38811932Y-67316445D01*
X38966611Y-66600270D01*
X38967530Y-66596331D01*
X38973270Y-66573415D01*
X39260739Y-65425772D01*
X39261772Y-65421915D01*
X39593141Y-64261519D01*
X39594294Y-64257717D01*
X39963456Y-63108775D01*
X39964738Y-63105003D01*
X40138997Y-62617982D01*
X43739533Y-62617982D01*
X43745884Y-62763417D01*
X43748560Y-62824714D01*
X43777565Y-62943254D01*
X43797742Y-63025713D01*
X43797746Y-63025722D01*
X43853354Y-63144974D01*
X43885195Y-63213258D01*
X44007556Y-63380136D01*
X44007559Y-63380140D01*
X44092343Y-63457830D01*
X44160119Y-63519936D01*
X44337027Y-63627287D01*
X44766401Y-63783568D01*
X44970924Y-63815047D01*
X45177657Y-63806021D01*
X45378658Y-63756838D01*
X45566201Y-63669386D01*
X45733079Y-63547025D01*
X45872879Y-63394461D01*
X45980230Y-63217554D01*
X46051004Y-63023103D01*
X46082484Y-62818581D01*
X46082192Y-62811902D01*
X46080731Y-62778439D01*
X46073458Y-62611848D01*
X46024275Y-62410847D01*
X45936823Y-62223304D01*
X45814462Y-62056426D01*
X45814460Y-62056425D01*
X45814458Y-62056421D01*
X45661903Y-61916630D01*
X45661894Y-61916623D01*
X45504741Y-61821260D01*
X45484991Y-61809275D01*
X45055616Y-61652994D01*
X45001053Y-61644596D01*
X44851093Y-61621514D01*
X44660324Y-61629844D01*
X44644361Y-61630541D01*
X44565334Y-61649878D01*
X44443361Y-61679723D01*
X44443352Y-61679727D01*
X44255820Y-61767174D01*
X44088934Y-61889540D01*
X43949139Y-62042100D01*
X43949136Y-62042103D01*
X43867300Y-62176965D01*
X43841788Y-62219008D01*
X43771667Y-62411664D01*
X43771013Y-62413460D01*
X43739533Y-62617979D01*
X43739533Y-62617982D01*
X40138997Y-62617982D01*
X40371279Y-61968796D01*
X40372670Y-61965098D01*
X40816184Y-60842761D01*
X40817716Y-60839065D01*
X40857549Y-60747181D01*
X44428257Y-60747181D01*
X44466666Y-60877441D01*
X44541759Y-60990587D01*
X44541760Y-60990588D01*
X44541763Y-60990592D01*
X44646875Y-61076581D01*
X44674496Y-61089671D01*
X46139037Y-61622721D01*
X46168611Y-61630448D01*
X46168608Y-61630448D01*
X46270455Y-61631717D01*
X46304404Y-61632141D01*
X46304404Y-61632140D01*
X46304405Y-61632141D01*
X46342813Y-61620815D01*
X46434664Y-61593733D01*
X46547816Y-61518636D01*
X46633805Y-61413524D01*
X46646896Y-61385903D01*
X46954226Y-60541518D01*
X46983063Y-60496253D01*
X48512499Y-58966819D01*
X48573822Y-58933334D01*
X48600180Y-58930500D01*
X72039292Y-58930500D01*
X72106331Y-58950185D01*
X72126973Y-58966819D01*
X72314215Y-59154061D01*
X72347700Y-59215384D01*
X72350534Y-59241742D01*
X72350534Y-65236787D01*
X72330849Y-65303826D01*
X72314215Y-65324468D01*
X67393622Y-70245060D01*
X67393617Y-70245066D01*
X67344757Y-70312317D01*
X67315893Y-70352045D01*
X67287657Y-70390908D01*
X67259421Y-70429771D01*
X67155770Y-70633196D01*
X67085215Y-70850339D01*
X67049500Y-71075837D01*
X67049500Y-78924162D01*
X67085215Y-79149660D01*
X67155770Y-79366803D01*
X67259421Y-79570228D01*
X67339497Y-79680442D01*
X67362977Y-79746248D01*
X67347152Y-79814302D01*
X67326860Y-79841009D01*
X63260899Y-83906970D01*
X63199576Y-83940455D01*
X63129884Y-83935471D01*
X63073951Y-83893599D01*
X63049815Y-83831444D01*
X63035300Y-83684066D01*
X62975232Y-83486046D01*
X62877685Y-83303550D01*
X62825702Y-83240209D01*
X62746410Y-83143589D01*
X62586452Y-83012317D01*
X62586453Y-83012317D01*
X62586450Y-83012315D01*
X62403954Y-82914768D01*
X62205934Y-82854700D01*
X62205932Y-82854699D01*
X62205934Y-82854699D01*
X62000000Y-82834417D01*
X61794067Y-82854699D01*
X61596043Y-82914769D01*
X61485898Y-82973643D01*
X61413550Y-83012315D01*
X61413548Y-83012316D01*
X61413547Y-83012317D01*
X61253589Y-83143589D01*
X61134039Y-83289264D01*
X61122315Y-83303550D01*
X61083643Y-83375898D01*
X61024769Y-83486043D01*
X61024768Y-83486045D01*
X61024768Y-83486046D01*
X61024392Y-83487286D01*
X60964699Y-83684067D01*
X60944417Y-83890000D01*
X60964699Y-84095932D01*
X60994734Y-84194944D01*
X61024768Y-84293954D01*
X61122315Y-84476450D01*
X61122317Y-84476452D01*
X61253589Y-84636410D01*
X61301092Y-84675394D01*
X61340427Y-84733140D01*
X61342298Y-84802985D01*
X61306111Y-84862753D01*
X61243355Y-84893469D01*
X61222428Y-84895248D01*
X60237572Y-84895248D01*
X60170533Y-84875563D01*
X60124778Y-84822759D01*
X60114834Y-84753601D01*
X60143859Y-84690045D01*
X60158908Y-84675394D01*
X60206410Y-84636410D01*
X60337685Y-84476450D01*
X60435232Y-84293954D01*
X60495300Y-84095934D01*
X60515583Y-83890000D01*
X60495300Y-83684066D01*
X60435232Y-83486046D01*
X60337685Y-83303550D01*
X60285702Y-83240209D01*
X60206410Y-83143589D01*
X60046452Y-83012317D01*
X60046453Y-83012317D01*
X60046450Y-83012315D01*
X59863954Y-82914768D01*
X59665934Y-82854700D01*
X59665932Y-82854699D01*
X59665934Y-82854699D01*
X59460000Y-82834417D01*
X59254067Y-82854699D01*
X59056043Y-82914769D01*
X58945898Y-82973643D01*
X58873550Y-83012315D01*
X58873548Y-83012316D01*
X58873547Y-83012317D01*
X58713589Y-83143589D01*
X58594039Y-83289264D01*
X58582315Y-83303550D01*
X58543643Y-83375898D01*
X58484769Y-83486043D01*
X58484768Y-83486045D01*
X58484768Y-83486046D01*
X58484392Y-83487286D01*
X58424699Y-83684067D01*
X58404417Y-83890000D01*
X58424699Y-84095932D01*
X58454734Y-84194944D01*
X58484768Y-84293954D01*
X58582315Y-84476450D01*
X58582317Y-84476452D01*
X58713589Y-84636410D01*
X58761092Y-84675394D01*
X58800427Y-84733140D01*
X58802298Y-84802985D01*
X58766111Y-84862753D01*
X58703355Y-84893469D01*
X58682428Y-84895248D01*
X53297870Y-84895248D01*
X53114247Y-84931773D01*
X53114239Y-84931775D01*
X53080905Y-84945583D01*
X53080904Y-84945583D01*
X52941267Y-85003421D01*
X52941254Y-85003428D01*
X52785583Y-85107445D01*
X52785579Y-85107448D01*
X52042937Y-85850090D01*
X51981614Y-85883575D01*
X51911922Y-85878591D01*
X51893256Y-85869796D01*
X50831357Y-85256709D01*
X50831352Y-85256706D01*
X50831349Y-85256705D01*
X50803566Y-85243960D01*
X50750489Y-85233917D01*
X50670128Y-85218711D01*
X50535180Y-85233916D01*
X50410708Y-85288224D01*
X50410703Y-85288227D01*
X50307769Y-85376810D01*
X50290089Y-85401727D01*
X50290084Y-85401734D01*
X50011893Y-85883575D01*
X49935817Y-86015343D01*
X49935678Y-86015647D01*
X49923071Y-86043129D01*
X49897824Y-86176562D01*
X49913029Y-86311512D01*
X49967335Y-86435982D01*
X49967335Y-86435983D01*
X49967336Y-86435984D01*
X49967337Y-86435986D01*
X50013283Y-86489376D01*
X50055920Y-86538921D01*
X50055923Y-86538924D01*
X50080840Y-86556603D01*
X50080858Y-86556615D01*
X50667013Y-86895031D01*
X51361595Y-87296048D01*
X51409810Y-87346614D01*
X51414155Y-87355981D01*
X51436123Y-87409019D01*
X51540145Y-87564699D01*
X51672536Y-87697090D01*
X51672540Y-87697093D01*
X51828211Y-87801110D01*
X51828224Y-87801117D01*
X51916668Y-87837751D01*
X52001198Y-87872764D01*
X52001200Y-87872764D01*
X52001205Y-87872766D01*
X52184826Y-87909290D01*
X52184829Y-87909291D01*
X52184831Y-87909291D01*
X52372060Y-87909291D01*
X52372065Y-87909291D01*
X52372069Y-87909290D01*
X52376577Y-87908846D01*
X52445223Y-87921863D01*
X52450720Y-87924854D01*
X53165876Y-88337750D01*
X53725340Y-88660757D01*
X53725545Y-88660875D01*
X53753328Y-88673620D01*
X53886764Y-88698868D01*
X54021714Y-88683663D01*
X54146187Y-88629355D01*
X54249122Y-88540772D01*
X54266811Y-88515843D01*
X54621077Y-87902237D01*
X54633821Y-87874454D01*
X54634141Y-87872766D01*
X54655595Y-87759376D01*
X54659069Y-87741018D01*
X54648024Y-87642993D01*
X54643864Y-87606067D01*
X54589558Y-87481597D01*
X54589558Y-87481596D01*
X54589557Y-87481595D01*
X54589557Y-87481594D01*
X54500974Y-87378659D01*
X54500973Y-87378658D01*
X54500970Y-87378655D01*
X54476053Y-87360976D01*
X54476035Y-87360964D01*
X53898691Y-87027635D01*
X53850475Y-86977068D01*
X53837252Y-86908461D01*
X53863220Y-86843596D01*
X53920135Y-86803068D01*
X53960691Y-86796248D01*
X57064417Y-86796248D01*
X57131456Y-86815933D01*
X57177211Y-86868737D01*
X57187155Y-86937895D01*
X57171804Y-86982247D01*
X56911732Y-87432706D01*
X55350870Y-90136194D01*
X55300303Y-90184410D01*
X55231696Y-90197633D01*
X55181484Y-90181581D01*
X52869709Y-88846877D01*
X51526878Y-88071593D01*
X51526872Y-88071590D01*
X51396691Y-88021618D01*
X51350462Y-88003872D01*
X51313495Y-87996014D01*
X51165632Y-87964585D01*
X51165623Y-87964584D01*
X50976930Y-87954695D01*
X50976922Y-87954695D01*
X50901889Y-87962581D01*
X50788997Y-87974448D01*
X50788994Y-87974448D01*
X50788992Y-87974449D01*
X50679185Y-88003872D01*
X50612960Y-88021617D01*
X50612956Y-88021618D01*
X50543106Y-88019955D01*
X50518862Y-88009230D01*
X49918653Y-87662699D01*
X49892972Y-87642993D01*
X49778658Y-87528679D01*
X49625919Y-87432706D01*
X49455650Y-87373126D01*
X49455645Y-87373125D01*
X49276400Y-87352930D01*
X49276392Y-87352930D01*
X49097146Y-87373125D01*
X49097141Y-87373126D01*
X48926872Y-87432706D01*
X48774133Y-87528679D01*
X48646580Y-87656232D01*
X48550607Y-87808971D01*
X48491027Y-87979240D01*
X48491026Y-87979245D01*
X48470831Y-88158491D01*
X48470831Y-88158498D01*
X48491026Y-88337744D01*
X48491027Y-88337749D01*
X48550607Y-88508018D01*
X48625485Y-88627184D01*
X48646580Y-88660757D01*
X48774134Y-88788311D01*
X48926874Y-88884284D01*
X49097141Y-88943863D01*
X49119330Y-88946363D01*
X49167446Y-88962195D01*
X49768362Y-89309134D01*
X49816577Y-89359700D01*
X49826136Y-89384426D01*
X49873306Y-89560466D01*
X49873307Y-89560469D01*
X49950164Y-89733094D01*
X49950167Y-89733100D01*
X50053078Y-89891570D01*
X50053083Y-89891575D01*
X50179521Y-90032000D01*
X50179523Y-90032001D01*
X50326374Y-90150918D01*
X53876387Y-92200519D01*
X53980984Y-92260908D01*
X54029200Y-92311475D01*
X54042423Y-92380082D01*
X54026371Y-92430295D01*
X52086493Y-95790262D01*
X52086484Y-95790281D01*
X52079590Y-95805309D01*
X52073744Y-95818050D01*
X52073744Y-95818051D01*
X52048495Y-95951490D01*
X52053719Y-95997842D01*
X52053719Y-95997845D01*
X52063699Y-96086432D01*
X52063701Y-96086440D01*
X52074244Y-96110604D01*
X52118008Y-96210912D01*
X52118010Y-96210915D01*
X52206590Y-96313849D01*
X52215847Y-96320416D01*
X52231522Y-96331538D01*
X52231524Y-96331539D01*
X52231526Y-96331541D01*
X60033114Y-100835790D01*
X60033123Y-100835794D01*
X60033136Y-100835802D01*
X60060920Y-100848548D01*
X60171302Y-100869433D01*
X60185228Y-100872068D01*
X60203131Y-100876865D01*
X60203279Y-100876916D01*
X60212644Y-100877267D01*
X60230051Y-100869777D01*
X60231012Y-100869664D01*
X60308099Y-100860979D01*
X60329300Y-100858591D01*
X60329301Y-100858590D01*
X60329308Y-100858590D01*
X60391544Y-100831436D01*
X60453781Y-100804283D01*
X60501391Y-100763310D01*
X60556716Y-100715700D01*
X60574404Y-100690771D01*
X60625750Y-100601835D01*
X60676313Y-100553623D01*
X60744920Y-100540399D01*
X60809785Y-100566366D01*
X60820816Y-100576157D01*
X60943181Y-100698522D01*
X60976666Y-100759845D01*
X60979500Y-100786203D01*
X60979500Y-104594161D01*
X61015215Y-104819659D01*
X61085770Y-105036802D01*
X61189423Y-105240230D01*
X61221268Y-105284062D01*
X61221272Y-105284066D01*
X61323617Y-105424932D01*
X61323622Y-105424938D01*
X62495066Y-106596382D01*
X62542631Y-106630939D01*
X62583317Y-106660499D01*
X62679772Y-106730578D01*
X62775884Y-106779549D01*
X62883196Y-106834228D01*
X62883198Y-106834228D01*
X62883201Y-106834230D01*
X62999592Y-106872048D01*
X63100339Y-106904783D01*
X63325838Y-106940499D01*
X63325843Y-106940499D01*
X63554157Y-106940499D01*
X65385843Y-106940499D01*
X68614159Y-106940500D01*
X68839662Y-106904784D01*
X69056801Y-106834231D01*
X69260230Y-106730579D01*
X69444939Y-106596379D01*
X69606381Y-106434937D01*
X69740581Y-106250228D01*
X69844233Y-106046799D01*
X69914786Y-105829660D01*
X69914786Y-105829659D01*
X69950502Y-105604162D01*
X69950502Y-105554485D01*
X72299501Y-105554485D01*
X72329060Y-105741117D01*
X72387455Y-105920835D01*
X72473241Y-106089198D01*
X72584311Y-106242072D01*
X72717928Y-106375689D01*
X72870802Y-106486759D01*
X72950348Y-106527289D01*
X73039164Y-106572544D01*
X73039166Y-106572544D01*
X73039169Y-106572546D01*
X73112510Y-106596376D01*
X73218882Y-106630939D01*
X73405515Y-106660499D01*
X73405520Y-106660499D01*
X76594486Y-106660499D01*
X76781118Y-106630939D01*
X76960832Y-106572546D01*
X77129199Y-106486759D01*
X77282073Y-106375689D01*
X77415690Y-106242072D01*
X77526760Y-106089198D01*
X77612547Y-105920831D01*
X77670940Y-105741117D01*
X77681480Y-105674570D01*
X77700500Y-105554485D01*
X77700500Y-105365512D01*
X77670940Y-105178880D01*
X77612545Y-104999162D01*
X77526759Y-104830799D01*
X77415690Y-104677926D01*
X77282073Y-104544309D01*
X77129199Y-104433239D01*
X76960836Y-104347453D01*
X76781118Y-104289058D01*
X76594486Y-104259499D01*
X76594481Y-104259499D01*
X73405520Y-104259499D01*
X73405515Y-104259499D01*
X73218882Y-104289058D01*
X73039164Y-104347453D01*
X72870801Y-104433239D01*
X72783580Y-104496609D01*
X72717928Y-104544309D01*
X72717926Y-104544311D01*
X72717925Y-104544311D01*
X72584313Y-104677923D01*
X72584313Y-104677924D01*
X72584311Y-104677926D01*
X72536611Y-104743578D01*
X72473241Y-104830799D01*
X72387455Y-104999162D01*
X72329060Y-105178880D01*
X72299501Y-105365512D01*
X72299501Y-105554485D01*
X69950502Y-105554485D01*
X69950502Y-105375837D01*
X69914786Y-105150339D01*
X69844231Y-104933196D01*
X69740580Y-104729771D01*
X69606381Y-104545063D01*
X69444939Y-104383621D01*
X69314787Y-104289059D01*
X69260228Y-104249419D01*
X69231898Y-104234985D01*
X69181102Y-104187011D01*
X69164306Y-104119190D01*
X69186843Y-104053055D01*
X69241558Y-104009603D01*
X69288192Y-104000500D01*
X69369752Y-104000500D01*
X69369753Y-104000499D01*
X69384570Y-103997552D01*
X69428231Y-103988868D01*
X69428231Y-103988867D01*
X69428233Y-103988867D01*
X69494554Y-103944552D01*
X69538869Y-103878231D01*
X69538869Y-103878229D01*
X69538870Y-103878229D01*
X69550501Y-103819752D01*
X69550502Y-103819750D01*
X69550502Y-102080249D01*
X69550501Y-102080247D01*
X69538870Y-102021770D01*
X69538869Y-102021769D01*
X69494554Y-101955447D01*
X69428232Y-101911132D01*
X69428231Y-101911131D01*
X69369754Y-101899500D01*
X69369750Y-101899500D01*
X68949502Y-101899500D01*
X68882463Y-101879815D01*
X68836708Y-101827011D01*
X68825502Y-101775500D01*
X68825502Y-94258686D01*
X68845187Y-94191647D01*
X68861821Y-94171005D01*
X70129791Y-92903035D01*
X74015451Y-92903035D01*
X74035733Y-93108967D01*
X74035734Y-93108969D01*
X74095802Y-93306989D01*
X74193349Y-93489485D01*
X74228003Y-93531712D01*
X74324623Y-93649445D01*
X74421243Y-93728737D01*
X74484584Y-93780720D01*
X74667080Y-93878267D01*
X74865100Y-93938335D01*
X74865099Y-93938335D01*
X74883563Y-93940153D01*
X75071034Y-93958618D01*
X75276968Y-93938335D01*
X75474988Y-93878267D01*
X75657484Y-93780720D01*
X75817444Y-93649445D01*
X75948719Y-93489485D01*
X76046266Y-93306989D01*
X76106334Y-93108969D01*
X76126617Y-92903035D01*
X76106334Y-92697101D01*
X76046266Y-92499081D01*
X75948719Y-92316585D01*
X75869032Y-92219485D01*
X75817444Y-92156624D01*
X75699711Y-92060004D01*
X75657484Y-92025350D01*
X75474988Y-91927803D01*
X75276968Y-91867735D01*
X75276966Y-91867734D01*
X75276968Y-91867734D01*
X75071034Y-91847452D01*
X74865101Y-91867734D01*
X74667077Y-91927804D01*
X74570407Y-91979476D01*
X74484584Y-92025350D01*
X74484582Y-92025351D01*
X74484581Y-92025352D01*
X74324623Y-92156624D01*
X74193351Y-92316582D01*
X74193349Y-92316585D01*
X74189241Y-92324271D01*
X74095803Y-92499078D01*
X74035733Y-92697102D01*
X74015451Y-92903035D01*
X70129791Y-92903035D01*
X70602531Y-92430295D01*
X72379127Y-90653698D01*
X72440448Y-90620215D01*
X72510140Y-90625199D01*
X72566073Y-90667071D01*
X72574193Y-90679381D01*
X73294971Y-91927804D01*
X73326148Y-91981804D01*
X73365464Y-92026635D01*
X73437003Y-92061913D01*
X73516596Y-92067131D01*
X73573060Y-92047964D01*
X75079508Y-91178216D01*
X75124339Y-91138900D01*
X75159617Y-91067361D01*
X75164835Y-90987768D01*
X75145668Y-90931304D01*
X75042315Y-90752292D01*
X74580298Y-89952055D01*
X74275920Y-89424856D01*
X74275918Y-89424854D01*
X74275917Y-89424852D01*
X74236605Y-89380026D01*
X74236604Y-89380025D01*
X74165065Y-89344747D01*
X74159846Y-89344404D01*
X74085471Y-89339528D01*
X74029012Y-89358694D01*
X74029009Y-89358695D01*
X74005040Y-89372534D01*
X73937139Y-89389005D01*
X73871113Y-89366153D01*
X73827923Y-89311231D01*
X73821282Y-89241677D01*
X73853299Y-89179575D01*
X73855360Y-89177465D01*
X73871866Y-89160960D01*
X74507677Y-88525149D01*
X74569000Y-88491664D01*
X74595358Y-88488830D01*
X75154721Y-88488830D01*
X75221760Y-88508515D01*
X75267515Y-88561319D01*
X75277459Y-88630477D01*
X75250575Y-88691494D01*
X75171121Y-88788310D01*
X75123054Y-88846880D01*
X75098680Y-88892481D01*
X75025508Y-89029373D01*
X74965438Y-89227397D01*
X74945156Y-89433330D01*
X74965438Y-89639262D01*
X74995473Y-89738274D01*
X75025507Y-89837284D01*
X75123054Y-90019780D01*
X75145321Y-90046912D01*
X75254328Y-90179740D01*
X75321470Y-90234841D01*
X75414289Y-90311015D01*
X75596785Y-90408562D01*
X75794805Y-90468630D01*
X75794804Y-90468630D01*
X75813268Y-90470448D01*
X76000739Y-90488913D01*
X76206673Y-90468630D01*
X76404693Y-90408562D01*
X76587189Y-90311015D01*
X76747149Y-90179740D01*
X76848758Y-90055928D01*
X76906503Y-90016594D01*
X76976347Y-90014723D01*
X77032292Y-90046912D01*
X77351256Y-90365876D01*
X77384741Y-90427199D01*
X77379757Y-90496891D01*
X77337885Y-90552824D01*
X77275729Y-90576960D01*
X77064806Y-90597734D01*
X76866782Y-90657804D01*
X76767407Y-90710922D01*
X76684289Y-90755350D01*
X76684287Y-90755351D01*
X76684286Y-90755352D01*
X76524328Y-90886624D01*
X76393056Y-91046582D01*
X76393054Y-91046585D01*
X76381949Y-91067361D01*
X76295508Y-91229078D01*
X76235438Y-91427102D01*
X76215156Y-91633035D01*
X76235438Y-91838967D01*
X76248191Y-91881007D01*
X76295507Y-92036989D01*
X76393054Y-92219485D01*
X76393056Y-92219487D01*
X76524328Y-92379445D01*
X76586290Y-92430295D01*
X76684289Y-92510720D01*
X76866785Y-92608267D01*
X77064805Y-92668335D01*
X77064804Y-92668335D01*
X77083268Y-92670153D01*
X77270739Y-92688618D01*
X77476673Y-92668335D01*
X77497411Y-92662044D01*
X77510243Y-92658152D01*
X77580110Y-92657528D01*
X77639223Y-92694776D01*
X77668814Y-92758070D01*
X77670239Y-92776812D01*
X77670239Y-98268072D01*
X77650554Y-98335111D01*
X77633920Y-98355753D01*
X74126493Y-101863180D01*
X74065170Y-101896665D01*
X74038812Y-101899499D01*
X72630248Y-101899499D01*
X72571771Y-101911130D01*
X72571770Y-101911131D01*
X72505448Y-101955446D01*
X72461133Y-102021768D01*
X72461132Y-102021769D01*
X72449501Y-102080246D01*
X72449501Y-103819751D01*
X72461132Y-103878228D01*
X72461133Y-103878229D01*
X72505448Y-103944551D01*
X72571770Y-103988866D01*
X72571771Y-103988867D01*
X72630248Y-104000498D01*
X72630251Y-104000499D01*
X72630253Y-104000499D01*
X74369751Y-104000499D01*
X74369752Y-104000498D01*
X74384569Y-103997551D01*
X74428230Y-103988867D01*
X74428230Y-103988866D01*
X74428232Y-103988866D01*
X74494553Y-103944551D01*
X74538868Y-103878230D01*
X74538868Y-103878228D01*
X74538869Y-103878228D01*
X74550500Y-103819751D01*
X74550501Y-103819749D01*
X74550501Y-102411187D01*
X74570186Y-102344148D01*
X74586820Y-102323506D01*
X77908558Y-99001768D01*
X77969881Y-98968283D01*
X78039573Y-98973267D01*
X78095506Y-99015139D01*
X78119923Y-99080603D01*
X78120239Y-99089449D01*
X78120239Y-100818071D01*
X78100554Y-100885110D01*
X78083920Y-100905752D01*
X77126492Y-101863180D01*
X77065169Y-101896665D01*
X77038811Y-101899499D01*
X75630247Y-101899499D01*
X75571770Y-101911130D01*
X75571769Y-101911131D01*
X75505447Y-101955446D01*
X75461132Y-102021768D01*
X75461131Y-102021769D01*
X75449500Y-102080246D01*
X75449500Y-103819751D01*
X75461131Y-103878228D01*
X75461132Y-103878229D01*
X75505447Y-103944551D01*
X75571769Y-103988866D01*
X75571770Y-103988867D01*
X75630247Y-104000498D01*
X75630250Y-104000499D01*
X75630252Y-104000499D01*
X77369750Y-104000499D01*
X77369751Y-104000498D01*
X77384568Y-103997551D01*
X77428229Y-103988867D01*
X77428229Y-103988866D01*
X77428231Y-103988866D01*
X77494552Y-103944551D01*
X77538867Y-103878230D01*
X77538867Y-103878228D01*
X77538868Y-103878228D01*
X77550499Y-103819751D01*
X77550500Y-103819749D01*
X77550500Y-102411188D01*
X77570185Y-102344149D01*
X77586819Y-102323507D01*
X78134827Y-101775499D01*
X78706204Y-101204122D01*
X78749056Y-101129899D01*
X78749057Y-101129898D01*
X78771239Y-101047113D01*
X78771239Y-91387333D01*
X78790924Y-91320294D01*
X78843728Y-91274539D01*
X78912886Y-91264595D01*
X78953689Y-91277973D01*
X79066489Y-91338267D01*
X79264509Y-91398335D01*
X79264508Y-91398335D01*
X79282972Y-91400153D01*
X79470443Y-91418618D01*
X79676377Y-91398335D01*
X79874397Y-91338267D01*
X80056893Y-91240720D01*
X80216853Y-91109445D01*
X80348128Y-90949485D01*
X80445675Y-90766989D01*
X80505743Y-90568969D01*
X80526026Y-90363035D01*
X80505743Y-90157101D01*
X80445675Y-89959081D01*
X80348128Y-89776585D01*
X80249265Y-89656119D01*
X80216853Y-89616624D01*
X80056895Y-89485352D01*
X80056896Y-89485352D01*
X80056893Y-89485350D01*
X79874397Y-89387803D01*
X79872492Y-89387014D01*
X79871646Y-89386333D01*
X79869024Y-89384931D01*
X79869289Y-89384433D01*
X79818088Y-89343173D01*
X79796022Y-89276879D01*
X79795943Y-89272452D01*
X79795943Y-87968407D01*
X79815628Y-87901368D01*
X79868432Y-87855613D01*
X79937590Y-87845669D01*
X79978398Y-87859050D01*
X79996189Y-87868560D01*
X79996191Y-87868560D01*
X79996194Y-87868562D01*
X80194214Y-87928630D01*
X80194213Y-87928630D01*
X80212677Y-87930448D01*
X80400148Y-87948913D01*
X80606082Y-87928630D01*
X80804102Y-87868562D01*
X80986598Y-87771015D01*
X81146558Y-87639740D01*
X81277833Y-87479780D01*
X81375380Y-87297284D01*
X81435448Y-87099264D01*
X81455731Y-86893330D01*
X81435448Y-86687396D01*
X81375380Y-86489376D01*
X81277833Y-86306880D01*
X81198146Y-86209780D01*
X81146558Y-86146919D01*
X81026376Y-86048290D01*
X80986598Y-86015645D01*
X80804102Y-85918098D01*
X80606082Y-85858030D01*
X80606080Y-85858029D01*
X80606082Y-85858029D01*
X80400148Y-85837747D01*
X80194215Y-85858029D01*
X79996191Y-85918099D01*
X79886046Y-85976973D01*
X79813698Y-86015645D01*
X79813696Y-86015646D01*
X79813695Y-86015647D01*
X79653737Y-86146919D01*
X79522465Y-86306877D01*
X79424917Y-86489373D01*
X79364847Y-86687397D01*
X79344073Y-86898321D01*
X79317912Y-86963109D01*
X79260877Y-87003467D01*
X79191077Y-87006584D01*
X79132989Y-86973848D01*
X78887008Y-86727867D01*
X78887006Y-86727865D01*
X78849894Y-86706438D01*
X78812784Y-86685012D01*
X78771390Y-86673921D01*
X78729997Y-86662830D01*
X74990627Y-86662830D01*
X74904921Y-86662830D01*
X74822133Y-86685012D01*
X74747912Y-86727865D01*
X74747909Y-86727867D01*
X65239537Y-96236239D01*
X65239533Y-96236245D01*
X65196682Y-96310464D01*
X65192664Y-96325462D01*
X65192663Y-96325465D01*
X65174500Y-96393251D01*
X65174500Y-101775499D01*
X65154815Y-101842538D01*
X65102011Y-101888293D01*
X65050500Y-101899499D01*
X64630247Y-101899499D01*
X64571770Y-101911130D01*
X64571769Y-101911131D01*
X64505447Y-101955446D01*
X64461132Y-102021768D01*
X64461131Y-102021769D01*
X64449500Y-102080246D01*
X64449500Y-103819751D01*
X64463515Y-103890209D01*
X64459386Y-103891030D01*
X64464379Y-103937537D01*
X64433093Y-104000010D01*
X64372998Y-104035652D01*
X64342353Y-104039499D01*
X64092179Y-104039499D01*
X64025140Y-104019814D01*
X64004498Y-104003180D01*
X63916819Y-103915501D01*
X63883334Y-103854178D01*
X63880500Y-103827820D01*
X63880500Y-100019861D01*
X63844784Y-99794363D01*
X63774229Y-99577220D01*
X63713088Y-99457225D01*
X63670579Y-99373796D01*
X63583394Y-99253797D01*
X63583394Y-99253796D01*
X63536383Y-99189090D01*
X62275496Y-97928203D01*
X62242011Y-97866880D01*
X62246995Y-97797188D01*
X62255790Y-97778522D01*
X62638424Y-97115783D01*
X63003670Y-96483159D01*
X63003670Y-96483158D01*
X63007470Y-96476577D01*
X63007479Y-96476557D01*
X63347269Y-95888025D01*
X63347284Y-95888002D01*
X63349401Y-95884333D01*
X63349404Y-95884331D01*
X65778670Y-91676719D01*
X65791415Y-91648936D01*
X65816662Y-91515500D01*
X65801458Y-91380550D01*
X65801457Y-91380548D01*
X65801457Y-91380546D01*
X65747150Y-91256078D01*
X65747150Y-91256077D01*
X65694000Y-91194315D01*
X65658569Y-91153143D01*
X65658563Y-91153137D01*
X65633646Y-91135458D01*
X65633628Y-91135446D01*
X62213716Y-89160960D01*
X62033976Y-89057187D01*
X62033958Y-89057176D01*
X61413349Y-88698868D01*
X58518689Y-87027635D01*
X58470473Y-86977068D01*
X58457250Y-86908461D01*
X58483218Y-86843596D01*
X58540133Y-86803068D01*
X58580689Y-86796248D01*
X62759952Y-86796248D01*
X62860637Y-86776220D01*
X62888162Y-86770745D01*
X62943584Y-86759721D01*
X63020491Y-86727865D01*
X63116563Y-86688071D01*
X63116563Y-86688070D01*
X63116565Y-86688070D01*
X63116569Y-86688067D01*
X63130270Y-86678912D01*
X63272241Y-86584050D01*
X64232961Y-85623330D01*
X81544269Y-85623330D01*
X81564551Y-85829262D01*
X81573278Y-85858030D01*
X81624620Y-86027284D01*
X81722167Y-86209780D01*
X81734010Y-86224211D01*
X81853441Y-86369740D01*
X81934160Y-86435983D01*
X82013402Y-86501015D01*
X82195898Y-86598562D01*
X82393918Y-86658630D01*
X82393917Y-86658630D01*
X82412381Y-86660448D01*
X82599852Y-86678913D01*
X82805786Y-86658630D01*
X83003806Y-86598562D01*
X83186302Y-86501015D01*
X83346262Y-86369740D01*
X83477537Y-86209780D01*
X83575084Y-86027284D01*
X83635152Y-85829264D01*
X83655435Y-85623330D01*
X83635152Y-85417396D01*
X83575084Y-85219376D01*
X83477537Y-85036880D01*
X83391280Y-84931775D01*
X83346262Y-84876919D01*
X83203117Y-84759445D01*
X83186302Y-84745645D01*
X83003806Y-84648098D01*
X82805786Y-84588030D01*
X82805784Y-84588029D01*
X82805786Y-84588029D01*
X82599852Y-84567747D01*
X82393919Y-84588029D01*
X82195895Y-84648099D01*
X82144831Y-84675394D01*
X82013402Y-84745645D01*
X82013400Y-84745646D01*
X82013399Y-84745647D01*
X81853441Y-84876919D01*
X81722169Y-85036877D01*
X81624621Y-85219373D01*
X81564551Y-85417397D01*
X81544269Y-85623330D01*
X64232961Y-85623330D01*
X65502961Y-84353330D01*
X83743974Y-84353330D01*
X83764256Y-84559262D01*
X83772983Y-84588030D01*
X83824325Y-84757284D01*
X83921872Y-84939780D01*
X83956526Y-84982007D01*
X84053146Y-85099740D01*
X84127415Y-85160690D01*
X84213107Y-85231015D01*
X84395603Y-85328562D01*
X84593623Y-85388630D01*
X84593622Y-85388630D01*
X84612086Y-85390448D01*
X84799557Y-85408913D01*
X85005491Y-85388630D01*
X85203511Y-85328562D01*
X85386007Y-85231015D01*
X85545967Y-85099740D01*
X85677242Y-84939780D01*
X85774789Y-84757284D01*
X85834857Y-84559264D01*
X85855140Y-84353330D01*
X85834857Y-84147396D01*
X85774789Y-83949376D01*
X85677242Y-83766880D01*
X85597555Y-83669780D01*
X85545967Y-83606919D01*
X85428234Y-83510299D01*
X85386007Y-83475645D01*
X85203511Y-83378098D01*
X85005491Y-83318030D01*
X85005489Y-83318029D01*
X85005491Y-83318029D01*
X84799557Y-83297747D01*
X84593624Y-83318029D01*
X84395600Y-83378099D01*
X84304891Y-83426585D01*
X84213107Y-83475645D01*
X84213105Y-83475646D01*
X84213104Y-83475647D01*
X84053146Y-83606919D01*
X83921874Y-83766877D01*
X83824326Y-83949373D01*
X83764256Y-84147397D01*
X83743974Y-84353330D01*
X65502961Y-84353330D01*
X66772961Y-83083330D01*
X85943678Y-83083330D01*
X85963960Y-83289262D01*
X85972687Y-83318030D01*
X86024029Y-83487284D01*
X86121576Y-83669780D01*
X86156230Y-83712007D01*
X86252850Y-83829740D01*
X86326278Y-83890000D01*
X86412811Y-83961015D01*
X86595307Y-84058562D01*
X86793327Y-84118630D01*
X86793326Y-84118630D01*
X86811790Y-84120448D01*
X86999261Y-84138913D01*
X87205195Y-84118630D01*
X87403215Y-84058562D01*
X87488389Y-84013035D01*
X89413383Y-84013035D01*
X89433665Y-84218967D01*
X89433666Y-84218969D01*
X89493734Y-84416989D01*
X89591281Y-84599485D01*
X89591283Y-84599487D01*
X89722555Y-84759445D01*
X89775610Y-84802985D01*
X89882516Y-84890720D01*
X90065012Y-84988267D01*
X90263032Y-85048335D01*
X90263031Y-85048335D01*
X90281495Y-85050153D01*
X90468966Y-85068618D01*
X90674900Y-85048335D01*
X90872920Y-84988267D01*
X91055416Y-84890720D01*
X91215376Y-84759445D01*
X91346651Y-84599485D01*
X91444198Y-84416989D01*
X91504266Y-84218969D01*
X91524549Y-84013035D01*
X91504266Y-83807101D01*
X91444198Y-83609081D01*
X91346651Y-83426585D01*
X91257562Y-83318029D01*
X91215376Y-83266624D01*
X91097643Y-83170004D01*
X91055416Y-83135350D01*
X90872920Y-83037803D01*
X90674900Y-82977735D01*
X90674898Y-82977734D01*
X90674900Y-82977734D01*
X90468966Y-82957452D01*
X90263033Y-82977734D01*
X90065009Y-83037804D01*
X89954864Y-83096678D01*
X89882516Y-83135350D01*
X89882514Y-83135351D01*
X89882513Y-83135352D01*
X89722555Y-83266624D01*
X89591283Y-83426582D01*
X89493735Y-83609078D01*
X89433665Y-83807102D01*
X89413383Y-84013035D01*
X87488389Y-84013035D01*
X87585711Y-83961015D01*
X87745671Y-83829740D01*
X87876946Y-83669780D01*
X87974493Y-83487284D01*
X88034561Y-83289264D01*
X88054844Y-83083330D01*
X88034561Y-82877396D01*
X87974493Y-82679376D01*
X87876946Y-82496880D01*
X87797259Y-82399780D01*
X87745671Y-82336919D01*
X87612563Y-82227682D01*
X87585711Y-82205645D01*
X87403215Y-82108098D01*
X87205195Y-82048030D01*
X87205193Y-82048029D01*
X87205195Y-82048029D01*
X86999261Y-82027747D01*
X86793328Y-82048029D01*
X86595304Y-82108099D01*
X86485159Y-82166973D01*
X86412811Y-82205645D01*
X86412809Y-82205646D01*
X86412808Y-82205647D01*
X86252850Y-82336919D01*
X86121578Y-82496877D01*
X86121576Y-82496880D01*
X86087976Y-82559740D01*
X86024030Y-82679373D01*
X85963960Y-82877397D01*
X85943678Y-83083330D01*
X66772961Y-83083330D01*
X68042961Y-81813330D01*
X88143383Y-81813330D01*
X88163665Y-82019262D01*
X88172392Y-82048030D01*
X88223734Y-82217284D01*
X88321281Y-82399780D01*
X88355935Y-82442007D01*
X88452555Y-82559740D01*
X88549175Y-82639032D01*
X88612516Y-82691015D01*
X88795012Y-82788562D01*
X88993032Y-82848630D01*
X88993031Y-82848630D01*
X89011495Y-82850448D01*
X89198966Y-82868913D01*
X89404900Y-82848630D01*
X89602920Y-82788562D01*
X89785416Y-82691015D01*
X89945376Y-82559740D01*
X90076651Y-82399780D01*
X90174198Y-82217284D01*
X90234266Y-82019264D01*
X90254549Y-81813330D01*
X90234266Y-81607396D01*
X90174198Y-81409376D01*
X90076651Y-81226880D01*
X89995223Y-81127659D01*
X89945376Y-81066919D01*
X89827643Y-80970299D01*
X89785416Y-80935645D01*
X89602920Y-80838098D01*
X89404900Y-80778030D01*
X89404898Y-80778029D01*
X89404900Y-80778029D01*
X89198966Y-80757747D01*
X88993033Y-80778029D01*
X88795009Y-80838099D01*
X88684864Y-80896973D01*
X88612516Y-80935645D01*
X88612514Y-80935646D01*
X88612513Y-80935647D01*
X88452555Y-81066919D01*
X88321283Y-81226877D01*
X88223735Y-81409373D01*
X88163665Y-81607397D01*
X88143383Y-81813330D01*
X68042961Y-81813330D01*
X69238302Y-80617989D01*
X69342323Y-80462311D01*
X69403465Y-80314700D01*
X69413973Y-80289332D01*
X69450500Y-80105697D01*
X69450500Y-79962178D01*
X69470185Y-79895139D01*
X69486819Y-79874497D01*
X69564497Y-79796819D01*
X69625820Y-79763334D01*
X69652178Y-79760500D01*
X93738751Y-79760500D01*
X93805790Y-79780185D01*
X93826432Y-79796819D01*
X96481967Y-82452354D01*
X99128981Y-85099367D01*
X99162466Y-85160690D01*
X99157482Y-85230382D01*
X99115610Y-85286315D01*
X99103300Y-85294435D01*
X97651295Y-86132749D01*
X97603179Y-86148582D01*
X97460750Y-86164630D01*
X97290478Y-86224210D01*
X97137737Y-86320184D01*
X97010182Y-86447739D01*
X97010181Y-86447741D01*
X96972154Y-86508260D01*
X96929161Y-86549674D01*
X95523965Y-87360964D01*
X95523946Y-87360976D01*
X95499029Y-87378655D01*
X95499026Y-87378658D01*
X95410441Y-87481596D01*
X95410441Y-87481597D01*
X95356135Y-87606067D01*
X95340930Y-87741017D01*
X95366177Y-87874450D01*
X95366179Y-87874454D01*
X95378923Y-87902237D01*
X95526874Y-88158495D01*
X95733190Y-88515845D01*
X95733195Y-88515852D01*
X95750875Y-88540769D01*
X95750877Y-88540770D01*
X95750878Y-88540772D01*
X95800906Y-88583825D01*
X95853809Y-88629352D01*
X95853810Y-88629353D01*
X95853813Y-88629355D01*
X95978286Y-88683663D01*
X95978285Y-88683663D01*
X95995420Y-88685593D01*
X96113236Y-88698868D01*
X96246672Y-88673620D01*
X96274455Y-88660875D01*
X97956994Y-87689460D01*
X97978035Y-87679808D01*
X97989522Y-87675789D01*
X98087785Y-87614044D01*
X98091680Y-87611698D01*
X99581953Y-86751290D01*
X99919141Y-86556615D01*
X99919143Y-86556613D01*
X99919151Y-86556609D01*
X99944080Y-86538921D01*
X100032663Y-86435986D01*
X100086970Y-86311513D01*
X100086970Y-86311512D01*
X100090686Y-86302996D01*
X100093743Y-86304329D01*
X100121455Y-86258863D01*
X100184301Y-86228332D01*
X100253677Y-86236625D01*
X100292548Y-86262934D01*
X101286785Y-87257171D01*
X101320270Y-87318494D01*
X101323104Y-87344852D01*
X101323104Y-87365416D01*
X101303419Y-87432455D01*
X101250615Y-87478210D01*
X101181457Y-87488154D01*
X101133132Y-87470410D01*
X101073127Y-87432706D01*
X100902858Y-87373126D01*
X100902853Y-87373125D01*
X100723608Y-87352930D01*
X100723600Y-87352930D01*
X100544354Y-87373125D01*
X100544349Y-87373126D01*
X100374080Y-87432706D01*
X100221341Y-87528679D01*
X100107023Y-87642996D01*
X100081342Y-87662701D01*
X99481138Y-88009229D01*
X99413238Y-88025702D01*
X99387045Y-88021617D01*
X99211010Y-87974449D01*
X99211004Y-87974448D01*
X99211003Y-87974448D01*
X99023076Y-87954695D01*
X99023073Y-87954695D01*
X98834376Y-87964584D01*
X98834367Y-87964585D01*
X98649539Y-88003872D01*
X98473126Y-88071590D01*
X98473121Y-88071593D01*
X94818515Y-90181581D01*
X94750615Y-90198054D01*
X94684588Y-90175201D01*
X94649128Y-90136194D01*
X94542816Y-89952057D01*
X94350019Y-89618122D01*
X92709252Y-86776229D01*
X92709240Y-86776211D01*
X92691561Y-86751295D01*
X92691560Y-86751294D01*
X92691558Y-86751291D01*
X92644626Y-86710902D01*
X92588624Y-86662707D01*
X92464148Y-86608399D01*
X92329198Y-86593194D01*
X92329197Y-86593194D01*
X92195764Y-86618440D01*
X92167986Y-86631183D01*
X92167970Y-86631191D01*
X88586651Y-88698868D01*
X87960720Y-89060248D01*
X87960713Y-89060252D01*
X84366372Y-91135446D01*
X84366353Y-91135458D01*
X84341436Y-91153137D01*
X84341430Y-91153143D01*
X84252852Y-91256074D01*
X84252849Y-91256078D01*
X84198542Y-91380546D01*
X84198541Y-91380552D01*
X84183337Y-91515498D01*
X84183337Y-91515500D01*
X84208583Y-91648933D01*
X84221326Y-91676711D01*
X84221334Y-91676727D01*
X86651580Y-95886036D01*
X86651608Y-95886083D01*
X86994479Y-96479952D01*
X86994489Y-96479971D01*
X87744208Y-97778522D01*
X87760681Y-97846422D01*
X87737828Y-97912449D01*
X87724502Y-97928203D01*
X86583622Y-99069084D01*
X86583617Y-99069090D01*
X86505893Y-99176069D01*
X86496435Y-99189087D01*
X86449421Y-99253795D01*
X86345770Y-99457220D01*
X86275215Y-99674363D01*
X86239500Y-99899861D01*
X86239500Y-102947821D01*
X86219815Y-103014860D01*
X86203181Y-103035502D01*
X85762181Y-103476502D01*
X85700858Y-103509987D01*
X85631166Y-103505003D01*
X85575233Y-103463131D01*
X85550816Y-103397667D01*
X85550500Y-103388821D01*
X85550500Y-102080248D01*
X85550499Y-102080246D01*
X85538868Y-102021769D01*
X85538867Y-102021768D01*
X85494552Y-101955446D01*
X85428230Y-101911131D01*
X85428229Y-101911130D01*
X85369752Y-101899499D01*
X85369748Y-101899499D01*
X83630252Y-101899499D01*
X83630247Y-101899499D01*
X83571770Y-101911130D01*
X83571769Y-101911131D01*
X83505447Y-101955446D01*
X83461132Y-102021768D01*
X83461131Y-102021769D01*
X83449500Y-102080246D01*
X83449500Y-103819751D01*
X83463515Y-103890209D01*
X83459386Y-103891030D01*
X83464379Y-103937537D01*
X83433093Y-104000010D01*
X83372998Y-104035652D01*
X83342353Y-104039499D01*
X82657647Y-104039499D01*
X82590608Y-104019814D01*
X82544853Y-103967010D01*
X82534909Y-103897852D01*
X82536978Y-103890307D01*
X82536485Y-103890209D01*
X82550499Y-103819751D01*
X82550500Y-103819749D01*
X82550500Y-102080248D01*
X82550499Y-102080246D01*
X82538868Y-102021769D01*
X82538867Y-102021768D01*
X82494552Y-101955446D01*
X82428230Y-101911131D01*
X82428229Y-101911130D01*
X82369752Y-101899499D01*
X82369748Y-101899499D01*
X80630252Y-101899499D01*
X80630247Y-101899499D01*
X80571770Y-101911130D01*
X80571769Y-101911131D01*
X80505447Y-101955446D01*
X80461132Y-102021768D01*
X80461131Y-102021769D01*
X80449500Y-102080246D01*
X80449500Y-103819751D01*
X80461131Y-103878228D01*
X80461132Y-103878229D01*
X80505447Y-103944551D01*
X80571769Y-103988866D01*
X80571770Y-103988867D01*
X80630247Y-104000498D01*
X80630250Y-104000499D01*
X80711810Y-104000499D01*
X80778849Y-104020184D01*
X80824604Y-104072988D01*
X80834548Y-104142146D01*
X80805523Y-104205702D01*
X80768104Y-104234984D01*
X80739773Y-104249418D01*
X80555061Y-104383621D01*
X80393622Y-104545060D01*
X80259421Y-104729770D01*
X80155770Y-104933195D01*
X80085215Y-105150338D01*
X80049500Y-105375836D01*
X80049500Y-105604161D01*
X80085215Y-105829659D01*
X80155770Y-106046802D01*
X80255266Y-106242072D01*
X80259421Y-106250227D01*
X80393621Y-106434936D01*
X80555063Y-106596378D01*
X80739772Y-106730578D01*
X80835884Y-106779549D01*
X80943196Y-106834228D01*
X80943198Y-106834228D01*
X80943201Y-106834230D01*
X81059592Y-106872048D01*
X81160339Y-106904783D01*
X81385838Y-106940499D01*
X81385843Y-106940499D01*
X85914163Y-106940499D01*
X86139661Y-106904783D01*
X86356800Y-106834230D01*
X86560229Y-106730578D01*
X86656684Y-106660499D01*
X86744938Y-106596379D01*
X88796379Y-104544937D01*
X88930579Y-104360228D01*
X89034231Y-104156799D01*
X89104784Y-103939660D01*
X89109648Y-103908945D01*
X89114513Y-103878232D01*
X89114513Y-103878231D01*
X89140500Y-103714156D01*
X89140500Y-100666203D01*
X89160185Y-100599164D01*
X89176819Y-100578522D01*
X89179183Y-100576158D01*
X89240506Y-100542673D01*
X89310198Y-100547657D01*
X89366131Y-100589529D01*
X89374251Y-100601840D01*
X89425583Y-100690752D01*
X89425601Y-100690779D01*
X89443280Y-100715696D01*
X89443286Y-100715702D01*
X89498608Y-100763310D01*
X89498609Y-100763311D01*
X89546217Y-100804282D01*
X89546218Y-100804282D01*
X89546219Y-100804283D01*
X89608456Y-100831436D01*
X89670692Y-100858590D01*
X89670695Y-100858590D01*
X89670698Y-100858591D01*
X89794092Y-100872494D01*
X89812464Y-100876327D01*
X89822116Y-100875965D01*
X89839512Y-100867386D01*
X89939080Y-100848548D01*
X89966864Y-100835802D01*
X89974425Y-100831437D01*
X97768473Y-96331541D01*
X97768473Y-96331540D01*
X97768478Y-96331538D01*
X97793408Y-96313850D01*
X97881991Y-96210914D01*
X97925756Y-96110604D01*
X97936299Y-96086440D01*
X97946281Y-95997843D01*
X97951504Y-95951490D01*
X97946005Y-95922428D01*
X97926256Y-95818051D01*
X97920409Y-95805309D01*
X97920401Y-95805293D01*
X97913511Y-95790271D01*
X97913506Y-95790262D01*
X97913505Y-95790259D01*
X96753294Y-93780717D01*
X95973626Y-92430292D01*
X95957154Y-92362395D01*
X95980007Y-92296368D01*
X96019011Y-92260909D01*
X99673626Y-90150918D01*
X99820479Y-90032000D01*
X99946919Y-89891573D01*
X100049836Y-89733096D01*
X100126693Y-89560469D01*
X100173864Y-89384424D01*
X100210229Y-89324766D01*
X100231636Y-89309135D01*
X100832553Y-88962195D01*
X100880668Y-88946363D01*
X100902859Y-88943863D01*
X100902863Y-88943861D01*
X100902866Y-88943861D01*
X101049702Y-88892481D01*
X101119481Y-88888919D01*
X101180108Y-88923647D01*
X101212336Y-88985641D01*
X101205931Y-89055216D01*
X101178338Y-89097203D01*
X99523252Y-90752288D01*
X99523249Y-90752292D01*
X99419232Y-90907963D01*
X99419229Y-90907970D01*
X99397259Y-90961009D01*
X99353417Y-91015412D01*
X99344698Y-91020942D01*
X98063964Y-91760374D01*
X98063945Y-91760386D01*
X98039028Y-91778065D01*
X98039025Y-91778068D01*
X97950440Y-91881006D01*
X97950440Y-91881007D01*
X97896134Y-92005477D01*
X97880929Y-92140427D01*
X97906176Y-92273860D01*
X97906178Y-92273864D01*
X97918922Y-92301647D01*
X98130629Y-92668334D01*
X98273189Y-92915255D01*
X98273194Y-92915262D01*
X98290874Y-92940179D01*
X98393808Y-93028762D01*
X98393809Y-93028763D01*
X98393812Y-93028765D01*
X98518285Y-93083073D01*
X98518284Y-93083073D01*
X98535419Y-93085003D01*
X98653235Y-93098278D01*
X98786671Y-93073030D01*
X98814454Y-93060285D01*
X100089266Y-92324270D01*
X100157165Y-92307798D01*
X100163421Y-92308255D01*
X100167932Y-92308699D01*
X100167935Y-92308700D01*
X100167938Y-92308700D01*
X100355171Y-92308700D01*
X100355172Y-92308699D01*
X100417166Y-92296368D01*
X100538794Y-92272175D01*
X100538797Y-92272173D01*
X100538802Y-92272173D01*
X100711782Y-92200523D01*
X100867460Y-92096502D01*
X101380042Y-91583918D01*
X101405713Y-91564220D01*
X102459150Y-90956019D01*
X102484079Y-90938331D01*
X102572662Y-90835396D01*
X102626969Y-90710923D01*
X102642174Y-90575972D01*
X102616926Y-90442536D01*
X102616924Y-90442531D01*
X102616777Y-90442069D01*
X102616768Y-90441700D01*
X102615524Y-90435123D01*
X102616612Y-90434917D01*
X102615168Y-90372218D01*
X102647234Y-90316727D01*
X103011905Y-89952057D01*
X103115926Y-89796379D01*
X103131479Y-89758830D01*
X103187577Y-89623399D01*
X103210681Y-89507248D01*
X103224104Y-89439765D01*
X103224104Y-89252531D01*
X103224104Y-86806165D01*
X103222132Y-86796253D01*
X103222132Y-86796249D01*
X103200614Y-86688070D01*
X103200006Y-86685012D01*
X103187577Y-86622530D01*
X103152495Y-86537835D01*
X103115927Y-86449551D01*
X103079310Y-86394750D01*
X103062599Y-86369740D01*
X103011906Y-86293872D01*
X102875193Y-86157159D01*
X102875170Y-86157138D01*
X96567753Y-79849720D01*
X96534268Y-79788397D01*
X96539252Y-79718705D01*
X96581124Y-79662772D01*
X96588344Y-79657758D01*
X96685741Y-79595165D01*
X96779990Y-79486395D01*
X96839778Y-79355479D01*
X96854341Y-79254189D01*
X96883366Y-79190634D01*
X96942144Y-79152860D01*
X96977079Y-79147837D01*
X96992264Y-79147837D01*
X96992264Y-79147836D01*
X97130355Y-79107290D01*
X97251430Y-79029480D01*
X97345679Y-78920710D01*
X97405467Y-78789794D01*
X97425949Y-78647337D01*
X97405467Y-78504880D01*
X97345679Y-78373964D01*
X97251430Y-78265194D01*
X97130355Y-78187384D01*
X97130353Y-78187383D01*
X97130351Y-78187382D01*
X97130352Y-78187382D01*
X96992265Y-78146837D01*
X96992263Y-78146837D01*
X96848341Y-78146837D01*
X96848340Y-78146837D01*
X96812029Y-78157499D01*
X96777094Y-78162522D01*
X96664330Y-78162522D01*
X96597291Y-78142837D01*
X96576649Y-78126203D01*
X93871819Y-75421373D01*
X93838334Y-75360050D01*
X93835500Y-75333692D01*
X93835500Y-72877183D01*
X93851451Y-72822861D01*
X100317922Y-72822861D01*
X100320865Y-72833844D01*
X100343512Y-72918363D01*
X100343513Y-72918365D01*
X100343514Y-72918368D01*
X100361932Y-72950268D01*
X100377284Y-72994622D01*
X100392444Y-73100069D01*
X100431324Y-73185202D01*
X100452233Y-73230986D01*
X100546482Y-73339756D01*
X100667557Y-73417566D01*
X100667560Y-73417567D01*
X100667559Y-73417567D01*
X100805646Y-73458112D01*
X100805648Y-73458113D01*
X100805649Y-73458113D01*
X100949572Y-73458113D01*
X100949572Y-73458112D01*
X101087663Y-73417566D01*
X101208738Y-73339756D01*
X101302987Y-73230986D01*
X101362775Y-73100070D01*
X101377338Y-72998779D01*
X101406363Y-72935224D01*
X101465141Y-72897449D01*
X101500076Y-72892426D01*
X101515259Y-72892426D01*
X101515259Y-72892425D01*
X101627868Y-72859361D01*
X101653347Y-72851880D01*
X101653347Y-72851879D01*
X101653350Y-72851879D01*
X101774425Y-72774069D01*
X101868674Y-72665299D01*
X101928462Y-72534383D01*
X101948944Y-72391926D01*
X101928462Y-72249469D01*
X101868674Y-72118553D01*
X101849082Y-72095942D01*
X101820059Y-72032386D01*
X101818797Y-72014741D01*
X101818797Y-68894032D01*
X101830002Y-68842522D01*
X101853587Y-68790880D01*
X101868150Y-68689589D01*
X101897175Y-68626034D01*
X101955952Y-68588259D01*
X101990888Y-68583236D01*
X102006071Y-68583236D01*
X102006071Y-68583235D01*
X102144162Y-68542689D01*
X102265237Y-68464879D01*
X102359486Y-68356109D01*
X102419274Y-68225193D01*
X102439756Y-68082736D01*
X102419274Y-67940279D01*
X102359486Y-67809363D01*
X102265237Y-67700593D01*
X102144162Y-67622783D01*
X102144160Y-67622782D01*
X102144158Y-67622781D01*
X102144159Y-67622781D01*
X102006072Y-67582236D01*
X102006070Y-67582236D01*
X101862148Y-67582236D01*
X101825827Y-67592900D01*
X101790895Y-67597923D01*
X101039390Y-67597923D01*
X101017760Y-67603718D01*
X101017761Y-67603719D01*
X100943887Y-67623513D01*
X100943886Y-67623514D01*
X100858263Y-67672949D01*
X100392948Y-68138264D01*
X100343513Y-68223887D01*
X100343513Y-68223888D01*
X100343512Y-68223890D01*
X100317922Y-68319393D01*
X100317922Y-72723989D01*
X100317922Y-72822861D01*
X93851451Y-72822861D01*
X93855185Y-72810144D01*
X93865783Y-72795985D01*
X93885377Y-72773373D01*
X93945165Y-72642457D01*
X93965647Y-72500000D01*
X93945165Y-72357543D01*
X93943903Y-72348765D01*
X93945720Y-72348503D01*
X93945722Y-72289562D01*
X93983498Y-72230785D01*
X94047055Y-72201762D01*
X94064698Y-72200500D01*
X94639985Y-72200500D01*
X94639987Y-72200500D01*
X94786356Y-72161281D01*
X94917586Y-72085515D01*
X99554336Y-67448765D01*
X105938625Y-67448765D01*
X105950079Y-67523177D01*
X105970105Y-67653286D01*
X106040880Y-67847737D01*
X106040881Y-67847738D01*
X106148228Y-68024641D01*
X106148229Y-68024642D01*
X106148231Y-68024645D01*
X106188283Y-68068353D01*
X106288026Y-68177204D01*
X106288030Y-68177206D01*
X106288031Y-68177208D01*
X106454909Y-68299569D01*
X106642452Y-68387021D01*
X106843453Y-68436204D01*
X107034816Y-68444558D01*
X107050184Y-68445230D01*
X107050186Y-68445230D01*
X107050187Y-68445230D01*
X107071721Y-68441915D01*
X107254708Y-68413751D01*
X107684083Y-68257470D01*
X107860990Y-68150119D01*
X107997921Y-68024644D01*
X108013550Y-68010323D01*
X108013550Y-68010321D01*
X108013554Y-68010319D01*
X108135915Y-67843441D01*
X108223367Y-67655898D01*
X108272550Y-67454897D01*
X108281576Y-67248164D01*
X108250096Y-67043642D01*
X108179322Y-66849191D01*
X108071971Y-66672284D01*
X108050813Y-66649194D01*
X107932175Y-66519723D01*
X107858414Y-66465639D01*
X107765293Y-66397359D01*
X107765289Y-66397357D01*
X107577757Y-66309910D01*
X107577748Y-66309906D01*
X107495289Y-66289729D01*
X107376749Y-66260724D01*
X107353694Y-66259717D01*
X107170017Y-66251697D01*
X107170015Y-66251697D01*
X106989563Y-66279472D01*
X106965493Y-66283177D01*
X106536119Y-66439458D01*
X106536117Y-66439458D01*
X106536117Y-66439459D01*
X106359214Y-66546806D01*
X106359211Y-66546809D01*
X106206651Y-66686604D01*
X106084285Y-66853490D01*
X105996838Y-67041022D01*
X105996834Y-67041031D01*
X105947652Y-67242033D01*
X105938625Y-67448762D01*
X105938625Y-67448765D01*
X99554336Y-67448765D01*
X101903568Y-65099533D01*
X105083575Y-65099533D01*
X105105614Y-65242713D01*
X105115055Y-65304054D01*
X105185830Y-65498505D01*
X105185831Y-65498506D01*
X105293178Y-65675409D01*
X105293179Y-65675410D01*
X105293181Y-65675413D01*
X105342621Y-65729367D01*
X105432976Y-65827972D01*
X105432980Y-65827974D01*
X105432981Y-65827976D01*
X105599859Y-65950337D01*
X105787402Y-66037789D01*
X105988403Y-66086972D01*
X106179766Y-66095326D01*
X106195134Y-66095998D01*
X106195136Y-66095998D01*
X106195137Y-66095998D01*
X106216671Y-66092683D01*
X106399658Y-66064519D01*
X106829033Y-65908238D01*
X107005940Y-65800887D01*
X107142871Y-65675412D01*
X107158500Y-65661091D01*
X107158500Y-65661089D01*
X107158504Y-65661087D01*
X107280865Y-65494209D01*
X107368317Y-65306666D01*
X107417500Y-65105665D01*
X107426526Y-64898932D01*
X107395046Y-64694410D01*
X107324272Y-64499959D01*
X107216921Y-64323052D01*
X107216916Y-64323046D01*
X107077125Y-64170491D01*
X107065890Y-64162253D01*
X106910243Y-64048127D01*
X106869135Y-64028958D01*
X106722707Y-63960678D01*
X106722698Y-63960674D01*
X106640239Y-63940497D01*
X106521699Y-63911492D01*
X106498644Y-63910485D01*
X106314967Y-63902465D01*
X106314965Y-63902465D01*
X106134513Y-63930240D01*
X106110443Y-63933945D01*
X105681069Y-64090226D01*
X105681067Y-64090226D01*
X105681067Y-64090227D01*
X105504164Y-64197574D01*
X105504161Y-64197577D01*
X105351601Y-64337372D01*
X105289406Y-64422195D01*
X105230490Y-64502547D01*
X105229235Y-64504258D01*
X105141788Y-64691790D01*
X105141784Y-64691799D01*
X105092602Y-64892801D01*
X105083575Y-65099530D01*
X105083575Y-65099533D01*
X101903568Y-65099533D01*
X103741282Y-63261819D01*
X103802605Y-63228334D01*
X103828963Y-63225500D01*
X104307236Y-63225500D01*
X104374275Y-63245185D01*
X104413243Y-63285169D01*
X104438130Y-63326182D01*
X104471492Y-63362589D01*
X104577925Y-63478741D01*
X104577929Y-63478743D01*
X104577930Y-63478745D01*
X104744808Y-63601106D01*
X104932351Y-63688558D01*
X105133352Y-63737741D01*
X105324715Y-63746095D01*
X105340083Y-63746767D01*
X105340085Y-63746767D01*
X105340086Y-63746767D01*
X105361620Y-63743452D01*
X105544607Y-63715288D01*
X105973982Y-63559007D01*
X106150889Y-63451656D01*
X106235646Y-63373989D01*
X106303449Y-63311860D01*
X106303449Y-63311858D01*
X106303453Y-63311856D01*
X106425814Y-63144978D01*
X106513266Y-62957435D01*
X106562449Y-62756434D01*
X106571475Y-62549701D01*
X106539995Y-62345179D01*
X106469221Y-62150728D01*
X106361870Y-61973821D01*
X106361865Y-61973815D01*
X106222074Y-61821260D01*
X106205729Y-61809275D01*
X106055192Y-61698896D01*
X106055188Y-61698894D01*
X105867656Y-61611447D01*
X105867647Y-61611443D01*
X105785188Y-61591266D01*
X105666648Y-61562261D01*
X105643593Y-61561254D01*
X105459916Y-61553234D01*
X105459914Y-61553234D01*
X105279462Y-61581009D01*
X105255392Y-61584714D01*
X104826018Y-61740995D01*
X104826016Y-61740995D01*
X104826016Y-61740996D01*
X104649113Y-61848343D01*
X104649110Y-61848346D01*
X104496549Y-61988142D01*
X104470386Y-62023824D01*
X104414870Y-62066247D01*
X104370388Y-62074500D01*
X103884460Y-62074500D01*
X103817421Y-62054815D01*
X103771666Y-62002011D01*
X103761722Y-61932853D01*
X103790747Y-61869297D01*
X103796770Y-61862827D01*
X104061184Y-61598412D01*
X104122503Y-61564930D01*
X104134967Y-61563512D01*
X104134922Y-61563175D01*
X104142384Y-61562168D01*
X104142398Y-61562168D01*
X104171972Y-61554441D01*
X105636513Y-61021391D01*
X105664134Y-61008301D01*
X105769246Y-60922312D01*
X105844343Y-60809160D01*
X105878727Y-60692547D01*
X105882751Y-60678901D01*
X105881058Y-60543107D01*
X105880644Y-60541522D01*
X105873331Y-60513533D01*
X105425787Y-59283915D01*
X105412696Y-59256294D01*
X105412695Y-59256292D01*
X105379229Y-59215384D01*
X105326707Y-59151182D01*
X105326704Y-59151180D01*
X105326702Y-59151178D01*
X105213556Y-59076085D01*
X105083296Y-59037676D01*
X104947502Y-59039369D01*
X104917937Y-59047094D01*
X104917930Y-59047096D01*
X104917928Y-59047097D01*
X103863077Y-59431032D01*
X103453379Y-59580150D01*
X103425768Y-59593235D01*
X103425767Y-59593236D01*
X103425766Y-59593237D01*
X103320654Y-59679226D01*
X103320652Y-59679227D01*
X103320650Y-59679230D01*
X103245557Y-59792376D01*
X103207148Y-59922636D01*
X103208841Y-60058430D01*
X103216566Y-60087995D01*
X103216568Y-60088002D01*
X103383618Y-60546970D01*
X103388049Y-60616699D01*
X103354777Y-60677061D01*
X93968658Y-70063181D01*
X93907335Y-70096666D01*
X93880977Y-70099500D01*
X84439233Y-70099500D01*
X84308922Y-70134415D01*
X84308923Y-70134416D01*
X84292864Y-70138719D01*
X84161635Y-70214485D01*
X84161632Y-70214487D01*
X81721501Y-72654617D01*
X81660178Y-72688102D01*
X81621666Y-72690339D01*
X81460000Y-72674417D01*
X81254067Y-72694699D01*
X81056043Y-72754769D01*
X80952446Y-72810144D01*
X80873550Y-72852315D01*
X80873548Y-72852316D01*
X80873547Y-72852317D01*
X80748164Y-72955215D01*
X80683854Y-72982527D01*
X80614987Y-72970736D01*
X80563427Y-72923583D01*
X80545500Y-72859361D01*
X80545500Y-72215537D01*
X80565185Y-72148498D01*
X80581814Y-72127861D01*
X84238567Y-68471107D01*
X87835164Y-68471107D01*
X87839858Y-68542689D01*
X87840383Y-68550701D01*
X87875661Y-68622240D01*
X87875662Y-68622241D01*
X87920488Y-68661553D01*
X87920490Y-68661554D01*
X87920492Y-68661556D01*
X88459841Y-68972949D01*
X89389993Y-69509973D01*
X89426940Y-69531304D01*
X89455917Y-69541140D01*
X89483403Y-69550471D01*
X89483403Y-69550470D01*
X89483404Y-69550471D01*
X89562997Y-69545253D01*
X89634536Y-69509975D01*
X89673852Y-69465144D01*
X90543600Y-67958696D01*
X90562767Y-67902232D01*
X90557549Y-67822639D01*
X90522271Y-67751100D01*
X90491573Y-67724178D01*
X90477443Y-67711786D01*
X90477437Y-67711782D01*
X88970993Y-66842036D01*
X88970987Y-66842034D01*
X88914528Y-66822868D01*
X88834935Y-66828087D01*
X88763394Y-66863366D01*
X88724082Y-66908192D01*
X88724078Y-66908198D01*
X87854332Y-68414642D01*
X87854330Y-68414648D01*
X87835164Y-68471107D01*
X84238567Y-68471107D01*
X85744784Y-66964890D01*
X85806105Y-66931407D01*
X85875797Y-66936391D01*
X85931730Y-66978263D01*
X85955866Y-67040418D01*
X85963960Y-67122602D01*
X85963961Y-67122604D01*
X86024029Y-67320624D01*
X86121576Y-67503120D01*
X86121578Y-67503122D01*
X86252850Y-67663080D01*
X86327308Y-67724185D01*
X86412811Y-67794355D01*
X86595307Y-67891902D01*
X86793327Y-67951970D01*
X86793326Y-67951970D01*
X86811790Y-67953788D01*
X86999261Y-67972253D01*
X87205195Y-67951970D01*
X87403215Y-67891902D01*
X87585711Y-67794355D01*
X87745671Y-67663080D01*
X87876946Y-67503120D01*
X87974493Y-67320624D01*
X88034561Y-67122604D01*
X88054844Y-66916670D01*
X88034561Y-66710736D01*
X87977447Y-66522457D01*
X87976825Y-66452593D01*
X88014073Y-66393480D01*
X88077367Y-66363890D01*
X88096109Y-66362465D01*
X89404202Y-66362465D01*
X89471241Y-66382150D01*
X89513560Y-66428011D01*
X89591281Y-66573415D01*
X89591283Y-66573417D01*
X89722555Y-66733375D01*
X89742248Y-66749536D01*
X89882516Y-66864650D01*
X90065012Y-66962197D01*
X90263032Y-67022265D01*
X90263031Y-67022265D01*
X90281495Y-67024083D01*
X90468966Y-67042548D01*
X90674900Y-67022265D01*
X90872920Y-66962197D01*
X91055416Y-66864650D01*
X91215376Y-66733375D01*
X91346651Y-66573415D01*
X91444198Y-66390919D01*
X91504266Y-66192899D01*
X91524549Y-65986965D01*
X91504266Y-65781031D01*
X91444198Y-65583011D01*
X91346651Y-65400515D01*
X91282117Y-65321880D01*
X91215376Y-65240554D01*
X91055418Y-65109282D01*
X91055419Y-65109282D01*
X91055416Y-65109280D01*
X90872920Y-65011733D01*
X90674900Y-64951665D01*
X90674898Y-64951664D01*
X90674900Y-64951664D01*
X90468966Y-64931382D01*
X90263033Y-64951664D01*
X90065009Y-65011734D01*
X89974300Y-65060220D01*
X89882516Y-65109280D01*
X89882514Y-65109281D01*
X89882513Y-65109282D01*
X89722555Y-65240554D01*
X89591283Y-65400512D01*
X89591281Y-65400515D01*
X89577764Y-65425803D01*
X89513560Y-65545919D01*
X89464597Y-65595763D01*
X89404202Y-65611465D01*
X88008867Y-65611465D01*
X87941828Y-65591780D01*
X87921186Y-65575146D01*
X87737236Y-65391196D01*
X87737235Y-65391195D01*
X87674555Y-65355007D01*
X87651613Y-65341761D01*
X87651612Y-65341760D01*
X87651611Y-65341760D01*
X87577422Y-65321881D01*
X87577419Y-65321880D01*
X87577417Y-65321879D01*
X87556111Y-65316170D01*
X87556109Y-65316170D01*
X87556108Y-65316170D01*
X86536405Y-65316170D01*
X86437533Y-65316170D01*
X86437530Y-65316170D01*
X86416217Y-65321881D01*
X86416216Y-65321880D01*
X86342035Y-65341758D01*
X86342028Y-65341761D01*
X86256405Y-65391196D01*
X86256406Y-65391196D01*
X86153397Y-65494205D01*
X86053597Y-65594004D01*
X85992273Y-65627488D01*
X85922582Y-65622504D01*
X85866649Y-65580632D01*
X85842513Y-65518477D01*
X85834857Y-65440736D01*
X85774789Y-65242716D01*
X85677242Y-65060220D01*
X85597555Y-64963120D01*
X85545967Y-64900259D01*
X85428234Y-64803639D01*
X85386007Y-64768985D01*
X85203511Y-64671438D01*
X85005491Y-64611370D01*
X85005489Y-64611369D01*
X85005491Y-64611369D01*
X84799557Y-64591087D01*
X84593624Y-64611369D01*
X84395600Y-64671439D01*
X84285455Y-64730313D01*
X84213107Y-64768985D01*
X84213105Y-64768986D01*
X84213104Y-64768987D01*
X84053146Y-64900259D01*
X83921874Y-65060217D01*
X83921872Y-65060220D01*
X83900860Y-65099530D01*
X83824326Y-65242713D01*
X83764256Y-65440737D01*
X83743974Y-65646670D01*
X83764256Y-65852602D01*
X83781133Y-65908238D01*
X83824325Y-66050624D01*
X83921872Y-66233120D01*
X83944526Y-66260724D01*
X84053146Y-66393080D01*
X84141558Y-66465637D01*
X84213107Y-66524355D01*
X84395603Y-66621902D01*
X84593623Y-66681970D01*
X84593622Y-66681970D01*
X84602912Y-66682884D01*
X84671364Y-66689626D01*
X84736149Y-66715786D01*
X84776509Y-66772820D01*
X84779626Y-66842620D01*
X84746890Y-66900710D01*
X79939438Y-71708164D01*
X79869527Y-71778074D01*
X79820089Y-71863702D01*
X79815967Y-71879088D01*
X79801798Y-71931969D01*
X79801797Y-71931973D01*
X79794500Y-71959203D01*
X79794500Y-72826534D01*
X79774815Y-72893573D01*
X79722011Y-72939328D01*
X79652853Y-72949272D01*
X79591836Y-72922388D01*
X79506453Y-72852317D01*
X79506451Y-72852316D01*
X79506450Y-72852315D01*
X79323954Y-72754768D01*
X79125934Y-72694700D01*
X79125932Y-72694699D01*
X79125934Y-72694699D01*
X78920000Y-72674417D01*
X78714067Y-72694699D01*
X78516043Y-72754769D01*
X78412446Y-72810144D01*
X78333550Y-72852315D01*
X78333548Y-72852316D01*
X78333547Y-72852317D01*
X78173589Y-72983589D01*
X78042317Y-73143547D01*
X78042315Y-73143550D01*
X78005500Y-73212425D01*
X77944769Y-73326043D01*
X77884699Y-73524067D01*
X77864417Y-73730000D01*
X77884699Y-73935932D01*
X77896536Y-73974952D01*
X77944768Y-74133954D01*
X78042315Y-74316450D01*
X78064632Y-74343643D01*
X78173589Y-74476410D01*
X78243275Y-74533599D01*
X78333550Y-74607685D01*
X78516046Y-74705232D01*
X78714066Y-74765300D01*
X78714065Y-74765300D01*
X78732529Y-74767118D01*
X78920000Y-74785583D01*
X79125934Y-74765300D01*
X79323954Y-74705232D01*
X79506450Y-74607685D01*
X79591835Y-74537612D01*
X79656145Y-74510299D01*
X79725013Y-74522090D01*
X79776573Y-74569242D01*
X79794500Y-74633465D01*
X79794500Y-74813100D01*
X79774815Y-74880139D01*
X79758181Y-74900781D01*
X79407382Y-75251579D01*
X79346059Y-75285064D01*
X79283706Y-75282559D01*
X79181577Y-75251579D01*
X79125934Y-75234700D01*
X79125932Y-75234699D01*
X79125934Y-75234699D01*
X78920000Y-75214417D01*
X78714067Y-75234699D01*
X78516043Y-75294769D01*
X78443225Y-75333692D01*
X78333550Y-75392315D01*
X78333548Y-75392316D01*
X78333547Y-75392317D01*
X78173589Y-75523589D01*
X78042318Y-75683546D01*
X78042315Y-75683550D01*
X78022293Y-75721008D01*
X77944769Y-75866043D01*
X77884699Y-76064067D01*
X77864417Y-76270000D01*
X77884699Y-76475932D01*
X77884700Y-76475934D01*
X77944768Y-76673954D01*
X78042315Y-76856450D01*
X78044400Y-76858990D01*
X78173589Y-77016410D01*
X78254951Y-77083181D01*
X78333550Y-77147685D01*
X78516046Y-77245232D01*
X78714066Y-77305300D01*
X78714065Y-77305300D01*
X78732529Y-77307118D01*
X78920000Y-77325583D01*
X79125934Y-77305300D01*
X79323954Y-77245232D01*
X79506450Y-77147685D01*
X79666410Y-77016410D01*
X79797685Y-76856450D01*
X79895232Y-76673954D01*
X79955300Y-76475934D01*
X79975583Y-76270000D01*
X80404417Y-76270000D01*
X80424699Y-76475932D01*
X80424700Y-76475934D01*
X80484768Y-76673954D01*
X80582315Y-76856450D01*
X80584400Y-76858990D01*
X80713589Y-77016410D01*
X80794951Y-77083181D01*
X80873550Y-77147685D01*
X81056046Y-77245232D01*
X81254066Y-77305300D01*
X81254065Y-77305300D01*
X81272529Y-77307118D01*
X81460000Y-77325583D01*
X81665934Y-77305300D01*
X81863954Y-77245232D01*
X82046450Y-77147685D01*
X82056116Y-77139752D01*
X82949500Y-77139752D01*
X82961131Y-77198229D01*
X82961132Y-77198230D01*
X83005447Y-77264552D01*
X83071769Y-77308867D01*
X83071770Y-77308868D01*
X83130247Y-77320499D01*
X83130250Y-77320500D01*
X83130252Y-77320500D01*
X84869750Y-77320500D01*
X84869751Y-77320499D01*
X84884568Y-77317552D01*
X84928229Y-77308868D01*
X84928229Y-77308867D01*
X84928231Y-77308867D01*
X84994552Y-77264552D01*
X85038867Y-77198231D01*
X85038867Y-77198229D01*
X85038868Y-77198229D01*
X85050499Y-77139752D01*
X85050500Y-77139750D01*
X85050500Y-75400249D01*
X85050499Y-75400247D01*
X85038868Y-75341770D01*
X85038867Y-75341769D01*
X84994552Y-75275447D01*
X84928230Y-75231132D01*
X84928229Y-75231131D01*
X84869752Y-75219500D01*
X84869748Y-75219500D01*
X83130252Y-75219500D01*
X83130247Y-75219500D01*
X83071770Y-75231131D01*
X83071769Y-75231132D01*
X83005447Y-75275447D01*
X82961132Y-75341769D01*
X82961131Y-75341770D01*
X82949500Y-75400247D01*
X82949500Y-77139752D01*
X82056116Y-77139752D01*
X82206410Y-77016410D01*
X82337685Y-76856450D01*
X82435232Y-76673954D01*
X82495300Y-76475934D01*
X82515583Y-76270000D01*
X82495300Y-76064066D01*
X82435232Y-75866046D01*
X82337685Y-75683550D01*
X82232351Y-75555199D01*
X82206410Y-75523589D01*
X82056121Y-75400252D01*
X82046450Y-75392315D01*
X81863954Y-75294768D01*
X81665934Y-75234700D01*
X81665932Y-75234699D01*
X81665934Y-75234699D01*
X81460000Y-75214417D01*
X81254067Y-75234699D01*
X81056043Y-75294769D01*
X80983225Y-75333692D01*
X80873550Y-75392315D01*
X80873548Y-75392316D01*
X80873547Y-75392317D01*
X80713589Y-75523589D01*
X80582318Y-75683546D01*
X80582315Y-75683550D01*
X80562293Y-75721008D01*
X80484769Y-75866043D01*
X80424699Y-76064067D01*
X80404417Y-76270000D01*
X79975583Y-76270000D01*
X79955300Y-76064066D01*
X79907439Y-75906290D01*
X79906816Y-75836426D01*
X79938417Y-75782618D01*
X80470474Y-75250563D01*
X80476505Y-75240117D01*
X80519910Y-75164938D01*
X80545500Y-75069435D01*
X80545500Y-74600638D01*
X80565185Y-74533599D01*
X80617989Y-74487844D01*
X80687147Y-74477900D01*
X80748165Y-74504785D01*
X80847824Y-74586573D01*
X80873550Y-74607685D01*
X81056046Y-74705232D01*
X81254066Y-74765300D01*
X81254065Y-74765300D01*
X81272529Y-74767118D01*
X81460000Y-74785583D01*
X81665934Y-74765300D01*
X81863954Y-74705232D01*
X82046450Y-74607685D01*
X82206410Y-74476410D01*
X82337685Y-74316450D01*
X82435232Y-74133954D01*
X82495300Y-73935934D01*
X82515583Y-73730000D01*
X82500869Y-73580606D01*
X82499660Y-73568331D01*
X82512679Y-73499685D01*
X82535379Y-73468499D01*
X82832049Y-73171829D01*
X82893370Y-73138346D01*
X82963062Y-73143330D01*
X83018995Y-73185202D01*
X83043412Y-73250666D01*
X83029089Y-73317960D01*
X83024769Y-73326041D01*
X82964699Y-73524067D01*
X82944417Y-73730000D01*
X82964699Y-73935932D01*
X82976536Y-73974952D01*
X83024768Y-74133954D01*
X83122315Y-74316450D01*
X83144632Y-74343643D01*
X83253589Y-74476410D01*
X83323275Y-74533599D01*
X83413550Y-74607685D01*
X83596046Y-74705232D01*
X83794066Y-74765300D01*
X83794065Y-74765300D01*
X83812529Y-74767118D01*
X84000000Y-74785583D01*
X84205934Y-74765300D01*
X84403954Y-74705232D01*
X84586450Y-74607685D01*
X84746410Y-74476410D01*
X84877685Y-74316450D01*
X84975232Y-74133954D01*
X85035300Y-73935934D01*
X85055583Y-73730000D01*
X85040869Y-73580606D01*
X85039660Y-73568331D01*
X85052679Y-73499685D01*
X85075379Y-73468499D01*
X86307061Y-72236819D01*
X86368384Y-72203334D01*
X86394742Y-72200500D01*
X92031210Y-72200500D01*
X92098249Y-72220185D01*
X92144004Y-72272989D01*
X92153948Y-72342147D01*
X92150186Y-72359439D01*
X92149040Y-72363339D01*
X92128559Y-72505794D01*
X92149040Y-72648250D01*
X92197686Y-72754768D01*
X92208829Y-72779167D01*
X92228418Y-72801774D01*
X92257444Y-72865328D01*
X92258706Y-72882977D01*
X92258706Y-75542051D01*
X92271483Y-75589738D01*
X92271501Y-75589800D01*
X92284297Y-75637555D01*
X92310850Y-75683547D01*
X92311995Y-75685529D01*
X92333732Y-75723178D01*
X92333734Y-75723180D01*
X94258373Y-77647819D01*
X94291858Y-77709142D01*
X94286874Y-77778834D01*
X94245002Y-77834767D01*
X94179538Y-77859184D01*
X94170692Y-77859500D01*
X70074500Y-77859500D01*
X70007461Y-77839815D01*
X69961706Y-77787011D01*
X69950500Y-77735500D01*
X69950500Y-76270000D01*
X75324417Y-76270000D01*
X75344699Y-76475932D01*
X75344700Y-76475934D01*
X75404768Y-76673954D01*
X75502315Y-76856450D01*
X75504400Y-76858990D01*
X75633589Y-77016410D01*
X75714951Y-77083181D01*
X75793550Y-77147685D01*
X75976046Y-77245232D01*
X76174066Y-77305300D01*
X76174065Y-77305300D01*
X76192529Y-77307118D01*
X76380000Y-77325583D01*
X76585934Y-77305300D01*
X76783954Y-77245232D01*
X76966450Y-77147685D01*
X77126410Y-77016410D01*
X77257685Y-76856450D01*
X77355232Y-76673954D01*
X77415300Y-76475934D01*
X77435583Y-76270000D01*
X77415300Y-76064066D01*
X77355232Y-75866046D01*
X77257685Y-75683550D01*
X77152351Y-75555199D01*
X77126410Y-75523589D01*
X76976121Y-75400252D01*
X76966450Y-75392315D01*
X76783954Y-75294768D01*
X76585934Y-75234700D01*
X76585932Y-75234699D01*
X76585934Y-75234699D01*
X76380000Y-75214417D01*
X76174067Y-75234699D01*
X75976043Y-75294769D01*
X75903225Y-75333692D01*
X75793550Y-75392315D01*
X75793548Y-75392316D01*
X75793547Y-75392317D01*
X75633589Y-75523589D01*
X75502318Y-75683546D01*
X75502315Y-75683550D01*
X75482293Y-75721008D01*
X75404769Y-75866043D01*
X75344699Y-76064067D01*
X75324417Y-76270000D01*
X69950500Y-76270000D01*
X69950500Y-73730000D01*
X75324417Y-73730000D01*
X75344699Y-73935932D01*
X75356536Y-73974952D01*
X75404768Y-74133954D01*
X75502315Y-74316450D01*
X75524632Y-74343643D01*
X75633589Y-74476410D01*
X75703275Y-74533599D01*
X75793550Y-74607685D01*
X75976046Y-74705232D01*
X76174066Y-74765300D01*
X76174065Y-74765300D01*
X76192529Y-74767118D01*
X76380000Y-74785583D01*
X76585934Y-74765300D01*
X76783954Y-74705232D01*
X76966450Y-74607685D01*
X77126410Y-74476410D01*
X77257685Y-74316450D01*
X77355232Y-74133954D01*
X77415300Y-73935934D01*
X77435583Y-73730000D01*
X77415300Y-73524066D01*
X77355232Y-73326046D01*
X77257685Y-73143550D01*
X77180529Y-73049534D01*
X77126410Y-72983589D01*
X76982306Y-72865328D01*
X76966450Y-72852315D01*
X76783954Y-72754768D01*
X76585934Y-72694700D01*
X76585932Y-72694699D01*
X76585934Y-72694699D01*
X76380000Y-72674417D01*
X76174067Y-72694699D01*
X75976043Y-72754769D01*
X75872446Y-72810144D01*
X75793550Y-72852315D01*
X75793548Y-72852316D01*
X75793547Y-72852317D01*
X75633589Y-72983589D01*
X75502317Y-73143547D01*
X75502315Y-73143550D01*
X75465500Y-73212425D01*
X75404769Y-73326043D01*
X75344699Y-73524067D01*
X75324417Y-73730000D01*
X69950500Y-73730000D01*
X69950500Y-71842178D01*
X69970185Y-71775139D01*
X69986819Y-71754497D01*
X72276175Y-69465141D01*
X74907413Y-66833903D01*
X75041613Y-66649194D01*
X75145265Y-66445765D01*
X75215818Y-66228626D01*
X75221142Y-66195012D01*
X75227439Y-66155252D01*
X75251534Y-66003128D01*
X75251534Y-64376670D01*
X81544269Y-64376670D01*
X81564551Y-64582602D01*
X81573278Y-64611370D01*
X81624620Y-64780624D01*
X81722167Y-64963120D01*
X81725526Y-64967213D01*
X81853441Y-65123080D01*
X81950061Y-65202372D01*
X82013402Y-65254355D01*
X82195898Y-65351902D01*
X82393918Y-65411970D01*
X82393917Y-65411970D01*
X82412381Y-65413788D01*
X82599852Y-65432253D01*
X82805786Y-65411970D01*
X83003806Y-65351902D01*
X83186302Y-65254355D01*
X83346262Y-65123080D01*
X83477537Y-64963120D01*
X83575084Y-64780624D01*
X83635152Y-64582604D01*
X83655435Y-64376670D01*
X83635152Y-64170736D01*
X83575084Y-63972716D01*
X83477537Y-63790220D01*
X83416042Y-63715288D01*
X83346262Y-63630259D01*
X83211830Y-63519935D01*
X83186302Y-63498985D01*
X83088980Y-63446965D01*
X85013974Y-63446965D01*
X85034256Y-63652897D01*
X85045074Y-63688558D01*
X85094325Y-63850919D01*
X85191872Y-64033415D01*
X85191874Y-64033417D01*
X85323146Y-64193375D01*
X85403857Y-64259612D01*
X85483107Y-64324650D01*
X85665603Y-64422197D01*
X85863623Y-64482265D01*
X85863622Y-64482265D01*
X85882086Y-64484083D01*
X86069557Y-64502548D01*
X86275491Y-64482265D01*
X86473511Y-64422197D01*
X86656007Y-64324650D01*
X86815967Y-64193375D01*
X86947242Y-64033415D01*
X87044789Y-63850919D01*
X87104857Y-63652899D01*
X87125140Y-63446965D01*
X87104857Y-63241031D01*
X87044789Y-63043011D01*
X86947242Y-62860515D01*
X86867555Y-62763415D01*
X86815967Y-62700554D01*
X86672822Y-62583080D01*
X86656007Y-62569280D01*
X86473511Y-62471733D01*
X86275491Y-62411665D01*
X86275489Y-62411664D01*
X86275491Y-62411664D01*
X86069557Y-62391382D01*
X85863624Y-62411664D01*
X85665600Y-62471734D01*
X85574891Y-62520220D01*
X85483107Y-62569280D01*
X85483105Y-62569281D01*
X85483104Y-62569282D01*
X85323146Y-62700554D01*
X85191874Y-62860512D01*
X85094326Y-63043008D01*
X85034256Y-63241032D01*
X85013974Y-63446965D01*
X83088980Y-63446965D01*
X83003806Y-63401438D01*
X82805786Y-63341370D01*
X82805784Y-63341369D01*
X82805786Y-63341369D01*
X82599852Y-63321087D01*
X82393919Y-63341369D01*
X82195895Y-63401439D01*
X82101944Y-63451658D01*
X82013402Y-63498985D01*
X82013400Y-63498986D01*
X82013399Y-63498987D01*
X81853441Y-63630259D01*
X81722169Y-63790217D01*
X81624621Y-63972713D01*
X81564551Y-64170737D01*
X81544269Y-64376670D01*
X75251534Y-64376670D01*
X75251534Y-63106670D01*
X79344565Y-63106670D01*
X79364847Y-63312602D01*
X79389679Y-63394461D01*
X79424916Y-63510624D01*
X79522463Y-63693120D01*
X79522465Y-63693122D01*
X79653737Y-63853080D01*
X79750357Y-63932372D01*
X79813698Y-63984355D01*
X79996194Y-64081902D01*
X80194214Y-64141970D01*
X80194213Y-64141970D01*
X80212677Y-64143788D01*
X80400148Y-64162253D01*
X80606082Y-64141970D01*
X80804102Y-64081902D01*
X80986598Y-63984355D01*
X81146558Y-63853080D01*
X81277833Y-63693120D01*
X81375380Y-63510624D01*
X81435448Y-63312604D01*
X81455731Y-63106670D01*
X81435448Y-62900736D01*
X81375380Y-62702716D01*
X81277833Y-62520220D01*
X81188744Y-62411664D01*
X81146558Y-62360259D01*
X81028825Y-62263639D01*
X80986598Y-62228985D01*
X80804102Y-62131438D01*
X80606082Y-62071370D01*
X80606080Y-62071369D01*
X80606082Y-62071369D01*
X80400148Y-62051087D01*
X80194215Y-62071369D01*
X79996191Y-62131439D01*
X79886046Y-62190313D01*
X79813698Y-62228985D01*
X79813696Y-62228986D01*
X79813695Y-62228987D01*
X79653737Y-62360259D01*
X79522465Y-62520217D01*
X79522463Y-62520220D01*
X79496240Y-62569280D01*
X79424917Y-62702713D01*
X79364847Y-62900737D01*
X79344565Y-63106670D01*
X75251534Y-63106670D01*
X75251534Y-61836670D01*
X77144860Y-61836670D01*
X77165142Y-62042602D01*
X77192090Y-62131438D01*
X77225211Y-62240624D01*
X77322758Y-62423120D01*
X77349622Y-62455854D01*
X77454032Y-62583080D01*
X77496560Y-62617981D01*
X77613993Y-62714355D01*
X77796489Y-62811902D01*
X77994509Y-62871970D01*
X77994508Y-62871970D01*
X78012972Y-62873788D01*
X78200443Y-62892253D01*
X78406377Y-62871970D01*
X78604397Y-62811902D01*
X78786893Y-62714355D01*
X78946853Y-62583080D01*
X79078128Y-62423120D01*
X79175675Y-62240624D01*
X79235743Y-62042604D01*
X79256026Y-61836670D01*
X79235743Y-61630736D01*
X79175675Y-61432716D01*
X79078128Y-61250220D01*
X78995272Y-61149259D01*
X78946853Y-61090259D01*
X78825400Y-60990587D01*
X78786893Y-60958985D01*
X78604397Y-60861438D01*
X78406377Y-60801370D01*
X78406375Y-60801369D01*
X78406377Y-60801369D01*
X78200443Y-60781087D01*
X77994510Y-60801369D01*
X77796486Y-60861439D01*
X77686341Y-60920313D01*
X77613993Y-60958985D01*
X77613991Y-60958986D01*
X77613990Y-60958987D01*
X77454032Y-61090259D01*
X77322760Y-61250217D01*
X77225212Y-61432713D01*
X77165142Y-61630737D01*
X77144860Y-61836670D01*
X75251534Y-61836670D01*
X75251534Y-61564241D01*
X75271219Y-61497202D01*
X75324023Y-61451447D01*
X75393181Y-61441503D01*
X75433981Y-61454880D01*
X75596785Y-61541902D01*
X75794805Y-61601970D01*
X75794804Y-61601970D01*
X75813268Y-61603788D01*
X76000739Y-61622253D01*
X76206673Y-61601970D01*
X76404693Y-61541902D01*
X76587189Y-61444355D01*
X76747149Y-61313080D01*
X76878424Y-61153120D01*
X76975971Y-60970624D01*
X77036039Y-60772604D01*
X77045066Y-60680945D01*
X77061081Y-60631101D01*
X77635045Y-59636965D01*
X78414860Y-59636965D01*
X78435142Y-59842897D01*
X78443869Y-59871665D01*
X78495211Y-60040919D01*
X78592758Y-60223415D01*
X78592760Y-60223417D01*
X78724032Y-60383375D01*
X78820652Y-60462667D01*
X78883993Y-60514650D01*
X79066489Y-60612197D01*
X79264509Y-60672265D01*
X79264508Y-60672265D01*
X79282972Y-60674083D01*
X79470443Y-60692548D01*
X79676377Y-60672265D01*
X79874397Y-60612197D01*
X80056893Y-60514650D01*
X80216853Y-60383375D01*
X80348128Y-60223415D01*
X80445675Y-60040919D01*
X80505743Y-59842899D01*
X80526026Y-59636965D01*
X80505743Y-59431031D01*
X80445675Y-59233011D01*
X80348128Y-59050515D01*
X80249635Y-58930500D01*
X80216853Y-58890554D01*
X80075970Y-58774936D01*
X80056893Y-58759280D01*
X79874397Y-58661733D01*
X79676377Y-58601665D01*
X79676375Y-58601664D01*
X79676377Y-58601664D01*
X79470443Y-58581382D01*
X79264510Y-58601664D01*
X79066486Y-58661734D01*
X78988463Y-58703439D01*
X78883993Y-58759280D01*
X78883991Y-58759281D01*
X78883990Y-58759282D01*
X78724032Y-58890554D01*
X78595563Y-59047097D01*
X78592758Y-59050515D01*
X78559158Y-59113375D01*
X78495212Y-59233008D01*
X78435142Y-59431032D01*
X78414860Y-59636965D01*
X77635045Y-59636965D01*
X77854196Y-59257385D01*
X77882916Y-59223536D01*
X78017149Y-59113375D01*
X78148424Y-58953415D01*
X78245971Y-58770919D01*
X78306039Y-58572899D01*
X78326322Y-58366965D01*
X78306039Y-58161031D01*
X78245971Y-57963011D01*
X78148424Y-57780515D01*
X78046998Y-57656926D01*
X78017149Y-57620554D01*
X77857191Y-57489282D01*
X77857192Y-57489282D01*
X77857189Y-57489280D01*
X77674693Y-57391733D01*
X77575683Y-57361699D01*
X77476671Y-57331664D01*
X77385012Y-57322636D01*
X77335168Y-57306620D01*
X76085616Y-56585191D01*
X76037400Y-56534624D01*
X76023617Y-56477388D01*
X76026865Y-55509125D01*
X76050223Y-48545938D01*
X76070132Y-48478967D01*
X76123089Y-48433389D01*
X76192281Y-48423678D01*
X76255739Y-48452916D01*
X76285434Y-48491512D01*
X76340220Y-48602607D01*
X76340224Y-48602614D01*
X76500479Y-48842453D01*
X76690673Y-49059328D01*
X76891860Y-49235764D01*
X76907547Y-49249521D01*
X77147390Y-49409779D01*
X77406099Y-49537360D01*
X77679248Y-49630082D01*
X77962162Y-49686357D01*
X78250001Y-49705223D01*
X78537840Y-49686357D01*
X78820754Y-49630082D01*
X78908341Y-49600349D01*
X78978146Y-49597440D01*
X79035878Y-49630088D01*
X82883033Y-53477243D01*
X82916518Y-53538566D01*
X82919352Y-53564924D01*
X82919352Y-60570236D01*
X82899667Y-60637275D01*
X82846863Y-60683030D01*
X82777705Y-60692974D01*
X82714149Y-60663949D01*
X82676691Y-60606231D01*
X82674255Y-60598201D01*
X82645380Y-60503011D01*
X82547833Y-60320515D01*
X82468146Y-60223415D01*
X82416558Y-60160554D01*
X82292118Y-60058430D01*
X82256598Y-60029280D01*
X82074102Y-59931733D01*
X81876082Y-59871665D01*
X81876080Y-59871664D01*
X81876082Y-59871664D01*
X81670148Y-59851382D01*
X81464215Y-59871664D01*
X81266191Y-59931734D01*
X81156046Y-59990608D01*
X81083698Y-60029280D01*
X81083696Y-60029281D01*
X81083695Y-60029282D01*
X80923737Y-60160554D01*
X80792465Y-60320512D01*
X80694917Y-60503008D01*
X80694916Y-60503010D01*
X80694916Y-60503011D01*
X80691386Y-60514647D01*
X80634847Y-60701032D01*
X80614565Y-60906965D01*
X80634847Y-61112897D01*
X80647049Y-61153120D01*
X80694916Y-61310919D01*
X80792463Y-61493415D01*
X80792465Y-61493417D01*
X80923737Y-61653375D01*
X81013135Y-61726741D01*
X81083698Y-61784650D01*
X81266194Y-61882197D01*
X81464214Y-61942265D01*
X81464213Y-61942265D01*
X81482677Y-61944083D01*
X81670148Y-61962548D01*
X81876082Y-61942265D01*
X82074102Y-61882197D01*
X82256598Y-61784650D01*
X82416558Y-61653375D01*
X82547833Y-61493415D01*
X82645380Y-61310919D01*
X82676691Y-61207696D01*
X82714989Y-61149259D01*
X82778801Y-61120803D01*
X82847868Y-61131363D01*
X82900261Y-61177587D01*
X82919352Y-61243693D01*
X82919352Y-61695680D01*
X82904710Y-61754134D01*
X82894621Y-61773008D01*
X82834551Y-61971032D01*
X82814269Y-62176965D01*
X82834551Y-62382897D01*
X82843278Y-62411665D01*
X82894620Y-62580919D01*
X82992167Y-62763415D01*
X82992169Y-62763417D01*
X83123441Y-62923375D01*
X83220061Y-63002667D01*
X83283402Y-63054650D01*
X83465898Y-63152197D01*
X83663918Y-63212265D01*
X83663917Y-63212265D01*
X83673959Y-63213254D01*
X83869852Y-63232548D01*
X84075786Y-63212265D01*
X84273806Y-63152197D01*
X84456302Y-63054650D01*
X84616262Y-62923375D01*
X84747537Y-62763415D01*
X84845084Y-62580919D01*
X84905152Y-62382899D01*
X84925435Y-62176965D01*
X84905152Y-61971031D01*
X84845084Y-61773011D01*
X84834994Y-61754134D01*
X84820352Y-61695680D01*
X84820352Y-54231031D01*
X98556240Y-54231031D01*
X98569425Y-54366193D01*
X98569426Y-54366195D01*
X98621865Y-54491466D01*
X98640107Y-54515992D01*
X99117695Y-55046407D01*
X99493258Y-55463513D01*
X99515686Y-55488421D01*
X99538171Y-55509127D01*
X99657274Y-55574373D01*
X99790318Y-55601614D01*
X99925481Y-55588429D01*
X100050752Y-55535990D01*
X100075278Y-55517748D01*
X101270650Y-54441430D01*
X101291356Y-54418945D01*
X101356602Y-54299842D01*
X101383844Y-54166798D01*
X101370658Y-54031635D01*
X101318219Y-53906364D01*
X101299977Y-53881838D01*
X100424398Y-52909409D01*
X100401913Y-52888703D01*
X100401912Y-52888702D01*
X100282810Y-52823457D01*
X100149766Y-52796216D01*
X100014604Y-52809400D01*
X99889333Y-52861839D01*
X99889332Y-52861840D01*
X99864806Y-52880082D01*
X99864800Y-52880086D01*
X99864799Y-52880088D01*
X98669438Y-53956395D01*
X98669432Y-53956401D01*
X98648729Y-53978883D01*
X98648727Y-53978885D01*
X98583482Y-54097986D01*
X98583481Y-54097988D01*
X98556240Y-54231031D01*
X84820352Y-54231031D01*
X84820352Y-53026235D01*
X84820351Y-53026231D01*
X84783825Y-52842601D01*
X84723328Y-52696548D01*
X84723328Y-52696547D01*
X84712178Y-52669627D01*
X84712171Y-52669615D01*
X84608154Y-52513944D01*
X84608151Y-52513940D01*
X80380088Y-48285878D01*
X80346603Y-48224555D01*
X80350349Y-48158341D01*
X80380082Y-48070754D01*
X80436357Y-47787840D01*
X80455223Y-47500001D01*
X80436357Y-47212162D01*
X80380082Y-46929248D01*
X80287360Y-46656099D01*
X80159779Y-46397390D01*
X79999521Y-46157547D01*
X79809328Y-45940673D01*
X79592453Y-45750479D01*
X79352614Y-45590224D01*
X79352607Y-45590220D01*
X79093906Y-45462643D01*
X78820761Y-45369922D01*
X78820755Y-45369920D01*
X78820754Y-45369920D01*
X78820752Y-45369919D01*
X78820746Y-45369918D01*
X78537850Y-45313647D01*
X78537840Y-45313645D01*
X78250001Y-45294779D01*
X77962162Y-45313645D01*
X77962156Y-45313646D01*
X77962151Y-45313647D01*
X77679255Y-45369918D01*
X77679240Y-45369922D01*
X77406095Y-45462643D01*
X77147394Y-45590220D01*
X77147387Y-45590224D01*
X76907548Y-45750479D01*
X76690673Y-45940673D01*
X76500479Y-46157548D01*
X76340224Y-46397387D01*
X76340223Y-46397389D01*
X76292502Y-46494157D01*
X76245196Y-46545576D01*
X76177600Y-46563257D01*
X76111176Y-46541586D01*
X76067013Y-46487444D01*
X76057291Y-46438899D01*
X76063188Y-44681066D01*
X76083097Y-44614096D01*
X76136054Y-44568518D01*
X76205246Y-44558807D01*
X76256078Y-44578383D01*
X76271770Y-44588868D01*
X76271771Y-44588869D01*
X76330248Y-44600500D01*
X76330251Y-44600501D01*
X76330253Y-44600501D01*
X80169751Y-44600501D01*
X80169752Y-44600500D01*
X80184569Y-44597553D01*
X80228230Y-44588869D01*
X80228230Y-44588868D01*
X80228232Y-44588868D01*
X80294553Y-44544553D01*
X80338868Y-44478232D01*
X80338868Y-44478230D01*
X80338869Y-44478230D01*
X80350500Y-44419753D01*
X80350501Y-44419751D01*
X80350501Y-40580250D01*
X80350500Y-40580248D01*
X80338869Y-40521771D01*
X80338868Y-40521770D01*
X80294553Y-40455448D01*
X80228231Y-40411133D01*
X80228230Y-40411132D01*
X80169753Y-40399501D01*
X80169749Y-40399501D01*
X76330253Y-40399501D01*
X76330248Y-40399501D01*
X76271771Y-40411132D01*
X76271770Y-40411133D01*
X76205448Y-40455448D01*
X76161133Y-40521770D01*
X76161132Y-40521771D01*
X76149501Y-40580248D01*
X76149501Y-41425500D01*
X76129816Y-41492539D01*
X76077012Y-41538294D01*
X76025501Y-41549500D01*
X75121679Y-41549500D01*
X75121262Y-41549499D01*
X75027138Y-41549182D01*
X75020442Y-41549500D01*
X73974500Y-41549500D01*
X73907461Y-41529815D01*
X73861706Y-41477011D01*
X73850500Y-41425500D01*
X73850500Y-40580250D01*
X73850499Y-40580248D01*
X73838868Y-40521771D01*
X73838867Y-40521770D01*
X73794552Y-40455448D01*
X73728230Y-40411133D01*
X73728229Y-40411132D01*
X73669752Y-40399501D01*
X73669748Y-40399501D01*
X69830252Y-40399501D01*
X69830247Y-40399501D01*
X69771770Y-40411132D01*
X69771769Y-40411133D01*
X69705447Y-40455448D01*
X69661132Y-40521770D01*
X69661131Y-40521771D01*
X69649500Y-40580248D01*
X69649500Y-44419753D01*
X69661131Y-44478230D01*
X69661132Y-44478231D01*
X69705447Y-44544553D01*
X69771769Y-44588868D01*
X69771770Y-44588869D01*
X69830247Y-44600500D01*
X69830250Y-44600501D01*
X69830252Y-44600501D01*
X73669750Y-44600501D01*
X73669751Y-44600500D01*
X73684568Y-44597553D01*
X73728229Y-44588869D01*
X73728229Y-44588868D01*
X73728231Y-44588868D01*
X73794552Y-44544553D01*
X73838867Y-44478232D01*
X73838867Y-44478230D01*
X73838868Y-44478230D01*
X73850499Y-44419753D01*
X73850500Y-44419751D01*
X73850500Y-43574500D01*
X73870185Y-43507461D01*
X73922989Y-43461706D01*
X73974500Y-43450500D01*
X74041889Y-43450500D01*
X74108928Y-43470185D01*
X74154683Y-43522989D01*
X74165887Y-43574914D01*
X74149890Y-48343903D01*
X74122150Y-56613068D01*
X74107510Y-56671104D01*
X74095803Y-56693006D01*
X74035732Y-56891032D01*
X74026705Y-56982688D01*
X74010689Y-57032533D01*
X73678033Y-57608710D01*
X73627466Y-57656926D01*
X73558859Y-57670149D01*
X73493994Y-57644181D01*
X73482965Y-57634391D01*
X73090275Y-57241700D01*
X73090271Y-57241697D01*
X72934600Y-57137680D01*
X72934591Y-57137675D01*
X72833267Y-57095706D01*
X72833265Y-57095705D01*
X72761615Y-57066027D01*
X72761611Y-57066026D01*
X72761607Y-57066024D01*
X72669797Y-57047763D01*
X72577984Y-57029500D01*
X72577981Y-57029500D01*
X72577980Y-57029500D01*
X48248724Y-57029500D01*
X48061491Y-57029500D01*
X48061486Y-57029500D01*
X47877864Y-57066025D01*
X47877856Y-57066027D01*
X47704879Y-57137676D01*
X47704870Y-57137681D01*
X47549199Y-57241698D01*
X47549195Y-57241701D01*
X45656011Y-59134885D01*
X45594688Y-59168370D01*
X45525920Y-59163726D01*
X45393079Y-59115376D01*
X45393071Y-59115374D01*
X45363504Y-59107649D01*
X45363509Y-59107649D01*
X45227712Y-59105956D01*
X45097452Y-59144365D01*
X44984306Y-59219458D01*
X44984303Y-59219461D01*
X44898313Y-59324572D01*
X44898311Y-59324576D01*
X44885225Y-59352186D01*
X44885221Y-59352196D01*
X44437677Y-60581815D01*
X44437675Y-60581822D01*
X44429950Y-60611387D01*
X44428257Y-60747181D01*
X40857549Y-60747181D01*
X41297709Y-59731856D01*
X41299323Y-59728293D01*
X41815313Y-58637324D01*
X41817069Y-58633763D01*
X42368447Y-57560320D01*
X42370316Y-57556823D01*
X42956533Y-56501977D01*
X42958513Y-56498546D01*
X43578908Y-55463481D01*
X43581031Y-55460068D01*
X43802901Y-55115958D01*
X44234969Y-54445839D01*
X44237180Y-54442531D01*
X44923939Y-53450262D01*
X44926242Y-53447047D01*
X45645146Y-52477718D01*
X45647550Y-52474585D01*
X45779018Y-52308936D01*
X50288984Y-52308936D01*
X50316225Y-52441979D01*
X50316226Y-52441981D01*
X50381471Y-52561082D01*
X50381473Y-52561084D01*
X50402176Y-52583566D01*
X50402182Y-52583572D01*
X50741065Y-52888703D01*
X51597550Y-53659886D01*
X51622076Y-53678128D01*
X51747347Y-53730567D01*
X51882510Y-53743752D01*
X52015554Y-53716511D01*
X52134657Y-53651265D01*
X52157142Y-53630559D01*
X53032721Y-52658130D01*
X53050963Y-52633604D01*
X53103402Y-52508333D01*
X53116588Y-52373170D01*
X53089346Y-52240126D01*
X53024100Y-52121023D01*
X53003394Y-52098538D01*
X53003389Y-52098533D01*
X52367757Y-51526208D01*
X51808022Y-51022220D01*
X51783496Y-51003978D01*
X51691804Y-50965595D01*
X51658223Y-50951538D01*
X51537671Y-50939779D01*
X51523062Y-50938354D01*
X51523061Y-50938354D01*
X51390017Y-50965595D01*
X51270915Y-51030840D01*
X51270913Y-51030842D01*
X51248431Y-51051545D01*
X51248425Y-51051551D01*
X50372857Y-52023969D01*
X50372851Y-52023976D01*
X50359062Y-52042514D01*
X50354608Y-52048503D01*
X50302170Y-52173772D01*
X50302169Y-52173774D01*
X50288984Y-52308936D01*
X45779018Y-52308936D01*
X46397770Y-51529314D01*
X46400295Y-51526239D01*
X47181019Y-50606047D01*
X47183642Y-50603057D01*
X47994062Y-49708896D01*
X47996766Y-49706008D01*
X48836050Y-48838800D01*
X48838800Y-48836050D01*
X49706008Y-47996766D01*
X49708896Y-47994062D01*
X50603057Y-47183642D01*
X50606047Y-47181019D01*
X51526239Y-46400295D01*
X51529314Y-46397770D01*
X52474585Y-45647550D01*
X52477718Y-45645146D01*
X53447047Y-44926242D01*
X53450262Y-44923939D01*
X54442531Y-44237180D01*
X54445839Y-44234969D01*
X55460071Y-43581029D01*
X55463481Y-43578908D01*
X56498546Y-42958513D01*
X56501977Y-42956533D01*
X57556823Y-42370316D01*
X57560320Y-42368447D01*
X58633763Y-41817069D01*
X58637324Y-41815313D01*
X59728293Y-41299323D01*
X59731856Y-41297709D01*
X60839065Y-40817716D01*
X60842761Y-40816184D01*
X61965098Y-40372670D01*
X61968796Y-40371279D01*
X63105003Y-39964738D01*
X63108775Y-39963456D01*
X64257717Y-39594294D01*
X64261519Y-39593141D01*
X65421915Y-39261772D01*
X65425772Y-39260739D01*
X66596342Y-38967527D01*
X66600270Y-38966611D01*
X67779801Y-38711857D01*
X67783704Y-38711080D01*
X68971003Y-38495044D01*
X68974899Y-38494400D01*
X70168606Y-38317331D01*
X70172572Y-38316808D01*
X71371432Y-38178891D01*
X71375452Y-38178495D01*
X72578101Y-38079884D01*
X72582099Y-38079621D01*
X73787433Y-38020407D01*
X73791433Y-38020276D01*
X74997983Y-38000533D01*
X75002017Y-38000533D01*
X76208564Y-38020276D01*
G37*
%TD.AperFunction*%
%TD*%
M02*
