%TF.GenerationSoftware,KiCad,Pcbnew,8.0.1-rc1*%
%TF.CreationDate,2024-04-17T22:05:37-07:00*%
%TF.ProjectId,Toolhead Board Breakout,546f6f6c-6865-4616-9420-426f61726420,rev?*%
%TF.SameCoordinates,Original*%
%TF.FileFunction,Legend,Top*%
%TF.FilePolarity,Positive*%
%FSLAX46Y46*%
G04 Gerber Fmt 4.6, Leading zero omitted, Abs format (unit mm)*
G04 Created by KiCad (PCBNEW 8.0.1-rc1) date 2024-04-17 22:05:37*
%MOMM*%
%LPD*%
G01*
G04 APERTURE LIST*
%ADD10C,0.200000*%
%ADD11C,0.865245*%
%ADD12C,0.715067*%
%ADD13C,1.107766*%
%ADD14C,0.709962*%
%ADD15C,0.859955*%
%ADD16C,0.876510*%
%ADD17C,0.150000*%
%ADD18C,0.120000*%
G04 APERTURE END LIST*
D10*
X95079500Y-79519583D02*
X98935830Y-79604401D01*
X99566742Y-72102568D02*
X96740000Y-75600000D01*
D11*
X99999364Y-72102568D02*
G75*
G02*
X99134120Y-72102568I-432622J0D01*
G01*
X99134120Y-72102568D02*
G75*
G02*
X99999364Y-72102568I432622J0D01*
G01*
D12*
X99293363Y-79604401D02*
G75*
G02*
X98578297Y-79604401I-357533J0D01*
G01*
X98578297Y-79604401D02*
G75*
G02*
X99293363Y-79604401I357533J0D01*
G01*
D10*
X98935830Y-79604401D02*
X96740000Y-75600000D01*
X96953104Y-63428620D02*
X99566742Y-72102568D01*
D13*
X95633383Y-79519583D02*
G75*
G02*
X94525617Y-79519583I-553883J0D01*
G01*
X94525617Y-79519583D02*
G75*
G02*
X95633383Y-79519583I553883J0D01*
G01*
D10*
X96740000Y-75600000D02*
X95079500Y-79519583D01*
X86451841Y-101058827D02*
X86451841Y-109803311D01*
X96953104Y-63428620D02*
X93951124Y-66434455D01*
D14*
X97094981Y-75600000D02*
G75*
G02*
X96385019Y-75600000I-354981J0D01*
G01*
X96385019Y-75600000D02*
G75*
G02*
X97094981Y-75600000I354981J0D01*
G01*
D15*
X94381101Y-66434455D02*
G75*
G02*
X93521147Y-66434455I-429977J0D01*
G01*
X93521147Y-66434455D02*
G75*
G02*
X94381101Y-66434455I429977J0D01*
G01*
D10*
X96740000Y-75600000D02*
X93951124Y-66434455D01*
D16*
X97391359Y-63428620D02*
G75*
G02*
X96514849Y-63428620I-438255J0D01*
G01*
X96514849Y-63428620D02*
G75*
G02*
X97391359Y-63428620I438255J0D01*
G01*
D10*
X87752527Y-101834608D02*
X87800146Y-101745322D01*
X87800146Y-101745322D02*
X87800146Y-101602465D01*
X87800146Y-101602465D02*
X87752527Y-101453655D01*
X87752527Y-101453655D02*
X87657289Y-101346512D01*
X87657289Y-101346512D02*
X87562051Y-101286988D01*
X87562051Y-101286988D02*
X87371575Y-101215560D01*
X87371575Y-101215560D02*
X87228718Y-101197703D01*
X87228718Y-101197703D02*
X87038242Y-101221512D01*
X87038242Y-101221512D02*
X86943004Y-101257227D01*
X86943004Y-101257227D02*
X86847766Y-101340560D01*
X86847766Y-101340560D02*
X86800146Y-101477465D01*
X86800146Y-101477465D02*
X86800146Y-101572703D01*
X86800146Y-101572703D02*
X86847766Y-101721512D01*
X86847766Y-101721512D02*
X86895385Y-101775084D01*
X86895385Y-101775084D02*
X87228718Y-101816750D01*
X87228718Y-101816750D02*
X87228718Y-101626274D01*
X86800146Y-102191750D02*
X87800146Y-102316750D01*
X87800146Y-102316750D02*
X86800146Y-102763179D01*
X86800146Y-102763179D02*
X87800146Y-102888179D01*
X86800146Y-103239369D02*
X87800146Y-103364369D01*
X87800146Y-103364369D02*
X87800146Y-103602465D01*
X87800146Y-103602465D02*
X87752527Y-103739369D01*
X87752527Y-103739369D02*
X87657289Y-103822703D01*
X87657289Y-103822703D02*
X87562051Y-103858417D01*
X87562051Y-103858417D02*
X87371575Y-103882227D01*
X87371575Y-103882227D02*
X87228718Y-103864369D01*
X87228718Y-103864369D02*
X87038242Y-103792941D01*
X87038242Y-103792941D02*
X86943004Y-103733417D01*
X86943004Y-103733417D02*
X86847766Y-103626274D01*
X86847766Y-103626274D02*
X86800146Y-103477465D01*
X86800146Y-103477465D02*
X86800146Y-103239369D01*
X87800146Y-105602465D02*
X87800146Y-105126274D01*
X87800146Y-105126274D02*
X87323956Y-105019132D01*
X87323956Y-105019132D02*
X87371575Y-105072703D01*
X87371575Y-105072703D02*
X87419194Y-105173893D01*
X87419194Y-105173893D02*
X87419194Y-105411989D01*
X87419194Y-105411989D02*
X87371575Y-105501274D01*
X87371575Y-105501274D02*
X87323956Y-105542941D01*
X87323956Y-105542941D02*
X87228718Y-105578655D01*
X87228718Y-105578655D02*
X86990623Y-105548893D01*
X86990623Y-105548893D02*
X86895385Y-105489370D01*
X86895385Y-105489370D02*
X86847766Y-105435798D01*
X86847766Y-105435798D02*
X86800146Y-105334608D01*
X86800146Y-105334608D02*
X86800146Y-105096512D01*
X86800146Y-105096512D02*
X86847766Y-105007227D01*
X86847766Y-105007227D02*
X86895385Y-104965560D01*
X87800146Y-105935798D02*
X86800146Y-106144132D01*
X86800146Y-106144132D02*
X87800146Y-106602465D01*
X86847766Y-107531037D02*
X86800146Y-107667941D01*
X86800146Y-107667941D02*
X86800146Y-107906037D01*
X86800146Y-107906037D02*
X86847766Y-108007227D01*
X86847766Y-108007227D02*
X86895385Y-108060799D01*
X86895385Y-108060799D02*
X86990623Y-108120322D01*
X86990623Y-108120322D02*
X87085861Y-108132227D01*
X87085861Y-108132227D02*
X87181099Y-108096513D01*
X87181099Y-108096513D02*
X87228718Y-108054846D01*
X87228718Y-108054846D02*
X87276337Y-107965561D01*
X87276337Y-107965561D02*
X87323956Y-107781037D01*
X87323956Y-107781037D02*
X87371575Y-107691751D01*
X87371575Y-107691751D02*
X87419194Y-107650084D01*
X87419194Y-107650084D02*
X87514432Y-107614370D01*
X87514432Y-107614370D02*
X87609670Y-107626275D01*
X87609670Y-107626275D02*
X87704908Y-107685799D01*
X87704908Y-107685799D02*
X87752527Y-107739370D01*
X87752527Y-107739370D02*
X87800146Y-107840561D01*
X87800146Y-107840561D02*
X87800146Y-108078656D01*
X87800146Y-108078656D02*
X87752527Y-108215561D01*
X86800146Y-108525084D02*
X87800146Y-108650084D01*
X87752527Y-109644132D02*
X87800146Y-109554846D01*
X87800146Y-109554846D02*
X87800146Y-109411989D01*
X87800146Y-109411989D02*
X87752527Y-109263179D01*
X87752527Y-109263179D02*
X87657289Y-109156036D01*
X87657289Y-109156036D02*
X87562051Y-109096512D01*
X87562051Y-109096512D02*
X87371575Y-109025084D01*
X87371575Y-109025084D02*
X87228718Y-109007227D01*
X87228718Y-109007227D02*
X87038242Y-109031036D01*
X87038242Y-109031036D02*
X86943004Y-109066751D01*
X86943004Y-109066751D02*
X86847766Y-109150084D01*
X86847766Y-109150084D02*
X86800146Y-109286989D01*
X86800146Y-109286989D02*
X86800146Y-109382227D01*
X86800146Y-109382227D02*
X86847766Y-109531036D01*
X86847766Y-109531036D02*
X86895385Y-109584608D01*
X86895385Y-109584608D02*
X87228718Y-109626274D01*
X87228718Y-109626274D02*
X87228718Y-109435798D01*
X80738094Y-100819599D02*
X80874998Y-100867218D01*
X80874998Y-100867218D02*
X81113094Y-100867218D01*
X81113094Y-100867218D02*
X81214284Y-100819599D01*
X81214284Y-100819599D02*
X81267856Y-100771979D01*
X81267856Y-100771979D02*
X81327379Y-100676741D01*
X81327379Y-100676741D02*
X81339284Y-100581503D01*
X81339284Y-100581503D02*
X81303570Y-100486265D01*
X81303570Y-100486265D02*
X81261903Y-100438646D01*
X81261903Y-100438646D02*
X81172618Y-100391027D01*
X81172618Y-100391027D02*
X80988094Y-100343408D01*
X80988094Y-100343408D02*
X80898808Y-100295789D01*
X80898808Y-100295789D02*
X80857141Y-100248170D01*
X80857141Y-100248170D02*
X80821427Y-100152932D01*
X80821427Y-100152932D02*
X80833332Y-100057694D01*
X80833332Y-100057694D02*
X80892856Y-99962456D01*
X80892856Y-99962456D02*
X80946427Y-99914837D01*
X80946427Y-99914837D02*
X81047618Y-99867218D01*
X81047618Y-99867218D02*
X81285713Y-99867218D01*
X81285713Y-99867218D02*
X81422618Y-99914837D01*
X81797618Y-99962456D02*
X81851189Y-99914837D01*
X81851189Y-99914837D02*
X81952379Y-99867218D01*
X81952379Y-99867218D02*
X82190475Y-99867218D01*
X82190475Y-99867218D02*
X82279760Y-99914837D01*
X82279760Y-99914837D02*
X82321427Y-99962456D01*
X82321427Y-99962456D02*
X82357141Y-100057694D01*
X82357141Y-100057694D02*
X82345237Y-100152932D01*
X82345237Y-100152932D02*
X82279760Y-100295789D01*
X82279760Y-100295789D02*
X81636903Y-100867218D01*
X81636903Y-100867218D02*
X82255951Y-100867218D01*
X82537219Y-48172619D02*
X81537219Y-48047619D01*
X81537219Y-48047619D02*
X81537219Y-47666666D01*
X81537219Y-47666666D02*
X81584838Y-47577381D01*
X81584838Y-47577381D02*
X81632457Y-47535714D01*
X81632457Y-47535714D02*
X81727695Y-47500000D01*
X81727695Y-47500000D02*
X81870552Y-47517857D01*
X81870552Y-47517857D02*
X81965790Y-47577381D01*
X81965790Y-47577381D02*
X82013409Y-47630952D01*
X82013409Y-47630952D02*
X82061028Y-47732142D01*
X82061028Y-47732142D02*
X82061028Y-48113095D01*
X81537219Y-47142857D02*
X82537219Y-47029762D01*
X82537219Y-47029762D02*
X81822933Y-46750000D01*
X81822933Y-46750000D02*
X82537219Y-46648809D01*
X82537219Y-46648809D02*
X81537219Y-46285714D01*
X82537219Y-46029762D02*
X81537219Y-45904762D01*
X81537219Y-45904762D02*
X82251504Y-45660714D01*
X82251504Y-45660714D02*
X81537219Y-45238095D01*
X81537219Y-45238095D02*
X82537219Y-45363095D01*
X81632457Y-44059523D02*
X81584838Y-44005952D01*
X81584838Y-44005952D02*
X81537219Y-43904762D01*
X81537219Y-43904762D02*
X81537219Y-43666666D01*
X81537219Y-43666666D02*
X81584838Y-43577381D01*
X81584838Y-43577381D02*
X81632457Y-43535714D01*
X81632457Y-43535714D02*
X81727695Y-43500000D01*
X81727695Y-43500000D02*
X81822933Y-43511904D01*
X81822933Y-43511904D02*
X81965790Y-43577381D01*
X81965790Y-43577381D02*
X82537219Y-44220238D01*
X82537219Y-44220238D02*
X82537219Y-43601190D01*
X81870552Y-42660714D02*
X82537219Y-42744047D01*
X81489600Y-42851190D02*
X82203885Y-43178571D01*
X82203885Y-43178571D02*
X82203885Y-42559523D01*
X81537219Y-42238095D02*
X82537219Y-42029761D01*
X82537219Y-42029761D02*
X81537219Y-41571428D01*
X84147163Y-45767857D02*
X83147163Y-45642857D01*
X83623353Y-45702380D02*
X83623353Y-45130952D01*
X84147163Y-45196428D02*
X83147163Y-45071428D01*
X83147163Y-44404761D02*
X83147163Y-44309523D01*
X83147163Y-44309523D02*
X83194782Y-44220238D01*
X83194782Y-44220238D02*
X83242401Y-44178571D01*
X83242401Y-44178571D02*
X83337639Y-44142857D01*
X83337639Y-44142857D02*
X83528115Y-44119047D01*
X83528115Y-44119047D02*
X83766210Y-44148809D01*
X83766210Y-44148809D02*
X83956686Y-44220238D01*
X83956686Y-44220238D02*
X84051924Y-44279761D01*
X84051924Y-44279761D02*
X84099544Y-44333333D01*
X84099544Y-44333333D02*
X84147163Y-44434523D01*
X84147163Y-44434523D02*
X84147163Y-44529761D01*
X84147163Y-44529761D02*
X84099544Y-44619047D01*
X84099544Y-44619047D02*
X84051924Y-44660714D01*
X84051924Y-44660714D02*
X83956686Y-44696428D01*
X83956686Y-44696428D02*
X83766210Y-44720238D01*
X83766210Y-44720238D02*
X83528115Y-44690476D01*
X83528115Y-44690476D02*
X83337639Y-44619047D01*
X83337639Y-44619047D02*
X83242401Y-44559523D01*
X83242401Y-44559523D02*
X83194782Y-44505952D01*
X83194782Y-44505952D02*
X83147163Y-44404761D01*
X68367542Y-42011905D02*
X68415161Y-42065476D01*
X68415161Y-42065476D02*
X68462780Y-42166666D01*
X68462780Y-42166666D02*
X68462780Y-42404762D01*
X68462780Y-42404762D02*
X68415161Y-42494047D01*
X68415161Y-42494047D02*
X68367542Y-42535714D01*
X68367542Y-42535714D02*
X68272304Y-42571428D01*
X68272304Y-42571428D02*
X68177066Y-42559524D01*
X68177066Y-42559524D02*
X68034209Y-42494047D01*
X68034209Y-42494047D02*
X67462780Y-41851190D01*
X67462780Y-41851190D02*
X67462780Y-42470238D01*
X68129447Y-43410714D02*
X67462780Y-43327381D01*
X68510400Y-43220238D02*
X67796114Y-42892857D01*
X67796114Y-42892857D02*
X67796114Y-43511905D01*
X68462780Y-43833333D02*
X67462780Y-44041667D01*
X67462780Y-44041667D02*
X68462780Y-44500000D01*
X68415161Y-46113096D02*
X68462780Y-46023810D01*
X68462780Y-46023810D02*
X68462780Y-45880953D01*
X68462780Y-45880953D02*
X68415161Y-45732143D01*
X68415161Y-45732143D02*
X68319923Y-45625000D01*
X68319923Y-45625000D02*
X68224685Y-45565476D01*
X68224685Y-45565476D02*
X68034209Y-45494048D01*
X68034209Y-45494048D02*
X67891352Y-45476191D01*
X67891352Y-45476191D02*
X67700876Y-45500000D01*
X67700876Y-45500000D02*
X67605638Y-45535715D01*
X67605638Y-45535715D02*
X67510400Y-45619048D01*
X67510400Y-45619048D02*
X67462780Y-45755953D01*
X67462780Y-45755953D02*
X67462780Y-45851191D01*
X67462780Y-45851191D02*
X67510400Y-46000000D01*
X67510400Y-46000000D02*
X67558019Y-46053572D01*
X67558019Y-46053572D02*
X67891352Y-46095238D01*
X67891352Y-46095238D02*
X67891352Y-45904762D01*
X67462780Y-46470238D02*
X68462780Y-46595238D01*
X68462780Y-46595238D02*
X67462780Y-47041667D01*
X67462780Y-47041667D02*
X68462780Y-47166667D01*
X67462780Y-47517857D02*
X68462780Y-47642857D01*
X68462780Y-47642857D02*
X68462780Y-47880953D01*
X68462780Y-47880953D02*
X68415161Y-48017857D01*
X68415161Y-48017857D02*
X68319923Y-48101191D01*
X68319923Y-48101191D02*
X68224685Y-48136905D01*
X68224685Y-48136905D02*
X68034209Y-48160715D01*
X68034209Y-48160715D02*
X67891352Y-48142857D01*
X67891352Y-48142857D02*
X67700876Y-48071429D01*
X67700876Y-48071429D02*
X67605638Y-48011905D01*
X67605638Y-48011905D02*
X67510400Y-47904762D01*
X67510400Y-47904762D02*
X67462780Y-47755953D01*
X67462780Y-47755953D02*
X67462780Y-47517857D01*
X65852836Y-43660714D02*
X66852836Y-43785714D01*
X66852836Y-43785714D02*
X66852836Y-44166667D01*
X66852836Y-44166667D02*
X66805217Y-44255952D01*
X66805217Y-44255952D02*
X66757598Y-44297619D01*
X66757598Y-44297619D02*
X66662360Y-44333333D01*
X66662360Y-44333333D02*
X66519503Y-44315476D01*
X66519503Y-44315476D02*
X66424265Y-44255952D01*
X66424265Y-44255952D02*
X66376646Y-44202381D01*
X66376646Y-44202381D02*
X66329027Y-44101191D01*
X66329027Y-44101191D02*
X66329027Y-43720238D01*
X66852836Y-44690476D02*
X65852836Y-44803572D01*
X65852836Y-44803572D02*
X66567122Y-45083333D01*
X66567122Y-45083333D02*
X65852836Y-45184524D01*
X65852836Y-45184524D02*
X66852836Y-45547619D01*
X65852836Y-46375000D02*
X66329027Y-46101190D01*
X65852836Y-45803571D02*
X66852836Y-45928571D01*
X66852836Y-45928571D02*
X66852836Y-46309524D01*
X66852836Y-46309524D02*
X66805217Y-46398809D01*
X66805217Y-46398809D02*
X66757598Y-46440476D01*
X66757598Y-46440476D02*
X66662360Y-46476190D01*
X66662360Y-46476190D02*
X66519503Y-46458333D01*
X66519503Y-46458333D02*
X66424265Y-46398809D01*
X66424265Y-46398809D02*
X66376646Y-46345238D01*
X66376646Y-46345238D02*
X66329027Y-46244048D01*
X66329027Y-46244048D02*
X66329027Y-45863095D01*
X103132055Y-68029315D02*
X103129979Y-67884380D01*
X103129979Y-67884380D02*
X103048545Y-67660644D01*
X103048545Y-67660644D02*
X102969189Y-67581842D01*
X102969189Y-67581842D02*
X102906119Y-67547788D01*
X102906119Y-67547788D02*
X102796266Y-67524428D01*
X102796266Y-67524428D02*
X102702700Y-67545814D01*
X102702700Y-67545814D02*
X102625420Y-67611948D01*
X102625420Y-67611948D02*
X102594924Y-67667388D01*
X102594924Y-67667388D02*
X102580714Y-67767576D01*
X102580714Y-67767576D02*
X102599078Y-67957259D01*
X102599078Y-67957259D02*
X102584868Y-68057446D01*
X102584868Y-68057446D02*
X102554372Y-68112887D01*
X102554372Y-68112887D02*
X102477092Y-68179021D01*
X102477092Y-68179021D02*
X102383526Y-68200407D01*
X102383526Y-68200407D02*
X102273673Y-68177046D01*
X102273673Y-68177046D02*
X102210603Y-68142992D01*
X102210603Y-68142992D02*
X102131247Y-68064191D01*
X102131247Y-68064191D02*
X102049813Y-67840455D01*
X102049813Y-67840455D02*
X102047736Y-67695520D01*
X101903233Y-67437729D02*
X101707793Y-66900762D01*
X102787958Y-66944687D02*
X101805513Y-67169246D01*
X102061617Y-66480598D02*
X101947611Y-66167368D01*
X102413365Y-65915500D02*
X102576232Y-66362972D01*
X102576232Y-66362972D02*
X101593786Y-66587531D01*
X101593786Y-66587531D02*
X101430920Y-66140058D01*
X102266785Y-65512774D02*
X101284340Y-65737333D01*
X101284340Y-65737333D02*
X101154046Y-65379355D01*
X101154046Y-65379355D02*
X101168256Y-65279167D01*
X101168256Y-65279167D02*
X101198752Y-65223726D01*
X101198752Y-65223726D02*
X101276032Y-65157593D01*
X101276032Y-65157593D02*
X101416381Y-65125513D01*
X101416381Y-65125513D02*
X101526234Y-65148874D01*
X101526234Y-65148874D02*
X101589304Y-65182928D01*
X101589304Y-65182928D02*
X101668660Y-65261729D01*
X101668660Y-65261729D02*
X101798954Y-65619707D01*
X101924765Y-64573082D02*
X100942319Y-64797640D01*
X100942319Y-64797640D02*
X100812026Y-64439662D01*
X100812026Y-64439662D02*
X100826236Y-64339474D01*
X100826236Y-64339474D02*
X100856732Y-64284034D01*
X100856732Y-64284034D02*
X100934012Y-64217900D01*
X100934012Y-64217900D02*
X101074361Y-64185820D01*
X101074361Y-64185820D02*
X101184214Y-64209181D01*
X101184214Y-64209181D02*
X101247284Y-64243235D01*
X101247284Y-64243235D02*
X101326640Y-64322036D01*
X101326640Y-64322036D02*
X101456934Y-64680014D01*
X101068130Y-63751015D02*
X100954124Y-63437784D01*
X101419878Y-63185916D02*
X101582744Y-63633389D01*
X101582744Y-63633389D02*
X100600299Y-63857948D01*
X100600299Y-63857948D02*
X100437433Y-63410475D01*
X101077858Y-62246224D02*
X100724033Y-62666387D01*
X101273298Y-62783191D02*
X100290852Y-63007749D01*
X100290852Y-63007749D02*
X100160559Y-62649771D01*
X100160559Y-62649771D02*
X100174769Y-62549584D01*
X100174769Y-62549584D02*
X100205265Y-62494143D01*
X100205265Y-62494143D02*
X100282545Y-62428009D01*
X100282545Y-62428009D02*
X100422894Y-62395929D01*
X100422894Y-62395929D02*
X100532747Y-62419290D01*
X100532747Y-62419290D02*
X100595817Y-62453344D01*
X100595817Y-62453344D02*
X100675173Y-62532145D01*
X100675173Y-62532145D02*
X100805467Y-62890124D01*
X64738095Y-100819599D02*
X64874999Y-100867218D01*
X64874999Y-100867218D02*
X65113095Y-100867218D01*
X65113095Y-100867218D02*
X65214285Y-100819599D01*
X65214285Y-100819599D02*
X65267857Y-100771979D01*
X65267857Y-100771979D02*
X65327380Y-100676741D01*
X65327380Y-100676741D02*
X65339285Y-100581503D01*
X65339285Y-100581503D02*
X65303571Y-100486265D01*
X65303571Y-100486265D02*
X65261904Y-100438646D01*
X65261904Y-100438646D02*
X65172619Y-100391027D01*
X65172619Y-100391027D02*
X64988095Y-100343408D01*
X64988095Y-100343408D02*
X64898809Y-100295789D01*
X64898809Y-100295789D02*
X64857142Y-100248170D01*
X64857142Y-100248170D02*
X64821428Y-100152932D01*
X64821428Y-100152932D02*
X64833333Y-100057694D01*
X64833333Y-100057694D02*
X64892857Y-99962456D01*
X64892857Y-99962456D02*
X64946428Y-99914837D01*
X64946428Y-99914837D02*
X65047619Y-99867218D01*
X65047619Y-99867218D02*
X65285714Y-99867218D01*
X65285714Y-99867218D02*
X65422619Y-99914837D01*
X66285714Y-99867218D02*
X66095238Y-99867218D01*
X66095238Y-99867218D02*
X65994047Y-99914837D01*
X65994047Y-99914837D02*
X65940476Y-99962456D01*
X65940476Y-99962456D02*
X65827380Y-100105313D01*
X65827380Y-100105313D02*
X65755952Y-100295789D01*
X65755952Y-100295789D02*
X65708333Y-100676741D01*
X65708333Y-100676741D02*
X65744047Y-100771979D01*
X65744047Y-100771979D02*
X65785714Y-100819599D01*
X65785714Y-100819599D02*
X65875000Y-100867218D01*
X65875000Y-100867218D02*
X66065476Y-100867218D01*
X66065476Y-100867218D02*
X66166666Y-100819599D01*
X66166666Y-100819599D02*
X66220238Y-100771979D01*
X66220238Y-100771979D02*
X66279761Y-100676741D01*
X66279761Y-100676741D02*
X66309523Y-100438646D01*
X66309523Y-100438646D02*
X66273809Y-100343408D01*
X66273809Y-100343408D02*
X66232142Y-100295789D01*
X66232142Y-100295789D02*
X66142857Y-100248170D01*
X66142857Y-100248170D02*
X65952380Y-100248170D01*
X65952380Y-100248170D02*
X65851190Y-100295789D01*
X65851190Y-100295789D02*
X65797619Y-100343408D01*
X65797619Y-100343408D02*
X65738095Y-100438646D01*
X51927938Y-73885406D02*
X51791033Y-73837789D01*
X51791033Y-73837789D02*
X51552937Y-73837794D01*
X51552937Y-73837794D02*
X51451748Y-73885414D01*
X51451748Y-73885414D02*
X51398177Y-73933034D01*
X51398177Y-73933034D02*
X51338655Y-74028274D01*
X51338655Y-74028274D02*
X51326752Y-74123512D01*
X51326752Y-74123512D02*
X51362468Y-74218749D01*
X51362468Y-74218749D02*
X51404135Y-74266368D01*
X51404135Y-74266368D02*
X51493422Y-74313985D01*
X51493422Y-74313985D02*
X51677947Y-74361601D01*
X51677947Y-74361601D02*
X51767233Y-74409218D01*
X51767233Y-74409218D02*
X51808901Y-74456837D01*
X51808901Y-74456837D02*
X51844617Y-74552074D01*
X51844617Y-74552074D02*
X51832713Y-74647313D01*
X51832713Y-74647313D02*
X51773191Y-74742552D01*
X51773191Y-74742552D02*
X51719621Y-74790172D01*
X51719621Y-74790172D02*
X51618431Y-74837792D01*
X51618431Y-74837792D02*
X51380336Y-74837797D01*
X51380336Y-74837797D02*
X51243430Y-74790180D01*
X50933890Y-73837804D02*
X50808907Y-74837807D01*
X50808907Y-74837807D02*
X50570812Y-74837811D01*
X50570812Y-74837811D02*
X50433906Y-74790194D01*
X50433906Y-74790194D02*
X50350571Y-74694957D01*
X50350571Y-74694957D02*
X50314855Y-74599720D01*
X50314855Y-74599720D02*
X50291043Y-74409244D01*
X50291043Y-74409244D02*
X50308897Y-74266387D01*
X50308897Y-74266387D02*
X50380322Y-74075909D01*
X50380322Y-74075909D02*
X50439845Y-73980670D01*
X50439845Y-73980670D02*
X50546986Y-73885430D01*
X50546986Y-73885430D02*
X50695795Y-73837809D01*
X50695795Y-73837809D02*
X50933890Y-73837804D01*
X49945799Y-74123536D02*
X49469609Y-74123544D01*
X50076747Y-73837819D02*
X49618431Y-74837827D01*
X49618431Y-74837827D02*
X49410080Y-73837831D01*
X72325765Y-99026492D02*
X72462669Y-99074111D01*
X72462669Y-99074111D02*
X72700765Y-99074111D01*
X72700765Y-99074111D02*
X72801955Y-99026492D01*
X72801955Y-99026492D02*
X72855527Y-98978872D01*
X72855527Y-98978872D02*
X72915050Y-98883634D01*
X72915050Y-98883634D02*
X72926955Y-98788396D01*
X72926955Y-98788396D02*
X72891241Y-98693158D01*
X72891241Y-98693158D02*
X72849574Y-98645539D01*
X72849574Y-98645539D02*
X72760289Y-98597920D01*
X72760289Y-98597920D02*
X72575765Y-98550301D01*
X72575765Y-98550301D02*
X72486479Y-98502682D01*
X72486479Y-98502682D02*
X72444812Y-98455063D01*
X72444812Y-98455063D02*
X72409098Y-98359825D01*
X72409098Y-98359825D02*
X72421003Y-98264587D01*
X72421003Y-98264587D02*
X72480527Y-98169349D01*
X72480527Y-98169349D02*
X72534098Y-98121730D01*
X72534098Y-98121730D02*
X72635289Y-98074111D01*
X72635289Y-98074111D02*
X72873384Y-98074111D01*
X72873384Y-98074111D02*
X73010289Y-98121730D01*
X73385289Y-98550301D02*
X73718622Y-98550301D01*
X73796003Y-99074111D02*
X73319812Y-99074111D01*
X73319812Y-99074111D02*
X73444812Y-98074111D01*
X73444812Y-98074111D02*
X73921003Y-98074111D01*
X74796003Y-99074111D02*
X74522193Y-98597920D01*
X74224574Y-99074111D02*
X74349574Y-98074111D01*
X74349574Y-98074111D02*
X74730527Y-98074111D01*
X74730527Y-98074111D02*
X74819812Y-98121730D01*
X74819812Y-98121730D02*
X74861479Y-98169349D01*
X74861479Y-98169349D02*
X74897193Y-98264587D01*
X74897193Y-98264587D02*
X74879336Y-98407444D01*
X74879336Y-98407444D02*
X74819812Y-98502682D01*
X74819812Y-98502682D02*
X74766241Y-98550301D01*
X74766241Y-98550301D02*
X74665051Y-98597920D01*
X74665051Y-98597920D02*
X74284098Y-98597920D01*
X75206717Y-98074111D02*
X75415051Y-99074111D01*
X75415051Y-99074111D02*
X75873384Y-98074111D01*
X76397194Y-98074111D02*
X76587670Y-98074111D01*
X76587670Y-98074111D02*
X76676955Y-98121730D01*
X76676955Y-98121730D02*
X76760289Y-98216968D01*
X76760289Y-98216968D02*
X76784098Y-98407444D01*
X76784098Y-98407444D02*
X76742432Y-98740777D01*
X76742432Y-98740777D02*
X76671003Y-98931253D01*
X76671003Y-98931253D02*
X76563860Y-99026492D01*
X76563860Y-99026492D02*
X76462670Y-99074111D01*
X76462670Y-99074111D02*
X76272194Y-99074111D01*
X76272194Y-99074111D02*
X76182908Y-99026492D01*
X76182908Y-99026492D02*
X76099575Y-98931253D01*
X76099575Y-98931253D02*
X76075765Y-98740777D01*
X76075765Y-98740777D02*
X76117432Y-98407444D01*
X76117432Y-98407444D02*
X76188860Y-98216968D01*
X76188860Y-98216968D02*
X76296003Y-98121730D01*
X76296003Y-98121730D02*
X76397194Y-98074111D01*
X77087670Y-99026492D02*
X77224574Y-99074111D01*
X77224574Y-99074111D02*
X77462670Y-99074111D01*
X77462670Y-99074111D02*
X77563860Y-99026492D01*
X77563860Y-99026492D02*
X77617432Y-98978872D01*
X77617432Y-98978872D02*
X77676955Y-98883634D01*
X77676955Y-98883634D02*
X77688860Y-98788396D01*
X77688860Y-98788396D02*
X77653146Y-98693158D01*
X77653146Y-98693158D02*
X77611479Y-98645539D01*
X77611479Y-98645539D02*
X77522194Y-98597920D01*
X77522194Y-98597920D02*
X77337670Y-98550301D01*
X77337670Y-98550301D02*
X77248384Y-98502682D01*
X77248384Y-98502682D02*
X77206717Y-98455063D01*
X77206717Y-98455063D02*
X77171003Y-98359825D01*
X77171003Y-98359825D02*
X77182908Y-98264587D01*
X77182908Y-98264587D02*
X77242432Y-98169349D01*
X77242432Y-98169349D02*
X77296003Y-98121730D01*
X77296003Y-98121730D02*
X77397194Y-98074111D01*
X77397194Y-98074111D02*
X77635289Y-98074111D01*
X77635289Y-98074111D02*
X77772194Y-98121730D01*
X51202780Y-80400713D02*
X52202780Y-80525713D01*
X51726590Y-80466190D02*
X51726590Y-81037618D01*
X51202780Y-80972142D02*
X52202780Y-81097142D01*
X51202780Y-84210238D02*
X51202780Y-83734047D01*
X51202780Y-83734047D02*
X52202780Y-83859047D01*
X49688075Y-81603095D02*
X49640456Y-81549523D01*
X49640456Y-81549523D02*
X49592836Y-81400714D01*
X49592836Y-81400714D02*
X49592836Y-81305476D01*
X49592836Y-81305476D02*
X49640456Y-81168571D01*
X49640456Y-81168571D02*
X49735694Y-81085238D01*
X49735694Y-81085238D02*
X49830932Y-81049523D01*
X49830932Y-81049523D02*
X50021408Y-81025714D01*
X50021408Y-81025714D02*
X50164265Y-81043571D01*
X50164265Y-81043571D02*
X50354741Y-81114999D01*
X50354741Y-81114999D02*
X50449979Y-81174523D01*
X50449979Y-81174523D02*
X50545217Y-81281666D01*
X50545217Y-81281666D02*
X50592836Y-81430476D01*
X50592836Y-81430476D02*
X50592836Y-81525714D01*
X50592836Y-81525714D02*
X50545217Y-81662619D01*
X50545217Y-81662619D02*
X50497598Y-81704285D01*
X49878551Y-82007857D02*
X49878551Y-82484047D01*
X49592836Y-81876904D02*
X50592836Y-82335238D01*
X50592836Y-82335238D02*
X49592836Y-82543571D01*
X49592836Y-82876904D02*
X50592836Y-83001904D01*
X50592836Y-83001904D02*
X49592836Y-83448333D01*
X49592836Y-83448333D02*
X50592836Y-83573333D01*
X67738095Y-100819599D02*
X67874999Y-100867218D01*
X67874999Y-100867218D02*
X68113095Y-100867218D01*
X68113095Y-100867218D02*
X68214285Y-100819599D01*
X68214285Y-100819599D02*
X68267857Y-100771979D01*
X68267857Y-100771979D02*
X68327380Y-100676741D01*
X68327380Y-100676741D02*
X68339285Y-100581503D01*
X68339285Y-100581503D02*
X68303571Y-100486265D01*
X68303571Y-100486265D02*
X68261904Y-100438646D01*
X68261904Y-100438646D02*
X68172619Y-100391027D01*
X68172619Y-100391027D02*
X67988095Y-100343408D01*
X67988095Y-100343408D02*
X67898809Y-100295789D01*
X67898809Y-100295789D02*
X67857142Y-100248170D01*
X67857142Y-100248170D02*
X67821428Y-100152932D01*
X67821428Y-100152932D02*
X67833333Y-100057694D01*
X67833333Y-100057694D02*
X67892857Y-99962456D01*
X67892857Y-99962456D02*
X67946428Y-99914837D01*
X67946428Y-99914837D02*
X68047619Y-99867218D01*
X68047619Y-99867218D02*
X68285714Y-99867218D01*
X68285714Y-99867218D02*
X68422619Y-99914837D01*
X69333333Y-99867218D02*
X68857142Y-99867218D01*
X68857142Y-99867218D02*
X68750000Y-100343408D01*
X68750000Y-100343408D02*
X68803571Y-100295789D01*
X68803571Y-100295789D02*
X68904761Y-100248170D01*
X68904761Y-100248170D02*
X69142857Y-100248170D01*
X69142857Y-100248170D02*
X69232142Y-100295789D01*
X69232142Y-100295789D02*
X69273809Y-100343408D01*
X69273809Y-100343408D02*
X69309523Y-100438646D01*
X69309523Y-100438646D02*
X69279761Y-100676741D01*
X69279761Y-100676741D02*
X69220238Y-100771979D01*
X69220238Y-100771979D02*
X69166666Y-100819599D01*
X69166666Y-100819599D02*
X69065476Y-100867218D01*
X69065476Y-100867218D02*
X68827380Y-100867218D01*
X68827380Y-100867218D02*
X68738095Y-100819599D01*
X68738095Y-100819599D02*
X68696428Y-100771979D01*
X51856526Y-76837788D02*
X51237479Y-76837799D01*
X51237479Y-76837799D02*
X51618424Y-76456840D01*
X51618424Y-76456840D02*
X51475567Y-76456843D01*
X51475567Y-76456843D02*
X51386281Y-76409225D01*
X51386281Y-76409225D02*
X51344613Y-76361607D01*
X51344613Y-76361607D02*
X51308897Y-76266369D01*
X51308897Y-76266369D02*
X51338655Y-76028274D01*
X51338655Y-76028274D02*
X51398177Y-75933034D01*
X51398177Y-75933034D02*
X51451748Y-75885414D01*
X51451748Y-75885414D02*
X51552937Y-75837794D01*
X51552937Y-75837794D02*
X51838652Y-75837789D01*
X51838652Y-75837789D02*
X51927938Y-75885406D01*
X51927938Y-75885406D02*
X51969606Y-75933024D01*
X50951764Y-76837804D02*
X50743414Y-75837808D01*
X50743414Y-75837808D02*
X50285098Y-76837816D01*
X50047002Y-76837820D02*
X49427955Y-76837831D01*
X49427955Y-76837831D02*
X49808900Y-76456872D01*
X49808900Y-76456872D02*
X49666043Y-76456874D01*
X49666043Y-76456874D02*
X49576757Y-76409257D01*
X49576757Y-76409257D02*
X49535089Y-76361638D01*
X49535089Y-76361638D02*
X49499373Y-76266401D01*
X49499373Y-76266401D02*
X49529131Y-76028305D01*
X49529131Y-76028305D02*
X49588653Y-75933066D01*
X49588653Y-75933066D02*
X49642224Y-75885446D01*
X49642224Y-75885446D02*
X49743413Y-75837825D01*
X49743413Y-75837825D02*
X50029128Y-75837820D01*
X50029128Y-75837820D02*
X50118414Y-75885438D01*
X50118414Y-75885438D02*
X50160082Y-75933056D01*
X72738095Y-100819599D02*
X72874999Y-100867218D01*
X72874999Y-100867218D02*
X73113095Y-100867218D01*
X73113095Y-100867218D02*
X73214285Y-100819599D01*
X73214285Y-100819599D02*
X73267857Y-100771979D01*
X73267857Y-100771979D02*
X73327380Y-100676741D01*
X73327380Y-100676741D02*
X73339285Y-100581503D01*
X73339285Y-100581503D02*
X73303571Y-100486265D01*
X73303571Y-100486265D02*
X73261904Y-100438646D01*
X73261904Y-100438646D02*
X73172619Y-100391027D01*
X73172619Y-100391027D02*
X72988095Y-100343408D01*
X72988095Y-100343408D02*
X72898809Y-100295789D01*
X72898809Y-100295789D02*
X72857142Y-100248170D01*
X72857142Y-100248170D02*
X72821428Y-100152932D01*
X72821428Y-100152932D02*
X72833333Y-100057694D01*
X72833333Y-100057694D02*
X72892857Y-99962456D01*
X72892857Y-99962456D02*
X72946428Y-99914837D01*
X72946428Y-99914837D02*
X73047619Y-99867218D01*
X73047619Y-99867218D02*
X73285714Y-99867218D01*
X73285714Y-99867218D02*
X73422619Y-99914837D01*
X74244047Y-100200551D02*
X74160714Y-100867218D01*
X74053571Y-99819599D02*
X73726190Y-100533884D01*
X73726190Y-100533884D02*
X74345238Y-100533884D01*
X51243430Y-70790179D02*
X51332717Y-70837796D01*
X51332717Y-70837796D02*
X51475574Y-70837794D01*
X51475574Y-70837794D02*
X51624383Y-70790172D01*
X51624383Y-70790172D02*
X51731524Y-70694932D01*
X51731524Y-70694932D02*
X51791046Y-70599693D01*
X51791046Y-70599693D02*
X51862471Y-70409216D01*
X51862471Y-70409216D02*
X51880326Y-70266358D01*
X51880326Y-70266358D02*
X51856513Y-70075883D01*
X51856513Y-70075883D02*
X51820797Y-69980645D01*
X51820797Y-69980645D02*
X51737462Y-69885408D01*
X51737462Y-69885408D02*
X51600556Y-69837792D01*
X51600556Y-69837792D02*
X51505318Y-69837793D01*
X51505318Y-69837793D02*
X51356510Y-69885415D01*
X51356510Y-69885415D02*
X51302939Y-69933035D01*
X51302939Y-69933035D02*
X51261278Y-70266369D01*
X51261278Y-70266369D02*
X51451754Y-70266366D01*
X50886271Y-69837804D02*
X50761288Y-70837806D01*
X50761288Y-70837806D02*
X50314842Y-69837814D01*
X50314842Y-69837814D02*
X50189860Y-70837816D01*
X49838652Y-69837823D02*
X49713669Y-70837825D01*
X49713669Y-70837825D02*
X49475574Y-70837829D01*
X49475574Y-70837829D02*
X49338668Y-70790212D01*
X49338668Y-70790212D02*
X49255333Y-70694976D01*
X49255333Y-70694976D02*
X49219617Y-70599738D01*
X49219617Y-70599738D02*
X49195805Y-70409262D01*
X49195805Y-70409262D02*
X49213659Y-70266405D01*
X49213659Y-70266405D02*
X49285084Y-70075927D01*
X49285084Y-70075927D02*
X49344607Y-69980688D01*
X49344607Y-69980688D02*
X49451748Y-69885448D01*
X49451748Y-69885448D02*
X49600557Y-69837827D01*
X49600557Y-69837827D02*
X49838652Y-69837823D01*
X48417236Y-74272145D02*
X47417234Y-74147162D01*
X47512464Y-73730495D02*
X47464844Y-73676924D01*
X47464844Y-73676924D02*
X47417224Y-73575734D01*
X47417224Y-73575734D02*
X47417219Y-73337639D01*
X47417219Y-73337639D02*
X47464837Y-73248353D01*
X47464837Y-73248353D02*
X47512455Y-73206685D01*
X47512455Y-73206685D02*
X47607693Y-73170969D01*
X47607693Y-73170969D02*
X47702931Y-73182872D01*
X47702931Y-73182872D02*
X47845789Y-73248346D01*
X47845789Y-73248346D02*
X48417229Y-73891193D01*
X48417229Y-73891193D02*
X48417218Y-73272145D01*
X48321962Y-72260242D02*
X48369582Y-72313813D01*
X48369582Y-72313813D02*
X48417204Y-72462622D01*
X48417204Y-72462622D02*
X48417206Y-72557860D01*
X48417206Y-72557860D02*
X48369589Y-72694765D01*
X48369589Y-72694765D02*
X48274352Y-72778100D01*
X48274352Y-72778100D02*
X48179115Y-72813816D01*
X48179115Y-72813816D02*
X47988639Y-72837629D01*
X47988639Y-72837629D02*
X47845782Y-72819774D01*
X47845782Y-72819774D02*
X47655304Y-72748349D01*
X47655304Y-72748349D02*
X47560065Y-72688827D01*
X47560065Y-72688827D02*
X47464825Y-72581686D01*
X47464825Y-72581686D02*
X47417204Y-72432877D01*
X47417204Y-72432877D02*
X47417202Y-72337639D01*
X47417202Y-72337639D02*
X47464819Y-72200733D01*
X47464819Y-72200733D02*
X47512437Y-72159066D01*
X75738094Y-100819600D02*
X75874998Y-100867219D01*
X75874998Y-100867219D02*
X76113094Y-100867219D01*
X76113094Y-100867219D02*
X76214284Y-100819600D01*
X76214284Y-100819600D02*
X76267856Y-100771980D01*
X76267856Y-100771980D02*
X76327379Y-100676742D01*
X76327379Y-100676742D02*
X76339284Y-100581504D01*
X76339284Y-100581504D02*
X76303570Y-100486266D01*
X76303570Y-100486266D02*
X76261903Y-100438647D01*
X76261903Y-100438647D02*
X76172618Y-100391028D01*
X76172618Y-100391028D02*
X75988094Y-100343409D01*
X75988094Y-100343409D02*
X75898808Y-100295790D01*
X75898808Y-100295790D02*
X75857141Y-100248171D01*
X75857141Y-100248171D02*
X75821427Y-100152933D01*
X75821427Y-100152933D02*
X75833332Y-100057695D01*
X75833332Y-100057695D02*
X75892856Y-99962457D01*
X75892856Y-99962457D02*
X75946427Y-99914838D01*
X75946427Y-99914838D02*
X76047618Y-99867219D01*
X76047618Y-99867219D02*
X76285713Y-99867219D01*
X76285713Y-99867219D02*
X76422618Y-99914838D01*
X76761903Y-99867219D02*
X77380951Y-99867219D01*
X77380951Y-99867219D02*
X76999999Y-100248171D01*
X76999999Y-100248171D02*
X77142856Y-100248171D01*
X77142856Y-100248171D02*
X77232141Y-100295790D01*
X77232141Y-100295790D02*
X77273808Y-100343409D01*
X77273808Y-100343409D02*
X77309522Y-100438647D01*
X77309522Y-100438647D02*
X77279760Y-100676742D01*
X77279760Y-100676742D02*
X77220237Y-100771980D01*
X77220237Y-100771980D02*
X77166665Y-100819600D01*
X77166665Y-100819600D02*
X77065475Y-100867219D01*
X77065475Y-100867219D02*
X76779760Y-100867219D01*
X76779760Y-100867219D02*
X76690475Y-100819600D01*
X76690475Y-100819600D02*
X76648808Y-100771980D01*
X83738094Y-100819599D02*
X83874998Y-100867218D01*
X83874998Y-100867218D02*
X84113094Y-100867218D01*
X84113094Y-100867218D02*
X84214284Y-100819599D01*
X84214284Y-100819599D02*
X84267856Y-100771979D01*
X84267856Y-100771979D02*
X84327379Y-100676741D01*
X84327379Y-100676741D02*
X84339284Y-100581503D01*
X84339284Y-100581503D02*
X84303570Y-100486265D01*
X84303570Y-100486265D02*
X84261903Y-100438646D01*
X84261903Y-100438646D02*
X84172618Y-100391027D01*
X84172618Y-100391027D02*
X83988094Y-100343408D01*
X83988094Y-100343408D02*
X83898808Y-100295789D01*
X83898808Y-100295789D02*
X83857141Y-100248170D01*
X83857141Y-100248170D02*
X83821427Y-100152932D01*
X83821427Y-100152932D02*
X83833332Y-100057694D01*
X83833332Y-100057694D02*
X83892856Y-99962456D01*
X83892856Y-99962456D02*
X83946427Y-99914837D01*
X83946427Y-99914837D02*
X84047618Y-99867218D01*
X84047618Y-99867218D02*
X84285713Y-99867218D01*
X84285713Y-99867218D02*
X84422618Y-99914837D01*
X85255951Y-100867218D02*
X84684522Y-100867218D01*
X84970237Y-100867218D02*
X85095237Y-99867218D01*
X85095237Y-99867218D02*
X84982141Y-100010075D01*
X84982141Y-100010075D02*
X84874999Y-100105313D01*
X84874999Y-100105313D02*
X84773808Y-100152932D01*
X51927938Y-71885406D02*
X51791033Y-71837789D01*
X51791033Y-71837789D02*
X51552937Y-71837794D01*
X51552937Y-71837794D02*
X51451748Y-71885414D01*
X51451748Y-71885414D02*
X51398177Y-71933034D01*
X51398177Y-71933034D02*
X51338655Y-72028274D01*
X51338655Y-72028274D02*
X51326752Y-72123512D01*
X51326752Y-72123512D02*
X51362468Y-72218749D01*
X51362468Y-72218749D02*
X51404135Y-72266368D01*
X51404135Y-72266368D02*
X51493422Y-72313985D01*
X51493422Y-72313985D02*
X51677947Y-72361601D01*
X51677947Y-72361601D02*
X51767233Y-72409218D01*
X51767233Y-72409218D02*
X51808901Y-72456837D01*
X51808901Y-72456837D02*
X51844617Y-72552074D01*
X51844617Y-72552074D02*
X51832713Y-72647313D01*
X51832713Y-72647313D02*
X51773191Y-72742552D01*
X51773191Y-72742552D02*
X51719621Y-72790172D01*
X51719621Y-72790172D02*
X51618431Y-72837792D01*
X51618431Y-72837792D02*
X51380336Y-72837797D01*
X51380336Y-72837797D02*
X51243430Y-72790180D01*
X50350558Y-71933053D02*
X50404129Y-71885433D01*
X50404129Y-71885433D02*
X50552937Y-71837811D01*
X50552937Y-71837811D02*
X50648175Y-71837809D01*
X50648175Y-71837809D02*
X50785081Y-71885426D01*
X50785081Y-71885426D02*
X50868416Y-71980663D01*
X50868416Y-71980663D02*
X50904132Y-72075900D01*
X50904132Y-72075900D02*
X50927945Y-72266376D01*
X50927945Y-72266376D02*
X50910090Y-72409233D01*
X50910090Y-72409233D02*
X50838665Y-72599711D01*
X50838665Y-72599711D02*
X50779143Y-72694950D01*
X50779143Y-72694950D02*
X50672002Y-72790190D01*
X50672002Y-72790190D02*
X50523193Y-72837812D01*
X50523193Y-72837812D02*
X50427955Y-72837813D01*
X50427955Y-72837813D02*
X50291049Y-72790197D01*
X50291049Y-72790197D02*
X50249382Y-72742578D01*
X49457699Y-71837830D02*
X49933890Y-71837822D01*
X49933890Y-71837822D02*
X49808907Y-72837824D01*
D17*
X49288164Y-98026622D02*
X48709119Y-97975881D01*
X48920857Y-98464362D02*
X48154812Y-97821574D01*
X48154812Y-97821574D02*
X48399684Y-97529748D01*
X48399684Y-97529748D02*
X48497380Y-97487400D01*
X48497380Y-97487400D02*
X48564467Y-97481531D01*
X48564467Y-97481531D02*
X48668033Y-97506270D01*
X48668033Y-97506270D02*
X48777468Y-97598097D01*
X48777468Y-97598097D02*
X48819816Y-97695793D01*
X48819816Y-97695793D02*
X48825685Y-97762881D01*
X48825685Y-97762881D02*
X48800945Y-97866446D01*
X48800945Y-97866446D02*
X48556074Y-98158273D01*
X49328429Y-96941488D02*
X49839125Y-97370013D01*
X48883558Y-96879008D02*
X49277687Y-97520533D01*
X49277687Y-97520533D02*
X49675604Y-97046315D01*
X49950341Y-87808105D02*
X49885292Y-87825535D01*
X49885292Y-87825535D02*
X49737765Y-87795346D01*
X49737765Y-87795346D02*
X49655286Y-87747727D01*
X49655286Y-87747727D02*
X49555378Y-87635059D01*
X49555378Y-87635059D02*
X49520518Y-87504961D01*
X49520518Y-87504961D02*
X49526898Y-87398673D01*
X49526898Y-87398673D02*
X49580897Y-87209906D01*
X49580897Y-87209906D02*
X49652325Y-87086188D01*
X49652325Y-87086188D02*
X49788802Y-86945041D01*
X49788802Y-86945041D02*
X49877661Y-86886372D01*
X49877661Y-86886372D02*
X50007758Y-86851512D01*
X50007758Y-86851512D02*
X50155286Y-86881701D01*
X50155286Y-86881701D02*
X50237765Y-86929320D01*
X50237765Y-86929320D02*
X50337673Y-87041988D01*
X50337673Y-87041988D02*
X50355103Y-87107037D01*
X50691397Y-87191225D02*
X51227508Y-87500749D01*
X51227508Y-87500749D02*
X50748357Y-87663997D01*
X50748357Y-87663997D02*
X50872074Y-87735425D01*
X50872074Y-87735425D02*
X50930744Y-87824284D01*
X50930744Y-87824284D02*
X50948173Y-87889332D01*
X50948173Y-87889332D02*
X50941794Y-87995620D01*
X50941794Y-87995620D02*
X50822746Y-88201817D01*
X50822746Y-88201817D02*
X50733888Y-88260486D01*
X50733888Y-88260486D02*
X50668839Y-88277916D01*
X50668839Y-88277916D02*
X50562551Y-88271536D01*
X50562551Y-88271536D02*
X50315115Y-88128679D01*
X50315115Y-88128679D02*
X50256446Y-88039821D01*
X50256446Y-88039821D02*
X50239016Y-87974772D01*
X100497574Y-97771276D02*
X100648094Y-97209838D01*
X100130267Y-97333536D02*
X100896311Y-96690749D01*
X100896311Y-96690749D02*
X101141183Y-96982575D01*
X101141183Y-96982575D02*
X101165922Y-97086141D01*
X101165922Y-97086141D02*
X101160053Y-97153228D01*
X101160053Y-97153228D02*
X101117705Y-97250924D01*
X101117705Y-97250924D02*
X101008270Y-97342751D01*
X101008270Y-97342751D02*
X100904705Y-97367490D01*
X100904705Y-97367490D02*
X100837617Y-97361621D01*
X100837617Y-97361621D02*
X100739921Y-97319273D01*
X100739921Y-97319273D02*
X100495050Y-97027447D01*
X101435533Y-97481533D02*
X101502620Y-97487402D01*
X101502620Y-97487402D02*
X101600317Y-97529750D01*
X101600317Y-97529750D02*
X101753361Y-97712141D01*
X101753361Y-97712141D02*
X101778101Y-97815707D01*
X101778101Y-97815707D02*
X101772232Y-97882794D01*
X101772232Y-97882794D02*
X101729884Y-97980490D01*
X101729884Y-97980490D02*
X101656927Y-98041708D01*
X101656927Y-98041708D02*
X101516883Y-98097056D01*
X101516883Y-98097056D02*
X100711836Y-98026624D01*
X100711836Y-98026624D02*
X101109753Y-98500842D01*
X48950341Y-89540155D02*
X48885292Y-89557585D01*
X48885292Y-89557585D02*
X48737765Y-89527396D01*
X48737765Y-89527396D02*
X48655286Y-89479777D01*
X48655286Y-89479777D02*
X48555378Y-89367109D01*
X48555378Y-89367109D02*
X48520518Y-89237011D01*
X48520518Y-89237011D02*
X48526898Y-89130723D01*
X48526898Y-89130723D02*
X48580897Y-88941956D01*
X48580897Y-88941956D02*
X48652325Y-88818238D01*
X48652325Y-88818238D02*
X48788802Y-88677091D01*
X48788802Y-88677091D02*
X48877661Y-88618422D01*
X48877661Y-88618422D02*
X49007758Y-88583562D01*
X49007758Y-88583562D02*
X49155286Y-88613751D01*
X49155286Y-88613751D02*
X49237765Y-88661370D01*
X49237765Y-88661370D02*
X49337673Y-88774038D01*
X49337673Y-88774038D02*
X49355103Y-88839087D01*
X49978363Y-89473855D02*
X49645029Y-90051205D01*
X49962642Y-89024893D02*
X49399303Y-89524435D01*
X49399303Y-89524435D02*
X49935414Y-89833959D01*
X71864699Y-39071429D02*
X71864699Y-37928572D01*
X71864700Y-52071429D02*
X71864700Y-50928572D01*
X72436128Y-51500000D02*
X71293271Y-51500000D01*
X98626426Y-103416166D02*
X98064988Y-103265646D01*
X98188686Y-103783473D02*
X97545899Y-103017429D01*
X97545899Y-103017429D02*
X97837725Y-102772557D01*
X97837725Y-102772557D02*
X97941291Y-102747818D01*
X97941291Y-102747818D02*
X98008378Y-102753687D01*
X98008378Y-102753687D02*
X98106074Y-102796035D01*
X98106074Y-102796035D02*
X98197901Y-102905470D01*
X98197901Y-102905470D02*
X98222640Y-103009035D01*
X98222640Y-103009035D02*
X98216771Y-103076123D01*
X98216771Y-103076123D02*
X98174423Y-103173819D01*
X98174423Y-103173819D02*
X97882597Y-103418690D01*
X99355992Y-102803987D02*
X98918252Y-103171295D01*
X99137122Y-102987641D02*
X98494335Y-102221597D01*
X98494335Y-102221597D02*
X98513205Y-102392249D01*
X98513205Y-102392249D02*
X98501466Y-102526424D01*
X98501466Y-102526424D02*
X98459118Y-102624120D01*
X99760983Y-87974772D02*
X99743553Y-88039821D01*
X99743553Y-88039821D02*
X99643645Y-88152489D01*
X99643645Y-88152489D02*
X99561166Y-88200108D01*
X99561166Y-88200108D02*
X99413639Y-88230297D01*
X99413639Y-88230297D02*
X99283541Y-88195437D01*
X99283541Y-88195437D02*
X99194683Y-88136768D01*
X99194683Y-88136768D02*
X99058205Y-87995621D01*
X99058205Y-87995621D02*
X98986777Y-87871903D01*
X98986777Y-87871903D02*
X98932778Y-87683136D01*
X98932778Y-87683136D02*
X98926398Y-87576848D01*
X98926398Y-87576848D02*
X98961258Y-87446750D01*
X98961258Y-87446750D02*
X99061166Y-87334082D01*
X99061166Y-87334082D02*
X99143645Y-87286463D01*
X99143645Y-87286463D02*
X99291172Y-87256274D01*
X99291172Y-87256274D02*
X99356221Y-87273704D01*
X99686136Y-87083227D02*
X99703565Y-87018179D01*
X99703565Y-87018179D02*
X99762234Y-86929320D01*
X99762234Y-86929320D02*
X99968431Y-86810273D01*
X99968431Y-86810273D02*
X100074719Y-86803893D01*
X100074719Y-86803893D02*
X100139768Y-86821323D01*
X100139768Y-86821323D02*
X100228626Y-86879992D01*
X100228626Y-86879992D02*
X100276245Y-86962470D01*
X100276245Y-86962470D02*
X100306435Y-87109998D01*
X100306435Y-87109998D02*
X100097277Y-87890584D01*
X100097277Y-87890584D02*
X100633388Y-87581060D01*
X54332164Y-99371678D02*
X54382905Y-98792633D01*
X53894424Y-99004371D02*
X54537212Y-98238326D01*
X54537212Y-98238326D02*
X54829038Y-98483198D01*
X54829038Y-98483198D02*
X54871386Y-98580894D01*
X54871386Y-98580894D02*
X54877255Y-98647981D01*
X54877255Y-98647981D02*
X54852516Y-98751547D01*
X54852516Y-98751547D02*
X54760689Y-98860982D01*
X54760689Y-98860982D02*
X54662993Y-98903330D01*
X54662993Y-98903330D02*
X54595905Y-98909199D01*
X54595905Y-98909199D02*
X54492340Y-98884459D01*
X54492340Y-98884459D02*
X54200513Y-98639588D01*
X55230299Y-98819896D02*
X55704517Y-99217812D01*
X55704517Y-99217812D02*
X55204298Y-99295376D01*
X55204298Y-99295376D02*
X55313733Y-99387203D01*
X55313733Y-99387203D02*
X55356080Y-99484899D01*
X55356080Y-99484899D02*
X55361950Y-99551987D01*
X55361950Y-99551987D02*
X55337210Y-99655552D01*
X55337210Y-99655552D02*
X55184166Y-99837944D01*
X55184166Y-99837944D02*
X55086469Y-99880291D01*
X55086469Y-99880291D02*
X55019382Y-99886161D01*
X55019382Y-99886161D02*
X54915817Y-99861421D01*
X54915817Y-99861421D02*
X54696947Y-99677767D01*
X54696947Y-99677767D02*
X54654599Y-99580071D01*
X54654599Y-99580071D02*
X54648730Y-99512984D01*
X100760983Y-89706822D02*
X100743553Y-89771871D01*
X100743553Y-89771871D02*
X100643645Y-89884539D01*
X100643645Y-89884539D02*
X100561166Y-89932158D01*
X100561166Y-89932158D02*
X100413639Y-89962347D01*
X100413639Y-89962347D02*
X100283541Y-89927487D01*
X100283541Y-89927487D02*
X100194683Y-89868818D01*
X100194683Y-89868818D02*
X100058205Y-89727671D01*
X100058205Y-89727671D02*
X99986777Y-89603953D01*
X99986777Y-89603953D02*
X99932778Y-89415186D01*
X99932778Y-89415186D02*
X99926398Y-89308898D01*
X99926398Y-89308898D02*
X99961258Y-89178800D01*
X99961258Y-89178800D02*
X100061166Y-89066132D01*
X100061166Y-89066132D02*
X100143645Y-89018513D01*
X100143645Y-89018513D02*
X100291172Y-88988324D01*
X100291172Y-88988324D02*
X100356221Y-89005754D01*
X101633388Y-89313110D02*
X101138516Y-89598824D01*
X101385952Y-89455967D02*
X100885952Y-88589942D01*
X100885952Y-88589942D02*
X100874902Y-88761279D01*
X100874902Y-88761279D02*
X100840043Y-88891376D01*
X100840043Y-88891376D02*
X100781374Y-88980235D01*
X78364702Y-39071429D02*
X78364702Y-37928572D01*
X78364701Y-52071429D02*
X78364701Y-50928572D01*
X78936129Y-51500000D02*
X77793272Y-51500000D01*
D18*
%TO.C,R4*%
X49601860Y-98368689D02*
X49893768Y-98020807D01*
X50727946Y-99313587D02*
X51019854Y-98965705D01*
%TO.C,J13*%
X52390000Y-84360000D02*
X52390000Y-85610000D01*
X52390000Y-85610000D02*
X53640000Y-85610000D01*
X52490000Y-83550000D02*
X52490000Y-83850000D01*
X52490000Y-83850000D02*
X52690000Y-83850000D01*
X52590000Y-83550000D02*
X52590000Y-83850000D01*
X52690000Y-79190000D02*
X52690000Y-85310000D01*
X52690000Y-82750000D02*
X53300000Y-82750000D01*
X52690000Y-83550000D02*
X52490000Y-83550000D01*
X52690000Y-85310000D02*
X57410000Y-85310000D01*
X53300000Y-79800000D02*
X53300000Y-81750000D01*
X53300000Y-81750000D02*
X52690000Y-81750000D01*
X53300000Y-82750000D02*
X53300000Y-84700000D01*
X53300000Y-84700000D02*
X56800000Y-84700000D01*
X54000000Y-79190000D02*
X54000000Y-79800000D01*
X54000000Y-85310000D02*
X54000000Y-84700000D01*
X55300000Y-79190000D02*
X55300000Y-79800000D01*
X55300000Y-85310000D02*
X55300000Y-84700000D01*
X56300000Y-82150000D02*
X56800000Y-82150000D01*
X56300000Y-82350000D02*
X56300000Y-82150000D01*
X56800000Y-79800000D02*
X53300000Y-79800000D01*
X56800000Y-82250000D02*
X56300000Y-82250000D01*
X56800000Y-82350000D02*
X56300000Y-82350000D01*
X56800000Y-84700000D02*
X56800000Y-79800000D01*
X57410000Y-79190000D02*
X52690000Y-79190000D01*
X57410000Y-85310000D02*
X57410000Y-79190000D01*
%TO.C,C3*%
X51910625Y-89373373D02*
X52363127Y-89634625D01*
X52645625Y-88100315D02*
X53098127Y-88361567D01*
%TO.C,R2*%
X98980146Y-98965705D02*
X99272054Y-99313587D01*
X100106232Y-98020807D02*
X100398140Y-98368689D01*
%TO.C,J18*%
X45708547Y-53752717D02*
X50145121Y-57747427D01*
X46781876Y-53696467D02*
X48822724Y-51429875D01*
X48472305Y-56227760D02*
X48974153Y-55670402D01*
X48974153Y-55670402D02*
X46781876Y-53696467D01*
X49587023Y-57231456D02*
X50144381Y-57733304D01*
X50144381Y-57733304D02*
X51348816Y-56395644D01*
X50145121Y-57747427D02*
X55243897Y-52084664D01*
X50791458Y-55893796D02*
X49587023Y-57231456D01*
X50807322Y-48089954D02*
X45708547Y-53752717D01*
X50863573Y-49163283D02*
X48822724Y-51429875D01*
X51348816Y-56395644D02*
X50791458Y-55893796D01*
X51795154Y-54779078D02*
X52352512Y-55280926D01*
X52352512Y-55280926D02*
X53021643Y-54537782D01*
X52464284Y-54035934D02*
X51795154Y-54779078D01*
X53021643Y-54537782D02*
X52464284Y-54035934D01*
X53055850Y-51137218D02*
X50863573Y-49163283D01*
X53467980Y-52921216D02*
X54025339Y-53423064D01*
X53557698Y-50579860D02*
X53055850Y-51137218D01*
X54025339Y-53423064D02*
X55229774Y-52085404D01*
X54672415Y-51583556D02*
X53467980Y-52921216D01*
X54817043Y-52992130D02*
X55653456Y-52063199D01*
X55229774Y-52085404D02*
X54672415Y-51583556D01*
X55243897Y-52084664D02*
X50807322Y-48089954D01*
X55653456Y-52063199D02*
X54724525Y-51226786D01*
%TO.C,C4*%
X50910625Y-91105423D02*
X51363127Y-91366675D01*
X51645625Y-89832365D02*
X52098127Y-90093617D01*
%TO.C,J15*%
X69040000Y-41490001D02*
X69040000Y-50210001D01*
X70340000Y-39790001D02*
X69040000Y-41490001D01*
X73160000Y-39790001D02*
X70340000Y-39790001D01*
X73160000Y-39790001D02*
X74460000Y-41490001D01*
X74460000Y-41490001D02*
X74460000Y-50210001D01*
X74460000Y-50210001D02*
X69040000Y-50210001D01*
%TO.C,R1*%
X94370834Y-101041136D02*
X94756507Y-101500763D01*
X96427755Y-103492479D02*
X96042082Y-103032852D01*
X96592363Y-99177052D02*
X94370834Y-101041136D01*
X98592030Y-99848866D02*
X98334915Y-99542448D01*
X98649284Y-101628394D02*
X96427755Y-103492479D01*
X99467281Y-101203095D02*
X100003512Y-100753143D01*
X100003512Y-100753143D02*
X99553561Y-100216912D01*
%TO.C,J6*%
X100371057Y-59095647D02*
X104687352Y-70954567D01*
X101345159Y-59549878D02*
X103243371Y-64765172D01*
X103860737Y-57836149D02*
X104117252Y-58540918D01*
X104117252Y-58540918D02*
X101345159Y-59549878D01*
X104687352Y-70954567D02*
X110297316Y-68912707D01*
X105141583Y-69980466D02*
X103243371Y-64765172D01*
X105270276Y-57323119D02*
X105885912Y-59014565D01*
X105885912Y-59014565D02*
X106590682Y-58758050D01*
X105975046Y-57066603D02*
X105270276Y-57323119D01*
X105981022Y-57053786D02*
X100371057Y-59095647D01*
X106154347Y-56682090D02*
X104979732Y-57109615D01*
X106398943Y-60424104D02*
X108451063Y-66062260D01*
X106581872Y-57856704D02*
X106154347Y-56682090D01*
X106590682Y-58758050D02*
X105975046Y-57066603D01*
X107103712Y-60167589D02*
X106398943Y-60424104D01*
X107913676Y-68971506D02*
X105141583Y-69980466D01*
X108170191Y-69676276D02*
X107913676Y-68971506D01*
X108451063Y-66062260D02*
X109155833Y-65805745D01*
X108964094Y-67471799D02*
X109579730Y-69163246D01*
X109155833Y-65805745D02*
X107103712Y-60167589D01*
X109579730Y-69163246D02*
X110284499Y-68906730D01*
X109668863Y-67215284D02*
X108964094Y-67471799D01*
X110284499Y-68906730D02*
X109668863Y-67215284D01*
X110297316Y-68912707D02*
X105981022Y-57053786D01*
%TO.C,J11*%
X67170002Y-101620000D02*
X68500002Y-101620000D01*
X67170002Y-102950000D02*
X67170002Y-101620000D01*
X67170002Y-104220000D02*
X67170002Y-109360000D01*
X67170002Y-104220000D02*
X69830002Y-104220000D01*
X67170002Y-109360000D02*
X69830002Y-109360000D01*
X69830002Y-104220000D02*
X69830002Y-109360000D01*
%TO.C,J14*%
X52390000Y-77400000D02*
X52390000Y-78650000D01*
X52390000Y-78650000D02*
X53640000Y-78650000D01*
X52490000Y-76590000D02*
X52490000Y-76890000D01*
X52490000Y-76890000D02*
X52690000Y-76890000D01*
X52590000Y-76590000D02*
X52590000Y-76890000D01*
X52690000Y-68230000D02*
X52690000Y-78350000D01*
X52690000Y-75790000D02*
X53300000Y-75790000D01*
X52690000Y-76590000D02*
X52490000Y-76590000D01*
X52690000Y-78350000D02*
X57410000Y-78350000D01*
X53300000Y-68840000D02*
X53300000Y-70790000D01*
X53300000Y-70790000D02*
X52690000Y-70790000D01*
X53300000Y-75790000D02*
X53300000Y-77740000D01*
X53300000Y-77740000D02*
X56800000Y-77740000D01*
X54000000Y-68230000D02*
X54000000Y-68840000D01*
X54000000Y-78350000D02*
X54000000Y-77740000D01*
X55300000Y-68230000D02*
X55300000Y-68840000D01*
X55300000Y-78350000D02*
X55300000Y-77740000D01*
X56300000Y-71190000D02*
X56800000Y-71190000D01*
X56300000Y-71390000D02*
X56300000Y-71190000D01*
X56300000Y-73190000D02*
X56800000Y-73190000D01*
X56300000Y-73390000D02*
X56300000Y-73190000D01*
X56300000Y-75190000D02*
X56800000Y-75190000D01*
X56300000Y-75390000D02*
X56300000Y-75190000D01*
X56800000Y-68840000D02*
X53300000Y-68840000D01*
X56800000Y-71290000D02*
X56300000Y-71290000D01*
X56800000Y-71390000D02*
X56300000Y-71390000D01*
X56800000Y-73290000D02*
X56300000Y-73290000D01*
X56800000Y-73390000D02*
X56300000Y-73390000D01*
X56800000Y-75290000D02*
X56300000Y-75290000D01*
X56800000Y-75390000D02*
X56300000Y-75390000D01*
X56800000Y-77740000D02*
X56800000Y-68840000D01*
X57410000Y-68230000D02*
X52690000Y-68230000D01*
X57410000Y-78350000D02*
X57410000Y-68230000D01*
%TO.C,J17*%
X94756105Y-52084663D02*
X99854880Y-57747427D01*
X94770228Y-52085404D02*
X95974663Y-53423064D01*
X95327586Y-51583556D02*
X94770228Y-52085404D01*
X95974663Y-53423064D02*
X96532021Y-52921216D01*
X96442303Y-50579860D02*
X96944151Y-51137218D01*
X96532021Y-52921216D02*
X95327586Y-51583556D01*
X96944151Y-51137218D02*
X99136429Y-49163283D01*
X96978359Y-54537782D02*
X97647489Y-55280926D01*
X97535717Y-54035934D02*
X96978359Y-54537782D01*
X97647489Y-55280926D02*
X98204848Y-54779078D01*
X98204848Y-54779078D02*
X97535717Y-54035934D01*
X98651185Y-56395644D02*
X99855620Y-57733304D01*
X98997003Y-57228056D02*
X99833416Y-58156987D01*
X99136429Y-49163283D02*
X101177277Y-51429875D01*
X99192679Y-48089954D02*
X94756105Y-52084663D01*
X99208544Y-55893796D02*
X98651185Y-56395644D01*
X99833416Y-58156987D02*
X100762347Y-57320574D01*
X99854880Y-57747427D02*
X104291455Y-53752717D01*
X99855620Y-57733304D02*
X100412979Y-57231456D01*
X100412979Y-57231456D02*
X99208544Y-55893796D01*
X101025848Y-55670402D02*
X103218125Y-53696467D01*
X101527696Y-56227760D02*
X101025848Y-55670402D01*
X103218125Y-53696467D02*
X101177277Y-51429875D01*
X104291455Y-53752717D02*
X99192679Y-48089954D01*
%TO.C,J9*%
X75170000Y-101619999D02*
X76500000Y-101619999D01*
X75170000Y-102949999D02*
X75170000Y-101619999D01*
X75170000Y-104219999D02*
X75170000Y-109359999D01*
X75170000Y-104219999D02*
X77830000Y-104219999D01*
X75170000Y-109359999D02*
X77830000Y-109359999D01*
X77830000Y-104219999D02*
X77830000Y-109359999D01*
%TO.C,J22*%
X39027015Y-68621866D02*
X44636980Y-70663726D01*
X40001117Y-68167635D02*
X41899329Y-62952341D01*
X42516695Y-69881364D02*
X42773210Y-69176594D01*
X42773210Y-69176594D02*
X40001117Y-68167635D01*
X43343309Y-56762945D02*
X39027015Y-68621866D01*
X43797541Y-57737047D02*
X41899329Y-62952341D01*
X43926234Y-70394394D02*
X44631003Y-70650909D01*
X44541870Y-68702947D02*
X43926234Y-70394394D01*
X44631003Y-70650909D02*
X45246640Y-68959462D01*
X44636980Y-70663726D02*
X48953273Y-58804805D01*
X45054900Y-67293408D02*
X45759670Y-67549924D01*
X45246640Y-68959462D02*
X44541870Y-68702947D01*
X45759670Y-67549924D02*
X47811791Y-61911768D01*
X46569634Y-58746006D02*
X43797541Y-57737047D01*
X46826149Y-58041237D02*
X46569634Y-58746006D01*
X47107021Y-61655253D02*
X45054900Y-67293408D01*
X47620052Y-60245714D02*
X48324821Y-60502229D01*
X47811791Y-61911768D02*
X47107021Y-61655253D01*
X48235688Y-58554267D02*
X47620052Y-60245714D01*
X48324821Y-60502229D02*
X48940457Y-58810782D01*
X48897446Y-59806096D02*
X49324971Y-58631480D01*
X48940457Y-58810782D02*
X48235688Y-58554267D01*
X48953273Y-58804805D02*
X43343309Y-56762945D01*
X49324971Y-58631480D02*
X48150355Y-58203955D01*
%TO.C,J10*%
X72170001Y-101619999D02*
X73500001Y-101619999D01*
X72170001Y-102949999D02*
X72170001Y-101619999D01*
X72170001Y-104219999D02*
X72170001Y-109359999D01*
X72170001Y-104219999D02*
X74830001Y-104219999D01*
X72170001Y-109359999D02*
X74830001Y-109359999D01*
X74830001Y-104219999D02*
X74830001Y-109359999D01*
%TO.C,J7*%
X83170000Y-101619999D02*
X84500000Y-101619999D01*
X83170000Y-102949999D02*
X83170000Y-101619999D01*
X83170000Y-104219999D02*
X83170000Y-109359999D01*
X83170000Y-104219999D02*
X85830000Y-104219999D01*
X83170000Y-109359999D02*
X85830000Y-109359999D01*
X85830000Y-104219999D02*
X85830000Y-109359999D01*
%TO.C,C2*%
X97354375Y-88100315D02*
X96901873Y-88361567D01*
X98089375Y-89373373D02*
X97636873Y-89634625D01*
%TO.C,R3*%
X51350716Y-101628394D02*
X53572245Y-103492479D01*
X51665085Y-99542448D02*
X51407970Y-99848866D01*
X52310523Y-97995383D02*
X51860572Y-98531614D01*
X52846754Y-98445335D02*
X52310523Y-97995383D01*
X53407637Y-99177052D02*
X55629166Y-101041136D01*
X53572245Y-103492479D02*
X53957918Y-103032852D01*
X55629166Y-101041136D02*
X55243493Y-101500763D01*
%TO.C,J8*%
X80170000Y-101619999D02*
X81500000Y-101619999D01*
X80170000Y-102949999D02*
X80170000Y-101619999D01*
X80170000Y-104219999D02*
X80170000Y-109359999D01*
X80170000Y-104219999D02*
X82830000Y-104219999D01*
X80170000Y-109359999D02*
X82830000Y-109359999D01*
X82830000Y-104219999D02*
X82830000Y-109359999D01*
%TO.C,C1*%
X98354375Y-89832365D02*
X97901873Y-90093617D01*
X99089375Y-91105423D02*
X98636873Y-91366675D01*
%TO.C,J12*%
X64170000Y-101619999D02*
X65500000Y-101619999D01*
X64170000Y-102949999D02*
X64170000Y-101619999D01*
X64170000Y-104219999D02*
X64170000Y-109359999D01*
X64170000Y-104219999D02*
X66830000Y-104219999D01*
X64170000Y-109359999D02*
X66830000Y-109359999D01*
X66830000Y-104219999D02*
X66830000Y-109359999D01*
%TO.C,J21*%
X75540001Y-41490001D02*
X75540001Y-50210001D01*
X76840001Y-39790001D02*
X75540001Y-41490001D01*
X79660001Y-39790001D02*
X76840001Y-39790001D01*
X79660001Y-39790001D02*
X80960001Y-41490001D01*
X80960001Y-41490001D02*
X80960001Y-50210001D01*
X80960001Y-50210001D02*
X75540001Y-50210001D01*
%TD*%
M02*
