%TF.GenerationSoftware,KiCad,Pcbnew,8.0.1-rc1*%
%TF.CreationDate,2024-04-17T22:05:37-07:00*%
%TF.ProjectId,Toolhead Board Breakout,546f6f6c-6865-4616-9420-426f61726420,rev?*%
%TF.SameCoordinates,Original*%
%TF.FileFunction,Legend,Bot*%
%TF.FilePolarity,Positive*%
%FSLAX46Y46*%
G04 Gerber Fmt 4.6, Leading zero omitted, Abs format (unit mm)*
G04 Created by KiCad (PCBNEW 8.0.1-rc1) date 2024-04-17 22:05:37*
%MOMM*%
%LPD*%
G01*
G04 APERTURE LIST*
%ADD10C,0.150000*%
%ADD11C,0.120000*%
G04 APERTURE END LIST*
D10*
X96078697Y-97889471D02*
X96483459Y-98590539D01*
X96483459Y-98590539D02*
X96489839Y-98696827D01*
X96489839Y-98696827D02*
X96472409Y-98761876D01*
X96472409Y-98761876D02*
X96413740Y-98850734D01*
X96413740Y-98850734D02*
X96248782Y-98945972D01*
X96248782Y-98945972D02*
X96142494Y-98952352D01*
X96142494Y-98952352D02*
X96077446Y-98934922D01*
X96077446Y-98934922D02*
X95988587Y-98876253D01*
X95988587Y-98876253D02*
X95583825Y-98175185D01*
X95217800Y-99541210D02*
X95712672Y-99255496D01*
X95465236Y-99398353D02*
X94965236Y-98532328D01*
X94965236Y-98532328D02*
X95119143Y-98608427D01*
X95119143Y-98608427D02*
X95249241Y-98643286D01*
X95249241Y-98643286D02*
X95355529Y-98636906D01*
X55240960Y-98651375D02*
X54836198Y-99352444D01*
X54836198Y-99352444D02*
X54747340Y-99411113D01*
X54747340Y-99411113D02*
X54682291Y-99428542D01*
X54682291Y-99428542D02*
X54576003Y-99422163D01*
X54576003Y-99422163D02*
X54411045Y-99326925D01*
X54411045Y-99326925D02*
X54352376Y-99238066D01*
X54352376Y-99238066D02*
X54334947Y-99173017D01*
X54334947Y-99173017D02*
X54341326Y-99066729D01*
X54341326Y-99066729D02*
X54746088Y-98365661D01*
X54327315Y-98233854D02*
X54309886Y-98168805D01*
X54309886Y-98168805D02*
X54251217Y-98079947D01*
X54251217Y-98079947D02*
X54045020Y-97960899D01*
X54045020Y-97960899D02*
X53938732Y-97954519D01*
X53938732Y-97954519D02*
X53873683Y-97971949D01*
X53873683Y-97971949D02*
X53784825Y-98030618D01*
X53784825Y-98030618D02*
X53737206Y-98113097D01*
X53737206Y-98113097D02*
X53707016Y-98260624D01*
X53707016Y-98260624D02*
X53916174Y-99041210D01*
X53916174Y-99041210D02*
X53380063Y-98731686D01*
D11*
%TO.C,U1*%
X93945032Y-86067663D02*
X92645993Y-86817663D01*
X94850032Y-87635169D02*
X93945032Y-86067663D01*
X98240032Y-93506821D02*
X99145032Y-95074327D01*
X99145032Y-95074327D02*
X97845993Y-95824327D01*
X97069222Y-86353919D02*
X96696376Y-86188130D01*
X97112068Y-85948130D01*
X97069222Y-86353919D01*
G36*
X97069222Y-86353919D02*
G01*
X96696376Y-86188130D01*
X97112068Y-85948130D01*
X97069222Y-86353919D01*
G37*
%TO.C,U2*%
X50854968Y-95074327D02*
X52154007Y-95824327D01*
X51759968Y-93506821D02*
X50854968Y-95074327D01*
X55149968Y-87635169D02*
X56054968Y-86067663D01*
X56054968Y-86067663D02*
X57354007Y-86817663D01*
X49583624Y-92631360D02*
X49167932Y-92391360D01*
X49540778Y-92225571D01*
X49583624Y-92631360D01*
G36*
X49583624Y-92631360D02*
G01*
X49167932Y-92391360D01*
X49540778Y-92225571D01*
X49583624Y-92631360D01*
G37*
%TO.C,J1*%
X58130000Y-64780000D02*
X60730000Y-64780000D01*
X58130000Y-85220000D02*
X58130000Y-64780000D01*
X58130000Y-85220000D02*
X63330000Y-85220000D01*
X60730000Y-64780000D02*
X60730000Y-67380000D01*
X60730000Y-67380000D02*
X63330000Y-67380000D01*
X62000000Y-64780000D02*
X63330000Y-64780000D01*
X63330000Y-64780000D02*
X63330000Y-66110000D01*
X63330000Y-85220000D02*
X63330000Y-67380000D01*
%TO.C,J5*%
X75050000Y-72400000D02*
X75050000Y-77600000D01*
X75050000Y-72400000D02*
X85330000Y-72400000D01*
X75050000Y-77600000D02*
X82730000Y-77600000D01*
X82730000Y-75000000D02*
X82730000Y-77600000D01*
X85330000Y-72400000D02*
X85330000Y-75000000D01*
X85330000Y-75000000D02*
X82730000Y-75000000D01*
X85330000Y-76270000D02*
X85330000Y-77600000D01*
X85330000Y-77600000D02*
X84000000Y-77600000D01*
%TO.C,J2*%
X71984221Y-59783484D02*
X87434114Y-68703484D01*
X74584221Y-55280152D02*
X71984221Y-59783484D01*
X74584221Y-55280152D02*
X92285780Y-65500152D01*
X88734114Y-66451818D02*
X87434114Y-68703484D01*
X89685780Y-70003484D02*
X88533966Y-69338484D01*
X90350780Y-68851670D02*
X89685780Y-70003484D01*
X90985780Y-67751818D02*
X88734114Y-66451818D01*
X92285780Y-65500152D02*
X90985780Y-67751818D01*
%TO.C,J3*%
X71984220Y-90216516D02*
X73136034Y-89551516D01*
X72649220Y-91368330D02*
X71984220Y-90216516D01*
X73284220Y-92468182D02*
X75535886Y-91168182D01*
X74584220Y-94719848D02*
X73284220Y-92468182D01*
X75535886Y-91168182D02*
X74235886Y-88916516D01*
X89685779Y-79996516D02*
X74235886Y-88916516D01*
X92285779Y-84499847D02*
X74584220Y-94719848D01*
X92285779Y-84499847D02*
X89685779Y-79996516D01*
%TO.C,J4*%
X64630000Y-69860000D02*
X67230000Y-69860000D01*
X64630000Y-80140000D02*
X64630000Y-69860000D01*
X64630000Y-80140000D02*
X69830000Y-80140000D01*
X67230000Y-69860000D02*
X67230000Y-72460000D01*
X67230000Y-72460000D02*
X69830000Y-72460000D01*
X68500000Y-69860000D02*
X69830000Y-69860000D01*
X69830000Y-69860000D02*
X69830000Y-71190000D01*
X69830000Y-80140000D02*
X69830000Y-72460000D01*
%TD*%
M02*
