%TF.GenerationSoftware,KiCad,Pcbnew,7.0.7*%
%TF.CreationDate,2024-03-04T03:02:10-08:00*%
%TF.ProjectId,can_magnetic_angle_sensor,63616e5f-6d61-4676-9e65-7469635f616e,rev?*%
%TF.SameCoordinates,Original*%
%TF.FileFunction,Drillmap*%
%TF.FilePolarity,Positive*%
%FSLAX45Y45*%
G04 Gerber Fmt 4.5, Leading zero omitted, Abs format (unit mm)*
G04 Created by KiCad (PCBNEW 7.0.7) date 2024-03-04 03:02:10*
%MOMM*%
%LPD*%
G01*
G04 APERTURE LIST*
%ADD10C,0.100000*%
%ADD11C,0.150000*%
%ADD12C,0.200000*%
%ADD13C,0.065000*%
%ADD14C,0.320000*%
G04 APERTURE END LIST*
D10*
X5500000Y-2300000D02*
X5500000Y-5200000D01*
X5200000Y-5500000D02*
G75*
G03*
X5500000Y-5200000I0J300000D01*
G01*
X2000000Y-2300000D02*
X2000000Y-5200000D01*
X2300000Y-2000000D02*
G75*
G03*
X2000000Y-2300000I0J-300000D01*
G01*
D11*
X2000000Y-5200000D02*
G75*
G03*
X2300000Y-5500000I300000J0D01*
G01*
D10*
X5500000Y-2300000D02*
G75*
G03*
X5200000Y-2000000I-300000J0D01*
G01*
X5200000Y-5500000D02*
X2300000Y-5500000D01*
X5200000Y-2000000D02*
X2300000Y-2000000D01*
D12*
D13*
X2528000Y-3978500D02*
X2593000Y-4043500D01*
X2593000Y-3978500D02*
X2528000Y-4043500D01*
X2528000Y-4556500D02*
X2593000Y-4621500D01*
X2593000Y-4556500D02*
X2528000Y-4621500D01*
D14*
X2460000Y-5200000D02*
G75*
G03*
X2460000Y-5200000I-160000J0D01*
G01*
X5360000Y-2300000D02*
G75*
G03*
X5360000Y-2300000I-160000J0D01*
G01*
D12*
X2253277Y-5818984D02*
X2253277Y-5618984D01*
X2253277Y-5618984D02*
X2300896Y-5618984D01*
X2300896Y-5618984D02*
X2329467Y-5628508D01*
X2329467Y-5628508D02*
X2348515Y-5647555D01*
X2348515Y-5647555D02*
X2358039Y-5666603D01*
X2358039Y-5666603D02*
X2367563Y-5704698D01*
X2367563Y-5704698D02*
X2367563Y-5733269D01*
X2367563Y-5733269D02*
X2358039Y-5771365D01*
X2358039Y-5771365D02*
X2348515Y-5790412D01*
X2348515Y-5790412D02*
X2329467Y-5809460D01*
X2329467Y-5809460D02*
X2300896Y-5818984D01*
X2300896Y-5818984D02*
X2253277Y-5818984D01*
X2453277Y-5818984D02*
X2453277Y-5685650D01*
X2453277Y-5723746D02*
X2462801Y-5704698D01*
X2462801Y-5704698D02*
X2472324Y-5695174D01*
X2472324Y-5695174D02*
X2491372Y-5685650D01*
X2491372Y-5685650D02*
X2510420Y-5685650D01*
X2577086Y-5818984D02*
X2577086Y-5685650D01*
X2577086Y-5618984D02*
X2567563Y-5628508D01*
X2567563Y-5628508D02*
X2577086Y-5638031D01*
X2577086Y-5638031D02*
X2586610Y-5628508D01*
X2586610Y-5628508D02*
X2577086Y-5618984D01*
X2577086Y-5618984D02*
X2577086Y-5638031D01*
X2700896Y-5818984D02*
X2681848Y-5809460D01*
X2681848Y-5809460D02*
X2672324Y-5790412D01*
X2672324Y-5790412D02*
X2672324Y-5618984D01*
X2805658Y-5818984D02*
X2786610Y-5809460D01*
X2786610Y-5809460D02*
X2777086Y-5790412D01*
X2777086Y-5790412D02*
X2777086Y-5618984D01*
X3034229Y-5818984D02*
X3034229Y-5618984D01*
X3034229Y-5618984D02*
X3100896Y-5761841D01*
X3100896Y-5761841D02*
X3167562Y-5618984D01*
X3167562Y-5618984D02*
X3167562Y-5818984D01*
X3348515Y-5818984D02*
X3348515Y-5714222D01*
X3348515Y-5714222D02*
X3338991Y-5695174D01*
X3338991Y-5695174D02*
X3319943Y-5685650D01*
X3319943Y-5685650D02*
X3281848Y-5685650D01*
X3281848Y-5685650D02*
X3262801Y-5695174D01*
X3348515Y-5809460D02*
X3329467Y-5818984D01*
X3329467Y-5818984D02*
X3281848Y-5818984D01*
X3281848Y-5818984D02*
X3262801Y-5809460D01*
X3262801Y-5809460D02*
X3253277Y-5790412D01*
X3253277Y-5790412D02*
X3253277Y-5771365D01*
X3253277Y-5771365D02*
X3262801Y-5752317D01*
X3262801Y-5752317D02*
X3281848Y-5742793D01*
X3281848Y-5742793D02*
X3329467Y-5742793D01*
X3329467Y-5742793D02*
X3348515Y-5733269D01*
X3443753Y-5685650D02*
X3443753Y-5885650D01*
X3443753Y-5695174D02*
X3462801Y-5685650D01*
X3462801Y-5685650D02*
X3500896Y-5685650D01*
X3500896Y-5685650D02*
X3519943Y-5695174D01*
X3519943Y-5695174D02*
X3529467Y-5704698D01*
X3529467Y-5704698D02*
X3538991Y-5723746D01*
X3538991Y-5723746D02*
X3538991Y-5780888D01*
X3538991Y-5780888D02*
X3529467Y-5799936D01*
X3529467Y-5799936D02*
X3519943Y-5809460D01*
X3519943Y-5809460D02*
X3500896Y-5818984D01*
X3500896Y-5818984D02*
X3462801Y-5818984D01*
X3462801Y-5818984D02*
X3443753Y-5809460D01*
X3624705Y-5799936D02*
X3634229Y-5809460D01*
X3634229Y-5809460D02*
X3624705Y-5818984D01*
X3624705Y-5818984D02*
X3615182Y-5809460D01*
X3615182Y-5809460D02*
X3624705Y-5799936D01*
X3624705Y-5799936D02*
X3624705Y-5818984D01*
X3624705Y-5695174D02*
X3634229Y-5704698D01*
X3634229Y-5704698D02*
X3624705Y-5714222D01*
X3624705Y-5714222D02*
X3615182Y-5704698D01*
X3615182Y-5704698D02*
X3624705Y-5695174D01*
X3624705Y-5695174D02*
X3624705Y-5714222D01*
D13*
X1927500Y-6115000D02*
X1992500Y-6180000D01*
X1992500Y-6115000D02*
X1927500Y-6180000D01*
D12*
X2291372Y-6038984D02*
X2310420Y-6038984D01*
X2310420Y-6038984D02*
X2329467Y-6048508D01*
X2329467Y-6048508D02*
X2338991Y-6058031D01*
X2338991Y-6058031D02*
X2348515Y-6077079D01*
X2348515Y-6077079D02*
X2358039Y-6115174D01*
X2358039Y-6115174D02*
X2358039Y-6162793D01*
X2358039Y-6162793D02*
X2348515Y-6200888D01*
X2348515Y-6200888D02*
X2338991Y-6219936D01*
X2338991Y-6219936D02*
X2329467Y-6229460D01*
X2329467Y-6229460D02*
X2310420Y-6238984D01*
X2310420Y-6238984D02*
X2291372Y-6238984D01*
X2291372Y-6238984D02*
X2272324Y-6229460D01*
X2272324Y-6229460D02*
X2262801Y-6219936D01*
X2262801Y-6219936D02*
X2253277Y-6200888D01*
X2253277Y-6200888D02*
X2243753Y-6162793D01*
X2243753Y-6162793D02*
X2243753Y-6115174D01*
X2243753Y-6115174D02*
X2253277Y-6077079D01*
X2253277Y-6077079D02*
X2262801Y-6058031D01*
X2262801Y-6058031D02*
X2272324Y-6048508D01*
X2272324Y-6048508D02*
X2291372Y-6038984D01*
X2443753Y-6219936D02*
X2453277Y-6229460D01*
X2453277Y-6229460D02*
X2443753Y-6238984D01*
X2443753Y-6238984D02*
X2434229Y-6229460D01*
X2434229Y-6229460D02*
X2443753Y-6219936D01*
X2443753Y-6219936D02*
X2443753Y-6238984D01*
X2624705Y-6038984D02*
X2586610Y-6038984D01*
X2586610Y-6038984D02*
X2567563Y-6048508D01*
X2567563Y-6048508D02*
X2558039Y-6058031D01*
X2558039Y-6058031D02*
X2538991Y-6086603D01*
X2538991Y-6086603D02*
X2529467Y-6124698D01*
X2529467Y-6124698D02*
X2529467Y-6200888D01*
X2529467Y-6200888D02*
X2538991Y-6219936D01*
X2538991Y-6219936D02*
X2548515Y-6229460D01*
X2548515Y-6229460D02*
X2567563Y-6238984D01*
X2567563Y-6238984D02*
X2605658Y-6238984D01*
X2605658Y-6238984D02*
X2624705Y-6229460D01*
X2624705Y-6229460D02*
X2634229Y-6219936D01*
X2634229Y-6219936D02*
X2643753Y-6200888D01*
X2643753Y-6200888D02*
X2643753Y-6153269D01*
X2643753Y-6153269D02*
X2634229Y-6134222D01*
X2634229Y-6134222D02*
X2624705Y-6124698D01*
X2624705Y-6124698D02*
X2605658Y-6115174D01*
X2605658Y-6115174D02*
X2567563Y-6115174D01*
X2567563Y-6115174D02*
X2548515Y-6124698D01*
X2548515Y-6124698D02*
X2538991Y-6134222D01*
X2538991Y-6134222D02*
X2529467Y-6153269D01*
X2824705Y-6038984D02*
X2729467Y-6038984D01*
X2729467Y-6038984D02*
X2719944Y-6134222D01*
X2719944Y-6134222D02*
X2729467Y-6124698D01*
X2729467Y-6124698D02*
X2748515Y-6115174D01*
X2748515Y-6115174D02*
X2796134Y-6115174D01*
X2796134Y-6115174D02*
X2815182Y-6124698D01*
X2815182Y-6124698D02*
X2824705Y-6134222D01*
X2824705Y-6134222D02*
X2834229Y-6153269D01*
X2834229Y-6153269D02*
X2834229Y-6200888D01*
X2834229Y-6200888D02*
X2824705Y-6219936D01*
X2824705Y-6219936D02*
X2815182Y-6229460D01*
X2815182Y-6229460D02*
X2796134Y-6238984D01*
X2796134Y-6238984D02*
X2748515Y-6238984D01*
X2748515Y-6238984D02*
X2729467Y-6229460D01*
X2729467Y-6229460D02*
X2719944Y-6219936D01*
X2958039Y-6038984D02*
X2977086Y-6038984D01*
X2977086Y-6038984D02*
X2996134Y-6048508D01*
X2996134Y-6048508D02*
X3005658Y-6058031D01*
X3005658Y-6058031D02*
X3015182Y-6077079D01*
X3015182Y-6077079D02*
X3024705Y-6115174D01*
X3024705Y-6115174D02*
X3024705Y-6162793D01*
X3024705Y-6162793D02*
X3015182Y-6200888D01*
X3015182Y-6200888D02*
X3005658Y-6219936D01*
X3005658Y-6219936D02*
X2996134Y-6229460D01*
X2996134Y-6229460D02*
X2977086Y-6238984D01*
X2977086Y-6238984D02*
X2958039Y-6238984D01*
X2958039Y-6238984D02*
X2938991Y-6229460D01*
X2938991Y-6229460D02*
X2929467Y-6219936D01*
X2929467Y-6219936D02*
X2919943Y-6200888D01*
X2919943Y-6200888D02*
X2910420Y-6162793D01*
X2910420Y-6162793D02*
X2910420Y-6115174D01*
X2910420Y-6115174D02*
X2919943Y-6077079D01*
X2919943Y-6077079D02*
X2929467Y-6058031D01*
X2929467Y-6058031D02*
X2938991Y-6048508D01*
X2938991Y-6048508D02*
X2958039Y-6038984D01*
X3110420Y-6238984D02*
X3110420Y-6105650D01*
X3110420Y-6124698D02*
X3119943Y-6115174D01*
X3119943Y-6115174D02*
X3138991Y-6105650D01*
X3138991Y-6105650D02*
X3167563Y-6105650D01*
X3167563Y-6105650D02*
X3186610Y-6115174D01*
X3186610Y-6115174D02*
X3196134Y-6134222D01*
X3196134Y-6134222D02*
X3196134Y-6238984D01*
X3196134Y-6134222D02*
X3205658Y-6115174D01*
X3205658Y-6115174D02*
X3224705Y-6105650D01*
X3224705Y-6105650D02*
X3253277Y-6105650D01*
X3253277Y-6105650D02*
X3272324Y-6115174D01*
X3272324Y-6115174D02*
X3281848Y-6134222D01*
X3281848Y-6134222D02*
X3281848Y-6238984D01*
X3377086Y-6238984D02*
X3377086Y-6105650D01*
X3377086Y-6124698D02*
X3386610Y-6115174D01*
X3386610Y-6115174D02*
X3405658Y-6105650D01*
X3405658Y-6105650D02*
X3434229Y-6105650D01*
X3434229Y-6105650D02*
X3453277Y-6115174D01*
X3453277Y-6115174D02*
X3462801Y-6134222D01*
X3462801Y-6134222D02*
X3462801Y-6238984D01*
X3462801Y-6134222D02*
X3472324Y-6115174D01*
X3472324Y-6115174D02*
X3491372Y-6105650D01*
X3491372Y-6105650D02*
X3519943Y-6105650D01*
X3519943Y-6105650D02*
X3538991Y-6115174D01*
X3538991Y-6115174D02*
X3548515Y-6134222D01*
X3548515Y-6134222D02*
X3548515Y-6238984D01*
X3938991Y-6029460D02*
X3767563Y-6286603D01*
X4196134Y-6038984D02*
X4215182Y-6038984D01*
X4215182Y-6038984D02*
X4234229Y-6048508D01*
X4234229Y-6048508D02*
X4243753Y-6058031D01*
X4243753Y-6058031D02*
X4253277Y-6077079D01*
X4253277Y-6077079D02*
X4262801Y-6115174D01*
X4262801Y-6115174D02*
X4262801Y-6162793D01*
X4262801Y-6162793D02*
X4253277Y-6200888D01*
X4253277Y-6200888D02*
X4243753Y-6219936D01*
X4243753Y-6219936D02*
X4234229Y-6229460D01*
X4234229Y-6229460D02*
X4215182Y-6238984D01*
X4215182Y-6238984D02*
X4196134Y-6238984D01*
X4196134Y-6238984D02*
X4177086Y-6229460D01*
X4177086Y-6229460D02*
X4167563Y-6219936D01*
X4167563Y-6219936D02*
X4158039Y-6200888D01*
X4158039Y-6200888D02*
X4148515Y-6162793D01*
X4148515Y-6162793D02*
X4148515Y-6115174D01*
X4148515Y-6115174D02*
X4158039Y-6077079D01*
X4158039Y-6077079D02*
X4167563Y-6058031D01*
X4167563Y-6058031D02*
X4177086Y-6048508D01*
X4177086Y-6048508D02*
X4196134Y-6038984D01*
X4348515Y-6219936D02*
X4358039Y-6229460D01*
X4358039Y-6229460D02*
X4348515Y-6238984D01*
X4348515Y-6238984D02*
X4338991Y-6229460D01*
X4338991Y-6229460D02*
X4348515Y-6219936D01*
X4348515Y-6219936D02*
X4348515Y-6238984D01*
X4481848Y-6038984D02*
X4500896Y-6038984D01*
X4500896Y-6038984D02*
X4519944Y-6048508D01*
X4519944Y-6048508D02*
X4529468Y-6058031D01*
X4529468Y-6058031D02*
X4538991Y-6077079D01*
X4538991Y-6077079D02*
X4548515Y-6115174D01*
X4548515Y-6115174D02*
X4548515Y-6162793D01*
X4548515Y-6162793D02*
X4538991Y-6200888D01*
X4538991Y-6200888D02*
X4529468Y-6219936D01*
X4529468Y-6219936D02*
X4519944Y-6229460D01*
X4519944Y-6229460D02*
X4500896Y-6238984D01*
X4500896Y-6238984D02*
X4481848Y-6238984D01*
X4481848Y-6238984D02*
X4462801Y-6229460D01*
X4462801Y-6229460D02*
X4453277Y-6219936D01*
X4453277Y-6219936D02*
X4443753Y-6200888D01*
X4443753Y-6200888D02*
X4434229Y-6162793D01*
X4434229Y-6162793D02*
X4434229Y-6115174D01*
X4434229Y-6115174D02*
X4443753Y-6077079D01*
X4443753Y-6077079D02*
X4453277Y-6058031D01*
X4453277Y-6058031D02*
X4462801Y-6048508D01*
X4462801Y-6048508D02*
X4481848Y-6038984D01*
X4624706Y-6058031D02*
X4634229Y-6048508D01*
X4634229Y-6048508D02*
X4653277Y-6038984D01*
X4653277Y-6038984D02*
X4700896Y-6038984D01*
X4700896Y-6038984D02*
X4719944Y-6048508D01*
X4719944Y-6048508D02*
X4729468Y-6058031D01*
X4729468Y-6058031D02*
X4738991Y-6077079D01*
X4738991Y-6077079D02*
X4738991Y-6096127D01*
X4738991Y-6096127D02*
X4729468Y-6124698D01*
X4729468Y-6124698D02*
X4615182Y-6238984D01*
X4615182Y-6238984D02*
X4738991Y-6238984D01*
X4919944Y-6038984D02*
X4824706Y-6038984D01*
X4824706Y-6038984D02*
X4815182Y-6134222D01*
X4815182Y-6134222D02*
X4824706Y-6124698D01*
X4824706Y-6124698D02*
X4843753Y-6115174D01*
X4843753Y-6115174D02*
X4891372Y-6115174D01*
X4891372Y-6115174D02*
X4910420Y-6124698D01*
X4910420Y-6124698D02*
X4919944Y-6134222D01*
X4919944Y-6134222D02*
X4929468Y-6153269D01*
X4929468Y-6153269D02*
X4929468Y-6200888D01*
X4929468Y-6200888D02*
X4919944Y-6219936D01*
X4919944Y-6219936D02*
X4910420Y-6229460D01*
X4910420Y-6229460D02*
X4891372Y-6238984D01*
X4891372Y-6238984D02*
X4843753Y-6238984D01*
X4843753Y-6238984D02*
X4824706Y-6229460D01*
X4824706Y-6229460D02*
X4815182Y-6219936D01*
X5100896Y-6038984D02*
X5062801Y-6038984D01*
X5062801Y-6038984D02*
X5043753Y-6048508D01*
X5043753Y-6048508D02*
X5034229Y-6058031D01*
X5034229Y-6058031D02*
X5015182Y-6086603D01*
X5015182Y-6086603D02*
X5005658Y-6124698D01*
X5005658Y-6124698D02*
X5005658Y-6200888D01*
X5005658Y-6200888D02*
X5015182Y-6219936D01*
X5015182Y-6219936D02*
X5024706Y-6229460D01*
X5024706Y-6229460D02*
X5043753Y-6238984D01*
X5043753Y-6238984D02*
X5081849Y-6238984D01*
X5081849Y-6238984D02*
X5100896Y-6229460D01*
X5100896Y-6229460D02*
X5110420Y-6219936D01*
X5110420Y-6219936D02*
X5119944Y-6200888D01*
X5119944Y-6200888D02*
X5119944Y-6153269D01*
X5119944Y-6153269D02*
X5110420Y-6134222D01*
X5110420Y-6134222D02*
X5100896Y-6124698D01*
X5100896Y-6124698D02*
X5081849Y-6115174D01*
X5081849Y-6115174D02*
X5043753Y-6115174D01*
X5043753Y-6115174D02*
X5024706Y-6124698D01*
X5024706Y-6124698D02*
X5015182Y-6134222D01*
X5015182Y-6134222D02*
X5005658Y-6153269D01*
X5196134Y-6038984D02*
X5196134Y-6077079D01*
X5272325Y-6038984D02*
X5272325Y-6077079D01*
X5567563Y-6315174D02*
X5558039Y-6305650D01*
X5558039Y-6305650D02*
X5538991Y-6277079D01*
X5538991Y-6277079D02*
X5529468Y-6258031D01*
X5529468Y-6258031D02*
X5519944Y-6229460D01*
X5519944Y-6229460D02*
X5510420Y-6181841D01*
X5510420Y-6181841D02*
X5510420Y-6143746D01*
X5510420Y-6143746D02*
X5519944Y-6096127D01*
X5519944Y-6096127D02*
X5529468Y-6067555D01*
X5529468Y-6067555D02*
X5538991Y-6048508D01*
X5538991Y-6048508D02*
X5558039Y-6019936D01*
X5558039Y-6019936D02*
X5567563Y-6010412D01*
X5634229Y-6058031D02*
X5643753Y-6048508D01*
X5643753Y-6048508D02*
X5662801Y-6038984D01*
X5662801Y-6038984D02*
X5710420Y-6038984D01*
X5710420Y-6038984D02*
X5729468Y-6048508D01*
X5729468Y-6048508D02*
X5738991Y-6058031D01*
X5738991Y-6058031D02*
X5748515Y-6077079D01*
X5748515Y-6077079D02*
X5748515Y-6096127D01*
X5748515Y-6096127D02*
X5738991Y-6124698D01*
X5738991Y-6124698D02*
X5624706Y-6238984D01*
X5624706Y-6238984D02*
X5748515Y-6238984D01*
X5986610Y-6238984D02*
X5986610Y-6038984D01*
X6072325Y-6238984D02*
X6072325Y-6134222D01*
X6072325Y-6134222D02*
X6062801Y-6115174D01*
X6062801Y-6115174D02*
X6043753Y-6105650D01*
X6043753Y-6105650D02*
X6015182Y-6105650D01*
X6015182Y-6105650D02*
X5996134Y-6115174D01*
X5996134Y-6115174D02*
X5986610Y-6124698D01*
X6196134Y-6238984D02*
X6177087Y-6229460D01*
X6177087Y-6229460D02*
X6167563Y-6219936D01*
X6167563Y-6219936D02*
X6158039Y-6200888D01*
X6158039Y-6200888D02*
X6158039Y-6143746D01*
X6158039Y-6143746D02*
X6167563Y-6124698D01*
X6167563Y-6124698D02*
X6177087Y-6115174D01*
X6177087Y-6115174D02*
X6196134Y-6105650D01*
X6196134Y-6105650D02*
X6224706Y-6105650D01*
X6224706Y-6105650D02*
X6243753Y-6115174D01*
X6243753Y-6115174D02*
X6253277Y-6124698D01*
X6253277Y-6124698D02*
X6262801Y-6143746D01*
X6262801Y-6143746D02*
X6262801Y-6200888D01*
X6262801Y-6200888D02*
X6253277Y-6219936D01*
X6253277Y-6219936D02*
X6243753Y-6229460D01*
X6243753Y-6229460D02*
X6224706Y-6238984D01*
X6224706Y-6238984D02*
X6196134Y-6238984D01*
X6377087Y-6238984D02*
X6358039Y-6229460D01*
X6358039Y-6229460D02*
X6348515Y-6210412D01*
X6348515Y-6210412D02*
X6348515Y-6038984D01*
X6529468Y-6229460D02*
X6510420Y-6238984D01*
X6510420Y-6238984D02*
X6472325Y-6238984D01*
X6472325Y-6238984D02*
X6453277Y-6229460D01*
X6453277Y-6229460D02*
X6443753Y-6210412D01*
X6443753Y-6210412D02*
X6443753Y-6134222D01*
X6443753Y-6134222D02*
X6453277Y-6115174D01*
X6453277Y-6115174D02*
X6472325Y-6105650D01*
X6472325Y-6105650D02*
X6510420Y-6105650D01*
X6510420Y-6105650D02*
X6529468Y-6115174D01*
X6529468Y-6115174D02*
X6538991Y-6134222D01*
X6538991Y-6134222D02*
X6538991Y-6153269D01*
X6538991Y-6153269D02*
X6443753Y-6172317D01*
X6615182Y-6229460D02*
X6634230Y-6238984D01*
X6634230Y-6238984D02*
X6672325Y-6238984D01*
X6672325Y-6238984D02*
X6691372Y-6229460D01*
X6691372Y-6229460D02*
X6700896Y-6210412D01*
X6700896Y-6210412D02*
X6700896Y-6200888D01*
X6700896Y-6200888D02*
X6691372Y-6181841D01*
X6691372Y-6181841D02*
X6672325Y-6172317D01*
X6672325Y-6172317D02*
X6643753Y-6172317D01*
X6643753Y-6172317D02*
X6624706Y-6162793D01*
X6624706Y-6162793D02*
X6615182Y-6143746D01*
X6615182Y-6143746D02*
X6615182Y-6134222D01*
X6615182Y-6134222D02*
X6624706Y-6115174D01*
X6624706Y-6115174D02*
X6643753Y-6105650D01*
X6643753Y-6105650D02*
X6672325Y-6105650D01*
X6672325Y-6105650D02*
X6691372Y-6115174D01*
X6767563Y-6315174D02*
X6777087Y-6305650D01*
X6777087Y-6305650D02*
X6796134Y-6277079D01*
X6796134Y-6277079D02*
X6805658Y-6258031D01*
X6805658Y-6258031D02*
X6815182Y-6229460D01*
X6815182Y-6229460D02*
X6824706Y-6181841D01*
X6824706Y-6181841D02*
X6824706Y-6143746D01*
X6824706Y-6143746D02*
X6815182Y-6096127D01*
X6815182Y-6096127D02*
X6805658Y-6067555D01*
X6805658Y-6067555D02*
X6796134Y-6048508D01*
X6796134Y-6048508D02*
X6777087Y-6019936D01*
X6777087Y-6019936D02*
X6767563Y-6010412D01*
X7129468Y-6315174D02*
X7119944Y-6305650D01*
X7119944Y-6305650D02*
X7100896Y-6277079D01*
X7100896Y-6277079D02*
X7091372Y-6258031D01*
X7091372Y-6258031D02*
X7081849Y-6229460D01*
X7081849Y-6229460D02*
X7072325Y-6181841D01*
X7072325Y-6181841D02*
X7072325Y-6143746D01*
X7072325Y-6143746D02*
X7081849Y-6096127D01*
X7081849Y-6096127D02*
X7091372Y-6067555D01*
X7091372Y-6067555D02*
X7100896Y-6048508D01*
X7100896Y-6048508D02*
X7119944Y-6019936D01*
X7119944Y-6019936D02*
X7129468Y-6010412D01*
X7205658Y-6105650D02*
X7205658Y-6238984D01*
X7205658Y-6124698D02*
X7215182Y-6115174D01*
X7215182Y-6115174D02*
X7234230Y-6105650D01*
X7234230Y-6105650D02*
X7262801Y-6105650D01*
X7262801Y-6105650D02*
X7281849Y-6115174D01*
X7281849Y-6115174D02*
X7291372Y-6134222D01*
X7291372Y-6134222D02*
X7291372Y-6238984D01*
X7415182Y-6238984D02*
X7396134Y-6229460D01*
X7396134Y-6229460D02*
X7386611Y-6219936D01*
X7386611Y-6219936D02*
X7377087Y-6200888D01*
X7377087Y-6200888D02*
X7377087Y-6143746D01*
X7377087Y-6143746D02*
X7386611Y-6124698D01*
X7386611Y-6124698D02*
X7396134Y-6115174D01*
X7396134Y-6115174D02*
X7415182Y-6105650D01*
X7415182Y-6105650D02*
X7443753Y-6105650D01*
X7443753Y-6105650D02*
X7462801Y-6115174D01*
X7462801Y-6115174D02*
X7472325Y-6124698D01*
X7472325Y-6124698D02*
X7481849Y-6143746D01*
X7481849Y-6143746D02*
X7481849Y-6200888D01*
X7481849Y-6200888D02*
X7472325Y-6219936D01*
X7472325Y-6219936D02*
X7462801Y-6229460D01*
X7462801Y-6229460D02*
X7443753Y-6238984D01*
X7443753Y-6238984D02*
X7415182Y-6238984D01*
X7538992Y-6105650D02*
X7615182Y-6105650D01*
X7567563Y-6038984D02*
X7567563Y-6210412D01*
X7567563Y-6210412D02*
X7577087Y-6229460D01*
X7577087Y-6229460D02*
X7596134Y-6238984D01*
X7596134Y-6238984D02*
X7615182Y-6238984D01*
X7834230Y-6105650D02*
X7834230Y-6305650D01*
X7834230Y-6115174D02*
X7853277Y-6105650D01*
X7853277Y-6105650D02*
X7891373Y-6105650D01*
X7891373Y-6105650D02*
X7910420Y-6115174D01*
X7910420Y-6115174D02*
X7919944Y-6124698D01*
X7919944Y-6124698D02*
X7929468Y-6143746D01*
X7929468Y-6143746D02*
X7929468Y-6200888D01*
X7929468Y-6200888D02*
X7919944Y-6219936D01*
X7919944Y-6219936D02*
X7910420Y-6229460D01*
X7910420Y-6229460D02*
X7891373Y-6238984D01*
X7891373Y-6238984D02*
X7853277Y-6238984D01*
X7853277Y-6238984D02*
X7834230Y-6229460D01*
X8043753Y-6238984D02*
X8024706Y-6229460D01*
X8024706Y-6229460D02*
X8015182Y-6210412D01*
X8015182Y-6210412D02*
X8015182Y-6038984D01*
X8205658Y-6238984D02*
X8205658Y-6134222D01*
X8205658Y-6134222D02*
X8196134Y-6115174D01*
X8196134Y-6115174D02*
X8177087Y-6105650D01*
X8177087Y-6105650D02*
X8138992Y-6105650D01*
X8138992Y-6105650D02*
X8119944Y-6115174D01*
X8205658Y-6229460D02*
X8186611Y-6238984D01*
X8186611Y-6238984D02*
X8138992Y-6238984D01*
X8138992Y-6238984D02*
X8119944Y-6229460D01*
X8119944Y-6229460D02*
X8110420Y-6210412D01*
X8110420Y-6210412D02*
X8110420Y-6191365D01*
X8110420Y-6191365D02*
X8119944Y-6172317D01*
X8119944Y-6172317D02*
X8138992Y-6162793D01*
X8138992Y-6162793D02*
X8186611Y-6162793D01*
X8186611Y-6162793D02*
X8205658Y-6153269D01*
X8272325Y-6105650D02*
X8348515Y-6105650D01*
X8300896Y-6038984D02*
X8300896Y-6210412D01*
X8300896Y-6210412D02*
X8310420Y-6229460D01*
X8310420Y-6229460D02*
X8329468Y-6238984D01*
X8329468Y-6238984D02*
X8348515Y-6238984D01*
X8491373Y-6229460D02*
X8472325Y-6238984D01*
X8472325Y-6238984D02*
X8434230Y-6238984D01*
X8434230Y-6238984D02*
X8415182Y-6229460D01*
X8415182Y-6229460D02*
X8405658Y-6210412D01*
X8405658Y-6210412D02*
X8405658Y-6134222D01*
X8405658Y-6134222D02*
X8415182Y-6115174D01*
X8415182Y-6115174D02*
X8434230Y-6105650D01*
X8434230Y-6105650D02*
X8472325Y-6105650D01*
X8472325Y-6105650D02*
X8491373Y-6115174D01*
X8491373Y-6115174D02*
X8500896Y-6134222D01*
X8500896Y-6134222D02*
X8500896Y-6153269D01*
X8500896Y-6153269D02*
X8405658Y-6172317D01*
X8672325Y-6238984D02*
X8672325Y-6038984D01*
X8672325Y-6229460D02*
X8653277Y-6238984D01*
X8653277Y-6238984D02*
X8615182Y-6238984D01*
X8615182Y-6238984D02*
X8596135Y-6229460D01*
X8596135Y-6229460D02*
X8586611Y-6219936D01*
X8586611Y-6219936D02*
X8577087Y-6200888D01*
X8577087Y-6200888D02*
X8577087Y-6143746D01*
X8577087Y-6143746D02*
X8586611Y-6124698D01*
X8586611Y-6124698D02*
X8596135Y-6115174D01*
X8596135Y-6115174D02*
X8615182Y-6105650D01*
X8615182Y-6105650D02*
X8653277Y-6105650D01*
X8653277Y-6105650D02*
X8672325Y-6115174D01*
X8748516Y-6315174D02*
X8758039Y-6305650D01*
X8758039Y-6305650D02*
X8777087Y-6277079D01*
X8777087Y-6277079D02*
X8786611Y-6258031D01*
X8786611Y-6258031D02*
X8796135Y-6229460D01*
X8796135Y-6229460D02*
X8805658Y-6181841D01*
X8805658Y-6181841D02*
X8805658Y-6143746D01*
X8805658Y-6143746D02*
X8796135Y-6096127D01*
X8796135Y-6096127D02*
X8786611Y-6067555D01*
X8786611Y-6067555D02*
X8777087Y-6048508D01*
X8777087Y-6048508D02*
X8758039Y-6019936D01*
X8758039Y-6019936D02*
X8748516Y-6010412D01*
X1992500Y-6411500D02*
G75*
G03*
X1992500Y-6411500I-100000J0D01*
G01*
X2234229Y-6302984D02*
X2358039Y-6302984D01*
X2358039Y-6302984D02*
X2291372Y-6379174D01*
X2291372Y-6379174D02*
X2319944Y-6379174D01*
X2319944Y-6379174D02*
X2338991Y-6388698D01*
X2338991Y-6388698D02*
X2348515Y-6398222D01*
X2348515Y-6398222D02*
X2358039Y-6417269D01*
X2358039Y-6417269D02*
X2358039Y-6464888D01*
X2358039Y-6464888D02*
X2348515Y-6483936D01*
X2348515Y-6483936D02*
X2338991Y-6493460D01*
X2338991Y-6493460D02*
X2319944Y-6502984D01*
X2319944Y-6502984D02*
X2262801Y-6502984D01*
X2262801Y-6502984D02*
X2243753Y-6493460D01*
X2243753Y-6493460D02*
X2234229Y-6483936D01*
X2443753Y-6483936D02*
X2453277Y-6493460D01*
X2453277Y-6493460D02*
X2443753Y-6502984D01*
X2443753Y-6502984D02*
X2434229Y-6493460D01*
X2434229Y-6493460D02*
X2443753Y-6483936D01*
X2443753Y-6483936D02*
X2443753Y-6502984D01*
X2529467Y-6322031D02*
X2538991Y-6312508D01*
X2538991Y-6312508D02*
X2558039Y-6302984D01*
X2558039Y-6302984D02*
X2605658Y-6302984D01*
X2605658Y-6302984D02*
X2624705Y-6312508D01*
X2624705Y-6312508D02*
X2634229Y-6322031D01*
X2634229Y-6322031D02*
X2643753Y-6341079D01*
X2643753Y-6341079D02*
X2643753Y-6360127D01*
X2643753Y-6360127D02*
X2634229Y-6388698D01*
X2634229Y-6388698D02*
X2519944Y-6502984D01*
X2519944Y-6502984D02*
X2643753Y-6502984D01*
X2767563Y-6302984D02*
X2786610Y-6302984D01*
X2786610Y-6302984D02*
X2805658Y-6312508D01*
X2805658Y-6312508D02*
X2815182Y-6322031D01*
X2815182Y-6322031D02*
X2824705Y-6341079D01*
X2824705Y-6341079D02*
X2834229Y-6379174D01*
X2834229Y-6379174D02*
X2834229Y-6426793D01*
X2834229Y-6426793D02*
X2824705Y-6464888D01*
X2824705Y-6464888D02*
X2815182Y-6483936D01*
X2815182Y-6483936D02*
X2805658Y-6493460D01*
X2805658Y-6493460D02*
X2786610Y-6502984D01*
X2786610Y-6502984D02*
X2767563Y-6502984D01*
X2767563Y-6502984D02*
X2748515Y-6493460D01*
X2748515Y-6493460D02*
X2738991Y-6483936D01*
X2738991Y-6483936D02*
X2729467Y-6464888D01*
X2729467Y-6464888D02*
X2719944Y-6426793D01*
X2719944Y-6426793D02*
X2719944Y-6379174D01*
X2719944Y-6379174D02*
X2729467Y-6341079D01*
X2729467Y-6341079D02*
X2738991Y-6322031D01*
X2738991Y-6322031D02*
X2748515Y-6312508D01*
X2748515Y-6312508D02*
X2767563Y-6302984D01*
X2958039Y-6302984D02*
X2977086Y-6302984D01*
X2977086Y-6302984D02*
X2996134Y-6312508D01*
X2996134Y-6312508D02*
X3005658Y-6322031D01*
X3005658Y-6322031D02*
X3015182Y-6341079D01*
X3015182Y-6341079D02*
X3024705Y-6379174D01*
X3024705Y-6379174D02*
X3024705Y-6426793D01*
X3024705Y-6426793D02*
X3015182Y-6464888D01*
X3015182Y-6464888D02*
X3005658Y-6483936D01*
X3005658Y-6483936D02*
X2996134Y-6493460D01*
X2996134Y-6493460D02*
X2977086Y-6502984D01*
X2977086Y-6502984D02*
X2958039Y-6502984D01*
X2958039Y-6502984D02*
X2938991Y-6493460D01*
X2938991Y-6493460D02*
X2929467Y-6483936D01*
X2929467Y-6483936D02*
X2919943Y-6464888D01*
X2919943Y-6464888D02*
X2910420Y-6426793D01*
X2910420Y-6426793D02*
X2910420Y-6379174D01*
X2910420Y-6379174D02*
X2919943Y-6341079D01*
X2919943Y-6341079D02*
X2929467Y-6322031D01*
X2929467Y-6322031D02*
X2938991Y-6312508D01*
X2938991Y-6312508D02*
X2958039Y-6302984D01*
X3110420Y-6502984D02*
X3110420Y-6369650D01*
X3110420Y-6388698D02*
X3119943Y-6379174D01*
X3119943Y-6379174D02*
X3138991Y-6369650D01*
X3138991Y-6369650D02*
X3167563Y-6369650D01*
X3167563Y-6369650D02*
X3186610Y-6379174D01*
X3186610Y-6379174D02*
X3196134Y-6398222D01*
X3196134Y-6398222D02*
X3196134Y-6502984D01*
X3196134Y-6398222D02*
X3205658Y-6379174D01*
X3205658Y-6379174D02*
X3224705Y-6369650D01*
X3224705Y-6369650D02*
X3253277Y-6369650D01*
X3253277Y-6369650D02*
X3272324Y-6379174D01*
X3272324Y-6379174D02*
X3281848Y-6398222D01*
X3281848Y-6398222D02*
X3281848Y-6502984D01*
X3377086Y-6502984D02*
X3377086Y-6369650D01*
X3377086Y-6388698D02*
X3386610Y-6379174D01*
X3386610Y-6379174D02*
X3405658Y-6369650D01*
X3405658Y-6369650D02*
X3434229Y-6369650D01*
X3434229Y-6369650D02*
X3453277Y-6379174D01*
X3453277Y-6379174D02*
X3462801Y-6398222D01*
X3462801Y-6398222D02*
X3462801Y-6502984D01*
X3462801Y-6398222D02*
X3472324Y-6379174D01*
X3472324Y-6379174D02*
X3491372Y-6369650D01*
X3491372Y-6369650D02*
X3519943Y-6369650D01*
X3519943Y-6369650D02*
X3538991Y-6379174D01*
X3538991Y-6379174D02*
X3548515Y-6398222D01*
X3548515Y-6398222D02*
X3548515Y-6502984D01*
X3938991Y-6293460D02*
X3767563Y-6550603D01*
X4196134Y-6302984D02*
X4215182Y-6302984D01*
X4215182Y-6302984D02*
X4234229Y-6312508D01*
X4234229Y-6312508D02*
X4243753Y-6322031D01*
X4243753Y-6322031D02*
X4253277Y-6341079D01*
X4253277Y-6341079D02*
X4262801Y-6379174D01*
X4262801Y-6379174D02*
X4262801Y-6426793D01*
X4262801Y-6426793D02*
X4253277Y-6464888D01*
X4253277Y-6464888D02*
X4243753Y-6483936D01*
X4243753Y-6483936D02*
X4234229Y-6493460D01*
X4234229Y-6493460D02*
X4215182Y-6502984D01*
X4215182Y-6502984D02*
X4196134Y-6502984D01*
X4196134Y-6502984D02*
X4177086Y-6493460D01*
X4177086Y-6493460D02*
X4167563Y-6483936D01*
X4167563Y-6483936D02*
X4158039Y-6464888D01*
X4158039Y-6464888D02*
X4148515Y-6426793D01*
X4148515Y-6426793D02*
X4148515Y-6379174D01*
X4148515Y-6379174D02*
X4158039Y-6341079D01*
X4158039Y-6341079D02*
X4167563Y-6322031D01*
X4167563Y-6322031D02*
X4177086Y-6312508D01*
X4177086Y-6312508D02*
X4196134Y-6302984D01*
X4348515Y-6483936D02*
X4358039Y-6493460D01*
X4358039Y-6493460D02*
X4348515Y-6502984D01*
X4348515Y-6502984D02*
X4338991Y-6493460D01*
X4338991Y-6493460D02*
X4348515Y-6483936D01*
X4348515Y-6483936D02*
X4348515Y-6502984D01*
X4548515Y-6502984D02*
X4434229Y-6502984D01*
X4491372Y-6502984D02*
X4491372Y-6302984D01*
X4491372Y-6302984D02*
X4472325Y-6331555D01*
X4472325Y-6331555D02*
X4453277Y-6350603D01*
X4453277Y-6350603D02*
X4434229Y-6360127D01*
X4624706Y-6322031D02*
X4634229Y-6312508D01*
X4634229Y-6312508D02*
X4653277Y-6302984D01*
X4653277Y-6302984D02*
X4700896Y-6302984D01*
X4700896Y-6302984D02*
X4719944Y-6312508D01*
X4719944Y-6312508D02*
X4729468Y-6322031D01*
X4729468Y-6322031D02*
X4738991Y-6341079D01*
X4738991Y-6341079D02*
X4738991Y-6360127D01*
X4738991Y-6360127D02*
X4729468Y-6388698D01*
X4729468Y-6388698D02*
X4615182Y-6502984D01*
X4615182Y-6502984D02*
X4738991Y-6502984D01*
X4910420Y-6302984D02*
X4872325Y-6302984D01*
X4872325Y-6302984D02*
X4853277Y-6312508D01*
X4853277Y-6312508D02*
X4843753Y-6322031D01*
X4843753Y-6322031D02*
X4824706Y-6350603D01*
X4824706Y-6350603D02*
X4815182Y-6388698D01*
X4815182Y-6388698D02*
X4815182Y-6464888D01*
X4815182Y-6464888D02*
X4824706Y-6483936D01*
X4824706Y-6483936D02*
X4834229Y-6493460D01*
X4834229Y-6493460D02*
X4853277Y-6502984D01*
X4853277Y-6502984D02*
X4891372Y-6502984D01*
X4891372Y-6502984D02*
X4910420Y-6493460D01*
X4910420Y-6493460D02*
X4919944Y-6483936D01*
X4919944Y-6483936D02*
X4929468Y-6464888D01*
X4929468Y-6464888D02*
X4929468Y-6417269D01*
X4929468Y-6417269D02*
X4919944Y-6398222D01*
X4919944Y-6398222D02*
X4910420Y-6388698D01*
X4910420Y-6388698D02*
X4891372Y-6379174D01*
X4891372Y-6379174D02*
X4853277Y-6379174D01*
X4853277Y-6379174D02*
X4834229Y-6388698D01*
X4834229Y-6388698D02*
X4824706Y-6398222D01*
X4824706Y-6398222D02*
X4815182Y-6417269D01*
X5053277Y-6302984D02*
X5072325Y-6302984D01*
X5072325Y-6302984D02*
X5091372Y-6312508D01*
X5091372Y-6312508D02*
X5100896Y-6322031D01*
X5100896Y-6322031D02*
X5110420Y-6341079D01*
X5110420Y-6341079D02*
X5119944Y-6379174D01*
X5119944Y-6379174D02*
X5119944Y-6426793D01*
X5119944Y-6426793D02*
X5110420Y-6464888D01*
X5110420Y-6464888D02*
X5100896Y-6483936D01*
X5100896Y-6483936D02*
X5091372Y-6493460D01*
X5091372Y-6493460D02*
X5072325Y-6502984D01*
X5072325Y-6502984D02*
X5053277Y-6502984D01*
X5053277Y-6502984D02*
X5034229Y-6493460D01*
X5034229Y-6493460D02*
X5024706Y-6483936D01*
X5024706Y-6483936D02*
X5015182Y-6464888D01*
X5015182Y-6464888D02*
X5005658Y-6426793D01*
X5005658Y-6426793D02*
X5005658Y-6379174D01*
X5005658Y-6379174D02*
X5015182Y-6341079D01*
X5015182Y-6341079D02*
X5024706Y-6322031D01*
X5024706Y-6322031D02*
X5034229Y-6312508D01*
X5034229Y-6312508D02*
X5053277Y-6302984D01*
X5196134Y-6302984D02*
X5196134Y-6341079D01*
X5272325Y-6302984D02*
X5272325Y-6341079D01*
X5567563Y-6579174D02*
X5558039Y-6569650D01*
X5558039Y-6569650D02*
X5538991Y-6541079D01*
X5538991Y-6541079D02*
X5529468Y-6522031D01*
X5529468Y-6522031D02*
X5519944Y-6493460D01*
X5519944Y-6493460D02*
X5510420Y-6445841D01*
X5510420Y-6445841D02*
X5510420Y-6407746D01*
X5510420Y-6407746D02*
X5519944Y-6360127D01*
X5519944Y-6360127D02*
X5529468Y-6331555D01*
X5529468Y-6331555D02*
X5538991Y-6312508D01*
X5538991Y-6312508D02*
X5558039Y-6283936D01*
X5558039Y-6283936D02*
X5567563Y-6274412D01*
X5634229Y-6322031D02*
X5643753Y-6312508D01*
X5643753Y-6312508D02*
X5662801Y-6302984D01*
X5662801Y-6302984D02*
X5710420Y-6302984D01*
X5710420Y-6302984D02*
X5729468Y-6312508D01*
X5729468Y-6312508D02*
X5738991Y-6322031D01*
X5738991Y-6322031D02*
X5748515Y-6341079D01*
X5748515Y-6341079D02*
X5748515Y-6360127D01*
X5748515Y-6360127D02*
X5738991Y-6388698D01*
X5738991Y-6388698D02*
X5624706Y-6502984D01*
X5624706Y-6502984D02*
X5748515Y-6502984D01*
X5986610Y-6502984D02*
X5986610Y-6302984D01*
X6072325Y-6502984D02*
X6072325Y-6398222D01*
X6072325Y-6398222D02*
X6062801Y-6379174D01*
X6062801Y-6379174D02*
X6043753Y-6369650D01*
X6043753Y-6369650D02*
X6015182Y-6369650D01*
X6015182Y-6369650D02*
X5996134Y-6379174D01*
X5996134Y-6379174D02*
X5986610Y-6388698D01*
X6196134Y-6502984D02*
X6177087Y-6493460D01*
X6177087Y-6493460D02*
X6167563Y-6483936D01*
X6167563Y-6483936D02*
X6158039Y-6464888D01*
X6158039Y-6464888D02*
X6158039Y-6407746D01*
X6158039Y-6407746D02*
X6167563Y-6388698D01*
X6167563Y-6388698D02*
X6177087Y-6379174D01*
X6177087Y-6379174D02*
X6196134Y-6369650D01*
X6196134Y-6369650D02*
X6224706Y-6369650D01*
X6224706Y-6369650D02*
X6243753Y-6379174D01*
X6243753Y-6379174D02*
X6253277Y-6388698D01*
X6253277Y-6388698D02*
X6262801Y-6407746D01*
X6262801Y-6407746D02*
X6262801Y-6464888D01*
X6262801Y-6464888D02*
X6253277Y-6483936D01*
X6253277Y-6483936D02*
X6243753Y-6493460D01*
X6243753Y-6493460D02*
X6224706Y-6502984D01*
X6224706Y-6502984D02*
X6196134Y-6502984D01*
X6377087Y-6502984D02*
X6358039Y-6493460D01*
X6358039Y-6493460D02*
X6348515Y-6474412D01*
X6348515Y-6474412D02*
X6348515Y-6302984D01*
X6529468Y-6493460D02*
X6510420Y-6502984D01*
X6510420Y-6502984D02*
X6472325Y-6502984D01*
X6472325Y-6502984D02*
X6453277Y-6493460D01*
X6453277Y-6493460D02*
X6443753Y-6474412D01*
X6443753Y-6474412D02*
X6443753Y-6398222D01*
X6443753Y-6398222D02*
X6453277Y-6379174D01*
X6453277Y-6379174D02*
X6472325Y-6369650D01*
X6472325Y-6369650D02*
X6510420Y-6369650D01*
X6510420Y-6369650D02*
X6529468Y-6379174D01*
X6529468Y-6379174D02*
X6538991Y-6398222D01*
X6538991Y-6398222D02*
X6538991Y-6417269D01*
X6538991Y-6417269D02*
X6443753Y-6436317D01*
X6615182Y-6493460D02*
X6634230Y-6502984D01*
X6634230Y-6502984D02*
X6672325Y-6502984D01*
X6672325Y-6502984D02*
X6691372Y-6493460D01*
X6691372Y-6493460D02*
X6700896Y-6474412D01*
X6700896Y-6474412D02*
X6700896Y-6464888D01*
X6700896Y-6464888D02*
X6691372Y-6445841D01*
X6691372Y-6445841D02*
X6672325Y-6436317D01*
X6672325Y-6436317D02*
X6643753Y-6436317D01*
X6643753Y-6436317D02*
X6624706Y-6426793D01*
X6624706Y-6426793D02*
X6615182Y-6407746D01*
X6615182Y-6407746D02*
X6615182Y-6398222D01*
X6615182Y-6398222D02*
X6624706Y-6379174D01*
X6624706Y-6379174D02*
X6643753Y-6369650D01*
X6643753Y-6369650D02*
X6672325Y-6369650D01*
X6672325Y-6369650D02*
X6691372Y-6379174D01*
X6767563Y-6579174D02*
X6777087Y-6569650D01*
X6777087Y-6569650D02*
X6796134Y-6541079D01*
X6796134Y-6541079D02*
X6805658Y-6522031D01*
X6805658Y-6522031D02*
X6815182Y-6493460D01*
X6815182Y-6493460D02*
X6824706Y-6445841D01*
X6824706Y-6445841D02*
X6824706Y-6407746D01*
X6824706Y-6407746D02*
X6815182Y-6360127D01*
X6815182Y-6360127D02*
X6805658Y-6331555D01*
X6805658Y-6331555D02*
X6796134Y-6312508D01*
X6796134Y-6312508D02*
X6777087Y-6283936D01*
X6777087Y-6283936D02*
X6767563Y-6274412D01*
X7129468Y-6579174D02*
X7119944Y-6569650D01*
X7119944Y-6569650D02*
X7100896Y-6541079D01*
X7100896Y-6541079D02*
X7091372Y-6522031D01*
X7091372Y-6522031D02*
X7081849Y-6493460D01*
X7081849Y-6493460D02*
X7072325Y-6445841D01*
X7072325Y-6445841D02*
X7072325Y-6407746D01*
X7072325Y-6407746D02*
X7081849Y-6360127D01*
X7081849Y-6360127D02*
X7091372Y-6331555D01*
X7091372Y-6331555D02*
X7100896Y-6312508D01*
X7100896Y-6312508D02*
X7119944Y-6283936D01*
X7119944Y-6283936D02*
X7129468Y-6274412D01*
X7205658Y-6369650D02*
X7205658Y-6502984D01*
X7205658Y-6388698D02*
X7215182Y-6379174D01*
X7215182Y-6379174D02*
X7234230Y-6369650D01*
X7234230Y-6369650D02*
X7262801Y-6369650D01*
X7262801Y-6369650D02*
X7281849Y-6379174D01*
X7281849Y-6379174D02*
X7291372Y-6398222D01*
X7291372Y-6398222D02*
X7291372Y-6502984D01*
X7415182Y-6502984D02*
X7396134Y-6493460D01*
X7396134Y-6493460D02*
X7386611Y-6483936D01*
X7386611Y-6483936D02*
X7377087Y-6464888D01*
X7377087Y-6464888D02*
X7377087Y-6407746D01*
X7377087Y-6407746D02*
X7386611Y-6388698D01*
X7386611Y-6388698D02*
X7396134Y-6379174D01*
X7396134Y-6379174D02*
X7415182Y-6369650D01*
X7415182Y-6369650D02*
X7443753Y-6369650D01*
X7443753Y-6369650D02*
X7462801Y-6379174D01*
X7462801Y-6379174D02*
X7472325Y-6388698D01*
X7472325Y-6388698D02*
X7481849Y-6407746D01*
X7481849Y-6407746D02*
X7481849Y-6464888D01*
X7481849Y-6464888D02*
X7472325Y-6483936D01*
X7472325Y-6483936D02*
X7462801Y-6493460D01*
X7462801Y-6493460D02*
X7443753Y-6502984D01*
X7443753Y-6502984D02*
X7415182Y-6502984D01*
X7538992Y-6369650D02*
X7615182Y-6369650D01*
X7567563Y-6302984D02*
X7567563Y-6474412D01*
X7567563Y-6474412D02*
X7577087Y-6493460D01*
X7577087Y-6493460D02*
X7596134Y-6502984D01*
X7596134Y-6502984D02*
X7615182Y-6502984D01*
X7834230Y-6369650D02*
X7834230Y-6569650D01*
X7834230Y-6379174D02*
X7853277Y-6369650D01*
X7853277Y-6369650D02*
X7891373Y-6369650D01*
X7891373Y-6369650D02*
X7910420Y-6379174D01*
X7910420Y-6379174D02*
X7919944Y-6388698D01*
X7919944Y-6388698D02*
X7929468Y-6407746D01*
X7929468Y-6407746D02*
X7929468Y-6464888D01*
X7929468Y-6464888D02*
X7919944Y-6483936D01*
X7919944Y-6483936D02*
X7910420Y-6493460D01*
X7910420Y-6493460D02*
X7891373Y-6502984D01*
X7891373Y-6502984D02*
X7853277Y-6502984D01*
X7853277Y-6502984D02*
X7834230Y-6493460D01*
X8043753Y-6502984D02*
X8024706Y-6493460D01*
X8024706Y-6493460D02*
X8015182Y-6474412D01*
X8015182Y-6474412D02*
X8015182Y-6302984D01*
X8205658Y-6502984D02*
X8205658Y-6398222D01*
X8205658Y-6398222D02*
X8196134Y-6379174D01*
X8196134Y-6379174D02*
X8177087Y-6369650D01*
X8177087Y-6369650D02*
X8138992Y-6369650D01*
X8138992Y-6369650D02*
X8119944Y-6379174D01*
X8205658Y-6493460D02*
X8186611Y-6502984D01*
X8186611Y-6502984D02*
X8138992Y-6502984D01*
X8138992Y-6502984D02*
X8119944Y-6493460D01*
X8119944Y-6493460D02*
X8110420Y-6474412D01*
X8110420Y-6474412D02*
X8110420Y-6455365D01*
X8110420Y-6455365D02*
X8119944Y-6436317D01*
X8119944Y-6436317D02*
X8138992Y-6426793D01*
X8138992Y-6426793D02*
X8186611Y-6426793D01*
X8186611Y-6426793D02*
X8205658Y-6417269D01*
X8272325Y-6369650D02*
X8348515Y-6369650D01*
X8300896Y-6302984D02*
X8300896Y-6474412D01*
X8300896Y-6474412D02*
X8310420Y-6493460D01*
X8310420Y-6493460D02*
X8329468Y-6502984D01*
X8329468Y-6502984D02*
X8348515Y-6502984D01*
X8491373Y-6493460D02*
X8472325Y-6502984D01*
X8472325Y-6502984D02*
X8434230Y-6502984D01*
X8434230Y-6502984D02*
X8415182Y-6493460D01*
X8415182Y-6493460D02*
X8405658Y-6474412D01*
X8405658Y-6474412D02*
X8405658Y-6398222D01*
X8405658Y-6398222D02*
X8415182Y-6379174D01*
X8415182Y-6379174D02*
X8434230Y-6369650D01*
X8434230Y-6369650D02*
X8472325Y-6369650D01*
X8472325Y-6369650D02*
X8491373Y-6379174D01*
X8491373Y-6379174D02*
X8500896Y-6398222D01*
X8500896Y-6398222D02*
X8500896Y-6417269D01*
X8500896Y-6417269D02*
X8405658Y-6436317D01*
X8672325Y-6502984D02*
X8672325Y-6302984D01*
X8672325Y-6493460D02*
X8653277Y-6502984D01*
X8653277Y-6502984D02*
X8615182Y-6502984D01*
X8615182Y-6502984D02*
X8596135Y-6493460D01*
X8596135Y-6493460D02*
X8586611Y-6483936D01*
X8586611Y-6483936D02*
X8577087Y-6464888D01*
X8577087Y-6464888D02*
X8577087Y-6407746D01*
X8577087Y-6407746D02*
X8586611Y-6388698D01*
X8586611Y-6388698D02*
X8596135Y-6379174D01*
X8596135Y-6379174D02*
X8615182Y-6369650D01*
X8615182Y-6369650D02*
X8653277Y-6369650D01*
X8653277Y-6369650D02*
X8672325Y-6379174D01*
X8748516Y-6579174D02*
X8758039Y-6569650D01*
X8758039Y-6569650D02*
X8777087Y-6541079D01*
X8777087Y-6541079D02*
X8786611Y-6522031D01*
X8786611Y-6522031D02*
X8796135Y-6493460D01*
X8796135Y-6493460D02*
X8805658Y-6445841D01*
X8805658Y-6445841D02*
X8805658Y-6407746D01*
X8805658Y-6407746D02*
X8796135Y-6360127D01*
X8796135Y-6360127D02*
X8786611Y-6331555D01*
X8786611Y-6331555D02*
X8777087Y-6312508D01*
X8777087Y-6312508D02*
X8758039Y-6283936D01*
X8758039Y-6283936D02*
X8748516Y-6274412D01*
M02*
