%TF.GenerationSoftware,KiCad,Pcbnew,7.0.7*%
%TF.CreationDate,2024-03-04T03:02:07-08:00*%
%TF.ProjectId,can_magnetic_angle_sensor,63616e5f-6d61-4676-9e65-7469635f616e,rev?*%
%TF.SameCoordinates,Original*%
%TF.FileFunction,Legend,Bot*%
%TF.FilePolarity,Positive*%
%FSLAX46Y46*%
G04 Gerber Fmt 4.6, Leading zero omitted, Abs format (unit mm)*
G04 Created by KiCad (PCBNEW 7.0.7) date 2024-03-04 03:02:07*
%MOMM*%
%LPD*%
G01*
G04 APERTURE LIST*
%ADD10C,0.150000*%
%ADD11C,0.120000*%
%ADD12C,0.100000*%
G04 APERTURE END LIST*
D10*
X43736104Y-27885714D02*
X43774200Y-27847618D01*
X43774200Y-27847618D02*
X43812295Y-27733333D01*
X43812295Y-27733333D02*
X43812295Y-27657142D01*
X43812295Y-27657142D02*
X43774200Y-27542856D01*
X43774200Y-27542856D02*
X43698009Y-27466666D01*
X43698009Y-27466666D02*
X43621819Y-27428571D01*
X43621819Y-27428571D02*
X43469438Y-27390475D01*
X43469438Y-27390475D02*
X43355152Y-27390475D01*
X43355152Y-27390475D02*
X43202771Y-27428571D01*
X43202771Y-27428571D02*
X43126580Y-27466666D01*
X43126580Y-27466666D02*
X43050390Y-27542856D01*
X43050390Y-27542856D02*
X43012295Y-27657142D01*
X43012295Y-27657142D02*
X43012295Y-27733333D01*
X43012295Y-27733333D02*
X43050390Y-27847618D01*
X43050390Y-27847618D02*
X43088485Y-27885714D01*
X43812295Y-28647618D02*
X43812295Y-28190475D01*
X43812295Y-28419047D02*
X43012295Y-28419047D01*
X43012295Y-28419047D02*
X43126580Y-28342856D01*
X43126580Y-28342856D02*
X43202771Y-28266666D01*
X43202771Y-28266666D02*
X43240866Y-28190475D01*
X43012295Y-28914285D02*
X43012295Y-29447619D01*
X43012295Y-29447619D02*
X43812295Y-29104761D01*
X53917857Y-27059580D02*
X53965476Y-27107200D01*
X53965476Y-27107200D02*
X54108333Y-27154819D01*
X54108333Y-27154819D02*
X54203571Y-27154819D01*
X54203571Y-27154819D02*
X54346428Y-27107200D01*
X54346428Y-27107200D02*
X54441666Y-27011961D01*
X54441666Y-27011961D02*
X54489285Y-26916723D01*
X54489285Y-26916723D02*
X54536904Y-26726247D01*
X54536904Y-26726247D02*
X54536904Y-26583390D01*
X54536904Y-26583390D02*
X54489285Y-26392914D01*
X54489285Y-26392914D02*
X54441666Y-26297676D01*
X54441666Y-26297676D02*
X54346428Y-26202438D01*
X54346428Y-26202438D02*
X54203571Y-26154819D01*
X54203571Y-26154819D02*
X54108333Y-26154819D01*
X54108333Y-26154819D02*
X53965476Y-26202438D01*
X53965476Y-26202438D02*
X53917857Y-26250057D01*
X53536904Y-26250057D02*
X53489285Y-26202438D01*
X53489285Y-26202438D02*
X53394047Y-26154819D01*
X53394047Y-26154819D02*
X53155952Y-26154819D01*
X53155952Y-26154819D02*
X53060714Y-26202438D01*
X53060714Y-26202438D02*
X53013095Y-26250057D01*
X53013095Y-26250057D02*
X52965476Y-26345295D01*
X52965476Y-26345295D02*
X52965476Y-26440533D01*
X52965476Y-26440533D02*
X53013095Y-26583390D01*
X53013095Y-26583390D02*
X53584523Y-27154819D01*
X53584523Y-27154819D02*
X52965476Y-27154819D01*
X52346428Y-26154819D02*
X52251190Y-26154819D01*
X52251190Y-26154819D02*
X52155952Y-26202438D01*
X52155952Y-26202438D02*
X52108333Y-26250057D01*
X52108333Y-26250057D02*
X52060714Y-26345295D01*
X52060714Y-26345295D02*
X52013095Y-26535771D01*
X52013095Y-26535771D02*
X52013095Y-26773866D01*
X52013095Y-26773866D02*
X52060714Y-26964342D01*
X52060714Y-26964342D02*
X52108333Y-27059580D01*
X52108333Y-27059580D02*
X52155952Y-27107200D01*
X52155952Y-27107200D02*
X52251190Y-27154819D01*
X52251190Y-27154819D02*
X52346428Y-27154819D01*
X52346428Y-27154819D02*
X52441666Y-27107200D01*
X52441666Y-27107200D02*
X52489285Y-27059580D01*
X52489285Y-27059580D02*
X52536904Y-26964342D01*
X52536904Y-26964342D02*
X52584523Y-26773866D01*
X52584523Y-26773866D02*
X52584523Y-26535771D01*
X52584523Y-26535771D02*
X52536904Y-26345295D01*
X52536904Y-26345295D02*
X52489285Y-26250057D01*
X52489285Y-26250057D02*
X52441666Y-26202438D01*
X52441666Y-26202438D02*
X52346428Y-26154819D01*
X39534819Y-47538095D02*
X40344342Y-47538095D01*
X40344342Y-47538095D02*
X40439580Y-47585714D01*
X40439580Y-47585714D02*
X40487200Y-47633333D01*
X40487200Y-47633333D02*
X40534819Y-47728571D01*
X40534819Y-47728571D02*
X40534819Y-47919047D01*
X40534819Y-47919047D02*
X40487200Y-48014285D01*
X40487200Y-48014285D02*
X40439580Y-48061904D01*
X40439580Y-48061904D02*
X40344342Y-48109523D01*
X40344342Y-48109523D02*
X39534819Y-48109523D01*
X39534819Y-49061904D02*
X39534819Y-48585714D01*
X39534819Y-48585714D02*
X40011009Y-48538095D01*
X40011009Y-48538095D02*
X39963390Y-48585714D01*
X39963390Y-48585714D02*
X39915771Y-48680952D01*
X39915771Y-48680952D02*
X39915771Y-48919047D01*
X39915771Y-48919047D02*
X39963390Y-49014285D01*
X39963390Y-49014285D02*
X40011009Y-49061904D01*
X40011009Y-49061904D02*
X40106247Y-49109523D01*
X40106247Y-49109523D02*
X40344342Y-49109523D01*
X40344342Y-49109523D02*
X40439580Y-49061904D01*
X40439580Y-49061904D02*
X40487200Y-49014285D01*
X40487200Y-49014285D02*
X40534819Y-48919047D01*
X40534819Y-48919047D02*
X40534819Y-48680952D01*
X40534819Y-48680952D02*
X40487200Y-48585714D01*
X40487200Y-48585714D02*
X40439580Y-48538095D01*
X51794285Y-35686104D02*
X51832381Y-35724200D01*
X51832381Y-35724200D02*
X51946666Y-35762295D01*
X51946666Y-35762295D02*
X52022857Y-35762295D01*
X52022857Y-35762295D02*
X52137143Y-35724200D01*
X52137143Y-35724200D02*
X52213333Y-35648009D01*
X52213333Y-35648009D02*
X52251428Y-35571819D01*
X52251428Y-35571819D02*
X52289524Y-35419438D01*
X52289524Y-35419438D02*
X52289524Y-35305152D01*
X52289524Y-35305152D02*
X52251428Y-35152771D01*
X52251428Y-35152771D02*
X52213333Y-35076580D01*
X52213333Y-35076580D02*
X52137143Y-35000390D01*
X52137143Y-35000390D02*
X52022857Y-34962295D01*
X52022857Y-34962295D02*
X51946666Y-34962295D01*
X51946666Y-34962295D02*
X51832381Y-35000390D01*
X51832381Y-35000390D02*
X51794285Y-35038485D01*
X51032381Y-35762295D02*
X51489524Y-35762295D01*
X51260952Y-35762295D02*
X51260952Y-34962295D01*
X51260952Y-34962295D02*
X51337143Y-35076580D01*
X51337143Y-35076580D02*
X51413333Y-35152771D01*
X51413333Y-35152771D02*
X51489524Y-35190866D01*
X50270476Y-35762295D02*
X50727619Y-35762295D01*
X50499047Y-35762295D02*
X50499047Y-34962295D01*
X50499047Y-34962295D02*
X50575238Y-35076580D01*
X50575238Y-35076580D02*
X50651428Y-35152771D01*
X50651428Y-35152771D02*
X50727619Y-35190866D01*
X46662295Y-52985714D02*
X46281342Y-52719047D01*
X46662295Y-52528571D02*
X45862295Y-52528571D01*
X45862295Y-52528571D02*
X45862295Y-52833333D01*
X45862295Y-52833333D02*
X45900390Y-52909523D01*
X45900390Y-52909523D02*
X45938485Y-52947618D01*
X45938485Y-52947618D02*
X46014676Y-52985714D01*
X46014676Y-52985714D02*
X46128961Y-52985714D01*
X46128961Y-52985714D02*
X46205152Y-52947618D01*
X46205152Y-52947618D02*
X46243247Y-52909523D01*
X46243247Y-52909523D02*
X46281342Y-52833333D01*
X46281342Y-52833333D02*
X46281342Y-52528571D01*
X46662295Y-53747618D02*
X46662295Y-53290475D01*
X46662295Y-53519047D02*
X45862295Y-53519047D01*
X45862295Y-53519047D02*
X45976580Y-53442856D01*
X45976580Y-53442856D02*
X46052771Y-53366666D01*
X46052771Y-53366666D02*
X46090866Y-53290475D01*
X46662295Y-54509523D02*
X46662295Y-54052380D01*
X46662295Y-54280952D02*
X45862295Y-54280952D01*
X45862295Y-54280952D02*
X45976580Y-54204761D01*
X45976580Y-54204761D02*
X46052771Y-54128571D01*
X46052771Y-54128571D02*
X46090866Y-54052380D01*
X51976190Y-45328628D02*
X51976190Y-45804819D01*
X52309523Y-44804819D02*
X51976190Y-45328628D01*
X51976190Y-45328628D02*
X51642857Y-44804819D01*
X51357142Y-44900057D02*
X51309523Y-44852438D01*
X51309523Y-44852438D02*
X51214285Y-44804819D01*
X51214285Y-44804819D02*
X50976190Y-44804819D01*
X50976190Y-44804819D02*
X50880952Y-44852438D01*
X50880952Y-44852438D02*
X50833333Y-44900057D01*
X50833333Y-44900057D02*
X50785714Y-44995295D01*
X50785714Y-44995295D02*
X50785714Y-45090533D01*
X50785714Y-45090533D02*
X50833333Y-45233390D01*
X50833333Y-45233390D02*
X51404761Y-45804819D01*
X51404761Y-45804819D02*
X50785714Y-45804819D01*
X52222857Y-52269580D02*
X52270476Y-52317200D01*
X52270476Y-52317200D02*
X52413333Y-52364819D01*
X52413333Y-52364819D02*
X52508571Y-52364819D01*
X52508571Y-52364819D02*
X52651428Y-52317200D01*
X52651428Y-52317200D02*
X52746666Y-52221961D01*
X52746666Y-52221961D02*
X52794285Y-52126723D01*
X52794285Y-52126723D02*
X52841904Y-51936247D01*
X52841904Y-51936247D02*
X52841904Y-51793390D01*
X52841904Y-51793390D02*
X52794285Y-51602914D01*
X52794285Y-51602914D02*
X52746666Y-51507676D01*
X52746666Y-51507676D02*
X52651428Y-51412438D01*
X52651428Y-51412438D02*
X52508571Y-51364819D01*
X52508571Y-51364819D02*
X52413333Y-51364819D01*
X52413333Y-51364819D02*
X52270476Y-51412438D01*
X52270476Y-51412438D02*
X52222857Y-51460057D01*
X51841904Y-51460057D02*
X51794285Y-51412438D01*
X51794285Y-51412438D02*
X51699047Y-51364819D01*
X51699047Y-51364819D02*
X51460952Y-51364819D01*
X51460952Y-51364819D02*
X51365714Y-51412438D01*
X51365714Y-51412438D02*
X51318095Y-51460057D01*
X51318095Y-51460057D02*
X51270476Y-51555295D01*
X51270476Y-51555295D02*
X51270476Y-51650533D01*
X51270476Y-51650533D02*
X51318095Y-51793390D01*
X51318095Y-51793390D02*
X51889523Y-52364819D01*
X51889523Y-52364819D02*
X51270476Y-52364819D01*
X50937142Y-51364819D02*
X50318095Y-51364819D01*
X50318095Y-51364819D02*
X50651428Y-51745771D01*
X50651428Y-51745771D02*
X50508571Y-51745771D01*
X50508571Y-51745771D02*
X50413333Y-51793390D01*
X50413333Y-51793390D02*
X50365714Y-51841009D01*
X50365714Y-51841009D02*
X50318095Y-51936247D01*
X50318095Y-51936247D02*
X50318095Y-52174342D01*
X50318095Y-52174342D02*
X50365714Y-52269580D01*
X50365714Y-52269580D02*
X50413333Y-52317200D01*
X50413333Y-52317200D02*
X50508571Y-52364819D01*
X50508571Y-52364819D02*
X50794285Y-52364819D01*
X50794285Y-52364819D02*
X50889523Y-52317200D01*
X50889523Y-52317200D02*
X50937142Y-52269580D01*
X30033332Y-30886104D02*
X30071428Y-30924200D01*
X30071428Y-30924200D02*
X30185713Y-30962295D01*
X30185713Y-30962295D02*
X30261904Y-30962295D01*
X30261904Y-30962295D02*
X30376190Y-30924200D01*
X30376190Y-30924200D02*
X30452380Y-30848009D01*
X30452380Y-30848009D02*
X30490475Y-30771819D01*
X30490475Y-30771819D02*
X30528571Y-30619438D01*
X30528571Y-30619438D02*
X30528571Y-30505152D01*
X30528571Y-30505152D02*
X30490475Y-30352771D01*
X30490475Y-30352771D02*
X30452380Y-30276580D01*
X30452380Y-30276580D02*
X30376190Y-30200390D01*
X30376190Y-30200390D02*
X30261904Y-30162295D01*
X30261904Y-30162295D02*
X30185713Y-30162295D01*
X30185713Y-30162295D02*
X30071428Y-30200390D01*
X30071428Y-30200390D02*
X30033332Y-30238485D01*
X29347618Y-30428961D02*
X29347618Y-30962295D01*
X29538094Y-30124200D02*
X29728571Y-30695628D01*
X29728571Y-30695628D02*
X29233332Y-30695628D01*
X30033332Y-27836104D02*
X30071428Y-27874200D01*
X30071428Y-27874200D02*
X30185713Y-27912295D01*
X30185713Y-27912295D02*
X30261904Y-27912295D01*
X30261904Y-27912295D02*
X30376190Y-27874200D01*
X30376190Y-27874200D02*
X30452380Y-27798009D01*
X30452380Y-27798009D02*
X30490475Y-27721819D01*
X30490475Y-27721819D02*
X30528571Y-27569438D01*
X30528571Y-27569438D02*
X30528571Y-27455152D01*
X30528571Y-27455152D02*
X30490475Y-27302771D01*
X30490475Y-27302771D02*
X30452380Y-27226580D01*
X30452380Y-27226580D02*
X30376190Y-27150390D01*
X30376190Y-27150390D02*
X30261904Y-27112295D01*
X30261904Y-27112295D02*
X30185713Y-27112295D01*
X30185713Y-27112295D02*
X30071428Y-27150390D01*
X30071428Y-27150390D02*
X30033332Y-27188485D01*
X29309523Y-27112295D02*
X29690475Y-27112295D01*
X29690475Y-27112295D02*
X29728571Y-27493247D01*
X29728571Y-27493247D02*
X29690475Y-27455152D01*
X29690475Y-27455152D02*
X29614285Y-27417057D01*
X29614285Y-27417057D02*
X29423809Y-27417057D01*
X29423809Y-27417057D02*
X29347618Y-27455152D01*
X29347618Y-27455152D02*
X29309523Y-27493247D01*
X29309523Y-27493247D02*
X29271428Y-27569438D01*
X29271428Y-27569438D02*
X29271428Y-27759914D01*
X29271428Y-27759914D02*
X29309523Y-27836104D01*
X29309523Y-27836104D02*
X29347618Y-27874200D01*
X29347618Y-27874200D02*
X29423809Y-27912295D01*
X29423809Y-27912295D02*
X29614285Y-27912295D01*
X29614285Y-27912295D02*
X29690475Y-27874200D01*
X29690475Y-27874200D02*
X29728571Y-27836104D01*
X33292857Y-31009580D02*
X33340476Y-31057200D01*
X33340476Y-31057200D02*
X33483333Y-31104819D01*
X33483333Y-31104819D02*
X33578571Y-31104819D01*
X33578571Y-31104819D02*
X33721428Y-31057200D01*
X33721428Y-31057200D02*
X33816666Y-30961961D01*
X33816666Y-30961961D02*
X33864285Y-30866723D01*
X33864285Y-30866723D02*
X33911904Y-30676247D01*
X33911904Y-30676247D02*
X33911904Y-30533390D01*
X33911904Y-30533390D02*
X33864285Y-30342914D01*
X33864285Y-30342914D02*
X33816666Y-30247676D01*
X33816666Y-30247676D02*
X33721428Y-30152438D01*
X33721428Y-30152438D02*
X33578571Y-30104819D01*
X33578571Y-30104819D02*
X33483333Y-30104819D01*
X33483333Y-30104819D02*
X33340476Y-30152438D01*
X33340476Y-30152438D02*
X33292857Y-30200057D01*
X32340476Y-31104819D02*
X32911904Y-31104819D01*
X32626190Y-31104819D02*
X32626190Y-30104819D01*
X32626190Y-30104819D02*
X32721428Y-30247676D01*
X32721428Y-30247676D02*
X32816666Y-30342914D01*
X32816666Y-30342914D02*
X32911904Y-30390533D01*
X31959523Y-30200057D02*
X31911904Y-30152438D01*
X31911904Y-30152438D02*
X31816666Y-30104819D01*
X31816666Y-30104819D02*
X31578571Y-30104819D01*
X31578571Y-30104819D02*
X31483333Y-30152438D01*
X31483333Y-30152438D02*
X31435714Y-30200057D01*
X31435714Y-30200057D02*
X31388095Y-30295295D01*
X31388095Y-30295295D02*
X31388095Y-30390533D01*
X31388095Y-30390533D02*
X31435714Y-30533390D01*
X31435714Y-30533390D02*
X32007142Y-31104819D01*
X32007142Y-31104819D02*
X31388095Y-31104819D01*
X23959523Y-22450390D02*
X24035713Y-22412295D01*
X24035713Y-22412295D02*
X24149999Y-22412295D01*
X24149999Y-22412295D02*
X24264285Y-22450390D01*
X24264285Y-22450390D02*
X24340475Y-22526580D01*
X24340475Y-22526580D02*
X24378570Y-22602771D01*
X24378570Y-22602771D02*
X24416666Y-22755152D01*
X24416666Y-22755152D02*
X24416666Y-22869438D01*
X24416666Y-22869438D02*
X24378570Y-23021819D01*
X24378570Y-23021819D02*
X24340475Y-23098009D01*
X24340475Y-23098009D02*
X24264285Y-23174200D01*
X24264285Y-23174200D02*
X24149999Y-23212295D01*
X24149999Y-23212295D02*
X24073808Y-23212295D01*
X24073808Y-23212295D02*
X23959523Y-23174200D01*
X23959523Y-23174200D02*
X23921427Y-23136104D01*
X23921427Y-23136104D02*
X23921427Y-22869438D01*
X23921427Y-22869438D02*
X24073808Y-22869438D01*
X23578570Y-23212295D02*
X23578570Y-22412295D01*
X23578570Y-22412295D02*
X23121427Y-23212295D01*
X23121427Y-23212295D02*
X23121427Y-22412295D01*
X22740475Y-23212295D02*
X22740475Y-22412295D01*
X22740475Y-22412295D02*
X22549999Y-22412295D01*
X22549999Y-22412295D02*
X22435713Y-22450390D01*
X22435713Y-22450390D02*
X22359523Y-22526580D01*
X22359523Y-22526580D02*
X22321428Y-22602771D01*
X22321428Y-22602771D02*
X22283332Y-22755152D01*
X22283332Y-22755152D02*
X22283332Y-22869438D01*
X22283332Y-22869438D02*
X22321428Y-23021819D01*
X22321428Y-23021819D02*
X22359523Y-23098009D01*
X22359523Y-23098009D02*
X22435713Y-23174200D01*
X22435713Y-23174200D02*
X22549999Y-23212295D01*
X22549999Y-23212295D02*
X22740475Y-23212295D01*
X51794285Y-37986104D02*
X51832381Y-38024200D01*
X51832381Y-38024200D02*
X51946666Y-38062295D01*
X51946666Y-38062295D02*
X52022857Y-38062295D01*
X52022857Y-38062295D02*
X52137143Y-38024200D01*
X52137143Y-38024200D02*
X52213333Y-37948009D01*
X52213333Y-37948009D02*
X52251428Y-37871819D01*
X52251428Y-37871819D02*
X52289524Y-37719438D01*
X52289524Y-37719438D02*
X52289524Y-37605152D01*
X52289524Y-37605152D02*
X52251428Y-37452771D01*
X52251428Y-37452771D02*
X52213333Y-37376580D01*
X52213333Y-37376580D02*
X52137143Y-37300390D01*
X52137143Y-37300390D02*
X52022857Y-37262295D01*
X52022857Y-37262295D02*
X51946666Y-37262295D01*
X51946666Y-37262295D02*
X51832381Y-37300390D01*
X51832381Y-37300390D02*
X51794285Y-37338485D01*
X51032381Y-38062295D02*
X51489524Y-38062295D01*
X51260952Y-38062295D02*
X51260952Y-37262295D01*
X51260952Y-37262295D02*
X51337143Y-37376580D01*
X51337143Y-37376580D02*
X51413333Y-37452771D01*
X51413333Y-37452771D02*
X51489524Y-37490866D01*
X50346666Y-37528961D02*
X50346666Y-38062295D01*
X50537142Y-37224200D02*
X50727619Y-37795628D01*
X50727619Y-37795628D02*
X50232380Y-37795628D01*
X41662295Y-52766667D02*
X41281342Y-52500000D01*
X41662295Y-52309524D02*
X40862295Y-52309524D01*
X40862295Y-52309524D02*
X40862295Y-52614286D01*
X40862295Y-52614286D02*
X40900390Y-52690476D01*
X40900390Y-52690476D02*
X40938485Y-52728571D01*
X40938485Y-52728571D02*
X41014676Y-52766667D01*
X41014676Y-52766667D02*
X41128961Y-52766667D01*
X41128961Y-52766667D02*
X41205152Y-52728571D01*
X41205152Y-52728571D02*
X41243247Y-52690476D01*
X41243247Y-52690476D02*
X41281342Y-52614286D01*
X41281342Y-52614286D02*
X41281342Y-52309524D01*
X40862295Y-53033333D02*
X40862295Y-53566667D01*
X40862295Y-53566667D02*
X41662295Y-53223809D01*
X54159580Y-48907142D02*
X54207200Y-48859523D01*
X54207200Y-48859523D02*
X54254819Y-48716666D01*
X54254819Y-48716666D02*
X54254819Y-48621428D01*
X54254819Y-48621428D02*
X54207200Y-48478571D01*
X54207200Y-48478571D02*
X54111961Y-48383333D01*
X54111961Y-48383333D02*
X54016723Y-48335714D01*
X54016723Y-48335714D02*
X53826247Y-48288095D01*
X53826247Y-48288095D02*
X53683390Y-48288095D01*
X53683390Y-48288095D02*
X53492914Y-48335714D01*
X53492914Y-48335714D02*
X53397676Y-48383333D01*
X53397676Y-48383333D02*
X53302438Y-48478571D01*
X53302438Y-48478571D02*
X53254819Y-48621428D01*
X53254819Y-48621428D02*
X53254819Y-48716666D01*
X53254819Y-48716666D02*
X53302438Y-48859523D01*
X53302438Y-48859523D02*
X53350057Y-48907142D01*
X53350057Y-49288095D02*
X53302438Y-49335714D01*
X53302438Y-49335714D02*
X53254819Y-49430952D01*
X53254819Y-49430952D02*
X53254819Y-49669047D01*
X53254819Y-49669047D02*
X53302438Y-49764285D01*
X53302438Y-49764285D02*
X53350057Y-49811904D01*
X53350057Y-49811904D02*
X53445295Y-49859523D01*
X53445295Y-49859523D02*
X53540533Y-49859523D01*
X53540533Y-49859523D02*
X53683390Y-49811904D01*
X53683390Y-49811904D02*
X54254819Y-49240476D01*
X54254819Y-49240476D02*
X54254819Y-49859523D01*
X53350057Y-50240476D02*
X53302438Y-50288095D01*
X53302438Y-50288095D02*
X53254819Y-50383333D01*
X53254819Y-50383333D02*
X53254819Y-50621428D01*
X53254819Y-50621428D02*
X53302438Y-50716666D01*
X53302438Y-50716666D02*
X53350057Y-50764285D01*
X53350057Y-50764285D02*
X53445295Y-50811904D01*
X53445295Y-50811904D02*
X53540533Y-50811904D01*
X53540533Y-50811904D02*
X53683390Y-50764285D01*
X53683390Y-50764285D02*
X54254819Y-50192857D01*
X54254819Y-50192857D02*
X54254819Y-50811904D01*
X33457142Y-50731009D02*
X33314285Y-50778628D01*
X33314285Y-50778628D02*
X33266666Y-50826247D01*
X33266666Y-50826247D02*
X33219047Y-50921485D01*
X33219047Y-50921485D02*
X33219047Y-51064342D01*
X33219047Y-51064342D02*
X33266666Y-51159580D01*
X33266666Y-51159580D02*
X33314285Y-51207200D01*
X33314285Y-51207200D02*
X33409523Y-51254819D01*
X33409523Y-51254819D02*
X33790475Y-51254819D01*
X33790475Y-51254819D02*
X33790475Y-50254819D01*
X33790475Y-50254819D02*
X33457142Y-50254819D01*
X33457142Y-50254819D02*
X33361904Y-50302438D01*
X33361904Y-50302438D02*
X33314285Y-50350057D01*
X33314285Y-50350057D02*
X33266666Y-50445295D01*
X33266666Y-50445295D02*
X33266666Y-50540533D01*
X33266666Y-50540533D02*
X33314285Y-50635771D01*
X33314285Y-50635771D02*
X33361904Y-50683390D01*
X33361904Y-50683390D02*
X33457142Y-50731009D01*
X33457142Y-50731009D02*
X33790475Y-50731009D01*
X32599999Y-50254819D02*
X32409523Y-50254819D01*
X32409523Y-50254819D02*
X32314285Y-50302438D01*
X32314285Y-50302438D02*
X32219047Y-50397676D01*
X32219047Y-50397676D02*
X32171428Y-50588152D01*
X32171428Y-50588152D02*
X32171428Y-50921485D01*
X32171428Y-50921485D02*
X32219047Y-51111961D01*
X32219047Y-51111961D02*
X32314285Y-51207200D01*
X32314285Y-51207200D02*
X32409523Y-51254819D01*
X32409523Y-51254819D02*
X32599999Y-51254819D01*
X32599999Y-51254819D02*
X32695237Y-51207200D01*
X32695237Y-51207200D02*
X32790475Y-51111961D01*
X32790475Y-51111961D02*
X32838094Y-50921485D01*
X32838094Y-50921485D02*
X32838094Y-50588152D01*
X32838094Y-50588152D02*
X32790475Y-50397676D01*
X32790475Y-50397676D02*
X32695237Y-50302438D01*
X32695237Y-50302438D02*
X32599999Y-50254819D01*
X31552380Y-50254819D02*
X31361904Y-50254819D01*
X31361904Y-50254819D02*
X31266666Y-50302438D01*
X31266666Y-50302438D02*
X31171428Y-50397676D01*
X31171428Y-50397676D02*
X31123809Y-50588152D01*
X31123809Y-50588152D02*
X31123809Y-50921485D01*
X31123809Y-50921485D02*
X31171428Y-51111961D01*
X31171428Y-51111961D02*
X31266666Y-51207200D01*
X31266666Y-51207200D02*
X31361904Y-51254819D01*
X31361904Y-51254819D02*
X31552380Y-51254819D01*
X31552380Y-51254819D02*
X31647618Y-51207200D01*
X31647618Y-51207200D02*
X31742856Y-51111961D01*
X31742856Y-51111961D02*
X31790475Y-50921485D01*
X31790475Y-50921485D02*
X31790475Y-50588152D01*
X31790475Y-50588152D02*
X31742856Y-50397676D01*
X31742856Y-50397676D02*
X31647618Y-50302438D01*
X31647618Y-50302438D02*
X31552380Y-50254819D01*
X30838094Y-50254819D02*
X30266666Y-50254819D01*
X30552380Y-51254819D02*
X30552380Y-50254819D01*
X51694285Y-40086104D02*
X51732381Y-40124200D01*
X51732381Y-40124200D02*
X51846666Y-40162295D01*
X51846666Y-40162295D02*
X51922857Y-40162295D01*
X51922857Y-40162295D02*
X52037143Y-40124200D01*
X52037143Y-40124200D02*
X52113333Y-40048009D01*
X52113333Y-40048009D02*
X52151428Y-39971819D01*
X52151428Y-39971819D02*
X52189524Y-39819438D01*
X52189524Y-39819438D02*
X52189524Y-39705152D01*
X52189524Y-39705152D02*
X52151428Y-39552771D01*
X52151428Y-39552771D02*
X52113333Y-39476580D01*
X52113333Y-39476580D02*
X52037143Y-39400390D01*
X52037143Y-39400390D02*
X51922857Y-39362295D01*
X51922857Y-39362295D02*
X51846666Y-39362295D01*
X51846666Y-39362295D02*
X51732381Y-39400390D01*
X51732381Y-39400390D02*
X51694285Y-39438485D01*
X50932381Y-40162295D02*
X51389524Y-40162295D01*
X51160952Y-40162295D02*
X51160952Y-39362295D01*
X51160952Y-39362295D02*
X51237143Y-39476580D01*
X51237143Y-39476580D02*
X51313333Y-39552771D01*
X51313333Y-39552771D02*
X51389524Y-39590866D01*
X50246666Y-39362295D02*
X50399047Y-39362295D01*
X50399047Y-39362295D02*
X50475238Y-39400390D01*
X50475238Y-39400390D02*
X50513333Y-39438485D01*
X50513333Y-39438485D02*
X50589523Y-39552771D01*
X50589523Y-39552771D02*
X50627619Y-39705152D01*
X50627619Y-39705152D02*
X50627619Y-40009914D01*
X50627619Y-40009914D02*
X50589523Y-40086104D01*
X50589523Y-40086104D02*
X50551428Y-40124200D01*
X50551428Y-40124200D02*
X50475238Y-40162295D01*
X50475238Y-40162295D02*
X50322857Y-40162295D01*
X50322857Y-40162295D02*
X50246666Y-40124200D01*
X50246666Y-40124200D02*
X50208571Y-40086104D01*
X50208571Y-40086104D02*
X50170476Y-40009914D01*
X50170476Y-40009914D02*
X50170476Y-39819438D01*
X50170476Y-39819438D02*
X50208571Y-39743247D01*
X50208571Y-39743247D02*
X50246666Y-39705152D01*
X50246666Y-39705152D02*
X50322857Y-39667057D01*
X50322857Y-39667057D02*
X50475238Y-39667057D01*
X50475238Y-39667057D02*
X50551428Y-39705152D01*
X50551428Y-39705152D02*
X50589523Y-39743247D01*
X50589523Y-39743247D02*
X50627619Y-39819438D01*
X38552381Y-51154819D02*
X38885714Y-50678628D01*
X39123809Y-51154819D02*
X39123809Y-50154819D01*
X39123809Y-50154819D02*
X38742857Y-50154819D01*
X38742857Y-50154819D02*
X38647619Y-50202438D01*
X38647619Y-50202438D02*
X38600000Y-50250057D01*
X38600000Y-50250057D02*
X38552381Y-50345295D01*
X38552381Y-50345295D02*
X38552381Y-50488152D01*
X38552381Y-50488152D02*
X38600000Y-50583390D01*
X38600000Y-50583390D02*
X38647619Y-50631009D01*
X38647619Y-50631009D02*
X38742857Y-50678628D01*
X38742857Y-50678628D02*
X39123809Y-50678628D01*
X38123809Y-50631009D02*
X37790476Y-50631009D01*
X37647619Y-51154819D02*
X38123809Y-51154819D01*
X38123809Y-51154819D02*
X38123809Y-50154819D01*
X38123809Y-50154819D02*
X37647619Y-50154819D01*
X37266666Y-51107200D02*
X37123809Y-51154819D01*
X37123809Y-51154819D02*
X36885714Y-51154819D01*
X36885714Y-51154819D02*
X36790476Y-51107200D01*
X36790476Y-51107200D02*
X36742857Y-51059580D01*
X36742857Y-51059580D02*
X36695238Y-50964342D01*
X36695238Y-50964342D02*
X36695238Y-50869104D01*
X36695238Y-50869104D02*
X36742857Y-50773866D01*
X36742857Y-50773866D02*
X36790476Y-50726247D01*
X36790476Y-50726247D02*
X36885714Y-50678628D01*
X36885714Y-50678628D02*
X37076190Y-50631009D01*
X37076190Y-50631009D02*
X37171428Y-50583390D01*
X37171428Y-50583390D02*
X37219047Y-50535771D01*
X37219047Y-50535771D02*
X37266666Y-50440533D01*
X37266666Y-50440533D02*
X37266666Y-50345295D01*
X37266666Y-50345295D02*
X37219047Y-50250057D01*
X37219047Y-50250057D02*
X37171428Y-50202438D01*
X37171428Y-50202438D02*
X37076190Y-50154819D01*
X37076190Y-50154819D02*
X36838095Y-50154819D01*
X36838095Y-50154819D02*
X36695238Y-50202438D01*
X36266666Y-50631009D02*
X35933333Y-50631009D01*
X35790476Y-51154819D02*
X36266666Y-51154819D01*
X36266666Y-51154819D02*
X36266666Y-50154819D01*
X36266666Y-50154819D02*
X35790476Y-50154819D01*
X35504761Y-50154819D02*
X34933333Y-50154819D01*
X35219047Y-51154819D02*
X35219047Y-50154819D01*
X45271428Y-35174200D02*
X45157142Y-35212295D01*
X45157142Y-35212295D02*
X44966666Y-35212295D01*
X44966666Y-35212295D02*
X44890475Y-35174200D01*
X44890475Y-35174200D02*
X44852380Y-35136104D01*
X44852380Y-35136104D02*
X44814285Y-35059914D01*
X44814285Y-35059914D02*
X44814285Y-34983723D01*
X44814285Y-34983723D02*
X44852380Y-34907533D01*
X44852380Y-34907533D02*
X44890475Y-34869438D01*
X44890475Y-34869438D02*
X44966666Y-34831342D01*
X44966666Y-34831342D02*
X45119047Y-34793247D01*
X45119047Y-34793247D02*
X45195237Y-34755152D01*
X45195237Y-34755152D02*
X45233332Y-34717057D01*
X45233332Y-34717057D02*
X45271428Y-34640866D01*
X45271428Y-34640866D02*
X45271428Y-34564676D01*
X45271428Y-34564676D02*
X45233332Y-34488485D01*
X45233332Y-34488485D02*
X45195237Y-34450390D01*
X45195237Y-34450390D02*
X45119047Y-34412295D01*
X45119047Y-34412295D02*
X44928570Y-34412295D01*
X44928570Y-34412295D02*
X44814285Y-34450390D01*
X44471427Y-35212295D02*
X44471427Y-34412295D01*
X44471427Y-34412295D02*
X44280951Y-34412295D01*
X44280951Y-34412295D02*
X44166665Y-34450390D01*
X44166665Y-34450390D02*
X44090475Y-34526580D01*
X44090475Y-34526580D02*
X44052380Y-34602771D01*
X44052380Y-34602771D02*
X44014284Y-34755152D01*
X44014284Y-34755152D02*
X44014284Y-34869438D01*
X44014284Y-34869438D02*
X44052380Y-35021819D01*
X44052380Y-35021819D02*
X44090475Y-35098009D01*
X44090475Y-35098009D02*
X44166665Y-35174200D01*
X44166665Y-35174200D02*
X44280951Y-35212295D01*
X44280951Y-35212295D02*
X44471427Y-35212295D01*
X43709523Y-34983723D02*
X43328570Y-34983723D01*
X43785713Y-35212295D02*
X43519046Y-34412295D01*
X43519046Y-34412295D02*
X43252380Y-35212295D01*
X28162295Y-50509524D02*
X27362295Y-50509524D01*
X27362295Y-50509524D02*
X27362295Y-50700000D01*
X27362295Y-50700000D02*
X27400390Y-50814286D01*
X27400390Y-50814286D02*
X27476580Y-50890476D01*
X27476580Y-50890476D02*
X27552771Y-50928571D01*
X27552771Y-50928571D02*
X27705152Y-50966667D01*
X27705152Y-50966667D02*
X27819438Y-50966667D01*
X27819438Y-50966667D02*
X27971819Y-50928571D01*
X27971819Y-50928571D02*
X28048009Y-50890476D01*
X28048009Y-50890476D02*
X28124200Y-50814286D01*
X28124200Y-50814286D02*
X28162295Y-50700000D01*
X28162295Y-50700000D02*
X28162295Y-50509524D01*
X28162295Y-51728571D02*
X28162295Y-51271428D01*
X28162295Y-51500000D02*
X27362295Y-51500000D01*
X27362295Y-51500000D02*
X27476580Y-51423809D01*
X27476580Y-51423809D02*
X27552771Y-51347619D01*
X27552771Y-51347619D02*
X27590866Y-51271428D01*
X51794285Y-36886104D02*
X51832381Y-36924200D01*
X51832381Y-36924200D02*
X51946666Y-36962295D01*
X51946666Y-36962295D02*
X52022857Y-36962295D01*
X52022857Y-36962295D02*
X52137143Y-36924200D01*
X52137143Y-36924200D02*
X52213333Y-36848009D01*
X52213333Y-36848009D02*
X52251428Y-36771819D01*
X52251428Y-36771819D02*
X52289524Y-36619438D01*
X52289524Y-36619438D02*
X52289524Y-36505152D01*
X52289524Y-36505152D02*
X52251428Y-36352771D01*
X52251428Y-36352771D02*
X52213333Y-36276580D01*
X52213333Y-36276580D02*
X52137143Y-36200390D01*
X52137143Y-36200390D02*
X52022857Y-36162295D01*
X52022857Y-36162295D02*
X51946666Y-36162295D01*
X51946666Y-36162295D02*
X51832381Y-36200390D01*
X51832381Y-36200390D02*
X51794285Y-36238485D01*
X51032381Y-36962295D02*
X51489524Y-36962295D01*
X51260952Y-36962295D02*
X51260952Y-36162295D01*
X51260952Y-36162295D02*
X51337143Y-36276580D01*
X51337143Y-36276580D02*
X51413333Y-36352771D01*
X51413333Y-36352771D02*
X51489524Y-36390866D01*
X50765714Y-36162295D02*
X50270476Y-36162295D01*
X50270476Y-36162295D02*
X50537142Y-36467057D01*
X50537142Y-36467057D02*
X50422857Y-36467057D01*
X50422857Y-36467057D02*
X50346666Y-36505152D01*
X50346666Y-36505152D02*
X50308571Y-36543247D01*
X50308571Y-36543247D02*
X50270476Y-36619438D01*
X50270476Y-36619438D02*
X50270476Y-36809914D01*
X50270476Y-36809914D02*
X50308571Y-36886104D01*
X50308571Y-36886104D02*
X50346666Y-36924200D01*
X50346666Y-36924200D02*
X50422857Y-36962295D01*
X50422857Y-36962295D02*
X50651428Y-36962295D01*
X50651428Y-36962295D02*
X50727619Y-36924200D01*
X50727619Y-36924200D02*
X50765714Y-36886104D01*
X29262295Y-51016667D02*
X28881342Y-50750000D01*
X29262295Y-50559524D02*
X28462295Y-50559524D01*
X28462295Y-50559524D02*
X28462295Y-50864286D01*
X28462295Y-50864286D02*
X28500390Y-50940476D01*
X28500390Y-50940476D02*
X28538485Y-50978571D01*
X28538485Y-50978571D02*
X28614676Y-51016667D01*
X28614676Y-51016667D02*
X28728961Y-51016667D01*
X28728961Y-51016667D02*
X28805152Y-50978571D01*
X28805152Y-50978571D02*
X28843247Y-50940476D01*
X28843247Y-50940476D02*
X28881342Y-50864286D01*
X28881342Y-50864286D02*
X28881342Y-50559524D01*
X29262295Y-51778571D02*
X29262295Y-51321428D01*
X29262295Y-51550000D02*
X28462295Y-51550000D01*
X28462295Y-51550000D02*
X28576580Y-51473809D01*
X28576580Y-51473809D02*
X28652771Y-51397619D01*
X28652771Y-51397619D02*
X28690866Y-51321428D01*
X51694285Y-43386104D02*
X51732381Y-43424200D01*
X51732381Y-43424200D02*
X51846666Y-43462295D01*
X51846666Y-43462295D02*
X51922857Y-43462295D01*
X51922857Y-43462295D02*
X52037143Y-43424200D01*
X52037143Y-43424200D02*
X52113333Y-43348009D01*
X52113333Y-43348009D02*
X52151428Y-43271819D01*
X52151428Y-43271819D02*
X52189524Y-43119438D01*
X52189524Y-43119438D02*
X52189524Y-43005152D01*
X52189524Y-43005152D02*
X52151428Y-42852771D01*
X52151428Y-42852771D02*
X52113333Y-42776580D01*
X52113333Y-42776580D02*
X52037143Y-42700390D01*
X52037143Y-42700390D02*
X51922857Y-42662295D01*
X51922857Y-42662295D02*
X51846666Y-42662295D01*
X51846666Y-42662295D02*
X51732381Y-42700390D01*
X51732381Y-42700390D02*
X51694285Y-42738485D01*
X51389524Y-42738485D02*
X51351428Y-42700390D01*
X51351428Y-42700390D02*
X51275238Y-42662295D01*
X51275238Y-42662295D02*
X51084762Y-42662295D01*
X51084762Y-42662295D02*
X51008571Y-42700390D01*
X51008571Y-42700390D02*
X50970476Y-42738485D01*
X50970476Y-42738485D02*
X50932381Y-42814676D01*
X50932381Y-42814676D02*
X50932381Y-42890866D01*
X50932381Y-42890866D02*
X50970476Y-43005152D01*
X50970476Y-43005152D02*
X51427619Y-43462295D01*
X51427619Y-43462295D02*
X50932381Y-43462295D01*
X50170476Y-43462295D02*
X50627619Y-43462295D01*
X50399047Y-43462295D02*
X50399047Y-42662295D01*
X50399047Y-42662295D02*
X50475238Y-42776580D01*
X50475238Y-42776580D02*
X50551428Y-42852771D01*
X50551428Y-42852771D02*
X50627619Y-42890866D01*
X51694285Y-38986104D02*
X51732381Y-39024200D01*
X51732381Y-39024200D02*
X51846666Y-39062295D01*
X51846666Y-39062295D02*
X51922857Y-39062295D01*
X51922857Y-39062295D02*
X52037143Y-39024200D01*
X52037143Y-39024200D02*
X52113333Y-38948009D01*
X52113333Y-38948009D02*
X52151428Y-38871819D01*
X52151428Y-38871819D02*
X52189524Y-38719438D01*
X52189524Y-38719438D02*
X52189524Y-38605152D01*
X52189524Y-38605152D02*
X52151428Y-38452771D01*
X52151428Y-38452771D02*
X52113333Y-38376580D01*
X52113333Y-38376580D02*
X52037143Y-38300390D01*
X52037143Y-38300390D02*
X51922857Y-38262295D01*
X51922857Y-38262295D02*
X51846666Y-38262295D01*
X51846666Y-38262295D02*
X51732381Y-38300390D01*
X51732381Y-38300390D02*
X51694285Y-38338485D01*
X50932381Y-39062295D02*
X51389524Y-39062295D01*
X51160952Y-39062295D02*
X51160952Y-38262295D01*
X51160952Y-38262295D02*
X51237143Y-38376580D01*
X51237143Y-38376580D02*
X51313333Y-38452771D01*
X51313333Y-38452771D02*
X51389524Y-38490866D01*
X50208571Y-38262295D02*
X50589523Y-38262295D01*
X50589523Y-38262295D02*
X50627619Y-38643247D01*
X50627619Y-38643247D02*
X50589523Y-38605152D01*
X50589523Y-38605152D02*
X50513333Y-38567057D01*
X50513333Y-38567057D02*
X50322857Y-38567057D01*
X50322857Y-38567057D02*
X50246666Y-38605152D01*
X50246666Y-38605152D02*
X50208571Y-38643247D01*
X50208571Y-38643247D02*
X50170476Y-38719438D01*
X50170476Y-38719438D02*
X50170476Y-38909914D01*
X50170476Y-38909914D02*
X50208571Y-38986104D01*
X50208571Y-38986104D02*
X50246666Y-39024200D01*
X50246666Y-39024200D02*
X50322857Y-39062295D01*
X50322857Y-39062295D02*
X50513333Y-39062295D01*
X50513333Y-39062295D02*
X50589523Y-39024200D01*
X50589523Y-39024200D02*
X50627619Y-38986104D01*
X46114285Y-43312295D02*
X46380952Y-42931342D01*
X46571428Y-43312295D02*
X46571428Y-42512295D01*
X46571428Y-42512295D02*
X46266666Y-42512295D01*
X46266666Y-42512295D02*
X46190476Y-42550390D01*
X46190476Y-42550390D02*
X46152381Y-42588485D01*
X46152381Y-42588485D02*
X46114285Y-42664676D01*
X46114285Y-42664676D02*
X46114285Y-42778961D01*
X46114285Y-42778961D02*
X46152381Y-42855152D01*
X46152381Y-42855152D02*
X46190476Y-42893247D01*
X46190476Y-42893247D02*
X46266666Y-42931342D01*
X46266666Y-42931342D02*
X46571428Y-42931342D01*
X45352381Y-43312295D02*
X45809524Y-43312295D01*
X45580952Y-43312295D02*
X45580952Y-42512295D01*
X45580952Y-42512295D02*
X45657143Y-42626580D01*
X45657143Y-42626580D02*
X45733333Y-42702771D01*
X45733333Y-42702771D02*
X45809524Y-42740866D01*
X44857142Y-42512295D02*
X44780952Y-42512295D01*
X44780952Y-42512295D02*
X44704761Y-42550390D01*
X44704761Y-42550390D02*
X44666666Y-42588485D01*
X44666666Y-42588485D02*
X44628571Y-42664676D01*
X44628571Y-42664676D02*
X44590476Y-42817057D01*
X44590476Y-42817057D02*
X44590476Y-43007533D01*
X44590476Y-43007533D02*
X44628571Y-43159914D01*
X44628571Y-43159914D02*
X44666666Y-43236104D01*
X44666666Y-43236104D02*
X44704761Y-43274200D01*
X44704761Y-43274200D02*
X44780952Y-43312295D01*
X44780952Y-43312295D02*
X44857142Y-43312295D01*
X44857142Y-43312295D02*
X44933333Y-43274200D01*
X44933333Y-43274200D02*
X44971428Y-43236104D01*
X44971428Y-43236104D02*
X45009523Y-43159914D01*
X45009523Y-43159914D02*
X45047619Y-43007533D01*
X45047619Y-43007533D02*
X45047619Y-42817057D01*
X45047619Y-42817057D02*
X45009523Y-42664676D01*
X45009523Y-42664676D02*
X44971428Y-42588485D01*
X44971428Y-42588485D02*
X44933333Y-42550390D01*
X44933333Y-42550390D02*
X44857142Y-42512295D01*
X27280952Y-22462295D02*
X26785714Y-22462295D01*
X26785714Y-22462295D02*
X27052380Y-22767057D01*
X27052380Y-22767057D02*
X26938095Y-22767057D01*
X26938095Y-22767057D02*
X26861904Y-22805152D01*
X26861904Y-22805152D02*
X26823809Y-22843247D01*
X26823809Y-22843247D02*
X26785714Y-22919438D01*
X26785714Y-22919438D02*
X26785714Y-23109914D01*
X26785714Y-23109914D02*
X26823809Y-23186104D01*
X26823809Y-23186104D02*
X26861904Y-23224200D01*
X26861904Y-23224200D02*
X26938095Y-23262295D01*
X26938095Y-23262295D02*
X27166666Y-23262295D01*
X27166666Y-23262295D02*
X27242857Y-23224200D01*
X27242857Y-23224200D02*
X27280952Y-23186104D01*
X26442856Y-23186104D02*
X26404761Y-23224200D01*
X26404761Y-23224200D02*
X26442856Y-23262295D01*
X26442856Y-23262295D02*
X26480952Y-23224200D01*
X26480952Y-23224200D02*
X26442856Y-23186104D01*
X26442856Y-23186104D02*
X26442856Y-23262295D01*
X26138095Y-22462295D02*
X25642857Y-22462295D01*
X25642857Y-22462295D02*
X25909523Y-22767057D01*
X25909523Y-22767057D02*
X25795238Y-22767057D01*
X25795238Y-22767057D02*
X25719047Y-22805152D01*
X25719047Y-22805152D02*
X25680952Y-22843247D01*
X25680952Y-22843247D02*
X25642857Y-22919438D01*
X25642857Y-22919438D02*
X25642857Y-23109914D01*
X25642857Y-23109914D02*
X25680952Y-23186104D01*
X25680952Y-23186104D02*
X25719047Y-23224200D01*
X25719047Y-23224200D02*
X25795238Y-23262295D01*
X25795238Y-23262295D02*
X26023809Y-23262295D01*
X26023809Y-23262295D02*
X26100000Y-23224200D01*
X26100000Y-23224200D02*
X26138095Y-23186104D01*
X25414285Y-22462295D02*
X25147618Y-23262295D01*
X25147618Y-23262295D02*
X24880952Y-22462295D01*
X27062295Y-49216667D02*
X26681342Y-48950000D01*
X27062295Y-48759524D02*
X26262295Y-48759524D01*
X26262295Y-48759524D02*
X26262295Y-49064286D01*
X26262295Y-49064286D02*
X26300390Y-49140476D01*
X26300390Y-49140476D02*
X26338485Y-49178571D01*
X26338485Y-49178571D02*
X26414676Y-49216667D01*
X26414676Y-49216667D02*
X26528961Y-49216667D01*
X26528961Y-49216667D02*
X26605152Y-49178571D01*
X26605152Y-49178571D02*
X26643247Y-49140476D01*
X26643247Y-49140476D02*
X26681342Y-49064286D01*
X26681342Y-49064286D02*
X26681342Y-48759524D01*
X26262295Y-49483333D02*
X26262295Y-49978571D01*
X26262295Y-49978571D02*
X26567057Y-49711905D01*
X26567057Y-49711905D02*
X26567057Y-49826190D01*
X26567057Y-49826190D02*
X26605152Y-49902381D01*
X26605152Y-49902381D02*
X26643247Y-49940476D01*
X26643247Y-49940476D02*
X26719438Y-49978571D01*
X26719438Y-49978571D02*
X26909914Y-49978571D01*
X26909914Y-49978571D02*
X26986104Y-49940476D01*
X26986104Y-49940476D02*
X27024200Y-49902381D01*
X27024200Y-49902381D02*
X27062295Y-49826190D01*
X27062295Y-49826190D02*
X27062295Y-49597619D01*
X27062295Y-49597619D02*
X27024200Y-49521428D01*
X27024200Y-49521428D02*
X26986104Y-49483333D01*
X45252381Y-40374200D02*
X45138095Y-40412295D01*
X45138095Y-40412295D02*
X44947619Y-40412295D01*
X44947619Y-40412295D02*
X44871428Y-40374200D01*
X44871428Y-40374200D02*
X44833333Y-40336104D01*
X44833333Y-40336104D02*
X44795238Y-40259914D01*
X44795238Y-40259914D02*
X44795238Y-40183723D01*
X44795238Y-40183723D02*
X44833333Y-40107533D01*
X44833333Y-40107533D02*
X44871428Y-40069438D01*
X44871428Y-40069438D02*
X44947619Y-40031342D01*
X44947619Y-40031342D02*
X45100000Y-39993247D01*
X45100000Y-39993247D02*
X45176190Y-39955152D01*
X45176190Y-39955152D02*
X45214285Y-39917057D01*
X45214285Y-39917057D02*
X45252381Y-39840866D01*
X45252381Y-39840866D02*
X45252381Y-39764676D01*
X45252381Y-39764676D02*
X45214285Y-39688485D01*
X45214285Y-39688485D02*
X45176190Y-39650390D01*
X45176190Y-39650390D02*
X45100000Y-39612295D01*
X45100000Y-39612295D02*
X44909523Y-39612295D01*
X44909523Y-39612295D02*
X44795238Y-39650390D01*
X43995237Y-40336104D02*
X44033333Y-40374200D01*
X44033333Y-40374200D02*
X44147618Y-40412295D01*
X44147618Y-40412295D02*
X44223809Y-40412295D01*
X44223809Y-40412295D02*
X44338095Y-40374200D01*
X44338095Y-40374200D02*
X44414285Y-40298009D01*
X44414285Y-40298009D02*
X44452380Y-40221819D01*
X44452380Y-40221819D02*
X44490476Y-40069438D01*
X44490476Y-40069438D02*
X44490476Y-39955152D01*
X44490476Y-39955152D02*
X44452380Y-39802771D01*
X44452380Y-39802771D02*
X44414285Y-39726580D01*
X44414285Y-39726580D02*
X44338095Y-39650390D01*
X44338095Y-39650390D02*
X44223809Y-39612295D01*
X44223809Y-39612295D02*
X44147618Y-39612295D01*
X44147618Y-39612295D02*
X44033333Y-39650390D01*
X44033333Y-39650390D02*
X43995237Y-39688485D01*
X43271428Y-40412295D02*
X43652380Y-40412295D01*
X43652380Y-40412295D02*
X43652380Y-39612295D01*
X51694285Y-42286104D02*
X51732381Y-42324200D01*
X51732381Y-42324200D02*
X51846666Y-42362295D01*
X51846666Y-42362295D02*
X51922857Y-42362295D01*
X51922857Y-42362295D02*
X52037143Y-42324200D01*
X52037143Y-42324200D02*
X52113333Y-42248009D01*
X52113333Y-42248009D02*
X52151428Y-42171819D01*
X52151428Y-42171819D02*
X52189524Y-42019438D01*
X52189524Y-42019438D02*
X52189524Y-41905152D01*
X52189524Y-41905152D02*
X52151428Y-41752771D01*
X52151428Y-41752771D02*
X52113333Y-41676580D01*
X52113333Y-41676580D02*
X52037143Y-41600390D01*
X52037143Y-41600390D02*
X51922857Y-41562295D01*
X51922857Y-41562295D02*
X51846666Y-41562295D01*
X51846666Y-41562295D02*
X51732381Y-41600390D01*
X51732381Y-41600390D02*
X51694285Y-41638485D01*
X50932381Y-42362295D02*
X51389524Y-42362295D01*
X51160952Y-42362295D02*
X51160952Y-41562295D01*
X51160952Y-41562295D02*
X51237143Y-41676580D01*
X51237143Y-41676580D02*
X51313333Y-41752771D01*
X51313333Y-41752771D02*
X51389524Y-41790866D01*
X50551428Y-42362295D02*
X50399047Y-42362295D01*
X50399047Y-42362295D02*
X50322857Y-42324200D01*
X50322857Y-42324200D02*
X50284761Y-42286104D01*
X50284761Y-42286104D02*
X50208571Y-42171819D01*
X50208571Y-42171819D02*
X50170476Y-42019438D01*
X50170476Y-42019438D02*
X50170476Y-41714676D01*
X50170476Y-41714676D02*
X50208571Y-41638485D01*
X50208571Y-41638485D02*
X50246666Y-41600390D01*
X50246666Y-41600390D02*
X50322857Y-41562295D01*
X50322857Y-41562295D02*
X50475238Y-41562295D01*
X50475238Y-41562295D02*
X50551428Y-41600390D01*
X50551428Y-41600390D02*
X50589523Y-41638485D01*
X50589523Y-41638485D02*
X50627619Y-41714676D01*
X50627619Y-41714676D02*
X50627619Y-41905152D01*
X50627619Y-41905152D02*
X50589523Y-41981342D01*
X50589523Y-41981342D02*
X50551428Y-42019438D01*
X50551428Y-42019438D02*
X50475238Y-42057533D01*
X50475238Y-42057533D02*
X50322857Y-42057533D01*
X50322857Y-42057533D02*
X50246666Y-42019438D01*
X50246666Y-42019438D02*
X50208571Y-41981342D01*
X50208571Y-41981342D02*
X50170476Y-41905152D01*
X43362295Y-52975714D02*
X42981342Y-52709047D01*
X43362295Y-52518571D02*
X42562295Y-52518571D01*
X42562295Y-52518571D02*
X42562295Y-52823333D01*
X42562295Y-52823333D02*
X42600390Y-52899523D01*
X42600390Y-52899523D02*
X42638485Y-52937618D01*
X42638485Y-52937618D02*
X42714676Y-52975714D01*
X42714676Y-52975714D02*
X42828961Y-52975714D01*
X42828961Y-52975714D02*
X42905152Y-52937618D01*
X42905152Y-52937618D02*
X42943247Y-52899523D01*
X42943247Y-52899523D02*
X42981342Y-52823333D01*
X42981342Y-52823333D02*
X42981342Y-52518571D01*
X43362295Y-53737618D02*
X43362295Y-53280475D01*
X43362295Y-53509047D02*
X42562295Y-53509047D01*
X42562295Y-53509047D02*
X42676580Y-53432856D01*
X42676580Y-53432856D02*
X42752771Y-53356666D01*
X42752771Y-53356666D02*
X42790866Y-53280475D01*
X42638485Y-54042380D02*
X42600390Y-54080476D01*
X42600390Y-54080476D02*
X42562295Y-54156666D01*
X42562295Y-54156666D02*
X42562295Y-54347142D01*
X42562295Y-54347142D02*
X42600390Y-54423333D01*
X42600390Y-54423333D02*
X42638485Y-54461428D01*
X42638485Y-54461428D02*
X42714676Y-54499523D01*
X42714676Y-54499523D02*
X42790866Y-54499523D01*
X42790866Y-54499523D02*
X42905152Y-54461428D01*
X42905152Y-54461428D02*
X43362295Y-54004285D01*
X43362295Y-54004285D02*
X43362295Y-54499523D01*
X51694285Y-44486104D02*
X51732381Y-44524200D01*
X51732381Y-44524200D02*
X51846666Y-44562295D01*
X51846666Y-44562295D02*
X51922857Y-44562295D01*
X51922857Y-44562295D02*
X52037143Y-44524200D01*
X52037143Y-44524200D02*
X52113333Y-44448009D01*
X52113333Y-44448009D02*
X52151428Y-44371819D01*
X52151428Y-44371819D02*
X52189524Y-44219438D01*
X52189524Y-44219438D02*
X52189524Y-44105152D01*
X52189524Y-44105152D02*
X52151428Y-43952771D01*
X52151428Y-43952771D02*
X52113333Y-43876580D01*
X52113333Y-43876580D02*
X52037143Y-43800390D01*
X52037143Y-43800390D02*
X51922857Y-43762295D01*
X51922857Y-43762295D02*
X51846666Y-43762295D01*
X51846666Y-43762295D02*
X51732381Y-43800390D01*
X51732381Y-43800390D02*
X51694285Y-43838485D01*
X51389524Y-43838485D02*
X51351428Y-43800390D01*
X51351428Y-43800390D02*
X51275238Y-43762295D01*
X51275238Y-43762295D02*
X51084762Y-43762295D01*
X51084762Y-43762295D02*
X51008571Y-43800390D01*
X51008571Y-43800390D02*
X50970476Y-43838485D01*
X50970476Y-43838485D02*
X50932381Y-43914676D01*
X50932381Y-43914676D02*
X50932381Y-43990866D01*
X50932381Y-43990866D02*
X50970476Y-44105152D01*
X50970476Y-44105152D02*
X51427619Y-44562295D01*
X51427619Y-44562295D02*
X50932381Y-44562295D01*
X50246666Y-44028961D02*
X50246666Y-44562295D01*
X50437142Y-43724200D02*
X50627619Y-44295628D01*
X50627619Y-44295628D02*
X50132380Y-44295628D01*
X51694285Y-41186104D02*
X51732381Y-41224200D01*
X51732381Y-41224200D02*
X51846666Y-41262295D01*
X51846666Y-41262295D02*
X51922857Y-41262295D01*
X51922857Y-41262295D02*
X52037143Y-41224200D01*
X52037143Y-41224200D02*
X52113333Y-41148009D01*
X52113333Y-41148009D02*
X52151428Y-41071819D01*
X52151428Y-41071819D02*
X52189524Y-40919438D01*
X52189524Y-40919438D02*
X52189524Y-40805152D01*
X52189524Y-40805152D02*
X52151428Y-40652771D01*
X52151428Y-40652771D02*
X52113333Y-40576580D01*
X52113333Y-40576580D02*
X52037143Y-40500390D01*
X52037143Y-40500390D02*
X51922857Y-40462295D01*
X51922857Y-40462295D02*
X51846666Y-40462295D01*
X51846666Y-40462295D02*
X51732381Y-40500390D01*
X51732381Y-40500390D02*
X51694285Y-40538485D01*
X50932381Y-41262295D02*
X51389524Y-41262295D01*
X51160952Y-41262295D02*
X51160952Y-40462295D01*
X51160952Y-40462295D02*
X51237143Y-40576580D01*
X51237143Y-40576580D02*
X51313333Y-40652771D01*
X51313333Y-40652771D02*
X51389524Y-40690866D01*
X50475238Y-40805152D02*
X50551428Y-40767057D01*
X50551428Y-40767057D02*
X50589523Y-40728961D01*
X50589523Y-40728961D02*
X50627619Y-40652771D01*
X50627619Y-40652771D02*
X50627619Y-40614676D01*
X50627619Y-40614676D02*
X50589523Y-40538485D01*
X50589523Y-40538485D02*
X50551428Y-40500390D01*
X50551428Y-40500390D02*
X50475238Y-40462295D01*
X50475238Y-40462295D02*
X50322857Y-40462295D01*
X50322857Y-40462295D02*
X50246666Y-40500390D01*
X50246666Y-40500390D02*
X50208571Y-40538485D01*
X50208571Y-40538485D02*
X50170476Y-40614676D01*
X50170476Y-40614676D02*
X50170476Y-40652771D01*
X50170476Y-40652771D02*
X50208571Y-40728961D01*
X50208571Y-40728961D02*
X50246666Y-40767057D01*
X50246666Y-40767057D02*
X50322857Y-40805152D01*
X50322857Y-40805152D02*
X50475238Y-40805152D01*
X50475238Y-40805152D02*
X50551428Y-40843247D01*
X50551428Y-40843247D02*
X50589523Y-40881342D01*
X50589523Y-40881342D02*
X50627619Y-40957533D01*
X50627619Y-40957533D02*
X50627619Y-41109914D01*
X50627619Y-41109914D02*
X50589523Y-41186104D01*
X50589523Y-41186104D02*
X50551428Y-41224200D01*
X50551428Y-41224200D02*
X50475238Y-41262295D01*
X50475238Y-41262295D02*
X50322857Y-41262295D01*
X50322857Y-41262295D02*
X50246666Y-41224200D01*
X50246666Y-41224200D02*
X50208571Y-41186104D01*
X50208571Y-41186104D02*
X50170476Y-41109914D01*
X50170476Y-41109914D02*
X50170476Y-40957533D01*
X50170476Y-40957533D02*
X50208571Y-40881342D01*
X50208571Y-40881342D02*
X50246666Y-40843247D01*
X50246666Y-40843247D02*
X50322857Y-40805152D01*
X30412295Y-49216667D02*
X30031342Y-48950000D01*
X30412295Y-48759524D02*
X29612295Y-48759524D01*
X29612295Y-48759524D02*
X29612295Y-49064286D01*
X29612295Y-49064286D02*
X29650390Y-49140476D01*
X29650390Y-49140476D02*
X29688485Y-49178571D01*
X29688485Y-49178571D02*
X29764676Y-49216667D01*
X29764676Y-49216667D02*
X29878961Y-49216667D01*
X29878961Y-49216667D02*
X29955152Y-49178571D01*
X29955152Y-49178571D02*
X29993247Y-49140476D01*
X29993247Y-49140476D02*
X30031342Y-49064286D01*
X30031342Y-49064286D02*
X30031342Y-48759524D01*
X29878961Y-49902381D02*
X30412295Y-49902381D01*
X29574200Y-49711905D02*
X30145628Y-49521428D01*
X30145628Y-49521428D02*
X30145628Y-50016667D01*
X30986104Y-40096667D02*
X31024200Y-40058571D01*
X31024200Y-40058571D02*
X31062295Y-39944286D01*
X31062295Y-39944286D02*
X31062295Y-39868095D01*
X31062295Y-39868095D02*
X31024200Y-39753809D01*
X31024200Y-39753809D02*
X30948009Y-39677619D01*
X30948009Y-39677619D02*
X30871819Y-39639524D01*
X30871819Y-39639524D02*
X30719438Y-39601428D01*
X30719438Y-39601428D02*
X30605152Y-39601428D01*
X30605152Y-39601428D02*
X30452771Y-39639524D01*
X30452771Y-39639524D02*
X30376580Y-39677619D01*
X30376580Y-39677619D02*
X30300390Y-39753809D01*
X30300390Y-39753809D02*
X30262295Y-39868095D01*
X30262295Y-39868095D02*
X30262295Y-39944286D01*
X30262295Y-39944286D02*
X30300390Y-40058571D01*
X30300390Y-40058571D02*
X30338485Y-40096667D01*
X31062295Y-40858571D02*
X31062295Y-40401428D01*
X31062295Y-40630000D02*
X30262295Y-40630000D01*
X30262295Y-40630000D02*
X30376580Y-40553809D01*
X30376580Y-40553809D02*
X30452771Y-40477619D01*
X30452771Y-40477619D02*
X30490866Y-40401428D01*
X28762295Y-40066667D02*
X28381342Y-39800000D01*
X28762295Y-39609524D02*
X27962295Y-39609524D01*
X27962295Y-39609524D02*
X27962295Y-39914286D01*
X27962295Y-39914286D02*
X28000390Y-39990476D01*
X28000390Y-39990476D02*
X28038485Y-40028571D01*
X28038485Y-40028571D02*
X28114676Y-40066667D01*
X28114676Y-40066667D02*
X28228961Y-40066667D01*
X28228961Y-40066667D02*
X28305152Y-40028571D01*
X28305152Y-40028571D02*
X28343247Y-39990476D01*
X28343247Y-39990476D02*
X28381342Y-39914286D01*
X28381342Y-39914286D02*
X28381342Y-39609524D01*
X28305152Y-40523809D02*
X28267057Y-40447619D01*
X28267057Y-40447619D02*
X28228961Y-40409524D01*
X28228961Y-40409524D02*
X28152771Y-40371428D01*
X28152771Y-40371428D02*
X28114676Y-40371428D01*
X28114676Y-40371428D02*
X28038485Y-40409524D01*
X28038485Y-40409524D02*
X28000390Y-40447619D01*
X28000390Y-40447619D02*
X27962295Y-40523809D01*
X27962295Y-40523809D02*
X27962295Y-40676190D01*
X27962295Y-40676190D02*
X28000390Y-40752381D01*
X28000390Y-40752381D02*
X28038485Y-40790476D01*
X28038485Y-40790476D02*
X28114676Y-40828571D01*
X28114676Y-40828571D02*
X28152771Y-40828571D01*
X28152771Y-40828571D02*
X28228961Y-40790476D01*
X28228961Y-40790476D02*
X28267057Y-40752381D01*
X28267057Y-40752381D02*
X28305152Y-40676190D01*
X28305152Y-40676190D02*
X28305152Y-40523809D01*
X28305152Y-40523809D02*
X28343247Y-40447619D01*
X28343247Y-40447619D02*
X28381342Y-40409524D01*
X28381342Y-40409524D02*
X28457533Y-40371428D01*
X28457533Y-40371428D02*
X28609914Y-40371428D01*
X28609914Y-40371428D02*
X28686104Y-40409524D01*
X28686104Y-40409524D02*
X28724200Y-40447619D01*
X28724200Y-40447619D02*
X28762295Y-40523809D01*
X28762295Y-40523809D02*
X28762295Y-40676190D01*
X28762295Y-40676190D02*
X28724200Y-40752381D01*
X28724200Y-40752381D02*
X28686104Y-40790476D01*
X28686104Y-40790476D02*
X28609914Y-40828571D01*
X28609914Y-40828571D02*
X28457533Y-40828571D01*
X28457533Y-40828571D02*
X28381342Y-40790476D01*
X28381342Y-40790476D02*
X28343247Y-40752381D01*
X28343247Y-40752381D02*
X28305152Y-40676190D01*
X32735714Y-34474200D02*
X32621428Y-34512295D01*
X32621428Y-34512295D02*
X32430952Y-34512295D01*
X32430952Y-34512295D02*
X32354761Y-34474200D01*
X32354761Y-34474200D02*
X32316666Y-34436104D01*
X32316666Y-34436104D02*
X32278571Y-34359914D01*
X32278571Y-34359914D02*
X32278571Y-34283723D01*
X32278571Y-34283723D02*
X32316666Y-34207533D01*
X32316666Y-34207533D02*
X32354761Y-34169438D01*
X32354761Y-34169438D02*
X32430952Y-34131342D01*
X32430952Y-34131342D02*
X32583333Y-34093247D01*
X32583333Y-34093247D02*
X32659523Y-34055152D01*
X32659523Y-34055152D02*
X32697618Y-34017057D01*
X32697618Y-34017057D02*
X32735714Y-33940866D01*
X32735714Y-33940866D02*
X32735714Y-33864676D01*
X32735714Y-33864676D02*
X32697618Y-33788485D01*
X32697618Y-33788485D02*
X32659523Y-33750390D01*
X32659523Y-33750390D02*
X32583333Y-33712295D01*
X32583333Y-33712295D02*
X32392856Y-33712295D01*
X32392856Y-33712295D02*
X32278571Y-33750390D01*
X32011904Y-33712295D02*
X31821428Y-34512295D01*
X31821428Y-34512295D02*
X31669047Y-33940866D01*
X31669047Y-33940866D02*
X31516666Y-34512295D01*
X31516666Y-34512295D02*
X31326190Y-33712295D01*
X31021427Y-34512295D02*
X31021427Y-33712295D01*
X31021427Y-33712295D02*
X30830951Y-33712295D01*
X30830951Y-33712295D02*
X30716665Y-33750390D01*
X30716665Y-33750390D02*
X30640475Y-33826580D01*
X30640475Y-33826580D02*
X30602380Y-33902771D01*
X30602380Y-33902771D02*
X30564284Y-34055152D01*
X30564284Y-34055152D02*
X30564284Y-34169438D01*
X30564284Y-34169438D02*
X30602380Y-34321819D01*
X30602380Y-34321819D02*
X30640475Y-34398009D01*
X30640475Y-34398009D02*
X30716665Y-34474200D01*
X30716665Y-34474200D02*
X30830951Y-34512295D01*
X30830951Y-34512295D02*
X31021427Y-34512295D01*
X34059524Y-32374200D02*
X33945238Y-32412295D01*
X33945238Y-32412295D02*
X33754762Y-32412295D01*
X33754762Y-32412295D02*
X33678571Y-32374200D01*
X33678571Y-32374200D02*
X33640476Y-32336104D01*
X33640476Y-32336104D02*
X33602381Y-32259914D01*
X33602381Y-32259914D02*
X33602381Y-32183723D01*
X33602381Y-32183723D02*
X33640476Y-32107533D01*
X33640476Y-32107533D02*
X33678571Y-32069438D01*
X33678571Y-32069438D02*
X33754762Y-32031342D01*
X33754762Y-32031342D02*
X33907143Y-31993247D01*
X33907143Y-31993247D02*
X33983333Y-31955152D01*
X33983333Y-31955152D02*
X34021428Y-31917057D01*
X34021428Y-31917057D02*
X34059524Y-31840866D01*
X34059524Y-31840866D02*
X34059524Y-31764676D01*
X34059524Y-31764676D02*
X34021428Y-31688485D01*
X34021428Y-31688485D02*
X33983333Y-31650390D01*
X33983333Y-31650390D02*
X33907143Y-31612295D01*
X33907143Y-31612295D02*
X33716666Y-31612295D01*
X33716666Y-31612295D02*
X33602381Y-31650390D01*
X33335714Y-31612295D02*
X33145238Y-32412295D01*
X33145238Y-32412295D02*
X32992857Y-31840866D01*
X32992857Y-31840866D02*
X32840476Y-32412295D01*
X32840476Y-32412295D02*
X32650000Y-31612295D01*
X31888094Y-32336104D02*
X31926190Y-32374200D01*
X31926190Y-32374200D02*
X32040475Y-32412295D01*
X32040475Y-32412295D02*
X32116666Y-32412295D01*
X32116666Y-32412295D02*
X32230952Y-32374200D01*
X32230952Y-32374200D02*
X32307142Y-32298009D01*
X32307142Y-32298009D02*
X32345237Y-32221819D01*
X32345237Y-32221819D02*
X32383333Y-32069438D01*
X32383333Y-32069438D02*
X32383333Y-31955152D01*
X32383333Y-31955152D02*
X32345237Y-31802771D01*
X32345237Y-31802771D02*
X32307142Y-31726580D01*
X32307142Y-31726580D02*
X32230952Y-31650390D01*
X32230952Y-31650390D02*
X32116666Y-31612295D01*
X32116666Y-31612295D02*
X32040475Y-31612295D01*
X32040475Y-31612295D02*
X31926190Y-31650390D01*
X31926190Y-31650390D02*
X31888094Y-31688485D01*
X31164285Y-32412295D02*
X31545237Y-32412295D01*
X31545237Y-32412295D02*
X31545237Y-31612295D01*
X30897618Y-32412295D02*
X30897618Y-31612295D01*
X30440475Y-32412295D02*
X30783333Y-31955152D01*
X30440475Y-31612295D02*
X30897618Y-32069438D01*
X43146587Y-31968613D02*
X43200462Y-31968613D01*
X43200462Y-31968613D02*
X43308211Y-31914739D01*
X43308211Y-31914739D02*
X43362086Y-31860864D01*
X43362086Y-31860864D02*
X43415961Y-31753114D01*
X43415961Y-31753114D02*
X43415961Y-31645365D01*
X43415961Y-31645365D02*
X43389023Y-31564552D01*
X43389023Y-31564552D02*
X43308211Y-31429865D01*
X43308211Y-31429865D02*
X43227399Y-31349053D01*
X43227399Y-31349053D02*
X43092712Y-31268241D01*
X43092712Y-31268241D02*
X43011900Y-31241304D01*
X43011900Y-31241304D02*
X42904150Y-31241304D01*
X42904150Y-31241304D02*
X42796401Y-31295178D01*
X42796401Y-31295178D02*
X42742526Y-31349053D01*
X42742526Y-31349053D02*
X42688651Y-31456803D01*
X42688651Y-31456803D02*
X42688651Y-31510678D01*
X42931088Y-32291862D02*
X42823338Y-32399612D01*
X42823338Y-32399612D02*
X42742526Y-32426549D01*
X42742526Y-32426549D02*
X42688651Y-32426549D01*
X42688651Y-32426549D02*
X42553964Y-32399612D01*
X42553964Y-32399612D02*
X42419277Y-32318800D01*
X42419277Y-32318800D02*
X42203778Y-32103300D01*
X42203778Y-32103300D02*
X42176840Y-32022488D01*
X42176840Y-32022488D02*
X42176840Y-31968613D01*
X42176840Y-31968613D02*
X42203778Y-31887801D01*
X42203778Y-31887801D02*
X42311527Y-31780052D01*
X42311527Y-31780052D02*
X42392340Y-31753114D01*
X42392340Y-31753114D02*
X42446214Y-31753114D01*
X42446214Y-31753114D02*
X42527027Y-31780052D01*
X42527027Y-31780052D02*
X42661714Y-31914739D01*
X42661714Y-31914739D02*
X42688651Y-31995551D01*
X42688651Y-31995551D02*
X42688651Y-32049426D01*
X42688651Y-32049426D02*
X42661714Y-32130238D01*
X42661714Y-32130238D02*
X42553964Y-32237987D01*
X42553964Y-32237987D02*
X42473152Y-32264925D01*
X42473152Y-32264925D02*
X42419277Y-32264925D01*
X42419277Y-32264925D02*
X42338465Y-32237987D01*
X48211904Y-26154819D02*
X48211904Y-26964342D01*
X48211904Y-26964342D02*
X48164285Y-27059580D01*
X48164285Y-27059580D02*
X48116666Y-27107200D01*
X48116666Y-27107200D02*
X48021428Y-27154819D01*
X48021428Y-27154819D02*
X47830952Y-27154819D01*
X47830952Y-27154819D02*
X47735714Y-27107200D01*
X47735714Y-27107200D02*
X47688095Y-27059580D01*
X47688095Y-27059580D02*
X47640476Y-26964342D01*
X47640476Y-26964342D02*
X47640476Y-26154819D01*
X46735714Y-26154819D02*
X46926190Y-26154819D01*
X46926190Y-26154819D02*
X47021428Y-26202438D01*
X47021428Y-26202438D02*
X47069047Y-26250057D01*
X47069047Y-26250057D02*
X47164285Y-26392914D01*
X47164285Y-26392914D02*
X47211904Y-26583390D01*
X47211904Y-26583390D02*
X47211904Y-26964342D01*
X47211904Y-26964342D02*
X47164285Y-27059580D01*
X47164285Y-27059580D02*
X47116666Y-27107200D01*
X47116666Y-27107200D02*
X47021428Y-27154819D01*
X47021428Y-27154819D02*
X46830952Y-27154819D01*
X46830952Y-27154819D02*
X46735714Y-27107200D01*
X46735714Y-27107200D02*
X46688095Y-27059580D01*
X46688095Y-27059580D02*
X46640476Y-26964342D01*
X46640476Y-26964342D02*
X46640476Y-26726247D01*
X46640476Y-26726247D02*
X46688095Y-26631009D01*
X46688095Y-26631009D02*
X46735714Y-26583390D01*
X46735714Y-26583390D02*
X46830952Y-26535771D01*
X46830952Y-26535771D02*
X47021428Y-26535771D01*
X47021428Y-26535771D02*
X47116666Y-26583390D01*
X47116666Y-26583390D02*
X47164285Y-26631009D01*
X47164285Y-26631009D02*
X47211904Y-26726247D01*
X34497510Y-43074465D02*
X34497510Y-43550656D01*
X34830843Y-42550656D02*
X34497510Y-43074465D01*
X34497510Y-43074465D02*
X34164177Y-42550656D01*
X33307034Y-43550656D02*
X33878462Y-43550656D01*
X33592748Y-43550656D02*
X33592748Y-42550656D01*
X33592748Y-42550656D02*
X33687986Y-42693513D01*
X33687986Y-42693513D02*
X33783224Y-42788751D01*
X33783224Y-42788751D02*
X33878462Y-42836370D01*
X40553246Y-40575750D02*
X41125666Y-41148170D01*
X41125666Y-41148170D02*
X41159338Y-41249185D01*
X41159338Y-41249185D02*
X41159338Y-41316529D01*
X41159338Y-41316529D02*
X41125666Y-41417544D01*
X41125666Y-41417544D02*
X40990979Y-41552231D01*
X40990979Y-41552231D02*
X40889964Y-41585903D01*
X40889964Y-41585903D02*
X40822620Y-41585903D01*
X40822620Y-41585903D02*
X40721605Y-41552231D01*
X40721605Y-41552231D02*
X40149185Y-40979811D01*
X39879811Y-41249185D02*
X39442079Y-41686918D01*
X39442079Y-41686918D02*
X39947155Y-41720590D01*
X39947155Y-41720590D02*
X39846140Y-41821605D01*
X39846140Y-41821605D02*
X39812468Y-41922620D01*
X39812468Y-41922620D02*
X39812468Y-41989964D01*
X39812468Y-41989964D02*
X39846140Y-42090979D01*
X39846140Y-42090979D02*
X40014498Y-42259338D01*
X40014498Y-42259338D02*
X40115514Y-42293010D01*
X40115514Y-42293010D02*
X40182857Y-42293010D01*
X40182857Y-42293010D02*
X40283872Y-42259338D01*
X40283872Y-42259338D02*
X40485903Y-42057307D01*
X40485903Y-42057307D02*
X40519575Y-41956292D01*
X40519575Y-41956292D02*
X40519575Y-41888949D01*
X21454819Y-22357142D02*
X20978628Y-22023809D01*
X21454819Y-21785714D02*
X20454819Y-21785714D01*
X20454819Y-21785714D02*
X20454819Y-22166666D01*
X20454819Y-22166666D02*
X20502438Y-22261904D01*
X20502438Y-22261904D02*
X20550057Y-22309523D01*
X20550057Y-22309523D02*
X20645295Y-22357142D01*
X20645295Y-22357142D02*
X20788152Y-22357142D01*
X20788152Y-22357142D02*
X20883390Y-22309523D01*
X20883390Y-22309523D02*
X20931009Y-22261904D01*
X20931009Y-22261904D02*
X20978628Y-22166666D01*
X20978628Y-22166666D02*
X20978628Y-21785714D01*
X21454819Y-23309523D02*
X21454819Y-22738095D01*
X21454819Y-23023809D02*
X20454819Y-23023809D01*
X20454819Y-23023809D02*
X20597676Y-22928571D01*
X20597676Y-22928571D02*
X20692914Y-22833333D01*
X20692914Y-22833333D02*
X20740533Y-22738095D01*
X20454819Y-23642857D02*
X20454819Y-24261904D01*
X20454819Y-24261904D02*
X20835771Y-23928571D01*
X20835771Y-23928571D02*
X20835771Y-24071428D01*
X20835771Y-24071428D02*
X20883390Y-24166666D01*
X20883390Y-24166666D02*
X20931009Y-24214285D01*
X20931009Y-24214285D02*
X21026247Y-24261904D01*
X21026247Y-24261904D02*
X21264342Y-24261904D01*
X21264342Y-24261904D02*
X21359580Y-24214285D01*
X21359580Y-24214285D02*
X21407200Y-24166666D01*
X21407200Y-24166666D02*
X21454819Y-24071428D01*
X21454819Y-24071428D02*
X21454819Y-23785714D01*
X21454819Y-23785714D02*
X21407200Y-23690476D01*
X21407200Y-23690476D02*
X21359580Y-23642857D01*
X28034819Y-41766666D02*
X28749104Y-41766666D01*
X28749104Y-41766666D02*
X28891961Y-41719047D01*
X28891961Y-41719047D02*
X28987200Y-41623809D01*
X28987200Y-41623809D02*
X29034819Y-41480952D01*
X29034819Y-41480952D02*
X29034819Y-41385714D01*
X28130057Y-42195238D02*
X28082438Y-42242857D01*
X28082438Y-42242857D02*
X28034819Y-42338095D01*
X28034819Y-42338095D02*
X28034819Y-42576190D01*
X28034819Y-42576190D02*
X28082438Y-42671428D01*
X28082438Y-42671428D02*
X28130057Y-42719047D01*
X28130057Y-42719047D02*
X28225295Y-42766666D01*
X28225295Y-42766666D02*
X28320533Y-42766666D01*
X28320533Y-42766666D02*
X28463390Y-42719047D01*
X28463390Y-42719047D02*
X29034819Y-42147619D01*
X29034819Y-42147619D02*
X29034819Y-42766666D01*
X42865961Y-30688651D02*
X42919836Y-30688651D01*
X42919836Y-30688651D02*
X43027586Y-30634776D01*
X43027586Y-30634776D02*
X43081460Y-30580901D01*
X43081460Y-30580901D02*
X43135335Y-30473152D01*
X43135335Y-30473152D02*
X43135335Y-30365402D01*
X43135335Y-30365402D02*
X43108398Y-30284590D01*
X43108398Y-30284590D02*
X43027586Y-30149903D01*
X43027586Y-30149903D02*
X42946773Y-30069091D01*
X42946773Y-30069091D02*
X42812086Y-29988279D01*
X42812086Y-29988279D02*
X42731274Y-29961341D01*
X42731274Y-29961341D02*
X42623525Y-29961341D01*
X42623525Y-29961341D02*
X42515775Y-30015216D01*
X42515775Y-30015216D02*
X42461900Y-30069091D01*
X42461900Y-30069091D02*
X42408025Y-30176840D01*
X42408025Y-30176840D02*
X42408025Y-30230715D01*
X42381088Y-31281274D02*
X42704337Y-30958025D01*
X42542712Y-31119649D02*
X41977027Y-30553964D01*
X41977027Y-30553964D02*
X42111714Y-30580901D01*
X42111714Y-30580901D02*
X42219464Y-30580901D01*
X42219464Y-30580901D02*
X42300276Y-30553964D01*
X41465216Y-31065775D02*
X41411341Y-31119650D01*
X41411341Y-31119650D02*
X41384404Y-31200462D01*
X41384404Y-31200462D02*
X41384404Y-31254337D01*
X41384404Y-31254337D02*
X41411341Y-31335149D01*
X41411341Y-31335149D02*
X41492154Y-31469836D01*
X41492154Y-31469836D02*
X41626841Y-31604523D01*
X41626841Y-31604523D02*
X41761528Y-31685335D01*
X41761528Y-31685335D02*
X41842340Y-31712272D01*
X41842340Y-31712272D02*
X41896215Y-31712272D01*
X41896215Y-31712272D02*
X41977027Y-31685335D01*
X41977027Y-31685335D02*
X42030902Y-31631460D01*
X42030902Y-31631460D02*
X42057839Y-31550648D01*
X42057839Y-31550648D02*
X42057839Y-31496773D01*
X42057839Y-31496773D02*
X42030902Y-31415961D01*
X42030902Y-31415961D02*
X41950089Y-31281274D01*
X41950089Y-31281274D02*
X41815402Y-31146587D01*
X41815402Y-31146587D02*
X41680715Y-31065775D01*
X41680715Y-31065775D02*
X41599903Y-31038837D01*
X41599903Y-31038837D02*
X41546028Y-31038837D01*
X41546028Y-31038837D02*
X41465216Y-31065775D01*
X36311904Y-27404819D02*
X36311904Y-28214342D01*
X36311904Y-28214342D02*
X36264285Y-28309580D01*
X36264285Y-28309580D02*
X36216666Y-28357200D01*
X36216666Y-28357200D02*
X36121428Y-28404819D01*
X36121428Y-28404819D02*
X35930952Y-28404819D01*
X35930952Y-28404819D02*
X35835714Y-28357200D01*
X35835714Y-28357200D02*
X35788095Y-28309580D01*
X35788095Y-28309580D02*
X35740476Y-28214342D01*
X35740476Y-28214342D02*
X35740476Y-27404819D01*
X34835714Y-27738152D02*
X34835714Y-28404819D01*
X35073809Y-27357200D02*
X35311904Y-28071485D01*
X35311904Y-28071485D02*
X34692857Y-28071485D01*
X28533333Y-23454819D02*
X28533333Y-24169104D01*
X28533333Y-24169104D02*
X28580952Y-24311961D01*
X28580952Y-24311961D02*
X28676190Y-24407200D01*
X28676190Y-24407200D02*
X28819047Y-24454819D01*
X28819047Y-24454819D02*
X28914285Y-24454819D01*
X28152380Y-23454819D02*
X27533333Y-23454819D01*
X27533333Y-23454819D02*
X27866666Y-23835771D01*
X27866666Y-23835771D02*
X27723809Y-23835771D01*
X27723809Y-23835771D02*
X27628571Y-23883390D01*
X27628571Y-23883390D02*
X27580952Y-23931009D01*
X27580952Y-23931009D02*
X27533333Y-24026247D01*
X27533333Y-24026247D02*
X27533333Y-24264342D01*
X27533333Y-24264342D02*
X27580952Y-24359580D01*
X27580952Y-24359580D02*
X27628571Y-24407200D01*
X27628571Y-24407200D02*
X27723809Y-24454819D01*
X27723809Y-24454819D02*
X28009523Y-24454819D01*
X28009523Y-24454819D02*
X28104761Y-24407200D01*
X28104761Y-24407200D02*
X28152380Y-24359580D01*
X39764303Y-28724810D02*
X39494929Y-28994184D01*
X39979802Y-28832560D02*
X39225555Y-28455436D01*
X39225555Y-28455436D02*
X39602678Y-29209684D01*
X39414117Y-29398245D02*
X38848431Y-28832560D01*
X38848431Y-28832560D02*
X38713744Y-28967247D01*
X38713744Y-28967247D02*
X38659869Y-29074996D01*
X38659869Y-29074996D02*
X38659869Y-29182746D01*
X38659869Y-29182746D02*
X38686807Y-29263558D01*
X38686807Y-29263558D02*
X38767619Y-29398245D01*
X38767619Y-29398245D02*
X38848431Y-29479057D01*
X38848431Y-29479057D02*
X38983118Y-29559870D01*
X38983118Y-29559870D02*
X39063930Y-29586807D01*
X39063930Y-29586807D02*
X39171680Y-29586807D01*
X39171680Y-29586807D02*
X39279430Y-29532932D01*
X39279430Y-29532932D02*
X39414117Y-29398245D01*
X38471308Y-30233305D02*
X38525182Y-30233305D01*
X38525182Y-30233305D02*
X38632932Y-30179430D01*
X38632932Y-30179430D02*
X38686807Y-30125555D01*
X38686807Y-30125555D02*
X38740682Y-30017805D01*
X38740682Y-30017805D02*
X38740682Y-29910056D01*
X38740682Y-29910056D02*
X38713744Y-29829244D01*
X38713744Y-29829244D02*
X38632932Y-29694557D01*
X38632932Y-29694557D02*
X38552120Y-29613744D01*
X38552120Y-29613744D02*
X38417433Y-29532932D01*
X38417433Y-29532932D02*
X38336621Y-29505995D01*
X38336621Y-29505995D02*
X38228871Y-29505995D01*
X38228871Y-29505995D02*
X38121121Y-29559870D01*
X38121121Y-29559870D02*
X38067247Y-29613744D01*
X38067247Y-29613744D02*
X38013372Y-29721494D01*
X38013372Y-29721494D02*
X38013372Y-29775369D01*
X37986434Y-30825928D02*
X38309683Y-30502679D01*
X38148059Y-30664303D02*
X37582373Y-30098618D01*
X37582373Y-30098618D02*
X37717060Y-30125555D01*
X37717060Y-30125555D02*
X37824810Y-30125555D01*
X37824810Y-30125555D02*
X37905622Y-30098618D01*
X40796587Y-29658025D02*
X40850462Y-29658025D01*
X40850462Y-29658025D02*
X40958211Y-29604151D01*
X40958211Y-29604151D02*
X41012086Y-29550276D01*
X41012086Y-29550276D02*
X41065961Y-29442526D01*
X41065961Y-29442526D02*
X41065961Y-29334777D01*
X41065961Y-29334777D02*
X41039023Y-29253964D01*
X41039023Y-29253964D02*
X40958211Y-29119277D01*
X40958211Y-29119277D02*
X40877399Y-29038465D01*
X40877399Y-29038465D02*
X40742712Y-28957653D01*
X40742712Y-28957653D02*
X40661900Y-28930716D01*
X40661900Y-28930716D02*
X40554150Y-28930716D01*
X40554150Y-28930716D02*
X40446401Y-28984590D01*
X40446401Y-28984590D02*
X40392526Y-29038465D01*
X40392526Y-29038465D02*
X40338651Y-29146215D01*
X40338651Y-29146215D02*
X40338651Y-29200090D01*
X40203964Y-29711900D02*
X40230901Y-29631088D01*
X40230901Y-29631088D02*
X40230901Y-29577213D01*
X40230901Y-29577213D02*
X40203964Y-29496401D01*
X40203964Y-29496401D02*
X40177027Y-29469464D01*
X40177027Y-29469464D02*
X40096214Y-29442526D01*
X40096214Y-29442526D02*
X40042340Y-29442526D01*
X40042340Y-29442526D02*
X39961527Y-29469464D01*
X39961527Y-29469464D02*
X39853778Y-29577213D01*
X39853778Y-29577213D02*
X39826840Y-29658025D01*
X39826840Y-29658025D02*
X39826840Y-29711900D01*
X39826840Y-29711900D02*
X39853778Y-29792712D01*
X39853778Y-29792712D02*
X39880715Y-29819650D01*
X39880715Y-29819650D02*
X39961527Y-29846587D01*
X39961527Y-29846587D02*
X40015402Y-29846587D01*
X40015402Y-29846587D02*
X40096214Y-29819650D01*
X40096214Y-29819650D02*
X40203964Y-29711900D01*
X40203964Y-29711900D02*
X40284776Y-29684963D01*
X40284776Y-29684963D02*
X40338651Y-29684963D01*
X40338651Y-29684963D02*
X40419463Y-29711900D01*
X40419463Y-29711900D02*
X40527213Y-29819650D01*
X40527213Y-29819650D02*
X40554150Y-29900462D01*
X40554150Y-29900462D02*
X40554150Y-29954337D01*
X40554150Y-29954337D02*
X40527213Y-30035149D01*
X40527213Y-30035149D02*
X40419463Y-30142899D01*
X40419463Y-30142899D02*
X40338651Y-30169836D01*
X40338651Y-30169836D02*
X40284776Y-30169836D01*
X40284776Y-30169836D02*
X40203964Y-30142899D01*
X40203964Y-30142899D02*
X40096214Y-30035149D01*
X40096214Y-30035149D02*
X40069277Y-29954337D01*
X40069277Y-29954337D02*
X40069277Y-29900462D01*
X40069277Y-29900462D02*
X40096214Y-29819650D01*
X32033332Y-42386105D02*
X32071428Y-42424201D01*
X32071428Y-42424201D02*
X32185713Y-42462296D01*
X32185713Y-42462296D02*
X32261904Y-42462296D01*
X32261904Y-42462296D02*
X32376190Y-42424201D01*
X32376190Y-42424201D02*
X32452380Y-42348010D01*
X32452380Y-42348010D02*
X32490475Y-42271820D01*
X32490475Y-42271820D02*
X32528571Y-42119439D01*
X32528571Y-42119439D02*
X32528571Y-42005153D01*
X32528571Y-42005153D02*
X32490475Y-41852772D01*
X32490475Y-41852772D02*
X32452380Y-41776581D01*
X32452380Y-41776581D02*
X32376190Y-41700391D01*
X32376190Y-41700391D02*
X32261904Y-41662296D01*
X32261904Y-41662296D02*
X32185713Y-41662296D01*
X32185713Y-41662296D02*
X32071428Y-41700391D01*
X32071428Y-41700391D02*
X32033332Y-41738486D01*
X31728571Y-41738486D02*
X31690475Y-41700391D01*
X31690475Y-41700391D02*
X31614285Y-41662296D01*
X31614285Y-41662296D02*
X31423809Y-41662296D01*
X31423809Y-41662296D02*
X31347618Y-41700391D01*
X31347618Y-41700391D02*
X31309523Y-41738486D01*
X31309523Y-41738486D02*
X31271428Y-41814677D01*
X31271428Y-41814677D02*
X31271428Y-41890867D01*
X31271428Y-41890867D02*
X31309523Y-42005153D01*
X31309523Y-42005153D02*
X31766666Y-42462296D01*
X31766666Y-42462296D02*
X31271428Y-42462296D01*
X46990475Y-40412295D02*
X46990475Y-39612295D01*
X46990475Y-39612295D02*
X46799999Y-39612295D01*
X46799999Y-39612295D02*
X46685713Y-39650390D01*
X46685713Y-39650390D02*
X46609523Y-39726580D01*
X46609523Y-39726580D02*
X46571428Y-39802771D01*
X46571428Y-39802771D02*
X46533332Y-39955152D01*
X46533332Y-39955152D02*
X46533332Y-40069438D01*
X46533332Y-40069438D02*
X46571428Y-40221819D01*
X46571428Y-40221819D02*
X46609523Y-40298009D01*
X46609523Y-40298009D02*
X46685713Y-40374200D01*
X46685713Y-40374200D02*
X46799999Y-40412295D01*
X46799999Y-40412295D02*
X46990475Y-40412295D01*
X45809523Y-39612295D02*
X46190475Y-39612295D01*
X46190475Y-39612295D02*
X46228571Y-39993247D01*
X46228571Y-39993247D02*
X46190475Y-39955152D01*
X46190475Y-39955152D02*
X46114285Y-39917057D01*
X46114285Y-39917057D02*
X45923809Y-39917057D01*
X45923809Y-39917057D02*
X45847618Y-39955152D01*
X45847618Y-39955152D02*
X45809523Y-39993247D01*
X45809523Y-39993247D02*
X45771428Y-40069438D01*
X45771428Y-40069438D02*
X45771428Y-40259914D01*
X45771428Y-40259914D02*
X45809523Y-40336104D01*
X45809523Y-40336104D02*
X45847618Y-40374200D01*
X45847618Y-40374200D02*
X45923809Y-40412295D01*
X45923809Y-40412295D02*
X46114285Y-40412295D01*
X46114285Y-40412295D02*
X46190475Y-40374200D01*
X46190475Y-40374200D02*
X46228571Y-40336104D01*
X48612295Y-35766667D02*
X48231342Y-35500000D01*
X48612295Y-35309524D02*
X47812295Y-35309524D01*
X47812295Y-35309524D02*
X47812295Y-35614286D01*
X47812295Y-35614286D02*
X47850390Y-35690476D01*
X47850390Y-35690476D02*
X47888485Y-35728571D01*
X47888485Y-35728571D02*
X47964676Y-35766667D01*
X47964676Y-35766667D02*
X48078961Y-35766667D01*
X48078961Y-35766667D02*
X48155152Y-35728571D01*
X48155152Y-35728571D02*
X48193247Y-35690476D01*
X48193247Y-35690476D02*
X48231342Y-35614286D01*
X48231342Y-35614286D02*
X48231342Y-35309524D01*
X47812295Y-36452381D02*
X47812295Y-36300000D01*
X47812295Y-36300000D02*
X47850390Y-36223809D01*
X47850390Y-36223809D02*
X47888485Y-36185714D01*
X47888485Y-36185714D02*
X48002771Y-36109524D01*
X48002771Y-36109524D02*
X48155152Y-36071428D01*
X48155152Y-36071428D02*
X48459914Y-36071428D01*
X48459914Y-36071428D02*
X48536104Y-36109524D01*
X48536104Y-36109524D02*
X48574200Y-36147619D01*
X48574200Y-36147619D02*
X48612295Y-36223809D01*
X48612295Y-36223809D02*
X48612295Y-36376190D01*
X48612295Y-36376190D02*
X48574200Y-36452381D01*
X48574200Y-36452381D02*
X48536104Y-36490476D01*
X48536104Y-36490476D02*
X48459914Y-36528571D01*
X48459914Y-36528571D02*
X48269438Y-36528571D01*
X48269438Y-36528571D02*
X48193247Y-36490476D01*
X48193247Y-36490476D02*
X48155152Y-36452381D01*
X48155152Y-36452381D02*
X48117057Y-36376190D01*
X48117057Y-36376190D02*
X48117057Y-36223809D01*
X48117057Y-36223809D02*
X48155152Y-36147619D01*
X48155152Y-36147619D02*
X48193247Y-36109524D01*
X48193247Y-36109524D02*
X48269438Y-36071428D01*
X20654819Y-31766666D02*
X21369104Y-31766666D01*
X21369104Y-31766666D02*
X21511961Y-31719047D01*
X21511961Y-31719047D02*
X21607200Y-31623809D01*
X21607200Y-31623809D02*
X21654819Y-31480952D01*
X21654819Y-31480952D02*
X21654819Y-31385714D01*
X21654819Y-32766666D02*
X21654819Y-32195238D01*
X21654819Y-32480952D02*
X20654819Y-32480952D01*
X20654819Y-32480952D02*
X20797676Y-32385714D01*
X20797676Y-32385714D02*
X20892914Y-32290476D01*
X20892914Y-32290476D02*
X20940533Y-32195238D01*
X53504819Y-29688095D02*
X54314342Y-29688095D01*
X54314342Y-29688095D02*
X54409580Y-29735714D01*
X54409580Y-29735714D02*
X54457200Y-29783333D01*
X54457200Y-29783333D02*
X54504819Y-29878571D01*
X54504819Y-29878571D02*
X54504819Y-30069047D01*
X54504819Y-30069047D02*
X54457200Y-30164285D01*
X54457200Y-30164285D02*
X54409580Y-30211904D01*
X54409580Y-30211904D02*
X54314342Y-30259523D01*
X54314342Y-30259523D02*
X53504819Y-30259523D01*
X53600057Y-30688095D02*
X53552438Y-30735714D01*
X53552438Y-30735714D02*
X53504819Y-30830952D01*
X53504819Y-30830952D02*
X53504819Y-31069047D01*
X53504819Y-31069047D02*
X53552438Y-31164285D01*
X53552438Y-31164285D02*
X53600057Y-31211904D01*
X53600057Y-31211904D02*
X53695295Y-31259523D01*
X53695295Y-31259523D02*
X53790533Y-31259523D01*
X53790533Y-31259523D02*
X53933390Y-31211904D01*
X53933390Y-31211904D02*
X54504819Y-30640476D01*
X54504819Y-30640476D02*
X54504819Y-31259523D01*
X51883332Y-34236104D02*
X51921428Y-34274200D01*
X51921428Y-34274200D02*
X52035713Y-34312295D01*
X52035713Y-34312295D02*
X52111904Y-34312295D01*
X52111904Y-34312295D02*
X52226190Y-34274200D01*
X52226190Y-34274200D02*
X52302380Y-34198009D01*
X52302380Y-34198009D02*
X52340475Y-34121819D01*
X52340475Y-34121819D02*
X52378571Y-33969438D01*
X52378571Y-33969438D02*
X52378571Y-33855152D01*
X52378571Y-33855152D02*
X52340475Y-33702771D01*
X52340475Y-33702771D02*
X52302380Y-33626580D01*
X52302380Y-33626580D02*
X52226190Y-33550390D01*
X52226190Y-33550390D02*
X52111904Y-33512295D01*
X52111904Y-33512295D02*
X52035713Y-33512295D01*
X52035713Y-33512295D02*
X51921428Y-33550390D01*
X51921428Y-33550390D02*
X51883332Y-33588485D01*
X51197618Y-33512295D02*
X51349999Y-33512295D01*
X51349999Y-33512295D02*
X51426190Y-33550390D01*
X51426190Y-33550390D02*
X51464285Y-33588485D01*
X51464285Y-33588485D02*
X51540475Y-33702771D01*
X51540475Y-33702771D02*
X51578571Y-33855152D01*
X51578571Y-33855152D02*
X51578571Y-34159914D01*
X51578571Y-34159914D02*
X51540475Y-34236104D01*
X51540475Y-34236104D02*
X51502380Y-34274200D01*
X51502380Y-34274200D02*
X51426190Y-34312295D01*
X51426190Y-34312295D02*
X51273809Y-34312295D01*
X51273809Y-34312295D02*
X51197618Y-34274200D01*
X51197618Y-34274200D02*
X51159523Y-34236104D01*
X51159523Y-34236104D02*
X51121428Y-34159914D01*
X51121428Y-34159914D02*
X51121428Y-33969438D01*
X51121428Y-33969438D02*
X51159523Y-33893247D01*
X51159523Y-33893247D02*
X51197618Y-33855152D01*
X51197618Y-33855152D02*
X51273809Y-33817057D01*
X51273809Y-33817057D02*
X51426190Y-33817057D01*
X51426190Y-33817057D02*
X51502380Y-33855152D01*
X51502380Y-33855152D02*
X51540475Y-33893247D01*
X51540475Y-33893247D02*
X51578571Y-33969438D01*
X29962295Y-40066667D02*
X29581342Y-39800000D01*
X29962295Y-39609524D02*
X29162295Y-39609524D01*
X29162295Y-39609524D02*
X29162295Y-39914286D01*
X29162295Y-39914286D02*
X29200390Y-39990476D01*
X29200390Y-39990476D02*
X29238485Y-40028571D01*
X29238485Y-40028571D02*
X29314676Y-40066667D01*
X29314676Y-40066667D02*
X29428961Y-40066667D01*
X29428961Y-40066667D02*
X29505152Y-40028571D01*
X29505152Y-40028571D02*
X29543247Y-39990476D01*
X29543247Y-39990476D02*
X29581342Y-39914286D01*
X29581342Y-39914286D02*
X29581342Y-39609524D01*
X29962295Y-40447619D02*
X29962295Y-40600000D01*
X29962295Y-40600000D02*
X29924200Y-40676190D01*
X29924200Y-40676190D02*
X29886104Y-40714286D01*
X29886104Y-40714286D02*
X29771819Y-40790476D01*
X29771819Y-40790476D02*
X29619438Y-40828571D01*
X29619438Y-40828571D02*
X29314676Y-40828571D01*
X29314676Y-40828571D02*
X29238485Y-40790476D01*
X29238485Y-40790476D02*
X29200390Y-40752381D01*
X29200390Y-40752381D02*
X29162295Y-40676190D01*
X29162295Y-40676190D02*
X29162295Y-40523809D01*
X29162295Y-40523809D02*
X29200390Y-40447619D01*
X29200390Y-40447619D02*
X29238485Y-40409524D01*
X29238485Y-40409524D02*
X29314676Y-40371428D01*
X29314676Y-40371428D02*
X29505152Y-40371428D01*
X29505152Y-40371428D02*
X29581342Y-40409524D01*
X29581342Y-40409524D02*
X29619438Y-40447619D01*
X29619438Y-40447619D02*
X29657533Y-40523809D01*
X29657533Y-40523809D02*
X29657533Y-40676190D01*
X29657533Y-40676190D02*
X29619438Y-40752381D01*
X29619438Y-40752381D02*
X29581342Y-40790476D01*
X29581342Y-40790476D02*
X29505152Y-40828571D01*
X37464303Y-31024810D02*
X37194929Y-31294184D01*
X37679802Y-31132560D02*
X36925555Y-30755436D01*
X36925555Y-30755436D02*
X37302678Y-31509684D01*
X37114117Y-31698245D02*
X36548431Y-31132560D01*
X36548431Y-31132560D02*
X36413744Y-31267247D01*
X36413744Y-31267247D02*
X36359869Y-31374996D01*
X36359869Y-31374996D02*
X36359869Y-31482746D01*
X36359869Y-31482746D02*
X36386807Y-31563558D01*
X36386807Y-31563558D02*
X36467619Y-31698245D01*
X36467619Y-31698245D02*
X36548431Y-31779057D01*
X36548431Y-31779057D02*
X36683118Y-31859870D01*
X36683118Y-31859870D02*
X36763930Y-31886807D01*
X36763930Y-31886807D02*
X36871680Y-31886807D01*
X36871680Y-31886807D02*
X36979430Y-31832932D01*
X36979430Y-31832932D02*
X37114117Y-31698245D01*
X36171308Y-32533305D02*
X36225182Y-32533305D01*
X36225182Y-32533305D02*
X36332932Y-32479430D01*
X36332932Y-32479430D02*
X36386807Y-32425555D01*
X36386807Y-32425555D02*
X36440682Y-32317805D01*
X36440682Y-32317805D02*
X36440682Y-32210056D01*
X36440682Y-32210056D02*
X36413744Y-32129244D01*
X36413744Y-32129244D02*
X36332932Y-31994557D01*
X36332932Y-31994557D02*
X36252120Y-31913744D01*
X36252120Y-31913744D02*
X36117433Y-31832932D01*
X36117433Y-31832932D02*
X36036621Y-31805995D01*
X36036621Y-31805995D02*
X35928871Y-31805995D01*
X35928871Y-31805995D02*
X35821121Y-31859870D01*
X35821121Y-31859870D02*
X35767247Y-31913744D01*
X35767247Y-31913744D02*
X35713372Y-32021494D01*
X35713372Y-32021494D02*
X35713372Y-32075369D01*
X35309311Y-32371680D02*
X35255436Y-32425555D01*
X35255436Y-32425555D02*
X35228498Y-32506367D01*
X35228498Y-32506367D02*
X35228498Y-32560242D01*
X35228498Y-32560242D02*
X35255436Y-32641054D01*
X35255436Y-32641054D02*
X35336248Y-32775741D01*
X35336248Y-32775741D02*
X35470935Y-32910428D01*
X35470935Y-32910428D02*
X35605622Y-32991241D01*
X35605622Y-32991241D02*
X35686434Y-33018178D01*
X35686434Y-33018178D02*
X35740309Y-33018178D01*
X35740309Y-33018178D02*
X35821121Y-32991241D01*
X35821121Y-32991241D02*
X35874996Y-32937366D01*
X35874996Y-32937366D02*
X35901934Y-32856554D01*
X35901934Y-32856554D02*
X35901934Y-32802679D01*
X35901934Y-32802679D02*
X35874996Y-32721867D01*
X35874996Y-32721867D02*
X35794184Y-32587180D01*
X35794184Y-32587180D02*
X35659497Y-32452493D01*
X35659497Y-32452493D02*
X35524810Y-32371680D01*
X35524810Y-32371680D02*
X35443998Y-32344743D01*
X35443998Y-32344743D02*
X35390123Y-32344743D01*
X35390123Y-32344743D02*
X35309311Y-32371680D01*
X36159580Y-45233334D02*
X36207200Y-45185715D01*
X36207200Y-45185715D02*
X36254819Y-45042858D01*
X36254819Y-45042858D02*
X36254819Y-44947620D01*
X36254819Y-44947620D02*
X36207200Y-44804763D01*
X36207200Y-44804763D02*
X36111961Y-44709525D01*
X36111961Y-44709525D02*
X36016723Y-44661906D01*
X36016723Y-44661906D02*
X35826247Y-44614287D01*
X35826247Y-44614287D02*
X35683390Y-44614287D01*
X35683390Y-44614287D02*
X35492914Y-44661906D01*
X35492914Y-44661906D02*
X35397676Y-44709525D01*
X35397676Y-44709525D02*
X35302438Y-44804763D01*
X35302438Y-44804763D02*
X35254819Y-44947620D01*
X35254819Y-44947620D02*
X35254819Y-45042858D01*
X35254819Y-45042858D02*
X35302438Y-45185715D01*
X35302438Y-45185715D02*
X35350057Y-45233334D01*
X35254819Y-45566668D02*
X35254819Y-46185715D01*
X35254819Y-46185715D02*
X35635771Y-45852382D01*
X35635771Y-45852382D02*
X35635771Y-45995239D01*
X35635771Y-45995239D02*
X35683390Y-46090477D01*
X35683390Y-46090477D02*
X35731009Y-46138096D01*
X35731009Y-46138096D02*
X35826247Y-46185715D01*
X35826247Y-46185715D02*
X36064342Y-46185715D01*
X36064342Y-46185715D02*
X36159580Y-46138096D01*
X36159580Y-46138096D02*
X36207200Y-46090477D01*
X36207200Y-46090477D02*
X36254819Y-45995239D01*
X36254819Y-45995239D02*
X36254819Y-45709525D01*
X36254819Y-45709525D02*
X36207200Y-45614287D01*
X36207200Y-45614287D02*
X36159580Y-45566668D01*
X46990475Y-35262295D02*
X46990475Y-34462295D01*
X46990475Y-34462295D02*
X46799999Y-34462295D01*
X46799999Y-34462295D02*
X46685713Y-34500390D01*
X46685713Y-34500390D02*
X46609523Y-34576580D01*
X46609523Y-34576580D02*
X46571428Y-34652771D01*
X46571428Y-34652771D02*
X46533332Y-34805152D01*
X46533332Y-34805152D02*
X46533332Y-34919438D01*
X46533332Y-34919438D02*
X46571428Y-35071819D01*
X46571428Y-35071819D02*
X46609523Y-35148009D01*
X46609523Y-35148009D02*
X46685713Y-35224200D01*
X46685713Y-35224200D02*
X46799999Y-35262295D01*
X46799999Y-35262295D02*
X46990475Y-35262295D01*
X45847618Y-34728961D02*
X45847618Y-35262295D01*
X46038094Y-34424200D02*
X46228571Y-34995628D01*
X46228571Y-34995628D02*
X45733332Y-34995628D01*
X49862295Y-35816667D02*
X49481342Y-35550000D01*
X49862295Y-35359524D02*
X49062295Y-35359524D01*
X49062295Y-35359524D02*
X49062295Y-35664286D01*
X49062295Y-35664286D02*
X49100390Y-35740476D01*
X49100390Y-35740476D02*
X49138485Y-35778571D01*
X49138485Y-35778571D02*
X49214676Y-35816667D01*
X49214676Y-35816667D02*
X49328961Y-35816667D01*
X49328961Y-35816667D02*
X49405152Y-35778571D01*
X49405152Y-35778571D02*
X49443247Y-35740476D01*
X49443247Y-35740476D02*
X49481342Y-35664286D01*
X49481342Y-35664286D02*
X49481342Y-35359524D01*
X49062295Y-36540476D02*
X49062295Y-36159524D01*
X49062295Y-36159524D02*
X49443247Y-36121428D01*
X49443247Y-36121428D02*
X49405152Y-36159524D01*
X49405152Y-36159524D02*
X49367057Y-36235714D01*
X49367057Y-36235714D02*
X49367057Y-36426190D01*
X49367057Y-36426190D02*
X49405152Y-36502381D01*
X49405152Y-36502381D02*
X49443247Y-36540476D01*
X49443247Y-36540476D02*
X49519438Y-36578571D01*
X49519438Y-36578571D02*
X49709914Y-36578571D01*
X49709914Y-36578571D02*
X49786104Y-36540476D01*
X49786104Y-36540476D02*
X49824200Y-36502381D01*
X49824200Y-36502381D02*
X49862295Y-36426190D01*
X49862295Y-36426190D02*
X49862295Y-36235714D01*
X49862295Y-36235714D02*
X49824200Y-36159524D01*
X49824200Y-36159524D02*
X49786104Y-36121428D01*
X29654819Y-44033333D02*
X29178628Y-43700000D01*
X29654819Y-43461905D02*
X28654819Y-43461905D01*
X28654819Y-43461905D02*
X28654819Y-43842857D01*
X28654819Y-43842857D02*
X28702438Y-43938095D01*
X28702438Y-43938095D02*
X28750057Y-43985714D01*
X28750057Y-43985714D02*
X28845295Y-44033333D01*
X28845295Y-44033333D02*
X28988152Y-44033333D01*
X28988152Y-44033333D02*
X29083390Y-43985714D01*
X29083390Y-43985714D02*
X29131009Y-43938095D01*
X29131009Y-43938095D02*
X29178628Y-43842857D01*
X29178628Y-43842857D02*
X29178628Y-43461905D01*
X28750057Y-44414286D02*
X28702438Y-44461905D01*
X28702438Y-44461905D02*
X28654819Y-44557143D01*
X28654819Y-44557143D02*
X28654819Y-44795238D01*
X28654819Y-44795238D02*
X28702438Y-44890476D01*
X28702438Y-44890476D02*
X28750057Y-44938095D01*
X28750057Y-44938095D02*
X28845295Y-44985714D01*
X28845295Y-44985714D02*
X28940533Y-44985714D01*
X28940533Y-44985714D02*
X29083390Y-44938095D01*
X29083390Y-44938095D02*
X29654819Y-44366667D01*
X29654819Y-44366667D02*
X29654819Y-44985714D01*
X41596587Y-30408025D02*
X41650462Y-30408025D01*
X41650462Y-30408025D02*
X41758211Y-30354151D01*
X41758211Y-30354151D02*
X41812086Y-30300276D01*
X41812086Y-30300276D02*
X41865961Y-30192526D01*
X41865961Y-30192526D02*
X41865961Y-30084777D01*
X41865961Y-30084777D02*
X41839023Y-30003964D01*
X41839023Y-30003964D02*
X41758211Y-29869277D01*
X41758211Y-29869277D02*
X41677399Y-29788465D01*
X41677399Y-29788465D02*
X41542712Y-29707653D01*
X41542712Y-29707653D02*
X41461900Y-29680716D01*
X41461900Y-29680716D02*
X41354150Y-29680716D01*
X41354150Y-29680716D02*
X41246401Y-29734590D01*
X41246401Y-29734590D02*
X41192526Y-29788465D01*
X41192526Y-29788465D02*
X41138651Y-29896215D01*
X41138651Y-29896215D02*
X41138651Y-29950090D01*
X40896214Y-30084777D02*
X40519091Y-30461900D01*
X40519091Y-30461900D02*
X41327213Y-30785149D01*
D11*
%TO.C,C17*%
X41209420Y-27640000D02*
X41490580Y-27640000D01*
X41209420Y-28660000D02*
X41490580Y-28660000D01*
%TO.C,C20*%
X50109420Y-27210000D02*
X50390580Y-27210000D01*
X50109420Y-26190000D02*
X50390580Y-26190000D01*
%TO.C,U5*%
X47510000Y-51410000D02*
X46760000Y-51410000D01*
X41290000Y-51410000D02*
X42040000Y-51410000D01*
X47510000Y-50660000D02*
X47510000Y-51410000D01*
X41290000Y-50660000D02*
X41290000Y-51410000D01*
X47510000Y-45940000D02*
X47510000Y-45190000D01*
X41290000Y-45940000D02*
X41290000Y-45190000D01*
X47510000Y-45190000D02*
X46760000Y-45190000D01*
%TO.C,C11*%
X53352164Y-35040000D02*
X53567836Y-35040000D01*
X53352164Y-35760000D02*
X53567836Y-35760000D01*
%TO.C,R11*%
X45580000Y-53653641D02*
X45580000Y-53346359D01*
X44820000Y-53653641D02*
X44820000Y-53346359D01*
%TO.C,Y2*%
X49850000Y-50150000D02*
X49850000Y-46150000D01*
X53150000Y-50150000D02*
X49850000Y-50150000D01*
%TO.C,C23*%
X51472164Y-51110000D02*
X51687836Y-51110000D01*
X51472164Y-50390000D02*
X51687836Y-50390000D01*
%TO.C,C4*%
X29792164Y-29860000D02*
X30007836Y-29860000D01*
X29792164Y-29140000D02*
X30007836Y-29140000D01*
%TO.C,C5*%
X29792164Y-28860000D02*
X30007836Y-28860000D01*
X29792164Y-28140000D02*
X30007836Y-28140000D01*
%TO.C,C12*%
X32438748Y-29735000D02*
X32961252Y-29735000D01*
X32438748Y-28265000D02*
X32961252Y-28265000D01*
%TO.C,GND*%
X24300000Y-21500000D02*
G75*
G03*
X24300000Y-21500000I-700000J0D01*
G01*
%TO.C,C14*%
X53352164Y-37240000D02*
X53567836Y-37240000D01*
X53352164Y-37960000D02*
X53567836Y-37960000D01*
%TO.C,R7*%
X40480000Y-52346359D02*
X40480000Y-52653641D01*
X39720000Y-52346359D02*
X39720000Y-52653641D01*
%TO.C,C22*%
X54160000Y-46842164D02*
X54160000Y-47057836D01*
X53440000Y-46842164D02*
X53440000Y-47057836D01*
%TO.C,BOOT*%
X33750000Y-51600000D02*
X30450000Y-51600000D01*
X33750000Y-51900000D02*
X33750000Y-51600000D01*
X33750000Y-54100000D02*
X33750000Y-54400000D01*
X33750000Y-54400000D02*
X30450000Y-54400000D01*
X30450000Y-51600000D02*
X30450000Y-51900000D01*
X30450000Y-54400000D02*
X30450000Y-54100000D01*
%TO.C,C16*%
X53352164Y-39440000D02*
X53567836Y-39440000D01*
X53352164Y-40160000D02*
X53567836Y-40160000D01*
%TO.C,RESET*%
X38750000Y-51600000D02*
X38750000Y-51900000D01*
X38750000Y-54400000D02*
X38750000Y-54100000D01*
X35450000Y-51600000D02*
X38750000Y-51600000D01*
X35450000Y-51900000D02*
X35450000Y-51600000D01*
X35450000Y-54100000D02*
X35450000Y-54400000D01*
X35450000Y-54400000D02*
X38750000Y-54400000D01*
%TO.C,SDA*%
X45000000Y-36500000D02*
G75*
G03*
X45000000Y-36500000I-700000J0D01*
G01*
D12*
%TO.C,D1*%
X27850000Y-51810000D02*
G75*
G03*
X27850000Y-51810000I-50000J0D01*
G01*
D11*
%TO.C,C13*%
X53352164Y-36140000D02*
X53567836Y-36140000D01*
X53352164Y-36860000D02*
X53567836Y-36860000D01*
%TO.C,R1*%
X29280000Y-53053641D02*
X29280000Y-52746359D01*
X28520000Y-53053641D02*
X28520000Y-52746359D01*
%TO.C,C21*%
X53352164Y-42740000D02*
X53567836Y-42740000D01*
X53352164Y-43460000D02*
X53567836Y-43460000D01*
%TO.C,C15*%
X53352164Y-38340000D02*
X53567836Y-38340000D01*
X53352164Y-39060000D02*
X53567836Y-39060000D01*
%TO.C,R10*%
X45753641Y-43720000D02*
X45446359Y-43720000D01*
X45753641Y-44480000D02*
X45446359Y-44480000D01*
%TO.C,3.3V*%
X26400000Y-21500000D02*
G75*
G03*
X26400000Y-21500000I-700000J0D01*
G01*
%TO.C,R3*%
X27420000Y-49196359D02*
X27420000Y-49503641D01*
X28180000Y-49196359D02*
X28180000Y-49503641D01*
%TO.C,SCL*%
X45000000Y-38500000D02*
G75*
G03*
X45000000Y-38500000I-700000J0D01*
G01*
%TO.C,C19*%
X53352164Y-41640000D02*
X53567836Y-41640000D01*
X53352164Y-42360000D02*
X53567836Y-42360000D01*
%TO.C,R12*%
X44380000Y-53653641D02*
X44380000Y-53346359D01*
X43620000Y-53653641D02*
X43620000Y-53346359D01*
%TO.C,C24*%
X53352164Y-43840000D02*
X53567836Y-43840000D01*
X53352164Y-44560000D02*
X53567836Y-44560000D01*
%TO.C,C18*%
X53352164Y-40540000D02*
X53567836Y-40540000D01*
X53352164Y-41260000D02*
X53567836Y-41260000D01*
%TO.C,R4*%
X28470000Y-49196359D02*
X28470000Y-49503641D01*
X29230000Y-49196359D02*
X29230000Y-49503641D01*
%TO.C,C1*%
X30340000Y-38392164D02*
X30340000Y-38607836D01*
X31060000Y-38392164D02*
X31060000Y-38607836D01*
%TO.C,R8*%
X28020000Y-38653641D02*
X28020000Y-38346359D01*
X28780000Y-38653641D02*
X28780000Y-38346359D01*
%TO.C,SWD*%
X30050000Y-34100000D02*
G75*
G03*
X30050000Y-34100000I-700000J0D01*
G01*
%TO.C,SWCLK*%
X30050000Y-32050000D02*
G75*
G03*
X30050000Y-32050000I-700000J0D01*
G01*
%TO.C,C9*%
X41269190Y-33021693D02*
X41421693Y-32869190D01*
X41778307Y-33530810D02*
X41930810Y-33378307D01*
%TO.C,U6*%
X40150000Y-27160000D02*
X46160000Y-27160000D01*
X42400000Y-20340000D02*
X46160000Y-20340000D01*
X46160000Y-20340000D02*
X46160000Y-21600000D01*
X46160000Y-27160000D02*
X46160000Y-25900000D01*
%TO.C,Y1*%
X33900000Y-43850000D02*
X33900000Y-47150000D01*
X33900000Y-47150000D02*
X29900000Y-47150000D01*
%TO.C,U3*%
X37500000Y-42605311D02*
X37959619Y-42145692D01*
X37040381Y-42145692D02*
X37500000Y-42605311D01*
X42145692Y-37040381D02*
X42605311Y-37500000D01*
X32854308Y-37959619D02*
X32394689Y-37500000D01*
X37959619Y-32854308D02*
X37500000Y-32394689D01*
X32394689Y-37500000D02*
X32854308Y-37040381D01*
X37500000Y-32394689D02*
X37040381Y-32854308D01*
%TO.C,R13*%
X21380000Y-25346359D02*
X21380000Y-25653641D01*
X20620000Y-25346359D02*
X20620000Y-25653641D01*
%TO.C,J2*%
X20067500Y-47580000D02*
X20920000Y-47580000D01*
X24850000Y-47580000D02*
X22930000Y-47580000D01*
X20067500Y-38420000D02*
X20067500Y-47580000D01*
X20920000Y-38420000D02*
X20067500Y-38420000D01*
X22930000Y-38420000D02*
X24850000Y-38420000D01*
%TO.C,C10*%
X40469190Y-32221693D02*
X40621693Y-32069190D01*
X40978307Y-32730810D02*
X41130810Y-32578307D01*
%TO.C,U4*%
X31530000Y-20300000D02*
X31530000Y-20570000D01*
X31530000Y-20570000D02*
X30430000Y-20570000D01*
X31530000Y-26930000D02*
X28700000Y-26930000D01*
X31530000Y-27200000D02*
X31530000Y-26930000D01*
X37950000Y-20300000D02*
X31530000Y-20300000D01*
X37950000Y-27200000D02*
X31530000Y-27200000D01*
%TO.C,J3*%
X27345000Y-23420000D02*
X27345000Y-26080000D01*
X24745000Y-23420000D02*
X27345000Y-23420000D01*
X24745000Y-23420000D02*
X24745000Y-26080000D01*
X23475000Y-23420000D02*
X22145000Y-23420000D01*
X22145000Y-23420000D02*
X22145000Y-24750000D01*
X24745000Y-26080000D02*
X27345000Y-26080000D01*
%TO.C,ADC1*%
X38200000Y-28800000D02*
G75*
G03*
X38200000Y-28800000I-700000J0D01*
G01*
%TO.C,C8*%
X39530810Y-30978307D02*
X39378307Y-31130810D01*
X39021693Y-30469190D02*
X38869190Y-30621693D01*
%TO.C,C2*%
X32007836Y-43560001D02*
X31792164Y-43560001D01*
X32007836Y-42840001D02*
X31792164Y-42840001D01*
%TO.C,D5*%
X47050000Y-38500000D02*
G75*
G03*
X47050000Y-38500000I-700000J0D01*
G01*
%TO.C,R6*%
X48630000Y-34046359D02*
X48630000Y-34353641D01*
X47870000Y-34046359D02*
X47870000Y-34353641D01*
%TO.C,J1*%
X20090000Y-37060000D02*
X20090000Y-26940000D01*
X26310000Y-37060000D02*
X26310000Y-36140000D01*
X27910000Y-37060000D02*
X20090000Y-37060000D01*
X22350000Y-36300000D02*
X22350000Y-35300000D01*
X23950000Y-36300000D02*
X22350000Y-36300000D01*
X26310000Y-36140000D02*
X27910000Y-36140000D01*
X27910000Y-36140000D02*
X27910000Y-37060000D01*
X26310000Y-35860000D02*
X26310000Y-36140000D01*
X26310000Y-35860000D02*
X27525000Y-35860000D01*
X22350000Y-35800000D02*
X20090000Y-35800000D01*
X22350000Y-35300000D02*
X20090000Y-35300000D01*
X22350000Y-35300000D02*
X23950000Y-35300000D01*
X23950000Y-35300000D02*
X23950000Y-36300000D01*
X20090000Y-34500000D02*
X24450000Y-34500000D01*
X24450000Y-34500000D02*
X24450000Y-29500000D01*
X24450000Y-29500000D02*
X20090000Y-29500000D01*
X22350000Y-28700000D02*
X23950000Y-28700000D01*
X23950000Y-28700000D02*
X23950000Y-27700000D01*
X26310000Y-27860000D02*
X26310000Y-28140000D01*
X27910000Y-27860000D02*
X26310000Y-27860000D01*
X22350000Y-27700000D02*
X22350000Y-28700000D01*
X23950000Y-27700000D02*
X22350000Y-27700000D01*
X20090000Y-26940000D02*
X27910000Y-26940000D01*
X26310000Y-26940000D02*
X26310000Y-27860000D01*
X27910000Y-26940000D02*
X27910000Y-27860000D01*
%TO.C,U2*%
X51325000Y-33025000D02*
X51325000Y-32765000D01*
X51325000Y-27835000D02*
X53000000Y-27835000D01*
X51325000Y-27575000D02*
X51325000Y-27835000D01*
X48600000Y-33025000D02*
X51325000Y-33025000D01*
X48600000Y-33025000D02*
X45875000Y-33025000D01*
X48600000Y-27575000D02*
X51325000Y-27575000D01*
X48600000Y-27575000D02*
X45875000Y-27575000D01*
X45875000Y-33025000D02*
X45875000Y-32765000D01*
X45875000Y-27575000D02*
X45875000Y-27835000D01*
%TO.C,C6*%
X53557836Y-33590000D02*
X53342164Y-33590000D01*
X53557836Y-34310000D02*
X53342164Y-34310000D01*
%TO.C,R9*%
X29220000Y-38653641D02*
X29220000Y-38346359D01*
X29980000Y-38653641D02*
X29980000Y-38346359D01*
%TO.C,ADC0*%
X36250000Y-30750000D02*
G75*
G03*
X36250000Y-30750000I-700000J0D01*
G01*
%TO.C,C3*%
X34960000Y-45392165D02*
X34960000Y-45607837D01*
X34240000Y-45392165D02*
X34240000Y-45607837D01*
%TO.C,D4*%
X47050000Y-36500000D02*
G75*
G03*
X47050000Y-36500000I-700000J0D01*
G01*
%TO.C,R5*%
X49070000Y-34353641D02*
X49070000Y-34046359D01*
X49830000Y-34353641D02*
X49830000Y-34046359D01*
%TO.C,R2*%
X28820000Y-46353642D02*
X28820000Y-46046360D01*
X29580000Y-46353642D02*
X29580000Y-46046360D01*
%TO.C,C7*%
X39669190Y-31421693D02*
X39821693Y-31269190D01*
X40178307Y-31930810D02*
X40330810Y-31778307D01*
%TD*%
M02*
