M48
; DRILL file {KiCad 7.0.7} date Mon Mar  4 03:02:10 2024
; FORMAT={-:-/ absolute / metric / decimal}
; #@! TF.CreationDate,2024-03-04T03:02:10-08:00
; #@! TF.GenerationSoftware,Kicad,Pcbnew,7.0.7
; #@! TF.FileFunction,Plated,1,2,PTH
FMAT,2
METRIC
; #@! TA.AperFunction,Plated,PTH,ViaDrill
T1C0.300
; #@! TA.AperFunction,Plated,PTH,ViaDrill
T2C0.400
; #@! TA.AperFunction,Plated,PTH,ViaDrill
T3C0.500
; #@! TA.AperFunction,Plated,PTH,ComponentDrill
T4C0.600
; #@! TA.AperFunction,Plated,PTH,ViaDrill
T5C0.750
; #@! TA.AperFunction,Plated,PTH,ComponentDrill
T6C0.750
; #@! TA.AperFunction,Plated,PTH,ComponentDrill
T7C1.000
%
G90
G05
T1
X26.725Y-40.6
X26.725Y-45.4
X28.196Y-44.004
X28.644Y-42.213
X28.9Y-52.39
X29.65Y-37.1
X30.4Y-53.0
X30.45Y-37.1
X31.05Y-40.9
X31.25Y-37.1
X31.5Y-32.05
X31.5Y-32.85
X31.85Y-40.9
X32.049Y-37.1
X32.65Y-40.9
X33.559Y-40.876
X34.124Y-40.311
X34.5Y-42.6
X34.683Y-33.3
X34.706Y-34.099
X34.933Y-36.374
X35.213Y-49.315
X35.971Y-50.073
X36.651Y-45.083
X37.5Y-40.8
X37.506Y-34.712
X37.567Y-46.383
X38.1Y-45.788
X38.25Y-44.3
X38.672Y-45.229
X39.457Y-48.993
X39.661Y-31.939
X39.917Y-44.149
X39.961Y-33.342
X40.05Y-54.0
X40.398Y-38.136
X40.518Y-33.918
X40.993Y-46.994
X41.1Y-21.45
X41.4Y-49.6
X42.28Y-39.518
X42.45Y-51.3
X44.4Y-51.287
X44.95Y-42.099
X44.996Y-42.901
X45.09Y-44.1
X45.2Y-52.99
X45.7Y-52.25
X46.35Y-51.287
X47.387Y-50.25
X47.4Y-47.65
X48.4Y-49.6
X49.0Y-48.943
X49.45Y-34.68
X50.65Y-47.05
T2
X28.3Y-35.4
X29.42Y-28.5
X29.42Y-29.5
X34.7Y-32.0
X41.9Y-30.25
X42.65Y-30.85
X52.15Y-32.105
X52.97Y-33.95
T3
X21.95Y-21.5
X22.977Y-27.677
X24.648Y-29.398
X27.45Y-21.5
X30.8Y-46.35
X35.4Y-53.0
X36.818Y-50.638
X41.1Y-23.75
X41.45Y-41.35
X45.0Y-28.395
X46.15Y-42.5
X46.95Y-31.7
X47.4Y-28.4
X49.3Y-38.2
X49.45Y-51.9
X49.5Y-26.7
X53.05Y-53.25
T5
X31.65Y-23.1
X37.5Y-36.4
X37.5Y-38.25
X44.05Y-26.0
T6
X26.45Y-29.0
X26.45Y-31.0
X26.45Y-33.0
X26.45Y-35.0
T7
X23.475Y-24.75
X26.015Y-24.75
T4
X21.525Y-38.68G85X22.325Y-38.68
G05
X21.525Y-47.32G85X22.325Y-47.32
G05
X25.575Y-38.68G85X26.675Y-38.68
G05
X25.575Y-47.32G85X26.675Y-47.32
G05
T0
M30
