M48
; DRILL file {KiCad 7.0.7} date Sun Mar  3 00:58:21 2024
; FORMAT={-:-/ absolute / metric / decimal}
; #@! TF.CreationDate,2024-03-03T00:58:21-08:00
; #@! TF.GenerationSoftware,Kicad,Pcbnew,7.0.7
; #@! TF.FileFunction,Plated,1,2,PTH
FMAT,2
METRIC
; #@! TA.AperFunction,Plated,PTH,ViaDrill
T1C0.400
; #@! TA.AperFunction,Plated,PTH,ComponentDrill
T2C0.750
; #@! TA.AperFunction,Plated,PTH,ComponentDrill
T3C1.016
; #@! TA.AperFunction,Plated,PTH,ComponentDrill
T4C2.700
%
G90
G05
T1
X33.274Y-55.626
X33.274Y-58.166
X33.274Y-60.706
X33.274Y-63.246
X37.846Y-36.83
X39.37Y-38.1
X40.894Y-39.624
X80.213Y-60.096
X80.975Y-52.781
X81.737Y-42.824
X83.312Y-73.66
X85.852Y-73.66
X88.392Y-73.66
X90.932Y-73.66
X111.76Y-37.338
X111.76Y-38.862
X113.284Y-37.338
X113.284Y-38.862
T2
X45.0Y-50.0
X47.0Y-50.0
X70.0Y-40.0
X70.0Y-50.0
X70.0Y-60.0
X72.0Y-40.0
X72.0Y-50.0
X72.0Y-60.0
X74.0Y-40.0
X74.0Y-50.0
X74.0Y-60.0
X76.0Y-40.0
X76.0Y-50.0
X76.0Y-60.0
X85.0Y-40.0
X85.0Y-50.0
X85.0Y-60.0
X87.0Y-40.0
X87.0Y-50.0
X87.0Y-60.0
X89.0Y-40.0
X89.0Y-50.0
X89.0Y-60.0
X91.0Y-40.0
X91.0Y-50.0
X91.0Y-60.0
T3
X28.48Y-32.62
X28.48Y-35.16
X28.48Y-37.7
X28.48Y-40.24
X28.48Y-42.78
X28.48Y-45.32
X28.48Y-47.86
X28.48Y-50.4
X28.48Y-52.94
X28.48Y-55.48
X28.48Y-58.02
X28.48Y-60.56
X28.48Y-63.1
X28.48Y-65.64
X28.48Y-68.18
X28.48Y-70.72
X28.48Y-73.26
X28.48Y-75.8
X31.02Y-32.62
X31.02Y-35.16
X31.02Y-37.7
X31.02Y-40.24
X31.02Y-42.78
X31.02Y-45.32
X31.02Y-47.86
X31.02Y-50.4
X31.02Y-52.94
X31.02Y-55.48
X31.02Y-58.02
X31.02Y-60.56
X31.02Y-63.1
X31.02Y-65.64
X31.02Y-68.18
X31.02Y-70.72
X31.02Y-73.26
X31.02Y-75.8
X33.56Y-27.54
X36.1Y-27.54
X38.64Y-27.54
X38.64Y-75.8
X41.18Y-27.54
X41.18Y-75.8
X43.72Y-27.54
X43.72Y-75.8
X46.26Y-27.54
X46.26Y-75.8
X48.8Y-27.54
X48.8Y-75.8
X51.34Y-27.54
X51.34Y-75.8
X53.88Y-75.8
X56.42Y-27.54
X56.42Y-75.8
X58.833Y-50.4
X58.833Y-52.94
X58.833Y-55.48
X58.96Y-27.54
X61.373Y-50.4
X61.373Y-52.94
X61.373Y-55.48
X61.5Y-27.54
X61.5Y-75.8
X64.04Y-27.54
X64.04Y-75.8
X66.58Y-27.54
X66.58Y-75.8
X69.12Y-27.54
X69.12Y-75.8
X71.66Y-27.54
X71.66Y-75.8
X74.2Y-27.54
X74.2Y-75.8
X76.74Y-75.8
X79.28Y-27.54
X79.28Y-75.8
X81.82Y-27.54
X83.344Y-75.8
X84.36Y-27.54
X85.884Y-75.8
X86.9Y-27.54
X88.424Y-75.8
X89.44Y-27.54
X90.964Y-75.8
X91.98Y-27.54
X93.504Y-75.8
X94.52Y-27.54
X96.044Y-75.8
X97.06Y-27.54
X98.584Y-75.8
X101.124Y-75.8
X103.664Y-75.8
X106.204Y-75.8
T4
X117.5Y-65.0
X117.5Y-70.0
T0
M30
