%TF.GenerationSoftware,KiCad,Pcbnew,7.0.7*%
%TF.CreationDate,2024-03-03T00:58:22-08:00*%
%TF.ProjectId,arduino-due-shield,61726475-696e-46f2-9d64-75652d736869,rev?*%
%TF.SameCoordinates,Original*%
%TF.FileFunction,Drillmap*%
%TF.FilePolarity,Positive*%
%FSLAX45Y45*%
G04 Gerber Fmt 4.5, Leading zero omitted, Abs format (unit mm)*
G04 Created by KiCad (PCBNEW 7.0.7) date 2024-03-03 00:58:22*
%MOMM*%
%LPD*%
G01*
G04 APERTURE LIST*
%ADD10C,0.200000*%
%ADD11C,0.040000*%
%ADD12C,0.075000*%
%ADD13C,0.101600*%
%ADD14C,0.270000*%
G04 APERTURE END LIST*
D10*
D11*
X3307400Y-5542600D02*
X3347400Y-5582600D01*
X3347400Y-5542600D02*
X3307400Y-5582600D01*
X3307400Y-5796600D02*
X3347400Y-5836600D01*
X3347400Y-5796600D02*
X3307400Y-5836600D01*
X3307400Y-6050600D02*
X3347400Y-6090600D01*
X3347400Y-6050600D02*
X3307400Y-6090600D01*
X3307400Y-6304600D02*
X3347400Y-6344600D01*
X3347400Y-6304600D02*
X3307400Y-6344600D01*
X3764600Y-3663000D02*
X3804600Y-3703000D01*
X3804600Y-3663000D02*
X3764600Y-3703000D01*
X3917000Y-3790000D02*
X3957000Y-3830000D01*
X3957000Y-3790000D02*
X3917000Y-3830000D01*
X4069400Y-3942400D02*
X4109400Y-3982400D01*
X4109400Y-3942400D02*
X4069400Y-3982400D01*
X8001320Y-5989640D02*
X8041320Y-6029640D01*
X8041320Y-5989640D02*
X8001320Y-6029640D01*
X8077520Y-5258120D02*
X8117520Y-5298120D01*
X8117520Y-5258120D02*
X8077520Y-5298120D01*
X8153720Y-4262440D02*
X8193720Y-4302440D01*
X8193720Y-4262440D02*
X8153720Y-4302440D01*
X8311200Y-7346000D02*
X8351200Y-7386000D01*
X8351200Y-7346000D02*
X8311200Y-7386000D01*
X8565200Y-7346000D02*
X8605200Y-7386000D01*
X8605200Y-7346000D02*
X8565200Y-7386000D01*
X8819200Y-7346000D02*
X8859200Y-7386000D01*
X8859200Y-7346000D02*
X8819200Y-7386000D01*
X9073200Y-7346000D02*
X9113200Y-7386000D01*
X9113200Y-7346000D02*
X9073200Y-7386000D01*
X11156000Y-3713800D02*
X11196000Y-3753800D01*
X11196000Y-3713800D02*
X11156000Y-3753800D01*
X11156000Y-3866200D02*
X11196000Y-3906200D01*
X11196000Y-3866200D02*
X11156000Y-3906200D01*
X11308400Y-3713800D02*
X11348400Y-3753800D01*
X11348400Y-3713800D02*
X11308400Y-3753800D01*
X11308400Y-3866200D02*
X11348400Y-3906200D01*
X11348400Y-3866200D02*
X11308400Y-3906200D01*
D12*
X4537500Y-5000000D02*
G75*
G03*
X4537500Y-5000000I-37500J0D01*
G01*
X4737500Y-5000000D02*
G75*
G03*
X4737500Y-5000000I-37500J0D01*
G01*
X7037500Y-4000000D02*
G75*
G03*
X7037500Y-4000000I-37500J0D01*
G01*
X7037500Y-5000000D02*
G75*
G03*
X7037500Y-5000000I-37500J0D01*
G01*
X7037500Y-6000000D02*
G75*
G03*
X7037500Y-6000000I-37500J0D01*
G01*
X7237500Y-4000000D02*
G75*
G03*
X7237500Y-4000000I-37500J0D01*
G01*
X7237500Y-5000000D02*
G75*
G03*
X7237500Y-5000000I-37500J0D01*
G01*
X7237500Y-6000000D02*
G75*
G03*
X7237500Y-6000000I-37500J0D01*
G01*
X7437500Y-4000000D02*
G75*
G03*
X7437500Y-4000000I-37500J0D01*
G01*
X7437500Y-5000000D02*
G75*
G03*
X7437500Y-5000000I-37500J0D01*
G01*
X7437500Y-6000000D02*
G75*
G03*
X7437500Y-6000000I-37500J0D01*
G01*
X7637500Y-4000000D02*
G75*
G03*
X7637500Y-4000000I-37500J0D01*
G01*
X7637500Y-5000000D02*
G75*
G03*
X7637500Y-5000000I-37500J0D01*
G01*
X7637500Y-6000000D02*
G75*
G03*
X7637500Y-6000000I-37500J0D01*
G01*
X8537500Y-4000000D02*
G75*
G03*
X8537500Y-4000000I-37500J0D01*
G01*
X8537500Y-5000000D02*
G75*
G03*
X8537500Y-5000000I-37500J0D01*
G01*
X8537500Y-6000000D02*
G75*
G03*
X8537500Y-6000000I-37500J0D01*
G01*
X8737500Y-4000000D02*
G75*
G03*
X8737500Y-4000000I-37500J0D01*
G01*
X8737500Y-5000000D02*
G75*
G03*
X8737500Y-5000000I-37500J0D01*
G01*
X8737500Y-6000000D02*
G75*
G03*
X8737500Y-6000000I-37500J0D01*
G01*
X8937500Y-4000000D02*
G75*
G03*
X8937500Y-4000000I-37500J0D01*
G01*
X8937500Y-5000000D02*
G75*
G03*
X8937500Y-5000000I-37500J0D01*
G01*
X8937500Y-6000000D02*
G75*
G03*
X8937500Y-6000000I-37500J0D01*
G01*
X9137500Y-4000000D02*
G75*
G03*
X9137500Y-4000000I-37500J0D01*
G01*
X9137500Y-5000000D02*
G75*
G03*
X9137500Y-5000000I-37500J0D01*
G01*
X9137500Y-6000000D02*
G75*
G03*
X9137500Y-6000000I-37500J0D01*
G01*
D13*
X2848000Y-3211200D02*
X2848000Y-3312800D01*
X2797200Y-3262000D02*
X2898800Y-3262000D01*
X2848000Y-3465200D02*
X2848000Y-3566800D01*
X2797200Y-3516000D02*
X2898800Y-3516000D01*
X2848000Y-3719200D02*
X2848000Y-3820800D01*
X2797200Y-3770000D02*
X2898800Y-3770000D01*
X2848000Y-3973200D02*
X2848000Y-4074800D01*
X2797200Y-4024000D02*
X2898800Y-4024000D01*
X2848000Y-4227200D02*
X2848000Y-4328800D01*
X2797200Y-4278000D02*
X2898800Y-4278000D01*
X2848000Y-4481200D02*
X2848000Y-4582800D01*
X2797200Y-4532000D02*
X2898800Y-4532000D01*
X2848000Y-4735200D02*
X2848000Y-4836800D01*
X2797200Y-4786000D02*
X2898800Y-4786000D01*
X2848000Y-4989200D02*
X2848000Y-5090800D01*
X2797200Y-5040000D02*
X2898800Y-5040000D01*
X2848000Y-5243200D02*
X2848000Y-5344800D01*
X2797200Y-5294000D02*
X2898800Y-5294000D01*
X2848000Y-5497200D02*
X2848000Y-5598800D01*
X2797200Y-5548000D02*
X2898800Y-5548000D01*
X2848000Y-5751200D02*
X2848000Y-5852800D01*
X2797200Y-5802000D02*
X2898800Y-5802000D01*
X2848000Y-6005200D02*
X2848000Y-6106800D01*
X2797200Y-6056000D02*
X2898800Y-6056000D01*
X2848000Y-6259200D02*
X2848000Y-6360800D01*
X2797200Y-6310000D02*
X2898800Y-6310000D01*
X2848000Y-6513200D02*
X2848000Y-6614800D01*
X2797200Y-6564000D02*
X2898800Y-6564000D01*
X2848000Y-6767200D02*
X2848000Y-6868800D01*
X2797200Y-6818000D02*
X2898800Y-6818000D01*
X2848000Y-7021200D02*
X2848000Y-7122800D01*
X2797200Y-7072000D02*
X2898800Y-7072000D01*
X2848000Y-7275200D02*
X2848000Y-7376800D01*
X2797200Y-7326000D02*
X2898800Y-7326000D01*
X2848000Y-7529200D02*
X2848000Y-7630800D01*
X2797200Y-7580000D02*
X2898800Y-7580000D01*
X3102000Y-3211200D02*
X3102000Y-3312800D01*
X3051200Y-3262000D02*
X3152800Y-3262000D01*
X3102000Y-3465200D02*
X3102000Y-3566800D01*
X3051200Y-3516000D02*
X3152800Y-3516000D01*
X3102000Y-3719200D02*
X3102000Y-3820800D01*
X3051200Y-3770000D02*
X3152800Y-3770000D01*
X3102000Y-3973200D02*
X3102000Y-4074800D01*
X3051200Y-4024000D02*
X3152800Y-4024000D01*
X3102000Y-4227200D02*
X3102000Y-4328800D01*
X3051200Y-4278000D02*
X3152800Y-4278000D01*
X3102000Y-4481200D02*
X3102000Y-4582800D01*
X3051200Y-4532000D02*
X3152800Y-4532000D01*
X3102000Y-4735200D02*
X3102000Y-4836800D01*
X3051200Y-4786000D02*
X3152800Y-4786000D01*
X3102000Y-4989200D02*
X3102000Y-5090800D01*
X3051200Y-5040000D02*
X3152800Y-5040000D01*
X3102000Y-5243200D02*
X3102000Y-5344800D01*
X3051200Y-5294000D02*
X3152800Y-5294000D01*
X3102000Y-5497200D02*
X3102000Y-5598800D01*
X3051200Y-5548000D02*
X3152800Y-5548000D01*
X3102000Y-5751200D02*
X3102000Y-5852800D01*
X3051200Y-5802000D02*
X3152800Y-5802000D01*
X3102000Y-6005200D02*
X3102000Y-6106800D01*
X3051200Y-6056000D02*
X3152800Y-6056000D01*
X3102000Y-6259200D02*
X3102000Y-6360800D01*
X3051200Y-6310000D02*
X3152800Y-6310000D01*
X3102000Y-6513200D02*
X3102000Y-6614800D01*
X3051200Y-6564000D02*
X3152800Y-6564000D01*
X3102000Y-6767200D02*
X3102000Y-6868800D01*
X3051200Y-6818000D02*
X3152800Y-6818000D01*
X3102000Y-7021200D02*
X3102000Y-7122800D01*
X3051200Y-7072000D02*
X3152800Y-7072000D01*
X3102000Y-7275200D02*
X3102000Y-7376800D01*
X3051200Y-7326000D02*
X3152800Y-7326000D01*
X3102000Y-7529200D02*
X3102000Y-7630800D01*
X3051200Y-7580000D02*
X3152800Y-7580000D01*
X3356000Y-2703200D02*
X3356000Y-2804800D01*
X3305200Y-2754000D02*
X3406800Y-2754000D01*
X3610000Y-2703200D02*
X3610000Y-2804800D01*
X3559200Y-2754000D02*
X3660800Y-2754000D01*
X3864000Y-2703200D02*
X3864000Y-2804800D01*
X3813200Y-2754000D02*
X3914800Y-2754000D01*
X3864000Y-7529200D02*
X3864000Y-7630800D01*
X3813200Y-7580000D02*
X3914800Y-7580000D01*
X4118000Y-2703200D02*
X4118000Y-2804800D01*
X4067200Y-2754000D02*
X4168800Y-2754000D01*
X4118000Y-7529200D02*
X4118000Y-7630800D01*
X4067200Y-7580000D02*
X4168800Y-7580000D01*
X4372000Y-2703200D02*
X4372000Y-2804800D01*
X4321200Y-2754000D02*
X4422800Y-2754000D01*
X4372000Y-7529200D02*
X4372000Y-7630800D01*
X4321200Y-7580000D02*
X4422800Y-7580000D01*
X4626000Y-2703200D02*
X4626000Y-2804800D01*
X4575200Y-2754000D02*
X4676800Y-2754000D01*
X4626000Y-7529200D02*
X4626000Y-7630800D01*
X4575200Y-7580000D02*
X4676800Y-7580000D01*
X4880000Y-2703200D02*
X4880000Y-2804800D01*
X4829200Y-2754000D02*
X4930800Y-2754000D01*
X4880000Y-7529200D02*
X4880000Y-7630800D01*
X4829200Y-7580000D02*
X4930800Y-7580000D01*
X5134000Y-2703200D02*
X5134000Y-2804800D01*
X5083200Y-2754000D02*
X5184800Y-2754000D01*
X5134000Y-7529200D02*
X5134000Y-7630800D01*
X5083200Y-7580000D02*
X5184800Y-7580000D01*
X5388000Y-7529200D02*
X5388000Y-7630800D01*
X5337200Y-7580000D02*
X5438800Y-7580000D01*
X5642000Y-2703200D02*
X5642000Y-2804800D01*
X5591200Y-2754000D02*
X5692800Y-2754000D01*
X5642000Y-7529200D02*
X5642000Y-7630800D01*
X5591200Y-7580000D02*
X5692800Y-7580000D01*
X5883300Y-4989200D02*
X5883300Y-5090800D01*
X5832500Y-5040000D02*
X5934100Y-5040000D01*
X5883300Y-5243200D02*
X5883300Y-5344800D01*
X5832500Y-5294000D02*
X5934100Y-5294000D01*
X5883300Y-5497200D02*
X5883300Y-5598800D01*
X5832500Y-5548000D02*
X5934100Y-5548000D01*
X5896000Y-2703200D02*
X5896000Y-2804800D01*
X5845200Y-2754000D02*
X5946800Y-2754000D01*
X6137300Y-4989200D02*
X6137300Y-5090800D01*
X6086500Y-5040000D02*
X6188100Y-5040000D01*
X6137300Y-5243200D02*
X6137300Y-5344800D01*
X6086500Y-5294000D02*
X6188100Y-5294000D01*
X6137300Y-5497200D02*
X6137300Y-5598800D01*
X6086500Y-5548000D02*
X6188100Y-5548000D01*
X6150000Y-2703200D02*
X6150000Y-2804800D01*
X6099200Y-2754000D02*
X6200800Y-2754000D01*
X6150000Y-7529200D02*
X6150000Y-7630800D01*
X6099200Y-7580000D02*
X6200800Y-7580000D01*
X6404000Y-2703200D02*
X6404000Y-2804800D01*
X6353200Y-2754000D02*
X6454800Y-2754000D01*
X6404000Y-7529200D02*
X6404000Y-7630800D01*
X6353200Y-7580000D02*
X6454800Y-7580000D01*
X6658000Y-2703200D02*
X6658000Y-2804800D01*
X6607200Y-2754000D02*
X6708800Y-2754000D01*
X6658000Y-7529200D02*
X6658000Y-7630800D01*
X6607200Y-7580000D02*
X6708800Y-7580000D01*
X6912000Y-2703200D02*
X6912000Y-2804800D01*
X6861200Y-2754000D02*
X6962800Y-2754000D01*
X6912000Y-7529200D02*
X6912000Y-7630800D01*
X6861200Y-7580000D02*
X6962800Y-7580000D01*
X7166000Y-2703200D02*
X7166000Y-2804800D01*
X7115200Y-2754000D02*
X7216800Y-2754000D01*
X7166000Y-7529200D02*
X7166000Y-7630800D01*
X7115200Y-7580000D02*
X7216800Y-7580000D01*
X7420000Y-2703200D02*
X7420000Y-2804800D01*
X7369200Y-2754000D02*
X7470800Y-2754000D01*
X7420000Y-7529200D02*
X7420000Y-7630800D01*
X7369200Y-7580000D02*
X7470800Y-7580000D01*
X7674000Y-7529200D02*
X7674000Y-7630800D01*
X7623200Y-7580000D02*
X7724800Y-7580000D01*
X7928000Y-2703200D02*
X7928000Y-2804800D01*
X7877200Y-2754000D02*
X7978800Y-2754000D01*
X7928000Y-7529200D02*
X7928000Y-7630800D01*
X7877200Y-7580000D02*
X7978800Y-7580000D01*
X8182000Y-2703200D02*
X8182000Y-2804800D01*
X8131200Y-2754000D02*
X8232800Y-2754000D01*
X8334400Y-7529200D02*
X8334400Y-7630800D01*
X8283600Y-7580000D02*
X8385200Y-7580000D01*
X8436000Y-2703200D02*
X8436000Y-2804800D01*
X8385200Y-2754000D02*
X8486800Y-2754000D01*
X8588400Y-7529200D02*
X8588400Y-7630800D01*
X8537600Y-7580000D02*
X8639200Y-7580000D01*
X8690000Y-2703200D02*
X8690000Y-2804800D01*
X8639200Y-2754000D02*
X8740800Y-2754000D01*
X8842400Y-7529200D02*
X8842400Y-7630800D01*
X8791600Y-7580000D02*
X8893200Y-7580000D01*
X8944000Y-2703200D02*
X8944000Y-2804800D01*
X8893200Y-2754000D02*
X8994800Y-2754000D01*
X9096400Y-7529200D02*
X9096400Y-7630800D01*
X9045600Y-7580000D02*
X9147200Y-7580000D01*
X9198000Y-2703200D02*
X9198000Y-2804800D01*
X9147200Y-2754000D02*
X9248800Y-2754000D01*
X9350400Y-7529200D02*
X9350400Y-7630800D01*
X9299600Y-7580000D02*
X9401200Y-7580000D01*
X9452000Y-2703200D02*
X9452000Y-2804800D01*
X9401200Y-2754000D02*
X9502800Y-2754000D01*
X9604400Y-7529200D02*
X9604400Y-7630800D01*
X9553600Y-7580000D02*
X9655200Y-7580000D01*
X9706000Y-2703200D02*
X9706000Y-2804800D01*
X9655200Y-2754000D02*
X9756800Y-2754000D01*
X9858400Y-7529200D02*
X9858400Y-7630800D01*
X9807600Y-7580000D02*
X9909200Y-7580000D01*
X10112400Y-7529200D02*
X10112400Y-7630800D01*
X10061600Y-7580000D02*
X10163200Y-7580000D01*
X10366400Y-7529200D02*
X10366400Y-7630800D01*
X10315600Y-7580000D02*
X10417200Y-7580000D01*
X10620400Y-7529200D02*
X10620400Y-7630800D01*
X10569600Y-7580000D02*
X10671200Y-7580000D01*
D14*
X11845460Y-6595460D02*
X11845460Y-6404540D01*
X11654540Y-6404540D01*
X11654540Y-6595460D01*
X11845460Y-6595460D01*
X11845460Y-7095460D02*
X11845460Y-6904540D01*
X11654540Y-6904540D01*
X11654540Y-7095460D01*
X11845460Y-7095460D01*
D10*
X2593277Y-8152984D02*
X2593277Y-7952984D01*
X2593277Y-7952984D02*
X2640896Y-7952984D01*
X2640896Y-7952984D02*
X2669467Y-7962508D01*
X2669467Y-7962508D02*
X2688515Y-7981555D01*
X2688515Y-7981555D02*
X2698039Y-8000603D01*
X2698039Y-8000603D02*
X2707563Y-8038698D01*
X2707563Y-8038698D02*
X2707563Y-8067269D01*
X2707563Y-8067269D02*
X2698039Y-8105365D01*
X2698039Y-8105365D02*
X2688515Y-8124412D01*
X2688515Y-8124412D02*
X2669467Y-8143460D01*
X2669467Y-8143460D02*
X2640896Y-8152984D01*
X2640896Y-8152984D02*
X2593277Y-8152984D01*
X2793277Y-8152984D02*
X2793277Y-8019650D01*
X2793277Y-8057746D02*
X2802801Y-8038698D01*
X2802801Y-8038698D02*
X2812324Y-8029174D01*
X2812324Y-8029174D02*
X2831372Y-8019650D01*
X2831372Y-8019650D02*
X2850420Y-8019650D01*
X2917086Y-8152984D02*
X2917086Y-8019650D01*
X2917086Y-7952984D02*
X2907562Y-7962508D01*
X2907562Y-7962508D02*
X2917086Y-7972031D01*
X2917086Y-7972031D02*
X2926610Y-7962508D01*
X2926610Y-7962508D02*
X2917086Y-7952984D01*
X2917086Y-7952984D02*
X2917086Y-7972031D01*
X3040896Y-8152984D02*
X3021848Y-8143460D01*
X3021848Y-8143460D02*
X3012324Y-8124412D01*
X3012324Y-8124412D02*
X3012324Y-7952984D01*
X3145658Y-8152984D02*
X3126610Y-8143460D01*
X3126610Y-8143460D02*
X3117086Y-8124412D01*
X3117086Y-8124412D02*
X3117086Y-7952984D01*
X3374229Y-8152984D02*
X3374229Y-7952984D01*
X3374229Y-7952984D02*
X3440896Y-8095841D01*
X3440896Y-8095841D02*
X3507562Y-7952984D01*
X3507562Y-7952984D02*
X3507562Y-8152984D01*
X3688515Y-8152984D02*
X3688515Y-8048222D01*
X3688515Y-8048222D02*
X3678991Y-8029174D01*
X3678991Y-8029174D02*
X3659943Y-8019650D01*
X3659943Y-8019650D02*
X3621848Y-8019650D01*
X3621848Y-8019650D02*
X3602801Y-8029174D01*
X3688515Y-8143460D02*
X3669467Y-8152984D01*
X3669467Y-8152984D02*
X3621848Y-8152984D01*
X3621848Y-8152984D02*
X3602801Y-8143460D01*
X3602801Y-8143460D02*
X3593277Y-8124412D01*
X3593277Y-8124412D02*
X3593277Y-8105365D01*
X3593277Y-8105365D02*
X3602801Y-8086317D01*
X3602801Y-8086317D02*
X3621848Y-8076793D01*
X3621848Y-8076793D02*
X3669467Y-8076793D01*
X3669467Y-8076793D02*
X3688515Y-8067269D01*
X3783753Y-8019650D02*
X3783753Y-8219650D01*
X3783753Y-8029174D02*
X3802801Y-8019650D01*
X3802801Y-8019650D02*
X3840896Y-8019650D01*
X3840896Y-8019650D02*
X3859943Y-8029174D01*
X3859943Y-8029174D02*
X3869467Y-8038698D01*
X3869467Y-8038698D02*
X3878991Y-8057746D01*
X3878991Y-8057746D02*
X3878991Y-8114888D01*
X3878991Y-8114888D02*
X3869467Y-8133936D01*
X3869467Y-8133936D02*
X3859943Y-8143460D01*
X3859943Y-8143460D02*
X3840896Y-8152984D01*
X3840896Y-8152984D02*
X3802801Y-8152984D01*
X3802801Y-8152984D02*
X3783753Y-8143460D01*
X3964705Y-8133936D02*
X3974229Y-8143460D01*
X3974229Y-8143460D02*
X3964705Y-8152984D01*
X3964705Y-8152984D02*
X3955182Y-8143460D01*
X3955182Y-8143460D02*
X3964705Y-8133936D01*
X3964705Y-8133936D02*
X3964705Y-8152984D01*
X3964705Y-8029174D02*
X3974229Y-8038698D01*
X3974229Y-8038698D02*
X3964705Y-8048222D01*
X3964705Y-8048222D02*
X3955182Y-8038698D01*
X3955182Y-8038698D02*
X3964705Y-8029174D01*
X3964705Y-8029174D02*
X3964705Y-8048222D01*
D11*
X2292500Y-8461500D02*
X2332500Y-8501500D01*
X2332500Y-8461500D02*
X2292500Y-8501500D01*
D10*
X2631372Y-8372984D02*
X2650420Y-8372984D01*
X2650420Y-8372984D02*
X2669467Y-8382508D01*
X2669467Y-8382508D02*
X2678991Y-8392031D01*
X2678991Y-8392031D02*
X2688515Y-8411079D01*
X2688515Y-8411079D02*
X2698039Y-8449174D01*
X2698039Y-8449174D02*
X2698039Y-8496793D01*
X2698039Y-8496793D02*
X2688515Y-8534889D01*
X2688515Y-8534889D02*
X2678991Y-8553936D01*
X2678991Y-8553936D02*
X2669467Y-8563460D01*
X2669467Y-8563460D02*
X2650420Y-8572984D01*
X2650420Y-8572984D02*
X2631372Y-8572984D01*
X2631372Y-8572984D02*
X2612324Y-8563460D01*
X2612324Y-8563460D02*
X2602801Y-8553936D01*
X2602801Y-8553936D02*
X2593277Y-8534889D01*
X2593277Y-8534889D02*
X2583753Y-8496793D01*
X2583753Y-8496793D02*
X2583753Y-8449174D01*
X2583753Y-8449174D02*
X2593277Y-8411079D01*
X2593277Y-8411079D02*
X2602801Y-8392031D01*
X2602801Y-8392031D02*
X2612324Y-8382508D01*
X2612324Y-8382508D02*
X2631372Y-8372984D01*
X2783753Y-8553936D02*
X2793277Y-8563460D01*
X2793277Y-8563460D02*
X2783753Y-8572984D01*
X2783753Y-8572984D02*
X2774229Y-8563460D01*
X2774229Y-8563460D02*
X2783753Y-8553936D01*
X2783753Y-8553936D02*
X2783753Y-8572984D01*
X2964705Y-8439650D02*
X2964705Y-8572984D01*
X2917086Y-8363460D02*
X2869467Y-8506317D01*
X2869467Y-8506317D02*
X2993277Y-8506317D01*
X3107562Y-8372984D02*
X3126610Y-8372984D01*
X3126610Y-8372984D02*
X3145658Y-8382508D01*
X3145658Y-8382508D02*
X3155182Y-8392031D01*
X3155182Y-8392031D02*
X3164705Y-8411079D01*
X3164705Y-8411079D02*
X3174229Y-8449174D01*
X3174229Y-8449174D02*
X3174229Y-8496793D01*
X3174229Y-8496793D02*
X3164705Y-8534889D01*
X3164705Y-8534889D02*
X3155182Y-8553936D01*
X3155182Y-8553936D02*
X3145658Y-8563460D01*
X3145658Y-8563460D02*
X3126610Y-8572984D01*
X3126610Y-8572984D02*
X3107562Y-8572984D01*
X3107562Y-8572984D02*
X3088515Y-8563460D01*
X3088515Y-8563460D02*
X3078991Y-8553936D01*
X3078991Y-8553936D02*
X3069467Y-8534889D01*
X3069467Y-8534889D02*
X3059943Y-8496793D01*
X3059943Y-8496793D02*
X3059943Y-8449174D01*
X3059943Y-8449174D02*
X3069467Y-8411079D01*
X3069467Y-8411079D02*
X3078991Y-8392031D01*
X3078991Y-8392031D02*
X3088515Y-8382508D01*
X3088515Y-8382508D02*
X3107562Y-8372984D01*
X3298039Y-8372984D02*
X3317086Y-8372984D01*
X3317086Y-8372984D02*
X3336134Y-8382508D01*
X3336134Y-8382508D02*
X3345658Y-8392031D01*
X3345658Y-8392031D02*
X3355182Y-8411079D01*
X3355182Y-8411079D02*
X3364705Y-8449174D01*
X3364705Y-8449174D02*
X3364705Y-8496793D01*
X3364705Y-8496793D02*
X3355182Y-8534889D01*
X3355182Y-8534889D02*
X3345658Y-8553936D01*
X3345658Y-8553936D02*
X3336134Y-8563460D01*
X3336134Y-8563460D02*
X3317086Y-8572984D01*
X3317086Y-8572984D02*
X3298039Y-8572984D01*
X3298039Y-8572984D02*
X3278991Y-8563460D01*
X3278991Y-8563460D02*
X3269467Y-8553936D01*
X3269467Y-8553936D02*
X3259943Y-8534889D01*
X3259943Y-8534889D02*
X3250420Y-8496793D01*
X3250420Y-8496793D02*
X3250420Y-8449174D01*
X3250420Y-8449174D02*
X3259943Y-8411079D01*
X3259943Y-8411079D02*
X3269467Y-8392031D01*
X3269467Y-8392031D02*
X3278991Y-8382508D01*
X3278991Y-8382508D02*
X3298039Y-8372984D01*
X3450420Y-8572984D02*
X3450420Y-8439650D01*
X3450420Y-8458698D02*
X3459943Y-8449174D01*
X3459943Y-8449174D02*
X3478991Y-8439650D01*
X3478991Y-8439650D02*
X3507563Y-8439650D01*
X3507563Y-8439650D02*
X3526610Y-8449174D01*
X3526610Y-8449174D02*
X3536134Y-8468222D01*
X3536134Y-8468222D02*
X3536134Y-8572984D01*
X3536134Y-8468222D02*
X3545658Y-8449174D01*
X3545658Y-8449174D02*
X3564705Y-8439650D01*
X3564705Y-8439650D02*
X3593277Y-8439650D01*
X3593277Y-8439650D02*
X3612324Y-8449174D01*
X3612324Y-8449174D02*
X3621848Y-8468222D01*
X3621848Y-8468222D02*
X3621848Y-8572984D01*
X3717086Y-8572984D02*
X3717086Y-8439650D01*
X3717086Y-8458698D02*
X3726610Y-8449174D01*
X3726610Y-8449174D02*
X3745658Y-8439650D01*
X3745658Y-8439650D02*
X3774229Y-8439650D01*
X3774229Y-8439650D02*
X3793277Y-8449174D01*
X3793277Y-8449174D02*
X3802801Y-8468222D01*
X3802801Y-8468222D02*
X3802801Y-8572984D01*
X3802801Y-8468222D02*
X3812324Y-8449174D01*
X3812324Y-8449174D02*
X3831372Y-8439650D01*
X3831372Y-8439650D02*
X3859943Y-8439650D01*
X3859943Y-8439650D02*
X3878991Y-8449174D01*
X3878991Y-8449174D02*
X3888515Y-8468222D01*
X3888515Y-8468222D02*
X3888515Y-8572984D01*
X4278991Y-8363460D02*
X4107563Y-8620603D01*
X4536134Y-8372984D02*
X4555182Y-8372984D01*
X4555182Y-8372984D02*
X4574229Y-8382508D01*
X4574229Y-8382508D02*
X4583753Y-8392031D01*
X4583753Y-8392031D02*
X4593277Y-8411079D01*
X4593277Y-8411079D02*
X4602801Y-8449174D01*
X4602801Y-8449174D02*
X4602801Y-8496793D01*
X4602801Y-8496793D02*
X4593277Y-8534889D01*
X4593277Y-8534889D02*
X4583753Y-8553936D01*
X4583753Y-8553936D02*
X4574229Y-8563460D01*
X4574229Y-8563460D02*
X4555182Y-8572984D01*
X4555182Y-8572984D02*
X4536134Y-8572984D01*
X4536134Y-8572984D02*
X4517087Y-8563460D01*
X4517087Y-8563460D02*
X4507563Y-8553936D01*
X4507563Y-8553936D02*
X4498039Y-8534889D01*
X4498039Y-8534889D02*
X4488515Y-8496793D01*
X4488515Y-8496793D02*
X4488515Y-8449174D01*
X4488515Y-8449174D02*
X4498039Y-8411079D01*
X4498039Y-8411079D02*
X4507563Y-8392031D01*
X4507563Y-8392031D02*
X4517087Y-8382508D01*
X4517087Y-8382508D02*
X4536134Y-8372984D01*
X4688515Y-8553936D02*
X4698039Y-8563460D01*
X4698039Y-8563460D02*
X4688515Y-8572984D01*
X4688515Y-8572984D02*
X4678991Y-8563460D01*
X4678991Y-8563460D02*
X4688515Y-8553936D01*
X4688515Y-8553936D02*
X4688515Y-8572984D01*
X4821848Y-8372984D02*
X4840896Y-8372984D01*
X4840896Y-8372984D02*
X4859944Y-8382508D01*
X4859944Y-8382508D02*
X4869468Y-8392031D01*
X4869468Y-8392031D02*
X4878991Y-8411079D01*
X4878991Y-8411079D02*
X4888515Y-8449174D01*
X4888515Y-8449174D02*
X4888515Y-8496793D01*
X4888515Y-8496793D02*
X4878991Y-8534889D01*
X4878991Y-8534889D02*
X4869468Y-8553936D01*
X4869468Y-8553936D02*
X4859944Y-8563460D01*
X4859944Y-8563460D02*
X4840896Y-8572984D01*
X4840896Y-8572984D02*
X4821848Y-8572984D01*
X4821848Y-8572984D02*
X4802801Y-8563460D01*
X4802801Y-8563460D02*
X4793277Y-8553936D01*
X4793277Y-8553936D02*
X4783753Y-8534889D01*
X4783753Y-8534889D02*
X4774229Y-8496793D01*
X4774229Y-8496793D02*
X4774229Y-8449174D01*
X4774229Y-8449174D02*
X4783753Y-8411079D01*
X4783753Y-8411079D02*
X4793277Y-8392031D01*
X4793277Y-8392031D02*
X4802801Y-8382508D01*
X4802801Y-8382508D02*
X4821848Y-8372984D01*
X5078991Y-8572984D02*
X4964706Y-8572984D01*
X5021848Y-8572984D02*
X5021848Y-8372984D01*
X5021848Y-8372984D02*
X5002801Y-8401555D01*
X5002801Y-8401555D02*
X4983753Y-8420603D01*
X4983753Y-8420603D02*
X4964706Y-8430127D01*
X5259944Y-8372984D02*
X5164706Y-8372984D01*
X5164706Y-8372984D02*
X5155182Y-8468222D01*
X5155182Y-8468222D02*
X5164706Y-8458698D01*
X5164706Y-8458698D02*
X5183753Y-8449174D01*
X5183753Y-8449174D02*
X5231372Y-8449174D01*
X5231372Y-8449174D02*
X5250420Y-8458698D01*
X5250420Y-8458698D02*
X5259944Y-8468222D01*
X5259944Y-8468222D02*
X5269468Y-8487270D01*
X5269468Y-8487270D02*
X5269468Y-8534889D01*
X5269468Y-8534889D02*
X5259944Y-8553936D01*
X5259944Y-8553936D02*
X5250420Y-8563460D01*
X5250420Y-8563460D02*
X5231372Y-8572984D01*
X5231372Y-8572984D02*
X5183753Y-8572984D01*
X5183753Y-8572984D02*
X5164706Y-8563460D01*
X5164706Y-8563460D02*
X5155182Y-8553936D01*
X5336134Y-8372984D02*
X5469468Y-8372984D01*
X5469468Y-8372984D02*
X5383753Y-8572984D01*
X5536134Y-8372984D02*
X5536134Y-8411079D01*
X5612325Y-8372984D02*
X5612325Y-8411079D01*
X5907563Y-8649174D02*
X5898039Y-8639650D01*
X5898039Y-8639650D02*
X5878991Y-8611079D01*
X5878991Y-8611079D02*
X5869468Y-8592031D01*
X5869468Y-8592031D02*
X5859944Y-8563460D01*
X5859944Y-8563460D02*
X5850420Y-8515841D01*
X5850420Y-8515841D02*
X5850420Y-8477746D01*
X5850420Y-8477746D02*
X5859944Y-8430127D01*
X5859944Y-8430127D02*
X5869468Y-8401555D01*
X5869468Y-8401555D02*
X5878991Y-8382508D01*
X5878991Y-8382508D02*
X5898039Y-8353936D01*
X5898039Y-8353936D02*
X5907563Y-8344412D01*
X6088515Y-8572984D02*
X5974229Y-8572984D01*
X6031372Y-8572984D02*
X6031372Y-8372984D01*
X6031372Y-8372984D02*
X6012325Y-8401555D01*
X6012325Y-8401555D02*
X5993277Y-8420603D01*
X5993277Y-8420603D02*
X5974229Y-8430127D01*
X6202801Y-8458698D02*
X6183753Y-8449174D01*
X6183753Y-8449174D02*
X6174229Y-8439650D01*
X6174229Y-8439650D02*
X6164706Y-8420603D01*
X6164706Y-8420603D02*
X6164706Y-8411079D01*
X6164706Y-8411079D02*
X6174229Y-8392031D01*
X6174229Y-8392031D02*
X6183753Y-8382508D01*
X6183753Y-8382508D02*
X6202801Y-8372984D01*
X6202801Y-8372984D02*
X6240896Y-8372984D01*
X6240896Y-8372984D02*
X6259944Y-8382508D01*
X6259944Y-8382508D02*
X6269468Y-8392031D01*
X6269468Y-8392031D02*
X6278991Y-8411079D01*
X6278991Y-8411079D02*
X6278991Y-8420603D01*
X6278991Y-8420603D02*
X6269468Y-8439650D01*
X6269468Y-8439650D02*
X6259944Y-8449174D01*
X6259944Y-8449174D02*
X6240896Y-8458698D01*
X6240896Y-8458698D02*
X6202801Y-8458698D01*
X6202801Y-8458698D02*
X6183753Y-8468222D01*
X6183753Y-8468222D02*
X6174229Y-8477746D01*
X6174229Y-8477746D02*
X6164706Y-8496793D01*
X6164706Y-8496793D02*
X6164706Y-8534889D01*
X6164706Y-8534889D02*
X6174229Y-8553936D01*
X6174229Y-8553936D02*
X6183753Y-8563460D01*
X6183753Y-8563460D02*
X6202801Y-8572984D01*
X6202801Y-8572984D02*
X6240896Y-8572984D01*
X6240896Y-8572984D02*
X6259944Y-8563460D01*
X6259944Y-8563460D02*
X6269468Y-8553936D01*
X6269468Y-8553936D02*
X6278991Y-8534889D01*
X6278991Y-8534889D02*
X6278991Y-8496793D01*
X6278991Y-8496793D02*
X6269468Y-8477746D01*
X6269468Y-8477746D02*
X6259944Y-8468222D01*
X6259944Y-8468222D02*
X6240896Y-8458698D01*
X6517087Y-8572984D02*
X6517087Y-8372984D01*
X6602801Y-8572984D02*
X6602801Y-8468222D01*
X6602801Y-8468222D02*
X6593277Y-8449174D01*
X6593277Y-8449174D02*
X6574230Y-8439650D01*
X6574230Y-8439650D02*
X6545658Y-8439650D01*
X6545658Y-8439650D02*
X6526610Y-8449174D01*
X6526610Y-8449174D02*
X6517087Y-8458698D01*
X6726610Y-8572984D02*
X6707563Y-8563460D01*
X6707563Y-8563460D02*
X6698039Y-8553936D01*
X6698039Y-8553936D02*
X6688515Y-8534889D01*
X6688515Y-8534889D02*
X6688515Y-8477746D01*
X6688515Y-8477746D02*
X6698039Y-8458698D01*
X6698039Y-8458698D02*
X6707563Y-8449174D01*
X6707563Y-8449174D02*
X6726610Y-8439650D01*
X6726610Y-8439650D02*
X6755182Y-8439650D01*
X6755182Y-8439650D02*
X6774230Y-8449174D01*
X6774230Y-8449174D02*
X6783753Y-8458698D01*
X6783753Y-8458698D02*
X6793277Y-8477746D01*
X6793277Y-8477746D02*
X6793277Y-8534889D01*
X6793277Y-8534889D02*
X6783753Y-8553936D01*
X6783753Y-8553936D02*
X6774230Y-8563460D01*
X6774230Y-8563460D02*
X6755182Y-8572984D01*
X6755182Y-8572984D02*
X6726610Y-8572984D01*
X6907563Y-8572984D02*
X6888515Y-8563460D01*
X6888515Y-8563460D02*
X6878991Y-8544412D01*
X6878991Y-8544412D02*
X6878991Y-8372984D01*
X7059944Y-8563460D02*
X7040896Y-8572984D01*
X7040896Y-8572984D02*
X7002801Y-8572984D01*
X7002801Y-8572984D02*
X6983753Y-8563460D01*
X6983753Y-8563460D02*
X6974230Y-8544412D01*
X6974230Y-8544412D02*
X6974230Y-8468222D01*
X6974230Y-8468222D02*
X6983753Y-8449174D01*
X6983753Y-8449174D02*
X7002801Y-8439650D01*
X7002801Y-8439650D02*
X7040896Y-8439650D01*
X7040896Y-8439650D02*
X7059944Y-8449174D01*
X7059944Y-8449174D02*
X7069468Y-8468222D01*
X7069468Y-8468222D02*
X7069468Y-8487270D01*
X7069468Y-8487270D02*
X6974230Y-8506317D01*
X7145658Y-8563460D02*
X7164706Y-8572984D01*
X7164706Y-8572984D02*
X7202801Y-8572984D01*
X7202801Y-8572984D02*
X7221849Y-8563460D01*
X7221849Y-8563460D02*
X7231372Y-8544412D01*
X7231372Y-8544412D02*
X7231372Y-8534889D01*
X7231372Y-8534889D02*
X7221849Y-8515841D01*
X7221849Y-8515841D02*
X7202801Y-8506317D01*
X7202801Y-8506317D02*
X7174230Y-8506317D01*
X7174230Y-8506317D02*
X7155182Y-8496793D01*
X7155182Y-8496793D02*
X7145658Y-8477746D01*
X7145658Y-8477746D02*
X7145658Y-8468222D01*
X7145658Y-8468222D02*
X7155182Y-8449174D01*
X7155182Y-8449174D02*
X7174230Y-8439650D01*
X7174230Y-8439650D02*
X7202801Y-8439650D01*
X7202801Y-8439650D02*
X7221849Y-8449174D01*
X7298039Y-8649174D02*
X7307563Y-8639650D01*
X7307563Y-8639650D02*
X7326611Y-8611079D01*
X7326611Y-8611079D02*
X7336134Y-8592031D01*
X7336134Y-8592031D02*
X7345658Y-8563460D01*
X7345658Y-8563460D02*
X7355182Y-8515841D01*
X7355182Y-8515841D02*
X7355182Y-8477746D01*
X7355182Y-8477746D02*
X7345658Y-8430127D01*
X7345658Y-8430127D02*
X7336134Y-8401555D01*
X7336134Y-8401555D02*
X7326611Y-8382508D01*
X7326611Y-8382508D02*
X7307563Y-8353936D01*
X7307563Y-8353936D02*
X7298039Y-8344412D01*
D12*
X2332500Y-8745500D02*
G75*
G03*
X2332500Y-8745500I-37500J0D01*
G01*
D10*
X2631372Y-8636984D02*
X2650420Y-8636984D01*
X2650420Y-8636984D02*
X2669467Y-8646508D01*
X2669467Y-8646508D02*
X2678991Y-8656031D01*
X2678991Y-8656031D02*
X2688515Y-8675079D01*
X2688515Y-8675079D02*
X2698039Y-8713174D01*
X2698039Y-8713174D02*
X2698039Y-8760793D01*
X2698039Y-8760793D02*
X2688515Y-8798889D01*
X2688515Y-8798889D02*
X2678991Y-8817936D01*
X2678991Y-8817936D02*
X2669467Y-8827460D01*
X2669467Y-8827460D02*
X2650420Y-8836984D01*
X2650420Y-8836984D02*
X2631372Y-8836984D01*
X2631372Y-8836984D02*
X2612324Y-8827460D01*
X2612324Y-8827460D02*
X2602801Y-8817936D01*
X2602801Y-8817936D02*
X2593277Y-8798889D01*
X2593277Y-8798889D02*
X2583753Y-8760793D01*
X2583753Y-8760793D02*
X2583753Y-8713174D01*
X2583753Y-8713174D02*
X2593277Y-8675079D01*
X2593277Y-8675079D02*
X2602801Y-8656031D01*
X2602801Y-8656031D02*
X2612324Y-8646508D01*
X2612324Y-8646508D02*
X2631372Y-8636984D01*
X2783753Y-8817936D02*
X2793277Y-8827460D01*
X2793277Y-8827460D02*
X2783753Y-8836984D01*
X2783753Y-8836984D02*
X2774229Y-8827460D01*
X2774229Y-8827460D02*
X2783753Y-8817936D01*
X2783753Y-8817936D02*
X2783753Y-8836984D01*
X2859943Y-8636984D02*
X2993277Y-8636984D01*
X2993277Y-8636984D02*
X2907562Y-8836984D01*
X3164705Y-8636984D02*
X3069467Y-8636984D01*
X3069467Y-8636984D02*
X3059943Y-8732222D01*
X3059943Y-8732222D02*
X3069467Y-8722698D01*
X3069467Y-8722698D02*
X3088515Y-8713174D01*
X3088515Y-8713174D02*
X3136134Y-8713174D01*
X3136134Y-8713174D02*
X3155182Y-8722698D01*
X3155182Y-8722698D02*
X3164705Y-8732222D01*
X3164705Y-8732222D02*
X3174229Y-8751270D01*
X3174229Y-8751270D02*
X3174229Y-8798889D01*
X3174229Y-8798889D02*
X3164705Y-8817936D01*
X3164705Y-8817936D02*
X3155182Y-8827460D01*
X3155182Y-8827460D02*
X3136134Y-8836984D01*
X3136134Y-8836984D02*
X3088515Y-8836984D01*
X3088515Y-8836984D02*
X3069467Y-8827460D01*
X3069467Y-8827460D02*
X3059943Y-8817936D01*
X3298039Y-8636984D02*
X3317086Y-8636984D01*
X3317086Y-8636984D02*
X3336134Y-8646508D01*
X3336134Y-8646508D02*
X3345658Y-8656031D01*
X3345658Y-8656031D02*
X3355182Y-8675079D01*
X3355182Y-8675079D02*
X3364705Y-8713174D01*
X3364705Y-8713174D02*
X3364705Y-8760793D01*
X3364705Y-8760793D02*
X3355182Y-8798889D01*
X3355182Y-8798889D02*
X3345658Y-8817936D01*
X3345658Y-8817936D02*
X3336134Y-8827460D01*
X3336134Y-8827460D02*
X3317086Y-8836984D01*
X3317086Y-8836984D02*
X3298039Y-8836984D01*
X3298039Y-8836984D02*
X3278991Y-8827460D01*
X3278991Y-8827460D02*
X3269467Y-8817936D01*
X3269467Y-8817936D02*
X3259943Y-8798889D01*
X3259943Y-8798889D02*
X3250420Y-8760793D01*
X3250420Y-8760793D02*
X3250420Y-8713174D01*
X3250420Y-8713174D02*
X3259943Y-8675079D01*
X3259943Y-8675079D02*
X3269467Y-8656031D01*
X3269467Y-8656031D02*
X3278991Y-8646508D01*
X3278991Y-8646508D02*
X3298039Y-8636984D01*
X3450420Y-8836984D02*
X3450420Y-8703650D01*
X3450420Y-8722698D02*
X3459943Y-8713174D01*
X3459943Y-8713174D02*
X3478991Y-8703650D01*
X3478991Y-8703650D02*
X3507563Y-8703650D01*
X3507563Y-8703650D02*
X3526610Y-8713174D01*
X3526610Y-8713174D02*
X3536134Y-8732222D01*
X3536134Y-8732222D02*
X3536134Y-8836984D01*
X3536134Y-8732222D02*
X3545658Y-8713174D01*
X3545658Y-8713174D02*
X3564705Y-8703650D01*
X3564705Y-8703650D02*
X3593277Y-8703650D01*
X3593277Y-8703650D02*
X3612324Y-8713174D01*
X3612324Y-8713174D02*
X3621848Y-8732222D01*
X3621848Y-8732222D02*
X3621848Y-8836984D01*
X3717086Y-8836984D02*
X3717086Y-8703650D01*
X3717086Y-8722698D02*
X3726610Y-8713174D01*
X3726610Y-8713174D02*
X3745658Y-8703650D01*
X3745658Y-8703650D02*
X3774229Y-8703650D01*
X3774229Y-8703650D02*
X3793277Y-8713174D01*
X3793277Y-8713174D02*
X3802801Y-8732222D01*
X3802801Y-8732222D02*
X3802801Y-8836984D01*
X3802801Y-8732222D02*
X3812324Y-8713174D01*
X3812324Y-8713174D02*
X3831372Y-8703650D01*
X3831372Y-8703650D02*
X3859943Y-8703650D01*
X3859943Y-8703650D02*
X3878991Y-8713174D01*
X3878991Y-8713174D02*
X3888515Y-8732222D01*
X3888515Y-8732222D02*
X3888515Y-8836984D01*
X4278991Y-8627460D02*
X4107563Y-8884603D01*
X4536134Y-8636984D02*
X4555182Y-8636984D01*
X4555182Y-8636984D02*
X4574229Y-8646508D01*
X4574229Y-8646508D02*
X4583753Y-8656031D01*
X4583753Y-8656031D02*
X4593277Y-8675079D01*
X4593277Y-8675079D02*
X4602801Y-8713174D01*
X4602801Y-8713174D02*
X4602801Y-8760793D01*
X4602801Y-8760793D02*
X4593277Y-8798889D01*
X4593277Y-8798889D02*
X4583753Y-8817936D01*
X4583753Y-8817936D02*
X4574229Y-8827460D01*
X4574229Y-8827460D02*
X4555182Y-8836984D01*
X4555182Y-8836984D02*
X4536134Y-8836984D01*
X4536134Y-8836984D02*
X4517087Y-8827460D01*
X4517087Y-8827460D02*
X4507563Y-8817936D01*
X4507563Y-8817936D02*
X4498039Y-8798889D01*
X4498039Y-8798889D02*
X4488515Y-8760793D01*
X4488515Y-8760793D02*
X4488515Y-8713174D01*
X4488515Y-8713174D02*
X4498039Y-8675079D01*
X4498039Y-8675079D02*
X4507563Y-8656031D01*
X4507563Y-8656031D02*
X4517087Y-8646508D01*
X4517087Y-8646508D02*
X4536134Y-8636984D01*
X4688515Y-8817936D02*
X4698039Y-8827460D01*
X4698039Y-8827460D02*
X4688515Y-8836984D01*
X4688515Y-8836984D02*
X4678991Y-8827460D01*
X4678991Y-8827460D02*
X4688515Y-8817936D01*
X4688515Y-8817936D02*
X4688515Y-8836984D01*
X4821848Y-8636984D02*
X4840896Y-8636984D01*
X4840896Y-8636984D02*
X4859944Y-8646508D01*
X4859944Y-8646508D02*
X4869468Y-8656031D01*
X4869468Y-8656031D02*
X4878991Y-8675079D01*
X4878991Y-8675079D02*
X4888515Y-8713174D01*
X4888515Y-8713174D02*
X4888515Y-8760793D01*
X4888515Y-8760793D02*
X4878991Y-8798889D01*
X4878991Y-8798889D02*
X4869468Y-8817936D01*
X4869468Y-8817936D02*
X4859944Y-8827460D01*
X4859944Y-8827460D02*
X4840896Y-8836984D01*
X4840896Y-8836984D02*
X4821848Y-8836984D01*
X4821848Y-8836984D02*
X4802801Y-8827460D01*
X4802801Y-8827460D02*
X4793277Y-8817936D01*
X4793277Y-8817936D02*
X4783753Y-8798889D01*
X4783753Y-8798889D02*
X4774229Y-8760793D01*
X4774229Y-8760793D02*
X4774229Y-8713174D01*
X4774229Y-8713174D02*
X4783753Y-8675079D01*
X4783753Y-8675079D02*
X4793277Y-8656031D01*
X4793277Y-8656031D02*
X4802801Y-8646508D01*
X4802801Y-8646508D02*
X4821848Y-8636984D01*
X4964706Y-8656031D02*
X4974229Y-8646508D01*
X4974229Y-8646508D02*
X4993277Y-8636984D01*
X4993277Y-8636984D02*
X5040896Y-8636984D01*
X5040896Y-8636984D02*
X5059944Y-8646508D01*
X5059944Y-8646508D02*
X5069468Y-8656031D01*
X5069468Y-8656031D02*
X5078991Y-8675079D01*
X5078991Y-8675079D02*
X5078991Y-8694127D01*
X5078991Y-8694127D02*
X5069468Y-8722698D01*
X5069468Y-8722698D02*
X4955182Y-8836984D01*
X4955182Y-8836984D02*
X5078991Y-8836984D01*
X5174229Y-8836984D02*
X5212325Y-8836984D01*
X5212325Y-8836984D02*
X5231372Y-8827460D01*
X5231372Y-8827460D02*
X5240896Y-8817936D01*
X5240896Y-8817936D02*
X5259944Y-8789365D01*
X5259944Y-8789365D02*
X5269468Y-8751270D01*
X5269468Y-8751270D02*
X5269468Y-8675079D01*
X5269468Y-8675079D02*
X5259944Y-8656031D01*
X5259944Y-8656031D02*
X5250420Y-8646508D01*
X5250420Y-8646508D02*
X5231372Y-8636984D01*
X5231372Y-8636984D02*
X5193277Y-8636984D01*
X5193277Y-8636984D02*
X5174229Y-8646508D01*
X5174229Y-8646508D02*
X5164706Y-8656031D01*
X5164706Y-8656031D02*
X5155182Y-8675079D01*
X5155182Y-8675079D02*
X5155182Y-8722698D01*
X5155182Y-8722698D02*
X5164706Y-8741746D01*
X5164706Y-8741746D02*
X5174229Y-8751270D01*
X5174229Y-8751270D02*
X5193277Y-8760793D01*
X5193277Y-8760793D02*
X5231372Y-8760793D01*
X5231372Y-8760793D02*
X5250420Y-8751270D01*
X5250420Y-8751270D02*
X5259944Y-8741746D01*
X5259944Y-8741746D02*
X5269468Y-8722698D01*
X5450420Y-8636984D02*
X5355182Y-8636984D01*
X5355182Y-8636984D02*
X5345658Y-8732222D01*
X5345658Y-8732222D02*
X5355182Y-8722698D01*
X5355182Y-8722698D02*
X5374229Y-8713174D01*
X5374229Y-8713174D02*
X5421849Y-8713174D01*
X5421849Y-8713174D02*
X5440896Y-8722698D01*
X5440896Y-8722698D02*
X5450420Y-8732222D01*
X5450420Y-8732222D02*
X5459944Y-8751270D01*
X5459944Y-8751270D02*
X5459944Y-8798889D01*
X5459944Y-8798889D02*
X5450420Y-8817936D01*
X5450420Y-8817936D02*
X5440896Y-8827460D01*
X5440896Y-8827460D02*
X5421849Y-8836984D01*
X5421849Y-8836984D02*
X5374229Y-8836984D01*
X5374229Y-8836984D02*
X5355182Y-8827460D01*
X5355182Y-8827460D02*
X5345658Y-8817936D01*
X5536134Y-8636984D02*
X5536134Y-8675079D01*
X5612325Y-8636984D02*
X5612325Y-8675079D01*
X5907563Y-8913174D02*
X5898039Y-8903650D01*
X5898039Y-8903650D02*
X5878991Y-8875079D01*
X5878991Y-8875079D02*
X5869468Y-8856031D01*
X5869468Y-8856031D02*
X5859944Y-8827460D01*
X5859944Y-8827460D02*
X5850420Y-8779841D01*
X5850420Y-8779841D02*
X5850420Y-8741746D01*
X5850420Y-8741746D02*
X5859944Y-8694127D01*
X5859944Y-8694127D02*
X5869468Y-8665555D01*
X5869468Y-8665555D02*
X5878991Y-8646508D01*
X5878991Y-8646508D02*
X5898039Y-8617936D01*
X5898039Y-8617936D02*
X5907563Y-8608412D01*
X5974229Y-8656031D02*
X5983753Y-8646508D01*
X5983753Y-8646508D02*
X6002801Y-8636984D01*
X6002801Y-8636984D02*
X6050420Y-8636984D01*
X6050420Y-8636984D02*
X6069468Y-8646508D01*
X6069468Y-8646508D02*
X6078991Y-8656031D01*
X6078991Y-8656031D02*
X6088515Y-8675079D01*
X6088515Y-8675079D02*
X6088515Y-8694127D01*
X6088515Y-8694127D02*
X6078991Y-8722698D01*
X6078991Y-8722698D02*
X5964706Y-8836984D01*
X5964706Y-8836984D02*
X6088515Y-8836984D01*
X6259944Y-8636984D02*
X6221848Y-8636984D01*
X6221848Y-8636984D02*
X6202801Y-8646508D01*
X6202801Y-8646508D02*
X6193277Y-8656031D01*
X6193277Y-8656031D02*
X6174229Y-8684603D01*
X6174229Y-8684603D02*
X6164706Y-8722698D01*
X6164706Y-8722698D02*
X6164706Y-8798889D01*
X6164706Y-8798889D02*
X6174229Y-8817936D01*
X6174229Y-8817936D02*
X6183753Y-8827460D01*
X6183753Y-8827460D02*
X6202801Y-8836984D01*
X6202801Y-8836984D02*
X6240896Y-8836984D01*
X6240896Y-8836984D02*
X6259944Y-8827460D01*
X6259944Y-8827460D02*
X6269468Y-8817936D01*
X6269468Y-8817936D02*
X6278991Y-8798889D01*
X6278991Y-8798889D02*
X6278991Y-8751270D01*
X6278991Y-8751270D02*
X6269468Y-8732222D01*
X6269468Y-8732222D02*
X6259944Y-8722698D01*
X6259944Y-8722698D02*
X6240896Y-8713174D01*
X6240896Y-8713174D02*
X6202801Y-8713174D01*
X6202801Y-8713174D02*
X6183753Y-8722698D01*
X6183753Y-8722698D02*
X6174229Y-8732222D01*
X6174229Y-8732222D02*
X6164706Y-8751270D01*
X6517087Y-8836984D02*
X6517087Y-8636984D01*
X6602801Y-8836984D02*
X6602801Y-8732222D01*
X6602801Y-8732222D02*
X6593277Y-8713174D01*
X6593277Y-8713174D02*
X6574230Y-8703650D01*
X6574230Y-8703650D02*
X6545658Y-8703650D01*
X6545658Y-8703650D02*
X6526610Y-8713174D01*
X6526610Y-8713174D02*
X6517087Y-8722698D01*
X6726610Y-8836984D02*
X6707563Y-8827460D01*
X6707563Y-8827460D02*
X6698039Y-8817936D01*
X6698039Y-8817936D02*
X6688515Y-8798889D01*
X6688515Y-8798889D02*
X6688515Y-8741746D01*
X6688515Y-8741746D02*
X6698039Y-8722698D01*
X6698039Y-8722698D02*
X6707563Y-8713174D01*
X6707563Y-8713174D02*
X6726610Y-8703650D01*
X6726610Y-8703650D02*
X6755182Y-8703650D01*
X6755182Y-8703650D02*
X6774230Y-8713174D01*
X6774230Y-8713174D02*
X6783753Y-8722698D01*
X6783753Y-8722698D02*
X6793277Y-8741746D01*
X6793277Y-8741746D02*
X6793277Y-8798889D01*
X6793277Y-8798889D02*
X6783753Y-8817936D01*
X6783753Y-8817936D02*
X6774230Y-8827460D01*
X6774230Y-8827460D02*
X6755182Y-8836984D01*
X6755182Y-8836984D02*
X6726610Y-8836984D01*
X6907563Y-8836984D02*
X6888515Y-8827460D01*
X6888515Y-8827460D02*
X6878991Y-8808412D01*
X6878991Y-8808412D02*
X6878991Y-8636984D01*
X7059944Y-8827460D02*
X7040896Y-8836984D01*
X7040896Y-8836984D02*
X7002801Y-8836984D01*
X7002801Y-8836984D02*
X6983753Y-8827460D01*
X6983753Y-8827460D02*
X6974230Y-8808412D01*
X6974230Y-8808412D02*
X6974230Y-8732222D01*
X6974230Y-8732222D02*
X6983753Y-8713174D01*
X6983753Y-8713174D02*
X7002801Y-8703650D01*
X7002801Y-8703650D02*
X7040896Y-8703650D01*
X7040896Y-8703650D02*
X7059944Y-8713174D01*
X7059944Y-8713174D02*
X7069468Y-8732222D01*
X7069468Y-8732222D02*
X7069468Y-8751270D01*
X7069468Y-8751270D02*
X6974230Y-8770317D01*
X7145658Y-8827460D02*
X7164706Y-8836984D01*
X7164706Y-8836984D02*
X7202801Y-8836984D01*
X7202801Y-8836984D02*
X7221849Y-8827460D01*
X7221849Y-8827460D02*
X7231372Y-8808412D01*
X7231372Y-8808412D02*
X7231372Y-8798889D01*
X7231372Y-8798889D02*
X7221849Y-8779841D01*
X7221849Y-8779841D02*
X7202801Y-8770317D01*
X7202801Y-8770317D02*
X7174230Y-8770317D01*
X7174230Y-8770317D02*
X7155182Y-8760793D01*
X7155182Y-8760793D02*
X7145658Y-8741746D01*
X7145658Y-8741746D02*
X7145658Y-8732222D01*
X7145658Y-8732222D02*
X7155182Y-8713174D01*
X7155182Y-8713174D02*
X7174230Y-8703650D01*
X7174230Y-8703650D02*
X7202801Y-8703650D01*
X7202801Y-8703650D02*
X7221849Y-8713174D01*
X7298039Y-8913174D02*
X7307563Y-8903650D01*
X7307563Y-8903650D02*
X7326611Y-8875079D01*
X7326611Y-8875079D02*
X7336134Y-8856031D01*
X7336134Y-8856031D02*
X7345658Y-8827460D01*
X7345658Y-8827460D02*
X7355182Y-8779841D01*
X7355182Y-8779841D02*
X7355182Y-8741746D01*
X7355182Y-8741746D02*
X7345658Y-8694127D01*
X7345658Y-8694127D02*
X7336134Y-8665555D01*
X7336134Y-8665555D02*
X7326611Y-8646508D01*
X7326611Y-8646508D02*
X7307563Y-8617936D01*
X7307563Y-8617936D02*
X7298039Y-8608412D01*
D13*
X2281700Y-8958700D02*
X2281700Y-9060300D01*
X2230900Y-9009500D02*
X2332500Y-9009500D01*
D10*
X2698039Y-9100984D02*
X2583753Y-9100984D01*
X2640896Y-9100984D02*
X2640896Y-8900984D01*
X2640896Y-8900984D02*
X2621848Y-8929555D01*
X2621848Y-8929555D02*
X2602801Y-8948603D01*
X2602801Y-8948603D02*
X2583753Y-8958127D01*
X2783753Y-9081936D02*
X2793277Y-9091460D01*
X2793277Y-9091460D02*
X2783753Y-9100984D01*
X2783753Y-9100984D02*
X2774229Y-9091460D01*
X2774229Y-9091460D02*
X2783753Y-9081936D01*
X2783753Y-9081936D02*
X2783753Y-9100984D01*
X2917086Y-8900984D02*
X2936134Y-8900984D01*
X2936134Y-8900984D02*
X2955182Y-8910508D01*
X2955182Y-8910508D02*
X2964705Y-8920031D01*
X2964705Y-8920031D02*
X2974229Y-8939079D01*
X2974229Y-8939079D02*
X2983753Y-8977174D01*
X2983753Y-8977174D02*
X2983753Y-9024793D01*
X2983753Y-9024793D02*
X2974229Y-9062889D01*
X2974229Y-9062889D02*
X2964705Y-9081936D01*
X2964705Y-9081936D02*
X2955182Y-9091460D01*
X2955182Y-9091460D02*
X2936134Y-9100984D01*
X2936134Y-9100984D02*
X2917086Y-9100984D01*
X2917086Y-9100984D02*
X2898039Y-9091460D01*
X2898039Y-9091460D02*
X2888515Y-9081936D01*
X2888515Y-9081936D02*
X2878991Y-9062889D01*
X2878991Y-9062889D02*
X2869467Y-9024793D01*
X2869467Y-9024793D02*
X2869467Y-8977174D01*
X2869467Y-8977174D02*
X2878991Y-8939079D01*
X2878991Y-8939079D02*
X2888515Y-8920031D01*
X2888515Y-8920031D02*
X2898039Y-8910508D01*
X2898039Y-8910508D02*
X2917086Y-8900984D01*
X3174229Y-9100984D02*
X3059943Y-9100984D01*
X3117086Y-9100984D02*
X3117086Y-8900984D01*
X3117086Y-8900984D02*
X3098039Y-8929555D01*
X3098039Y-8929555D02*
X3078991Y-8948603D01*
X3078991Y-8948603D02*
X3059943Y-8958127D01*
X3345658Y-8900984D02*
X3307562Y-8900984D01*
X3307562Y-8900984D02*
X3288515Y-8910508D01*
X3288515Y-8910508D02*
X3278991Y-8920031D01*
X3278991Y-8920031D02*
X3259943Y-8948603D01*
X3259943Y-8948603D02*
X3250420Y-8986698D01*
X3250420Y-8986698D02*
X3250420Y-9062889D01*
X3250420Y-9062889D02*
X3259943Y-9081936D01*
X3259943Y-9081936D02*
X3269467Y-9091460D01*
X3269467Y-9091460D02*
X3288515Y-9100984D01*
X3288515Y-9100984D02*
X3326610Y-9100984D01*
X3326610Y-9100984D02*
X3345658Y-9091460D01*
X3345658Y-9091460D02*
X3355182Y-9081936D01*
X3355182Y-9081936D02*
X3364705Y-9062889D01*
X3364705Y-9062889D02*
X3364705Y-9015270D01*
X3364705Y-9015270D02*
X3355182Y-8996222D01*
X3355182Y-8996222D02*
X3345658Y-8986698D01*
X3345658Y-8986698D02*
X3326610Y-8977174D01*
X3326610Y-8977174D02*
X3288515Y-8977174D01*
X3288515Y-8977174D02*
X3269467Y-8986698D01*
X3269467Y-8986698D02*
X3259943Y-8996222D01*
X3259943Y-8996222D02*
X3250420Y-9015270D01*
X3450420Y-9100984D02*
X3450420Y-8967650D01*
X3450420Y-8986698D02*
X3459943Y-8977174D01*
X3459943Y-8977174D02*
X3478991Y-8967650D01*
X3478991Y-8967650D02*
X3507563Y-8967650D01*
X3507563Y-8967650D02*
X3526610Y-8977174D01*
X3526610Y-8977174D02*
X3536134Y-8996222D01*
X3536134Y-8996222D02*
X3536134Y-9100984D01*
X3536134Y-8996222D02*
X3545658Y-8977174D01*
X3545658Y-8977174D02*
X3564705Y-8967650D01*
X3564705Y-8967650D02*
X3593277Y-8967650D01*
X3593277Y-8967650D02*
X3612324Y-8977174D01*
X3612324Y-8977174D02*
X3621848Y-8996222D01*
X3621848Y-8996222D02*
X3621848Y-9100984D01*
X3717086Y-9100984D02*
X3717086Y-8967650D01*
X3717086Y-8986698D02*
X3726610Y-8977174D01*
X3726610Y-8977174D02*
X3745658Y-8967650D01*
X3745658Y-8967650D02*
X3774229Y-8967650D01*
X3774229Y-8967650D02*
X3793277Y-8977174D01*
X3793277Y-8977174D02*
X3802801Y-8996222D01*
X3802801Y-8996222D02*
X3802801Y-9100984D01*
X3802801Y-8996222D02*
X3812324Y-8977174D01*
X3812324Y-8977174D02*
X3831372Y-8967650D01*
X3831372Y-8967650D02*
X3859943Y-8967650D01*
X3859943Y-8967650D02*
X3878991Y-8977174D01*
X3878991Y-8977174D02*
X3888515Y-8996222D01*
X3888515Y-8996222D02*
X3888515Y-9100984D01*
X4278991Y-8891460D02*
X4107563Y-9148603D01*
X4536134Y-8900984D02*
X4555182Y-8900984D01*
X4555182Y-8900984D02*
X4574229Y-8910508D01*
X4574229Y-8910508D02*
X4583753Y-8920031D01*
X4583753Y-8920031D02*
X4593277Y-8939079D01*
X4593277Y-8939079D02*
X4602801Y-8977174D01*
X4602801Y-8977174D02*
X4602801Y-9024793D01*
X4602801Y-9024793D02*
X4593277Y-9062889D01*
X4593277Y-9062889D02*
X4583753Y-9081936D01*
X4583753Y-9081936D02*
X4574229Y-9091460D01*
X4574229Y-9091460D02*
X4555182Y-9100984D01*
X4555182Y-9100984D02*
X4536134Y-9100984D01*
X4536134Y-9100984D02*
X4517087Y-9091460D01*
X4517087Y-9091460D02*
X4507563Y-9081936D01*
X4507563Y-9081936D02*
X4498039Y-9062889D01*
X4498039Y-9062889D02*
X4488515Y-9024793D01*
X4488515Y-9024793D02*
X4488515Y-8977174D01*
X4488515Y-8977174D02*
X4498039Y-8939079D01*
X4498039Y-8939079D02*
X4507563Y-8920031D01*
X4507563Y-8920031D02*
X4517087Y-8910508D01*
X4517087Y-8910508D02*
X4536134Y-8900984D01*
X4688515Y-9081936D02*
X4698039Y-9091460D01*
X4698039Y-9091460D02*
X4688515Y-9100984D01*
X4688515Y-9100984D02*
X4678991Y-9091460D01*
X4678991Y-9091460D02*
X4688515Y-9081936D01*
X4688515Y-9081936D02*
X4688515Y-9100984D01*
X4821848Y-8900984D02*
X4840896Y-8900984D01*
X4840896Y-8900984D02*
X4859944Y-8910508D01*
X4859944Y-8910508D02*
X4869468Y-8920031D01*
X4869468Y-8920031D02*
X4878991Y-8939079D01*
X4878991Y-8939079D02*
X4888515Y-8977174D01*
X4888515Y-8977174D02*
X4888515Y-9024793D01*
X4888515Y-9024793D02*
X4878991Y-9062889D01*
X4878991Y-9062889D02*
X4869468Y-9081936D01*
X4869468Y-9081936D02*
X4859944Y-9091460D01*
X4859944Y-9091460D02*
X4840896Y-9100984D01*
X4840896Y-9100984D02*
X4821848Y-9100984D01*
X4821848Y-9100984D02*
X4802801Y-9091460D01*
X4802801Y-9091460D02*
X4793277Y-9081936D01*
X4793277Y-9081936D02*
X4783753Y-9062889D01*
X4783753Y-9062889D02*
X4774229Y-9024793D01*
X4774229Y-9024793D02*
X4774229Y-8977174D01*
X4774229Y-8977174D02*
X4783753Y-8939079D01*
X4783753Y-8939079D02*
X4793277Y-8920031D01*
X4793277Y-8920031D02*
X4802801Y-8910508D01*
X4802801Y-8910508D02*
X4821848Y-8900984D01*
X5059944Y-8967650D02*
X5059944Y-9100984D01*
X5012325Y-8891460D02*
X4964706Y-9034317D01*
X4964706Y-9034317D02*
X5088515Y-9034317D01*
X5202801Y-8900984D02*
X5221849Y-8900984D01*
X5221849Y-8900984D02*
X5240896Y-8910508D01*
X5240896Y-8910508D02*
X5250420Y-8920031D01*
X5250420Y-8920031D02*
X5259944Y-8939079D01*
X5259944Y-8939079D02*
X5269468Y-8977174D01*
X5269468Y-8977174D02*
X5269468Y-9024793D01*
X5269468Y-9024793D02*
X5259944Y-9062889D01*
X5259944Y-9062889D02*
X5250420Y-9081936D01*
X5250420Y-9081936D02*
X5240896Y-9091460D01*
X5240896Y-9091460D02*
X5221849Y-9100984D01*
X5221849Y-9100984D02*
X5202801Y-9100984D01*
X5202801Y-9100984D02*
X5183753Y-9091460D01*
X5183753Y-9091460D02*
X5174229Y-9081936D01*
X5174229Y-9081936D02*
X5164706Y-9062889D01*
X5164706Y-9062889D02*
X5155182Y-9024793D01*
X5155182Y-9024793D02*
X5155182Y-8977174D01*
X5155182Y-8977174D02*
X5164706Y-8939079D01*
X5164706Y-8939079D02*
X5174229Y-8920031D01*
X5174229Y-8920031D02*
X5183753Y-8910508D01*
X5183753Y-8910508D02*
X5202801Y-8900984D01*
X5393277Y-8900984D02*
X5412325Y-8900984D01*
X5412325Y-8900984D02*
X5431372Y-8910508D01*
X5431372Y-8910508D02*
X5440896Y-8920031D01*
X5440896Y-8920031D02*
X5450420Y-8939079D01*
X5450420Y-8939079D02*
X5459944Y-8977174D01*
X5459944Y-8977174D02*
X5459944Y-9024793D01*
X5459944Y-9024793D02*
X5450420Y-9062889D01*
X5450420Y-9062889D02*
X5440896Y-9081936D01*
X5440896Y-9081936D02*
X5431372Y-9091460D01*
X5431372Y-9091460D02*
X5412325Y-9100984D01*
X5412325Y-9100984D02*
X5393277Y-9100984D01*
X5393277Y-9100984D02*
X5374229Y-9091460D01*
X5374229Y-9091460D02*
X5364706Y-9081936D01*
X5364706Y-9081936D02*
X5355182Y-9062889D01*
X5355182Y-9062889D02*
X5345658Y-9024793D01*
X5345658Y-9024793D02*
X5345658Y-8977174D01*
X5345658Y-8977174D02*
X5355182Y-8939079D01*
X5355182Y-8939079D02*
X5364706Y-8920031D01*
X5364706Y-8920031D02*
X5374229Y-8910508D01*
X5374229Y-8910508D02*
X5393277Y-8900984D01*
X5536134Y-8900984D02*
X5536134Y-8939079D01*
X5612325Y-8900984D02*
X5612325Y-8939079D01*
X5907563Y-9177174D02*
X5898039Y-9167650D01*
X5898039Y-9167650D02*
X5878991Y-9139079D01*
X5878991Y-9139079D02*
X5869468Y-9120031D01*
X5869468Y-9120031D02*
X5859944Y-9091460D01*
X5859944Y-9091460D02*
X5850420Y-9043841D01*
X5850420Y-9043841D02*
X5850420Y-9005746D01*
X5850420Y-9005746D02*
X5859944Y-8958127D01*
X5859944Y-8958127D02*
X5869468Y-8929555D01*
X5869468Y-8929555D02*
X5878991Y-8910508D01*
X5878991Y-8910508D02*
X5898039Y-8881936D01*
X5898039Y-8881936D02*
X5907563Y-8872412D01*
X5993277Y-9100984D02*
X6031372Y-9100984D01*
X6031372Y-9100984D02*
X6050420Y-9091460D01*
X6050420Y-9091460D02*
X6059944Y-9081936D01*
X6059944Y-9081936D02*
X6078991Y-9053365D01*
X6078991Y-9053365D02*
X6088515Y-9015270D01*
X6088515Y-9015270D02*
X6088515Y-8939079D01*
X6088515Y-8939079D02*
X6078991Y-8920031D01*
X6078991Y-8920031D02*
X6069468Y-8910508D01*
X6069468Y-8910508D02*
X6050420Y-8900984D01*
X6050420Y-8900984D02*
X6012325Y-8900984D01*
X6012325Y-8900984D02*
X5993277Y-8910508D01*
X5993277Y-8910508D02*
X5983753Y-8920031D01*
X5983753Y-8920031D02*
X5974229Y-8939079D01*
X5974229Y-8939079D02*
X5974229Y-8986698D01*
X5974229Y-8986698D02*
X5983753Y-9005746D01*
X5983753Y-9005746D02*
X5993277Y-9015270D01*
X5993277Y-9015270D02*
X6012325Y-9024793D01*
X6012325Y-9024793D02*
X6050420Y-9024793D01*
X6050420Y-9024793D02*
X6069468Y-9015270D01*
X6069468Y-9015270D02*
X6078991Y-9005746D01*
X6078991Y-9005746D02*
X6088515Y-8986698D01*
X6164706Y-8920031D02*
X6174229Y-8910508D01*
X6174229Y-8910508D02*
X6193277Y-8900984D01*
X6193277Y-8900984D02*
X6240896Y-8900984D01*
X6240896Y-8900984D02*
X6259944Y-8910508D01*
X6259944Y-8910508D02*
X6269468Y-8920031D01*
X6269468Y-8920031D02*
X6278991Y-8939079D01*
X6278991Y-8939079D02*
X6278991Y-8958127D01*
X6278991Y-8958127D02*
X6269468Y-8986698D01*
X6269468Y-8986698D02*
X6155182Y-9100984D01*
X6155182Y-9100984D02*
X6278991Y-9100984D01*
X6517087Y-9100984D02*
X6517087Y-8900984D01*
X6602801Y-9100984D02*
X6602801Y-8996222D01*
X6602801Y-8996222D02*
X6593277Y-8977174D01*
X6593277Y-8977174D02*
X6574230Y-8967650D01*
X6574230Y-8967650D02*
X6545658Y-8967650D01*
X6545658Y-8967650D02*
X6526610Y-8977174D01*
X6526610Y-8977174D02*
X6517087Y-8986698D01*
X6726610Y-9100984D02*
X6707563Y-9091460D01*
X6707563Y-9091460D02*
X6698039Y-9081936D01*
X6698039Y-9081936D02*
X6688515Y-9062889D01*
X6688515Y-9062889D02*
X6688515Y-9005746D01*
X6688515Y-9005746D02*
X6698039Y-8986698D01*
X6698039Y-8986698D02*
X6707563Y-8977174D01*
X6707563Y-8977174D02*
X6726610Y-8967650D01*
X6726610Y-8967650D02*
X6755182Y-8967650D01*
X6755182Y-8967650D02*
X6774230Y-8977174D01*
X6774230Y-8977174D02*
X6783753Y-8986698D01*
X6783753Y-8986698D02*
X6793277Y-9005746D01*
X6793277Y-9005746D02*
X6793277Y-9062889D01*
X6793277Y-9062889D02*
X6783753Y-9081936D01*
X6783753Y-9081936D02*
X6774230Y-9091460D01*
X6774230Y-9091460D02*
X6755182Y-9100984D01*
X6755182Y-9100984D02*
X6726610Y-9100984D01*
X6907563Y-9100984D02*
X6888515Y-9091460D01*
X6888515Y-9091460D02*
X6878991Y-9072412D01*
X6878991Y-9072412D02*
X6878991Y-8900984D01*
X7059944Y-9091460D02*
X7040896Y-9100984D01*
X7040896Y-9100984D02*
X7002801Y-9100984D01*
X7002801Y-9100984D02*
X6983753Y-9091460D01*
X6983753Y-9091460D02*
X6974230Y-9072412D01*
X6974230Y-9072412D02*
X6974230Y-8996222D01*
X6974230Y-8996222D02*
X6983753Y-8977174D01*
X6983753Y-8977174D02*
X7002801Y-8967650D01*
X7002801Y-8967650D02*
X7040896Y-8967650D01*
X7040896Y-8967650D02*
X7059944Y-8977174D01*
X7059944Y-8977174D02*
X7069468Y-8996222D01*
X7069468Y-8996222D02*
X7069468Y-9015270D01*
X7069468Y-9015270D02*
X6974230Y-9034317D01*
X7145658Y-9091460D02*
X7164706Y-9100984D01*
X7164706Y-9100984D02*
X7202801Y-9100984D01*
X7202801Y-9100984D02*
X7221849Y-9091460D01*
X7221849Y-9091460D02*
X7231372Y-9072412D01*
X7231372Y-9072412D02*
X7231372Y-9062889D01*
X7231372Y-9062889D02*
X7221849Y-9043841D01*
X7221849Y-9043841D02*
X7202801Y-9034317D01*
X7202801Y-9034317D02*
X7174230Y-9034317D01*
X7174230Y-9034317D02*
X7155182Y-9024793D01*
X7155182Y-9024793D02*
X7145658Y-9005746D01*
X7145658Y-9005746D02*
X7145658Y-8996222D01*
X7145658Y-8996222D02*
X7155182Y-8977174D01*
X7155182Y-8977174D02*
X7174230Y-8967650D01*
X7174230Y-8967650D02*
X7202801Y-8967650D01*
X7202801Y-8967650D02*
X7221849Y-8977174D01*
X7298039Y-9177174D02*
X7307563Y-9167650D01*
X7307563Y-9167650D02*
X7326611Y-9139079D01*
X7326611Y-9139079D02*
X7336134Y-9120031D01*
X7336134Y-9120031D02*
X7345658Y-9091460D01*
X7345658Y-9091460D02*
X7355182Y-9043841D01*
X7355182Y-9043841D02*
X7355182Y-9005746D01*
X7355182Y-9005746D02*
X7345658Y-8958127D01*
X7345658Y-8958127D02*
X7336134Y-8929555D01*
X7336134Y-8929555D02*
X7326611Y-8910508D01*
X7326611Y-8910508D02*
X7307563Y-8881936D01*
X7307563Y-8881936D02*
X7298039Y-8872412D01*
X2303211Y-9344211D02*
X2303211Y-9202789D01*
X2161789Y-9202789D01*
X2161789Y-9344211D01*
X2303211Y-9344211D01*
X2583753Y-9184031D02*
X2593277Y-9174508D01*
X2593277Y-9174508D02*
X2612324Y-9164984D01*
X2612324Y-9164984D02*
X2659944Y-9164984D01*
X2659944Y-9164984D02*
X2678991Y-9174508D01*
X2678991Y-9174508D02*
X2688515Y-9184031D01*
X2688515Y-9184031D02*
X2698039Y-9203079D01*
X2698039Y-9203079D02*
X2698039Y-9222127D01*
X2698039Y-9222127D02*
X2688515Y-9250698D01*
X2688515Y-9250698D02*
X2574229Y-9364984D01*
X2574229Y-9364984D02*
X2698039Y-9364984D01*
X2783753Y-9345936D02*
X2793277Y-9355460D01*
X2793277Y-9355460D02*
X2783753Y-9364984D01*
X2783753Y-9364984D02*
X2774229Y-9355460D01*
X2774229Y-9355460D02*
X2783753Y-9345936D01*
X2783753Y-9345936D02*
X2783753Y-9364984D01*
X2859943Y-9164984D02*
X2993277Y-9164984D01*
X2993277Y-9164984D02*
X2907562Y-9364984D01*
X3107562Y-9164984D02*
X3126610Y-9164984D01*
X3126610Y-9164984D02*
X3145658Y-9174508D01*
X3145658Y-9174508D02*
X3155182Y-9184031D01*
X3155182Y-9184031D02*
X3164705Y-9203079D01*
X3164705Y-9203079D02*
X3174229Y-9241174D01*
X3174229Y-9241174D02*
X3174229Y-9288793D01*
X3174229Y-9288793D02*
X3164705Y-9326889D01*
X3164705Y-9326889D02*
X3155182Y-9345936D01*
X3155182Y-9345936D02*
X3145658Y-9355460D01*
X3145658Y-9355460D02*
X3126610Y-9364984D01*
X3126610Y-9364984D02*
X3107562Y-9364984D01*
X3107562Y-9364984D02*
X3088515Y-9355460D01*
X3088515Y-9355460D02*
X3078991Y-9345936D01*
X3078991Y-9345936D02*
X3069467Y-9326889D01*
X3069467Y-9326889D02*
X3059943Y-9288793D01*
X3059943Y-9288793D02*
X3059943Y-9241174D01*
X3059943Y-9241174D02*
X3069467Y-9203079D01*
X3069467Y-9203079D02*
X3078991Y-9184031D01*
X3078991Y-9184031D02*
X3088515Y-9174508D01*
X3088515Y-9174508D02*
X3107562Y-9164984D01*
X3298039Y-9164984D02*
X3317086Y-9164984D01*
X3317086Y-9164984D02*
X3336134Y-9174508D01*
X3336134Y-9174508D02*
X3345658Y-9184031D01*
X3345658Y-9184031D02*
X3355182Y-9203079D01*
X3355182Y-9203079D02*
X3364705Y-9241174D01*
X3364705Y-9241174D02*
X3364705Y-9288793D01*
X3364705Y-9288793D02*
X3355182Y-9326889D01*
X3355182Y-9326889D02*
X3345658Y-9345936D01*
X3345658Y-9345936D02*
X3336134Y-9355460D01*
X3336134Y-9355460D02*
X3317086Y-9364984D01*
X3317086Y-9364984D02*
X3298039Y-9364984D01*
X3298039Y-9364984D02*
X3278991Y-9355460D01*
X3278991Y-9355460D02*
X3269467Y-9345936D01*
X3269467Y-9345936D02*
X3259943Y-9326889D01*
X3259943Y-9326889D02*
X3250420Y-9288793D01*
X3250420Y-9288793D02*
X3250420Y-9241174D01*
X3250420Y-9241174D02*
X3259943Y-9203079D01*
X3259943Y-9203079D02*
X3269467Y-9184031D01*
X3269467Y-9184031D02*
X3278991Y-9174508D01*
X3278991Y-9174508D02*
X3298039Y-9164984D01*
X3450420Y-9364984D02*
X3450420Y-9231650D01*
X3450420Y-9250698D02*
X3459943Y-9241174D01*
X3459943Y-9241174D02*
X3478991Y-9231650D01*
X3478991Y-9231650D02*
X3507563Y-9231650D01*
X3507563Y-9231650D02*
X3526610Y-9241174D01*
X3526610Y-9241174D02*
X3536134Y-9260222D01*
X3536134Y-9260222D02*
X3536134Y-9364984D01*
X3536134Y-9260222D02*
X3545658Y-9241174D01*
X3545658Y-9241174D02*
X3564705Y-9231650D01*
X3564705Y-9231650D02*
X3593277Y-9231650D01*
X3593277Y-9231650D02*
X3612324Y-9241174D01*
X3612324Y-9241174D02*
X3621848Y-9260222D01*
X3621848Y-9260222D02*
X3621848Y-9364984D01*
X3717086Y-9364984D02*
X3717086Y-9231650D01*
X3717086Y-9250698D02*
X3726610Y-9241174D01*
X3726610Y-9241174D02*
X3745658Y-9231650D01*
X3745658Y-9231650D02*
X3774229Y-9231650D01*
X3774229Y-9231650D02*
X3793277Y-9241174D01*
X3793277Y-9241174D02*
X3802801Y-9260222D01*
X3802801Y-9260222D02*
X3802801Y-9364984D01*
X3802801Y-9260222D02*
X3812324Y-9241174D01*
X3812324Y-9241174D02*
X3831372Y-9231650D01*
X3831372Y-9231650D02*
X3859943Y-9231650D01*
X3859943Y-9231650D02*
X3878991Y-9241174D01*
X3878991Y-9241174D02*
X3888515Y-9260222D01*
X3888515Y-9260222D02*
X3888515Y-9364984D01*
X4278991Y-9155460D02*
X4107563Y-9412603D01*
X4536134Y-9164984D02*
X4555182Y-9164984D01*
X4555182Y-9164984D02*
X4574229Y-9174508D01*
X4574229Y-9174508D02*
X4583753Y-9184031D01*
X4583753Y-9184031D02*
X4593277Y-9203079D01*
X4593277Y-9203079D02*
X4602801Y-9241174D01*
X4602801Y-9241174D02*
X4602801Y-9288793D01*
X4602801Y-9288793D02*
X4593277Y-9326889D01*
X4593277Y-9326889D02*
X4583753Y-9345936D01*
X4583753Y-9345936D02*
X4574229Y-9355460D01*
X4574229Y-9355460D02*
X4555182Y-9364984D01*
X4555182Y-9364984D02*
X4536134Y-9364984D01*
X4536134Y-9364984D02*
X4517087Y-9355460D01*
X4517087Y-9355460D02*
X4507563Y-9345936D01*
X4507563Y-9345936D02*
X4498039Y-9326889D01*
X4498039Y-9326889D02*
X4488515Y-9288793D01*
X4488515Y-9288793D02*
X4488515Y-9241174D01*
X4488515Y-9241174D02*
X4498039Y-9203079D01*
X4498039Y-9203079D02*
X4507563Y-9184031D01*
X4507563Y-9184031D02*
X4517087Y-9174508D01*
X4517087Y-9174508D02*
X4536134Y-9164984D01*
X4688515Y-9345936D02*
X4698039Y-9355460D01*
X4698039Y-9355460D02*
X4688515Y-9364984D01*
X4688515Y-9364984D02*
X4678991Y-9355460D01*
X4678991Y-9355460D02*
X4688515Y-9345936D01*
X4688515Y-9345936D02*
X4688515Y-9364984D01*
X4888515Y-9364984D02*
X4774229Y-9364984D01*
X4831372Y-9364984D02*
X4831372Y-9164984D01*
X4831372Y-9164984D02*
X4812325Y-9193555D01*
X4812325Y-9193555D02*
X4793277Y-9212603D01*
X4793277Y-9212603D02*
X4774229Y-9222127D01*
X5012325Y-9164984D02*
X5031372Y-9164984D01*
X5031372Y-9164984D02*
X5050420Y-9174508D01*
X5050420Y-9174508D02*
X5059944Y-9184031D01*
X5059944Y-9184031D02*
X5069468Y-9203079D01*
X5069468Y-9203079D02*
X5078991Y-9241174D01*
X5078991Y-9241174D02*
X5078991Y-9288793D01*
X5078991Y-9288793D02*
X5069468Y-9326889D01*
X5069468Y-9326889D02*
X5059944Y-9345936D01*
X5059944Y-9345936D02*
X5050420Y-9355460D01*
X5050420Y-9355460D02*
X5031372Y-9364984D01*
X5031372Y-9364984D02*
X5012325Y-9364984D01*
X5012325Y-9364984D02*
X4993277Y-9355460D01*
X4993277Y-9355460D02*
X4983753Y-9345936D01*
X4983753Y-9345936D02*
X4974229Y-9326889D01*
X4974229Y-9326889D02*
X4964706Y-9288793D01*
X4964706Y-9288793D02*
X4964706Y-9241174D01*
X4964706Y-9241174D02*
X4974229Y-9203079D01*
X4974229Y-9203079D02*
X4983753Y-9184031D01*
X4983753Y-9184031D02*
X4993277Y-9174508D01*
X4993277Y-9174508D02*
X5012325Y-9164984D01*
X5250420Y-9164984D02*
X5212325Y-9164984D01*
X5212325Y-9164984D02*
X5193277Y-9174508D01*
X5193277Y-9174508D02*
X5183753Y-9184031D01*
X5183753Y-9184031D02*
X5164706Y-9212603D01*
X5164706Y-9212603D02*
X5155182Y-9250698D01*
X5155182Y-9250698D02*
X5155182Y-9326889D01*
X5155182Y-9326889D02*
X5164706Y-9345936D01*
X5164706Y-9345936D02*
X5174229Y-9355460D01*
X5174229Y-9355460D02*
X5193277Y-9364984D01*
X5193277Y-9364984D02*
X5231372Y-9364984D01*
X5231372Y-9364984D02*
X5250420Y-9355460D01*
X5250420Y-9355460D02*
X5259944Y-9345936D01*
X5259944Y-9345936D02*
X5269468Y-9326889D01*
X5269468Y-9326889D02*
X5269468Y-9279270D01*
X5269468Y-9279270D02*
X5259944Y-9260222D01*
X5259944Y-9260222D02*
X5250420Y-9250698D01*
X5250420Y-9250698D02*
X5231372Y-9241174D01*
X5231372Y-9241174D02*
X5193277Y-9241174D01*
X5193277Y-9241174D02*
X5174229Y-9250698D01*
X5174229Y-9250698D02*
X5164706Y-9260222D01*
X5164706Y-9260222D02*
X5155182Y-9279270D01*
X5336134Y-9164984D02*
X5459944Y-9164984D01*
X5459944Y-9164984D02*
X5393277Y-9241174D01*
X5393277Y-9241174D02*
X5421849Y-9241174D01*
X5421849Y-9241174D02*
X5440896Y-9250698D01*
X5440896Y-9250698D02*
X5450420Y-9260222D01*
X5450420Y-9260222D02*
X5459944Y-9279270D01*
X5459944Y-9279270D02*
X5459944Y-9326889D01*
X5459944Y-9326889D02*
X5450420Y-9345936D01*
X5450420Y-9345936D02*
X5440896Y-9355460D01*
X5440896Y-9355460D02*
X5421849Y-9364984D01*
X5421849Y-9364984D02*
X5364706Y-9364984D01*
X5364706Y-9364984D02*
X5345658Y-9355460D01*
X5345658Y-9355460D02*
X5336134Y-9345936D01*
X5536134Y-9164984D02*
X5536134Y-9203079D01*
X5612325Y-9164984D02*
X5612325Y-9203079D01*
X5907563Y-9441174D02*
X5898039Y-9431650D01*
X5898039Y-9431650D02*
X5878991Y-9403079D01*
X5878991Y-9403079D02*
X5869468Y-9384031D01*
X5869468Y-9384031D02*
X5859944Y-9355460D01*
X5859944Y-9355460D02*
X5850420Y-9307841D01*
X5850420Y-9307841D02*
X5850420Y-9269746D01*
X5850420Y-9269746D02*
X5859944Y-9222127D01*
X5859944Y-9222127D02*
X5869468Y-9193555D01*
X5869468Y-9193555D02*
X5878991Y-9174508D01*
X5878991Y-9174508D02*
X5898039Y-9145936D01*
X5898039Y-9145936D02*
X5907563Y-9136412D01*
X5974229Y-9184031D02*
X5983753Y-9174508D01*
X5983753Y-9174508D02*
X6002801Y-9164984D01*
X6002801Y-9164984D02*
X6050420Y-9164984D01*
X6050420Y-9164984D02*
X6069468Y-9174508D01*
X6069468Y-9174508D02*
X6078991Y-9184031D01*
X6078991Y-9184031D02*
X6088515Y-9203079D01*
X6088515Y-9203079D02*
X6088515Y-9222127D01*
X6088515Y-9222127D02*
X6078991Y-9250698D01*
X6078991Y-9250698D02*
X5964706Y-9364984D01*
X5964706Y-9364984D02*
X6088515Y-9364984D01*
X6326610Y-9364984D02*
X6326610Y-9164984D01*
X6412325Y-9364984D02*
X6412325Y-9260222D01*
X6412325Y-9260222D02*
X6402801Y-9241174D01*
X6402801Y-9241174D02*
X6383753Y-9231650D01*
X6383753Y-9231650D02*
X6355182Y-9231650D01*
X6355182Y-9231650D02*
X6336134Y-9241174D01*
X6336134Y-9241174D02*
X6326610Y-9250698D01*
X6536134Y-9364984D02*
X6517087Y-9355460D01*
X6517087Y-9355460D02*
X6507563Y-9345936D01*
X6507563Y-9345936D02*
X6498039Y-9326889D01*
X6498039Y-9326889D02*
X6498039Y-9269746D01*
X6498039Y-9269746D02*
X6507563Y-9250698D01*
X6507563Y-9250698D02*
X6517087Y-9241174D01*
X6517087Y-9241174D02*
X6536134Y-9231650D01*
X6536134Y-9231650D02*
X6564706Y-9231650D01*
X6564706Y-9231650D02*
X6583753Y-9241174D01*
X6583753Y-9241174D02*
X6593277Y-9250698D01*
X6593277Y-9250698D02*
X6602801Y-9269746D01*
X6602801Y-9269746D02*
X6602801Y-9326889D01*
X6602801Y-9326889D02*
X6593277Y-9345936D01*
X6593277Y-9345936D02*
X6583753Y-9355460D01*
X6583753Y-9355460D02*
X6564706Y-9364984D01*
X6564706Y-9364984D02*
X6536134Y-9364984D01*
X6717087Y-9364984D02*
X6698039Y-9355460D01*
X6698039Y-9355460D02*
X6688515Y-9336412D01*
X6688515Y-9336412D02*
X6688515Y-9164984D01*
X6869468Y-9355460D02*
X6850420Y-9364984D01*
X6850420Y-9364984D02*
X6812325Y-9364984D01*
X6812325Y-9364984D02*
X6793277Y-9355460D01*
X6793277Y-9355460D02*
X6783753Y-9336412D01*
X6783753Y-9336412D02*
X6783753Y-9260222D01*
X6783753Y-9260222D02*
X6793277Y-9241174D01*
X6793277Y-9241174D02*
X6812325Y-9231650D01*
X6812325Y-9231650D02*
X6850420Y-9231650D01*
X6850420Y-9231650D02*
X6869468Y-9241174D01*
X6869468Y-9241174D02*
X6878991Y-9260222D01*
X6878991Y-9260222D02*
X6878991Y-9279270D01*
X6878991Y-9279270D02*
X6783753Y-9298317D01*
X6955182Y-9355460D02*
X6974230Y-9364984D01*
X6974230Y-9364984D02*
X7012325Y-9364984D01*
X7012325Y-9364984D02*
X7031372Y-9355460D01*
X7031372Y-9355460D02*
X7040896Y-9336412D01*
X7040896Y-9336412D02*
X7040896Y-9326889D01*
X7040896Y-9326889D02*
X7031372Y-9307841D01*
X7031372Y-9307841D02*
X7012325Y-9298317D01*
X7012325Y-9298317D02*
X6983753Y-9298317D01*
X6983753Y-9298317D02*
X6964706Y-9288793D01*
X6964706Y-9288793D02*
X6955182Y-9269746D01*
X6955182Y-9269746D02*
X6955182Y-9260222D01*
X6955182Y-9260222D02*
X6964706Y-9241174D01*
X6964706Y-9241174D02*
X6983753Y-9231650D01*
X6983753Y-9231650D02*
X7012325Y-9231650D01*
X7012325Y-9231650D02*
X7031372Y-9241174D01*
X7107563Y-9441174D02*
X7117087Y-9431650D01*
X7117087Y-9431650D02*
X7136134Y-9403079D01*
X7136134Y-9403079D02*
X7145658Y-9384031D01*
X7145658Y-9384031D02*
X7155182Y-9355460D01*
X7155182Y-9355460D02*
X7164706Y-9307841D01*
X7164706Y-9307841D02*
X7164706Y-9269746D01*
X7164706Y-9269746D02*
X7155182Y-9222127D01*
X7155182Y-9222127D02*
X7145658Y-9193555D01*
X7145658Y-9193555D02*
X7136134Y-9174508D01*
X7136134Y-9174508D02*
X7117087Y-9145936D01*
X7117087Y-9145936D02*
X7107563Y-9136412D01*
M02*
