%TF.GenerationSoftware,KiCad,Pcbnew,7.0.7*%
%TF.CreationDate,2024-03-03T00:58:18-08:00*%
%TF.ProjectId,arduino-due-shield,61726475-696e-46f2-9d64-75652d736869,rev?*%
%TF.SameCoordinates,Original*%
%TF.FileFunction,Legend,Bot*%
%TF.FilePolarity,Positive*%
%FSLAX46Y46*%
G04 Gerber Fmt 4.6, Leading zero omitted, Abs format (unit mm)*
G04 Created by KiCad (PCBNEW 7.0.7) date 2024-03-03 00:58:18*
%MOMM*%
%LPD*%
G01*
G04 APERTURE LIST*
%ADD10C,0.150000*%
G04 APERTURE END LIST*
D10*
X123174285Y-79525104D02*
X122698095Y-79525104D01*
X123269523Y-79810819D02*
X122936190Y-78810819D01*
X122936190Y-78810819D02*
X122602857Y-79810819D01*
X121745714Y-79810819D02*
X122317142Y-79810819D01*
X122031428Y-79810819D02*
X122031428Y-78810819D01*
X122031428Y-78810819D02*
X122126666Y-78953676D01*
X122126666Y-78953676D02*
X122221904Y-79048914D01*
X122221904Y-79048914D02*
X122317142Y-79096533D01*
X60761905Y-73440180D02*
X60761905Y-74440180D01*
X60761905Y-74440180D02*
X61000000Y-74440180D01*
X61000000Y-74440180D02*
X61142857Y-74392561D01*
X61142857Y-74392561D02*
X61238095Y-74297323D01*
X61238095Y-74297323D02*
X61285714Y-74202085D01*
X61285714Y-74202085D02*
X61333333Y-74011609D01*
X61333333Y-74011609D02*
X61333333Y-73868752D01*
X61333333Y-73868752D02*
X61285714Y-73678276D01*
X61285714Y-73678276D02*
X61238095Y-73583038D01*
X61238095Y-73583038D02*
X61142857Y-73487800D01*
X61142857Y-73487800D02*
X61000000Y-73440180D01*
X61000000Y-73440180D02*
X60761905Y-73440180D01*
X61952381Y-74440180D02*
X62047619Y-74440180D01*
X62047619Y-74440180D02*
X62142857Y-74392561D01*
X62142857Y-74392561D02*
X62190476Y-74344942D01*
X62190476Y-74344942D02*
X62238095Y-74249704D01*
X62238095Y-74249704D02*
X62285714Y-74059228D01*
X62285714Y-74059228D02*
X62285714Y-73821133D01*
X62285714Y-73821133D02*
X62238095Y-73630657D01*
X62238095Y-73630657D02*
X62190476Y-73535419D01*
X62190476Y-73535419D02*
X62142857Y-73487800D01*
X62142857Y-73487800D02*
X62047619Y-73440180D01*
X62047619Y-73440180D02*
X61952381Y-73440180D01*
X61952381Y-73440180D02*
X61857143Y-73487800D01*
X61857143Y-73487800D02*
X61809524Y-73535419D01*
X61809524Y-73535419D02*
X61761905Y-73630657D01*
X61761905Y-73630657D02*
X61714286Y-73821133D01*
X61714286Y-73821133D02*
X61714286Y-74059228D01*
X61714286Y-74059228D02*
X61761905Y-74249704D01*
X61761905Y-74249704D02*
X61809524Y-74344942D01*
X61809524Y-74344942D02*
X61857143Y-74392561D01*
X61857143Y-74392561D02*
X61952381Y-74440180D01*
X62516000Y-57363580D02*
X62563619Y-57411200D01*
X62563619Y-57411200D02*
X62516000Y-57458819D01*
X62516000Y-57458819D02*
X62468381Y-57411200D01*
X62468381Y-57411200D02*
X62516000Y-57363580D01*
X62516000Y-57363580D02*
X62516000Y-57458819D01*
M02*
