%TF.GenerationSoftware,KiCad,Pcbnew,7.0.7*%
%TF.CreationDate,2024-03-03T00:58:18-08:00*%
%TF.ProjectId,arduino-due-shield,61726475-696e-46f2-9d64-75652d736869,rev?*%
%TF.SameCoordinates,Original*%
%TF.FileFunction,Copper,L1,Top*%
%TF.FilePolarity,Positive*%
%FSLAX46Y46*%
G04 Gerber Fmt 4.6, Leading zero omitted, Abs format (unit mm)*
G04 Created by KiCad (PCBNEW 7.0.7) date 2024-03-03 00:58:18*
%MOMM*%
%LPD*%
G01*
G04 APERTURE LIST*
G04 Aperture macros list*
%AMRoundRect*
0 Rectangle with rounded corners*
0 $1 Rounding radius*
0 $2 $3 $4 $5 $6 $7 $8 $9 X,Y pos of 4 corners*
0 Add a 4 corners polygon primitive as box body*
4,1,4,$2,$3,$4,$5,$6,$7,$8,$9,$2,$3,0*
0 Add four circle primitives for the rounded corners*
1,1,$1+$1,$2,$3*
1,1,$1+$1,$4,$5*
1,1,$1+$1,$6,$7*
1,1,$1+$1,$8,$9*
0 Add four rect primitives between the rounded corners*
20,1,$1+$1,$2,$3,$4,$5,0*
20,1,$1+$1,$4,$5,$6,$7,0*
20,1,$1+$1,$6,$7,$8,$9,0*
20,1,$1+$1,$8,$9,$2,$3,0*%
G04 Aperture macros list end*
%TA.AperFunction,ComponentPad*%
%ADD10RoundRect,0.250000X-0.350000X-0.625000X0.350000X-0.625000X0.350000X0.625000X-0.350000X0.625000X0*%
%TD*%
%TA.AperFunction,ComponentPad*%
%ADD11O,1.200000X1.750000*%
%TD*%
%TA.AperFunction,SMDPad,CuDef*%
%ADD12RoundRect,0.237500X-0.237500X0.300000X-0.237500X-0.300000X0.237500X-0.300000X0.237500X0.300000X0*%
%TD*%
%TA.AperFunction,SMDPad,CuDef*%
%ADD13RoundRect,0.150000X-0.825000X-0.150000X0.825000X-0.150000X0.825000X0.150000X-0.825000X0.150000X0*%
%TD*%
%TA.AperFunction,ComponentPad*%
%ADD14O,1.727200X1.727200*%
%TD*%
%TA.AperFunction,ComponentPad*%
%ADD15R,1.727200X1.727200*%
%TD*%
%TA.AperFunction,ComponentPad*%
%ADD16R,3.800000X3.800000*%
%TD*%
%TA.AperFunction,ComponentPad*%
%ADD17C,4.000000*%
%TD*%
%TA.AperFunction,SMDPad,CuDef*%
%ADD18RoundRect,0.250000X-2.050000X-0.300000X2.050000X-0.300000X2.050000X0.300000X-2.050000X0.300000X0*%
%TD*%
%TA.AperFunction,SMDPad,CuDef*%
%ADD19RoundRect,0.250000X-2.025000X-2.375000X2.025000X-2.375000X2.025000X2.375000X-2.025000X2.375000X0*%
%TD*%
%TA.AperFunction,SMDPad,CuDef*%
%ADD20RoundRect,0.250002X-4.449998X-5.149998X4.449998X-5.149998X4.449998X5.149998X-4.449998X5.149998X0*%
%TD*%
%TA.AperFunction,SMDPad,CuDef*%
%ADD21RoundRect,0.237500X0.237500X-0.300000X0.237500X0.300000X-0.237500X0.300000X-0.237500X-0.300000X0*%
%TD*%
%TA.AperFunction,ViaPad*%
%ADD22C,0.800000*%
%TD*%
%TA.AperFunction,Conductor*%
%ADD23C,0.500000*%
%TD*%
%TA.AperFunction,Conductor*%
%ADD24C,0.250000*%
%TD*%
G04 APERTURE END LIST*
D10*
%TO.P,J6,1,Pin_1*%
%TO.N,Net-(A1-PadD5)*%
X70000000Y-40000000D03*
D11*
%TO.P,J6,2,Pin_2*%
%TO.N,Net-(A1-PadD25)*%
X72000000Y-40000000D03*
%TO.P,J6,3,Pin_3*%
%TO.N,Net-(A1-PadD13)*%
X74000000Y-40000000D03*
%TO.P,J6,4,Pin_4*%
%TO.N,Net-(A1-3.3V)*%
X76000000Y-40000000D03*
%TD*%
D10*
%TO.P,J8,1,Pin_1*%
%TO.N,Net-(A1-PadD7)*%
X70000000Y-60000000D03*
D11*
%TO.P,J8,2,Pin_2*%
%TO.N,Net-(A1-PadD27)*%
X72000000Y-60000000D03*
%TO.P,J8,3,Pin_3*%
%TO.N,Net-(A1-PadD13)*%
X74000000Y-60000000D03*
%TO.P,J8,4,Pin_4*%
%TO.N,Net-(A1-3.3V)*%
X76000000Y-60000000D03*
%TD*%
D12*
%TO.P,C2,1*%
%TO.N,Net-(U2-OUT)*%
X100000000Y-59137500D03*
%TO.P,C2,2*%
%TO.N,GND*%
X100000000Y-60862500D03*
%TD*%
D13*
%TO.P,U1,1,D*%
%TO.N,Net-(A1-CANTX)*%
X43346600Y-40005000D03*
%TO.P,U1,2,GND*%
%TO.N,GND*%
X43346600Y-41275000D03*
%TO.P,U1,3,VCC*%
%TO.N,Net-(A1-3.3V)*%
X43346600Y-42545000D03*
%TO.P,U1,4,R*%
%TO.N,Net-(A1-CANRX)*%
X43346600Y-43815000D03*
%TO.P,U1,5,NC*%
%TO.N,unconnected-(U1-NC-Pad5)*%
X48296600Y-43815000D03*
%TO.P,U1,6,CANL*%
%TO.N,Net-(U1-CANL)*%
X48296600Y-42545000D03*
%TO.P,U1,7,CANH*%
%TO.N,Net-(U1-CANH)*%
X48296600Y-41275000D03*
%TO.P,U1,8,NC*%
%TO.N,unconnected-(U1-NC-Pad8)*%
X48296600Y-40005000D03*
%TD*%
D10*
%TO.P,J5,1,Pin_1*%
%TO.N,Net-(A1-D4_CS1)*%
X85000000Y-60000000D03*
D11*
%TO.P,J5,2,Pin_2*%
%TO.N,Net-(A1-PadD24)*%
X87000000Y-60000000D03*
%TO.P,J5,3,Pin_3*%
%TO.N,Net-(A1-PadD13)*%
X89000000Y-60000000D03*
%TO.P,J5,4,Pin_4*%
%TO.N,Net-(A1-3.3V)*%
X91000000Y-60000000D03*
%TD*%
D14*
%TO.P,A1,*%
%TO.N,*%
X97060000Y-27540000D03*
%TO.P,A1,3V3,3.3V*%
%TO.N,Net-(A1-3.3V)*%
X89440000Y-27540000D03*
%TO.P,A1,5V1,5V*%
%TO.N,unconnected-(A1-5V-Pad5V1)*%
X86900000Y-27540000D03*
%TO.P,A1,5V2,SPI_5V*%
%TO.N,unconnected-(A1-SPI_5V-Pad5V2)*%
X58833000Y-55480000D03*
%TO.P,A1,5V3,5V*%
%TO.N,unconnected-(A1-5V-Pad5V3)*%
X31020000Y-75800000D03*
%TO.P,A1,5V4,5V*%
%TO.N,unconnected-(A1-5V-Pad5V4)*%
X28480000Y-75800000D03*
%TO.P,A1,A0,A0*%
%TO.N,unconnected-(A1-PadA0)*%
X74200000Y-27540000D03*
%TO.P,A1,A1,A1*%
%TO.N,unconnected-(A1-PadA1)*%
X71660000Y-27540000D03*
%TO.P,A1,A2,A2*%
%TO.N,unconnected-(A1-PadA2)*%
X69120000Y-27540000D03*
%TO.P,A1,A3,A3*%
%TO.N,unconnected-(A1-PadA3)*%
X66580000Y-27540000D03*
%TO.P,A1,A4,A4*%
%TO.N,unconnected-(A1-PadA4)*%
X64040000Y-27540000D03*
%TO.P,A1,A5,A5*%
%TO.N,unconnected-(A1-PadA5)*%
X61500000Y-27540000D03*
%TO.P,A1,A6,A6*%
%TO.N,unconnected-(A1-PadA6)*%
X58960000Y-27540000D03*
%TO.P,A1,A7,A7*%
%TO.N,unconnected-(A1-PadA7)*%
X56420000Y-27540000D03*
%TO.P,A1,A8,A8*%
%TO.N,unconnected-(A1-PadA8)*%
X51340000Y-27540000D03*
%TO.P,A1,A9,A9*%
%TO.N,unconnected-(A1-PadA9)*%
X48800000Y-27540000D03*
%TO.P,A1,A10,A10*%
%TO.N,unconnected-(A1-PadA10)*%
X46260000Y-27540000D03*
%TO.P,A1,A11,A11*%
%TO.N,unconnected-(A1-PadA11)*%
X43720000Y-27540000D03*
%TO.P,A1,AREF,AREF*%
%TO.N,unconnected-(A1-PadAREF)*%
X101124000Y-75800000D03*
%TO.P,A1,CANR,CANRX*%
%TO.N,Net-(A1-CANRX)*%
X36100000Y-27540000D03*
%TO.P,A1,CANT,CANTX*%
%TO.N,Net-(A1-CANTX)*%
X33560000Y-27540000D03*
%TO.P,A1,D0,D0/RX0*%
%TO.N,unconnected-(A1-D0{slash}RX0-PadD0)*%
X61500000Y-75800000D03*
%TO.P,A1,D1,D1/TX0*%
%TO.N,unconnected-(A1-D1{slash}TX0-PadD1)*%
X64040000Y-75800000D03*
%TO.P,A1,D2,D2*%
%TO.N,Net-(A1-PadD2)*%
X66580000Y-75800000D03*
%TO.P,A1,D3,D3*%
%TO.N,Net-(A1-PadD3)*%
X69120000Y-75800000D03*
%TO.P,A1,D4,D4_CS1*%
%TO.N,Net-(A1-D4_CS1)*%
X71660000Y-75800000D03*
%TO.P,A1,D5,D5*%
%TO.N,Net-(A1-PadD5)*%
X74200000Y-75800000D03*
%TO.P,A1,D6,D6*%
%TO.N,Net-(A1-PadD6)*%
X76740000Y-75800000D03*
%TO.P,A1,D7,D7*%
%TO.N,Net-(A1-PadD7)*%
X79280000Y-75800000D03*
%TO.P,A1,D8,D8*%
%TO.N,unconnected-(A1-PadD8)*%
X83344000Y-75800000D03*
%TO.P,A1,D9,D9*%
%TO.N,unconnected-(A1-PadD9)*%
X85884000Y-75800000D03*
%TO.P,A1,D10,D10_CS0*%
%TO.N,unconnected-(A1-D10_CS0-PadD10)*%
X88424000Y-75800000D03*
%TO.P,A1,D11,D11*%
%TO.N,unconnected-(A1-PadD11)*%
X90964000Y-75800000D03*
%TO.P,A1,D12,D12*%
%TO.N,unconnected-(A1-PadD12)*%
X93504000Y-75800000D03*
%TO.P,A1,D13,D13*%
%TO.N,Net-(A1-PadD13)*%
X96044000Y-75800000D03*
%TO.P,A1,D14,D14/TX3*%
%TO.N,unconnected-(A1-D14{slash}TX3-PadD14)*%
X56420000Y-75800000D03*
%TO.P,A1,D15,D15/RX3*%
%TO.N,unconnected-(A1-D15{slash}RX3-PadD15)*%
X53880000Y-75800000D03*
%TO.P,A1,D16,D16/TX2*%
%TO.N,unconnected-(A1-D16{slash}TX2-PadD16)*%
X51340000Y-75800000D03*
%TO.P,A1,D17,D17/RX2*%
%TO.N,unconnected-(A1-D17{slash}RX2-PadD17)*%
X48800000Y-75800000D03*
%TO.P,A1,D18,D18/TX1*%
%TO.N,unconnected-(A1-D18{slash}TX1-PadD18)*%
X46260000Y-75800000D03*
%TO.P,A1,D19,D19/RX1*%
%TO.N,unconnected-(A1-D19{slash}RX1-PadD19)*%
X43720000Y-75800000D03*
%TO.P,A1,D20,D20/SDA*%
%TO.N,unconnected-(A1-D20{slash}SDA-PadD20)*%
X41180000Y-75800000D03*
%TO.P,A1,D21,D21/SCL*%
%TO.N,unconnected-(A1-D21{slash}SCL-PadD21)*%
X38640000Y-75800000D03*
%TO.P,A1,D22,D22*%
%TO.N,Net-(A1-PadD22)*%
X31020000Y-73260000D03*
%TO.P,A1,D23,D23*%
%TO.N,Net-(A1-PadD23)*%
X28480000Y-73260000D03*
%TO.P,A1,D24,D24*%
%TO.N,Net-(A1-PadD24)*%
X31020000Y-70720000D03*
%TO.P,A1,D25,D25*%
%TO.N,Net-(A1-PadD25)*%
X28480000Y-70720000D03*
%TO.P,A1,D26,D26*%
%TO.N,Net-(A1-PadD26)*%
X31020000Y-68180000D03*
%TO.P,A1,D27,D27*%
%TO.N,Net-(A1-PadD27)*%
X28480000Y-68180000D03*
%TO.P,A1,D28,D28*%
%TO.N,unconnected-(A1-PadD28)*%
X31020000Y-65640000D03*
%TO.P,A1,D29,D29*%
%TO.N,unconnected-(A1-PadD29)*%
X28480000Y-65640000D03*
%TO.P,A1,D30,D30*%
%TO.N,unconnected-(A1-PadD30)*%
X31020000Y-63100000D03*
%TO.P,A1,D31,D31*%
%TO.N,unconnected-(A1-PadD31)*%
X28480000Y-63100000D03*
%TO.P,A1,D32,D32*%
%TO.N,unconnected-(A1-PadD32)*%
X31020000Y-60560000D03*
%TO.P,A1,D33,D33*%
%TO.N,unconnected-(A1-PadD33)*%
X28480000Y-60560000D03*
%TO.P,A1,D34,D34*%
%TO.N,unconnected-(A1-PadD34)*%
X31020000Y-58020000D03*
%TO.P,A1,D35,D35*%
%TO.N,unconnected-(A1-PadD35)*%
X28480000Y-58020000D03*
%TO.P,A1,D36,D36*%
%TO.N,unconnected-(A1-PadD36)*%
X31020000Y-55480000D03*
%TO.P,A1,D37,D37*%
%TO.N,unconnected-(A1-PadD37)*%
X28480000Y-55480000D03*
%TO.P,A1,D38,D38*%
%TO.N,unconnected-(A1-PadD38)*%
X31020000Y-52940000D03*
%TO.P,A1,D39,D39*%
%TO.N,unconnected-(A1-PadD39)*%
X28480000Y-52940000D03*
%TO.P,A1,D40,D40*%
%TO.N,unconnected-(A1-PadD40)*%
X31020000Y-50400000D03*
%TO.P,A1,D41,D41*%
%TO.N,unconnected-(A1-PadD41)*%
X28480000Y-50400000D03*
%TO.P,A1,D42,D42*%
%TO.N,unconnected-(A1-PadD42)*%
X31020000Y-47860000D03*
%TO.P,A1,D43,D43*%
%TO.N,unconnected-(A1-PadD43)*%
X28480000Y-47860000D03*
%TO.P,A1,D44,D44*%
%TO.N,unconnected-(A1-PadD44)*%
X31020000Y-45320000D03*
%TO.P,A1,D45,D45*%
%TO.N,unconnected-(A1-PadD45)*%
X28480000Y-45320000D03*
%TO.P,A1,D46,D46*%
%TO.N,unconnected-(A1-PadD46)*%
X31020000Y-42780000D03*
%TO.P,A1,D47,D47*%
%TO.N,unconnected-(A1-PadD47)*%
X28480000Y-42780000D03*
%TO.P,A1,D48,D48*%
%TO.N,unconnected-(A1-PadD48)*%
X31020000Y-40240000D03*
%TO.P,A1,D49,D49*%
%TO.N,unconnected-(A1-PadD49)*%
X28480000Y-40240000D03*
%TO.P,A1,D50,D50*%
%TO.N,unconnected-(A1-PadD50)*%
X31020000Y-37700000D03*
%TO.P,A1,D51,D51*%
%TO.N,unconnected-(A1-PadD51)*%
X28480000Y-37700000D03*
%TO.P,A1,D52,D52_CS2*%
%TO.N,unconnected-(A1-D52_CS2-PadD52)*%
X31020000Y-35160000D03*
%TO.P,A1,D53,D53*%
%TO.N,unconnected-(A1-PadD53)*%
X28480000Y-35160000D03*
%TO.P,A1,DAC0,DAC0*%
%TO.N,unconnected-(A1-PadDAC0)*%
X41180000Y-27540000D03*
%TO.P,A1,DAC1,DAC1*%
%TO.N,unconnected-(A1-PadDAC1)*%
X38640000Y-27540000D03*
D15*
%TO.P,A1,GND1,GND*%
%TO.N,GND*%
X98584000Y-75800000D03*
%TO.P,A1,GND2,GND*%
X84360000Y-27540000D03*
%TO.P,A1,GND3,GND*%
X81820000Y-27540000D03*
%TO.P,A1,GND4,SPI_GND*%
%TO.N,unconnected-(A1-SPI_GND-PadGND4)*%
X58833000Y-50400000D03*
%TO.P,A1,GND5,GND*%
%TO.N,GND*%
X31020000Y-32620000D03*
%TO.P,A1,GND6,GND*%
X28480000Y-32620000D03*
D14*
%TO.P,A1,IORF,IOREF*%
%TO.N,unconnected-(A1-IOREF-PadIORF)*%
X94520000Y-27540000D03*
%TO.P,A1,MISO,SPI_MISO*%
%TO.N,unconnected-(A1-SPI_MISO-PadMISO)*%
X61373000Y-55480000D03*
%TO.P,A1,MOSI,SPI_MOSI*%
%TO.N,unconnected-(A1-SPI_MOSI-PadMOSI)*%
X58833000Y-52940000D03*
%TO.P,A1,RST1,RESET*%
%TO.N,unconnected-(A1-RESET-PadRST1)*%
X91980000Y-27540000D03*
%TO.P,A1,RST2,SPI_RESET*%
%TO.N,unconnected-(A1-SPI_RESET-PadRST2)*%
X61373000Y-50400000D03*
%TO.P,A1,SCK,SPI_SCK*%
%TO.N,unconnected-(A1-SPI_SCK-PadSCK)*%
X61373000Y-52940000D03*
%TO.P,A1,SCL1,SCL1*%
%TO.N,unconnected-(A1-PadSCL1)*%
X106204000Y-75800000D03*
%TO.P,A1,SDA1,SDA1*%
%TO.N,unconnected-(A1-PadSDA1)*%
X103664000Y-75800000D03*
%TO.P,A1,VIN,VIN*%
%TO.N,Net-(U2-OUT)*%
X79280000Y-27540000D03*
%TD*%
D16*
%TO.P,J1,1,Pin_1*%
%TO.N,GND*%
X117500000Y-70000000D03*
D17*
%TO.P,J1,2,Pin_2*%
%TO.N,Net-(J1-Pin_2)*%
X117500000Y-65000000D03*
%TD*%
D10*
%TO.P,J2,1,Pin_1*%
%TO.N,Net-(U1-CANH)*%
X45000000Y-50000000D03*
D11*
%TO.P,J2,2,Pin_2*%
%TO.N,Net-(U1-CANL)*%
X47000000Y-50000000D03*
%TD*%
D18*
%TO.P,U2,1,IN*%
%TO.N,Net-(J1-Pin_2)*%
X104850000Y-47460000D03*
D19*
%TO.P,U2,2,GND*%
%TO.N,GND*%
X111575000Y-47225000D03*
X111575000Y-52775000D03*
D20*
X114000000Y-50000000D03*
D19*
X116425000Y-47225000D03*
X116425000Y-52775000D03*
D18*
%TO.P,U2,3,OUT*%
%TO.N,Net-(U2-OUT)*%
X104850000Y-52540000D03*
%TD*%
D10*
%TO.P,J7,1,Pin_1*%
%TO.N,Net-(A1-PadD6)*%
X70000000Y-50000000D03*
D11*
%TO.P,J7,2,Pin_2*%
%TO.N,Net-(A1-PadD26)*%
X72000000Y-50000000D03*
%TO.P,J7,3,Pin_3*%
%TO.N,Net-(A1-PadD13)*%
X74000000Y-50000000D03*
%TO.P,J7,4,Pin_4*%
%TO.N,Net-(A1-3.3V)*%
X76000000Y-50000000D03*
%TD*%
D10*
%TO.P,J3,1,Pin_1*%
%TO.N,Net-(A1-PadD2)*%
X85000000Y-40000000D03*
D11*
%TO.P,J3,2,Pin_2*%
%TO.N,Net-(A1-PadD22)*%
X87000000Y-40000000D03*
%TO.P,J3,3,Pin_3*%
%TO.N,Net-(A1-PadD13)*%
X89000000Y-40000000D03*
%TO.P,J3,4,Pin_4*%
%TO.N,Net-(A1-3.3V)*%
X91000000Y-40000000D03*
%TD*%
D21*
%TO.P,C1,1*%
%TO.N,GND*%
X105000000Y-60862500D03*
%TO.P,C1,2*%
%TO.N,Net-(J1-Pin_2)*%
X105000000Y-59137500D03*
%TD*%
D10*
%TO.P,J4,1,Pin_1*%
%TO.N,Net-(A1-PadD3)*%
X85000000Y-50000000D03*
D11*
%TO.P,J4,2,Pin_2*%
%TO.N,Net-(A1-PadD23)*%
X87000000Y-50000000D03*
%TO.P,J4,3,Pin_3*%
%TO.N,Net-(A1-PadD13)*%
X89000000Y-50000000D03*
%TO.P,J4,4,Pin_4*%
%TO.N,Net-(A1-3.3V)*%
X91000000Y-50000000D03*
%TD*%
D22*
%TO.N,GND*%
X111760000Y-37338000D03*
X33274000Y-60706000D03*
X39370000Y-38100000D03*
X113284000Y-37338000D03*
X90932000Y-73660000D03*
X113284000Y-38862000D03*
X40894000Y-39624000D03*
X33274000Y-63246000D03*
X83312000Y-73660000D03*
X88392000Y-73660000D03*
X33274000Y-58166000D03*
X85852000Y-73660000D03*
X111760000Y-38862000D03*
X37846000Y-36830000D03*
X33274000Y-55626000D03*
%TO.N,Net-(A1-PadD22)*%
X81737200Y-42824400D03*
%TO.N,Net-(A1-PadD23)*%
X80975200Y-52781200D03*
%TO.N,Net-(A1-PadD24)*%
X80213200Y-60096400D03*
%TD*%
D23*
%TO.N,Net-(U2-OUT)*%
X104850000Y-52540000D02*
X101244400Y-48934400D01*
D24*
X104851200Y-54286300D02*
X104851200Y-52541200D01*
D23*
X80912000Y-25908000D02*
X79280000Y-27540000D01*
X101244400Y-25908000D02*
X80912000Y-25908000D01*
X101244400Y-48934400D02*
X101244400Y-25908000D01*
D24*
X100000000Y-59137500D02*
X104851200Y-54286300D01*
X104851200Y-52541200D02*
X104850000Y-52540000D01*
%TO.N,Net-(A1-CANTX)*%
X43346600Y-40005000D02*
X37288600Y-33947000D01*
X34748600Y-26351400D02*
X33560000Y-27540000D01*
X36592335Y-26351400D02*
X34748600Y-26351400D01*
X37288600Y-27047665D02*
X36592335Y-26351400D01*
X37288600Y-33947000D02*
X37288600Y-27047665D01*
D23*
%TO.N,Net-(A1-3.3V)*%
X88126400Y-28853600D02*
X89440000Y-27540000D01*
X57620316Y-28853600D02*
X88126400Y-28853600D01*
X43928916Y-42545000D02*
X57620316Y-28853600D01*
X43346600Y-42545000D02*
X43928916Y-42545000D01*
D24*
%TO.N,Net-(A1-CANRX)*%
X42371601Y-43815000D02*
X36100000Y-37543399D01*
X36100000Y-37543399D02*
X36100000Y-27540000D01*
X43346600Y-43815000D02*
X42371601Y-43815000D01*
%TO.N,Net-(U1-CANL)*%
X46996600Y-43464092D02*
X47915692Y-42545000D01*
X47915692Y-42545000D02*
X48296600Y-42545000D01*
X46996600Y-49996600D02*
X46996600Y-43464092D01*
X47000000Y-50000000D02*
X46996600Y-49996600D01*
%TO.N,Net-(U1-CANH)*%
X45000000Y-44190692D02*
X47915692Y-41275000D01*
X45000000Y-50000000D02*
X45000000Y-44190692D01*
X47915692Y-41275000D02*
X48296600Y-41275000D01*
%TO.N,Net-(A1-PadD22)*%
X84175600Y-42824400D02*
X87000000Y-40000000D01*
X81737200Y-42824400D02*
X84175600Y-42824400D01*
%TO.N,Net-(A1-PadD13)*%
X75200000Y-61200000D02*
X87800000Y-61200000D01*
X89000000Y-68756000D02*
X96044000Y-75800000D01*
X74000000Y-60000000D02*
X75200000Y-61200000D01*
X87800000Y-61200000D02*
X89000000Y-60000000D01*
X89000000Y-60000000D02*
X89000000Y-68756000D01*
%TO.N,Net-(A1-PadD23)*%
X84013900Y-52781200D02*
X86795100Y-50000000D01*
X80975200Y-52781200D02*
X84013900Y-52781200D01*
X86795100Y-50000000D02*
X87000000Y-50000000D01*
%TO.N,Net-(A1-PadD24)*%
X81509600Y-58800000D02*
X85800000Y-58800000D01*
X80213200Y-60096400D02*
X81509600Y-58800000D01*
X85800000Y-58800000D02*
X87000000Y-60000000D01*
%TO.N,Net-(A1-PadD5)*%
X68625000Y-41375000D02*
X70000000Y-40000000D01*
X69218504Y-61650000D02*
X68625000Y-61056496D01*
X70377208Y-61650000D02*
X69218504Y-61650000D01*
X74200000Y-75800000D02*
X74200000Y-65472792D01*
X74200000Y-65472792D02*
X70377208Y-61650000D01*
X68625000Y-61056496D02*
X68625000Y-41375000D01*
%TO.N,Net-(A1-PadD6)*%
X69075000Y-60870100D02*
X69075000Y-50925000D01*
X69404900Y-61200000D02*
X69075000Y-60870100D01*
X70563604Y-61200000D02*
X69404900Y-61200000D01*
X76740000Y-67376396D02*
X70563604Y-61200000D01*
X76740000Y-75800000D02*
X76740000Y-67376396D01*
X69075000Y-50925000D02*
X70000000Y-50000000D01*
%TO.N,Net-(A1-PadD7)*%
X79280000Y-75800000D02*
X79280000Y-69280000D01*
X79280000Y-69280000D02*
X70000000Y-60000000D01*
D23*
%TO.N,Net-(J1-Pin_2)*%
X108160000Y-44150000D02*
X104850000Y-47460000D01*
X119500000Y-63000000D02*
X119500000Y-44903122D01*
X118746878Y-44150000D02*
X108160000Y-44150000D01*
X119500000Y-44903122D02*
X118746878Y-44150000D01*
X107600000Y-56537500D02*
X107600000Y-50210000D01*
X107600000Y-50210000D02*
X104850000Y-47460000D01*
X105000000Y-59137500D02*
X107600000Y-56537500D01*
X117500000Y-65000000D02*
X119500000Y-63000000D01*
%TD*%
%TA.AperFunction,Conductor*%
%TO.N,GND*%
G36*
X80579199Y-25020185D02*
G01*
X80624954Y-25072989D01*
X80634898Y-25142147D01*
X80605873Y-25205703D01*
X80577990Y-25227391D01*
X80578914Y-25228796D01*
X80508708Y-25274971D01*
X80443347Y-25315285D01*
X80437683Y-25319765D01*
X80437647Y-25319719D01*
X80431798Y-25324484D01*
X80431835Y-25324528D01*
X80426310Y-25329164D01*
X80426304Y-25329169D01*
X80426304Y-25329170D01*
X80373597Y-25385034D01*
X80373598Y-25385034D01*
X79600737Y-26157894D01*
X79539414Y-26191379D01*
X79492647Y-26192522D01*
X79393033Y-26175900D01*
X79166967Y-26175900D01*
X79122370Y-26183341D01*
X78943982Y-26213109D01*
X78730172Y-26286510D01*
X78730167Y-26286512D01*
X78531352Y-26394106D01*
X78352955Y-26532959D01*
X78352950Y-26532963D01*
X78199850Y-26699272D01*
X78199842Y-26699283D01*
X78076198Y-26888533D01*
X77985388Y-27095560D01*
X77929892Y-27314710D01*
X77911225Y-27539993D01*
X77911225Y-27540006D01*
X77929892Y-27765289D01*
X77976328Y-27948660D01*
X77973703Y-28018480D01*
X77933747Y-28075798D01*
X77869145Y-28102414D01*
X77856122Y-28103100D01*
X75623878Y-28103100D01*
X75556839Y-28083415D01*
X75511084Y-28030611D01*
X75501140Y-27961453D01*
X75503672Y-27948660D01*
X75550107Y-27765293D01*
X75568775Y-27540000D01*
X75568775Y-27539994D01*
X75568775Y-27539993D01*
X75550107Y-27314710D01*
X75550107Y-27314707D01*
X75494611Y-27095559D01*
X75403802Y-26888535D01*
X75280156Y-26699281D01*
X75280153Y-26699278D01*
X75280149Y-26699272D01*
X75127049Y-26532963D01*
X75127048Y-26532962D01*
X75127046Y-26532960D01*
X74948649Y-26394107D01*
X74872910Y-26353119D01*
X74749832Y-26286512D01*
X74749827Y-26286510D01*
X74536017Y-26213109D01*
X74368778Y-26185202D01*
X74313033Y-26175900D01*
X74086967Y-26175900D01*
X74042370Y-26183341D01*
X73863982Y-26213109D01*
X73650172Y-26286510D01*
X73650167Y-26286512D01*
X73451352Y-26394106D01*
X73272955Y-26532959D01*
X73272950Y-26532963D01*
X73119850Y-26699272D01*
X73119842Y-26699283D01*
X73033808Y-26830968D01*
X72980662Y-26876325D01*
X72911430Y-26885748D01*
X72848095Y-26856246D01*
X72826192Y-26830968D01*
X72740157Y-26699283D01*
X72740149Y-26699272D01*
X72587049Y-26532963D01*
X72587048Y-26532962D01*
X72587046Y-26532960D01*
X72408649Y-26394107D01*
X72332910Y-26353119D01*
X72209832Y-26286512D01*
X72209827Y-26286510D01*
X71996017Y-26213109D01*
X71828778Y-26185202D01*
X71773033Y-26175900D01*
X71546967Y-26175900D01*
X71502370Y-26183341D01*
X71323982Y-26213109D01*
X71110172Y-26286510D01*
X71110167Y-26286512D01*
X70911352Y-26394106D01*
X70732955Y-26532959D01*
X70732950Y-26532963D01*
X70579850Y-26699272D01*
X70579842Y-26699283D01*
X70493808Y-26830968D01*
X70440662Y-26876325D01*
X70371430Y-26885748D01*
X70308095Y-26856246D01*
X70286192Y-26830968D01*
X70200157Y-26699283D01*
X70200149Y-26699272D01*
X70047049Y-26532963D01*
X70047048Y-26532962D01*
X70047046Y-26532960D01*
X69868649Y-26394107D01*
X69792910Y-26353119D01*
X69669832Y-26286512D01*
X69669827Y-26286510D01*
X69456017Y-26213109D01*
X69288778Y-26185202D01*
X69233033Y-26175900D01*
X69006967Y-26175900D01*
X68962370Y-26183341D01*
X68783982Y-26213109D01*
X68570172Y-26286510D01*
X68570167Y-26286512D01*
X68371352Y-26394106D01*
X68192955Y-26532959D01*
X68192950Y-26532963D01*
X68039850Y-26699272D01*
X68039842Y-26699283D01*
X67953808Y-26830968D01*
X67900662Y-26876325D01*
X67831430Y-26885748D01*
X67768095Y-26856246D01*
X67746192Y-26830968D01*
X67660157Y-26699283D01*
X67660149Y-26699272D01*
X67507049Y-26532963D01*
X67507048Y-26532962D01*
X67507046Y-26532960D01*
X67328649Y-26394107D01*
X67252910Y-26353119D01*
X67129832Y-26286512D01*
X67129827Y-26286510D01*
X66916017Y-26213109D01*
X66748778Y-26185202D01*
X66693033Y-26175900D01*
X66466967Y-26175900D01*
X66422370Y-26183341D01*
X66243982Y-26213109D01*
X66030172Y-26286510D01*
X66030167Y-26286512D01*
X65831352Y-26394106D01*
X65652955Y-26532959D01*
X65652950Y-26532963D01*
X65499850Y-26699272D01*
X65499842Y-26699283D01*
X65413808Y-26830968D01*
X65360662Y-26876325D01*
X65291430Y-26885748D01*
X65228095Y-26856246D01*
X65206192Y-26830968D01*
X65120157Y-26699283D01*
X65120149Y-26699272D01*
X64967049Y-26532963D01*
X64967048Y-26532962D01*
X64967046Y-26532960D01*
X64788649Y-26394107D01*
X64712910Y-26353119D01*
X64589832Y-26286512D01*
X64589827Y-26286510D01*
X64376017Y-26213109D01*
X64208778Y-26185202D01*
X64153033Y-26175900D01*
X63926967Y-26175900D01*
X63882370Y-26183341D01*
X63703982Y-26213109D01*
X63490172Y-26286510D01*
X63490167Y-26286512D01*
X63291352Y-26394106D01*
X63112955Y-26532959D01*
X63112950Y-26532963D01*
X62959850Y-26699272D01*
X62959842Y-26699283D01*
X62873808Y-26830968D01*
X62820662Y-26876325D01*
X62751430Y-26885748D01*
X62688095Y-26856246D01*
X62666192Y-26830968D01*
X62580157Y-26699283D01*
X62580149Y-26699272D01*
X62427049Y-26532963D01*
X62427048Y-26532962D01*
X62427046Y-26532960D01*
X62248649Y-26394107D01*
X62172910Y-26353119D01*
X62049832Y-26286512D01*
X62049827Y-26286510D01*
X61836017Y-26213109D01*
X61668778Y-26185202D01*
X61613033Y-26175900D01*
X61386967Y-26175900D01*
X61342370Y-26183341D01*
X61163982Y-26213109D01*
X60950172Y-26286510D01*
X60950167Y-26286512D01*
X60751352Y-26394106D01*
X60572955Y-26532959D01*
X60572950Y-26532963D01*
X60419850Y-26699272D01*
X60419842Y-26699283D01*
X60333808Y-26830968D01*
X60280662Y-26876325D01*
X60211430Y-26885748D01*
X60148095Y-26856246D01*
X60126192Y-26830968D01*
X60040157Y-26699283D01*
X60040149Y-26699272D01*
X59887049Y-26532963D01*
X59887048Y-26532962D01*
X59887046Y-26532960D01*
X59708649Y-26394107D01*
X59632910Y-26353119D01*
X59509832Y-26286512D01*
X59509827Y-26286510D01*
X59296017Y-26213109D01*
X59128778Y-26185202D01*
X59073033Y-26175900D01*
X58846967Y-26175900D01*
X58802370Y-26183341D01*
X58623982Y-26213109D01*
X58410172Y-26286510D01*
X58410167Y-26286512D01*
X58211352Y-26394106D01*
X58032955Y-26532959D01*
X58032950Y-26532963D01*
X57879850Y-26699272D01*
X57879842Y-26699283D01*
X57793808Y-26830968D01*
X57740662Y-26876325D01*
X57671430Y-26885748D01*
X57608095Y-26856246D01*
X57586192Y-26830968D01*
X57500157Y-26699283D01*
X57500149Y-26699272D01*
X57347049Y-26532963D01*
X57347048Y-26532962D01*
X57347046Y-26532960D01*
X57168649Y-26394107D01*
X57092910Y-26353119D01*
X56969832Y-26286512D01*
X56969827Y-26286510D01*
X56756017Y-26213109D01*
X56588778Y-26185202D01*
X56533033Y-26175900D01*
X56306967Y-26175900D01*
X56262370Y-26183341D01*
X56083982Y-26213109D01*
X55870172Y-26286510D01*
X55870167Y-26286512D01*
X55671352Y-26394106D01*
X55492955Y-26532959D01*
X55492950Y-26532963D01*
X55339850Y-26699272D01*
X55339842Y-26699283D01*
X55216198Y-26888533D01*
X55125388Y-27095560D01*
X55069892Y-27314710D01*
X55051225Y-27539993D01*
X55051225Y-27540006D01*
X55069892Y-27765289D01*
X55125388Y-27984439D01*
X55216198Y-28191466D01*
X55339842Y-28380716D01*
X55339850Y-28380727D01*
X55492950Y-28547036D01*
X55492954Y-28547040D01*
X55671351Y-28685893D01*
X55870169Y-28793488D01*
X55917437Y-28809715D01*
X56068480Y-28861568D01*
X56083986Y-28866891D01*
X56242026Y-28893263D01*
X56304909Y-28923712D01*
X56341349Y-28983327D01*
X56339775Y-29053179D01*
X56309296Y-29103252D01*
X45023192Y-40389355D01*
X44961869Y-40422840D01*
X44892177Y-40417856D01*
X44836244Y-40375984D01*
X44811827Y-40310520D01*
X44816436Y-40267075D01*
X44819198Y-40257569D01*
X44822100Y-40220694D01*
X44822100Y-39789306D01*
X44819198Y-39752431D01*
X44795997Y-39672575D01*
X44773345Y-39594606D01*
X44773344Y-39594603D01*
X44773344Y-39594602D01*
X44689681Y-39453135D01*
X44689679Y-39453133D01*
X44689676Y-39453129D01*
X44573470Y-39336923D01*
X44573462Y-39336917D01*
X44431996Y-39253255D01*
X44431993Y-39253254D01*
X44274173Y-39207402D01*
X44274167Y-39207401D01*
X44237296Y-39204500D01*
X44237294Y-39204500D01*
X43482052Y-39204500D01*
X43415013Y-39184815D01*
X43394371Y-39168181D01*
X37950419Y-33724228D01*
X37916934Y-33662905D01*
X37914100Y-33636547D01*
X37914100Y-28906053D01*
X37933785Y-28839014D01*
X37986589Y-28793259D01*
X38055747Y-28783315D01*
X38087908Y-28792496D01*
X38090165Y-28793486D01*
X38090169Y-28793488D01*
X38090172Y-28793489D01*
X38303982Y-28866890D01*
X38303984Y-28866890D01*
X38303986Y-28866891D01*
X38526967Y-28904100D01*
X38526968Y-28904100D01*
X38753032Y-28904100D01*
X38753033Y-28904100D01*
X38976014Y-28866891D01*
X39189831Y-28793488D01*
X39388649Y-28685893D01*
X39567046Y-28547040D01*
X39666832Y-28438643D01*
X39720149Y-28380727D01*
X39720149Y-28380726D01*
X39720156Y-28380719D01*
X39806193Y-28249028D01*
X39859338Y-28203675D01*
X39928569Y-28194251D01*
X39991905Y-28223753D01*
X40013804Y-28249025D01*
X40099844Y-28380719D01*
X40099849Y-28380724D01*
X40099850Y-28380727D01*
X40252950Y-28547036D01*
X40252954Y-28547040D01*
X40431351Y-28685893D01*
X40630169Y-28793488D01*
X40630172Y-28793489D01*
X40843982Y-28866890D01*
X40843984Y-28866890D01*
X40843986Y-28866891D01*
X41066967Y-28904100D01*
X41066968Y-28904100D01*
X41293032Y-28904100D01*
X41293033Y-28904100D01*
X41516014Y-28866891D01*
X41729831Y-28793488D01*
X41928649Y-28685893D01*
X42107046Y-28547040D01*
X42206832Y-28438643D01*
X42260149Y-28380727D01*
X42260149Y-28380726D01*
X42260156Y-28380719D01*
X42346193Y-28249028D01*
X42399338Y-28203675D01*
X42468569Y-28194251D01*
X42531905Y-28223753D01*
X42553804Y-28249025D01*
X42639844Y-28380719D01*
X42639849Y-28380724D01*
X42639850Y-28380727D01*
X42792950Y-28547036D01*
X42792954Y-28547040D01*
X42971351Y-28685893D01*
X43170169Y-28793488D01*
X43170172Y-28793489D01*
X43383982Y-28866890D01*
X43383984Y-28866890D01*
X43383986Y-28866891D01*
X43606967Y-28904100D01*
X43606968Y-28904100D01*
X43833032Y-28904100D01*
X43833033Y-28904100D01*
X44056014Y-28866891D01*
X44269831Y-28793488D01*
X44468649Y-28685893D01*
X44647046Y-28547040D01*
X44746832Y-28438643D01*
X44800149Y-28380727D01*
X44800149Y-28380726D01*
X44800156Y-28380719D01*
X44886193Y-28249028D01*
X44939338Y-28203675D01*
X45008569Y-28194251D01*
X45071905Y-28223753D01*
X45093804Y-28249025D01*
X45179844Y-28380719D01*
X45179849Y-28380724D01*
X45179850Y-28380727D01*
X45332950Y-28547036D01*
X45332954Y-28547040D01*
X45511351Y-28685893D01*
X45710169Y-28793488D01*
X45710172Y-28793489D01*
X45923982Y-28866890D01*
X45923984Y-28866890D01*
X45923986Y-28866891D01*
X46146967Y-28904100D01*
X46146968Y-28904100D01*
X46373032Y-28904100D01*
X46373033Y-28904100D01*
X46596014Y-28866891D01*
X46809831Y-28793488D01*
X47008649Y-28685893D01*
X47187046Y-28547040D01*
X47286832Y-28438643D01*
X47340149Y-28380727D01*
X47340149Y-28380726D01*
X47340156Y-28380719D01*
X47426193Y-28249028D01*
X47479338Y-28203675D01*
X47548569Y-28194251D01*
X47611905Y-28223753D01*
X47633804Y-28249025D01*
X47719844Y-28380719D01*
X47719849Y-28380724D01*
X47719850Y-28380727D01*
X47872950Y-28547036D01*
X47872954Y-28547040D01*
X48051351Y-28685893D01*
X48250169Y-28793488D01*
X48250172Y-28793489D01*
X48463982Y-28866890D01*
X48463984Y-28866890D01*
X48463986Y-28866891D01*
X48686967Y-28904100D01*
X48686968Y-28904100D01*
X48913032Y-28904100D01*
X48913033Y-28904100D01*
X49136014Y-28866891D01*
X49349831Y-28793488D01*
X49548649Y-28685893D01*
X49727046Y-28547040D01*
X49826832Y-28438643D01*
X49880149Y-28380727D01*
X49880151Y-28380724D01*
X49880156Y-28380719D01*
X49966193Y-28249029D01*
X50019336Y-28203675D01*
X50088567Y-28194251D01*
X50151903Y-28223753D01*
X50173807Y-28249031D01*
X50259842Y-28380716D01*
X50259850Y-28380727D01*
X50412950Y-28547036D01*
X50412954Y-28547040D01*
X50591351Y-28685893D01*
X50790169Y-28793488D01*
X50790172Y-28793489D01*
X51003982Y-28866890D01*
X51003984Y-28866890D01*
X51003986Y-28866891D01*
X51226967Y-28904100D01*
X51226968Y-28904100D01*
X51453032Y-28904100D01*
X51453033Y-28904100D01*
X51676014Y-28866891D01*
X51889831Y-28793488D01*
X52088649Y-28685893D01*
X52267046Y-28547040D01*
X52366832Y-28438643D01*
X52420149Y-28380727D01*
X52420151Y-28380724D01*
X52420156Y-28380719D01*
X52543802Y-28191465D01*
X52634611Y-27984441D01*
X52690107Y-27765293D01*
X52708775Y-27540000D01*
X52708775Y-27539994D01*
X52708775Y-27539993D01*
X52690107Y-27314710D01*
X52690107Y-27314707D01*
X52634611Y-27095559D01*
X52543802Y-26888535D01*
X52420156Y-26699281D01*
X52420153Y-26699278D01*
X52420149Y-26699272D01*
X52267049Y-26532963D01*
X52267048Y-26532962D01*
X52267046Y-26532960D01*
X52088649Y-26394107D01*
X52012910Y-26353119D01*
X51889832Y-26286512D01*
X51889827Y-26286510D01*
X51676017Y-26213109D01*
X51508778Y-26185202D01*
X51453033Y-26175900D01*
X51226967Y-26175900D01*
X51182370Y-26183341D01*
X51003982Y-26213109D01*
X50790172Y-26286510D01*
X50790167Y-26286512D01*
X50591352Y-26394106D01*
X50412955Y-26532959D01*
X50412950Y-26532963D01*
X50259850Y-26699272D01*
X50259846Y-26699278D01*
X50173807Y-26830969D01*
X50120660Y-26876325D01*
X50051429Y-26885748D01*
X49988093Y-26856245D01*
X49966192Y-26830969D01*
X49880156Y-26699281D01*
X49880151Y-26699276D01*
X49880149Y-26699272D01*
X49727049Y-26532963D01*
X49727048Y-26532962D01*
X49727046Y-26532960D01*
X49548649Y-26394107D01*
X49472910Y-26353119D01*
X49349832Y-26286512D01*
X49349827Y-26286510D01*
X49136017Y-26213109D01*
X48968778Y-26185202D01*
X48913033Y-26175900D01*
X48686967Y-26175900D01*
X48642370Y-26183341D01*
X48463982Y-26213109D01*
X48250172Y-26286510D01*
X48250167Y-26286512D01*
X48051352Y-26394106D01*
X47872955Y-26532959D01*
X47872950Y-26532963D01*
X47719850Y-26699272D01*
X47719842Y-26699283D01*
X47633808Y-26830968D01*
X47580662Y-26876325D01*
X47511430Y-26885748D01*
X47448095Y-26856246D01*
X47426192Y-26830968D01*
X47340157Y-26699283D01*
X47340149Y-26699272D01*
X47187049Y-26532963D01*
X47187048Y-26532962D01*
X47187046Y-26532960D01*
X47008649Y-26394107D01*
X46932910Y-26353119D01*
X46809832Y-26286512D01*
X46809827Y-26286510D01*
X46596017Y-26213109D01*
X46428778Y-26185202D01*
X46373033Y-26175900D01*
X46146967Y-26175900D01*
X46102370Y-26183341D01*
X45923982Y-26213109D01*
X45710172Y-26286510D01*
X45710167Y-26286512D01*
X45511352Y-26394106D01*
X45332955Y-26532959D01*
X45332950Y-26532963D01*
X45179850Y-26699272D01*
X45179842Y-26699283D01*
X45093808Y-26830968D01*
X45040662Y-26876325D01*
X44971430Y-26885748D01*
X44908095Y-26856246D01*
X44886192Y-26830968D01*
X44800157Y-26699283D01*
X44800149Y-26699272D01*
X44647049Y-26532963D01*
X44647048Y-26532962D01*
X44647046Y-26532960D01*
X44468649Y-26394107D01*
X44392910Y-26353119D01*
X44269832Y-26286512D01*
X44269827Y-26286510D01*
X44056017Y-26213109D01*
X43888778Y-26185202D01*
X43833033Y-26175900D01*
X43606967Y-26175900D01*
X43562370Y-26183341D01*
X43383982Y-26213109D01*
X43170172Y-26286510D01*
X43170167Y-26286512D01*
X42971352Y-26394106D01*
X42792955Y-26532959D01*
X42792950Y-26532963D01*
X42639850Y-26699272D01*
X42639842Y-26699283D01*
X42553808Y-26830968D01*
X42500662Y-26876325D01*
X42431430Y-26885748D01*
X42368095Y-26856246D01*
X42346192Y-26830968D01*
X42260157Y-26699283D01*
X42260149Y-26699272D01*
X42107049Y-26532963D01*
X42107048Y-26532962D01*
X42107046Y-26532960D01*
X41928649Y-26394107D01*
X41852910Y-26353119D01*
X41729832Y-26286512D01*
X41729827Y-26286510D01*
X41516017Y-26213109D01*
X41348778Y-26185202D01*
X41293033Y-26175900D01*
X41066967Y-26175900D01*
X41022370Y-26183341D01*
X40843982Y-26213109D01*
X40630172Y-26286510D01*
X40630167Y-26286512D01*
X40431352Y-26394106D01*
X40252955Y-26532959D01*
X40252950Y-26532963D01*
X40099850Y-26699272D01*
X40099842Y-26699283D01*
X40013808Y-26830968D01*
X39960662Y-26876325D01*
X39891430Y-26885748D01*
X39828095Y-26856246D01*
X39806192Y-26830968D01*
X39720157Y-26699283D01*
X39720149Y-26699272D01*
X39567049Y-26532963D01*
X39567048Y-26532962D01*
X39567046Y-26532960D01*
X39388649Y-26394107D01*
X39312910Y-26353119D01*
X39189832Y-26286512D01*
X39189827Y-26286510D01*
X38976017Y-26213109D01*
X38808778Y-26185202D01*
X38753033Y-26175900D01*
X38526967Y-26175900D01*
X38482370Y-26183341D01*
X38303982Y-26213109D01*
X38090172Y-26286510D01*
X38090167Y-26286512D01*
X37905409Y-26386498D01*
X37891351Y-26394107D01*
X37848134Y-26427743D01*
X37768737Y-26489541D01*
X37703743Y-26515183D01*
X37635203Y-26501616D01*
X37604894Y-26479368D01*
X37093138Y-25967612D01*
X37083315Y-25955350D01*
X37083094Y-25955534D01*
X37078121Y-25949523D01*
X37059494Y-25932031D01*
X37027699Y-25902173D01*
X37017254Y-25891728D01*
X37006810Y-25881283D01*
X37001321Y-25877025D01*
X36996896Y-25873247D01*
X36962917Y-25841338D01*
X36962915Y-25841336D01*
X36962912Y-25841335D01*
X36945364Y-25831688D01*
X36929098Y-25821004D01*
X36913268Y-25808725D01*
X36870503Y-25790218D01*
X36865257Y-25787648D01*
X36824428Y-25765203D01*
X36824427Y-25765202D01*
X36805028Y-25760222D01*
X36786616Y-25753918D01*
X36768233Y-25745962D01*
X36768227Y-25745960D01*
X36722209Y-25738672D01*
X36716487Y-25737487D01*
X36671356Y-25725900D01*
X36671354Y-25725900D01*
X36651319Y-25725900D01*
X36631921Y-25724373D01*
X36624497Y-25723197D01*
X36612140Y-25721240D01*
X36612139Y-25721240D01*
X36565751Y-25725625D01*
X36559913Y-25725900D01*
X34831337Y-25725900D01*
X34815720Y-25724176D01*
X34815693Y-25724462D01*
X34807931Y-25723727D01*
X34738803Y-25725900D01*
X34709250Y-25725900D01*
X34708529Y-25725990D01*
X34702357Y-25726769D01*
X34696545Y-25727226D01*
X34649973Y-25728690D01*
X34649972Y-25728690D01*
X34630729Y-25734281D01*
X34611679Y-25738225D01*
X34591811Y-25740734D01*
X34591809Y-25740735D01*
X34548484Y-25757888D01*
X34542957Y-25759780D01*
X34498210Y-25772781D01*
X34498209Y-25772782D01*
X34480967Y-25782979D01*
X34463499Y-25791537D01*
X34444869Y-25798913D01*
X34444867Y-25798914D01*
X34407176Y-25826298D01*
X34402294Y-25829505D01*
X34362179Y-25853230D01*
X34348008Y-25867400D01*
X34333223Y-25880028D01*
X34317012Y-25891807D01*
X34287309Y-25927710D01*
X34283377Y-25932031D01*
X34029869Y-26185538D01*
X33968546Y-26219023D01*
X33901925Y-26215138D01*
X33896015Y-26213109D01*
X33730790Y-26185538D01*
X33673033Y-26175900D01*
X33446967Y-26175900D01*
X33402370Y-26183341D01*
X33223982Y-26213109D01*
X33010172Y-26286510D01*
X33010167Y-26286512D01*
X32811352Y-26394106D01*
X32632955Y-26532959D01*
X32632950Y-26532963D01*
X32479850Y-26699272D01*
X32479842Y-26699283D01*
X32356198Y-26888533D01*
X32265388Y-27095560D01*
X32209892Y-27314710D01*
X32191225Y-27539993D01*
X32191225Y-27540006D01*
X32209892Y-27765289D01*
X32265388Y-27984439D01*
X32356198Y-28191466D01*
X32479842Y-28380716D01*
X32479850Y-28380727D01*
X32632950Y-28547036D01*
X32632954Y-28547040D01*
X32811351Y-28685893D01*
X33010169Y-28793488D01*
X33010172Y-28793489D01*
X33223982Y-28866890D01*
X33223984Y-28866890D01*
X33223986Y-28866891D01*
X33446967Y-28904100D01*
X33446968Y-28904100D01*
X33673032Y-28904100D01*
X33673033Y-28904100D01*
X33896014Y-28866891D01*
X34109831Y-28793488D01*
X34308649Y-28685893D01*
X34487046Y-28547040D01*
X34586832Y-28438643D01*
X34640149Y-28380727D01*
X34640149Y-28380726D01*
X34640156Y-28380719D01*
X34726193Y-28249028D01*
X34779338Y-28203675D01*
X34848569Y-28194251D01*
X34911905Y-28223753D01*
X34933804Y-28249025D01*
X35019844Y-28380719D01*
X35019849Y-28380724D01*
X35019850Y-28380727D01*
X35172950Y-28547036D01*
X35172954Y-28547040D01*
X35351351Y-28685893D01*
X35409517Y-28717370D01*
X35459107Y-28766588D01*
X35474500Y-28826425D01*
X35474500Y-37460654D01*
X35472775Y-37476271D01*
X35473061Y-37476298D01*
X35472326Y-37484064D01*
X35474500Y-37553213D01*
X35474500Y-37582742D01*
X35474501Y-37582759D01*
X35475368Y-37589630D01*
X35475826Y-37595449D01*
X35477290Y-37642023D01*
X35477291Y-37642026D01*
X35482880Y-37661266D01*
X35486824Y-37680310D01*
X35489311Y-37699993D01*
X35489336Y-37700190D01*
X35506490Y-37743518D01*
X35508382Y-37749046D01*
X35521381Y-37793787D01*
X35531580Y-37811033D01*
X35540138Y-37828502D01*
X35547514Y-37847131D01*
X35574898Y-37884822D01*
X35578106Y-37889706D01*
X35601827Y-37929815D01*
X35601833Y-37929823D01*
X35615990Y-37943979D01*
X35628628Y-37958775D01*
X35640405Y-37974985D01*
X35640406Y-37974986D01*
X35676309Y-38004687D01*
X35680620Y-38008609D01*
X40348931Y-42676921D01*
X41870798Y-44198788D01*
X41880623Y-44211051D01*
X41880844Y-44210869D01*
X41885815Y-44216878D01*
X41911025Y-44240551D01*
X41936236Y-44264226D01*
X41941268Y-44269258D01*
X41960319Y-44293818D01*
X42003516Y-44366861D01*
X42003523Y-44366870D01*
X42119729Y-44483076D01*
X42119733Y-44483079D01*
X42119735Y-44483081D01*
X42261202Y-44566744D01*
X42302824Y-44578836D01*
X42419026Y-44612597D01*
X42419029Y-44612597D01*
X42419031Y-44612598D01*
X42431322Y-44613565D01*
X42455904Y-44615500D01*
X42455906Y-44615500D01*
X44237293Y-44615500D01*
X44237294Y-44615500D01*
X44238149Y-44615432D01*
X44240766Y-44615227D01*
X44309143Y-44629588D01*
X44358902Y-44678637D01*
X44374500Y-44738844D01*
X44374500Y-48593942D01*
X44354815Y-48660981D01*
X44315598Y-48699479D01*
X44283309Y-48719396D01*
X44181342Y-48782289D01*
X44057289Y-48906342D01*
X43965187Y-49055663D01*
X43965185Y-49055668D01*
X43952946Y-49092604D01*
X43910001Y-49222203D01*
X43910001Y-49222204D01*
X43910000Y-49222204D01*
X43899500Y-49324983D01*
X43899500Y-50675001D01*
X43899501Y-50675018D01*
X43910000Y-50777796D01*
X43910001Y-50777799D01*
X43940986Y-50871303D01*
X43965186Y-50944334D01*
X44057288Y-51093656D01*
X44181344Y-51217712D01*
X44330666Y-51309814D01*
X44497203Y-51364999D01*
X44599991Y-51375500D01*
X45400008Y-51375499D01*
X45400016Y-51375498D01*
X45400019Y-51375498D01*
X45497892Y-51365500D01*
X45502797Y-51364999D01*
X45669334Y-51309814D01*
X45818656Y-51217712D01*
X45942712Y-51093656D01*
X45981815Y-51030258D01*
X46033761Y-50983535D01*
X46102723Y-50972312D01*
X46166806Y-51000155D01*
X46184824Y-51018705D01*
X46199907Y-51037885D01*
X46199909Y-51037887D01*
X46358746Y-51175521D01*
X46540750Y-51280601D01*
X46540752Y-51280601D01*
X46540756Y-51280604D01*
X46739367Y-51349344D01*
X46947398Y-51379254D01*
X47157330Y-51369254D01*
X47361576Y-51319704D01*
X47475825Y-51267528D01*
X47552743Y-51232401D01*
X47552746Y-51232399D01*
X47552753Y-51232396D01*
X47723952Y-51110486D01*
X47725340Y-51109031D01*
X47868985Y-50958379D01*
X47878010Y-50944336D01*
X47982613Y-50781572D01*
X48060725Y-50586457D01*
X48100500Y-50380085D01*
X48100500Y-49672575D01*
X48085528Y-49515782D01*
X48026316Y-49314125D01*
X47930011Y-49127318D01*
X47930009Y-49127316D01*
X47930008Y-49127313D01*
X47800094Y-48962116D01*
X47800090Y-48962112D01*
X47664897Y-48844966D01*
X47627123Y-48786187D01*
X47622100Y-48751253D01*
X47622100Y-44739500D01*
X47641785Y-44672461D01*
X47694589Y-44626706D01*
X47746100Y-44615500D01*
X49187296Y-44615500D01*
X49205731Y-44614049D01*
X49224169Y-44612598D01*
X49224171Y-44612597D01*
X49224173Y-44612597D01*
X49265791Y-44600505D01*
X49381998Y-44566744D01*
X49523465Y-44483081D01*
X49639681Y-44366865D01*
X49723344Y-44225398D01*
X49769198Y-44067569D01*
X49772100Y-44030694D01*
X49772100Y-43599306D01*
X49771242Y-43588409D01*
X49769198Y-43562432D01*
X49769197Y-43562426D01*
X49732194Y-43435064D01*
X49723344Y-43404602D01*
X49662373Y-43301505D01*
X49639684Y-43263139D01*
X49634901Y-43256974D01*
X49637352Y-43255072D01*
X49610754Y-43206421D01*
X49615703Y-43136726D01*
X49636542Y-43104299D01*
X49634901Y-43103026D01*
X49639677Y-43096868D01*
X49639681Y-43096865D01*
X49723344Y-42955398D01*
X49769198Y-42797569D01*
X49772100Y-42760694D01*
X49772100Y-42329306D01*
X49769198Y-42292431D01*
X49769126Y-42292184D01*
X49728257Y-42151512D01*
X49723344Y-42134602D01*
X49639681Y-41993135D01*
X49639678Y-41993132D01*
X49634898Y-41986969D01*
X49637342Y-41985072D01*
X49610742Y-41936357D01*
X49615726Y-41866665D01*
X49636544Y-41834307D01*
X49634898Y-41833031D01*
X49639675Y-41826870D01*
X49639681Y-41826865D01*
X49723344Y-41685398D01*
X49769198Y-41527569D01*
X49770649Y-41509131D01*
X49772100Y-41490696D01*
X49772100Y-41059304D01*
X49769198Y-41022432D01*
X49769197Y-41022426D01*
X49730834Y-40890383D01*
X49723344Y-40864602D01*
X49639681Y-40723135D01*
X49639678Y-40723132D01*
X49634898Y-40716969D01*
X49637342Y-40715072D01*
X49610742Y-40666357D01*
X49615726Y-40596665D01*
X49636544Y-40564307D01*
X49634898Y-40563031D01*
X49639675Y-40556870D01*
X49639681Y-40556865D01*
X49723344Y-40415398D01*
X49769198Y-40257569D01*
X49772100Y-40220694D01*
X49772100Y-39789306D01*
X49769198Y-39752431D01*
X49745997Y-39672575D01*
X49723345Y-39594606D01*
X49723344Y-39594603D01*
X49723344Y-39594602D01*
X49639681Y-39453135D01*
X49639679Y-39453133D01*
X49639676Y-39453129D01*
X49523470Y-39336923D01*
X49523462Y-39336917D01*
X49381996Y-39253255D01*
X49381993Y-39253254D01*
X49224173Y-39207402D01*
X49224167Y-39207401D01*
X49187296Y-39204500D01*
X49187294Y-39204500D01*
X48630146Y-39204500D01*
X48563107Y-39184815D01*
X48517352Y-39132011D01*
X48507408Y-39062853D01*
X48536433Y-38999297D01*
X48542465Y-38992819D01*
X54847520Y-32687763D01*
X57105787Y-32687763D01*
X57135413Y-32957013D01*
X57135415Y-32957024D01*
X57203926Y-33219082D01*
X57203928Y-33219088D01*
X57309870Y-33468390D01*
X57381998Y-33586575D01*
X57450979Y-33699605D01*
X57450986Y-33699615D01*
X57624253Y-33907819D01*
X57624259Y-33907824D01*
X57742879Y-34014107D01*
X57825998Y-34088582D01*
X58051910Y-34238044D01*
X58297176Y-34353020D01*
X58297183Y-34353022D01*
X58297185Y-34353023D01*
X58556557Y-34431057D01*
X58556564Y-34431058D01*
X58556569Y-34431060D01*
X58824561Y-34470500D01*
X58824566Y-34470500D01*
X59027636Y-34470500D01*
X59079133Y-34466730D01*
X59230156Y-34455677D01*
X59342758Y-34430593D01*
X59494546Y-34396782D01*
X59494548Y-34396781D01*
X59494553Y-34396780D01*
X59747558Y-34300014D01*
X59983777Y-34167441D01*
X60198177Y-34001888D01*
X60386186Y-33806881D01*
X60543799Y-33586579D01*
X60617787Y-33442669D01*
X60667649Y-33345690D01*
X60667651Y-33345684D01*
X60667656Y-33345675D01*
X60755118Y-33089305D01*
X60804319Y-32822933D01*
X60814212Y-32552235D01*
X60784586Y-32282982D01*
X60716072Y-32020912D01*
X60610130Y-31771610D01*
X60469018Y-31540390D01*
X60379747Y-31433119D01*
X60295746Y-31332180D01*
X60295740Y-31332175D01*
X60094002Y-31151418D01*
X59868092Y-31001957D01*
X59868090Y-31001956D01*
X59622824Y-30886980D01*
X59622819Y-30886978D01*
X59622814Y-30886976D01*
X59363442Y-30808942D01*
X59363428Y-30808939D01*
X59247791Y-30791921D01*
X59095439Y-30769500D01*
X58892369Y-30769500D01*
X58892364Y-30769500D01*
X58689844Y-30784323D01*
X58689831Y-30784325D01*
X58425453Y-30843217D01*
X58425446Y-30843220D01*
X58172439Y-30939987D01*
X57936226Y-31072557D01*
X57721822Y-31238112D01*
X57533822Y-31433109D01*
X57533816Y-31433116D01*
X57376202Y-31653419D01*
X57376199Y-31653424D01*
X57252350Y-31894309D01*
X57252343Y-31894327D01*
X57164884Y-32150685D01*
X57164881Y-32150699D01*
X57115681Y-32417068D01*
X57115680Y-32417075D01*
X57105787Y-32687763D01*
X54847520Y-32687763D01*
X57894864Y-29640419D01*
X57956187Y-29606934D01*
X57982545Y-29604100D01*
X88062695Y-29604100D01*
X88080665Y-29605409D01*
X88104423Y-29608889D01*
X88156468Y-29604335D01*
X88161870Y-29604100D01*
X88170104Y-29604100D01*
X88170109Y-29604100D01*
X88181727Y-29602741D01*
X88202676Y-29600293D01*
X88215428Y-29599177D01*
X88279197Y-29593599D01*
X88279205Y-29593596D01*
X88286266Y-29592139D01*
X88286278Y-29592198D01*
X88293643Y-29590565D01*
X88293629Y-29590506D01*
X88300646Y-29588841D01*
X88300655Y-29588841D01*
X88372823Y-29562574D01*
X88445734Y-29538414D01*
X88445743Y-29538407D01*
X88452282Y-29535360D01*
X88452308Y-29535416D01*
X88459090Y-29532132D01*
X88459063Y-29532078D01*
X88465506Y-29528840D01*
X88465517Y-29528837D01*
X88529683Y-29486634D01*
X88595056Y-29446312D01*
X88595062Y-29446305D01*
X88600725Y-29441829D01*
X88600763Y-29441877D01*
X88606600Y-29437122D01*
X88606561Y-29437075D01*
X88612096Y-29432430D01*
X88664785Y-29376583D01*
X88988188Y-29053179D01*
X89119264Y-28922102D01*
X89180585Y-28888619D01*
X89227348Y-28887476D01*
X89326967Y-28904100D01*
X89326970Y-28904100D01*
X89553032Y-28904100D01*
X89553033Y-28904100D01*
X89776014Y-28866891D01*
X89989831Y-28793488D01*
X90188649Y-28685893D01*
X90367046Y-28547040D01*
X90466832Y-28438643D01*
X90520149Y-28380727D01*
X90520149Y-28380726D01*
X90520156Y-28380719D01*
X90606193Y-28249028D01*
X90659338Y-28203675D01*
X90728569Y-28194251D01*
X90791905Y-28223753D01*
X90813804Y-28249025D01*
X90899844Y-28380719D01*
X90899849Y-28380724D01*
X90899850Y-28380727D01*
X91052950Y-28547036D01*
X91052954Y-28547040D01*
X91231351Y-28685893D01*
X91430169Y-28793488D01*
X91430172Y-28793489D01*
X91643982Y-28866890D01*
X91643984Y-28866890D01*
X91643986Y-28866891D01*
X91866967Y-28904100D01*
X91866968Y-28904100D01*
X92093032Y-28904100D01*
X92093033Y-28904100D01*
X92316014Y-28866891D01*
X92529831Y-28793488D01*
X92728649Y-28685893D01*
X92907046Y-28547040D01*
X93006832Y-28438643D01*
X93060149Y-28380727D01*
X93060149Y-28380726D01*
X93060156Y-28380719D01*
X93146193Y-28249028D01*
X93199338Y-28203675D01*
X93268569Y-28194251D01*
X93331905Y-28223753D01*
X93353804Y-28249025D01*
X93439844Y-28380719D01*
X93439849Y-28380724D01*
X93439850Y-28380727D01*
X93592950Y-28547036D01*
X93592954Y-28547040D01*
X93771351Y-28685893D01*
X93970169Y-28793488D01*
X93970172Y-28793489D01*
X94183982Y-28866890D01*
X94183984Y-28866890D01*
X94183986Y-28866891D01*
X94406967Y-28904100D01*
X94406968Y-28904100D01*
X94633032Y-28904100D01*
X94633033Y-28904100D01*
X94856014Y-28866891D01*
X95069831Y-28793488D01*
X95268649Y-28685893D01*
X95447046Y-28547040D01*
X95546832Y-28438643D01*
X95600149Y-28380727D01*
X95600149Y-28380726D01*
X95600156Y-28380719D01*
X95686193Y-28249028D01*
X95739338Y-28203675D01*
X95808569Y-28194251D01*
X95871905Y-28223753D01*
X95893804Y-28249025D01*
X95979844Y-28380719D01*
X95979849Y-28380724D01*
X95979850Y-28380727D01*
X96132950Y-28547036D01*
X96132954Y-28547040D01*
X96311351Y-28685893D01*
X96510169Y-28793488D01*
X96510172Y-28793489D01*
X96723982Y-28866890D01*
X96723984Y-28866890D01*
X96723986Y-28866891D01*
X96946967Y-28904100D01*
X96946968Y-28904100D01*
X97173032Y-28904100D01*
X97173033Y-28904100D01*
X97396014Y-28866891D01*
X97609831Y-28793488D01*
X97808649Y-28685893D01*
X97987046Y-28547040D01*
X98086832Y-28438643D01*
X98140149Y-28380727D01*
X98140151Y-28380724D01*
X98140156Y-28380719D01*
X98263802Y-28191465D01*
X98354611Y-27984441D01*
X98410107Y-27765293D01*
X98428775Y-27540000D01*
X98410107Y-27314707D01*
X98354611Y-27095559D01*
X98263802Y-26888535D01*
X98238836Y-26850321D01*
X98218648Y-26783432D01*
X98237829Y-26716246D01*
X98290288Y-26670096D01*
X98342645Y-26658500D01*
X100369900Y-26658500D01*
X100436939Y-26678185D01*
X100482694Y-26730989D01*
X100493900Y-26782500D01*
X100493900Y-48870694D01*
X100492591Y-48888663D01*
X100489110Y-48912425D01*
X100492977Y-48956615D01*
X100493458Y-48962116D01*
X100493664Y-48964464D01*
X100493900Y-48969870D01*
X100493900Y-48978109D01*
X100497706Y-49010674D01*
X100504400Y-49087191D01*
X100505861Y-49094267D01*
X100505803Y-49094278D01*
X100507434Y-49101637D01*
X100507492Y-49101624D01*
X100509157Y-49108650D01*
X100535425Y-49180824D01*
X100559585Y-49253731D01*
X100562636Y-49260274D01*
X100562582Y-49260298D01*
X100565870Y-49267088D01*
X100565921Y-49267063D01*
X100569161Y-49273513D01*
X100569162Y-49273514D01*
X100569163Y-49273517D01*
X100611364Y-49337683D01*
X100611365Y-49337683D01*
X100651687Y-49403055D01*
X100656166Y-49408719D01*
X100656119Y-49408756D01*
X100660882Y-49414602D01*
X100660928Y-49414564D01*
X100665573Y-49420100D01*
X100721418Y-49472786D01*
X102581235Y-51332603D01*
X102614720Y-51393926D01*
X102609736Y-51463618D01*
X102567864Y-51519551D01*
X102532560Y-51537989D01*
X102480672Y-51555183D01*
X102480663Y-51555187D01*
X102331342Y-51647289D01*
X102207289Y-51771342D01*
X102115187Y-51920663D01*
X102115185Y-51920668D01*
X102111112Y-51932959D01*
X102060001Y-52087203D01*
X102060001Y-52087204D01*
X102060000Y-52087204D01*
X102049500Y-52189983D01*
X102049500Y-52890001D01*
X102049501Y-52890019D01*
X102060000Y-52992796D01*
X102060001Y-52992799D01*
X102115185Y-53159331D01*
X102115187Y-53159336D01*
X102140617Y-53200565D01*
X102207288Y-53308656D01*
X102331344Y-53432712D01*
X102480666Y-53524814D01*
X102647203Y-53579999D01*
X102749991Y-53590500D01*
X104101700Y-53590499D01*
X104168739Y-53610184D01*
X104214494Y-53662987D01*
X104225700Y-53714499D01*
X104225700Y-53975846D01*
X104206015Y-54042885D01*
X104189381Y-54063527D01*
X100189726Y-58063181D01*
X100128403Y-58096666D01*
X100102045Y-58099500D01*
X99713330Y-58099500D01*
X99713312Y-58099501D01*
X99612247Y-58109825D01*
X99448484Y-58164092D01*
X99448481Y-58164093D01*
X99301648Y-58254661D01*
X99179661Y-58376648D01*
X99089093Y-58523481D01*
X99089091Y-58523484D01*
X99089092Y-58523484D01*
X99034826Y-58687247D01*
X99034826Y-58687248D01*
X99034825Y-58687248D01*
X99024500Y-58788315D01*
X99024500Y-59486669D01*
X99024501Y-59486687D01*
X99034825Y-59587752D01*
X99036704Y-59593421D01*
X99089092Y-59751516D01*
X99179660Y-59898350D01*
X99301650Y-60020340D01*
X99448484Y-60110908D01*
X99612247Y-60165174D01*
X99713323Y-60175500D01*
X100286676Y-60175499D01*
X100286684Y-60175498D01*
X100286687Y-60175498D01*
X100342030Y-60169844D01*
X100387753Y-60165174D01*
X100551516Y-60110908D01*
X100698350Y-60020340D01*
X100820340Y-59898350D01*
X100910908Y-59751516D01*
X100965174Y-59587753D01*
X100975500Y-59486677D01*
X100975499Y-59097950D01*
X100995183Y-59030912D01*
X101011813Y-59010275D01*
X105234988Y-54787101D01*
X105247242Y-54777286D01*
X105247059Y-54777064D01*
X105253066Y-54772092D01*
X105253077Y-54772086D01*
X105283975Y-54739182D01*
X105300427Y-54721664D01*
X105310871Y-54711218D01*
X105321320Y-54700771D01*
X105325579Y-54695278D01*
X105329352Y-54690861D01*
X105361262Y-54656882D01*
X105370915Y-54639320D01*
X105381589Y-54623070D01*
X105393873Y-54607236D01*
X105412380Y-54564467D01*
X105414949Y-54559224D01*
X105437396Y-54518393D01*
X105437397Y-54518392D01*
X105442377Y-54498991D01*
X105448678Y-54480588D01*
X105456638Y-54462196D01*
X105463930Y-54416149D01*
X105465111Y-54410452D01*
X105476700Y-54365319D01*
X105476700Y-54345282D01*
X105478227Y-54325882D01*
X105481360Y-54306104D01*
X105476975Y-54259715D01*
X105476700Y-54253877D01*
X105476700Y-53714499D01*
X105496385Y-53647460D01*
X105549189Y-53601705D01*
X105600700Y-53590499D01*
X106725500Y-53590499D01*
X106792539Y-53610184D01*
X106838294Y-53662988D01*
X106849500Y-53714499D01*
X106849500Y-56175269D01*
X106829815Y-56242308D01*
X106813181Y-56262950D01*
X105012949Y-58063181D01*
X104951626Y-58096666D01*
X104925269Y-58099500D01*
X104713331Y-58099500D01*
X104713312Y-58099501D01*
X104612247Y-58109825D01*
X104448484Y-58164092D01*
X104448481Y-58164093D01*
X104301648Y-58254661D01*
X104179661Y-58376648D01*
X104089093Y-58523481D01*
X104089091Y-58523484D01*
X104089092Y-58523484D01*
X104034826Y-58687247D01*
X104034826Y-58687248D01*
X104034825Y-58687248D01*
X104024500Y-58788315D01*
X104024500Y-59486669D01*
X104024501Y-59486687D01*
X104034825Y-59587752D01*
X104036704Y-59593421D01*
X104089092Y-59751516D01*
X104179660Y-59898350D01*
X104301650Y-60020340D01*
X104448484Y-60110908D01*
X104612247Y-60165174D01*
X104713323Y-60175500D01*
X105286676Y-60175499D01*
X105286684Y-60175498D01*
X105286687Y-60175498D01*
X105342030Y-60169844D01*
X105387753Y-60165174D01*
X105551516Y-60110908D01*
X105698350Y-60020340D01*
X105820340Y-59898350D01*
X105910908Y-59751516D01*
X105965174Y-59587753D01*
X105975500Y-59486677D01*
X105975499Y-59274729D01*
X105995183Y-59207690D01*
X106011813Y-59187053D01*
X108085638Y-57113227D01*
X108099267Y-57101450D01*
X108118530Y-57087110D01*
X108118532Y-57087106D01*
X108118534Y-57087106D01*
X108136663Y-57065499D01*
X108152113Y-57047085D01*
X108155767Y-57043099D01*
X108161589Y-57037278D01*
X108181928Y-57011554D01*
X108187162Y-57005315D01*
X108231302Y-56952714D01*
X108231304Y-56952709D01*
X108235272Y-56946679D01*
X108235323Y-56946712D01*
X108239369Y-56940360D01*
X108239317Y-56940328D01*
X108243109Y-56934179D01*
X108243111Y-56934177D01*
X108275569Y-56864569D01*
X108310040Y-56795933D01*
X108310043Y-56795917D01*
X108312510Y-56789144D01*
X108312568Y-56789165D01*
X108315043Y-56782046D01*
X108314985Y-56782027D01*
X108317256Y-56775172D01*
X108322454Y-56750000D01*
X108332784Y-56699967D01*
X108350500Y-56625221D01*
X108350499Y-56625220D01*
X108351339Y-56618045D01*
X108351400Y-56618052D01*
X108352165Y-56610560D01*
X108352103Y-56610555D01*
X108352731Y-56603362D01*
X108352733Y-56603356D01*
X108350500Y-56526602D01*
X108350500Y-50273705D01*
X108351809Y-50255735D01*
X108355289Y-50231974D01*
X108350736Y-50179939D01*
X108350500Y-50174532D01*
X108350500Y-50166296D01*
X108350500Y-50166291D01*
X108346691Y-50133705D01*
X108339998Y-50057203D01*
X108339995Y-50057194D01*
X108338538Y-50050135D01*
X108338598Y-50050122D01*
X108336965Y-50042757D01*
X108336906Y-50042772D01*
X108335241Y-50035749D01*
X108335241Y-50035745D01*
X108308971Y-49963568D01*
X108284816Y-49890670D01*
X108281761Y-49884118D01*
X108281815Y-49884092D01*
X108278533Y-49877312D01*
X108278480Y-49877340D01*
X108275238Y-49870886D01*
X108275237Y-49870883D01*
X108233038Y-49806723D01*
X108192712Y-49741344D01*
X108192711Y-49741343D01*
X108192710Y-49741341D01*
X108188234Y-49735681D01*
X108188280Y-49735643D01*
X108183519Y-49729799D01*
X108183474Y-49729838D01*
X108178834Y-49724308D01*
X108122982Y-49671613D01*
X107118764Y-48667396D01*
X107085279Y-48606073D01*
X107090263Y-48536381D01*
X107132135Y-48480448D01*
X107167437Y-48462010D01*
X107219334Y-48444814D01*
X107368656Y-48352712D01*
X107492712Y-48228656D01*
X107584814Y-48079334D01*
X107639999Y-47912797D01*
X107650500Y-47810009D01*
X107650499Y-47109992D01*
X107639999Y-47007203D01*
X107584814Y-46840666D01*
X107492712Y-46691344D01*
X107368656Y-46567288D01*
X107219334Y-46475186D01*
X107167438Y-46457989D01*
X107109995Y-46418217D01*
X107083172Y-46353701D01*
X107095487Y-46284925D01*
X107118760Y-46252606D01*
X108434548Y-44936819D01*
X108495872Y-44903334D01*
X108522230Y-44900500D01*
X118384648Y-44900500D01*
X118451687Y-44920185D01*
X118472329Y-44936819D01*
X118713181Y-45177670D01*
X118746666Y-45238993D01*
X118749500Y-45265351D01*
X118749500Y-62623792D01*
X118729815Y-62690831D01*
X118677011Y-62736586D01*
X118607853Y-62746530D01*
X118570580Y-62734065D01*
X118570297Y-62734667D01*
X118566764Y-62733005D01*
X118274228Y-62617181D01*
X118274225Y-62617180D01*
X117969476Y-62538934D01*
X117969463Y-62538932D01*
X117657329Y-62499500D01*
X117657318Y-62499500D01*
X117342682Y-62499500D01*
X117342670Y-62499500D01*
X117030536Y-62538932D01*
X117030523Y-62538934D01*
X116725774Y-62617180D01*
X116725771Y-62617181D01*
X116433242Y-62733001D01*
X116433241Y-62733002D01*
X116157516Y-62884584D01*
X116157504Y-62884591D01*
X115902978Y-63069515D01*
X115902968Y-63069523D01*
X115673608Y-63284907D01*
X115673606Y-63284909D01*
X115473054Y-63527334D01*
X115473051Y-63527338D01*
X115304464Y-63792990D01*
X115304461Y-63792996D01*
X115170499Y-64077678D01*
X115170497Y-64077683D01*
X115073270Y-64376916D01*
X115014311Y-64685988D01*
X115014310Y-64685995D01*
X114994556Y-64999994D01*
X114994556Y-65000005D01*
X115014310Y-65314004D01*
X115014311Y-65314011D01*
X115073270Y-65623083D01*
X115170497Y-65922316D01*
X115170499Y-65922321D01*
X115304461Y-66207003D01*
X115304464Y-66207009D01*
X115473051Y-66472661D01*
X115473054Y-66472665D01*
X115673606Y-66715090D01*
X115673608Y-66715092D01*
X115673610Y-66715094D01*
X115872240Y-66901620D01*
X115902968Y-66930476D01*
X115902978Y-66930484D01*
X116157504Y-67115408D01*
X116157509Y-67115410D01*
X116157516Y-67115416D01*
X116433234Y-67266994D01*
X116433239Y-67266996D01*
X116433241Y-67266997D01*
X116433242Y-67266998D01*
X116725771Y-67382818D01*
X116725774Y-67382819D01*
X117030523Y-67461065D01*
X117030527Y-67461066D01*
X117096010Y-67469338D01*
X117342670Y-67500499D01*
X117342679Y-67500499D01*
X117342682Y-67500500D01*
X117342684Y-67500500D01*
X117657316Y-67500500D01*
X117657318Y-67500500D01*
X117657321Y-67500499D01*
X117657329Y-67500499D01*
X117843593Y-67476968D01*
X117969473Y-67461066D01*
X118274225Y-67382819D01*
X118384190Y-67339281D01*
X118566757Y-67266998D01*
X118566758Y-67266997D01*
X118566756Y-67266997D01*
X118566766Y-67266994D01*
X118842484Y-67115416D01*
X119097030Y-66930478D01*
X119326390Y-66715094D01*
X119526947Y-66472663D01*
X119695537Y-66207007D01*
X119829503Y-65922315D01*
X119926731Y-65623079D01*
X119985688Y-65314015D01*
X120005444Y-65000000D01*
X120004547Y-64985748D01*
X119985689Y-64685995D01*
X119985688Y-64685988D01*
X119985688Y-64685985D01*
X119926731Y-64376921D01*
X119829503Y-64077685D01*
X119829500Y-64077678D01*
X119755950Y-63921376D01*
X119745217Y-63852335D01*
X119773513Y-63788452D01*
X119780446Y-63780920D01*
X119985638Y-63575727D01*
X119999267Y-63563950D01*
X120018530Y-63549610D01*
X120018532Y-63549606D01*
X120018534Y-63549606D01*
X120037221Y-63527334D01*
X120052113Y-63509585D01*
X120055767Y-63505599D01*
X120061589Y-63499778D01*
X120081928Y-63474054D01*
X120087162Y-63467815D01*
X120131302Y-63415214D01*
X120131304Y-63415209D01*
X120135272Y-63409179D01*
X120135323Y-63409212D01*
X120139372Y-63402856D01*
X120139320Y-63402824D01*
X120143112Y-63396675D01*
X120175575Y-63327058D01*
X120210036Y-63258440D01*
X120210040Y-63258433D01*
X120210042Y-63258421D01*
X120212509Y-63251646D01*
X120212567Y-63251667D01*
X120215043Y-63244546D01*
X120214986Y-63244527D01*
X120217255Y-63237678D01*
X120217255Y-63237676D01*
X120217257Y-63237673D01*
X120232788Y-63162449D01*
X120250500Y-63087721D01*
X120250500Y-63087718D01*
X120251339Y-63080548D01*
X120251397Y-63080554D01*
X120252164Y-63073056D01*
X120252104Y-63073051D01*
X120252733Y-63065860D01*
X120250500Y-62989103D01*
X120250500Y-44966827D01*
X120251809Y-44948857D01*
X120255289Y-44925096D01*
X120250736Y-44873061D01*
X120250500Y-44867654D01*
X120250500Y-44859419D01*
X120250500Y-44859413D01*
X120246691Y-44826829D01*
X120239998Y-44750324D01*
X120239996Y-44750319D01*
X120238538Y-44743255D01*
X120238597Y-44743242D01*
X120236967Y-44735886D01*
X120236908Y-44735901D01*
X120235242Y-44728875D01*
X120235241Y-44728867D01*
X120208973Y-44656695D01*
X120193821Y-44610968D01*
X120184815Y-44583788D01*
X120181763Y-44577243D01*
X120181817Y-44577217D01*
X120178533Y-44570434D01*
X120178480Y-44570462D01*
X120175238Y-44564008D01*
X120175237Y-44564005D01*
X120133038Y-44499845D01*
X120092712Y-44434466D01*
X120092711Y-44434465D01*
X120092710Y-44434463D01*
X120088234Y-44428803D01*
X120088280Y-44428765D01*
X120083519Y-44422921D01*
X120083474Y-44422960D01*
X120078834Y-44417430D01*
X120022982Y-44364735D01*
X119322607Y-43664361D01*
X119310827Y-43650730D01*
X119303360Y-43640701D01*
X119296490Y-43631472D01*
X119296488Y-43631470D01*
X119256465Y-43597886D01*
X119252490Y-43594244D01*
X119249568Y-43591322D01*
X119246658Y-43588411D01*
X119220918Y-43568059D01*
X119162087Y-43518694D01*
X119156058Y-43514729D01*
X119156090Y-43514680D01*
X119149731Y-43510628D01*
X119149700Y-43510679D01*
X119143558Y-43506891D01*
X119143556Y-43506890D01*
X119143555Y-43506889D01*
X119104352Y-43488608D01*
X119073936Y-43474424D01*
X119028536Y-43451624D01*
X119005311Y-43439960D01*
X119005309Y-43439959D01*
X119005308Y-43439959D01*
X118998523Y-43437489D01*
X118998543Y-43437433D01*
X118991427Y-43434959D01*
X118991409Y-43435015D01*
X118984549Y-43432742D01*
X118956719Y-43426996D01*
X118909312Y-43417207D01*
X118860245Y-43405578D01*
X118834597Y-43399499D01*
X118827425Y-43398661D01*
X118827431Y-43398601D01*
X118819933Y-43397835D01*
X118819928Y-43397895D01*
X118812738Y-43397265D01*
X118735961Y-43399500D01*
X108223705Y-43399500D01*
X108205735Y-43398191D01*
X108181972Y-43394710D01*
X108137512Y-43398601D01*
X108129931Y-43399264D01*
X108124530Y-43399500D01*
X108116289Y-43399500D01*
X108094579Y-43402037D01*
X108083724Y-43403306D01*
X108068911Y-43404602D01*
X108007199Y-43410001D01*
X108000132Y-43411460D01*
X108000120Y-43411404D01*
X107992763Y-43413035D01*
X107992777Y-43413092D01*
X107985743Y-43414759D01*
X107913575Y-43441025D01*
X107840675Y-43465181D01*
X107834126Y-43468236D01*
X107834101Y-43468183D01*
X107827308Y-43471471D01*
X107827334Y-43471523D01*
X107820880Y-43474764D01*
X107756708Y-43516971D01*
X107691347Y-43557285D01*
X107685683Y-43561765D01*
X107685647Y-43561719D01*
X107679798Y-43566484D01*
X107679835Y-43566528D01*
X107674310Y-43571164D01*
X107674304Y-43571169D01*
X107674304Y-43571170D01*
X107647759Y-43599306D01*
X107621597Y-43627035D01*
X104875449Y-46373181D01*
X104814126Y-46406666D01*
X104787768Y-46409500D01*
X102749998Y-46409500D01*
X102749981Y-46409501D01*
X102647203Y-46420000D01*
X102647200Y-46420001D01*
X102480668Y-46475185D01*
X102480663Y-46475187D01*
X102331342Y-46567289D01*
X102206581Y-46692051D01*
X102145258Y-46725536D01*
X102075566Y-46720552D01*
X102019633Y-46678680D01*
X101995216Y-46613216D01*
X101994900Y-46604370D01*
X101994900Y-27607763D01*
X109175787Y-27607763D01*
X109205413Y-27877013D01*
X109205415Y-27877024D01*
X109273926Y-28139082D01*
X109273928Y-28139088D01*
X109379870Y-28388390D01*
X109451998Y-28506575D01*
X109520979Y-28619605D01*
X109520986Y-28619615D01*
X109694253Y-28827819D01*
X109694259Y-28827824D01*
X109801277Y-28923712D01*
X109895998Y-29008582D01*
X110121910Y-29158044D01*
X110367176Y-29273020D01*
X110367183Y-29273022D01*
X110367185Y-29273023D01*
X110626557Y-29351057D01*
X110626564Y-29351058D01*
X110626569Y-29351060D01*
X110894561Y-29390500D01*
X110894566Y-29390500D01*
X111097636Y-29390500D01*
X111149133Y-29386730D01*
X111300156Y-29375677D01*
X111412758Y-29350593D01*
X111564546Y-29316782D01*
X111564548Y-29316781D01*
X111564553Y-29316780D01*
X111817558Y-29220014D01*
X112053777Y-29087441D01*
X112268177Y-28921888D01*
X112456186Y-28726881D01*
X112613799Y-28506579D01*
X112687787Y-28362669D01*
X112737649Y-28265690D01*
X112737651Y-28265684D01*
X112737656Y-28265675D01*
X112825118Y-28009305D01*
X112874319Y-27742933D01*
X112884212Y-27472235D01*
X112854586Y-27202982D01*
X112786072Y-26940912D01*
X112680130Y-26691610D01*
X112539018Y-26460390D01*
X112483857Y-26394107D01*
X112365746Y-26252180D01*
X112365740Y-26252175D01*
X112164002Y-26071418D01*
X111938092Y-25921957D01*
X111873774Y-25891806D01*
X111692824Y-25806980D01*
X111692819Y-25806978D01*
X111692814Y-25806976D01*
X111433442Y-25728942D01*
X111433428Y-25728939D01*
X111317791Y-25711921D01*
X111165439Y-25689500D01*
X110962369Y-25689500D01*
X110962364Y-25689500D01*
X110759844Y-25704323D01*
X110759831Y-25704325D01*
X110495453Y-25763217D01*
X110495446Y-25763220D01*
X110242439Y-25859987D01*
X110006226Y-25992557D01*
X109791822Y-26158112D01*
X109603822Y-26353109D01*
X109603816Y-26353116D01*
X109446202Y-26573419D01*
X109446199Y-26573424D01*
X109322350Y-26814309D01*
X109322343Y-26814327D01*
X109234884Y-27070685D01*
X109234881Y-27070699D01*
X109185681Y-27337068D01*
X109185680Y-27337075D01*
X109175787Y-27607763D01*
X101994900Y-27607763D01*
X101994900Y-25931640D01*
X101995005Y-25928034D01*
X101998731Y-25864065D01*
X101987602Y-25800954D01*
X101987079Y-25797384D01*
X101984203Y-25772781D01*
X101979641Y-25733745D01*
X101975808Y-25723215D01*
X101970211Y-25702330D01*
X101968265Y-25691289D01*
X101942884Y-25632448D01*
X101941552Y-25629095D01*
X101939560Y-25623624D01*
X101919637Y-25568883D01*
X101913472Y-25559510D01*
X101903218Y-25540491D01*
X101898779Y-25530200D01*
X101898773Y-25530190D01*
X101860515Y-25478802D01*
X101858446Y-25475847D01*
X101843081Y-25452486D01*
X101823230Y-25422304D01*
X101815072Y-25414607D01*
X101800704Y-25398462D01*
X101794009Y-25389469D01*
X101744924Y-25348282D01*
X101742230Y-25345884D01*
X101724514Y-25329170D01*
X101695618Y-25301908D01*
X101685903Y-25296299D01*
X101668204Y-25283906D01*
X101659614Y-25276698D01*
X101659612Y-25276697D01*
X101659611Y-25276696D01*
X101602340Y-25247934D01*
X101599164Y-25246221D01*
X101574336Y-25231886D01*
X101526121Y-25181319D01*
X101512899Y-25112712D01*
X101538867Y-25047847D01*
X101595782Y-25007319D01*
X101636337Y-25000500D01*
X124875500Y-25000500D01*
X124942539Y-25020185D01*
X124988294Y-25072989D01*
X124999500Y-25124500D01*
X124999500Y-78215500D01*
X124979815Y-78282539D01*
X124927011Y-78328294D01*
X124875500Y-78339500D01*
X27515569Y-78339500D01*
X27448530Y-78319815D01*
X27427888Y-78303181D01*
X25976819Y-76852111D01*
X25943334Y-76790788D01*
X25940500Y-76764430D01*
X25940500Y-75800006D01*
X27111225Y-75800006D01*
X27129892Y-76025289D01*
X27185388Y-76244439D01*
X27276198Y-76451466D01*
X27399842Y-76640716D01*
X27399850Y-76640727D01*
X27552950Y-76807036D01*
X27552954Y-76807040D01*
X27731351Y-76945893D01*
X27930169Y-77053488D01*
X27930172Y-77053489D01*
X28143982Y-77126890D01*
X28143984Y-77126890D01*
X28143986Y-77126891D01*
X28366967Y-77164100D01*
X28366968Y-77164100D01*
X28593032Y-77164100D01*
X28593033Y-77164100D01*
X28816014Y-77126891D01*
X29029831Y-77053488D01*
X29228649Y-76945893D01*
X29407046Y-76807040D01*
X29506832Y-76698643D01*
X29560149Y-76640727D01*
X29560149Y-76640726D01*
X29560156Y-76640719D01*
X29646193Y-76509028D01*
X29699338Y-76463675D01*
X29768569Y-76454251D01*
X29831905Y-76483753D01*
X29853804Y-76509025D01*
X29939844Y-76640719D01*
X29939849Y-76640724D01*
X29939850Y-76640727D01*
X30092950Y-76807036D01*
X30092954Y-76807040D01*
X30271351Y-76945893D01*
X30470169Y-77053488D01*
X30470172Y-77053489D01*
X30683982Y-77126890D01*
X30683984Y-77126890D01*
X30683986Y-77126891D01*
X30906967Y-77164100D01*
X30906968Y-77164100D01*
X31133032Y-77164100D01*
X31133033Y-77164100D01*
X31356014Y-77126891D01*
X31569831Y-77053488D01*
X31768649Y-76945893D01*
X31947046Y-76807040D01*
X32046832Y-76698643D01*
X32100149Y-76640727D01*
X32100151Y-76640724D01*
X32100156Y-76640719D01*
X32223802Y-76451465D01*
X32314611Y-76244441D01*
X32370107Y-76025293D01*
X32383160Y-75867763D01*
X32975787Y-75867763D01*
X33005413Y-76137013D01*
X33005415Y-76137024D01*
X33048166Y-76300548D01*
X33073928Y-76399088D01*
X33179870Y-76648390D01*
X33304200Y-76852111D01*
X33320979Y-76879605D01*
X33320986Y-76879615D01*
X33494253Y-77087819D01*
X33494259Y-77087824D01*
X33695998Y-77268582D01*
X33921910Y-77418044D01*
X34167176Y-77533020D01*
X34167183Y-77533022D01*
X34167185Y-77533023D01*
X34426557Y-77611057D01*
X34426564Y-77611058D01*
X34426569Y-77611060D01*
X34694561Y-77650500D01*
X34694566Y-77650500D01*
X34897636Y-77650500D01*
X34949133Y-77646730D01*
X35100156Y-77635677D01*
X35212758Y-77610593D01*
X35364546Y-77576782D01*
X35364548Y-77576781D01*
X35364553Y-77576780D01*
X35617558Y-77480014D01*
X35853777Y-77347441D01*
X36068177Y-77181888D01*
X36256186Y-76986881D01*
X36413799Y-76766579D01*
X36487787Y-76622669D01*
X36537649Y-76525690D01*
X36537651Y-76525684D01*
X36537656Y-76525675D01*
X36625118Y-76269305D01*
X36674319Y-76002933D01*
X36681735Y-75800006D01*
X37271225Y-75800006D01*
X37289892Y-76025289D01*
X37345388Y-76244439D01*
X37436198Y-76451466D01*
X37559842Y-76640716D01*
X37559850Y-76640727D01*
X37712950Y-76807036D01*
X37712954Y-76807040D01*
X37891351Y-76945893D01*
X38090169Y-77053488D01*
X38090172Y-77053489D01*
X38303982Y-77126890D01*
X38303984Y-77126890D01*
X38303986Y-77126891D01*
X38526967Y-77164100D01*
X38526968Y-77164100D01*
X38753032Y-77164100D01*
X38753033Y-77164100D01*
X38976014Y-77126891D01*
X39189831Y-77053488D01*
X39388649Y-76945893D01*
X39567046Y-76807040D01*
X39666832Y-76698643D01*
X39720149Y-76640727D01*
X39720149Y-76640726D01*
X39720156Y-76640719D01*
X39806193Y-76509028D01*
X39859338Y-76463675D01*
X39928569Y-76454251D01*
X39991905Y-76483753D01*
X40013804Y-76509025D01*
X40099844Y-76640719D01*
X40099849Y-76640724D01*
X40099850Y-76640727D01*
X40252950Y-76807036D01*
X40252954Y-76807040D01*
X40431351Y-76945893D01*
X40630169Y-77053488D01*
X40630172Y-77053489D01*
X40843982Y-77126890D01*
X40843984Y-77126890D01*
X40843986Y-77126891D01*
X41066967Y-77164100D01*
X41066968Y-77164100D01*
X41293032Y-77164100D01*
X41293033Y-77164100D01*
X41516014Y-77126891D01*
X41729831Y-77053488D01*
X41928649Y-76945893D01*
X42107046Y-76807040D01*
X42206832Y-76698643D01*
X42260149Y-76640727D01*
X42260149Y-76640726D01*
X42260156Y-76640719D01*
X42346193Y-76509028D01*
X42399338Y-76463675D01*
X42468569Y-76454251D01*
X42531905Y-76483753D01*
X42553804Y-76509025D01*
X42639844Y-76640719D01*
X42639849Y-76640724D01*
X42639850Y-76640727D01*
X42792950Y-76807036D01*
X42792954Y-76807040D01*
X42971351Y-76945893D01*
X43170169Y-77053488D01*
X43170172Y-77053489D01*
X43383982Y-77126890D01*
X43383984Y-77126890D01*
X43383986Y-77126891D01*
X43606967Y-77164100D01*
X43606968Y-77164100D01*
X43833032Y-77164100D01*
X43833033Y-77164100D01*
X44056014Y-77126891D01*
X44269831Y-77053488D01*
X44468649Y-76945893D01*
X44647046Y-76807040D01*
X44746832Y-76698643D01*
X44800149Y-76640727D01*
X44800149Y-76640726D01*
X44800156Y-76640719D01*
X44886193Y-76509028D01*
X44939338Y-76463675D01*
X45008569Y-76454251D01*
X45071905Y-76483753D01*
X45093804Y-76509025D01*
X45179844Y-76640719D01*
X45179849Y-76640724D01*
X45179850Y-76640727D01*
X45332950Y-76807036D01*
X45332954Y-76807040D01*
X45511351Y-76945893D01*
X45710169Y-77053488D01*
X45710172Y-77053489D01*
X45923982Y-77126890D01*
X45923984Y-77126890D01*
X45923986Y-77126891D01*
X46146967Y-77164100D01*
X46146968Y-77164100D01*
X46373032Y-77164100D01*
X46373033Y-77164100D01*
X46596014Y-77126891D01*
X46809831Y-77053488D01*
X47008649Y-76945893D01*
X47187046Y-76807040D01*
X47286832Y-76698643D01*
X47340149Y-76640727D01*
X47340151Y-76640724D01*
X47340156Y-76640719D01*
X47426193Y-76509029D01*
X47479336Y-76463675D01*
X47548567Y-76454251D01*
X47611903Y-76483753D01*
X47633807Y-76509031D01*
X47719842Y-76640716D01*
X47719850Y-76640727D01*
X47872950Y-76807036D01*
X47872954Y-76807040D01*
X48051351Y-76945893D01*
X48250169Y-77053488D01*
X48250172Y-77053489D01*
X48463982Y-77126890D01*
X48463984Y-77126890D01*
X48463986Y-77126891D01*
X48686967Y-77164100D01*
X48686968Y-77164100D01*
X48913032Y-77164100D01*
X48913033Y-77164100D01*
X49136014Y-77126891D01*
X49349831Y-77053488D01*
X49548649Y-76945893D01*
X49727046Y-76807040D01*
X49826832Y-76698643D01*
X49880149Y-76640727D01*
X49880149Y-76640726D01*
X49880156Y-76640719D01*
X49966193Y-76509028D01*
X50019338Y-76463675D01*
X50088569Y-76454251D01*
X50151905Y-76483753D01*
X50173804Y-76509025D01*
X50259844Y-76640719D01*
X50259849Y-76640724D01*
X50259850Y-76640727D01*
X50412950Y-76807036D01*
X50412954Y-76807040D01*
X50591351Y-76945893D01*
X50790169Y-77053488D01*
X50790172Y-77053489D01*
X51003982Y-77126890D01*
X51003984Y-77126890D01*
X51003986Y-77126891D01*
X51226967Y-77164100D01*
X51226968Y-77164100D01*
X51453032Y-77164100D01*
X51453033Y-77164100D01*
X51676014Y-77126891D01*
X51889831Y-77053488D01*
X52088649Y-76945893D01*
X52267046Y-76807040D01*
X52366832Y-76698643D01*
X52420149Y-76640727D01*
X52420149Y-76640726D01*
X52420156Y-76640719D01*
X52506193Y-76509028D01*
X52559338Y-76463675D01*
X52628569Y-76454251D01*
X52691905Y-76483753D01*
X52713804Y-76509025D01*
X52799844Y-76640719D01*
X52799849Y-76640724D01*
X52799850Y-76640727D01*
X52952950Y-76807036D01*
X52952954Y-76807040D01*
X53131351Y-76945893D01*
X53330169Y-77053488D01*
X53330172Y-77053489D01*
X53543982Y-77126890D01*
X53543984Y-77126890D01*
X53543986Y-77126891D01*
X53766967Y-77164100D01*
X53766968Y-77164100D01*
X53993032Y-77164100D01*
X53993033Y-77164100D01*
X54216014Y-77126891D01*
X54429831Y-77053488D01*
X54628649Y-76945893D01*
X54807046Y-76807040D01*
X54906832Y-76698643D01*
X54960149Y-76640727D01*
X54960149Y-76640726D01*
X54960156Y-76640719D01*
X55046193Y-76509028D01*
X55099338Y-76463675D01*
X55168569Y-76454251D01*
X55231905Y-76483753D01*
X55253804Y-76509025D01*
X55339844Y-76640719D01*
X55339849Y-76640724D01*
X55339850Y-76640727D01*
X55492950Y-76807036D01*
X55492954Y-76807040D01*
X55671351Y-76945893D01*
X55870169Y-77053488D01*
X55870172Y-77053489D01*
X56083982Y-77126890D01*
X56083984Y-77126890D01*
X56083986Y-77126891D01*
X56306967Y-77164100D01*
X56306968Y-77164100D01*
X56533032Y-77164100D01*
X56533033Y-77164100D01*
X56756014Y-77126891D01*
X56969831Y-77053488D01*
X57168649Y-76945893D01*
X57347046Y-76807040D01*
X57446832Y-76698643D01*
X57500149Y-76640727D01*
X57500151Y-76640724D01*
X57500156Y-76640719D01*
X57623802Y-76451465D01*
X57714611Y-76244441D01*
X57770107Y-76025293D01*
X57788775Y-75800006D01*
X60131225Y-75800006D01*
X60149892Y-76025289D01*
X60205388Y-76244439D01*
X60296198Y-76451466D01*
X60419842Y-76640716D01*
X60419850Y-76640727D01*
X60572950Y-76807036D01*
X60572954Y-76807040D01*
X60751351Y-76945893D01*
X60950169Y-77053488D01*
X60950172Y-77053489D01*
X61163982Y-77126890D01*
X61163984Y-77126890D01*
X61163986Y-77126891D01*
X61386967Y-77164100D01*
X61386968Y-77164100D01*
X61613032Y-77164100D01*
X61613033Y-77164100D01*
X61836014Y-77126891D01*
X62049831Y-77053488D01*
X62248649Y-76945893D01*
X62427046Y-76807040D01*
X62526832Y-76698643D01*
X62580149Y-76640727D01*
X62580149Y-76640726D01*
X62580156Y-76640719D01*
X62666193Y-76509028D01*
X62719338Y-76463675D01*
X62788569Y-76454251D01*
X62851905Y-76483753D01*
X62873804Y-76509025D01*
X62959844Y-76640719D01*
X62959849Y-76640724D01*
X62959850Y-76640727D01*
X63112950Y-76807036D01*
X63112954Y-76807040D01*
X63291351Y-76945893D01*
X63490169Y-77053488D01*
X63490172Y-77053489D01*
X63703982Y-77126890D01*
X63703984Y-77126890D01*
X63703986Y-77126891D01*
X63926967Y-77164100D01*
X63926968Y-77164100D01*
X64153032Y-77164100D01*
X64153033Y-77164100D01*
X64376014Y-77126891D01*
X64589831Y-77053488D01*
X64788649Y-76945893D01*
X64967046Y-76807040D01*
X65066832Y-76698643D01*
X65120149Y-76640727D01*
X65120149Y-76640726D01*
X65120156Y-76640719D01*
X65206193Y-76509028D01*
X65259338Y-76463675D01*
X65328569Y-76454251D01*
X65391905Y-76483753D01*
X65413804Y-76509025D01*
X65499844Y-76640719D01*
X65499849Y-76640724D01*
X65499850Y-76640727D01*
X65652950Y-76807036D01*
X65652954Y-76807040D01*
X65831351Y-76945893D01*
X66030169Y-77053488D01*
X66030172Y-77053489D01*
X66243982Y-77126890D01*
X66243984Y-77126890D01*
X66243986Y-77126891D01*
X66466967Y-77164100D01*
X66466968Y-77164100D01*
X66693032Y-77164100D01*
X66693033Y-77164100D01*
X66916014Y-77126891D01*
X67129831Y-77053488D01*
X67328649Y-76945893D01*
X67507046Y-76807040D01*
X67606832Y-76698643D01*
X67660149Y-76640727D01*
X67660149Y-76640726D01*
X67660156Y-76640719D01*
X67746193Y-76509028D01*
X67799338Y-76463675D01*
X67868569Y-76454251D01*
X67931905Y-76483753D01*
X67953804Y-76509025D01*
X68039844Y-76640719D01*
X68039849Y-76640724D01*
X68039850Y-76640727D01*
X68192950Y-76807036D01*
X68192954Y-76807040D01*
X68371351Y-76945893D01*
X68570169Y-77053488D01*
X68570172Y-77053489D01*
X68783982Y-77126890D01*
X68783984Y-77126890D01*
X68783986Y-77126891D01*
X69006967Y-77164100D01*
X69006968Y-77164100D01*
X69233032Y-77164100D01*
X69233033Y-77164100D01*
X69456014Y-77126891D01*
X69669831Y-77053488D01*
X69868649Y-76945893D01*
X70047046Y-76807040D01*
X70146832Y-76698643D01*
X70200149Y-76640727D01*
X70200149Y-76640726D01*
X70200156Y-76640719D01*
X70286193Y-76509028D01*
X70339338Y-76463675D01*
X70408569Y-76454251D01*
X70471905Y-76483753D01*
X70493804Y-76509025D01*
X70579844Y-76640719D01*
X70579849Y-76640724D01*
X70579850Y-76640727D01*
X70732950Y-76807036D01*
X70732954Y-76807040D01*
X70911351Y-76945893D01*
X71110169Y-77053488D01*
X71110172Y-77053489D01*
X71323982Y-77126890D01*
X71323984Y-77126890D01*
X71323986Y-77126891D01*
X71546967Y-77164100D01*
X71546968Y-77164100D01*
X71773032Y-77164100D01*
X71773033Y-77164100D01*
X71996014Y-77126891D01*
X72209831Y-77053488D01*
X72408649Y-76945893D01*
X72587046Y-76807040D01*
X72686832Y-76698643D01*
X72740149Y-76640727D01*
X72740149Y-76640726D01*
X72740156Y-76640719D01*
X72826193Y-76509028D01*
X72879338Y-76463675D01*
X72948569Y-76454251D01*
X73011905Y-76483753D01*
X73033804Y-76509025D01*
X73119844Y-76640719D01*
X73119849Y-76640724D01*
X73119850Y-76640727D01*
X73272950Y-76807036D01*
X73272954Y-76807040D01*
X73451351Y-76945893D01*
X73650169Y-77053488D01*
X73650172Y-77053489D01*
X73863982Y-77126890D01*
X73863984Y-77126890D01*
X73863986Y-77126891D01*
X74086967Y-77164100D01*
X74086968Y-77164100D01*
X74313032Y-77164100D01*
X74313033Y-77164100D01*
X74536014Y-77126891D01*
X74749831Y-77053488D01*
X74948649Y-76945893D01*
X75127046Y-76807040D01*
X75226832Y-76698643D01*
X75280149Y-76640727D01*
X75280149Y-76640726D01*
X75280156Y-76640719D01*
X75366193Y-76509028D01*
X75419338Y-76463675D01*
X75488569Y-76454251D01*
X75551905Y-76483753D01*
X75573804Y-76509025D01*
X75659844Y-76640719D01*
X75659849Y-76640724D01*
X75659850Y-76640727D01*
X75812950Y-76807036D01*
X75812954Y-76807040D01*
X75991351Y-76945893D01*
X76190169Y-77053488D01*
X76190172Y-77053489D01*
X76403982Y-77126890D01*
X76403984Y-77126890D01*
X76403986Y-77126891D01*
X76626967Y-77164100D01*
X76626968Y-77164100D01*
X76853032Y-77164100D01*
X76853033Y-77164100D01*
X77076014Y-77126891D01*
X77289831Y-77053488D01*
X77488649Y-76945893D01*
X77667046Y-76807040D01*
X77766832Y-76698643D01*
X77820149Y-76640727D01*
X77820149Y-76640726D01*
X77820156Y-76640719D01*
X77906193Y-76509028D01*
X77959338Y-76463675D01*
X78028569Y-76454251D01*
X78091905Y-76483753D01*
X78113804Y-76509025D01*
X78199844Y-76640719D01*
X78199849Y-76640724D01*
X78199850Y-76640727D01*
X78352950Y-76807036D01*
X78352954Y-76807040D01*
X78531351Y-76945893D01*
X78730169Y-77053488D01*
X78730172Y-77053489D01*
X78943982Y-77126890D01*
X78943984Y-77126890D01*
X78943986Y-77126891D01*
X79166967Y-77164100D01*
X79166968Y-77164100D01*
X79393032Y-77164100D01*
X79393033Y-77164100D01*
X79616014Y-77126891D01*
X79829831Y-77053488D01*
X80028649Y-76945893D01*
X80207046Y-76807040D01*
X80306832Y-76698643D01*
X80360149Y-76640727D01*
X80360151Y-76640724D01*
X80360156Y-76640719D01*
X80483802Y-76451465D01*
X80574611Y-76244441D01*
X80630107Y-76025293D01*
X80648775Y-75800000D01*
X80648775Y-75799993D01*
X80630107Y-75574710D01*
X80630107Y-75574707D01*
X80574611Y-75355559D01*
X80483802Y-75148535D01*
X80360156Y-74959281D01*
X80360153Y-74959278D01*
X80360149Y-74959272D01*
X80207049Y-74792963D01*
X80207048Y-74792962D01*
X80207046Y-74792960D01*
X80028649Y-74654107D01*
X80028647Y-74654106D01*
X80028646Y-74654105D01*
X80028643Y-74654103D01*
X79970481Y-74622627D01*
X79920891Y-74573407D01*
X79905500Y-74513573D01*
X79905500Y-69362742D01*
X79907224Y-69347122D01*
X79906939Y-69347096D01*
X79907671Y-69339340D01*
X79907673Y-69339333D01*
X79905500Y-69270185D01*
X79905500Y-69240650D01*
X79904631Y-69233772D01*
X79904172Y-69227943D01*
X79902709Y-69181372D01*
X79897122Y-69162144D01*
X79893174Y-69143084D01*
X79890663Y-69123204D01*
X79873512Y-69079887D01*
X79871619Y-69074358D01*
X79858618Y-69029609D01*
X79858616Y-69029606D01*
X79848423Y-69012371D01*
X79839861Y-68994894D01*
X79832487Y-68976270D01*
X79832486Y-68976268D01*
X79805079Y-68938545D01*
X79801888Y-68933686D01*
X79778172Y-68893583D01*
X79778165Y-68893574D01*
X79764006Y-68879415D01*
X79751368Y-68864619D01*
X79750739Y-68863753D01*
X79739594Y-68848413D01*
X79719108Y-68831466D01*
X79703688Y-68818709D01*
X79699376Y-68814786D01*
X72379888Y-61495297D01*
X72346403Y-61433974D01*
X72351387Y-61364282D01*
X72393259Y-61308349D01*
X72416049Y-61294826D01*
X72552753Y-61232396D01*
X72723952Y-61110486D01*
X72839412Y-60989395D01*
X72868986Y-60958378D01*
X72895540Y-60917059D01*
X72948343Y-60871303D01*
X73017502Y-60861359D01*
X73081058Y-60890383D01*
X73097326Y-60907444D01*
X73199909Y-61037887D01*
X73358746Y-61175521D01*
X73540750Y-61280601D01*
X73540752Y-61280601D01*
X73540756Y-61280604D01*
X73739367Y-61349344D01*
X73947398Y-61379254D01*
X74157330Y-61369254D01*
X74353084Y-61321764D01*
X74422872Y-61325089D01*
X74469997Y-61354588D01*
X74699197Y-61583788D01*
X74709022Y-61596051D01*
X74709243Y-61595869D01*
X74714214Y-61601878D01*
X74735043Y-61621437D01*
X74764635Y-61649226D01*
X74785529Y-61670120D01*
X74791011Y-61674373D01*
X74795443Y-61678157D01*
X74829418Y-61710062D01*
X74846976Y-61719714D01*
X74863235Y-61730395D01*
X74879064Y-61742673D01*
X74921838Y-61761182D01*
X74927056Y-61763738D01*
X74967908Y-61786197D01*
X74987316Y-61791180D01*
X75005717Y-61797480D01*
X75024104Y-61805437D01*
X75067488Y-61812308D01*
X75070119Y-61812725D01*
X75075839Y-61813909D01*
X75120981Y-61825500D01*
X75141016Y-61825500D01*
X75160414Y-61827026D01*
X75180194Y-61830159D01*
X75180195Y-61830160D01*
X75180195Y-61830159D01*
X75180196Y-61830160D01*
X75226583Y-61825775D01*
X75232422Y-61825500D01*
X87717257Y-61825500D01*
X87732877Y-61827224D01*
X87732904Y-61826939D01*
X87740660Y-61827671D01*
X87740667Y-61827673D01*
X87809814Y-61825500D01*
X87839350Y-61825500D01*
X87846228Y-61824630D01*
X87852041Y-61824172D01*
X87898627Y-61822709D01*
X87917869Y-61817117D01*
X87936912Y-61813174D01*
X87956792Y-61810664D01*
X88000122Y-61793507D01*
X88005646Y-61791617D01*
X88009396Y-61790527D01*
X88050390Y-61778618D01*
X88067629Y-61768422D01*
X88085103Y-61759862D01*
X88103727Y-61752488D01*
X88103727Y-61752487D01*
X88103732Y-61752486D01*
X88141449Y-61725082D01*
X88146305Y-61721892D01*
X88186420Y-61698170D01*
X88186420Y-61698169D01*
X88187382Y-61697601D01*
X88255107Y-61680421D01*
X88321368Y-61702582D01*
X88365130Y-61757049D01*
X88374500Y-61804335D01*
X88374500Y-68673255D01*
X88372775Y-68688872D01*
X88373061Y-68688899D01*
X88372326Y-68696665D01*
X88374500Y-68765814D01*
X88374500Y-68795343D01*
X88374501Y-68795360D01*
X88375368Y-68802231D01*
X88375826Y-68808050D01*
X88377290Y-68854624D01*
X88377291Y-68854627D01*
X88382880Y-68873867D01*
X88386824Y-68892911D01*
X88389336Y-68912792D01*
X88398605Y-68936203D01*
X88406490Y-68956119D01*
X88408382Y-68961647D01*
X88421381Y-69006388D01*
X88431580Y-69023634D01*
X88440138Y-69041103D01*
X88447514Y-69059732D01*
X88474898Y-69097423D01*
X88478106Y-69102307D01*
X88501827Y-69142416D01*
X88501833Y-69142424D01*
X88515990Y-69156580D01*
X88528628Y-69171376D01*
X88540405Y-69187586D01*
X88540406Y-69187587D01*
X88576309Y-69217288D01*
X88580620Y-69221210D01*
X92394116Y-73034707D01*
X93583628Y-74224219D01*
X93617113Y-74285542D01*
X93612129Y-74355234D01*
X93570257Y-74411167D01*
X93504793Y-74435584D01*
X93495947Y-74435900D01*
X93390967Y-74435900D01*
X93346370Y-74443341D01*
X93167982Y-74473109D01*
X92954172Y-74546510D01*
X92954167Y-74546512D01*
X92755352Y-74654106D01*
X92576955Y-74792959D01*
X92576950Y-74792963D01*
X92423850Y-74959272D01*
X92423842Y-74959283D01*
X92337808Y-75090968D01*
X92284662Y-75136325D01*
X92215430Y-75145748D01*
X92152095Y-75116246D01*
X92130192Y-75090968D01*
X92044157Y-74959283D01*
X92044149Y-74959272D01*
X91891049Y-74792963D01*
X91891048Y-74792962D01*
X91891046Y-74792960D01*
X91712649Y-74654107D01*
X91636910Y-74613119D01*
X91513832Y-74546512D01*
X91513827Y-74546510D01*
X91300017Y-74473109D01*
X91132778Y-74445202D01*
X91077033Y-74435900D01*
X90850967Y-74435900D01*
X90806370Y-74443341D01*
X90627982Y-74473109D01*
X90414172Y-74546510D01*
X90414167Y-74546512D01*
X90215352Y-74654106D01*
X90036955Y-74792959D01*
X90036950Y-74792963D01*
X89883850Y-74959272D01*
X89883842Y-74959283D01*
X89797808Y-75090968D01*
X89744662Y-75136325D01*
X89675430Y-75145748D01*
X89612095Y-75116246D01*
X89590192Y-75090968D01*
X89504157Y-74959283D01*
X89504149Y-74959272D01*
X89351049Y-74792963D01*
X89351048Y-74792962D01*
X89351046Y-74792960D01*
X89172649Y-74654107D01*
X89096910Y-74613119D01*
X88973832Y-74546512D01*
X88973827Y-74546510D01*
X88760017Y-74473109D01*
X88592778Y-74445202D01*
X88537033Y-74435900D01*
X88310967Y-74435900D01*
X88266370Y-74443341D01*
X88087982Y-74473109D01*
X87874172Y-74546510D01*
X87874167Y-74546512D01*
X87675352Y-74654106D01*
X87496955Y-74792959D01*
X87496950Y-74792963D01*
X87343850Y-74959272D01*
X87343842Y-74959283D01*
X87257808Y-75090968D01*
X87204662Y-75136325D01*
X87135430Y-75145748D01*
X87072095Y-75116246D01*
X87050192Y-75090968D01*
X86964157Y-74959283D01*
X86964149Y-74959272D01*
X86811049Y-74792963D01*
X86811048Y-74792962D01*
X86811046Y-74792960D01*
X86632649Y-74654107D01*
X86556910Y-74613119D01*
X86433832Y-74546512D01*
X86433827Y-74546510D01*
X86220017Y-74473109D01*
X86052778Y-74445202D01*
X85997033Y-74435900D01*
X85770967Y-74435900D01*
X85726370Y-74443341D01*
X85547982Y-74473109D01*
X85334172Y-74546510D01*
X85334167Y-74546512D01*
X85135352Y-74654106D01*
X84956955Y-74792959D01*
X84956950Y-74792963D01*
X84803850Y-74959272D01*
X84803842Y-74959283D01*
X84717808Y-75090968D01*
X84664662Y-75136325D01*
X84595430Y-75145748D01*
X84532095Y-75116246D01*
X84510192Y-75090968D01*
X84424157Y-74959283D01*
X84424149Y-74959272D01*
X84271049Y-74792963D01*
X84271048Y-74792962D01*
X84271046Y-74792960D01*
X84092649Y-74654107D01*
X84016910Y-74613119D01*
X83893832Y-74546512D01*
X83893827Y-74546510D01*
X83680017Y-74473109D01*
X83512778Y-74445202D01*
X83457033Y-74435900D01*
X83230967Y-74435900D01*
X83186370Y-74443341D01*
X83007982Y-74473109D01*
X82794172Y-74546510D01*
X82794167Y-74546512D01*
X82595352Y-74654106D01*
X82416955Y-74792959D01*
X82416950Y-74792963D01*
X82263850Y-74959272D01*
X82263842Y-74959283D01*
X82140198Y-75148533D01*
X82049388Y-75355560D01*
X81993892Y-75574710D01*
X81975225Y-75799993D01*
X81975225Y-75800006D01*
X81993892Y-76025289D01*
X82049388Y-76244439D01*
X82140198Y-76451466D01*
X82263842Y-76640716D01*
X82263850Y-76640727D01*
X82416950Y-76807036D01*
X82416954Y-76807040D01*
X82595351Y-76945893D01*
X82794169Y-77053488D01*
X82794172Y-77053489D01*
X83007982Y-77126890D01*
X83007984Y-77126890D01*
X83007986Y-77126891D01*
X83230967Y-77164100D01*
X83230968Y-77164100D01*
X83457032Y-77164100D01*
X83457033Y-77164100D01*
X83680014Y-77126891D01*
X83893831Y-77053488D01*
X84092649Y-76945893D01*
X84271046Y-76807040D01*
X84370832Y-76698643D01*
X84424149Y-76640727D01*
X84424149Y-76640726D01*
X84424156Y-76640719D01*
X84510193Y-76509028D01*
X84563338Y-76463675D01*
X84632569Y-76454251D01*
X84695905Y-76483753D01*
X84717804Y-76509025D01*
X84803844Y-76640719D01*
X84803849Y-76640724D01*
X84803850Y-76640727D01*
X84956950Y-76807036D01*
X84956954Y-76807040D01*
X85135351Y-76945893D01*
X85334169Y-77053488D01*
X85334172Y-77053489D01*
X85547982Y-77126890D01*
X85547984Y-77126890D01*
X85547986Y-77126891D01*
X85770967Y-77164100D01*
X85770968Y-77164100D01*
X85997032Y-77164100D01*
X85997033Y-77164100D01*
X86220014Y-77126891D01*
X86433831Y-77053488D01*
X86632649Y-76945893D01*
X86811046Y-76807040D01*
X86910832Y-76698643D01*
X86964149Y-76640727D01*
X86964149Y-76640726D01*
X86964156Y-76640719D01*
X87050193Y-76509028D01*
X87103338Y-76463675D01*
X87172569Y-76454251D01*
X87235905Y-76483753D01*
X87257804Y-76509025D01*
X87343844Y-76640719D01*
X87343849Y-76640724D01*
X87343850Y-76640727D01*
X87496950Y-76807036D01*
X87496954Y-76807040D01*
X87675351Y-76945893D01*
X87874169Y-77053488D01*
X87874172Y-77053489D01*
X88087982Y-77126890D01*
X88087984Y-77126890D01*
X88087986Y-77126891D01*
X88310967Y-77164100D01*
X88310968Y-77164100D01*
X88537032Y-77164100D01*
X88537033Y-77164100D01*
X88760014Y-77126891D01*
X88973831Y-77053488D01*
X89172649Y-76945893D01*
X89351046Y-76807040D01*
X89450832Y-76698643D01*
X89504149Y-76640727D01*
X89504149Y-76640726D01*
X89504156Y-76640719D01*
X89590193Y-76509028D01*
X89643338Y-76463675D01*
X89712569Y-76454251D01*
X89775905Y-76483753D01*
X89797804Y-76509025D01*
X89883844Y-76640719D01*
X89883849Y-76640724D01*
X89883850Y-76640727D01*
X90036950Y-76807036D01*
X90036954Y-76807040D01*
X90215351Y-76945893D01*
X90414169Y-77053488D01*
X90414172Y-77053489D01*
X90627982Y-77126890D01*
X90627984Y-77126890D01*
X90627986Y-77126891D01*
X90850967Y-77164100D01*
X90850968Y-77164100D01*
X91077032Y-77164100D01*
X91077033Y-77164100D01*
X91300014Y-77126891D01*
X91513831Y-77053488D01*
X91712649Y-76945893D01*
X91891046Y-76807040D01*
X91990832Y-76698643D01*
X92044149Y-76640727D01*
X92044149Y-76640726D01*
X92044156Y-76640719D01*
X92130193Y-76509028D01*
X92183338Y-76463675D01*
X92252569Y-76454251D01*
X92315905Y-76483753D01*
X92337804Y-76509025D01*
X92423844Y-76640719D01*
X92423849Y-76640724D01*
X92423850Y-76640727D01*
X92576950Y-76807036D01*
X92576954Y-76807040D01*
X92755351Y-76945893D01*
X92954169Y-77053488D01*
X92954172Y-77053489D01*
X93167982Y-77126890D01*
X93167984Y-77126890D01*
X93167986Y-77126891D01*
X93390967Y-77164100D01*
X93390968Y-77164100D01*
X93617032Y-77164100D01*
X93617033Y-77164100D01*
X93840014Y-77126891D01*
X94053831Y-77053488D01*
X94252649Y-76945893D01*
X94431046Y-76807040D01*
X94530832Y-76698643D01*
X94584149Y-76640727D01*
X94584149Y-76640726D01*
X94584156Y-76640719D01*
X94670193Y-76509028D01*
X94723338Y-76463675D01*
X94792569Y-76454251D01*
X94855905Y-76483753D01*
X94877804Y-76509025D01*
X94963844Y-76640719D01*
X94963849Y-76640724D01*
X94963850Y-76640727D01*
X95116950Y-76807036D01*
X95116954Y-76807040D01*
X95295351Y-76945893D01*
X95494169Y-77053488D01*
X95494172Y-77053489D01*
X95707982Y-77126890D01*
X95707984Y-77126890D01*
X95707986Y-77126891D01*
X95930967Y-77164100D01*
X95930968Y-77164100D01*
X96157032Y-77164100D01*
X96157033Y-77164100D01*
X96380014Y-77126891D01*
X96593831Y-77053488D01*
X96792649Y-76945893D01*
X96971046Y-76807040D01*
X97070832Y-76698643D01*
X97124149Y-76640727D01*
X97124151Y-76640724D01*
X97124156Y-76640719D01*
X97247802Y-76451465D01*
X97338611Y-76244441D01*
X97394107Y-76025293D01*
X97412775Y-75800006D01*
X99755225Y-75800006D01*
X99773892Y-76025289D01*
X99829388Y-76244439D01*
X99920198Y-76451466D01*
X100043842Y-76640716D01*
X100043850Y-76640727D01*
X100196950Y-76807036D01*
X100196954Y-76807040D01*
X100375351Y-76945893D01*
X100574169Y-77053488D01*
X100574172Y-77053489D01*
X100787982Y-77126890D01*
X100787984Y-77126890D01*
X100787986Y-77126891D01*
X101010967Y-77164100D01*
X101010968Y-77164100D01*
X101237032Y-77164100D01*
X101237033Y-77164100D01*
X101460014Y-77126891D01*
X101673831Y-77053488D01*
X101872649Y-76945893D01*
X102051046Y-76807040D01*
X102150832Y-76698643D01*
X102204149Y-76640727D01*
X102204149Y-76640726D01*
X102204156Y-76640719D01*
X102290193Y-76509028D01*
X102343338Y-76463675D01*
X102412569Y-76454251D01*
X102475905Y-76483753D01*
X102497804Y-76509025D01*
X102583844Y-76640719D01*
X102583849Y-76640724D01*
X102583850Y-76640727D01*
X102736950Y-76807036D01*
X102736954Y-76807040D01*
X102915351Y-76945893D01*
X103114169Y-77053488D01*
X103114172Y-77053489D01*
X103327982Y-77126890D01*
X103327984Y-77126890D01*
X103327986Y-77126891D01*
X103550967Y-77164100D01*
X103550968Y-77164100D01*
X103777032Y-77164100D01*
X103777033Y-77164100D01*
X104000014Y-77126891D01*
X104213831Y-77053488D01*
X104412649Y-76945893D01*
X104591046Y-76807040D01*
X104690832Y-76698643D01*
X104744149Y-76640727D01*
X104744149Y-76640726D01*
X104744156Y-76640719D01*
X104830193Y-76509028D01*
X104883338Y-76463675D01*
X104952569Y-76454251D01*
X105015905Y-76483753D01*
X105037804Y-76509025D01*
X105123844Y-76640719D01*
X105123849Y-76640724D01*
X105123850Y-76640727D01*
X105276950Y-76807036D01*
X105276954Y-76807040D01*
X105455351Y-76945893D01*
X105654169Y-77053488D01*
X105654172Y-77053489D01*
X105867982Y-77126890D01*
X105867984Y-77126890D01*
X105867986Y-77126891D01*
X106090967Y-77164100D01*
X106090968Y-77164100D01*
X106317032Y-77164100D01*
X106317033Y-77164100D01*
X106540014Y-77126891D01*
X106753831Y-77053488D01*
X106952649Y-76945893D01*
X107131046Y-76807040D01*
X107230832Y-76698643D01*
X107284149Y-76640727D01*
X107284151Y-76640724D01*
X107284156Y-76640719D01*
X107407802Y-76451465D01*
X107498611Y-76244441D01*
X107554107Y-76025293D01*
X107567160Y-75867763D01*
X107905787Y-75867763D01*
X107935413Y-76137013D01*
X107935415Y-76137024D01*
X107978166Y-76300548D01*
X108003928Y-76399088D01*
X108109870Y-76648390D01*
X108234200Y-76852111D01*
X108250979Y-76879605D01*
X108250986Y-76879615D01*
X108424253Y-77087819D01*
X108424259Y-77087824D01*
X108625998Y-77268582D01*
X108851910Y-77418044D01*
X109097176Y-77533020D01*
X109097183Y-77533022D01*
X109097185Y-77533023D01*
X109356557Y-77611057D01*
X109356564Y-77611058D01*
X109356569Y-77611060D01*
X109624561Y-77650500D01*
X109624566Y-77650500D01*
X109827636Y-77650500D01*
X109879133Y-77646730D01*
X110030156Y-77635677D01*
X110142758Y-77610593D01*
X110294546Y-77576782D01*
X110294548Y-77576781D01*
X110294553Y-77576780D01*
X110547558Y-77480014D01*
X110783777Y-77347441D01*
X110998177Y-77181888D01*
X111186186Y-76986881D01*
X111343799Y-76766579D01*
X111417787Y-76622669D01*
X111467649Y-76525690D01*
X111467651Y-76525684D01*
X111467656Y-76525675D01*
X111555118Y-76269305D01*
X111604319Y-76002933D01*
X111614212Y-75732235D01*
X111584586Y-75462982D01*
X111516072Y-75200912D01*
X111410130Y-74951610D01*
X111269018Y-74720390D01*
X111213857Y-74654107D01*
X111095746Y-74512180D01*
X111095740Y-74512175D01*
X110894002Y-74331418D01*
X110668092Y-74181957D01*
X110668090Y-74181956D01*
X110422824Y-74066980D01*
X110422819Y-74066978D01*
X110422814Y-74066976D01*
X110163442Y-73988942D01*
X110163428Y-73988939D01*
X110047791Y-73971921D01*
X109895439Y-73949500D01*
X109692369Y-73949500D01*
X109692364Y-73949500D01*
X109489844Y-73964323D01*
X109489831Y-73964325D01*
X109225453Y-74023217D01*
X109225446Y-74023220D01*
X108972439Y-74119987D01*
X108736226Y-74252557D01*
X108736224Y-74252558D01*
X108736223Y-74252559D01*
X108693508Y-74285542D01*
X108521822Y-74418112D01*
X108333822Y-74613109D01*
X108333816Y-74613116D01*
X108176202Y-74833419D01*
X108176199Y-74833424D01*
X108052350Y-75074309D01*
X108052343Y-75074327D01*
X107964884Y-75330685D01*
X107964881Y-75330699D01*
X107915681Y-75597068D01*
X107915680Y-75597075D01*
X107905787Y-75867763D01*
X107567160Y-75867763D01*
X107572775Y-75800000D01*
X107554107Y-75574707D01*
X107498611Y-75355559D01*
X107407802Y-75148535D01*
X107284156Y-74959281D01*
X107284153Y-74959278D01*
X107284149Y-74959272D01*
X107131049Y-74792963D01*
X107131048Y-74792962D01*
X107131046Y-74792960D01*
X106952649Y-74654107D01*
X106876910Y-74613119D01*
X106753832Y-74546512D01*
X106753827Y-74546510D01*
X106540017Y-74473109D01*
X106372778Y-74445202D01*
X106317033Y-74435900D01*
X106090967Y-74435900D01*
X106046370Y-74443341D01*
X105867982Y-74473109D01*
X105654172Y-74546510D01*
X105654167Y-74546512D01*
X105455352Y-74654106D01*
X105276955Y-74792959D01*
X105276950Y-74792963D01*
X105123850Y-74959272D01*
X105123842Y-74959283D01*
X105037808Y-75090968D01*
X104984662Y-75136325D01*
X104915430Y-75145748D01*
X104852095Y-75116246D01*
X104830192Y-75090968D01*
X104744157Y-74959283D01*
X104744149Y-74959272D01*
X104591049Y-74792963D01*
X104591048Y-74792962D01*
X104591046Y-74792960D01*
X104412649Y-74654107D01*
X104336910Y-74613119D01*
X104213832Y-74546512D01*
X104213827Y-74546510D01*
X104000017Y-74473109D01*
X103832778Y-74445202D01*
X103777033Y-74435900D01*
X103550967Y-74435900D01*
X103506370Y-74443341D01*
X103327982Y-74473109D01*
X103114172Y-74546510D01*
X103114167Y-74546512D01*
X102915352Y-74654106D01*
X102736955Y-74792959D01*
X102736950Y-74792963D01*
X102583850Y-74959272D01*
X102583842Y-74959283D01*
X102497808Y-75090968D01*
X102444662Y-75136325D01*
X102375430Y-75145748D01*
X102312095Y-75116246D01*
X102290192Y-75090968D01*
X102204157Y-74959283D01*
X102204149Y-74959272D01*
X102051049Y-74792963D01*
X102051048Y-74792962D01*
X102051046Y-74792960D01*
X101872649Y-74654107D01*
X101796910Y-74613119D01*
X101673832Y-74546512D01*
X101673827Y-74546510D01*
X101460017Y-74473109D01*
X101292778Y-74445202D01*
X101237033Y-74435900D01*
X101010967Y-74435900D01*
X100966370Y-74443341D01*
X100787982Y-74473109D01*
X100574172Y-74546510D01*
X100574167Y-74546512D01*
X100375352Y-74654106D01*
X100196955Y-74792959D01*
X100196950Y-74792963D01*
X100043850Y-74959272D01*
X100043842Y-74959283D01*
X99920198Y-75148533D01*
X99829388Y-75355560D01*
X99773892Y-75574710D01*
X99755225Y-75799993D01*
X99755225Y-75800006D01*
X97412775Y-75800006D01*
X97412775Y-75800000D01*
X97394107Y-75574707D01*
X97338611Y-75355559D01*
X97247802Y-75148535D01*
X97124156Y-74959281D01*
X97124153Y-74959278D01*
X97124149Y-74959272D01*
X96971049Y-74792963D01*
X96971048Y-74792962D01*
X96971046Y-74792960D01*
X96792649Y-74654107D01*
X96716910Y-74613119D01*
X96593832Y-74546512D01*
X96593827Y-74546510D01*
X96380017Y-74473109D01*
X96212778Y-74445202D01*
X96157033Y-74435900D01*
X95930967Y-74435900D01*
X95886370Y-74443341D01*
X95707982Y-74473109D01*
X95702067Y-74475140D01*
X95632268Y-74478286D01*
X95574129Y-74445538D01*
X89661819Y-68533228D01*
X89628334Y-68471905D01*
X89625500Y-68445547D01*
X89625500Y-61244519D01*
X89645185Y-61177480D01*
X89677572Y-61143512D01*
X89723952Y-61110486D01*
X89839412Y-60989395D01*
X89868986Y-60958378D01*
X89895540Y-60917059D01*
X89948343Y-60871303D01*
X90017502Y-60861359D01*
X90081058Y-60890383D01*
X90097326Y-60907444D01*
X90199909Y-61037887D01*
X90358746Y-61175521D01*
X90540750Y-61280601D01*
X90540752Y-61280601D01*
X90540756Y-61280604D01*
X90739367Y-61349344D01*
X90947398Y-61379254D01*
X91157330Y-61369254D01*
X91361576Y-61319704D01*
X91493772Y-61259332D01*
X91552743Y-61232401D01*
X91552746Y-61232399D01*
X91552753Y-61232396D01*
X91723952Y-61110486D01*
X91839412Y-60989395D01*
X91868985Y-60958379D01*
X91908416Y-60897024D01*
X91982613Y-60781572D01*
X92060725Y-60586457D01*
X92100500Y-60380085D01*
X92100500Y-59672575D01*
X92085528Y-59515782D01*
X92026316Y-59314125D01*
X91930011Y-59127318D01*
X91930009Y-59127316D01*
X91930008Y-59127313D01*
X91800094Y-58962116D01*
X91800090Y-58962112D01*
X91641253Y-58824478D01*
X91459249Y-58719398D01*
X91459245Y-58719396D01*
X91459244Y-58719396D01*
X91260633Y-58650656D01*
X91052602Y-58620746D01*
X91052598Y-58620746D01*
X90842672Y-58630745D01*
X90638421Y-58680296D01*
X90638417Y-58680298D01*
X90447256Y-58767598D01*
X90447251Y-58767601D01*
X90276046Y-58889515D01*
X90276040Y-58889520D01*
X90131016Y-59041618D01*
X90104458Y-59082943D01*
X90051653Y-59128697D01*
X89982494Y-59138640D01*
X89918939Y-59109614D01*
X89902673Y-59092554D01*
X89800094Y-58962116D01*
X89800090Y-58962112D01*
X89641253Y-58824478D01*
X89459249Y-58719398D01*
X89459245Y-58719396D01*
X89459244Y-58719396D01*
X89260633Y-58650656D01*
X89052602Y-58620746D01*
X89052598Y-58620746D01*
X88842672Y-58630745D01*
X88638421Y-58680296D01*
X88638417Y-58680298D01*
X88447256Y-58767598D01*
X88447251Y-58767601D01*
X88276046Y-58889515D01*
X88276040Y-58889520D01*
X88131016Y-59041618D01*
X88104458Y-59082943D01*
X88051653Y-59128697D01*
X87982494Y-59138640D01*
X87918939Y-59109614D01*
X87902673Y-59092554D01*
X87800094Y-58962116D01*
X87800090Y-58962112D01*
X87641253Y-58824478D01*
X87459249Y-58719398D01*
X87459245Y-58719396D01*
X87459244Y-58719396D01*
X87260633Y-58650656D01*
X87052602Y-58620746D01*
X87052598Y-58620746D01*
X86842672Y-58630745D01*
X86646917Y-58678235D01*
X86577126Y-58674910D01*
X86530002Y-58645411D01*
X86300803Y-58416212D01*
X86290980Y-58403950D01*
X86290759Y-58404134D01*
X86285786Y-58398123D01*
X86267159Y-58380631D01*
X86235364Y-58350773D01*
X86224919Y-58340328D01*
X86214475Y-58329883D01*
X86208986Y-58325625D01*
X86204561Y-58321847D01*
X86170582Y-58289938D01*
X86170580Y-58289936D01*
X86170577Y-58289935D01*
X86153029Y-58280288D01*
X86136763Y-58269604D01*
X86120933Y-58257325D01*
X86078168Y-58238818D01*
X86072922Y-58236248D01*
X86032093Y-58213803D01*
X86032092Y-58213802D01*
X86012693Y-58208822D01*
X85994281Y-58202518D01*
X85975898Y-58194562D01*
X85975892Y-58194560D01*
X85929874Y-58187272D01*
X85924152Y-58186087D01*
X85879021Y-58174500D01*
X85879019Y-58174500D01*
X85858984Y-58174500D01*
X85839586Y-58172973D01*
X85832162Y-58171797D01*
X85819805Y-58169840D01*
X85819804Y-58169840D01*
X85773416Y-58174225D01*
X85767578Y-58174500D01*
X81592337Y-58174500D01*
X81576720Y-58172776D01*
X81576693Y-58173062D01*
X81568931Y-58172327D01*
X81499803Y-58174500D01*
X81470250Y-58174500D01*
X81469529Y-58174590D01*
X81463357Y-58175369D01*
X81457545Y-58175826D01*
X81410972Y-58177290D01*
X81410969Y-58177291D01*
X81391726Y-58182881D01*
X81372683Y-58186825D01*
X81352804Y-58189336D01*
X81352803Y-58189337D01*
X81309478Y-58206490D01*
X81303952Y-58208382D01*
X81259208Y-58221383D01*
X81259204Y-58221385D01*
X81241965Y-58231580D01*
X81224498Y-58240137D01*
X81205869Y-58247512D01*
X81205867Y-58247513D01*
X81168164Y-58274906D01*
X81163282Y-58278112D01*
X81123180Y-58301828D01*
X81109008Y-58316000D01*
X81094223Y-58328628D01*
X81078012Y-58340407D01*
X81048309Y-58376310D01*
X81044376Y-58380631D01*
X80641789Y-58783220D01*
X80265428Y-59159581D01*
X80204105Y-59193066D01*
X80177747Y-59195900D01*
X80118554Y-59195900D01*
X80086097Y-59202798D01*
X79933397Y-59235255D01*
X79933392Y-59235257D01*
X79760470Y-59312248D01*
X79760465Y-59312251D01*
X79607329Y-59423511D01*
X79480666Y-59564185D01*
X79386021Y-59728115D01*
X79386018Y-59728122D01*
X79327527Y-59908140D01*
X79327526Y-59908144D01*
X79307740Y-60096400D01*
X79327526Y-60284656D01*
X79327527Y-60284659D01*
X79368962Y-60412182D01*
X79370957Y-60482023D01*
X79334877Y-60541856D01*
X79272176Y-60572684D01*
X79251031Y-60574500D01*
X77213211Y-60574500D01*
X77146172Y-60554815D01*
X77100417Y-60502011D01*
X77090473Y-60432853D01*
X77091452Y-60427034D01*
X77100500Y-60380086D01*
X77100500Y-59672580D01*
X77100500Y-59672575D01*
X77085528Y-59515782D01*
X77026316Y-59314125D01*
X76930011Y-59127318D01*
X76930009Y-59127316D01*
X76930008Y-59127313D01*
X76800094Y-58962116D01*
X76800090Y-58962112D01*
X76641253Y-58824478D01*
X76459249Y-58719398D01*
X76459245Y-58719396D01*
X76459244Y-58719396D01*
X76260633Y-58650656D01*
X76052602Y-58620746D01*
X76052598Y-58620746D01*
X75842672Y-58630745D01*
X75638421Y-58680296D01*
X75638417Y-58680298D01*
X75447256Y-58767598D01*
X75447251Y-58767601D01*
X75276046Y-58889515D01*
X75276040Y-58889520D01*
X75131016Y-59041618D01*
X75104458Y-59082943D01*
X75051653Y-59128697D01*
X74982494Y-59138640D01*
X74918939Y-59109614D01*
X74902673Y-59092554D01*
X74800094Y-58962116D01*
X74800090Y-58962112D01*
X74641253Y-58824478D01*
X74459249Y-58719398D01*
X74459245Y-58719396D01*
X74459244Y-58719396D01*
X74260633Y-58650656D01*
X74052602Y-58620746D01*
X74052598Y-58620746D01*
X73842672Y-58630745D01*
X73638421Y-58680296D01*
X73638417Y-58680298D01*
X73447256Y-58767598D01*
X73447251Y-58767601D01*
X73276046Y-58889515D01*
X73276040Y-58889520D01*
X73131016Y-59041618D01*
X73104458Y-59082943D01*
X73051653Y-59128697D01*
X72982494Y-59138640D01*
X72918939Y-59109614D01*
X72902673Y-59092554D01*
X72800094Y-58962116D01*
X72800090Y-58962112D01*
X72641253Y-58824478D01*
X72459249Y-58719398D01*
X72459245Y-58719396D01*
X72459244Y-58719396D01*
X72260633Y-58650656D01*
X72052602Y-58620746D01*
X72052598Y-58620746D01*
X71842672Y-58630745D01*
X71638421Y-58680296D01*
X71638417Y-58680298D01*
X71447256Y-58767598D01*
X71447251Y-58767601D01*
X71276046Y-58889515D01*
X71276045Y-58889515D01*
X71178249Y-58992082D01*
X71117740Y-59027017D01*
X71047949Y-59023692D01*
X70991035Y-58983164D01*
X70982967Y-58971608D01*
X70964678Y-58941957D01*
X70942712Y-58906344D01*
X70818656Y-58782288D01*
X70724679Y-58724323D01*
X70669336Y-58690187D01*
X70669331Y-58690185D01*
X70621245Y-58674251D01*
X70502797Y-58635001D01*
X70502795Y-58635000D01*
X70400016Y-58624500D01*
X70400009Y-58624500D01*
X69824500Y-58624500D01*
X69757461Y-58604815D01*
X69711706Y-58552011D01*
X69700500Y-58500500D01*
X69700500Y-52781200D01*
X80069740Y-52781200D01*
X80089526Y-52969456D01*
X80089527Y-52969459D01*
X80148018Y-53149477D01*
X80148021Y-53149484D01*
X80242667Y-53313416D01*
X80363601Y-53447726D01*
X80369329Y-53454088D01*
X80522465Y-53565348D01*
X80522470Y-53565351D01*
X80695392Y-53642342D01*
X80695397Y-53642344D01*
X80880554Y-53681700D01*
X80880555Y-53681700D01*
X81069844Y-53681700D01*
X81069846Y-53681700D01*
X81255003Y-53642344D01*
X81427930Y-53565351D01*
X81581071Y-53454088D01*
X81583988Y-53450847D01*
X81586800Y-53447726D01*
X81646287Y-53411079D01*
X81678948Y-53406700D01*
X83931157Y-53406700D01*
X83946777Y-53408424D01*
X83946804Y-53408139D01*
X83954560Y-53408871D01*
X83954567Y-53408873D01*
X84023714Y-53406700D01*
X84053250Y-53406700D01*
X84060128Y-53405830D01*
X84065941Y-53405372D01*
X84112527Y-53403909D01*
X84131769Y-53398317D01*
X84150812Y-53394374D01*
X84170692Y-53391864D01*
X84214022Y-53374707D01*
X84219546Y-53372817D01*
X84223296Y-53371727D01*
X84264290Y-53359818D01*
X84281529Y-53349622D01*
X84299003Y-53341062D01*
X84317627Y-53333688D01*
X84317627Y-53333687D01*
X84317632Y-53333686D01*
X84355349Y-53306282D01*
X84360205Y-53303092D01*
X84400320Y-53279370D01*
X84414489Y-53265199D01*
X84429279Y-53252568D01*
X84445487Y-53240794D01*
X84475199Y-53204876D01*
X84479112Y-53200576D01*
X86383661Y-51296027D01*
X86444982Y-51262544D01*
X86514674Y-51267528D01*
X86533338Y-51276322D01*
X86540751Y-51280602D01*
X86540754Y-51280603D01*
X86540756Y-51280604D01*
X86739367Y-51349344D01*
X86947398Y-51379254D01*
X87157330Y-51369254D01*
X87361576Y-51319704D01*
X87475825Y-51267528D01*
X87552743Y-51232401D01*
X87552746Y-51232399D01*
X87552753Y-51232396D01*
X87723952Y-51110486D01*
X87725340Y-51109031D01*
X87868986Y-50958378D01*
X87878010Y-50944336D01*
X87895540Y-50917058D01*
X87948343Y-50871303D01*
X88017502Y-50861359D01*
X88081058Y-50890383D01*
X88097326Y-50907444D01*
X88199909Y-51037887D01*
X88358746Y-51175521D01*
X88540750Y-51280601D01*
X88540752Y-51280601D01*
X88540756Y-51280604D01*
X88739367Y-51349344D01*
X88947398Y-51379254D01*
X89157330Y-51369254D01*
X89361576Y-51319704D01*
X89475825Y-51267528D01*
X89552743Y-51232401D01*
X89552746Y-51232399D01*
X89552753Y-51232396D01*
X89723952Y-51110486D01*
X89725340Y-51109031D01*
X89868986Y-50958378D01*
X89878010Y-50944336D01*
X89895540Y-50917058D01*
X89948343Y-50871303D01*
X90017502Y-50861359D01*
X90081058Y-50890383D01*
X90097326Y-50907444D01*
X90199909Y-51037887D01*
X90358746Y-51175521D01*
X90540750Y-51280601D01*
X90540752Y-51280601D01*
X90540756Y-51280604D01*
X90739367Y-51349344D01*
X90947398Y-51379254D01*
X91157330Y-51369254D01*
X91361576Y-51319704D01*
X91475825Y-51267528D01*
X91552743Y-51232401D01*
X91552746Y-51232399D01*
X91552753Y-51232396D01*
X91723952Y-51110486D01*
X91725340Y-51109031D01*
X91868985Y-50958379D01*
X91878010Y-50944336D01*
X91982613Y-50781572D01*
X92060725Y-50586457D01*
X92100500Y-50380085D01*
X92100500Y-49672575D01*
X92085528Y-49515782D01*
X92026316Y-49314125D01*
X91930011Y-49127318D01*
X91930009Y-49127316D01*
X91930008Y-49127313D01*
X91800094Y-48962116D01*
X91800090Y-48962112D01*
X91641253Y-48824478D01*
X91459249Y-48719398D01*
X91459245Y-48719396D01*
X91459244Y-48719396D01*
X91260633Y-48650656D01*
X91052602Y-48620746D01*
X91052598Y-48620746D01*
X90842672Y-48630745D01*
X90638421Y-48680296D01*
X90638417Y-48680298D01*
X90447256Y-48767598D01*
X90447251Y-48767601D01*
X90276046Y-48889515D01*
X90276040Y-48889520D01*
X90131016Y-49041618D01*
X90104458Y-49082943D01*
X90051653Y-49128697D01*
X89982494Y-49138640D01*
X89918939Y-49109614D01*
X89902673Y-49092554D01*
X89800094Y-48962116D01*
X89800090Y-48962112D01*
X89641253Y-48824478D01*
X89459249Y-48719398D01*
X89459245Y-48719396D01*
X89459244Y-48719396D01*
X89260633Y-48650656D01*
X89052602Y-48620746D01*
X89052598Y-48620746D01*
X88842672Y-48630745D01*
X88638421Y-48680296D01*
X88638417Y-48680298D01*
X88447256Y-48767598D01*
X88447251Y-48767601D01*
X88276046Y-48889515D01*
X88276040Y-48889520D01*
X88131016Y-49041618D01*
X88104458Y-49082943D01*
X88051653Y-49128697D01*
X87982494Y-49138640D01*
X87918939Y-49109614D01*
X87902673Y-49092554D01*
X87800094Y-48962116D01*
X87800090Y-48962112D01*
X87641253Y-48824478D01*
X87459249Y-48719398D01*
X87459245Y-48719396D01*
X87459244Y-48719396D01*
X87260633Y-48650656D01*
X87052602Y-48620746D01*
X87052598Y-48620746D01*
X86842672Y-48630745D01*
X86638421Y-48680296D01*
X86638417Y-48680298D01*
X86447256Y-48767598D01*
X86447251Y-48767601D01*
X86276046Y-48889515D01*
X86276045Y-48889515D01*
X86178249Y-48992082D01*
X86117740Y-49027017D01*
X86047949Y-49023692D01*
X85991035Y-48983164D01*
X85982967Y-48971608D01*
X85977110Y-48962112D01*
X85942712Y-48906344D01*
X85818656Y-48782288D01*
X85725888Y-48725069D01*
X85669336Y-48690187D01*
X85669331Y-48690185D01*
X85639488Y-48680296D01*
X85502797Y-48635001D01*
X85502795Y-48635000D01*
X85400010Y-48624500D01*
X84599998Y-48624500D01*
X84599980Y-48624501D01*
X84497203Y-48635000D01*
X84497200Y-48635001D01*
X84330668Y-48690185D01*
X84330663Y-48690187D01*
X84181342Y-48782289D01*
X84057289Y-48906342D01*
X83965187Y-49055663D01*
X83965185Y-49055668D01*
X83952946Y-49092604D01*
X83910001Y-49222203D01*
X83910001Y-49222204D01*
X83910000Y-49222204D01*
X83899500Y-49324983D01*
X83899500Y-50675001D01*
X83899501Y-50675018D01*
X83910000Y-50777796D01*
X83910001Y-50777799D01*
X83940986Y-50871303D01*
X83965186Y-50944334D01*
X84057288Y-51093656D01*
X84181344Y-51217712D01*
X84330666Y-51309814D01*
X84342658Y-51313787D01*
X84400102Y-51353560D01*
X84426925Y-51418076D01*
X84414610Y-51486851D01*
X84391334Y-51519174D01*
X83791128Y-52119381D01*
X83729805Y-52152866D01*
X83703447Y-52155700D01*
X81678948Y-52155700D01*
X81611909Y-52136015D01*
X81586800Y-52114674D01*
X81581073Y-52108314D01*
X81581069Y-52108310D01*
X81427934Y-51997051D01*
X81427929Y-51997048D01*
X81255007Y-51920057D01*
X81255002Y-51920055D01*
X81103094Y-51887767D01*
X81069846Y-51880700D01*
X80880554Y-51880700D01*
X80848097Y-51887598D01*
X80695397Y-51920055D01*
X80695392Y-51920057D01*
X80522470Y-51997048D01*
X80522465Y-51997051D01*
X80369329Y-52108311D01*
X80242666Y-52248985D01*
X80148021Y-52412915D01*
X80148018Y-52412922D01*
X80089527Y-52592940D01*
X80089526Y-52592944D01*
X80069740Y-52781200D01*
X69700500Y-52781200D01*
X69700500Y-51499499D01*
X69720185Y-51432460D01*
X69772989Y-51386705D01*
X69824500Y-51375499D01*
X70400002Y-51375499D01*
X70400008Y-51375499D01*
X70502797Y-51364999D01*
X70669334Y-51309814D01*
X70818656Y-51217712D01*
X70942712Y-51093656D01*
X70981815Y-51030258D01*
X71033761Y-50983535D01*
X71102723Y-50972312D01*
X71166806Y-51000155D01*
X71184824Y-51018705D01*
X71199907Y-51037885D01*
X71199909Y-51037887D01*
X71358746Y-51175521D01*
X71540750Y-51280601D01*
X71540752Y-51280601D01*
X71540756Y-51280604D01*
X71739367Y-51349344D01*
X71947398Y-51379254D01*
X72157330Y-51369254D01*
X72361576Y-51319704D01*
X72475825Y-51267528D01*
X72552743Y-51232401D01*
X72552746Y-51232399D01*
X72552753Y-51232396D01*
X72723952Y-51110486D01*
X72725340Y-51109031D01*
X72868986Y-50958378D01*
X72878010Y-50944336D01*
X72895540Y-50917058D01*
X72948343Y-50871303D01*
X73017502Y-50861359D01*
X73081058Y-50890383D01*
X73097326Y-50907444D01*
X73199909Y-51037887D01*
X73358746Y-51175521D01*
X73540750Y-51280601D01*
X73540752Y-51280601D01*
X73540756Y-51280604D01*
X73739367Y-51349344D01*
X73947398Y-51379254D01*
X74157330Y-51369254D01*
X74361576Y-51319704D01*
X74475825Y-51267528D01*
X74552743Y-51232401D01*
X74552746Y-51232399D01*
X74552753Y-51232396D01*
X74723952Y-51110486D01*
X74725340Y-51109031D01*
X74868986Y-50958378D01*
X74878010Y-50944336D01*
X74895540Y-50917058D01*
X74948343Y-50871303D01*
X75017502Y-50861359D01*
X75081058Y-50890383D01*
X75097326Y-50907444D01*
X75199909Y-51037887D01*
X75358746Y-51175521D01*
X75540750Y-51280601D01*
X75540752Y-51280601D01*
X75540756Y-51280604D01*
X75739367Y-51349344D01*
X75947398Y-51379254D01*
X76157330Y-51369254D01*
X76361576Y-51319704D01*
X76475825Y-51267528D01*
X76552743Y-51232401D01*
X76552746Y-51232399D01*
X76552753Y-51232396D01*
X76723952Y-51110486D01*
X76725340Y-51109031D01*
X76868985Y-50958379D01*
X76878010Y-50944336D01*
X76982613Y-50781572D01*
X77060725Y-50586457D01*
X77100500Y-50380085D01*
X77100500Y-49672575D01*
X77085528Y-49515782D01*
X77026316Y-49314125D01*
X76930011Y-49127318D01*
X76930009Y-49127316D01*
X76930008Y-49127313D01*
X76800094Y-48962116D01*
X76800090Y-48962112D01*
X76641253Y-48824478D01*
X76459249Y-48719398D01*
X76459245Y-48719396D01*
X76459244Y-48719396D01*
X76260633Y-48650656D01*
X76052602Y-48620746D01*
X76052598Y-48620746D01*
X75842672Y-48630745D01*
X75638421Y-48680296D01*
X75638417Y-48680298D01*
X75447256Y-48767598D01*
X75447251Y-48767601D01*
X75276046Y-48889515D01*
X75276040Y-48889520D01*
X75131016Y-49041618D01*
X75104458Y-49082943D01*
X75051653Y-49128697D01*
X74982494Y-49138640D01*
X74918939Y-49109614D01*
X74902673Y-49092554D01*
X74800094Y-48962116D01*
X74800090Y-48962112D01*
X74641253Y-48824478D01*
X74459249Y-48719398D01*
X74459245Y-48719396D01*
X74459244Y-48719396D01*
X74260633Y-48650656D01*
X74052602Y-48620746D01*
X74052598Y-48620746D01*
X73842672Y-48630745D01*
X73638421Y-48680296D01*
X73638417Y-48680298D01*
X73447256Y-48767598D01*
X73447251Y-48767601D01*
X73276046Y-48889515D01*
X73276040Y-48889520D01*
X73131016Y-49041618D01*
X73104458Y-49082943D01*
X73051653Y-49128697D01*
X72982494Y-49138640D01*
X72918939Y-49109614D01*
X72902673Y-49092554D01*
X72800094Y-48962116D01*
X72800090Y-48962112D01*
X72641253Y-48824478D01*
X72459249Y-48719398D01*
X72459245Y-48719396D01*
X72459244Y-48719396D01*
X72260633Y-48650656D01*
X72052602Y-48620746D01*
X72052598Y-48620746D01*
X71842672Y-48630745D01*
X71638421Y-48680296D01*
X71638417Y-48680298D01*
X71447256Y-48767598D01*
X71447251Y-48767601D01*
X71276046Y-48889515D01*
X71276045Y-48889515D01*
X71178249Y-48992082D01*
X71117740Y-49027017D01*
X71047949Y-49023692D01*
X70991035Y-48983164D01*
X70982967Y-48971608D01*
X70977110Y-48962112D01*
X70942712Y-48906344D01*
X70818656Y-48782288D01*
X70725888Y-48725069D01*
X70669336Y-48690187D01*
X70669331Y-48690185D01*
X70639488Y-48680296D01*
X70502797Y-48635001D01*
X70502795Y-48635000D01*
X70400010Y-48624500D01*
X69599998Y-48624500D01*
X69599980Y-48624501D01*
X69497203Y-48635000D01*
X69497200Y-48635001D01*
X69413504Y-48662736D01*
X69343676Y-48665138D01*
X69283634Y-48629406D01*
X69252441Y-48566886D01*
X69250500Y-48545030D01*
X69250500Y-42824400D01*
X80831740Y-42824400D01*
X80851526Y-43012656D01*
X80851527Y-43012659D01*
X80910018Y-43192677D01*
X80910021Y-43192684D01*
X81004667Y-43356616D01*
X81107644Y-43470983D01*
X81131329Y-43497288D01*
X81284465Y-43608548D01*
X81284470Y-43608551D01*
X81457392Y-43685542D01*
X81457397Y-43685544D01*
X81642554Y-43724900D01*
X81642555Y-43724900D01*
X81831844Y-43724900D01*
X81831846Y-43724900D01*
X82017003Y-43685544D01*
X82189930Y-43608551D01*
X82343071Y-43497288D01*
X82345988Y-43494047D01*
X82348800Y-43490926D01*
X82408287Y-43454279D01*
X82440948Y-43449900D01*
X84092857Y-43449900D01*
X84108477Y-43451624D01*
X84108504Y-43451339D01*
X84116260Y-43452071D01*
X84116267Y-43452073D01*
X84185414Y-43449900D01*
X84214950Y-43449900D01*
X84221828Y-43449030D01*
X84227641Y-43448572D01*
X84274227Y-43447109D01*
X84293469Y-43441517D01*
X84312512Y-43437574D01*
X84332392Y-43435064D01*
X84375722Y-43417907D01*
X84381246Y-43416017D01*
X84391510Y-43413035D01*
X84425990Y-43403018D01*
X84443229Y-43392822D01*
X84460703Y-43384262D01*
X84479327Y-43376888D01*
X84479327Y-43376887D01*
X84479332Y-43376886D01*
X84517049Y-43349482D01*
X84521905Y-43346292D01*
X84562020Y-43322570D01*
X84576189Y-43308399D01*
X84590979Y-43295768D01*
X84607187Y-43283994D01*
X84636899Y-43248076D01*
X84640812Y-43243776D01*
X86532843Y-41351745D01*
X86594164Y-41318262D01*
X86661078Y-41322247D01*
X86739367Y-41349344D01*
X86947398Y-41379254D01*
X87157330Y-41369254D01*
X87361576Y-41319704D01*
X87447199Y-41280601D01*
X87552743Y-41232401D01*
X87552746Y-41232399D01*
X87552753Y-41232396D01*
X87723952Y-41110486D01*
X87731964Y-41102084D01*
X87868986Y-40958378D01*
X87878010Y-40944336D01*
X87895540Y-40917058D01*
X87948343Y-40871303D01*
X88017502Y-40861359D01*
X88081058Y-40890383D01*
X88097326Y-40907444D01*
X88162904Y-40990832D01*
X88171061Y-41001205D01*
X88199909Y-41037887D01*
X88358746Y-41175521D01*
X88540750Y-41280601D01*
X88540752Y-41280601D01*
X88540756Y-41280604D01*
X88739367Y-41349344D01*
X88947398Y-41379254D01*
X89157330Y-41369254D01*
X89361576Y-41319704D01*
X89447199Y-41280601D01*
X89552743Y-41232401D01*
X89552746Y-41232399D01*
X89552753Y-41232396D01*
X89723952Y-41110486D01*
X89731964Y-41102084D01*
X89868986Y-40958378D01*
X89878010Y-40944336D01*
X89895540Y-40917058D01*
X89948343Y-40871303D01*
X90017502Y-40861359D01*
X90081058Y-40890383D01*
X90097326Y-40907444D01*
X90162904Y-40990832D01*
X90171061Y-41001205D01*
X90199909Y-41037887D01*
X90358746Y-41175521D01*
X90540750Y-41280601D01*
X90540752Y-41280601D01*
X90540756Y-41280604D01*
X90739367Y-41349344D01*
X90947398Y-41379254D01*
X91157330Y-41369254D01*
X91361576Y-41319704D01*
X91447199Y-41280601D01*
X91552743Y-41232401D01*
X91552746Y-41232399D01*
X91552753Y-41232396D01*
X91723952Y-41110486D01*
X91731964Y-41102084D01*
X91868985Y-40958379D01*
X91878010Y-40944336D01*
X91982613Y-40781572D01*
X92060725Y-40586457D01*
X92100500Y-40380085D01*
X92100500Y-39672575D01*
X92085528Y-39515782D01*
X92026316Y-39314125D01*
X91930011Y-39127318D01*
X91930009Y-39127316D01*
X91930008Y-39127313D01*
X91800094Y-38962116D01*
X91800090Y-38962112D01*
X91641253Y-38824478D01*
X91459249Y-38719398D01*
X91459245Y-38719396D01*
X91459244Y-38719396D01*
X91260633Y-38650656D01*
X91052602Y-38620746D01*
X91052598Y-38620746D01*
X90842672Y-38630745D01*
X90638421Y-38680296D01*
X90638417Y-38680298D01*
X90447256Y-38767598D01*
X90447251Y-38767601D01*
X90276046Y-38889515D01*
X90276040Y-38889520D01*
X90131016Y-39041618D01*
X90104458Y-39082943D01*
X90051653Y-39128697D01*
X89982494Y-39138640D01*
X89918939Y-39109614D01*
X89902673Y-39092554D01*
X89800094Y-38962116D01*
X89800090Y-38962112D01*
X89641253Y-38824478D01*
X89459249Y-38719398D01*
X89459245Y-38719396D01*
X89459244Y-38719396D01*
X89260633Y-38650656D01*
X89052602Y-38620746D01*
X89052598Y-38620746D01*
X88842672Y-38630745D01*
X88638421Y-38680296D01*
X88638417Y-38680298D01*
X88447256Y-38767598D01*
X88447251Y-38767601D01*
X88276046Y-38889515D01*
X88276040Y-38889520D01*
X88131016Y-39041618D01*
X88104458Y-39082943D01*
X88051653Y-39128697D01*
X87982494Y-39138640D01*
X87918939Y-39109614D01*
X87902673Y-39092554D01*
X87800094Y-38962116D01*
X87800090Y-38962112D01*
X87641253Y-38824478D01*
X87459249Y-38719398D01*
X87459245Y-38719396D01*
X87459244Y-38719396D01*
X87260633Y-38650656D01*
X87052602Y-38620746D01*
X87052598Y-38620746D01*
X86842672Y-38630745D01*
X86638421Y-38680296D01*
X86638417Y-38680298D01*
X86447256Y-38767598D01*
X86447251Y-38767601D01*
X86276046Y-38889515D01*
X86276045Y-38889515D01*
X86178249Y-38992082D01*
X86117740Y-39027017D01*
X86047949Y-39023692D01*
X85991035Y-38983164D01*
X85982967Y-38971608D01*
X85971790Y-38953488D01*
X85942712Y-38906344D01*
X85818656Y-38782288D01*
X85725888Y-38725068D01*
X85669336Y-38690187D01*
X85669331Y-38690185D01*
X85639488Y-38680296D01*
X85502797Y-38635001D01*
X85502795Y-38635000D01*
X85400010Y-38624500D01*
X84599998Y-38624500D01*
X84599980Y-38624501D01*
X84497203Y-38635000D01*
X84497200Y-38635001D01*
X84330668Y-38690185D01*
X84330663Y-38690187D01*
X84181342Y-38782289D01*
X84057289Y-38906342D01*
X83965187Y-39055663D01*
X83965185Y-39055668D01*
X83952448Y-39094106D01*
X83910001Y-39222203D01*
X83910001Y-39222204D01*
X83910000Y-39222204D01*
X83899500Y-39324983D01*
X83899500Y-40675001D01*
X83899501Y-40675018D01*
X83910000Y-40777796D01*
X83910001Y-40777799D01*
X83965185Y-40944331D01*
X83965187Y-40944336D01*
X83981474Y-40970741D01*
X84057288Y-41093656D01*
X84181344Y-41217712D01*
X84330666Y-41309814D01*
X84496560Y-41364786D01*
X84554004Y-41404558D01*
X84580827Y-41469073D01*
X84568512Y-41537849D01*
X84545236Y-41570172D01*
X83952828Y-42162581D01*
X83891505Y-42196066D01*
X83865147Y-42198900D01*
X82440948Y-42198900D01*
X82373909Y-42179215D01*
X82348800Y-42157874D01*
X82343073Y-42151514D01*
X82343069Y-42151510D01*
X82189934Y-42040251D01*
X82189929Y-42040248D01*
X82017007Y-41963257D01*
X82017002Y-41963255D01*
X81871200Y-41932265D01*
X81831846Y-41923900D01*
X81642554Y-41923900D01*
X81610097Y-41930798D01*
X81457397Y-41963255D01*
X81457392Y-41963257D01*
X81284470Y-42040248D01*
X81284465Y-42040251D01*
X81131329Y-42151511D01*
X81004666Y-42292185D01*
X80910021Y-42456115D01*
X80910018Y-42456122D01*
X80851527Y-42636140D01*
X80851526Y-42636144D01*
X80831740Y-42824400D01*
X69250500Y-42824400D01*
X69250500Y-41685451D01*
X69270185Y-41618412D01*
X69286815Y-41597774D01*
X69475851Y-41408737D01*
X69537172Y-41375254D01*
X69576130Y-41373062D01*
X69599991Y-41375500D01*
X70400008Y-41375499D01*
X70400016Y-41375498D01*
X70400019Y-41375498D01*
X70461143Y-41369254D01*
X70502797Y-41364999D01*
X70669334Y-41309814D01*
X70818656Y-41217712D01*
X70942712Y-41093656D01*
X70981815Y-41030258D01*
X71033761Y-40983535D01*
X71102723Y-40972312D01*
X71166806Y-41000155D01*
X71184824Y-41018705D01*
X71199907Y-41037885D01*
X71199909Y-41037887D01*
X71358746Y-41175521D01*
X71540750Y-41280601D01*
X71540752Y-41280601D01*
X71540756Y-41280604D01*
X71739367Y-41349344D01*
X71947398Y-41379254D01*
X72157330Y-41369254D01*
X72361576Y-41319704D01*
X72447199Y-41280601D01*
X72552743Y-41232401D01*
X72552746Y-41232399D01*
X72552753Y-41232396D01*
X72723952Y-41110486D01*
X72731964Y-41102084D01*
X72868986Y-40958378D01*
X72878010Y-40944336D01*
X72895540Y-40917058D01*
X72948343Y-40871303D01*
X73017502Y-40861359D01*
X73081058Y-40890383D01*
X73097326Y-40907444D01*
X73162904Y-40990832D01*
X73171061Y-41001205D01*
X73199909Y-41037887D01*
X73358746Y-41175521D01*
X73540750Y-41280601D01*
X73540752Y-41280601D01*
X73540756Y-41280604D01*
X73739367Y-41349344D01*
X73947398Y-41379254D01*
X74157330Y-41369254D01*
X74361576Y-41319704D01*
X74447199Y-41280601D01*
X74552743Y-41232401D01*
X74552746Y-41232399D01*
X74552753Y-41232396D01*
X74723952Y-41110486D01*
X74731964Y-41102084D01*
X74868986Y-40958378D01*
X74878010Y-40944336D01*
X74895540Y-40917058D01*
X74948343Y-40871303D01*
X75017502Y-40861359D01*
X75081058Y-40890383D01*
X75097326Y-40907444D01*
X75162904Y-40990832D01*
X75171061Y-41001205D01*
X75199909Y-41037887D01*
X75358746Y-41175521D01*
X75540750Y-41280601D01*
X75540752Y-41280601D01*
X75540756Y-41280604D01*
X75739367Y-41349344D01*
X75947398Y-41379254D01*
X76157330Y-41369254D01*
X76361576Y-41319704D01*
X76447199Y-41280601D01*
X76552743Y-41232401D01*
X76552746Y-41232399D01*
X76552753Y-41232396D01*
X76723952Y-41110486D01*
X76731964Y-41102084D01*
X76868985Y-40958379D01*
X76878010Y-40944336D01*
X76982613Y-40781572D01*
X77060725Y-40586457D01*
X77100500Y-40380085D01*
X77100500Y-39672575D01*
X77085528Y-39515782D01*
X77026316Y-39314125D01*
X76930011Y-39127318D01*
X76930009Y-39127316D01*
X76930008Y-39127313D01*
X76800094Y-38962116D01*
X76800090Y-38962112D01*
X76641253Y-38824478D01*
X76459249Y-38719398D01*
X76459245Y-38719396D01*
X76459244Y-38719396D01*
X76260633Y-38650656D01*
X76052602Y-38620746D01*
X76052598Y-38620746D01*
X75842672Y-38630745D01*
X75638421Y-38680296D01*
X75638417Y-38680298D01*
X75447256Y-38767598D01*
X75447251Y-38767601D01*
X75276046Y-38889515D01*
X75276040Y-38889520D01*
X75131016Y-39041618D01*
X75104458Y-39082943D01*
X75051653Y-39128697D01*
X74982494Y-39138640D01*
X74918939Y-39109614D01*
X74902673Y-39092554D01*
X74800094Y-38962116D01*
X74800090Y-38962112D01*
X74641253Y-38824478D01*
X74459249Y-38719398D01*
X74459245Y-38719396D01*
X74459244Y-38719396D01*
X74260633Y-38650656D01*
X74052602Y-38620746D01*
X74052598Y-38620746D01*
X73842672Y-38630745D01*
X73638421Y-38680296D01*
X73638417Y-38680298D01*
X73447256Y-38767598D01*
X73447251Y-38767601D01*
X73276046Y-38889515D01*
X73276040Y-38889520D01*
X73131016Y-39041618D01*
X73104458Y-39082943D01*
X73051653Y-39128697D01*
X72982494Y-39138640D01*
X72918939Y-39109614D01*
X72902673Y-39092554D01*
X72800094Y-38962116D01*
X72800090Y-38962112D01*
X72641253Y-38824478D01*
X72459249Y-38719398D01*
X72459245Y-38719396D01*
X72459244Y-38719396D01*
X72260633Y-38650656D01*
X72052602Y-38620746D01*
X72052598Y-38620746D01*
X71842672Y-38630745D01*
X71638421Y-38680296D01*
X71638417Y-38680298D01*
X71447256Y-38767598D01*
X71447251Y-38767601D01*
X71276046Y-38889515D01*
X71276045Y-38889515D01*
X71178249Y-38992082D01*
X71117740Y-39027017D01*
X71047949Y-39023692D01*
X70991035Y-38983164D01*
X70982967Y-38971608D01*
X70971790Y-38953488D01*
X70942712Y-38906344D01*
X70818656Y-38782288D01*
X70725888Y-38725069D01*
X70669336Y-38690187D01*
X70669331Y-38690185D01*
X70639488Y-38680296D01*
X70502797Y-38635001D01*
X70502795Y-38635000D01*
X70400010Y-38624500D01*
X69599998Y-38624500D01*
X69599980Y-38624501D01*
X69497203Y-38635000D01*
X69497200Y-38635001D01*
X69330668Y-38690185D01*
X69330663Y-38690187D01*
X69181342Y-38782289D01*
X69057289Y-38906342D01*
X68965187Y-39055663D01*
X68965185Y-39055668D01*
X68952448Y-39094106D01*
X68910001Y-39222203D01*
X68910001Y-39222204D01*
X68910000Y-39222204D01*
X68899500Y-39324983D01*
X68899500Y-40164546D01*
X68879815Y-40231585D01*
X68863181Y-40252227D01*
X68241208Y-40874199D01*
X68228951Y-40884020D01*
X68229134Y-40884241D01*
X68223123Y-40889213D01*
X68175772Y-40939636D01*
X68154889Y-40960519D01*
X68154877Y-40960532D01*
X68150621Y-40966017D01*
X68146837Y-40970447D01*
X68114937Y-41004418D01*
X68114936Y-41004420D01*
X68105284Y-41021976D01*
X68094610Y-41038226D01*
X68082329Y-41054061D01*
X68082324Y-41054068D01*
X68063815Y-41096838D01*
X68061245Y-41102084D01*
X68038803Y-41142906D01*
X68033822Y-41162307D01*
X68027521Y-41180710D01*
X68019562Y-41199102D01*
X68019561Y-41199105D01*
X68012271Y-41245127D01*
X68011087Y-41250846D01*
X67999501Y-41295972D01*
X67999500Y-41295982D01*
X67999500Y-41316016D01*
X67997973Y-41335413D01*
X67994840Y-41355196D01*
X67995767Y-41364998D01*
X67999225Y-41401583D01*
X67999500Y-41407421D01*
X67999500Y-60973751D01*
X67997775Y-60989368D01*
X67998061Y-60989395D01*
X67997326Y-60997161D01*
X67999500Y-61066310D01*
X67999500Y-61095839D01*
X67999501Y-61095856D01*
X68000368Y-61102727D01*
X68000826Y-61108546D01*
X68002290Y-61155122D01*
X68007879Y-61174358D01*
X68011824Y-61193410D01*
X68014334Y-61213284D01*
X68014336Y-61213288D01*
X68031491Y-61256617D01*
X68033381Y-61262137D01*
X68046381Y-61306883D01*
X68046382Y-61306887D01*
X68047247Y-61308349D01*
X68055180Y-61321764D01*
X68056580Y-61324130D01*
X68065136Y-61341596D01*
X68070281Y-61354588D01*
X68072514Y-61360228D01*
X68099898Y-61397919D01*
X68103106Y-61402803D01*
X68126827Y-61442912D01*
X68126833Y-61442920D01*
X68140990Y-61457076D01*
X68153628Y-61471872D01*
X68165405Y-61488082D01*
X68165406Y-61488083D01*
X68201309Y-61517784D01*
X68205620Y-61521706D01*
X68622966Y-61939053D01*
X68717701Y-62033788D01*
X68727526Y-62046051D01*
X68727747Y-62045869D01*
X68732718Y-62051878D01*
X68758721Y-62076295D01*
X68783139Y-62099226D01*
X68804033Y-62120120D01*
X68809515Y-62124373D01*
X68813947Y-62128157D01*
X68847922Y-62160062D01*
X68865480Y-62169714D01*
X68881739Y-62180395D01*
X68897568Y-62192673D01*
X68940342Y-62211182D01*
X68945560Y-62213738D01*
X68986412Y-62236197D01*
X69005820Y-62241180D01*
X69024221Y-62247480D01*
X69042608Y-62255437D01*
X69085992Y-62262308D01*
X69088623Y-62262725D01*
X69094343Y-62263909D01*
X69139485Y-62275500D01*
X69159520Y-62275500D01*
X69178918Y-62277026D01*
X69198698Y-62280159D01*
X69198699Y-62280160D01*
X69198699Y-62280159D01*
X69198700Y-62280160D01*
X69245087Y-62275775D01*
X69250926Y-62275500D01*
X70066756Y-62275500D01*
X70133795Y-62295185D01*
X70154437Y-62311819D01*
X73538181Y-65695563D01*
X73571666Y-65756886D01*
X73574500Y-65783244D01*
X73574500Y-74513573D01*
X73554815Y-74580612D01*
X73509519Y-74622627D01*
X73451356Y-74654103D01*
X73451353Y-74654105D01*
X73272955Y-74792959D01*
X73272950Y-74792963D01*
X73119850Y-74959272D01*
X73119842Y-74959283D01*
X73033808Y-75090968D01*
X72980662Y-75136325D01*
X72911430Y-75145748D01*
X72848095Y-75116246D01*
X72826192Y-75090968D01*
X72740157Y-74959283D01*
X72740149Y-74959272D01*
X72587049Y-74792963D01*
X72587048Y-74792962D01*
X72587046Y-74792960D01*
X72408649Y-74654107D01*
X72332910Y-74613119D01*
X72209832Y-74546512D01*
X72209827Y-74546510D01*
X71996017Y-74473109D01*
X71828778Y-74445202D01*
X71773033Y-74435900D01*
X71546967Y-74435900D01*
X71502370Y-74443341D01*
X71323982Y-74473109D01*
X71110172Y-74546510D01*
X71110167Y-74546512D01*
X70911352Y-74654106D01*
X70732955Y-74792959D01*
X70732950Y-74792963D01*
X70579850Y-74959272D01*
X70579842Y-74959283D01*
X70493808Y-75090968D01*
X70440662Y-75136325D01*
X70371430Y-75145748D01*
X70308095Y-75116246D01*
X70286192Y-75090968D01*
X70200157Y-74959283D01*
X70200149Y-74959272D01*
X70047049Y-74792963D01*
X70047048Y-74792962D01*
X70047046Y-74792960D01*
X69868649Y-74654107D01*
X69792910Y-74613119D01*
X69669832Y-74546512D01*
X69669827Y-74546510D01*
X69456017Y-74473109D01*
X69288778Y-74445202D01*
X69233033Y-74435900D01*
X69006967Y-74435900D01*
X68962370Y-74443341D01*
X68783982Y-74473109D01*
X68570172Y-74546510D01*
X68570167Y-74546512D01*
X68371352Y-74654106D01*
X68192955Y-74792959D01*
X68192950Y-74792963D01*
X68039850Y-74959272D01*
X68039842Y-74959283D01*
X67953808Y-75090968D01*
X67900662Y-75136325D01*
X67831430Y-75145748D01*
X67768095Y-75116246D01*
X67746192Y-75090968D01*
X67660157Y-74959283D01*
X67660149Y-74959272D01*
X67507049Y-74792963D01*
X67507048Y-74792962D01*
X67507046Y-74792960D01*
X67328649Y-74654107D01*
X67252910Y-74613119D01*
X67129832Y-74546512D01*
X67129827Y-74546510D01*
X66916017Y-74473109D01*
X66748778Y-74445202D01*
X66693033Y-74435900D01*
X66466967Y-74435900D01*
X66422370Y-74443341D01*
X66243982Y-74473109D01*
X66030172Y-74546510D01*
X66030167Y-74546512D01*
X65831352Y-74654106D01*
X65652955Y-74792959D01*
X65652950Y-74792963D01*
X65499850Y-74959272D01*
X65499846Y-74959278D01*
X65413807Y-75090969D01*
X65360660Y-75136325D01*
X65291429Y-75145748D01*
X65228093Y-75116245D01*
X65206192Y-75090969D01*
X65120156Y-74959281D01*
X65120151Y-74959276D01*
X65120149Y-74959272D01*
X64967049Y-74792963D01*
X64967048Y-74792962D01*
X64967046Y-74792960D01*
X64788649Y-74654107D01*
X64712910Y-74613119D01*
X64589832Y-74546512D01*
X64589827Y-74546510D01*
X64376017Y-74473109D01*
X64208778Y-74445202D01*
X64153033Y-74435900D01*
X63926967Y-74435900D01*
X63882370Y-74443341D01*
X63703982Y-74473109D01*
X63490172Y-74546510D01*
X63490167Y-74546512D01*
X63291352Y-74654106D01*
X63112955Y-74792959D01*
X63112950Y-74792963D01*
X62959850Y-74959272D01*
X62959842Y-74959283D01*
X62873808Y-75090968D01*
X62820662Y-75136325D01*
X62751430Y-75145748D01*
X62688095Y-75116246D01*
X62666192Y-75090968D01*
X62580157Y-74959283D01*
X62580149Y-74959272D01*
X62427049Y-74792963D01*
X62427048Y-74792962D01*
X62427046Y-74792960D01*
X62248649Y-74654107D01*
X62172910Y-74613119D01*
X62049832Y-74546512D01*
X62049827Y-74546510D01*
X61836017Y-74473109D01*
X61668778Y-74445202D01*
X61613033Y-74435900D01*
X61386967Y-74435900D01*
X61342370Y-74443341D01*
X61163982Y-74473109D01*
X60950172Y-74546510D01*
X60950167Y-74546512D01*
X60751352Y-74654106D01*
X60572955Y-74792959D01*
X60572950Y-74792963D01*
X60419850Y-74959272D01*
X60419842Y-74959283D01*
X60296198Y-75148533D01*
X60205388Y-75355560D01*
X60149892Y-75574710D01*
X60131225Y-75799993D01*
X60131225Y-75800006D01*
X57788775Y-75800006D01*
X57788775Y-75800000D01*
X57788775Y-75799993D01*
X57770107Y-75574710D01*
X57770107Y-75574707D01*
X57714611Y-75355559D01*
X57623802Y-75148535D01*
X57500156Y-74959281D01*
X57500153Y-74959278D01*
X57500149Y-74959272D01*
X57347049Y-74792963D01*
X57347048Y-74792962D01*
X57347046Y-74792960D01*
X57168649Y-74654107D01*
X57092910Y-74613119D01*
X56969832Y-74546512D01*
X56969827Y-74546510D01*
X56756017Y-74473109D01*
X56588778Y-74445202D01*
X56533033Y-74435900D01*
X56306967Y-74435900D01*
X56262370Y-74443341D01*
X56083982Y-74473109D01*
X55870172Y-74546510D01*
X55870167Y-74546512D01*
X55671352Y-74654106D01*
X55492955Y-74792959D01*
X55492950Y-74792963D01*
X55339850Y-74959272D01*
X55339842Y-74959283D01*
X55253808Y-75090968D01*
X55200662Y-75136325D01*
X55131430Y-75145748D01*
X55068095Y-75116246D01*
X55046192Y-75090968D01*
X54960157Y-74959283D01*
X54960149Y-74959272D01*
X54807049Y-74792963D01*
X54807048Y-74792962D01*
X54807046Y-74792960D01*
X54628649Y-74654107D01*
X54552910Y-74613119D01*
X54429832Y-74546512D01*
X54429827Y-74546510D01*
X54216017Y-74473109D01*
X54048778Y-74445202D01*
X53993033Y-74435900D01*
X53766967Y-74435900D01*
X53722370Y-74443341D01*
X53543982Y-74473109D01*
X53330172Y-74546510D01*
X53330167Y-74546512D01*
X53131352Y-74654106D01*
X52952955Y-74792959D01*
X52952950Y-74792963D01*
X52799850Y-74959272D01*
X52799842Y-74959283D01*
X52713808Y-75090968D01*
X52660662Y-75136325D01*
X52591430Y-75145748D01*
X52528095Y-75116246D01*
X52506192Y-75090968D01*
X52420157Y-74959283D01*
X52420149Y-74959272D01*
X52267049Y-74792963D01*
X52267048Y-74792962D01*
X52267046Y-74792960D01*
X52088649Y-74654107D01*
X52012910Y-74613119D01*
X51889832Y-74546512D01*
X51889827Y-74546510D01*
X51676017Y-74473109D01*
X51508778Y-74445202D01*
X51453033Y-74435900D01*
X51226967Y-74435900D01*
X51182370Y-74443341D01*
X51003982Y-74473109D01*
X50790172Y-74546510D01*
X50790167Y-74546512D01*
X50591352Y-74654106D01*
X50412955Y-74792959D01*
X50412950Y-74792963D01*
X50259850Y-74959272D01*
X50259842Y-74959283D01*
X50173808Y-75090968D01*
X50120662Y-75136325D01*
X50051430Y-75145748D01*
X49988095Y-75116246D01*
X49966192Y-75090968D01*
X49880157Y-74959283D01*
X49880149Y-74959272D01*
X49727049Y-74792963D01*
X49727048Y-74792962D01*
X49727046Y-74792960D01*
X49548649Y-74654107D01*
X49472910Y-74613119D01*
X49349832Y-74546512D01*
X49349827Y-74546510D01*
X49136017Y-74473109D01*
X48968778Y-74445202D01*
X48913033Y-74435900D01*
X48686967Y-74435900D01*
X48642370Y-74443341D01*
X48463982Y-74473109D01*
X48250172Y-74546510D01*
X48250167Y-74546512D01*
X48051352Y-74654106D01*
X47872955Y-74792959D01*
X47872950Y-74792963D01*
X47719850Y-74959272D01*
X47719846Y-74959278D01*
X47633807Y-75090969D01*
X47580660Y-75136325D01*
X47511429Y-75145748D01*
X47448093Y-75116245D01*
X47426192Y-75090969D01*
X47340156Y-74959281D01*
X47340151Y-74959276D01*
X47340149Y-74959272D01*
X47187049Y-74792963D01*
X47187048Y-74792962D01*
X47187046Y-74792960D01*
X47008649Y-74654107D01*
X46932910Y-74613119D01*
X46809832Y-74546512D01*
X46809827Y-74546510D01*
X46596017Y-74473109D01*
X46428778Y-74445202D01*
X46373033Y-74435900D01*
X46146967Y-74435900D01*
X46102370Y-74443341D01*
X45923982Y-74473109D01*
X45710172Y-74546510D01*
X45710167Y-74546512D01*
X45511352Y-74654106D01*
X45332955Y-74792959D01*
X45332950Y-74792963D01*
X45179850Y-74959272D01*
X45179842Y-74959283D01*
X45093808Y-75090968D01*
X45040662Y-75136325D01*
X44971430Y-75145748D01*
X44908095Y-75116246D01*
X44886192Y-75090968D01*
X44800157Y-74959283D01*
X44800149Y-74959272D01*
X44647049Y-74792963D01*
X44647048Y-74792962D01*
X44647046Y-74792960D01*
X44468649Y-74654107D01*
X44392910Y-74613119D01*
X44269832Y-74546512D01*
X44269827Y-74546510D01*
X44056017Y-74473109D01*
X43888778Y-74445202D01*
X43833033Y-74435900D01*
X43606967Y-74435900D01*
X43562370Y-74443341D01*
X43383982Y-74473109D01*
X43170172Y-74546510D01*
X43170167Y-74546512D01*
X42971352Y-74654106D01*
X42792955Y-74792959D01*
X42792950Y-74792963D01*
X42639850Y-74959272D01*
X42639842Y-74959283D01*
X42553808Y-75090968D01*
X42500662Y-75136325D01*
X42431430Y-75145748D01*
X42368095Y-75116246D01*
X42346192Y-75090968D01*
X42260157Y-74959283D01*
X42260149Y-74959272D01*
X42107049Y-74792963D01*
X42107048Y-74792962D01*
X42107046Y-74792960D01*
X41928649Y-74654107D01*
X41852910Y-74613119D01*
X41729832Y-74546512D01*
X41729827Y-74546510D01*
X41516017Y-74473109D01*
X41348778Y-74445202D01*
X41293033Y-74435900D01*
X41066967Y-74435900D01*
X41022370Y-74443341D01*
X40843982Y-74473109D01*
X40630172Y-74546510D01*
X40630167Y-74546512D01*
X40431352Y-74654106D01*
X40252955Y-74792959D01*
X40252950Y-74792963D01*
X40099850Y-74959272D01*
X40099842Y-74959283D01*
X40013808Y-75090968D01*
X39960662Y-75136325D01*
X39891430Y-75145748D01*
X39828095Y-75116246D01*
X39806192Y-75090968D01*
X39720157Y-74959283D01*
X39720149Y-74959272D01*
X39567049Y-74792963D01*
X39567048Y-74792962D01*
X39567046Y-74792960D01*
X39388649Y-74654107D01*
X39312910Y-74613119D01*
X39189832Y-74546512D01*
X39189827Y-74546510D01*
X38976017Y-74473109D01*
X38808778Y-74445202D01*
X38753033Y-74435900D01*
X38526967Y-74435900D01*
X38482370Y-74443341D01*
X38303982Y-74473109D01*
X38090172Y-74546510D01*
X38090167Y-74546512D01*
X37891352Y-74654106D01*
X37712955Y-74792959D01*
X37712950Y-74792963D01*
X37559850Y-74959272D01*
X37559842Y-74959283D01*
X37436198Y-75148533D01*
X37345388Y-75355560D01*
X37289892Y-75574710D01*
X37271225Y-75799993D01*
X37271225Y-75800006D01*
X36681735Y-75800006D01*
X36684212Y-75732235D01*
X36654586Y-75462982D01*
X36586072Y-75200912D01*
X36480130Y-74951610D01*
X36339018Y-74720390D01*
X36283857Y-74654107D01*
X36165746Y-74512180D01*
X36165740Y-74512175D01*
X35964002Y-74331418D01*
X35738092Y-74181957D01*
X35738090Y-74181956D01*
X35492824Y-74066980D01*
X35492819Y-74066978D01*
X35492814Y-74066976D01*
X35233442Y-73988942D01*
X35233428Y-73988939D01*
X35117791Y-73971921D01*
X34965439Y-73949500D01*
X34762369Y-73949500D01*
X34762364Y-73949500D01*
X34559844Y-73964323D01*
X34559831Y-73964325D01*
X34295453Y-74023217D01*
X34295446Y-74023220D01*
X34042439Y-74119987D01*
X33806226Y-74252557D01*
X33806224Y-74252558D01*
X33806223Y-74252559D01*
X33763508Y-74285542D01*
X33591822Y-74418112D01*
X33403822Y-74613109D01*
X33403816Y-74613116D01*
X33246202Y-74833419D01*
X33246199Y-74833424D01*
X33122350Y-75074309D01*
X33122343Y-75074327D01*
X33034884Y-75330685D01*
X33034881Y-75330699D01*
X32985681Y-75597068D01*
X32985680Y-75597075D01*
X32975787Y-75867763D01*
X32383160Y-75867763D01*
X32388775Y-75800000D01*
X32388775Y-75799993D01*
X32370107Y-75574710D01*
X32370107Y-75574707D01*
X32314611Y-75355559D01*
X32223802Y-75148535D01*
X32100156Y-74959281D01*
X32100153Y-74959278D01*
X32100149Y-74959272D01*
X31947049Y-74792963D01*
X31947048Y-74792962D01*
X31947046Y-74792960D01*
X31768649Y-74654107D01*
X31768647Y-74654106D01*
X31768646Y-74654105D01*
X31768639Y-74654100D01*
X31740836Y-74639055D01*
X31691244Y-74589837D01*
X31676135Y-74521620D01*
X31700306Y-74456064D01*
X31740836Y-74420945D01*
X31768639Y-74405899D01*
X31768642Y-74405896D01*
X31768649Y-74405893D01*
X31947046Y-74267040D01*
X32046832Y-74158643D01*
X32100149Y-74100727D01*
X32100151Y-74100724D01*
X32100156Y-74100719D01*
X32223802Y-73911465D01*
X32314611Y-73704441D01*
X32370107Y-73485293D01*
X32388775Y-73260000D01*
X32388775Y-73259993D01*
X32370107Y-73034710D01*
X32370107Y-73034707D01*
X32314611Y-72815559D01*
X32223802Y-72608535D01*
X32100156Y-72419281D01*
X32100153Y-72419278D01*
X32100149Y-72419272D01*
X31947049Y-72252963D01*
X31947048Y-72252962D01*
X31947046Y-72252960D01*
X31768649Y-72114107D01*
X31768647Y-72114106D01*
X31768646Y-72114105D01*
X31768639Y-72114100D01*
X31740836Y-72099055D01*
X31691244Y-72049837D01*
X31676135Y-71981620D01*
X31700306Y-71916064D01*
X31740836Y-71880945D01*
X31768639Y-71865899D01*
X31768642Y-71865896D01*
X31768649Y-71865893D01*
X31947046Y-71727040D01*
X32100156Y-71560719D01*
X32223802Y-71371465D01*
X32314611Y-71164441D01*
X32370107Y-70945293D01*
X32388775Y-70720000D01*
X32388775Y-70719993D01*
X32370107Y-70494710D01*
X32370107Y-70494707D01*
X32314611Y-70275559D01*
X32223802Y-70068535D01*
X32100156Y-69879281D01*
X32100153Y-69879278D01*
X32100149Y-69879272D01*
X31947049Y-69712963D01*
X31947048Y-69712962D01*
X31947046Y-69712960D01*
X31768649Y-69574107D01*
X31768647Y-69574106D01*
X31768646Y-69574105D01*
X31768639Y-69574100D01*
X31740836Y-69559055D01*
X31691244Y-69509837D01*
X31676135Y-69441620D01*
X31700306Y-69376064D01*
X31740836Y-69340945D01*
X31768639Y-69325899D01*
X31768642Y-69325896D01*
X31768649Y-69325893D01*
X31947046Y-69187040D01*
X32089742Y-69032032D01*
X32100149Y-69020727D01*
X32100150Y-69020725D01*
X32100156Y-69020719D01*
X32223802Y-68831465D01*
X32314611Y-68624441D01*
X32370107Y-68405293D01*
X32377574Y-68315175D01*
X32388775Y-68180006D01*
X32388775Y-68179993D01*
X32370107Y-67954710D01*
X32370107Y-67954707D01*
X32314611Y-67735559D01*
X32223802Y-67528535D01*
X32100156Y-67339281D01*
X32100153Y-67339278D01*
X32100149Y-67339272D01*
X31947049Y-67172963D01*
X31947048Y-67172962D01*
X31947046Y-67172960D01*
X31768649Y-67034107D01*
X31768647Y-67034106D01*
X31768646Y-67034105D01*
X31768639Y-67034100D01*
X31740836Y-67019055D01*
X31691244Y-66969837D01*
X31676135Y-66901620D01*
X31700306Y-66836064D01*
X31740836Y-66800945D01*
X31768639Y-66785899D01*
X31768642Y-66785896D01*
X31768649Y-66785893D01*
X31947046Y-66647040D01*
X32100156Y-66480719D01*
X32223802Y-66291465D01*
X32314611Y-66084441D01*
X32370107Y-65865293D01*
X32384171Y-65695563D01*
X32388775Y-65640006D01*
X32388775Y-65639993D01*
X32370107Y-65414710D01*
X32370107Y-65414707D01*
X32314611Y-65195559D01*
X32223802Y-64988535D01*
X32100156Y-64799281D01*
X32100153Y-64799278D01*
X32100149Y-64799272D01*
X31947049Y-64632963D01*
X31947048Y-64632962D01*
X31947046Y-64632960D01*
X31768649Y-64494107D01*
X31768647Y-64494106D01*
X31768646Y-64494105D01*
X31768639Y-64494100D01*
X31740836Y-64479055D01*
X31691244Y-64429837D01*
X31676135Y-64361620D01*
X31700306Y-64296064D01*
X31740836Y-64260945D01*
X31768639Y-64245899D01*
X31768642Y-64245896D01*
X31768649Y-64245893D01*
X31947046Y-64107040D01*
X32100156Y-63940719D01*
X32223802Y-63751465D01*
X32314611Y-63544441D01*
X32370107Y-63325293D01*
X32377574Y-63235175D01*
X32388775Y-63100006D01*
X32388775Y-63099993D01*
X32370107Y-62874710D01*
X32370107Y-62874707D01*
X32314611Y-62655559D01*
X32223802Y-62448535D01*
X32198952Y-62410500D01*
X32100157Y-62259283D01*
X32100149Y-62259272D01*
X31947049Y-62092963D01*
X31947048Y-62092962D01*
X31947046Y-62092960D01*
X31768649Y-61954107D01*
X31768647Y-61954106D01*
X31768646Y-61954105D01*
X31768643Y-61954103D01*
X31740833Y-61939053D01*
X31691243Y-61889833D01*
X31676136Y-61821616D01*
X31700307Y-61756061D01*
X31740835Y-61720945D01*
X31768649Y-61705893D01*
X31947046Y-61567040D01*
X32061311Y-61442916D01*
X32100149Y-61400727D01*
X32100151Y-61400724D01*
X32100156Y-61400719D01*
X32223802Y-61211465D01*
X32314611Y-61004441D01*
X32370107Y-60785293D01*
X32383160Y-60627763D01*
X57105787Y-60627763D01*
X57135413Y-60897013D01*
X57135415Y-60897024D01*
X57202891Y-61155122D01*
X57203928Y-61159088D01*
X57309870Y-61408390D01*
X57439891Y-61621437D01*
X57450979Y-61639605D01*
X57450986Y-61639615D01*
X57624253Y-61847819D01*
X57624259Y-61847824D01*
X57742879Y-61954107D01*
X57825998Y-62028582D01*
X58051910Y-62178044D01*
X58297176Y-62293020D01*
X58297183Y-62293022D01*
X58297185Y-62293023D01*
X58556557Y-62371057D01*
X58556564Y-62371058D01*
X58556569Y-62371060D01*
X58824561Y-62410500D01*
X58824566Y-62410500D01*
X59027636Y-62410500D01*
X59079133Y-62406730D01*
X59230156Y-62395677D01*
X59342758Y-62370593D01*
X59494546Y-62336782D01*
X59494548Y-62336781D01*
X59494553Y-62336780D01*
X59747558Y-62240014D01*
X59983777Y-62107441D01*
X60198177Y-61941888D01*
X60386186Y-61746881D01*
X60543799Y-61526579D01*
X60624685Y-61369254D01*
X60667649Y-61285690D01*
X60667651Y-61285684D01*
X60667656Y-61285675D01*
X60755118Y-61029305D01*
X60804319Y-60762933D01*
X60814212Y-60492235D01*
X60784586Y-60222982D01*
X60716072Y-59960912D01*
X60610130Y-59711610D01*
X60469018Y-59480390D01*
X60425697Y-59428334D01*
X60295746Y-59272180D01*
X60295740Y-59272175D01*
X60094002Y-59091418D01*
X59868092Y-58941957D01*
X59868090Y-58941956D01*
X59622824Y-58826980D01*
X59622819Y-58826978D01*
X59622814Y-58826976D01*
X59363442Y-58748942D01*
X59363428Y-58748939D01*
X59247791Y-58731921D01*
X59095439Y-58709500D01*
X58892369Y-58709500D01*
X58892364Y-58709500D01*
X58689844Y-58724323D01*
X58689831Y-58724325D01*
X58425453Y-58783217D01*
X58425446Y-58783220D01*
X58172439Y-58879987D01*
X57936226Y-59012557D01*
X57936224Y-59012558D01*
X57936223Y-59012559D01*
X57912455Y-59030912D01*
X57721822Y-59178112D01*
X57533822Y-59373109D01*
X57533816Y-59373116D01*
X57376202Y-59593419D01*
X57376199Y-59593424D01*
X57252350Y-59834309D01*
X57252343Y-59834327D01*
X57164884Y-60090685D01*
X57164881Y-60090699D01*
X57115681Y-60357068D01*
X57115680Y-60357075D01*
X57105787Y-60627763D01*
X32383160Y-60627763D01*
X32387724Y-60572684D01*
X32388775Y-60560006D01*
X32388775Y-60559993D01*
X32370107Y-60334710D01*
X32370107Y-60334707D01*
X32314611Y-60115559D01*
X32223802Y-59908535D01*
X32217148Y-59898351D01*
X32161978Y-59813908D01*
X32100156Y-59719281D01*
X32100153Y-59719278D01*
X32100149Y-59719272D01*
X31947049Y-59552963D01*
X31947048Y-59552962D01*
X31947046Y-59552960D01*
X31768649Y-59414107D01*
X31768647Y-59414106D01*
X31768646Y-59414105D01*
X31768643Y-59414103D01*
X31740833Y-59399053D01*
X31691243Y-59349833D01*
X31676136Y-59281616D01*
X31700307Y-59216061D01*
X31740835Y-59180945D01*
X31768649Y-59165893D01*
X31947046Y-59027040D01*
X32073648Y-58889514D01*
X32100149Y-58860727D01*
X32100151Y-58860724D01*
X32100156Y-58860719D01*
X32223802Y-58671465D01*
X32314611Y-58464441D01*
X32370107Y-58245293D01*
X32381332Y-58109825D01*
X32388775Y-58020006D01*
X32388775Y-58019993D01*
X32370107Y-57794710D01*
X32370107Y-57794707D01*
X32314611Y-57575559D01*
X32223802Y-57368535D01*
X32100156Y-57179281D01*
X32100153Y-57179278D01*
X32100149Y-57179272D01*
X31947049Y-57012963D01*
X31947048Y-57012962D01*
X31947046Y-57012960D01*
X31768649Y-56874107D01*
X31768647Y-56874106D01*
X31768646Y-56874105D01*
X31768639Y-56874100D01*
X31740836Y-56859055D01*
X31691244Y-56809837D01*
X31676135Y-56741620D01*
X31700306Y-56676064D01*
X31740836Y-56640945D01*
X31768639Y-56625899D01*
X31768642Y-56625896D01*
X31768649Y-56625893D01*
X31947046Y-56487040D01*
X32100156Y-56320719D01*
X32223802Y-56131465D01*
X32314611Y-55924441D01*
X32370107Y-55705293D01*
X32388775Y-55480006D01*
X57464225Y-55480006D01*
X57482892Y-55705289D01*
X57538388Y-55924439D01*
X57629198Y-56131466D01*
X57752842Y-56320716D01*
X57752850Y-56320727D01*
X57905950Y-56487036D01*
X57905954Y-56487040D01*
X58084351Y-56625893D01*
X58283169Y-56733488D01*
X58283172Y-56733489D01*
X58496982Y-56806890D01*
X58496984Y-56806890D01*
X58496986Y-56806891D01*
X58719967Y-56844100D01*
X58719968Y-56844100D01*
X58946032Y-56844100D01*
X58946033Y-56844100D01*
X59169014Y-56806891D01*
X59382831Y-56733488D01*
X59581649Y-56625893D01*
X59760046Y-56487040D01*
X59913156Y-56320719D01*
X59999193Y-56189029D01*
X60052336Y-56143675D01*
X60121567Y-56134251D01*
X60184903Y-56163753D01*
X60206807Y-56189031D01*
X60292842Y-56320716D01*
X60292850Y-56320727D01*
X60445950Y-56487036D01*
X60445954Y-56487040D01*
X60624351Y-56625893D01*
X60823169Y-56733488D01*
X60823172Y-56733489D01*
X61036982Y-56806890D01*
X61036984Y-56806890D01*
X61036986Y-56806891D01*
X61259967Y-56844100D01*
X61259968Y-56844100D01*
X61486032Y-56844100D01*
X61486033Y-56844100D01*
X61709014Y-56806891D01*
X61922831Y-56733488D01*
X62121649Y-56625893D01*
X62300046Y-56487040D01*
X62453156Y-56320719D01*
X62576802Y-56131465D01*
X62667611Y-55924441D01*
X62723107Y-55705293D01*
X62741775Y-55480000D01*
X62741775Y-55479993D01*
X62723107Y-55254710D01*
X62723107Y-55254707D01*
X62667611Y-55035559D01*
X62576802Y-54828535D01*
X62453156Y-54639281D01*
X62453153Y-54639278D01*
X62453149Y-54639272D01*
X62300049Y-54472963D01*
X62300048Y-54472962D01*
X62300046Y-54472960D01*
X62121649Y-54334107D01*
X62121647Y-54334106D01*
X62121646Y-54334105D01*
X62121639Y-54334100D01*
X62093836Y-54319055D01*
X62044244Y-54269837D01*
X62029135Y-54201620D01*
X62053306Y-54136064D01*
X62093836Y-54100945D01*
X62121639Y-54085899D01*
X62121642Y-54085896D01*
X62121649Y-54085893D01*
X62300046Y-53947040D01*
X62453156Y-53780719D01*
X62576802Y-53591465D01*
X62667611Y-53384441D01*
X62723107Y-53165293D01*
X62737400Y-52992797D01*
X62741775Y-52940006D01*
X62741775Y-52939993D01*
X62723107Y-52714710D01*
X62723107Y-52714707D01*
X62667611Y-52495559D01*
X62576802Y-52288535D01*
X62453156Y-52099281D01*
X62453153Y-52099278D01*
X62453149Y-52099272D01*
X62300049Y-51932963D01*
X62300048Y-51932962D01*
X62300046Y-51932960D01*
X62121649Y-51794107D01*
X62121647Y-51794106D01*
X62121646Y-51794105D01*
X62121639Y-51794100D01*
X62093836Y-51779055D01*
X62044244Y-51729837D01*
X62029135Y-51661620D01*
X62053306Y-51596064D01*
X62093836Y-51560945D01*
X62121639Y-51545899D01*
X62121642Y-51545896D01*
X62121649Y-51545893D01*
X62300046Y-51407040D01*
X62420381Y-51276322D01*
X62453149Y-51240727D01*
X62453151Y-51240724D01*
X62453156Y-51240719D01*
X62576802Y-51051465D01*
X62667611Y-50844441D01*
X62723107Y-50625293D01*
X62741775Y-50400000D01*
X62741775Y-50399993D01*
X62727852Y-50231974D01*
X62723107Y-50174707D01*
X62667611Y-49955559D01*
X62576802Y-49748535D01*
X62453156Y-49559281D01*
X62453153Y-49559278D01*
X62453149Y-49559272D01*
X62300049Y-49392963D01*
X62300048Y-49392962D01*
X62300046Y-49392960D01*
X62121649Y-49254107D01*
X62093835Y-49239055D01*
X61922832Y-49146512D01*
X61922827Y-49146510D01*
X61709017Y-49073109D01*
X61520299Y-49041618D01*
X61486033Y-49035900D01*
X61259967Y-49035900D01*
X61225701Y-49041618D01*
X61036982Y-49073109D01*
X60823172Y-49146510D01*
X60823167Y-49146512D01*
X60624352Y-49254106D01*
X60445955Y-49392958D01*
X60391565Y-49452041D01*
X60331677Y-49488031D01*
X60261839Y-49485930D01*
X60204223Y-49446405D01*
X60184154Y-49411390D01*
X60140397Y-49294071D01*
X60140393Y-49294064D01*
X60054147Y-49178855D01*
X60054144Y-49178852D01*
X59938935Y-49092606D01*
X59938928Y-49092602D01*
X59804082Y-49042308D01*
X59804083Y-49042308D01*
X59744483Y-49035901D01*
X59744481Y-49035900D01*
X59744473Y-49035900D01*
X59744464Y-49035900D01*
X57921529Y-49035900D01*
X57921523Y-49035901D01*
X57861916Y-49042308D01*
X57727071Y-49092602D01*
X57727064Y-49092606D01*
X57611855Y-49178852D01*
X57611852Y-49178855D01*
X57525606Y-49294064D01*
X57525602Y-49294071D01*
X57475308Y-49428917D01*
X57468901Y-49488516D01*
X57468900Y-49488535D01*
X57468900Y-51311470D01*
X57468901Y-51311476D01*
X57475308Y-51371083D01*
X57525602Y-51505928D01*
X57525606Y-51505935D01*
X57611852Y-51621144D01*
X57611855Y-51621147D01*
X57727064Y-51707393D01*
X57727071Y-51707397D01*
X57841983Y-51750256D01*
X57897916Y-51792127D01*
X57922334Y-51857591D01*
X57907483Y-51925864D01*
X57889880Y-51950421D01*
X57752845Y-52099279D01*
X57752842Y-52099283D01*
X57629198Y-52288533D01*
X57538388Y-52495560D01*
X57482892Y-52714710D01*
X57464225Y-52939993D01*
X57464225Y-52940006D01*
X57482892Y-53165289D01*
X57538388Y-53384439D01*
X57629198Y-53591466D01*
X57752842Y-53780716D01*
X57752850Y-53780727D01*
X57905950Y-53947036D01*
X57905954Y-53947040D01*
X58084351Y-54085893D01*
X58084353Y-54085894D01*
X58084356Y-54085896D01*
X58084362Y-54085899D01*
X58112163Y-54100944D01*
X58161754Y-54150161D01*
X58176864Y-54218378D01*
X58152694Y-54283934D01*
X58112167Y-54319052D01*
X58084361Y-54334100D01*
X58084353Y-54334105D01*
X57905955Y-54472959D01*
X57905950Y-54472963D01*
X57752850Y-54639272D01*
X57752842Y-54639283D01*
X57629198Y-54828533D01*
X57538388Y-55035560D01*
X57482892Y-55254710D01*
X57464225Y-55479993D01*
X57464225Y-55480006D01*
X32388775Y-55480006D01*
X32388775Y-55480000D01*
X32388775Y-55479993D01*
X32370107Y-55254710D01*
X32370107Y-55254707D01*
X32314611Y-55035559D01*
X32223802Y-54828535D01*
X32100156Y-54639281D01*
X32100153Y-54639278D01*
X32100149Y-54639272D01*
X31947049Y-54472963D01*
X31947048Y-54472962D01*
X31947046Y-54472960D01*
X31768649Y-54334107D01*
X31768647Y-54334106D01*
X31768646Y-54334105D01*
X31768643Y-54334103D01*
X31740833Y-54319053D01*
X31691243Y-54269833D01*
X31676136Y-54201616D01*
X31700307Y-54136061D01*
X31740835Y-54100945D01*
X31768649Y-54085893D01*
X31947046Y-53947040D01*
X32100156Y-53780719D01*
X32223802Y-53591465D01*
X32314611Y-53384441D01*
X32370107Y-53165293D01*
X32384400Y-52992797D01*
X32388775Y-52940006D01*
X32388775Y-52939993D01*
X32370107Y-52714710D01*
X32370107Y-52714707D01*
X32314611Y-52495559D01*
X32223802Y-52288535D01*
X32100156Y-52099281D01*
X32100153Y-52099278D01*
X32100149Y-52099272D01*
X31947049Y-51932963D01*
X31947048Y-51932962D01*
X31947046Y-51932960D01*
X31768649Y-51794107D01*
X31768647Y-51794106D01*
X31768646Y-51794105D01*
X31768639Y-51794100D01*
X31740836Y-51779055D01*
X31691244Y-51729837D01*
X31676135Y-51661620D01*
X31700306Y-51596064D01*
X31740836Y-51560945D01*
X31768639Y-51545899D01*
X31768642Y-51545896D01*
X31768649Y-51545893D01*
X31947046Y-51407040D01*
X32067381Y-51276322D01*
X32100149Y-51240727D01*
X32100151Y-51240724D01*
X32100156Y-51240719D01*
X32223802Y-51051465D01*
X32314611Y-50844441D01*
X32370107Y-50625293D01*
X32388775Y-50400000D01*
X32388775Y-50399993D01*
X32374852Y-50231974D01*
X32370107Y-50174707D01*
X32314611Y-49955559D01*
X32223802Y-49748535D01*
X32100156Y-49559281D01*
X32100153Y-49559278D01*
X32100149Y-49559272D01*
X31947049Y-49392963D01*
X31947048Y-49392962D01*
X31947046Y-49392960D01*
X31768649Y-49254107D01*
X31768647Y-49254106D01*
X31768646Y-49254105D01*
X31768639Y-49254100D01*
X31740836Y-49239055D01*
X31691244Y-49189837D01*
X31676135Y-49121620D01*
X31700306Y-49056064D01*
X31740836Y-49020945D01*
X31768639Y-49005899D01*
X31768642Y-49005896D01*
X31768649Y-49005893D01*
X31947046Y-48867040D01*
X32100156Y-48700719D01*
X32223802Y-48511465D01*
X32314611Y-48304441D01*
X32370107Y-48085293D01*
X32384400Y-47912797D01*
X32388775Y-47860006D01*
X32388775Y-47859993D01*
X32370107Y-47634710D01*
X32370107Y-47634707D01*
X32314611Y-47415559D01*
X32223802Y-47208535D01*
X32100156Y-47019281D01*
X32100153Y-47019278D01*
X32100149Y-47019272D01*
X31947049Y-46852963D01*
X31947048Y-46852962D01*
X31947046Y-46852960D01*
X31768649Y-46714107D01*
X31768647Y-46714106D01*
X31768646Y-46714105D01*
X31768639Y-46714100D01*
X31740836Y-46699055D01*
X31691244Y-46649837D01*
X31676135Y-46581620D01*
X31700306Y-46516064D01*
X31740836Y-46480945D01*
X31768639Y-46465899D01*
X31768642Y-46465896D01*
X31768649Y-46465893D01*
X31947046Y-46327040D01*
X32100156Y-46160719D01*
X32223802Y-45971465D01*
X32314611Y-45764441D01*
X32370107Y-45545293D01*
X32388775Y-45320000D01*
X32388775Y-45319993D01*
X32370107Y-45094710D01*
X32370107Y-45094707D01*
X32314611Y-44875559D01*
X32223802Y-44668535D01*
X32189152Y-44615500D01*
X32157299Y-44566745D01*
X32100156Y-44479281D01*
X32100153Y-44479278D01*
X32100149Y-44479272D01*
X31947049Y-44312963D01*
X31947048Y-44312962D01*
X31947046Y-44312960D01*
X31768649Y-44174107D01*
X31768647Y-44174106D01*
X31768646Y-44174105D01*
X31768639Y-44174100D01*
X31740836Y-44159055D01*
X31691244Y-44109837D01*
X31676135Y-44041620D01*
X31700306Y-43976064D01*
X31740836Y-43940945D01*
X31768639Y-43925899D01*
X31768642Y-43925896D01*
X31768649Y-43925893D01*
X31947046Y-43787040D01*
X32065862Y-43657972D01*
X32100149Y-43620727D01*
X32100151Y-43620724D01*
X32100156Y-43620719D01*
X32223802Y-43431465D01*
X32314611Y-43224441D01*
X32370107Y-43005293D01*
X32387319Y-42797573D01*
X32388775Y-42780006D01*
X32388775Y-42779993D01*
X32370107Y-42554710D01*
X32370107Y-42554707D01*
X32314611Y-42335559D01*
X32223802Y-42128535D01*
X32100156Y-41939281D01*
X32100153Y-41939278D01*
X32100149Y-41939272D01*
X31947049Y-41772963D01*
X31947048Y-41772962D01*
X31947046Y-41772960D01*
X31768649Y-41634107D01*
X31768647Y-41634106D01*
X31768646Y-41634105D01*
X31768643Y-41634103D01*
X31740833Y-41619053D01*
X31691243Y-41569833D01*
X31676136Y-41501616D01*
X31700307Y-41436061D01*
X31740835Y-41400945D01*
X31768649Y-41385893D01*
X31947046Y-41247040D01*
X32046832Y-41138643D01*
X32100149Y-41080727D01*
X32100151Y-41080724D01*
X32100156Y-41080719D01*
X32223802Y-40891465D01*
X32314611Y-40684441D01*
X32370107Y-40465293D01*
X32387319Y-40257573D01*
X32388775Y-40240006D01*
X32388775Y-40239993D01*
X32370107Y-40014710D01*
X32370107Y-40014707D01*
X32314611Y-39795559D01*
X32223802Y-39588535D01*
X32100156Y-39399281D01*
X32100153Y-39399278D01*
X32100149Y-39399272D01*
X31947049Y-39232963D01*
X31947048Y-39232962D01*
X31947046Y-39232960D01*
X31768649Y-39094107D01*
X31768647Y-39094106D01*
X31768646Y-39094105D01*
X31768639Y-39094100D01*
X31740836Y-39079055D01*
X31691244Y-39029837D01*
X31676135Y-38961620D01*
X31700306Y-38896064D01*
X31740836Y-38860945D01*
X31768639Y-38845899D01*
X31768642Y-38845896D01*
X31768649Y-38845893D01*
X31947046Y-38707040D01*
X32100156Y-38540719D01*
X32223802Y-38351465D01*
X32314611Y-38144441D01*
X32370107Y-37925293D01*
X32385169Y-37743518D01*
X32388775Y-37700006D01*
X32388775Y-37699993D01*
X32370239Y-37476298D01*
X32370107Y-37474707D01*
X32314611Y-37255559D01*
X32223802Y-37048535D01*
X32100156Y-36859281D01*
X32100153Y-36859278D01*
X32100149Y-36859272D01*
X31947049Y-36692963D01*
X31947048Y-36692962D01*
X31947046Y-36692960D01*
X31768649Y-36554107D01*
X31768647Y-36554106D01*
X31768646Y-36554105D01*
X31768639Y-36554100D01*
X31740836Y-36539055D01*
X31691244Y-36489837D01*
X31676135Y-36421620D01*
X31700306Y-36356064D01*
X31740836Y-36320945D01*
X31768639Y-36305899D01*
X31768642Y-36305896D01*
X31768649Y-36305893D01*
X31947046Y-36167040D01*
X32100156Y-36000719D01*
X32223802Y-35811465D01*
X32314611Y-35604441D01*
X32370107Y-35385293D01*
X32388775Y-35160000D01*
X32388775Y-35159993D01*
X32370107Y-34934710D01*
X32370107Y-34934707D01*
X32314611Y-34715559D01*
X32223802Y-34508535D01*
X32198952Y-34470500D01*
X32150788Y-34396779D01*
X32100156Y-34319281D01*
X32100153Y-34319278D01*
X32100149Y-34319272D01*
X31947049Y-34152963D01*
X31947048Y-34152962D01*
X31947046Y-34152960D01*
X31768649Y-34014107D01*
X31742390Y-33999896D01*
X31569832Y-33906512D01*
X31569827Y-33906510D01*
X31356017Y-33833109D01*
X31188778Y-33805202D01*
X31133033Y-33795900D01*
X30906967Y-33795900D01*
X30862370Y-33803341D01*
X30683982Y-33833109D01*
X30470172Y-33906510D01*
X30470167Y-33906512D01*
X30271352Y-34014106D01*
X30092955Y-34152959D01*
X30092950Y-34152963D01*
X29939850Y-34319272D01*
X29939842Y-34319283D01*
X29853808Y-34450968D01*
X29800662Y-34496325D01*
X29731430Y-34505748D01*
X29668095Y-34476246D01*
X29646192Y-34450968D01*
X29560157Y-34319283D01*
X29560149Y-34319272D01*
X29407049Y-34152963D01*
X29407048Y-34152962D01*
X29407046Y-34152960D01*
X29228649Y-34014107D01*
X29202390Y-33999896D01*
X29029832Y-33906512D01*
X29029827Y-33906510D01*
X28816017Y-33833109D01*
X28648778Y-33805202D01*
X28593033Y-33795900D01*
X28366967Y-33795900D01*
X28322370Y-33803341D01*
X28143982Y-33833109D01*
X27930172Y-33906510D01*
X27930167Y-33906512D01*
X27731352Y-34014106D01*
X27552955Y-34152959D01*
X27552950Y-34152963D01*
X27399850Y-34319272D01*
X27399842Y-34319283D01*
X27276198Y-34508533D01*
X27185388Y-34715560D01*
X27129892Y-34934710D01*
X27111225Y-35159993D01*
X27111225Y-35160006D01*
X27129892Y-35385289D01*
X27185388Y-35604439D01*
X27276198Y-35811466D01*
X27399842Y-36000716D01*
X27399850Y-36000727D01*
X27552950Y-36167036D01*
X27552954Y-36167040D01*
X27731351Y-36305893D01*
X27759165Y-36320945D01*
X27808755Y-36370165D01*
X27823863Y-36438382D01*
X27799692Y-36503937D01*
X27759165Y-36539055D01*
X27731352Y-36554106D01*
X27552955Y-36692959D01*
X27552950Y-36692963D01*
X27399850Y-36859272D01*
X27399842Y-36859283D01*
X27276198Y-37048533D01*
X27185388Y-37255560D01*
X27129892Y-37474710D01*
X27111225Y-37699993D01*
X27111225Y-37700006D01*
X27129892Y-37925289D01*
X27185388Y-38144439D01*
X27276198Y-38351466D01*
X27399842Y-38540716D01*
X27399850Y-38540727D01*
X27552950Y-38707036D01*
X27552954Y-38707040D01*
X27731351Y-38845893D01*
X27759165Y-38860945D01*
X27808755Y-38910165D01*
X27823863Y-38978382D01*
X27799692Y-39043937D01*
X27759165Y-39079055D01*
X27731352Y-39094106D01*
X27552955Y-39232959D01*
X27552950Y-39232963D01*
X27399850Y-39399272D01*
X27399842Y-39399283D01*
X27276198Y-39588533D01*
X27185388Y-39795560D01*
X27129892Y-40014710D01*
X27111225Y-40239993D01*
X27111225Y-40240006D01*
X27129892Y-40465289D01*
X27185388Y-40684439D01*
X27276198Y-40891466D01*
X27399842Y-41080716D01*
X27399850Y-41080727D01*
X27551193Y-41245127D01*
X27552954Y-41247040D01*
X27731351Y-41385893D01*
X27759159Y-41400942D01*
X27759165Y-41400945D01*
X27808755Y-41450165D01*
X27823863Y-41518382D01*
X27799692Y-41583937D01*
X27759165Y-41619055D01*
X27731352Y-41634106D01*
X27552955Y-41772959D01*
X27552950Y-41772963D01*
X27399850Y-41939272D01*
X27399842Y-41939283D01*
X27276198Y-42128533D01*
X27185388Y-42335560D01*
X27129892Y-42554710D01*
X27111225Y-42779993D01*
X27111225Y-42780006D01*
X27129892Y-43005289D01*
X27185388Y-43224439D01*
X27276198Y-43431466D01*
X27399842Y-43620716D01*
X27399850Y-43620727D01*
X27552950Y-43787036D01*
X27552954Y-43787040D01*
X27731351Y-43925893D01*
X27759165Y-43940945D01*
X27808755Y-43990165D01*
X27823863Y-44058382D01*
X27799692Y-44123937D01*
X27759165Y-44159055D01*
X27731352Y-44174106D01*
X27552955Y-44312959D01*
X27552950Y-44312963D01*
X27399850Y-44479272D01*
X27399842Y-44479283D01*
X27276198Y-44668533D01*
X27185388Y-44875560D01*
X27129892Y-45094710D01*
X27111225Y-45319993D01*
X27111225Y-45320006D01*
X27129892Y-45545289D01*
X27185388Y-45764439D01*
X27276198Y-45971466D01*
X27399842Y-46160716D01*
X27399850Y-46160727D01*
X27514184Y-46284925D01*
X27552954Y-46327040D01*
X27731351Y-46465893D01*
X27748525Y-46475187D01*
X27759165Y-46480945D01*
X27808755Y-46530165D01*
X27823863Y-46598382D01*
X27799692Y-46663937D01*
X27759165Y-46699055D01*
X27731352Y-46714106D01*
X27552955Y-46852959D01*
X27552950Y-46852963D01*
X27399850Y-47019272D01*
X27399842Y-47019283D01*
X27276198Y-47208533D01*
X27185388Y-47415560D01*
X27129892Y-47634710D01*
X27111225Y-47859993D01*
X27111225Y-47860006D01*
X27129892Y-48085289D01*
X27185388Y-48304439D01*
X27276198Y-48511466D01*
X27399842Y-48700716D01*
X27399850Y-48700727D01*
X27513775Y-48824481D01*
X27552954Y-48867040D01*
X27731351Y-49005893D01*
X27759165Y-49020945D01*
X27808755Y-49070165D01*
X27823863Y-49138382D01*
X27799692Y-49203937D01*
X27759165Y-49239055D01*
X27731352Y-49254106D01*
X27552955Y-49392959D01*
X27552950Y-49392963D01*
X27399850Y-49559272D01*
X27399842Y-49559283D01*
X27276198Y-49748533D01*
X27185388Y-49955560D01*
X27129892Y-50174710D01*
X27111225Y-50399993D01*
X27111225Y-50400006D01*
X27129892Y-50625289D01*
X27185388Y-50844439D01*
X27276198Y-51051466D01*
X27399842Y-51240716D01*
X27399850Y-51240727D01*
X27552950Y-51407036D01*
X27552954Y-51407040D01*
X27731351Y-51545893D01*
X27748525Y-51555187D01*
X27759165Y-51560945D01*
X27808755Y-51610165D01*
X27823863Y-51678382D01*
X27799692Y-51743937D01*
X27759165Y-51779055D01*
X27731352Y-51794106D01*
X27552955Y-51932959D01*
X27552950Y-51932963D01*
X27399850Y-52099272D01*
X27399842Y-52099283D01*
X27276198Y-52288533D01*
X27185388Y-52495560D01*
X27129892Y-52714710D01*
X27111225Y-52939993D01*
X27111225Y-52940006D01*
X27129892Y-53165289D01*
X27185388Y-53384439D01*
X27276198Y-53591466D01*
X27399842Y-53780716D01*
X27399850Y-53780727D01*
X27552950Y-53947036D01*
X27552954Y-53947040D01*
X27731351Y-54085893D01*
X27759159Y-54100942D01*
X27759165Y-54100945D01*
X27808755Y-54150165D01*
X27823863Y-54218382D01*
X27799692Y-54283937D01*
X27759165Y-54319055D01*
X27731352Y-54334106D01*
X27552955Y-54472959D01*
X27552950Y-54472963D01*
X27399850Y-54639272D01*
X27399842Y-54639283D01*
X27276198Y-54828533D01*
X27185388Y-55035560D01*
X27129892Y-55254710D01*
X27111225Y-55479993D01*
X27111225Y-55480006D01*
X27129892Y-55705289D01*
X27185388Y-55924439D01*
X27276198Y-56131466D01*
X27399842Y-56320716D01*
X27399850Y-56320727D01*
X27552950Y-56487036D01*
X27552954Y-56487040D01*
X27731351Y-56625893D01*
X27759165Y-56640945D01*
X27808755Y-56690165D01*
X27823863Y-56758382D01*
X27799692Y-56823937D01*
X27759165Y-56859055D01*
X27731352Y-56874106D01*
X27552955Y-57012959D01*
X27552950Y-57012963D01*
X27399850Y-57179272D01*
X27399842Y-57179283D01*
X27276198Y-57368533D01*
X27185388Y-57575560D01*
X27129892Y-57794710D01*
X27111225Y-58019993D01*
X27111225Y-58020006D01*
X27129892Y-58245289D01*
X27185388Y-58464439D01*
X27276198Y-58671466D01*
X27399842Y-58860716D01*
X27399850Y-58860727D01*
X27537516Y-59010270D01*
X27552954Y-59027040D01*
X27731351Y-59165893D01*
X27753930Y-59178112D01*
X27759165Y-59180945D01*
X27808755Y-59230165D01*
X27823863Y-59298382D01*
X27799692Y-59363937D01*
X27759165Y-59399055D01*
X27731352Y-59414106D01*
X27552955Y-59552959D01*
X27552950Y-59552963D01*
X27399850Y-59719272D01*
X27399842Y-59719283D01*
X27276198Y-59908533D01*
X27185388Y-60115560D01*
X27129892Y-60334710D01*
X27111225Y-60559993D01*
X27111225Y-60560006D01*
X27129892Y-60785289D01*
X27185388Y-61004439D01*
X27276198Y-61211466D01*
X27399842Y-61400716D01*
X27399850Y-61400727D01*
X27552950Y-61567036D01*
X27552954Y-61567040D01*
X27731351Y-61705893D01*
X27759159Y-61720942D01*
X27759165Y-61720945D01*
X27808755Y-61770165D01*
X27823863Y-61838382D01*
X27799692Y-61903937D01*
X27759165Y-61939055D01*
X27731352Y-61954106D01*
X27552955Y-62092959D01*
X27552950Y-62092963D01*
X27399850Y-62259272D01*
X27399842Y-62259283D01*
X27276198Y-62448533D01*
X27185388Y-62655560D01*
X27129892Y-62874710D01*
X27111225Y-63099993D01*
X27111225Y-63100006D01*
X27129892Y-63325289D01*
X27185388Y-63544439D01*
X27276198Y-63751466D01*
X27399842Y-63940716D01*
X27399850Y-63940727D01*
X27552950Y-64107036D01*
X27552954Y-64107040D01*
X27731351Y-64245893D01*
X27759165Y-64260945D01*
X27808755Y-64310165D01*
X27823863Y-64378382D01*
X27799692Y-64443937D01*
X27759165Y-64479055D01*
X27731352Y-64494106D01*
X27552955Y-64632959D01*
X27552950Y-64632963D01*
X27399850Y-64799272D01*
X27399842Y-64799283D01*
X27276198Y-64988533D01*
X27185388Y-65195560D01*
X27129892Y-65414710D01*
X27111225Y-65639993D01*
X27111225Y-65640006D01*
X27129892Y-65865289D01*
X27185388Y-66084439D01*
X27276198Y-66291466D01*
X27399842Y-66480716D01*
X27399850Y-66480727D01*
X27552950Y-66647036D01*
X27552954Y-66647040D01*
X27731351Y-66785893D01*
X27759165Y-66800945D01*
X27808755Y-66850165D01*
X27823863Y-66918382D01*
X27799692Y-66983937D01*
X27759165Y-67019055D01*
X27731352Y-67034106D01*
X27552955Y-67172959D01*
X27552950Y-67172963D01*
X27399850Y-67339272D01*
X27399842Y-67339283D01*
X27276198Y-67528533D01*
X27185388Y-67735560D01*
X27129892Y-67954710D01*
X27111225Y-68179993D01*
X27111225Y-68180006D01*
X27129892Y-68405289D01*
X27185388Y-68624439D01*
X27276198Y-68831466D01*
X27399842Y-69020716D01*
X27399850Y-69020727D01*
X27531269Y-69163484D01*
X27552954Y-69187040D01*
X27731351Y-69325893D01*
X27756186Y-69339333D01*
X27759165Y-69340945D01*
X27808755Y-69390165D01*
X27823863Y-69458382D01*
X27799692Y-69523937D01*
X27759165Y-69559055D01*
X27731352Y-69574106D01*
X27552955Y-69712959D01*
X27552950Y-69712963D01*
X27399850Y-69879272D01*
X27399842Y-69879283D01*
X27276198Y-70068533D01*
X27185388Y-70275560D01*
X27129892Y-70494710D01*
X27111225Y-70719993D01*
X27111225Y-70720006D01*
X27129892Y-70945289D01*
X27185388Y-71164439D01*
X27276198Y-71371466D01*
X27399842Y-71560716D01*
X27399850Y-71560727D01*
X27552950Y-71727036D01*
X27552954Y-71727040D01*
X27731351Y-71865893D01*
X27759165Y-71880945D01*
X27808755Y-71930165D01*
X27823863Y-71998382D01*
X27799692Y-72063937D01*
X27759165Y-72099055D01*
X27731352Y-72114106D01*
X27552955Y-72252959D01*
X27552950Y-72252963D01*
X27399850Y-72419272D01*
X27399842Y-72419283D01*
X27276198Y-72608533D01*
X27185388Y-72815560D01*
X27129892Y-73034710D01*
X27111225Y-73259993D01*
X27111225Y-73260006D01*
X27129892Y-73485289D01*
X27185388Y-73704439D01*
X27276198Y-73911466D01*
X27399842Y-74100716D01*
X27399850Y-74100727D01*
X27513534Y-74224219D01*
X27552954Y-74267040D01*
X27731351Y-74405893D01*
X27753930Y-74418112D01*
X27759165Y-74420945D01*
X27808755Y-74470165D01*
X27823863Y-74538382D01*
X27799692Y-74603937D01*
X27759165Y-74639055D01*
X27731352Y-74654106D01*
X27552955Y-74792959D01*
X27552950Y-74792963D01*
X27399850Y-74959272D01*
X27399842Y-74959283D01*
X27276198Y-75148533D01*
X27185388Y-75355560D01*
X27129892Y-75574710D01*
X27111225Y-75799993D01*
X27111225Y-75800006D01*
X25940500Y-75800006D01*
X25940500Y-65662662D01*
X25940539Y-65640002D01*
X25940541Y-65640000D01*
X25940538Y-65639993D01*
X25940500Y-65639899D01*
X25940384Y-65639619D01*
X25940383Y-65639618D01*
X25940383Y-65639617D01*
X25940381Y-65639616D01*
X25923252Y-65622430D01*
X25922903Y-65622196D01*
X23436819Y-63136111D01*
X23403334Y-63074788D01*
X23400500Y-63048430D01*
X23400500Y-28861568D01*
X23420185Y-28794529D01*
X23436814Y-28773892D01*
X24602943Y-27607763D01*
X26625787Y-27607763D01*
X26655413Y-27877013D01*
X26655415Y-27877024D01*
X26723926Y-28139082D01*
X26723928Y-28139088D01*
X26829870Y-28388390D01*
X26901998Y-28506575D01*
X26970979Y-28619605D01*
X26970986Y-28619615D01*
X27144253Y-28827819D01*
X27144259Y-28827824D01*
X27251277Y-28923712D01*
X27345998Y-29008582D01*
X27571910Y-29158044D01*
X27817176Y-29273020D01*
X27817183Y-29273022D01*
X27817185Y-29273023D01*
X28076557Y-29351057D01*
X28076564Y-29351058D01*
X28076569Y-29351060D01*
X28344561Y-29390500D01*
X28344566Y-29390500D01*
X28547636Y-29390500D01*
X28599133Y-29386730D01*
X28750156Y-29375677D01*
X28862758Y-29350593D01*
X29014546Y-29316782D01*
X29014548Y-29316781D01*
X29014553Y-29316780D01*
X29267558Y-29220014D01*
X29503777Y-29087441D01*
X29718177Y-28921888D01*
X29906186Y-28726881D01*
X30063799Y-28506579D01*
X30137787Y-28362669D01*
X30187649Y-28265690D01*
X30187651Y-28265684D01*
X30187656Y-28265675D01*
X30275118Y-28009305D01*
X30324319Y-27742933D01*
X30334212Y-27472235D01*
X30304586Y-27202982D01*
X30236072Y-26940912D01*
X30130130Y-26691610D01*
X29989018Y-26460390D01*
X29933857Y-26394107D01*
X29815746Y-26252180D01*
X29815740Y-26252175D01*
X29614002Y-26071418D01*
X29388092Y-25921957D01*
X29323774Y-25891806D01*
X29142824Y-25806980D01*
X29142819Y-25806978D01*
X29142814Y-25806976D01*
X28883442Y-25728942D01*
X28883428Y-25728939D01*
X28767791Y-25711921D01*
X28615439Y-25689500D01*
X28412369Y-25689500D01*
X28412364Y-25689500D01*
X28209844Y-25704323D01*
X28209831Y-25704325D01*
X27945453Y-25763217D01*
X27945446Y-25763220D01*
X27692439Y-25859987D01*
X27456226Y-25992557D01*
X27241822Y-26158112D01*
X27053822Y-26353109D01*
X27053816Y-26353116D01*
X26896202Y-26573419D01*
X26896199Y-26573424D01*
X26772350Y-26814309D01*
X26772343Y-26814327D01*
X26684884Y-27070685D01*
X26684881Y-27070699D01*
X26635681Y-27337068D01*
X26635680Y-27337075D01*
X26625787Y-27607763D01*
X24602943Y-27607763D01*
X25928803Y-26281902D01*
X25940381Y-26270384D01*
X25940381Y-26270383D01*
X25940383Y-26270383D01*
X25940500Y-26270099D01*
X25940500Y-26270098D01*
X25940541Y-26270000D01*
X25940539Y-26269997D01*
X25940584Y-26245664D01*
X25940500Y-26245240D01*
X25940500Y-25124500D01*
X25960185Y-25057461D01*
X26012989Y-25011706D01*
X26064500Y-25000500D01*
X80512160Y-25000500D01*
X80579199Y-25020185D01*
G37*
%TD.AperFunction*%
%TA.AperFunction,Conductor*%
G36*
X36930703Y-34474139D02*
G01*
X36937181Y-34480171D01*
X41900806Y-39443796D01*
X41934291Y-39505119D01*
X41929307Y-39574811D01*
X41919868Y-39594579D01*
X41919860Y-39594591D01*
X41919854Y-39594606D01*
X41874002Y-39752426D01*
X41874001Y-39752432D01*
X41871100Y-39789304D01*
X41871100Y-40220696D01*
X41874001Y-40257567D01*
X41874002Y-40257573D01*
X41919854Y-40415393D01*
X41919855Y-40415396D01*
X42003517Y-40556862D01*
X42003523Y-40556870D01*
X42119729Y-40673076D01*
X42119733Y-40673079D01*
X42119735Y-40673081D01*
X42261202Y-40756744D01*
X42302824Y-40768836D01*
X42419026Y-40802597D01*
X42419029Y-40802597D01*
X42419031Y-40802598D01*
X42431322Y-40803565D01*
X42455904Y-40805500D01*
X42455906Y-40805500D01*
X44237296Y-40805500D01*
X44255731Y-40804049D01*
X44274169Y-40802598D01*
X44283675Y-40799836D01*
X44353545Y-40800033D01*
X44412216Y-40837973D01*
X44441061Y-40901611D01*
X44430922Y-40970741D01*
X44405955Y-41006592D01*
X43704367Y-41708181D01*
X43643044Y-41741666D01*
X43616686Y-41744500D01*
X42455904Y-41744500D01*
X42419032Y-41747401D01*
X42419026Y-41747402D01*
X42261206Y-41793254D01*
X42261203Y-41793255D01*
X42119737Y-41876917D01*
X42119729Y-41876923D01*
X42003523Y-41993129D01*
X42003517Y-41993137D01*
X41919855Y-42134603D01*
X41900895Y-42199862D01*
X41863288Y-42258747D01*
X41799815Y-42287952D01*
X41730628Y-42278205D01*
X41694138Y-42252946D01*
X36761819Y-37320627D01*
X36728334Y-37259304D01*
X36725500Y-37232946D01*
X36725500Y-34567852D01*
X36745185Y-34500813D01*
X36797989Y-34455058D01*
X36867147Y-34445114D01*
X36930703Y-34474139D01*
G37*
%TD.AperFunction*%
%TA.AperFunction,Conductor*%
G36*
X85684394Y-26678185D02*
G01*
X85730149Y-26730989D01*
X85740093Y-26800147D01*
X85721164Y-26850321D01*
X85696197Y-26888535D01*
X85605388Y-27095560D01*
X85549892Y-27314710D01*
X85531225Y-27539993D01*
X85531225Y-27540006D01*
X85549892Y-27765289D01*
X85596328Y-27948660D01*
X85593703Y-28018480D01*
X85553747Y-28075798D01*
X85489145Y-28102414D01*
X85476122Y-28103100D01*
X80703878Y-28103100D01*
X80636839Y-28083415D01*
X80591084Y-28030611D01*
X80581140Y-27961453D01*
X80583672Y-27948660D01*
X80630107Y-27765293D01*
X80648775Y-27540000D01*
X80648774Y-27539993D01*
X80629998Y-27313393D01*
X80644079Y-27244957D01*
X80665889Y-27215476D01*
X81186547Y-26694819D01*
X81247871Y-26661334D01*
X81274229Y-26658500D01*
X85617355Y-26658500D01*
X85684394Y-26678185D01*
G37*
%TD.AperFunction*%
%TD*%
M02*
