%TF.GenerationSoftware,KiCad,Pcbnew,7.0.7*%
%TF.CreationDate,2024-03-03T00:58:18-08:00*%
%TF.ProjectId,arduino-due-shield,61726475-696e-46f2-9d64-75652d736869,rev?*%
%TF.SameCoordinates,Original*%
%TF.FileFunction,Soldermask,Bot*%
%TF.FilePolarity,Negative*%
%FSLAX46Y46*%
G04 Gerber Fmt 4.6, Leading zero omitted, Abs format (unit mm)*
G04 Created by KiCad (PCBNEW 7.0.7) date 2024-03-03 00:58:18*
%MOMM*%
%LPD*%
G01*
G04 APERTURE LIST*
G04 Aperture macros list*
%AMRoundRect*
0 Rectangle with rounded corners*
0 $1 Rounding radius*
0 $2 $3 $4 $5 $6 $7 $8 $9 X,Y pos of 4 corners*
0 Add a 4 corners polygon primitive as box body*
4,1,4,$2,$3,$4,$5,$6,$7,$8,$9,$2,$3,0*
0 Add four circle primitives for the rounded corners*
1,1,$1+$1,$2,$3*
1,1,$1+$1,$4,$5*
1,1,$1+$1,$6,$7*
1,1,$1+$1,$8,$9*
0 Add four rect primitives between the rounded corners*
20,1,$1+$1,$2,$3,$4,$5,0*
20,1,$1+$1,$4,$5,$6,$7,0*
20,1,$1+$1,$6,$7,$8,$9,0*
20,1,$1+$1,$8,$9,$2,$3,0*%
G04 Aperture macros list end*
%ADD10RoundRect,0.250000X-0.350000X-0.625000X0.350000X-0.625000X0.350000X0.625000X-0.350000X0.625000X0*%
%ADD11O,1.200000X1.750000*%
%ADD12C,3.200000*%
%ADD13O,1.727200X1.727200*%
%ADD14R,1.727200X1.727200*%
%ADD15R,3.800000X3.800000*%
%ADD16C,4.000000*%
G04 APERTURE END LIST*
D10*
%TO.C,J6*%
X70000000Y-40000000D03*
D11*
X72000000Y-40000000D03*
X74000000Y-40000000D03*
X76000000Y-40000000D03*
%TD*%
D10*
%TO.C,J8*%
X70000000Y-60000000D03*
D11*
X72000000Y-60000000D03*
X74000000Y-60000000D03*
X76000000Y-60000000D03*
%TD*%
D10*
%TO.C,J5*%
X85000000Y-60000000D03*
D11*
X87000000Y-60000000D03*
X89000000Y-60000000D03*
X91000000Y-60000000D03*
%TD*%
D12*
%TO.C,A1*%
X111030000Y-27540000D03*
X109760000Y-75800000D03*
D13*
X97060000Y-27540000D03*
D12*
X58960000Y-60560000D03*
X58960000Y-32620000D03*
X34830000Y-75800000D03*
X28480000Y-27540000D03*
D13*
X89440000Y-27540000D03*
X86900000Y-27540000D03*
X58833000Y-55480000D03*
X31020000Y-75800000D03*
X28480000Y-75800000D03*
X74200000Y-27540000D03*
X71660000Y-27540000D03*
X69120000Y-27540000D03*
X66580000Y-27540000D03*
X64040000Y-27540000D03*
X61500000Y-27540000D03*
X58960000Y-27540000D03*
X56420000Y-27540000D03*
X51340000Y-27540000D03*
X48800000Y-27540000D03*
X46260000Y-27540000D03*
X43720000Y-27540000D03*
X101124000Y-75800000D03*
X36100000Y-27540000D03*
X33560000Y-27540000D03*
X61500000Y-75800000D03*
X64040000Y-75800000D03*
X66580000Y-75800000D03*
X69120000Y-75800000D03*
X71660000Y-75800000D03*
X74200000Y-75800000D03*
X76740000Y-75800000D03*
X79280000Y-75800000D03*
X83344000Y-75800000D03*
X85884000Y-75800000D03*
X88424000Y-75800000D03*
X90964000Y-75800000D03*
X93504000Y-75800000D03*
X96044000Y-75800000D03*
X56420000Y-75800000D03*
X53880000Y-75800000D03*
X51340000Y-75800000D03*
X48800000Y-75800000D03*
X46260000Y-75800000D03*
X43720000Y-75800000D03*
X41180000Y-75800000D03*
X38640000Y-75800000D03*
X31020000Y-73260000D03*
X28480000Y-73260000D03*
X31020000Y-70720000D03*
X28480000Y-70720000D03*
X31020000Y-68180000D03*
X28480000Y-68180000D03*
X31020000Y-65640000D03*
X28480000Y-65640000D03*
X31020000Y-63100000D03*
X28480000Y-63100000D03*
X31020000Y-60560000D03*
X28480000Y-60560000D03*
X31020000Y-58020000D03*
X28480000Y-58020000D03*
X31020000Y-55480000D03*
X28480000Y-55480000D03*
X31020000Y-52940000D03*
X28480000Y-52940000D03*
X31020000Y-50400000D03*
X28480000Y-50400000D03*
X31020000Y-47860000D03*
X28480000Y-47860000D03*
X31020000Y-45320000D03*
X28480000Y-45320000D03*
X31020000Y-42780000D03*
X28480000Y-42780000D03*
X31020000Y-40240000D03*
X28480000Y-40240000D03*
X31020000Y-37700000D03*
X28480000Y-37700000D03*
X31020000Y-35160000D03*
X28480000Y-35160000D03*
X41180000Y-27540000D03*
X38640000Y-27540000D03*
D14*
X98584000Y-75800000D03*
X84360000Y-27540000D03*
X81820000Y-27540000D03*
X58833000Y-50400000D03*
X31020000Y-32620000D03*
X28480000Y-32620000D03*
D13*
X94520000Y-27540000D03*
X61373000Y-55480000D03*
X58833000Y-52940000D03*
X91980000Y-27540000D03*
X61373000Y-50400000D03*
X61373000Y-52940000D03*
X106204000Y-75800000D03*
X103664000Y-75800000D03*
X79280000Y-27540000D03*
%TD*%
D15*
%TO.C,J1*%
X117500000Y-70000000D03*
D16*
X117500000Y-65000000D03*
%TD*%
D10*
%TO.C,J2*%
X45000000Y-50000000D03*
D11*
X47000000Y-50000000D03*
%TD*%
D10*
%TO.C,J7*%
X70000000Y-50000000D03*
D11*
X72000000Y-50000000D03*
X74000000Y-50000000D03*
X76000000Y-50000000D03*
%TD*%
D10*
%TO.C,J3*%
X85000000Y-40000000D03*
D11*
X87000000Y-40000000D03*
X89000000Y-40000000D03*
X91000000Y-40000000D03*
%TD*%
D10*
%TO.C,J4*%
X85000000Y-50000000D03*
D11*
X87000000Y-50000000D03*
X89000000Y-50000000D03*
X91000000Y-50000000D03*
%TD*%
M02*
